<svg width="41" height="25" viewBox="0 0 41 25" fill="none" xmlns="http://www.w3.org/2000/svg">
<g clip-path="url(#clip0_90_1580)">
<path opacity="0.07" d="M37.3421 0H3.65789C1.86842 0 0.5 1.35417 0.5 3.125V21.875C0.5 23.6458 1.97368 25 3.65789 25H37.3421C39.1316 25 40.5 23.6458 40.5 21.875V3.125C40.5 1.35417 39.0263 0 37.3421 0Z" fill="#263238"/>
<path d="M37.3422 1.0415C38.5001 1.0415 39.4475 1.979 39.4475 3.12484V21.8748C39.4475 23.0207 38.5001 23.9582 37.3422 23.9582H3.658C2.5001 23.9582 1.55273 23.0207 1.55273 21.8748V3.12484C1.55273 1.979 2.5001 1.0415 3.658 1.0415H37.3422Z" fill="white"/>
<path d="M16.2893 19.7918C20.3588 19.7918 23.6577 16.5272 23.6577 12.5002C23.6577 8.47309 20.3588 5.2085 16.2893 5.2085C12.2199 5.2085 8.9209 8.47309 8.9209 12.5002C8.9209 16.5272 12.2199 19.7918 16.2893 19.7918Z" fill="#EB001B"/>
<path d="M24.7107 19.7918C28.7802 19.7918 32.0791 16.5272 32.0791 12.5002C32.0791 8.47309 28.7802 5.2085 24.7107 5.2085C20.6412 5.2085 17.3423 8.47309 17.3423 12.5002C17.3423 16.5272 20.6412 19.7918 24.7107 19.7918Z" fill="#F79E1B"/>
<path d="M23.6581 12.5C23.6581 10 22.3949 7.8125 20.5002 6.5625C18.6054 7.91667 17.3423 10.1042 17.3423 12.5C17.3423 14.8958 18.6054 17.1875 20.5002 18.4375C22.3949 17.1875 23.6581 15 23.6581 12.5Z" fill="#FF5F00"/>
</g>
<defs>
<clipPath id="clip0_90_1580">
<rect width="40" height="25" fill="white" transform="translate(0.5)"/>
</clipPath>
</defs>
</svg>
