<svg width="120" height="119" viewBox="0 0 120 119" fill="none" xmlns="http://www.w3.org/2000/svg">
<path d="M90.3045 102.601L109.203 106.395C110.25 106.68 110.236 108.023 109.869 108.298L96.5463 117.722C95.849 118.213 90.7523 118.508 89.9114 118.364L72.9121 112.151L89.539 102.747C89.7658 102.601 90.04 102.549 90.3045 102.601V102.601Z" fill="#D8D8D8"/>
<path d="M117.168 13.839L116.834 11.189L113.932 10.9089C113.745 10.3091 113.512 9.73266 113.233 9.18484L115.108 6.95587L113.495 4.82828L110.841 6.03764C110.384 5.61785 109.893 5.23704 109.373 4.89847L109.885 2.02551L107.424 0.990306L105.733 3.36224C105.133 3.22837 104.517 3.14519 103.89 3.1127L102.898 0.369705L100.25 0.704375L99.9688 3.60853C99.3696 3.79568 98.7932 4.02963 98.2454 4.30841L96.0177 2.43231L93.8914 4.04717L95.0995 6.70308C94.6797 7.16057 94.2989 7.65121 93.961 8.17173L91.09 7.66095L90.0554 10.1232L92.4254 11.8154C92.2915 12.4152 92.2083 13.0319 92.1759 13.6597L89.4348 14.6533L89.7688 17.3033L92.6704 17.5834C92.8575 18.1832 93.0908 18.7596 93.3696 19.3075L91.4942 21.5364L93.1077 23.664L95.7617 22.4547C96.2185 22.8745 96.7092 23.2553 97.229 23.5938L96.7176 26.4668L99.1779 27.502L100.869 25.1301C101.469 25.2639 102.085 25.3471 102.712 25.3796L103.705 28.1226L106.353 27.7879L106.634 24.8838C107.233 24.6966 107.809 24.4627 108.357 24.1832L110.585 26.0593L112.711 24.4445L111.503 21.7892C111.923 21.3317 112.303 20.8404 112.641 20.3206L115.512 20.8313L116.547 18.3691L114.177 16.6769C114.311 16.0771 114.394 15.4604 114.427 14.8326L117.168 13.839ZM104.16 21.0679C100.395 21.5442 96.9581 18.8753 96.483 15.1082C96.008 11.3404 98.6756 7.9001 102.441 7.42441C106.206 6.94808 109.643 9.61699 110.118 13.3841C110.593 17.1519 107.925 20.5922 104.161 21.0679H104.16Z" fill="white"/>
<path d="M15.6359 35.9545C15.5469 35.9545 15.4657 35.8986 15.4345 35.8135L14.4981 33.2258C13.9606 33.1913 13.4297 33.1199 12.9157 33.012L11.3197 35.2501C11.2612 35.3313 11.1546 35.3618 11.0623 35.3228L8.62217 34.2961C8.52989 34.2571 8.47661 34.1596 8.49415 34.0615L8.97634 31.3503C8.53509 31.0547 8.11205 30.7265 7.71694 30.373L5.21309 31.5141C5.12211 31.5557 5.01424 31.5284 4.9538 31.4485L3.35324 29.3384C3.2928 29.2585 3.2954 29.148 3.35974 29.0713L5.12926 26.9678C4.89727 26.4967 4.69582 25.9995 4.52881 25.4874L1.79101 25.223C1.69159 25.2132 1.61166 25.1359 1.59931 25.0365L1.26789 22.4078C1.25554 22.3084 1.31338 22.2142 1.4076 22.1797L3.99398 21.2427C4.02843 20.7052 4.10056 20.1737 4.20778 19.659L1.97167 18.0623C1.89044 18.0045 1.8599 17.8973 1.89889 17.805L2.92499 15.3629C2.96398 15.2706 3.06146 15.218 3.15958 15.2349L5.86813 15.717C6.16316 15.2752 6.49133 14.8521 6.8455 14.4563L5.70567 11.9506C5.66408 11.8596 5.69138 11.7517 5.77131 11.6913L7.88005 10.0894C7.95998 10.029 8.07111 10.0316 8.14714 10.0959L10.2481 11.8661C10.7199 11.6334 11.2157 11.432 11.7278 11.265L11.9923 8.52522C12.002 8.4258 12.0793 8.34587 12.1788 8.33352L14.8054 8.00145C14.9036 7.98845 14.9991 8.04694 15.0335 8.14117L15.97 10.7288C16.5067 10.7633 17.0377 10.8348 17.5523 10.9426L19.1483 8.70458C19.2062 8.62335 19.3134 8.59281 19.4057 8.6318L21.8458 9.65855C21.9381 9.69754 21.9914 9.79502 21.9739 9.89314L21.4917 12.6043C21.9329 12.8993 22.3553 13.2275 22.7511 13.5817L25.2549 12.4405C25.3459 12.3996 25.4538 12.4262 25.5142 12.5062L27.1141 14.6162C27.1746 14.6961 27.172 14.8066 27.1076 14.8833L25.3381 16.9868C25.5701 17.458 25.7716 17.9551 25.9386 18.4672L28.6764 18.7317C28.7758 18.7414 28.8557 18.8188 28.8681 18.9182L29.1995 21.5468C29.2118 21.6462 29.154 21.7404 29.0598 21.7749L26.4734 22.712C26.4389 23.2494 26.3675 23.781 26.2596 24.2956L28.4957 25.8923C28.5769 25.9501 28.6075 26.0574 28.5685 26.1496L27.5424 28.5918C27.5034 28.684 27.4059 28.7373 27.3078 28.7198L24.5992 28.2376C24.3042 28.6795 23.976 29.1025 23.6219 29.4983L24.7617 32.0041C24.8033 32.0951 24.776 32.2029 24.6961 32.2634L22.5873 33.8652C22.5074 33.9257 22.3963 33.9231 22.3202 33.8587L20.2193 32.0886C19.7481 32.3206 19.2517 32.5227 18.7396 32.6897L18.4751 35.4294C18.4654 35.5288 18.388 35.6088 18.2886 35.6211L15.6619 35.9532C15.6528 35.9545 15.6437 35.9551 15.6353 35.9551L15.6359 35.9545ZM12.8241 32.5584C12.8397 32.5584 12.8553 32.5604 12.8709 32.5636C13.4492 32.6929 14.0523 32.7748 14.6631 32.806C14.7489 32.8105 14.8243 32.8658 14.8535 32.947L15.7796 35.5067L18.0664 35.2176L18.3282 32.5077C18.3367 32.4219 18.3952 32.3498 18.4777 32.3238C19.0613 32.1412 19.6253 31.9125 20.1537 31.6428C20.2303 31.6038 20.3233 31.6142 20.3889 31.6694L22.4671 33.4201L24.3036 32.0255L23.1761 29.5477C23.1403 29.4697 23.1553 29.3774 23.2131 29.3144C23.6199 28.8705 23.9929 28.3903 24.3211 27.8854C24.3679 27.8132 24.4537 27.7762 24.5382 27.7911L27.2168 28.2681L28.1103 26.1412L25.8989 24.5621C25.8287 24.512 25.7956 24.425 25.8144 24.3411C25.9438 23.7615 26.0256 23.1578 26.0568 22.5476C26.0614 22.4618 26.1166 22.3864 26.1979 22.3572L28.7556 21.4298L28.4671 19.1411L25.7592 18.8798C25.6734 18.8714 25.6013 18.8129 25.5753 18.7304C25.3933 18.1462 25.1646 17.5821 24.8949 17.0538C24.8559 16.9771 24.8663 16.8848 24.9216 16.8185L26.6716 14.7384L25.2783 12.9013L22.8018 14.0301C22.7238 14.0658 22.6315 14.0508 22.5685 13.993C22.1253 13.5862 21.645 13.2132 21.1408 12.885C21.0686 12.8382 21.0316 12.7525 21.0465 12.668L21.5235 9.98737L19.3985 9.09319L17.8201 11.3066C17.77 11.3767 17.6829 11.4105 17.5991 11.391C17.0201 11.2617 16.4171 11.1798 15.8068 11.1486C15.7211 11.1441 15.6457 11.0889 15.6164 11.0076L14.6904 8.44789L12.4036 8.73707L12.1417 11.4469C12.1333 11.5327 12.0748 11.6048 11.9923 11.6308C11.4094 11.8128 10.8453 12.0422 10.3163 12.3119C10.2396 12.3509 10.1474 12.3405 10.0811 12.2852L8.00287 10.5345L6.16641 11.9291L7.29389 14.4076C7.32963 14.4856 7.31469 14.5779 7.25685 14.6409C6.85005 15.0841 6.47704 15.565 6.14952 16.0693C6.10273 16.1414 6.01695 16.1784 5.93247 16.1635L3.25381 15.6865L2.36028 17.8128L4.57169 19.3919C4.64188 19.442 4.67502 19.529 4.65617 19.6129C4.52686 20.1919 4.44498 20.7956 4.41378 21.4064C4.40923 21.4922 4.354 21.5676 4.27277 21.5968L1.71498 22.5242L2.00351 24.8129L4.71141 25.0741C4.79719 25.0826 4.86932 25.1411 4.89532 25.2236C5.07727 25.8078 5.30602 26.3719 5.5757 26.9002C5.61469 26.9769 5.6043 27.0692 5.54906 27.1355L3.79903 29.2156L5.1923 31.0527L7.66885 29.9239C7.74683 29.8882 7.83911 29.9025 7.90215 29.961C8.34469 30.3678 8.82492 30.7408 9.3292 31.069C9.40134 31.1157 9.43838 31.2009 9.42343 31.286L8.94644 33.9666L11.0714 34.8608L12.6499 32.6474C12.6908 32.5902 12.7558 32.5578 12.8241 32.5578V32.5584ZM15.22 29.0129C13.6695 29.0129 12.1716 28.5021 10.9265 27.5358C9.44293 26.3842 8.49675 24.7239 8.26216 22.8595C7.77738 19.0118 10.5106 15.4857 14.3564 14.9996C16.2188 14.765 18.0618 15.2687 19.5454 16.4202C21.029 17.5717 21.9752 19.2327 22.2098 21.0965C22.6945 24.9442 19.9613 28.4702 16.1155 28.9563C15.8159 28.994 15.517 29.0129 15.22 29.0129ZM16.0616 28.5313C19.6728 28.0751 22.2403 24.7635 21.7848 21.1497C21.5638 19.3991 20.6755 17.8394 19.2822 16.7581C17.8889 15.6768 16.1591 15.203 14.409 15.424C10.7978 15.8802 8.23032 19.1918 8.68586 22.8055C8.9068 24.5562 9.79514 26.1158 11.1884 27.1972C12.5817 28.2785 14.3122 28.7523 16.0609 28.5313H16.0616Z" fill="white"/>
<path d="M114.376 73.1307L45.738 63.5851C44.0146 63.3655 42.7234 61.8988 42.7234 60.1617L41.7817 12.2864C41.7817 12.2864 43.3466 11.1583 44.233 10.7262C44.6839 10.5059 45.2038 10.4097 45.7445 10.4786L114.178 19.206C115.902 19.4256 117.193 20.8923 117.193 22.6293V69.6521C117.193 70.4936 116.808 71.2351 116.214 71.7244C115.666 72.1748 114.376 73.1307 114.376 73.1307Z" fill="#263238"/>
<path d="M112.281 73.7669L43.8476 65.0395C42.1242 64.8198 40.833 63.3531 40.833 61.6161V14.5934C40.833 12.9772 42.2516 11.7289 43.8541 11.9329L112.288 20.6603C114.011 20.88 115.303 22.3467 115.303 24.0837V71.1064C115.303 72.7226 113.884 73.9709 112.281 73.7669Z" fill="white"/>
<path d="M40.8329 25.2079C40.7147 25.2079 40.6191 25.1117 40.6191 24.9941V14.5934C40.6191 13.7616 40.9772 12.9694 41.6011 12.4203C42.2249 11.8705 43.0567 11.6158 43.8814 11.721L97.6079 18.573C97.7248 18.588 97.808 18.6952 97.7931 18.8121C97.7781 18.9298 97.6702 19.0116 97.5539 18.9974L43.8274 12.1454C43.1243 12.0551 42.416 12.2728 41.8844 12.7413C41.3522 13.2098 41.0474 13.885 41.0474 14.5934V24.9941C41.0474 25.1124 40.9519 25.2079 40.8336 25.2079H40.8329Z" fill="black"/>
<path d="M110.827 71.8284L45.4831 63.4954C44.2296 63.3356 43.2905 62.2692 43.2905 61.0059V15.6481C43.2905 14.5687 44.238 13.7349 45.3083 13.8714L110.652 22.2044C111.905 22.3642 112.845 23.4306 112.845 24.6939V70.0517C112.845 71.1311 111.897 71.9648 110.827 71.8284Z" fill="#CADDFF"/>
<path d="M72.3567 101.46L1.97539 92.3837C1.42433 92.3128 1.1137 91.8521 1.12085 91.3907C1.12605 91.0723 1.15139 88.8323 1.15139 88.8323L38.3654 67.5577C40.2298 66.4926 42.642 66.0812 44.7722 66.3542L114.265 75.3188C114.683 75.3727 115.042 75.6443 115.207 76.0323L115.319 76.2942C115.319 76.2942 115.259 78.1625 115.284 78.5992C115.302 78.9403 115.149 79.2926 114.792 79.4973L78.5114 100.241C76.647 101.306 74.4863 101.734 72.3561 101.461L72.3567 101.46Z" fill="white"/>
<path d="M72.3567 98.9666L2.22752 89.9078C1.29694 89.7889 1.05195 88.5541 1.86686 88.0882L37.952 67.4784C39.8164 66.4133 41.9772 65.9851 44.1074 66.258L114.237 75.3175C115.168 75.4364 115.413 76.6711 114.598 77.137L78.5127 97.7468C76.6483 98.8119 74.4876 99.2402 72.3574 98.9672L72.3567 98.9666Z" fill="white"/>
<path d="M86.0873 87.5267L25.2762 79.6136C24.4353 79.5057 24.2143 78.3906 24.9506 77.9701L39.2491 69.8861C40.9329 68.9243 42.885 68.537 44.8085 68.7833L105.62 76.6964C106.461 76.8043 106.681 77.9194 105.945 78.3399L91.6467 86.4239C89.9629 87.3857 88.0108 87.773 86.0873 87.5267Z" fill="#CADDFF"/>
<path d="M73.596 99.2597C73.1729 99.2597 72.7499 99.233 72.3294 99.1791L57.7619 97.2971C57.6449 97.2822 57.5617 97.175 57.5773 97.0573C57.5923 96.9404 57.6995 96.8572 57.8171 96.8728L72.3847 98.7547C74.4551 99.0192 76.5937 98.5955 78.4061 97.5603L101.729 84.2346C101.832 84.1761 101.962 84.2119 102.021 84.3145C102.079 84.4172 102.044 84.5478 101.941 84.6063L78.618 97.932C77.0934 98.8028 75.3473 99.2597 73.596 99.2597Z" fill="black"/>
<path d="M79.5753 71.1266C79.5662 71.1266 79.5565 71.1266 79.5474 71.1247L44.0795 66.4698C42.0098 66.2047 39.8711 66.6291 38.0587 67.6643L36.0247 68.8262C35.922 68.8847 35.7914 68.8489 35.7329 68.7462C35.6745 68.6436 35.7102 68.513 35.8129 68.4545L37.8469 67.2925C39.7399 66.2112 41.9734 65.7687 44.1354 66.0455L79.6039 70.7003C79.7209 70.7159 79.8034 70.8231 79.7885 70.9401C79.7742 71.048 79.6825 71.126 79.5766 71.126L79.5753 71.1266Z" fill="black"/>
<path d="M99.8123 65.1416L53.7072 59.4243C52.5908 59.2858 51.6855 58.2961 51.6855 57.2141V1.93841C51.6855 0.85642 52.5908 0.0909038 53.7072 0.229321L99.8123 5.94665C100.929 6.08506 101.834 7.07478 101.834 8.15677V63.4318C101.834 64.5138 100.929 65.2794 99.8123 65.1409V65.1416Z" fill="white"/>
<path d="M94.4796 22.7022L92.2728 17.302C91.2005 14.6786 88.7532 12.7551 86.0453 12.4087L66.2998 9.88276C63.5926 9.5364 61.1446 10.8335 60.0723 13.1827L57.8655 18.0182L64.9826 21.9192V45.361L87.3625 48.2242V24.7824L94.4796 22.7022Z" fill="#26AA9D"/>
<path d="M77.9204 15.4883C77.3485 15.4883 76.7539 15.4506 76.1463 15.3727C72.0581 14.8495 68.8557 12.7746 68.8557 10.6489C68.8557 10.5307 68.9512 10.4352 69.0695 10.4352C69.1878 10.4352 69.2833 10.5313 69.2833 10.6489C69.2833 12.5315 72.3863 14.4596 76.2003 14.9477C78.8022 15.281 81.2287 14.8404 82.3816 13.826C82.8339 13.4283 83.0626 12.9708 83.0626 12.4666C83.0626 12.3483 83.1581 12.2528 83.2764 12.2528C83.3947 12.2528 83.4902 12.3489 83.4902 12.4666C83.4902 13.0904 83.2043 13.6714 82.6636 14.1471C81.681 15.012 79.9453 15.4877 77.9197 15.4877L77.9204 15.4883Z" fill="black"/>
<path d="M82.3388 25.8325C83.2313 24.9915 83.1872 23.4951 82.2403 22.4903C81.2934 21.4855 79.8022 21.3527 78.9097 22.1938C78.0172 23.0348 78.0613 24.5312 79.0082 25.536C79.9551 26.5408 81.4462 26.6736 82.3388 25.8325Z" fill="white"/>
<path d="M100.075 65.3716C99.9806 65.3716 99.8838 65.3658 99.7863 65.3534L53.6811 59.6361C52.4627 59.4853 51.4717 58.3982 51.4717 57.2135V1.93907C51.4717 1.36785 51.6978 0.853177 52.1085 0.490564C52.54 0.109755 53.1171 -0.0585542 53.7338 0.0181274L99.8389 5.73545C101.057 5.88622 102.048 6.97341 102.048 8.15807V63.4331C102.048 64.0044 101.822 64.519 101.412 64.8816C101.048 65.2027 100.582 65.3723 100.075 65.3723V65.3716ZM53.4459 0.427529C53.0437 0.427529 52.6752 0.560097 52.3919 0.810937C52.0747 1.09167 51.8999 1.49197 51.8999 1.93907V57.2141C51.8999 58.1902 52.7226 59.0863 53.7338 59.2118L99.8389 64.9291C100.332 64.9895 100.79 64.8596 101.128 64.5606C101.445 64.2799 101.62 63.8796 101.62 63.4325V8.15742C101.62 7.18136 100.797 6.28522 99.7863 6.1598L53.6811 0.442475C53.6019 0.432728 53.5232 0.427529 53.4466 0.427529H53.4459Z" fill="#26AA9D"/>
<path d="M117.925 84.8331L82.9501 80.359C82.1034 80.2504 81.4165 79.4765 81.4165 78.6291V35.3709C81.4165 34.5242 82.1034 33.925 82.9501 34.0335L117.925 38.5077C118.771 38.6162 119.458 39.3902 119.458 40.2376V83.4958C119.458 84.3425 118.771 84.9417 117.925 84.8331Z" fill="white"/>
<path d="M118.124 85.0606C118.049 85.0606 117.973 85.0561 117.897 85.0463L82.9228 80.5721C81.974 80.4506 81.2026 79.5798 81.2026 78.6304V35.3723C81.2026 34.9024 81.3865 34.482 81.7199 34.1882C82.0572 33.8919 82.5036 33.7619 82.9774 33.8224L117.952 38.2966C118.901 38.4181 119.672 39.2889 119.672 40.2389V83.4971C119.672 83.9669 119.488 84.3874 119.155 84.6811C118.872 84.93 118.512 85.0613 118.124 85.0613V85.0606ZM82.7532 34.2357C82.4679 34.2357 82.2067 34.3299 82.0032 34.5093C81.7635 34.7205 81.6309 35.0265 81.6309 35.3716V78.6298C81.6309 79.3712 82.2352 80.0523 82.9774 80.1471L117.952 84.6213C118.302 84.6662 118.628 84.5732 118.872 84.3588C119.112 84.1476 119.245 83.8415 119.245 83.4964V40.2383C119.245 39.4968 118.64 38.8158 117.898 38.7209L82.9234 34.2467C82.8662 34.2396 82.8091 34.2357 82.7532 34.2357Z" fill="black"/>
<path d="M109.038 51.4104C108.92 51.4104 108.824 51.3142 108.824 51.1966L108.826 43.9606C108.35 41.5028 106.524 39.5306 104.478 39.2674C103.398 39.1296 102.412 39.3921 101.625 40.0283C100.599 40.8588 99.954 42.2911 99.8084 44.0606L99.2866 49.3621C99.2749 49.4797 99.169 49.5648 99.0526 49.5544C98.935 49.5427 98.8492 49.4381 98.8609 49.3205L99.3821 44.0229C99.5374 42.139 100.239 40.6009 101.356 39.6963C102.236 38.9847 103.334 38.689 104.532 38.843C106.799 39.1342 108.739 41.2137 109.25 43.9001C109.253 43.9131 109.254 43.9268 109.254 43.9404L109.253 51.1966C109.253 51.3148 109.156 51.4104 109.039 51.4104H109.038Z" fill="black"/>
<path d="M107.364 77.9565L115.285 76.315C115.395 76.2922 115.462 76.1928 115.445 76.0765C115.116 73.8248 112.699 53.0272 111.084 48.9773L109.683 48.7434L107.89 57.6528L107.365 77.9565H107.364Z" fill="#26AA9D"/>
<path d="M85.9797 74.2517C85.9329 74.4226 85.9725 74.6169 86.0869 74.7781C86.2013 74.9393 86.378 75.0491 86.5645 75.0751L107.375 78.0072L109.682 48.7434L93.8395 47.1968C93.5738 47.1708 93.3463 47.3196 93.28 47.5626L85.9797 74.2511V74.2517Z" fill="white"/>
<path d="M110.975 75.2356C110.859 75.2356 110.764 75.1433 110.761 75.0276L110.082 50.0847C110.079 49.9664 110.172 49.8683 110.29 49.865C110.409 49.8559 110.506 49.9547 110.509 50.073L111.189 75.0159C111.192 75.1342 111.099 75.2323 110.981 75.2356C110.979 75.2356 110.977 75.2356 110.975 75.2356Z" fill="white"/>
<path d="M107.115 78.1813C107.089 78.1813 107.063 78.1794 107.037 78.1755L94.0631 76.3475C93.9461 76.3312 93.8642 76.2227 93.8811 76.1057C93.8974 75.9887 94.0052 75.9069 94.1229 75.9238L107.097 77.7518C107.124 77.7557 107.148 77.7505 107.164 77.7381C107.177 77.7277 107.184 77.7121 107.185 77.692L107.459 74.2199C107.468 74.1022 107.571 74.0145 107.689 74.0236C107.807 74.0327 107.895 74.136 107.885 74.2537L107.612 77.7251C107.601 77.8635 107.537 77.987 107.431 78.0715C107.342 78.143 107.232 78.1807 107.115 78.1807L107.115 78.1813Z" fill="black"/>
<path d="M86.1872 73.9807C86.169 73.9807 86.1501 73.9781 86.1313 73.9736C86.0169 73.9424 85.95 73.8248 85.9805 73.7111L93.0762 47.5119C93.1684 47.1662 93.4914 46.9492 93.8638 46.9856L109.54 48.516C109.746 48.5361 109.899 48.72 109.882 48.926L108.184 69.1238C108.174 69.2414 108.071 69.3265 107.952 69.3194C107.835 69.3097 107.747 69.2057 107.757 69.0881L109.451 48.937L93.8215 47.4112C93.6571 47.3937 93.5272 47.4781 93.4888 47.6231L86.3925 73.8235C86.3665 73.919 86.2801 73.9814 86.1859 73.9814L86.1872 73.9807Z" fill="black"/>
<path d="M106.216 48.4607H106.211C106.093 48.4575 105.999 48.36 106.003 48.2411L106.07 45.4779C106.221 42.4211 104.178 39.5644 101.61 39.2342C99.5522 38.9711 97.8288 40.4332 97.4161 42.7921L96.7494 47.4366C96.7325 47.5535 96.6233 47.6354 96.507 47.6179C96.39 47.601 96.3088 47.4925 96.3257 47.3755L96.9938 42.7246C97.4421 40.1635 99.4066 38.5188 101.665 38.8099C104.446 39.1673 106.66 42.2281 106.498 45.4942L106.431 48.2521C106.428 48.3685 106.333 48.4607 106.217 48.4607H106.216Z" fill="black"/>
<path d="M106.158 55.55C106.785 54.214 106.307 52.6683 105.091 52.0976C103.875 51.5269 102.381 52.1473 101.754 53.4833C101.127 54.8193 101.605 56.365 102.821 56.9357C104.037 57.5064 105.531 56.886 106.158 55.55Z" fill="white"/>
<path d="M53.2139 56.0834L18.2393 51.6092C17.3926 51.5007 16.7057 50.7267 16.7057 49.8793V6.62118C16.7057 5.77443 17.3926 5.17528 18.2393 5.2838L53.2139 9.75798C54.0607 9.8665 54.7476 10.6405 54.7476 11.4879V54.746C54.7476 55.5928 54.0607 56.1919 53.2139 56.0834Z" fill="white"/>
<path d="M51.2722 16.3974L19.7899 12.8038C19.4182 12.7616 19.1205 13.0449 19.1244 13.4374L19.3142 32.4336C19.3181 32.8262 19.6222 33.1784 19.9939 33.2213L51.4763 36.8149C51.848 36.8571 52.1456 36.5738 52.1417 36.1813L51.9519 17.1851C51.948 16.7926 51.6439 16.4397 51.2722 16.3974Z" fill="#26AA9D"/>
<path d="M51.5504 37.0332C51.5179 37.0332 51.4854 37.0313 51.4523 37.0274L19.9699 33.4337C19.4871 33.3785 19.1056 32.9405 19.1004 32.4356L18.9107 13.4393C18.9081 13.1846 19.0082 12.9467 19.1849 12.7875C19.3552 12.6342 19.5787 12.564 19.8146 12.5906L51.297 16.1843C51.7798 16.2395 52.1613 16.6782 52.1665 17.1824L52.3562 36.1787C52.3588 36.4334 52.2587 36.6713 52.082 36.8305C51.9351 36.9624 51.7493 37.0326 51.5511 37.0326L51.5504 37.0332ZM19.7178 13.0137C19.6242 13.0137 19.5384 13.0455 19.4715 13.106C19.3844 13.1846 19.337 13.3016 19.3389 13.4354L19.5287 32.4317C19.5313 32.7143 19.7561 32.9788 20.0187 33.0087L51.501 36.6024C51.6128 36.6147 51.7174 36.5835 51.7954 36.5133C51.8825 36.4347 51.9299 36.3177 51.9286 36.1832L51.7389 17.187C51.7363 16.9043 51.5114 16.6398 51.2489 16.6099L19.7665 13.0163C19.7503 13.0143 19.7347 13.0137 19.7184 13.0137H19.7178Z" fill="black"/>
<path d="M49.6573 34.4553L31.5358 32.3868V29.1759L49.6573 31.2451V34.4553Z" fill="white"/>
<path d="M53.4128 56.3102C53.3381 56.3102 53.2627 56.3057 53.1866 56.2959L36.7391 54.2262C36.6221 54.2112 36.5389 54.1046 36.5532 53.987C36.5682 53.87 36.6748 53.7869 36.7924 53.8012L53.2399 55.8709C53.5902 55.9157 53.9171 55.8228 54.1608 55.6084C54.4006 55.3972 54.5331 55.0911 54.5331 54.746V11.4879C54.5331 10.7464 53.9288 10.0654 53.1866 9.97048L18.2127 5.49631C17.8624 5.45147 17.5356 5.54439 17.2925 5.75884C17.0527 5.97004 16.9202 6.27612 16.9202 6.62119V44.2296C16.9202 44.3479 16.8246 44.4434 16.7064 44.4434C16.5881 44.4434 16.4926 44.3472 16.4926 44.2296V6.62119C16.4926 6.15135 16.6765 5.7309 17.0098 5.43717C17.3471 5.14084 17.7935 5.01087 18.2673 5.07131L53.2419 9.54548C54.1907 9.667 54.962 10.5378 54.962 11.4879V54.746C54.962 55.2159 54.7781 55.6363 54.4447 55.93C54.1621 56.1789 53.802 56.3102 53.4134 56.3102H53.4128Z" fill="black"/>
<path d="M47.7041 24.1884C48.8437 23.0983 48.8015 21.2048 47.6099 19.9592C46.4183 18.7135 44.5286 18.5875 43.389 19.6776C42.2495 20.7677 42.2917 22.6612 43.4832 23.9068C44.6748 25.1524 46.5646 25.2785 47.7041 24.1884Z" fill="white"/>
<path d="M90.6605 107.831C91.4754 108.176 92.3027 108.54 92.9486 109.145C93.6095 109.763 94.054 110.692 93.8525 111.575C93.4769 113.221 91.6821 114.112 90.398 114.947C88.763 116.01 87.061 116.989 85.2376 117.693C83.0671 118.53 80.2357 118.712 78.6605 116.625C77.6123 115.236 80.1317 110.949 82.299 109.167C83.2529 108.383 84.4175 107.852 85.608 107.504C87.2872 107.012 89.0028 107.129 90.604 107.807C90.6235 107.816 90.6423 107.823 90.6618 107.832L90.6605 107.831Z" fill="black"/>
<path d="M78.6514 112.327C79.3071 112.227 79.8484 111.921 80.3773 111.283C81.0636 110.455 81.4866 109.514 82.078 108.63C83.0846 107.127 84.3492 106.661 86.1415 106.749C87.5763 106.819 89.0027 107.064 90.3785 107.478C91.04 107.677 91.7171 107.933 92.1831 108.443C92.3091 108.581 92.4216 108.78 92.3358 108.946C92.2922 109.029 92.2078 109.082 92.1285 109.133C90.9568 109.882 90.114 111.03 89.7371 112.355C89.4225 113.461 88.6817 114.402 87.822 115.156C86.1207 116.648 83.676 117.668 81.3866 117.423C80.4761 117.325 79.6034 117.029 78.6988 116.9C77.8118 116.773 76.9091 116.807 76.0156 116.832C74.0765 116.885 72.1386 116.988 70.1988 117.039C66.4934 117.136 62.788 117.223 59.082 117.308C57.1656 117.351 55.2485 117.394 53.3321 117.436C48.1236 117.436 43.346 114.546 40.9273 109.933L36.1282 100.78L41.6265 85.4168C41.6265 85.4168 50.2044 105.344 50.248 105.446C50.6886 106.47 52.3528 107.256 53.2763 107.712C54.817 108.471 56.465 109.011 58.1169 109.469C61.8932 110.516 65.7877 111.142 69.6725 111.622C72.3953 111.959 75.1377 112.24 77.8793 112.362C78.1549 112.374 78.4103 112.365 78.6501 112.328L78.6514 112.327Z" fill="white"/>
<path d="M82.0631 117.673C81.8266 117.673 81.5933 117.661 81.3639 117.637C80.8564 117.583 80.3586 117.467 79.8764 117.356C79.4813 117.265 79.0725 117.17 78.6683 117.112C77.8456 116.995 76.9891 117.019 76.1612 117.041L76.0209 117.045C75.0779 117.071 74.1188 117.11 73.1908 117.147C72.2121 117.186 71.2003 117.227 70.2035 117.253C66.2635 117.356 62.3729 117.446 59.0859 117.522C57.1695 117.565 55.2525 117.609 53.3355 117.65C48.0256 117.65 43.1999 114.731 40.7363 110.032L35.9372 100.878C35.9093 100.826 35.9054 100.763 35.9255 100.707L41.4238 85.344C41.4537 85.2614 41.5304 85.2049 41.6188 85.2023C41.7039 85.1958 41.7871 85.251 41.8222 85.3316C41.8222 85.3316 50.4001 105.258 50.4437 105.36C50.8362 106.273 52.3536 107.019 53.2607 107.465L53.3706 107.519C54.6858 108.168 56.1668 108.705 58.1742 109.262C61.4208 110.163 64.9748 110.825 69.6985 111.41C72.9185 111.808 75.5211 112.042 77.8892 112.147C78.1634 112.159 78.4013 112.149 78.6183 112.116C79.2441 112.021 79.7354 111.722 80.2117 111.147C80.6257 110.648 80.9376 110.113 81.2671 109.547C81.4659 109.206 81.6713 108.853 81.8994 108.512C82.8917 107.029 84.1628 106.437 86.1513 106.535C87.6069 106.606 89.0496 106.854 90.4396 107.273C91.1304 107.481 91.8387 107.749 92.3404 108.299C92.5718 108.553 92.6393 108.825 92.525 109.045C92.4561 109.178 92.3411 109.252 92.2481 109.311C91.1245 110.029 90.3077 111.13 89.9418 112.415C89.6481 113.446 88.982 114.423 87.9618 115.317C86.2657 116.805 84.0633 117.672 82.0618 117.672L82.0631 117.673ZM77.1899 116.595C77.7027 116.595 78.2187 116.616 78.7294 116.689C79.1518 116.749 79.569 116.845 79.9732 116.939C80.4424 117.047 80.9278 117.159 81.41 117.211C83.4687 117.431 85.8719 116.583 87.6817 114.996C88.6389 114.157 89.2621 113.249 89.5324 112.298C89.9269 110.913 90.8081 109.725 92.0142 108.954C92.0714 108.917 92.1305 108.879 92.1468 108.849C92.1714 108.801 92.1208 108.692 92.0259 108.588C91.5944 108.116 90.9497 107.874 90.3181 107.684C88.9612 107.275 87.553 107.033 86.1324 106.963C84.2895 106.873 83.1672 107.391 82.2568 108.75C82.0358 109.08 81.8337 109.427 81.6381 109.762C81.3139 110.318 80.9792 110.893 80.5425 111.42C79.9947 112.08 79.4215 112.426 78.6846 112.539C78.4396 112.576 78.1738 112.587 77.8716 112.574C75.4925 112.468 72.8795 112.233 69.6479 111.834C64.902 111.247 61.3292 110.581 58.0618 109.674C56.0278 109.11 54.5234 108.564 53.1834 107.903L53.0742 107.849C52.1144 107.377 50.5086 106.587 50.0531 105.529C50.0135 105.437 42.975 89.0871 41.6461 86.0003L36.3628 100.763L41.1184 109.833C43.5079 114.39 48.1881 117.221 53.3335 117.221C55.2454 117.18 57.1618 117.137 59.0788 117.093C62.3651 117.019 66.2557 116.928 70.1944 116.825C71.188 116.799 72.1985 116.759 73.1752 116.719C74.1038 116.682 75.0643 116.644 76.0105 116.617L76.1502 116.613C76.4933 116.603 76.841 116.594 77.1906 116.594L77.1899 116.595Z" fill="black"/>
<path d="M28.2078 74.6521C28.2078 74.6521 38.3116 75.9908 41.6674 80.0796C45.9173 85.2582 47.7493 92.953 48.3445 96.2782C48.5193 97.255 48.4985 98.2564 48.2828 99.2246L48.0358 100.335C47.1631 104.256 43.587 106.973 39.5762 106.765H39.777C39.1284 106.732 38.1829 106.517 37.9087 105.929L36.8475 103.993L36.7474 104.69C35.9494 109.844 40.1142 116.903 40.1142 116.903L28.1636 115.291C22.0239 114.674 16.1811 112.255 11.4938 108.241C8.94903 106.062 6.98065 104.023 6.13195 101.547C4.6906 97.3427 4.82187 96.1444 4.41766 91.0438C4.14213 87.5703 5.16174 84.1008 7.34001 81.3812C10.5411 77.3853 16.7043 73.1925 28.2084 74.6521H28.2078Z" fill="#26AA9D"/>
<path d="M37.5325 106.026C37.4526 106.026 37.3759 105.981 37.3388 105.904L34.5088 99.9609C34.4581 99.8543 34.5036 99.7263 34.6101 99.6756C34.7167 99.6256 34.8447 99.6704 34.8954 99.777L37.7255 105.72C37.7762 105.826 37.7307 105.954 37.6241 106.005C37.5942 106.019 37.563 106.026 37.5325 106.026Z" fill="white"/>
<path d="M29.7916 54.4153L30.5337 53.9208C31.129 53.5237 31.3798 52.7705 31.1316 52.0993C30.3862 50.0854 27.6686 46.5756 17.7831 49.2412C7.7034 51.9595 9.48528 68.1329 18.0723 71.5894C26.6593 75.0459 29.5758 57.2779 29.5758 57.2779L29.7916 54.4153Z" fill="black"/>
<path d="M28.5523 54.7857C28.6673 54.169 29.4887 54.0332 29.7993 54.5784C30.5538 55.9022 30.9132 56.8237 31.0334 57.3858C31.1952 58.1415 30.4934 58.898 30.8716 59.7083C31.2498 60.5187 31.8438 61.4362 31.8977 62.8945C31.9503 64.3196 33.3956 70.8492 28.3222 70.6432C28.1234 70.6354 27.9564 70.792 27.959 70.9915C27.9713 71.9858 28.0246 74.7197 28.2456 76.1994C28.3658 77.0059 27.8635 77.7727 27.0784 77.9943C25.0477 78.5681 21.2662 79.3752 18.4362 78.455C17.7005 78.2159 17.3145 77.4094 17.5764 76.6816C17.9111 75.753 18.3783 73.1425 18.0723 71.5894C18.0723 71.5894 19.7671 71.4224 21.6536 70.5568C24.5538 69.2259 25.9809 65.9865 25.1796 62.8977C25.0074 62.2336 24.6344 61.2894 25.023 60.2886C26.0251 57.7081 27.5236 60.3016 27.5236 60.3016L28.5529 54.7851L28.5523 54.7857Z" fill="white"/>
<path d="M21.4203 79.0847C20.3656 79.0847 19.3167 78.9664 18.3699 78.6584C17.9618 78.5258 17.633 78.2392 17.4432 77.8526C17.2515 77.4614 17.2275 77.0195 17.375 76.6094C17.6973 75.7152 18.1613 73.1477 17.8624 71.631L17.8169 71.3996L18.0515 71.3762C18.0684 71.3749 19.7352 71.2014 21.5645 70.3618C24.3251 69.0953 25.758 65.9786 24.9723 62.951C24.9496 62.8626 24.9229 62.7697 24.8956 62.6729C24.7124 62.0276 24.4615 61.1431 24.8235 60.2113C25.138 59.4015 25.5481 58.972 26.0426 58.9343C26.608 58.8934 27.1044 59.3736 27.4079 59.757L28.3424 54.7467C28.4113 54.3769 28.6953 54.0982 29.0657 54.0358C29.4374 53.9734 29.7987 54.145 29.9852 54.4725C30.8372 55.9678 31.1393 56.8574 31.2427 57.3409C31.3252 57.7269 31.2186 58.0947 31.1159 58.4502C30.999 58.855 30.8878 59.2378 31.0652 59.6179C31.1276 59.7512 31.1952 59.8876 31.266 60.0286C31.6215 60.7402 32.0647 61.6253 32.1115 62.8867C32.118 63.0582 32.1466 63.3214 32.1804 63.6262C32.3584 65.243 32.6899 68.2531 31.2056 69.8439C30.5311 70.5665 29.5583 70.9064 28.3132 70.857C28.2755 70.8557 28.2384 70.8687 28.2111 70.8953C28.1962 70.9096 28.1715 70.9408 28.1721 70.9883C28.1851 72.0625 28.2397 74.7171 28.4561 76.1675C28.5913 77.0753 28.024 77.9494 27.1356 78.2002C25.7684 78.5862 23.5829 79.0853 21.4196 79.0853L21.4203 79.0847ZM18.3205 71.7733C18.557 73.3979 18.1074 75.8387 17.7772 76.7537C17.6694 77.0539 17.6869 77.3769 17.8273 77.6635C17.9657 77.9455 18.2048 78.1541 18.5018 78.2509C21.2831 79.1555 25.0321 78.349 27.02 77.7876C27.7017 77.5952 28.137 76.9259 28.0337 76.2299C27.8134 74.7535 27.7582 72.0755 27.7452 70.9928C27.7432 70.8388 27.803 70.6945 27.9135 70.5873C28.024 70.4801 28.1747 70.4229 28.3314 70.4281C29.4458 70.4749 30.3075 70.1779 30.8937 69.5508C32.2441 68.1036 31.9263 65.2209 31.756 63.6723C31.7203 63.3461 31.6917 63.0888 31.6845 62.9016C31.641 61.7325 31.2394 60.9287 30.8846 60.219C30.8125 60.0741 30.7423 59.9344 30.6786 59.798C30.4329 59.2722 30.5779 58.7718 30.7059 58.33C30.7982 58.0115 30.8852 57.71 30.8255 57.4299C30.7462 57.0582 30.483 56.2076 29.6148 54.6837C29.4972 54.477 29.2918 54.4309 29.1378 54.4569C28.9857 54.4822 28.807 54.5927 28.7641 54.824L27.6289 60.9079L27.339 60.4082C27.1623 60.1027 26.5917 59.3229 26.0757 59.36C25.6819 59.3905 25.3947 59.9234 25.2231 60.3653C24.9132 61.1639 25.1322 61.9353 25.3083 62.5552C25.3369 62.656 25.3642 62.7521 25.3876 62.8431C26.2252 66.0722 24.6929 69.3974 21.7439 70.7504C20.2284 71.4458 18.8514 71.6966 18.3218 71.7726L18.3205 71.7733Z" fill="black"/>
<path d="M13.7248 52.51C13.7248 52.51 8.76455 50.1426 5.15727 53.5244C1.54998 56.9061 -1.94488 64.3462 3.46637 72.4628C6.86701 77.5634 8.17514 81.5957 8.67747 83.8883C8.84578 84.6558 9.85174 84.8481 10.2871 84.1944C12.4648 80.9257 16.4379 73.715 14.5137 66.9397C11.9208 57.8088 13.7248 52.51 13.7248 52.51Z" fill="black"/>
<path d="M26.8191 64.7595C26.7099 64.7595 26.5936 64.7472 26.4721 64.7166C25.895 64.5737 25.4018 64.0837 25.0054 63.2623C24.9541 63.1557 24.9989 63.0277 25.1055 62.9763C25.2114 62.925 25.3401 62.9692 25.3914 63.0764C25.73 63.7783 26.1283 64.1903 26.5754 64.3014C27.0517 64.4196 27.4228 64.1519 27.4261 64.1493C27.5216 64.0791 27.6555 64.0993 27.725 64.1948C27.7952 64.2897 27.7744 64.4242 27.6795 64.4937C27.662 64.5067 27.3117 64.7589 26.8185 64.7589L26.8191 64.7595Z" fill="black"/>
<path d="M12.4783 52.0635C12.4783 52.0635 17.087 53.4516 15.2005 57.8718C15.2005 57.8718 17.33 56.3356 17.2761 53.937C17.2221 51.5384 15.4435 50.7567 14.2575 50.7833C13.0716 50.81 12.4789 52.0635 12.4789 52.0635H12.4783Z" fill="white"/>
<path d="M14.7015 58.4957L15.0037 57.7873C15.5346 56.5435 15.5808 55.4356 15.1408 54.4946C14.3844 52.8771 12.4362 52.2741 12.4167 52.2682L12.1788 52.1967L12.2854 51.9719C12.3121 51.916 12.9495 50.5988 14.2531 50.5689C14.9933 50.552 15.7523 50.8126 16.3274 51.2844C16.8402 51.7048 17.4582 52.5054 17.4907 53.9312C17.5465 56.4142 15.417 57.979 15.3267 58.0447L14.7022 58.495L14.7015 58.4957ZM12.7923 51.9478C13.3849 52.1779 14.8549 52.8726 15.5288 54.3139C15.9219 55.1548 15.9739 56.1029 15.686 57.1414C16.2819 56.5117 17.0949 55.3836 17.0624 53.9422C17.0397 52.9421 16.692 52.1382 16.0558 51.6164C15.5658 51.2148 14.8945 50.9848 14.2629 50.9978C13.5013 51.0153 13.0061 51.6197 12.7929 51.9478H12.7923Z" fill="black"/>
<path d="M3.68994 89.85C7.49347 92.1491 15.2292 95.4263 27.6796 94.666C28.5952 94.6101 29.4413 95.1527 29.7649 96.0112L30.5415 99.1194C31.9068 104.585 34.475 109.677 38.0582 114.024L39.9181 116.28C40.2047 116.627 39.935 117.148 39.4859 117.115L31.2771 116.512C17.1872 114.649 6.24058 107.582 2.72947 94.7076L1.79304 91.2738C1.48892 90.1593 2.70088 89.2515 3.68994 89.8493V89.85Z" fill="white"/>
<path d="M39.6295 117.339C39.6119 117.339 39.5944 117.338 39.5768 117.337L37.6377 117.195C37.5201 117.186 37.431 117.084 37.4401 116.965C37.4486 116.848 37.55 116.76 37.6695 116.768L39.6087 116.91C39.762 116.922 39.8329 116.809 39.8504 116.775C39.8686 116.741 39.9193 116.618 39.8212 116.499L37.8931 114.161C34.3124 109.817 31.6981 104.634 30.3335 99.172L29.5601 96.0761C29.2664 95.31 28.5184 94.8324 27.6925 94.8804C26.4539 94.9558 25.2595 94.9916 24.1125 94.9916C13.4849 94.9916 6.7805 91.9685 3.57937 90.0339C3.12188 89.7571 2.66114 89.8838 2.38236 90.0943C2.10618 90.3029 1.85989 90.7084 1.9996 91.2192L2.93603 94.653C6.04358 106.049 15.4293 113.632 29.3632 116.008C29.4796 116.028 29.5582 116.139 29.538 116.255C29.5179 116.371 29.4074 116.45 29.2911 116.43C22.4807 115.269 16.7381 112.902 12.2229 109.395C7.41605 105.662 4.15254 100.739 2.52273 94.7654L1.5863 91.3316C1.42254 90.7318 1.62854 90.1268 2.12437 89.7525C2.6228 89.3763 3.26485 89.3438 3.80032 89.6674C7.30428 91.7846 15.0641 95.2223 27.6658 94.4528C28.6809 94.3905 29.6069 94.987 29.9643 95.9364C29.9676 95.9442 29.9695 95.952 29.9715 95.9598L30.7481 99.068C32.0971 104.468 34.6822 109.593 38.2226 113.888L40.1506 116.227C40.3267 116.44 40.3573 116.726 40.2299 116.971C40.111 117.201 39.8842 117.338 39.6288 117.338L39.6295 117.339Z" fill="black"/>
<path d="M109.991 97.7729C109.873 97.7729 109.778 97.6767 109.778 97.5591V96.4524C109.778 96.3341 109.873 96.2386 109.991 96.2386C110.11 96.2386 110.205 96.3348 110.205 96.4524V97.5591C110.205 97.6773 110.11 97.7729 109.991 97.7729Z" fill="#F8931F"/>
<path d="M109.991 100.351C109.873 100.351 109.778 100.255 109.778 100.138V99.031C109.778 98.9127 109.873 98.8172 109.991 98.8172C110.11 98.8172 110.205 98.9133 110.205 99.031V100.138C110.205 100.256 110.11 100.351 109.991 100.351Z" fill="#F8931F"/>
<path d="M109.256 98.5085H108.149C108.031 98.5085 107.935 98.4123 107.935 98.2947C107.935 98.1771 108.031 98.0809 108.149 98.0809H109.256C109.374 98.0809 109.47 98.1771 109.47 98.2947C109.47 98.4123 109.374 98.5085 109.256 98.5085Z" fill="#F8931F"/>
<path d="M111.834 98.5085H110.728C110.609 98.5085 110.514 98.4123 110.514 98.2947C110.514 98.1771 110.609 98.0809 110.728 98.0809H111.834C111.953 98.0809 112.048 98.1771 112.048 98.2947C112.048 98.4123 111.953 98.5085 111.834 98.5085Z" fill="#F8931F"/>
<path d="M64.3105 51.4234C64.1922 51.4234 64.0967 51.3272 64.0967 51.2096V50.1029C64.0967 49.9846 64.1922 49.8891 64.3105 49.8891C64.4287 49.8891 64.5243 49.9853 64.5243 50.1029V51.2096C64.5243 51.3279 64.4287 51.4234 64.3105 51.4234Z" fill="#F8931F"/>
<path d="M64.3105 54.002C64.1922 54.002 64.0967 53.9058 64.0967 53.7882V52.6815C64.0967 52.5632 64.1922 52.4677 64.3105 52.4677C64.4287 52.4677 64.5243 52.5639 64.5243 52.6815V53.7882C64.5243 53.9065 64.4287 54.002 64.3105 54.002Z" fill="#F8931F"/>
<path d="M63.5749 52.159H62.4682C62.3499 52.159 62.2544 52.0628 62.2544 51.9452C62.2544 51.8276 62.3499 51.7314 62.4682 51.7314H63.5749C63.6931 51.7314 63.7887 51.8276 63.7887 51.9452C63.7887 52.0628 63.6931 52.159 63.5749 52.159Z" fill="#F8931F"/>
<path d="M66.1535 52.159H65.0468C64.9285 52.159 64.833 52.0628 64.833 51.9452C64.833 51.8276 64.9285 51.7314 65.0468 51.7314H66.1535C66.2718 51.7314 66.3673 51.8276 66.3673 51.9452C66.3673 52.0628 66.2718 52.159 66.1535 52.159Z" fill="#F8931F"/>
<path d="M91.1837 28.9316C91.0693 28.9316 90.9744 28.8413 90.9699 28.7263C90.9653 28.608 91.057 28.5086 91.1752 28.504C91.4599 28.4924 91.7491 28.4846 92.0356 28.4794C92.1526 28.4742 92.2514 28.5716 92.2533 28.6899C92.2553 28.8082 92.1611 28.9057 92.0428 28.9076C91.7594 28.9128 91.4735 28.9206 91.1921 28.9323C91.1889 28.9323 91.1863 28.9323 91.1837 28.9323V28.9316Z" fill="#26AA9D"/>
<path d="M86.43 82.2604C86.3124 82.2604 86.2168 82.1655 86.2162 82.0479C86.2155 81.9296 86.3111 81.8335 86.4287 81.8328C87.0012 81.8296 87.5783 81.8107 88.1423 81.7776C88.258 81.7711 88.3613 81.8608 88.3685 81.9784C88.3756 82.0966 88.2853 82.198 88.167 82.2045C87.5952 82.2383 87.011 82.2572 86.4313 82.2604H86.43ZM84.7047 82.2247C84.7014 82.2247 84.6982 82.2247 84.6943 82.2247C84.1191 82.198 83.5369 82.1551 82.9624 82.0986C82.8448 82.0869 82.759 81.9823 82.7707 81.8647C82.7824 81.747 82.8864 81.6599 83.0047 81.6729C83.572 81.7288 84.1471 81.7711 84.7151 81.7977C84.8333 81.8029 84.9243 81.9036 84.9191 82.0213C84.9139 82.1356 84.819 82.2253 84.7053 82.2253L84.7047 82.2247ZM89.8735 82.057C89.7663 82.057 89.6734 81.9764 89.661 81.8673C89.6474 81.7496 89.7319 81.6437 89.8495 81.6307C90.4174 81.5664 90.9887 81.4851 91.5462 81.3903C91.6625 81.3708 91.7737 81.4488 91.7932 81.5651C91.8133 81.6814 91.7347 81.7925 91.6184 81.812C91.053 81.9082 90.474 81.9907 89.8982 82.0557C89.8898 82.057 89.882 82.057 89.8735 82.057ZM81.2709 81.8854C81.2605 81.8854 81.2494 81.8848 81.2384 81.8829C80.6672 81.7964 80.0921 81.6937 79.5287 81.5787C79.413 81.5553 79.3383 81.4416 79.3616 81.3259C79.385 81.2103 79.4975 81.1355 79.6144 81.1589C80.1707 81.2726 80.7387 81.374 81.3027 81.4592C81.4197 81.4767 81.5003 81.5859 81.4821 81.7028C81.4658 81.8088 81.3749 81.8848 81.2709 81.8848V81.8854ZM93.2742 81.476C93.1767 81.476 93.0883 81.4091 93.0656 81.3097C93.0389 81.1947 93.111 81.0796 93.2261 81.053C93.783 80.925 94.3405 80.7794 94.8832 80.6195C94.9969 80.5864 95.1158 80.6514 95.149 80.7645C95.1821 80.8782 95.1171 80.9971 95.004 81.0303C94.453 81.1921 93.887 81.3396 93.3222 81.4702C93.306 81.4741 93.2897 81.4754 93.2742 81.4754V81.476ZM77.8904 81.1927C77.8729 81.1927 77.8547 81.1908 77.8365 81.1862C77.2782 81.0413 76.7168 80.8795 76.167 80.7053C76.0546 80.6696 75.9922 80.5494 76.0273 80.4369C76.063 80.3245 76.1833 80.2621 76.2963 80.2979C76.8389 80.4694 77.3933 80.6293 77.9443 80.7723C78.0587 80.8022 78.1276 80.9191 78.0977 81.0335C78.0723 81.1297 77.9859 81.194 77.8904 81.194V81.1927ZM96.5851 80.5078C96.4967 80.5078 96.4142 80.4532 96.3837 80.3648C96.344 80.253 96.4025 80.1309 96.5143 80.0919C97.0523 79.9015 97.5898 79.6948 98.1129 79.4765C98.2221 79.431 98.3475 79.4823 98.393 79.5915C98.4385 79.7007 98.3871 79.8261 98.278 79.8716C97.7477 80.0932 97.2025 80.3031 96.6572 80.4954C96.6339 80.5039 96.6098 80.5078 96.5858 80.5078H96.5851ZM74.6009 80.1497C74.5755 80.1497 74.5502 80.1452 74.5255 80.1361C73.9842 79.932 73.4429 79.7111 72.9171 79.4791C72.8093 79.4316 72.7599 79.3049 72.808 79.197C72.8554 79.0892 72.9821 79.0398 73.09 79.0879C73.6086 79.3166 74.1427 79.535 74.6769 79.7364C74.7874 79.778 74.8433 79.9015 74.8017 80.0119C74.7692 80.0977 74.688 80.1504 74.6015 80.1504L74.6009 80.1497ZM99.7674 79.1788C99.6881 79.1788 99.6121 79.1347 99.575 79.0586C99.523 78.952 99.5679 78.824 99.6738 78.7727C100.188 78.5232 100.698 78.2561 101.192 77.9799C101.295 77.9221 101.426 77.9591 101.483 78.0624C101.541 78.1657 101.504 78.2957 101.401 78.3535C100.901 78.6336 100.382 78.9046 99.861 79.1581C99.8311 79.173 99.7992 79.1795 99.7674 79.1795V79.1788ZM71.4439 78.7558C71.4115 78.7558 71.3777 78.748 71.3465 78.7324C70.8298 78.4686 70.3171 78.1878 69.8219 77.8974C69.7199 77.8376 69.6855 77.7063 69.7453 77.6043C69.805 77.5022 69.9363 77.4685 70.0383 77.5282C70.5264 77.8142 71.0319 78.091 71.5414 78.3509C71.6467 78.4049 71.6883 78.5336 71.635 78.6388C71.5973 78.7129 71.5219 78.7558 71.4439 78.7558ZM102.776 77.4932C102.705 77.4932 102.636 77.4581 102.595 77.3944C102.531 77.2949 102.56 77.1624 102.66 77.0987C103.139 76.792 103.614 76.467 104.073 76.133C104.169 76.0635 104.303 76.0843 104.372 76.1798C104.442 76.2753 104.421 76.4092 104.325 76.4787C103.859 76.818 103.377 77.1474 102.891 77.4594C102.855 77.4821 102.815 77.4932 102.776 77.4932ZM68.4683 77.0103C68.4274 77.0103 68.3858 76.9986 68.3494 76.9739C67.8678 76.651 67.3915 76.3104 66.9353 75.9621C66.8411 75.8906 66.8236 75.7561 66.895 75.6619C66.9665 75.5677 67.101 75.5501 67.1953 75.6216C67.645 75.9647 68.1135 76.3 68.5879 76.6185C68.686 76.6841 68.712 76.8173 68.6464 76.9154C68.6054 76.9772 68.5372 77.0103 68.4683 77.0103ZM105.563 75.463C105.502 75.463 105.441 75.4364 105.398 75.3851C105.323 75.2941 105.336 75.1589 105.428 75.0835C105.865 74.7229 106.298 74.3434 106.713 73.9567C106.799 73.8761 106.935 73.8807 107.016 73.9678C107.096 74.0542 107.092 74.19 107.005 74.2706C106.583 74.6637 106.144 75.0484 105.7 75.4143C105.66 75.4474 105.611 75.463 105.564 75.463H105.563ZM65.7286 74.9152C65.6785 74.9152 65.6285 74.8977 65.5882 74.8626C65.1574 74.487 64.7356 74.0951 64.3346 73.6968L64.3145 73.6766C64.2307 73.5928 64.2307 73.4576 64.3145 73.3738C64.3983 73.29 64.5335 73.29 64.6173 73.3738L64.6362 73.3926C65.0306 73.7845 65.4459 74.1705 65.8696 74.5396C65.9586 74.6169 65.9677 74.7521 65.8904 74.8418C65.8481 74.8905 65.7884 74.9152 65.7292 74.9152H65.7286ZM108.084 73.1158C108.031 73.1158 107.978 73.0963 107.937 73.0567C107.851 72.9754 107.848 72.8396 107.929 72.7538C108.321 72.3431 108.705 71.9142 109.072 71.4795C109.148 71.3892 109.283 71.3775 109.373 71.4542C109.464 71.5302 109.475 71.6654 109.399 71.7557C109.026 72.1969 108.636 72.6323 108.239 73.0489C108.197 73.0931 108.141 73.1152 108.084 73.1152V73.1158ZM63.2787 72.4881C63.2202 72.4881 63.1617 72.464 63.1194 72.4172C62.7451 72 62.3663 71.5555 61.9933 71.0967C61.9185 71.0051 61.9328 70.8699 62.0245 70.7959C62.1161 70.7211 62.2512 70.7354 62.3253 70.8271C62.6944 71.2813 63.0688 71.7199 63.4385 72.1319C63.5171 72.2203 63.51 72.3555 63.4223 72.4341C63.3813 72.4705 63.3306 72.4887 63.2793 72.4887L63.2787 72.4881ZM110.309 70.4826C110.264 70.4826 110.219 70.469 110.18 70.4397C110.086 70.3689 110.067 70.235 110.138 70.1402C110.477 69.6866 110.809 69.2148 111.123 68.7391C111.188 68.6403 111.322 68.613 111.42 68.6787C111.519 68.7437 111.545 68.8769 111.48 68.975C111.161 69.4578 110.824 69.9361 110.48 70.3962C110.438 70.4521 110.373 70.482 110.309 70.482V70.4826ZM61.0984 69.8139C61.0334 69.8139 60.9691 69.7841 60.9269 69.7282C60.598 69.2882 60.2562 68.8151 59.9125 68.3239C59.8449 68.227 59.8683 68.0938 59.9651 68.0256C60.0619 67.958 60.1951 67.9814 60.2634 68.0782C60.6045 68.5662 60.9431 69.0348 61.2693 69.4715C61.3402 69.5664 61.3207 69.7002 61.2264 69.7711C61.1881 69.7997 61.1433 69.8139 61.0984 69.8139ZM112.212 67.6058C112.176 67.6058 112.138 67.5967 112.104 67.5765C112.002 67.5168 111.968 67.3861 112.027 67.2841C112.312 66.7948 112.588 66.2885 112.848 65.7791C112.902 65.6738 113.031 65.6322 113.136 65.6855C113.241 65.7394 113.283 65.8681 113.23 65.9734C112.966 66.49 112.686 67.0034 112.397 67.4992C112.357 67.5674 112.286 67.6058 112.212 67.6058ZM59.1171 66.9891C59.0475 66.9891 58.9799 66.9553 58.9383 66.8936C58.6466 66.4549 58.3372 65.9812 57.9928 65.4463C57.9291 65.3469 57.9577 65.2144 58.0572 65.1507C58.1566 65.087 58.2892 65.1156 58.3528 65.215C58.696 65.7479 59.004 66.2197 59.2945 66.657C59.3601 66.7551 59.3335 66.8883 59.2347 66.954C59.1983 66.978 59.1573 66.9897 59.1164 66.9897L59.1171 66.9891ZM113.781 64.5314C113.752 64.5314 113.723 64.5255 113.695 64.5132C113.587 64.4651 113.538 64.339 113.586 64.2311C113.816 63.7119 114.035 63.1784 114.239 62.6442C114.281 62.5337 114.404 62.4779 114.515 62.5207C114.625 62.563 114.681 62.6865 114.639 62.7969C114.433 63.3383 114.21 63.8789 113.977 64.4046C113.942 64.4846 113.863 64.532 113.781 64.532V64.5314ZM57.2455 64.0888C57.1747 64.0888 57.1051 64.0537 57.0642 63.9894L56.7601 63.5092C56.5541 63.1829 56.3474 62.8574 56.1408 62.5318C56.0771 62.4317 56.107 62.2998 56.2064 62.2361C56.3065 62.1724 56.4384 62.2023 56.5021 62.3018C56.7094 62.6273 56.9154 62.9535 57.122 63.2798L57.4262 63.76C57.4892 63.8601 57.46 63.992 57.3599 64.0557C57.3241 64.0784 57.2845 64.0888 57.2455 64.0888ZM115.012 61.3036C114.99 61.3036 114.968 61.3003 114.946 61.2932C114.834 61.2568 114.772 61.1366 114.809 61.0235C114.983 60.4841 115.146 59.9305 115.293 59.3788C115.324 59.2644 115.442 59.1974 115.555 59.2273C115.67 59.2579 115.737 59.3755 115.707 59.4892C115.557 60.0481 115.392 60.6083 115.215 61.1548C115.186 61.2451 115.102 61.3029 115.012 61.3029V61.3036ZM55.3909 61.1775C55.3207 61.1775 55.2518 61.1431 55.2108 61.08C54.8697 60.5537 54.559 60.0832 54.2621 59.6426C54.1958 59.5445 54.2218 59.4112 54.3199 59.3456C54.418 59.2793 54.5513 59.3053 54.6169 59.4034C54.9152 59.846 55.2271 60.3184 55.5696 60.8468C55.6339 60.9462 55.6053 61.0787 55.5065 61.1431C55.4708 61.1665 55.4305 61.1775 55.3902 61.1775H55.3909ZM53.4582 58.3176C53.3913 58.3176 53.3256 58.2864 53.2834 58.2279C52.9396 57.7444 52.5965 57.2791 52.2644 56.8444C52.193 56.7501 52.2105 56.6163 52.3047 56.5441C52.399 56.4727 52.5328 56.4902 52.605 56.5844C52.9403 57.0231 53.286 57.4923 53.633 57.9796C53.7013 58.0758 53.6792 58.2097 53.583 58.2779C53.5453 58.3046 53.5018 58.3176 53.4589 58.3176H53.4582ZM115.906 57.9718C115.891 57.9718 115.876 57.9705 115.86 57.9673C115.744 57.9426 115.671 57.8282 115.696 57.7132C115.815 57.1589 115.923 56.5922 116.017 56.0282C116.036 55.9118 116.146 55.8332 116.263 55.8521C116.379 55.8715 116.459 55.9814 116.439 56.0983C116.344 56.6689 116.235 57.2427 116.114 57.8035C116.093 57.9036 116.004 57.9725 115.905 57.9725L115.906 57.9718ZM51.3527 55.5837C51.2923 55.5837 51.2318 55.5583 51.1896 55.5083C50.8172 55.0696 50.4319 54.6407 50.0439 54.2333C49.9627 54.1475 49.966 54.0123 50.0517 53.9305C50.1375 53.8492 50.2727 53.8525 50.3546 53.9383C50.7477 54.3516 51.1383 54.7863 51.5158 55.2315C51.5925 55.3218 51.5815 55.4563 51.4911 55.533C51.4508 55.5674 51.4015 55.5837 51.3527 55.5837ZM116.471 54.5686C116.463 54.5686 116.454 54.5686 116.446 54.5673C116.328 54.5537 116.244 54.4471 116.258 54.3295C116.325 53.7654 116.379 53.1909 116.42 52.621C116.429 52.5028 116.532 52.415 116.649 52.4228C116.767 52.4313 116.856 52.5339 116.847 52.6516C116.806 53.228 116.75 53.8089 116.683 54.3795C116.67 54.488 116.578 54.5686 116.471 54.5686ZM48.9717 53.085C48.9197 53.085 48.8671 53.0662 48.8261 53.0278C48.4044 52.6353 47.9696 52.2571 47.5355 51.903C47.4439 51.8282 47.4303 51.6937 47.5043 51.6021C47.5791 51.5104 47.7136 51.4961 47.8052 51.5709C48.2471 51.9302 48.6884 52.315 49.1173 52.714C49.2037 52.7945 49.2089 52.9297 49.1283 53.0168C49.0861 53.0623 49.0289 53.085 48.9717 53.085ZM116.719 51.127C116.719 51.127 116.715 51.127 116.713 51.127C116.595 51.1238 116.502 51.0257 116.505 50.9074C116.51 50.7501 116.513 50.5922 116.515 50.4343C116.517 50.2874 116.518 50.1399 116.518 49.9924C116.518 49.726 116.515 49.4569 116.507 49.1931C116.504 49.0748 116.597 48.9767 116.715 48.9735C116.717 48.9735 116.719 48.9735 116.721 48.9735C116.837 48.9735 116.932 49.0657 116.935 49.1814C116.942 49.4491 116.946 49.7221 116.946 49.9924C116.946 50.1419 116.945 50.2913 116.943 50.4402C116.94 50.6 116.937 50.7592 116.932 50.9184C116.929 51.0348 116.834 51.1264 116.719 51.1264L116.719 51.127ZM46.293 50.9106C46.2508 50.9106 46.2079 50.8983 46.1709 50.8723C45.6991 50.5422 45.2156 50.2316 44.7334 49.9489C44.6314 49.8891 44.5969 49.7578 44.6567 49.6558C44.7165 49.5538 44.8478 49.52 44.9498 49.5798C45.4417 49.8683 45.935 50.1854 46.4159 50.5214C46.5127 50.589 46.5361 50.7228 46.4685 50.8197C46.4269 50.8794 46.3606 50.9113 46.293 50.9113V50.9106ZM43.3174 49.1691C43.2869 49.1691 43.255 49.1626 43.2258 49.1483C42.7091 48.9026 42.1808 48.6804 41.6544 48.4874C41.5433 48.4464 41.4868 48.3236 41.5271 48.2131C41.568 48.102 41.6908 48.0448 41.802 48.0858C42.3407 48.2833 42.8814 48.5108 43.4103 48.7623C43.5169 48.8129 43.5624 48.941 43.5117 49.0475C43.4753 49.1249 43.398 49.1697 43.318 49.1697L43.3174 49.1691ZM40.0818 47.9876C40.0643 47.9876 40.0461 47.9857 40.0285 47.9811C39.4788 47.8395 38.918 47.7251 38.3604 47.6406C38.2434 47.6231 38.1628 47.5139 38.181 47.3969C38.1986 47.28 38.3091 47.2007 38.4247 47.2176C38.9966 47.304 39.5723 47.4216 40.1358 47.5672C40.2501 47.5964 40.319 47.7134 40.2898 47.8278C40.2651 47.924 40.178 47.9883 40.0825 47.9883L40.0818 47.9876ZM116.619 47.6783C116.51 47.6783 116.416 47.5951 116.406 47.4834C116.354 46.9102 116.283 46.3383 116.195 45.7853C116.176 45.669 116.256 45.5592 116.373 45.5403C116.489 45.5215 116.599 45.6014 116.618 45.7184C116.708 46.2811 116.78 46.8621 116.832 47.445C116.843 47.5626 116.756 47.6666 116.639 47.6777C116.632 47.6777 116.626 47.6783 116.619 47.6783ZM116.074 44.2725C115.977 44.2725 115.889 44.2062 115.866 44.1074C115.735 43.5473 115.581 42.9929 115.41 42.4607C115.374 42.3483 115.436 42.2274 115.549 42.1917C115.661 42.1553 115.782 42.2177 115.818 42.3301C115.992 42.8734 116.148 43.4381 116.283 44.0093C116.31 44.1243 116.238 44.2393 116.123 44.2666C116.107 44.2705 116.09 44.2725 116.074 44.2725ZM115.018 40.9908C114.934 40.9908 114.855 40.9414 114.82 40.8595C114.599 40.3299 114.352 39.8113 114.089 39.3187C114.033 39.2141 114.073 39.0848 114.177 39.0289C114.281 38.973 114.411 39.0126 114.467 39.1166C114.736 39.6209 114.988 40.1518 115.215 40.6931C115.26 40.8023 115.209 40.9277 115.1 40.9732C115.073 40.9843 115.045 40.9901 115.018 40.9901V40.9908ZM113.391 37.9528C113.322 37.9528 113.255 37.9196 113.213 37.8579C113.16 37.7786 113.106 37.6993 113.051 37.6207C112.782 37.2353 112.493 36.8565 112.192 36.4952C112.117 36.4042 112.129 36.269 112.22 36.1936C112.311 36.1176 112.446 36.1299 112.521 36.2216C112.83 36.5926 113.126 36.9806 113.402 37.3763C113.458 37.4569 113.514 37.5381 113.568 37.62C113.634 37.7182 113.608 37.8514 113.51 37.917C113.473 37.9417 113.432 37.9534 113.391 37.9534L113.391 37.9528ZM111.188 35.304C111.134 35.304 111.08 35.2838 111.038 35.2429C110.639 34.8504 110.21 34.4689 109.767 34.1096C109.675 34.0348 109.661 33.9003 109.735 33.8087C109.809 33.7171 109.944 33.7028 110.036 33.7769C110.49 34.1447 110.928 34.5352 111.338 34.9375C111.422 35.02 111.424 35.1558 111.34 35.2403C111.298 35.2832 111.243 35.3046 111.188 35.3046L111.188 35.304ZM108.512 33.1342C108.471 33.1342 108.43 33.1225 108.393 33.0978C107.929 32.7865 107.439 32.4876 106.936 32.2088C106.832 32.1516 106.795 32.021 106.853 31.9177C106.91 31.8143 107.04 31.7766 107.144 31.8345C107.657 32.1191 108.158 32.4245 108.632 32.7423C108.73 32.8079 108.757 32.9412 108.69 33.0393C108.649 33.101 108.581 33.1342 108.512 33.1342ZM105.498 31.4582C105.468 31.4582 105.438 31.4517 105.409 31.4387C104.901 31.2054 104.369 30.9851 103.829 30.7824C103.718 30.7408 103.662 30.6173 103.703 30.5068C103.745 30.3964 103.869 30.3405 103.979 30.3814C104.528 30.5874 105.069 30.8123 105.587 31.0495C105.695 31.0988 105.742 31.2256 105.693 31.3334C105.657 31.4121 105.579 31.4582 105.498 31.4582H105.498ZM102.269 30.2437C102.248 30.2437 102.227 30.2411 102.207 30.2346C101.669 30.0721 101.112 29.922 100.552 29.7888C100.437 29.7615 100.367 29.6458 100.394 29.5308C100.421 29.4158 100.536 29.3449 100.652 29.3722C101.22 29.5074 101.785 29.6594 102.331 29.8252C102.444 29.8596 102.508 29.9785 102.474 30.0916C102.446 30.1839 102.361 30.2437 102.269 30.2437H102.269ZM98.9115 29.4417C98.8992 29.4417 98.8862 29.4404 98.8732 29.4385C98.3195 29.3384 97.749 29.2513 97.1778 29.1792C97.0608 29.1643 96.9776 29.057 96.9919 28.9401C97.0069 28.8224 97.1141 28.7399 97.2311 28.7542C97.8094 28.8276 98.3871 28.9154 98.9486 29.0167C99.0649 29.0375 99.1422 29.1487 99.1214 29.2656C99.1026 29.369 99.0129 29.4417 98.9109 29.4417H98.9115ZM95.4875 29.007C95.4823 29.007 95.4765 29.007 95.4713 29.007C94.9066 28.9641 94.3302 28.9336 93.7576 28.9167C93.6394 28.9134 93.5464 28.8146 93.5497 28.6964C93.5529 28.5781 93.6498 28.4819 93.77 28.4884C94.349 28.5053 94.9326 28.5359 95.5038 28.5794C95.6214 28.5885 95.7098 28.6912 95.7007 28.8094C95.6922 28.9219 95.598 29.007 95.4875 29.007Z" fill="#F8931F"/>
<path d="M36.6584 47.4723C36.6552 47.4723 36.6519 47.4723 36.6487 47.4723C36.3667 47.46 36.082 47.4541 35.8032 47.4554H35.8019C35.6843 47.4554 35.5888 47.3606 35.5881 47.2429C35.5875 47.1247 35.683 47.0285 35.8006 47.0278C36.0872 47.0265 36.3783 47.0317 36.6675 47.0454C36.7858 47.0506 36.8768 47.1507 36.8716 47.2689C36.8664 47.384 36.7715 47.4736 36.6578 47.4736L36.6584 47.4723Z" fill="#26AA9D"/>
<path d="M107.684 88.4776C107.661 88.4776 107.639 88.4769 107.617 88.4756C107.323 88.4574 107.053 88.3267 106.859 88.1063C106.664 87.8858 106.566 87.603 106.584 87.309C106.602 87.0151 106.733 86.7465 106.954 86.5514C107.174 86.3564 107.455 86.2595 107.751 86.277C108.357 86.3141 108.821 86.8369 108.784 87.4436C108.748 88.0269 108.261 88.4782 107.684 88.4782V88.4776ZM107.683 86.7043C107.519 86.7043 107.362 86.7634 107.239 86.8727C107.104 86.9917 107.024 87.1562 107.013 87.335C106.99 87.7051 107.273 88.0243 107.643 88.0471C108.012 88.0699 108.333 87.787 108.356 87.417C108.378 87.047 108.095 86.7277 107.726 86.7056C107.712 86.7049 107.698 86.7043 107.684 86.7043H107.683Z" fill="#F8931F"/>
</svg>
