<svg width="33" height="32" viewBox="0 0 33 32" fill="none" xmlns="http://www.w3.org/2000/svg">
<g clip-path="url(#clip0_1172_5180)">
<path d="M30.1034 5.51733H2.89656C1.57294 5.51733 0.5 6.59027 0.5 7.9139V24.0863C0.5 25.4099 1.57294 26.4829 2.89656 26.4829H30.1034C31.427 26.4829 32.5 25.41 32.5 24.0863V7.9139C32.5 6.59027 31.4271 5.51733 30.1034 5.51733Z" fill="#F5F5F5"/>
<path d="M0.631836 7.13008H32.3681C32.0434 6.19152 31.1524 5.51733 30.1035 5.51733H2.89659C1.84759 5.51733 0.956648 6.19152 0.631836 7.13008Z" fill="#FF4B55"/>
<path d="M32.5 11.9683H0.5V13.5809H32.5V11.9683Z" fill="#FF4B55"/>
<path d="M32.5 8.74268H0.5V10.3554H32.5V8.74268Z" fill="#FF4B55"/>
<path d="M0.5 16.2546C0.5 16.5593 0.747063 16.8064 1.05175 16.8064H32.5V15.1936H0.5V16.2546Z" fill="#FF4B55"/>
<path d="M32.5 21.645H0.5V23.2578H32.5V21.645Z" fill="#FF4B55"/>
<path d="M32.3682 24.8701H0.631836C0.956648 25.8087 1.84765 26.4829 2.89659 26.4829H30.1035C31.1525 26.4829 32.0434 25.8087 32.3682 24.8701Z" fill="#FF4B55"/>
<path d="M32.5 18.4194H0.5V20.0321H32.5V18.4194Z" fill="#FF4B55"/>
<path d="M1.05175 16.8063H14.8449C15.1496 16.8063 15.3966 16.5592 15.3966 16.2545V6.06884C15.3966 5.76409 15.1496 5.51709 14.8449 5.51709H2.89656C1.57294 5.51715 0.5 6.59009 0.5 7.91371V16.2545C0.5 16.5593 0.747063 16.8063 1.05175 16.8063Z" fill="#41479B"/>
<path d="M2.04915 6.78386L2.17127 7.15011L2.55733 7.15305C2.60733 7.15349 2.62802 7.21724 2.58783 7.24692L2.27727 7.47624L2.39377 7.8443C2.4089 7.89192 2.35458 7.93142 2.3139 7.9023L1.99983 7.67786L1.68577 7.90236C1.64508 7.93149 1.5909 7.89199 1.6059 7.84436L1.7224 7.4763L1.41183 7.24699C1.37165 7.21724 1.39233 7.15349 1.44233 7.15311L1.8284 7.15017L1.95052 6.78392C1.96627 6.73642 2.03327 6.73642 2.04915 6.78386Z" fill="#F5F5F5"/>
<path d="M2.04915 8.69959L2.17127 9.06584L2.55733 9.06877C2.60733 9.06921 2.62802 9.1329 2.58783 9.16265L2.27727 9.39202L2.39377 9.76009C2.4089 9.80771 2.35458 9.84721 2.3139 9.81809L1.99983 9.59365L1.68577 9.81815C1.64508 9.84721 1.5909 9.80777 1.6059 9.76015L1.7224 9.39209L1.41183 9.16271C1.37165 9.13296 1.39233 9.06927 1.44233 9.06884L1.8284 9.0659L1.95052 8.69965C1.96627 8.65221 2.03327 8.65221 2.04915 8.69959Z" fill="#F5F5F5"/>
<path d="M2.04915 10.6154L2.17127 10.9817L2.55733 10.9846C2.60733 10.985 2.62802 11.0487 2.58783 11.0785L2.27727 11.3078L2.39377 11.6759C2.4089 11.7235 2.35458 11.763 2.3139 11.7339L1.99983 11.5095L1.68577 11.734C1.64508 11.763 1.5909 11.7237 1.6059 11.676L1.7224 11.3079L1.41183 11.0785C1.37165 11.0488 1.39233 10.9851 1.44233 10.9847L1.8284 10.9817L1.95052 10.6155C1.96627 10.568 2.03327 10.568 2.04915 10.6154Z" fill="#F5F5F5"/>
<path d="M2.04915 12.5314L2.17127 12.8977L2.55733 12.9006C2.60733 12.901 2.62802 12.9648 2.58783 12.9945L2.27727 13.2239L2.39377 13.5919C2.4089 13.6395 2.35458 13.679 2.3139 13.6499L1.99983 13.4255L1.68577 13.65C1.64508 13.679 1.5909 13.6396 1.6059 13.592L1.7224 13.2239L1.41183 12.9945C1.37165 12.9649 1.39233 12.9011 1.44233 12.9007L1.8284 12.8977L1.95052 12.5315C1.96627 12.484 2.03327 12.484 2.04915 12.5314Z" fill="#F5F5F5"/>
<path d="M2.04915 14.4471L2.17127 14.8134L2.55733 14.8163C2.60733 14.8168 2.62802 14.8805 2.58783 14.9102L2.27727 15.1396L2.39377 15.5076C2.4089 15.5553 2.35458 15.5948 2.3139 15.5656L1.99983 15.3412L1.68577 15.5657C1.64508 15.5948 1.5909 15.5553 1.6059 15.5077L1.7224 15.1396L1.41183 14.9103C1.37165 14.8805 1.39233 14.8168 1.44233 14.8164L1.8284 14.8135L1.95052 14.4472C1.96627 14.3998 2.03327 14.3998 2.04915 14.4471Z" fill="#F5F5F5"/>
<path d="M3.53645 7.72303L3.65858 8.08928L4.04464 8.09222C4.09464 8.09266 4.11533 8.15641 4.07514 8.18609L3.76458 8.41547L3.88108 8.78353C3.8962 8.83116 3.84189 8.87066 3.8012 8.84153L3.48714 8.61703L3.17308 8.84153C3.13239 8.87059 3.0782 8.83116 3.0932 8.78353L3.2097 8.41547L2.89914 8.18609C2.85895 8.15634 2.87964 8.09266 2.92964 8.09222L3.3157 8.08928L3.43783 7.72303C3.45358 7.67566 3.52064 7.67566 3.53645 7.72303Z" fill="#F5F5F5"/>
<path d="M3.53645 9.63885L3.65858 10.0051L4.04464 10.008C4.09464 10.0085 4.11533 10.0722 4.07514 10.1019L3.76458 10.3313L3.88108 10.6993C3.8962 10.747 3.84189 10.7865 3.8012 10.7574L3.48714 10.5328L3.17308 10.7574C3.13239 10.7864 3.0782 10.747 3.0932 10.6993L3.2097 10.3313L2.89914 10.1019C2.85895 10.0723 2.87964 10.0085 2.92964 10.008L3.3157 10.0051L3.43783 9.63885C3.45358 9.59141 3.52064 9.59141 3.53645 9.63885Z" fill="#F5F5F5"/>
<path d="M3.53645 11.5549L3.65858 11.9211L4.04464 11.9241C4.09464 11.9245 4.11533 11.9882 4.07514 12.0179L3.76458 12.2473L3.88108 12.6154C3.8962 12.663 3.84189 12.7025 3.8012 12.6734L3.48714 12.4489L3.17308 12.6734C3.13239 12.7024 3.0782 12.663 3.0932 12.6154L3.2097 12.2473L2.89914 12.0179C2.85895 11.9882 2.87964 11.9245 2.92964 11.9241L3.3157 11.9211L3.43783 11.5549C3.45358 11.5074 3.52064 11.5074 3.53645 11.5549Z" fill="#F5F5F5"/>
<path d="M3.53645 13.4706L3.65858 13.8368L4.04464 13.8398C4.09464 13.8402 4.11533 13.9039 4.07514 13.9337L3.76458 14.163L3.88108 14.5311C3.8962 14.5787 3.84189 14.6182 3.8012 14.5891L3.48714 14.3646L3.17308 14.5891C3.13239 14.6182 3.0782 14.5787 3.0932 14.5311L3.2097 14.163L2.89914 13.9337C2.85895 13.9039 2.87964 13.8402 2.92964 13.8398L3.3157 13.8368L3.43783 13.4706C3.45358 13.4232 3.52064 13.4232 3.53645 13.4706Z" fill="#F5F5F5"/>
<path d="M5.02327 6.78362L5.14539 7.14988L5.53146 7.15281C5.58146 7.15325 5.60214 7.217 5.56196 7.24669L5.25139 7.476L5.36789 7.84406C5.38302 7.89169 5.32871 7.93119 5.28802 7.90206L4.97396 7.67756L4.65989 7.90206C4.61921 7.93119 4.56502 7.89169 4.58002 7.84406L4.69652 7.476L4.38596 7.24669C4.34577 7.21694 4.36646 7.15319 4.41646 7.15281L4.80252 7.14988L4.92464 6.78362C4.94039 6.73619 5.00746 6.73619 5.02327 6.78362Z" fill="#F5F5F5"/>
<path d="M5.02327 8.69959L5.14539 9.06584L5.53146 9.06878C5.58146 9.06922 5.60214 9.13291 5.56196 9.16266L5.25139 9.39203L5.36789 9.76009C5.38302 9.80772 5.32871 9.84722 5.28802 9.81809L4.97396 9.59359L4.65989 9.81809C4.61921 9.84716 4.56502 9.80772 4.58002 9.76009L4.69652 9.39203L4.38596 9.16266C4.34577 9.13291 4.36646 9.06922 4.41646 9.06878L4.80252 9.06584L4.92464 8.69959C4.94039 8.65222 5.00746 8.65222 5.02327 8.69959Z" fill="#F5F5F5"/>
<path d="M5.02327 10.6154L5.14539 10.9817L5.53146 10.9846C5.58146 10.985 5.60214 11.0487 5.56196 11.0785L5.25139 11.3079L5.36789 11.6759C5.38302 11.7235 5.32871 11.763 5.28802 11.7339L4.97396 11.5094L4.65989 11.7339C4.61921 11.763 4.56502 11.7236 4.58002 11.6759L4.69652 11.3079L4.38596 11.0785C4.34577 11.0487 4.36646 10.985 4.41646 10.9846L4.80252 10.9817L4.92464 10.6154C4.94039 10.568 5.00746 10.568 5.02327 10.6154Z" fill="#F5F5F5"/>
<path d="M5.02327 12.5314L5.14539 12.8977L5.53146 12.9006C5.58146 12.9011 5.60214 12.9648 5.56196 12.9945L5.25139 13.2239L5.36789 13.5919C5.38302 13.6396 5.32871 13.6791 5.28802 13.6499L4.97396 13.4254L4.65989 13.6499C4.61921 13.679 4.56502 13.6396 4.58002 13.5919L4.69652 13.2239L4.38596 12.9945C4.34577 12.9649 4.36646 12.9011 4.41646 12.9006L4.80252 12.8977L4.92464 12.5314C4.94039 12.484 5.00746 12.484 5.02327 12.5314Z" fill="#F5F5F5"/>
<path d="M5.02327 14.4472L5.14539 14.8134L5.53146 14.8163C5.58146 14.8168 5.60214 14.8805 5.56196 14.9102L5.25139 15.1396L5.36789 15.5077C5.38302 15.5553 5.32871 15.5948 5.28802 15.5657L4.97396 15.3412L4.65989 15.5657C4.61921 15.5947 4.56502 15.5553 4.58002 15.5077L4.69652 15.1396L4.38596 14.9102C4.34577 14.8805 4.36646 14.8168 4.41646 14.8163L4.80252 14.8134L4.92464 14.4472C4.94039 14.3998 5.00746 14.3998 5.02327 14.4472Z" fill="#F5F5F5"/>
<path d="M6.51057 7.72303L6.6327 8.08928L7.01876 8.09222C7.06876 8.09266 7.08945 8.15641 7.04926 8.18609L6.7387 8.41547L6.8552 8.78353C6.87032 8.83116 6.81601 8.87066 6.77532 8.84153L6.46126 8.61703L6.1472 8.84153C6.10651 8.87059 6.05232 8.83116 6.06732 8.78353L6.18382 8.41547L5.87326 8.18609C5.83307 8.15634 5.85376 8.09266 5.90376 8.09222L6.28982 8.08928L6.41195 7.72303C6.42764 7.67566 6.49476 7.67566 6.51057 7.72303Z" fill="#F5F5F5"/>
<path d="M6.51057 9.63885L6.6327 10.0051L7.01876 10.008C7.06876 10.0085 7.08945 10.0722 7.04926 10.1019L6.7387 10.3313L6.8552 10.6993C6.87032 10.747 6.81601 10.7865 6.77532 10.7574L6.46126 10.5328L6.1472 10.7574C6.10651 10.7864 6.05232 10.747 6.06732 10.6993L6.18382 10.3313L5.87326 10.1019C5.83307 10.0723 5.85376 10.0085 5.90376 10.008L6.28982 10.0051L6.41195 9.63885C6.42764 9.59141 6.49476 9.59141 6.51057 9.63885Z" fill="#F5F5F5"/>
<path d="M6.51057 11.5549L6.6327 11.9211L7.01876 11.9241C7.06876 11.9245 7.08945 11.9882 7.04926 12.0179L6.7387 12.2473L6.8552 12.6154C6.87032 12.663 6.81601 12.7025 6.77532 12.6734L6.46126 12.4489L6.1472 12.6734C6.10651 12.7024 6.05232 12.663 6.06732 12.6154L6.18382 12.2473L5.87326 12.0179C5.83307 11.9882 5.85376 11.9245 5.90376 11.9241L6.28982 11.9211L6.41195 11.5549C6.42764 11.5074 6.49476 11.5074 6.51057 11.5549Z" fill="#F5F5F5"/>
<path d="M6.51057 13.4706L6.6327 13.8368L7.01876 13.8398C7.06876 13.8402 7.08945 13.9039 7.04926 13.9337L6.7387 14.163L6.8552 14.5311C6.87032 14.5787 6.81601 14.6182 6.77532 14.5891L6.46126 14.3646L6.1472 14.5891C6.10651 14.6182 6.05232 14.5787 6.06732 14.5311L6.18382 14.163L5.87326 13.9337C5.83307 13.9039 5.85376 13.8402 5.90376 13.8398L6.28982 13.8368L6.41195 13.4706C6.42764 13.4232 6.49476 13.4232 6.51057 13.4706Z" fill="#F5F5F5"/>
<path d="M7.99745 6.78362L8.11958 7.14987L8.50564 7.1528C8.55564 7.15324 8.57633 7.21699 8.53614 7.24668L8.22558 7.47599L8.34208 7.84405C8.3572 7.89168 8.30289 7.93118 8.2622 7.90205L7.94808 7.67762L7.63401 7.90212C7.59333 7.93124 7.53914 7.89174 7.55414 7.84412L7.67064 7.47605L7.36008 7.24674C7.31989 7.21699 7.34058 7.15324 7.39058 7.15287L7.77664 7.14993L7.89876 6.78368C7.91458 6.73618 7.98164 6.73618 7.99745 6.78362Z" fill="#F5F5F5"/>
<path d="M7.99745 8.69959L8.11958 9.06584L8.50564 9.06878C8.55564 9.06922 8.57633 9.13291 8.53614 9.16266L8.22558 9.39203L8.34208 9.76009C8.3572 9.80772 8.30289 9.84722 8.2622 9.81809L7.94808 9.59359L7.63401 9.81809C7.59333 9.84716 7.53914 9.80772 7.55414 9.76009L7.67064 9.39203L7.36008 9.16266C7.31989 9.13291 7.34058 9.06922 7.39058 9.06878L7.77664 9.06584L7.89876 8.69959C7.91458 8.65222 7.98164 8.65222 7.99745 8.69959Z" fill="#F5F5F5"/>
<path d="M7.99745 10.6154L8.11958 10.9817L8.50564 10.9846C8.55564 10.985 8.57633 11.0487 8.53614 11.0785L8.22558 11.3079L8.34208 11.6759C8.3572 11.7235 8.30289 11.763 8.2622 11.7339L7.94808 11.5094L7.63401 11.7339C7.59333 11.7629 7.53914 11.7235 7.55414 11.6759L7.67064 11.3078L7.36008 11.0784C7.31989 11.0487 7.34058 10.985 7.39058 10.9845L7.77664 10.9816L7.89876 10.6154C7.91458 10.568 7.98164 10.568 7.99745 10.6154Z" fill="#F5F5F5"/>
<path d="M7.99745 12.5314L8.11958 12.8977L8.50564 12.9006C8.55564 12.9011 8.57633 12.9648 8.53614 12.9945L8.22558 13.2239L8.34208 13.5919C8.3572 13.6396 8.30289 13.6791 8.2622 13.6499L7.94808 13.4254L7.63401 13.6499C7.59333 13.679 7.53914 13.6396 7.55414 13.5919L7.67064 13.2239L7.36008 12.9945C7.31989 12.9649 7.34058 12.9011 7.39058 12.9006L7.77664 12.8977L7.89876 12.5314C7.91458 12.484 7.98164 12.484 7.99745 12.5314Z" fill="#F5F5F5"/>
<path d="M7.99745 14.4472L8.11958 14.8134L8.50564 14.8163C8.55564 14.8168 8.57633 14.8805 8.53614 14.9102L8.22558 15.1396L8.34208 15.5077C8.3572 15.5553 8.30289 15.5948 8.2622 15.5657L7.94808 15.3412L7.63401 15.5657C7.59333 15.5947 7.53914 15.5553 7.55414 15.5077L7.67064 15.1396L7.36008 14.9102C7.31989 14.8805 7.34058 14.8168 7.39058 14.8163L7.77664 14.8134L7.89876 14.4472C7.91458 14.3998 7.98164 14.3998 7.99745 14.4472Z" fill="#F5F5F5"/>
<path d="M9.48469 7.72303L9.60682 8.08928L9.99288 8.09222C10.0429 8.09266 10.0636 8.15641 10.0234 8.18609L9.71282 8.41547L9.82932 8.78353C9.84444 8.83116 9.79013 8.87066 9.74944 8.84153L9.43538 8.61703L9.12132 8.84153C9.08063 8.87059 9.02644 8.83116 9.04144 8.78353L9.15794 8.41547L8.84738 8.18609C8.80719 8.15634 8.82788 8.09266 8.87788 8.09222L9.26394 8.08928L9.38607 7.72303C9.40188 7.67566 9.46888 7.67566 9.48469 7.72303Z" fill="#F5F5F5"/>
<path d="M9.48469 9.63885L9.60682 10.0051L9.99288 10.008C10.0429 10.0085 10.0636 10.0722 10.0234 10.1019L9.71282 10.3313L9.82932 10.6993C9.84444 10.747 9.79013 10.7865 9.74944 10.7574L9.43538 10.5328L9.12132 10.7574C9.08063 10.7864 9.02644 10.747 9.04144 10.6993L9.15794 10.3313L8.84738 10.1019C8.80719 10.0723 8.82788 10.0085 8.87788 10.008L9.26394 10.0051L9.38607 9.63885C9.40188 9.59141 9.46888 9.59141 9.48469 9.63885Z" fill="#F5F5F5"/>
<path d="M9.48469 11.5549L9.60682 11.9211L9.99288 11.9241C10.0429 11.9245 10.0636 11.9882 10.0234 12.0179L9.71282 12.2473L9.82932 12.6154C9.84444 12.663 9.79013 12.7025 9.74944 12.6734L9.43538 12.4489L9.12132 12.6734C9.08063 12.7024 9.02644 12.663 9.04144 12.6154L9.15794 12.2473L8.84738 12.0179C8.80719 11.9882 8.82788 11.9245 8.87788 11.9241L9.26394 11.9211L9.38607 11.5549C9.40188 11.5074 9.46888 11.5074 9.48469 11.5549Z" fill="#F5F5F5"/>
<path d="M9.48469 13.4706L9.60682 13.8368L9.99288 13.8398C10.0429 13.8402 10.0636 13.9039 10.0234 13.9337L9.71282 14.163L9.82932 14.5311C9.84444 14.5787 9.79013 14.6182 9.74944 14.5891L9.43538 14.3646L9.12132 14.5891C9.08063 14.6182 9.02644 14.5787 9.04144 14.5311L9.15794 14.163L8.84738 13.9337C8.80719 13.9039 8.82788 13.8402 8.87788 13.8398L9.26394 13.8368L9.38607 13.4706C9.40188 13.4232 9.46888 13.4232 9.48469 13.4706Z" fill="#F5F5F5"/>
<path d="M10.9715 6.78362L11.0936 7.14988L11.4797 7.15281C11.5297 7.15325 11.5504 7.217 11.5102 7.24669L11.1996 7.476L11.3161 7.84406C11.3313 7.89169 11.2769 7.93119 11.2363 7.90206L10.9222 7.67756L10.6081 7.90206C10.5674 7.93119 10.5133 7.89169 10.5283 7.84406L10.6448 7.476L10.3342 7.24669C10.294 7.21694 10.3147 7.15319 10.3647 7.15281L10.7508 7.14988L10.8729 6.78362C10.8886 6.73619 10.9557 6.73619 10.9715 6.78362Z" fill="#F5F5F5"/>
<path d="M10.9715 8.69959L11.0936 9.06584L11.4797 9.06878C11.5297 9.06922 11.5504 9.13291 11.5102 9.16266L11.1996 9.39203L11.3161 9.76009C11.3313 9.80772 11.2769 9.84722 11.2363 9.81809L10.9222 9.59359L10.6081 9.81809C10.5674 9.84716 10.5133 9.80772 10.5283 9.76009L10.6448 9.39203L10.3342 9.16266C10.294 9.13291 10.3147 9.06922 10.3647 9.06878L10.7508 9.06584L10.8729 8.69959C10.8886 8.65222 10.9557 8.65222 10.9715 8.69959Z" fill="#F5F5F5"/>
<path d="M10.9715 10.6154L11.0936 10.9817L11.4797 10.9846C11.5297 10.985 11.5504 11.0487 11.5102 11.0785L11.1996 11.3079L11.3161 11.6759C11.3313 11.7235 11.2769 11.763 11.2363 11.7339L10.9222 11.5094L10.6081 11.7339C10.5674 11.763 10.5133 11.7236 10.5283 11.6759L10.6448 11.3079L10.3342 11.0785C10.294 11.0487 10.3147 10.985 10.3647 10.9846L10.7508 10.9817L10.8729 10.6154C10.8886 10.568 10.9557 10.568 10.9715 10.6154Z" fill="#F5F5F5"/>
<path d="M10.9715 12.5314L11.0936 12.8977L11.4797 12.9006C11.5297 12.9011 11.5504 12.9648 11.5102 12.9945L11.1996 13.2239L11.3161 13.5919C11.3313 13.6396 11.2769 13.6791 11.2363 13.6499L10.9222 13.4254L10.6081 13.6499C10.5674 13.679 10.5133 13.6396 10.5283 13.5919L10.6448 13.2239L10.3342 12.9945C10.294 12.9649 10.3147 12.9011 10.3647 12.9006L10.7508 12.8977L10.8729 12.5314C10.8886 12.484 10.9557 12.484 10.9715 12.5314Z" fill="#F5F5F5"/>
<path d="M10.9715 14.4472L11.0936 14.8134L11.4797 14.8163C11.5297 14.8168 11.5504 14.8805 11.5102 14.9102L11.1996 15.1396L11.3161 15.5077C11.3313 15.5553 11.2769 15.5948 11.2363 15.5657L10.9222 15.3412L10.6081 15.5657C10.5674 15.5947 10.5133 15.5553 10.5283 15.5077L10.6448 15.1396L10.3342 14.9102C10.294 14.8805 10.3147 14.8168 10.3647 14.8163L10.7508 14.8134L10.8729 14.4472C10.8886 14.3998 10.9557 14.3998 10.9715 14.4472Z" fill="#F5F5F5"/>
<path d="M12.4588 7.72303L12.5809 8.08928L12.967 8.09222C13.017 8.09266 13.0377 8.15641 12.9975 8.18609L12.6869 8.41547L12.8034 8.78353C12.8186 8.83116 12.7643 8.87066 12.7236 8.84153L12.4095 8.61703L12.0954 8.84153C12.0548 8.87059 12.0006 8.83116 12.0156 8.78353L12.1321 8.41547L11.8215 8.18609C11.7813 8.15634 11.802 8.09266 11.852 8.09222L12.2381 8.08928L12.3602 7.72303C12.3759 7.67566 12.443 7.67566 12.4588 7.72303Z" fill="#F5F5F5"/>
<path d="M12.4588 9.63885L12.5809 10.0051L12.967 10.008C13.017 10.0085 13.0377 10.0722 12.9975 10.1019L12.6869 10.3313L12.8034 10.6993C12.8186 10.747 12.7643 10.7865 12.7236 10.7574L12.4095 10.5328L12.0954 10.7574C12.0548 10.7864 12.0006 10.747 12.0156 10.6993L12.1321 10.3313L11.8215 10.1019C11.7813 10.0723 11.802 10.0085 11.852 10.008L12.2381 10.0051L12.3602 9.63885C12.3759 9.59141 12.443 9.59141 12.4588 9.63885Z" fill="#F5F5F5"/>
<path d="M12.4588 11.5549L12.5809 11.9211L12.967 11.9241C13.017 11.9245 13.0377 11.9882 12.9975 12.0179L12.6869 12.2473L12.8034 12.6154C12.8186 12.663 12.7643 12.7025 12.7236 12.6734L12.4095 12.4489L12.0954 12.6734C12.0548 12.7024 12.0006 12.663 12.0156 12.6154L12.1321 12.2473L11.8215 12.0179C11.7813 11.9882 11.802 11.9245 11.852 11.9241L12.2381 11.9211L12.3602 11.5549C12.3759 11.5074 12.443 11.5074 12.4588 11.5549Z" fill="#F5F5F5"/>
<path d="M12.4588 13.4706L12.5809 13.8368L12.967 13.8398C13.017 13.8402 13.0377 13.9039 12.9975 13.9337L12.6869 14.163L12.8034 14.5311C12.8186 14.5787 12.7643 14.6182 12.7236 14.5891L12.4095 14.3646L12.0954 14.5891C12.0548 14.6182 12.0006 14.5787 12.0156 14.5311L12.1321 14.163L11.8215 13.9337C11.7813 13.9039 11.802 13.8402 11.852 13.8398L12.2381 13.8368L12.3602 13.4706C12.3759 13.4232 12.443 13.4232 12.4588 13.4706Z" fill="#F5F5F5"/>
<path d="M13.9456 6.78362L14.0678 7.14988L14.4538 7.15281C14.5038 7.15325 14.5245 7.217 14.4843 7.24669L14.1738 7.476L14.2903 7.84406C14.3054 7.89169 14.2511 7.93119 14.2104 7.90206L13.8963 7.67756L13.5823 7.90206C13.5416 7.93119 13.4874 7.89169 13.5024 7.84406L13.6189 7.476L13.3083 7.24669C13.2681 7.21694 13.2888 7.15319 13.3388 7.15281L13.7249 7.14988L13.847 6.78362C13.8628 6.73619 13.9298 6.73619 13.9456 6.78362Z" fill="#F5F5F5"/>
<path d="M13.9456 8.69959L14.0678 9.06584L14.4538 9.06878C14.5038 9.06922 14.5245 9.13291 14.4843 9.16266L14.1738 9.39203L14.2903 9.76009C14.3054 9.80772 14.2511 9.84722 14.2104 9.81809L13.8963 9.59359L13.5823 9.81809C13.5416 9.84716 13.4874 9.80772 13.5024 9.76009L13.6189 9.39203L13.3083 9.16266C13.2681 9.13291 13.2888 9.06922 13.3388 9.06878L13.7249 9.06584L13.847 8.69959C13.8628 8.65222 13.9298 8.65222 13.9456 8.69959Z" fill="#F5F5F5"/>
<path d="M13.9456 10.6154L14.0678 10.9817L14.4538 10.9846C14.5038 10.985 14.5245 11.0487 14.4843 11.0785L14.1738 11.3079L14.2903 11.6759C14.3054 11.7235 14.2511 11.763 14.2104 11.7339L13.8963 11.5094L13.5823 11.7339C13.5416 11.763 13.4874 11.7236 13.5024 11.6759L13.6189 11.3079L13.3083 11.0785C13.2681 11.0487 13.2888 10.985 13.3388 10.9846L13.7249 10.9817L13.847 10.6154C13.8628 10.568 13.9298 10.568 13.9456 10.6154Z" fill="#F5F5F5"/>
<path d="M13.9456 12.5314L14.0678 12.8977L14.4538 12.9006C14.5038 12.9011 14.5245 12.9648 14.4843 12.9945L14.1738 13.2239L14.2903 13.5919C14.3054 13.6396 14.2511 13.6791 14.2104 13.6499L13.8963 13.4254L13.5823 13.6499C13.5416 13.679 13.4874 13.6396 13.5024 13.5919L13.6189 13.2239L13.3083 12.9945C13.2681 12.9649 13.2888 12.9011 13.3388 12.9006L13.7249 12.8977L13.847 12.5314C13.8628 12.484 13.9298 12.484 13.9456 12.5314Z" fill="#F5F5F5"/>
<path d="M13.9456 14.4472L14.0678 14.8134L14.4538 14.8163C14.5038 14.8168 14.5245 14.8805 14.4843 14.9102L14.1738 15.1396L14.2903 15.5077C14.3054 15.5553 14.2511 15.5948 14.2104 15.5657L13.8963 15.3412L13.5823 15.5657C13.5416 15.5947 13.4874 15.5553 13.5024 15.5077L13.6189 15.1396L13.3083 14.9102C13.2681 14.8805 13.2888 14.8168 13.3388 14.8163L13.7249 14.8134L13.847 14.4472C13.8628 14.3998 13.9298 14.3998 13.9456 14.4472Z" fill="#F5F5F5"/>
</g>
<defs>
<clipPath id="clip0_1172_5180">
<rect width="32" height="32" fill="white" transform="translate(0.5)"/>
</clipPath>
</defs>
</svg>
