<svg width="120" height="119" viewBox="0 0 120 119" fill="none" xmlns="http://www.w3.org/2000/svg">
<g clip-path="url(#clip0_194_4740)">
<g opacity="0.3">
<path d="M82.6107 0.293137C82.7513 0.293137 82.9105 0.344234 83.0803 0.44105C83.0034 0.532487 82.9185 0.650817 82.8362 0.806798C82.7381 0.750322 82.6558 0.723429 82.5975 0.723429C82.0775 0.723429 81.2178 3.16803 80.605 7.22084C80.5625 7.48708 80.5254 7.75871 80.4856 8.0384L80.0054 8.12983C80.0372 7.89855 80.077 7.62424 80.1248 7.31497C80.2442 6.55658 80.4007 5.59649 80.6023 4.63909C81.4062 0.787973 82.096 0.293137 82.6107 0.293137Z" stroke="black" stroke-linecap="round" stroke-linejoin="round"/>
<path d="M87.6569 6.55388L87.19 6.62112C87.0334 6.35218 86.9751 6.25268 86.8265 6.00257C85.1869 3.26215 83.9532 1.73192 83.2183 1.09186C83.3032 0.917054 83.3881 0.787967 83.4677 0.709976C84.6775 1.69965 86.2985 4.22761 87.3014 5.90575C87.4765 6.19889 87.5243 6.32529 87.6543 6.55388H87.6569Z" stroke="black" stroke-linecap="round" stroke-linejoin="round"/>
<path d="M78.0898 9.38037L79.358 33.4095L99.9409 29.2034L91.7083 6.77441L78.0898 9.38037Z" stroke="black" stroke-linecap="round" stroke-linejoin="round"/>
<path d="M88.9226 7.30421L88.4397 7.39564C88.2805 7.09175 88.124 6.80668 87.9727 6.52699C85.63 2.26441 84.1019 0.618542 83.6535 0.613163C83.5951 0.613163 83.5314 0.645435 83.4704 0.712669C83.3908 0.790659 83.3059 0.917057 83.221 1.09455C82.7408 2.05733 82.1704 4.41856 81.7565 7.7856C81.7167 8.07873 81.6849 8.37994 81.6504 8.68921L81.1702 8.78334C81.1994 8.53054 81.2338 8.22665 81.2763 7.88241C81.3851 7.04334 81.5283 5.98375 81.7141 4.92415C82.112 2.65974 82.4941 1.44685 82.839 0.809484C82.9212 0.653503 83.0035 0.535173 83.0831 0.443736C83.2927 0.196318 83.4863 0.134463 83.6614 0.137153C84.8261 0.153289 87.1423 4.05281 88.4503 6.43287C88.6307 6.75827 88.7899 7.05141 88.9226 7.3069V7.30421Z" stroke="black" stroke-linecap="round" stroke-linejoin="round"/>
<path d="M79.748 8.92049L76.5033 8.8425L76.2618 32.1778L79.358 33.4095" stroke="black" stroke-linecap="round" stroke-linejoin="round"/>
<path d="M76.2618 32.1778L79.0078 29.3271" stroke="black" stroke-linecap="round" stroke-linejoin="round"/>
<path d="M90.7823 6.89274L90.5621 6.00257L88.4502 6.43018" stroke="black" stroke-linecap="round" stroke-linejoin="round"/>
<path d="M87.9727 6.52699L81.7538 7.78291" stroke="black" stroke-linecap="round" stroke-linejoin="round"/>
<path d="M81.2762 7.87703L76.5033 8.8425" stroke="black" stroke-linecap="round" stroke-linejoin="round"/>
<path d="M90.5648 6.00257L89.286 7.22084" stroke="black" stroke-linecap="round" stroke-linejoin="round"/>
</g>
<g opacity="0.3">
<path d="M10.0296 17.927C10.0296 17.927 14.9458 18.2498 17.8191 18.5752C20.6925 18.8979 28.0336 18.2525 28.0336 18.2525C28.0336 18.2525 28.8004 38.8312 29.1187 39.6729C29.4371 40.5147 29.8855 41.4855 29.8855 41.4855C29.8855 41.4855 27.9063 41.3565 20.5651 41.4855C13.2239 41.6146 7.15894 40.6438 7.15894 40.6438C7.15894 40.6438 8.30773 39.0248 8.37141 38.3794C8.43508 37.7312 10.0323 17.9297 10.0323 17.9297L10.0296 17.927Z" stroke="black" stroke-linecap="round" stroke-linejoin="round"/>
<path d="M15.5772 18.3224L16.3971 16.1521C16.6146 15.5578 17.0418 15.0683 17.5963 14.7752L17.912 14.6084L16.7791 18.438L15.5746 18.3224H15.5772Z" stroke="black" stroke-linecap="round" stroke-linejoin="round"/>
<path d="M23.4304 18.5752L22.08 18.6048L20.6526 15.7272C20.6393 15.6815 20.6181 15.6304 20.5863 15.5739C20.3502 15.1301 19.671 14.4497 19.4906 14.2749C19.4614 14.2454 20.8914 14.8989 20.8914 14.8989C21.2283 15.0548 21.5096 15.3103 21.6979 15.6331L23.4251 18.5752H23.4304Z" stroke="black" stroke-linecap="round" stroke-linejoin="round"/>
<path d="M20.5863 15.5739L19.7559 15.4421C19.2199 15.3587 18.6734 15.4098 18.164 15.5954L17.5299 15.9369L17.9146 14.6084C17.9146 14.6084 18.8352 14.1378 19.4932 14.2749C19.6736 14.4524 20.3528 15.1301 20.5889 15.5739H20.5863Z" stroke="black" stroke-linecap="round" stroke-linejoin="round"/>
</g>
<g opacity="0.3">
<path d="M5.83237 69.589L6.32054 94.2716C6.32054 94.2716 8.53058 95.4012 13.4415 95.0112C18.3524 94.6213 22.3798 93.2551 23.8311 92.6849C26.1313 91.784 27.7842 90.122 27.7842 90.122L19.411 66.7921L5.82971 69.589H5.83237Z" stroke="black" stroke-linecap="round" stroke-linejoin="round"/>
<path d="M8.21219 69.0834L7.79565 56.5565C7.91504 55.9353 8.25995 55.3813 8.76139 55.0021L9.04792 54.7843L9.39283 68.8521L8.21219 69.0834Z" stroke="black" stroke-linecap="round" stroke-linejoin="round"/>
<path d="M17.1028 67.2224L15.7763 67.4725L11.9319 55.4432C11.9107 55.4001 11.8815 55.3517 11.8417 55.3006C11.5392 54.8999 10.7619 54.3405 10.5549 54.1953C10.5231 54.1711 12.038 54.5826 12.038 54.5826C12.3935 54.6821 12.7146 54.8865 12.9507 55.1742L17.1028 67.2197V67.2224Z" stroke="black" stroke-linecap="round" stroke-linejoin="round"/>
<path d="M11.8416 55.3006L10.8971 55.1877C10.3559 55.1904 9.96059 55.341 9.4565 55.7148L9.10098 56.0913L9.05322 54.7816C9.05322 54.7816 9.8863 54.1657 10.5575 54.1953C10.7645 54.3405 11.5418 54.8999 11.8443 55.3006H11.8416Z" stroke="black" stroke-linecap="round" stroke-linejoin="round"/>
</g>
<g opacity="0.3">
<path d="M111.811 77.0895L90.9813 74.3975L97.3674 51.2182L98.7443 51.4145L100.747 51.6996L101.273 51.7749L107.561 52.6651L108.059 52.7377L111.092 53.168L111.811 77.0895Z" stroke="black" stroke-linecap="round" stroke-linejoin="round"/>
<path d="M90.9814 74.3975L88.437 72.2245L96.0355 50.1963V50.1936L96.0435 50.1963" stroke="black" stroke-linecap="round" stroke-linejoin="round"/>
<path d="M88.437 72.2245L91.9391 70.4119" stroke="black" stroke-linecap="round" stroke-linejoin="round"/>
<path d="M110.177 52.9797L110.251 52.068L108.115 51.7857" stroke="black" stroke-linecap="round" stroke-linejoin="round"/>
<path d="M100.747 51.6996L98.7416 51.4145L96.0408 50.1963L99.7074 50.6777L100.235 50.7449C100.349 50.1613 100.8 47.9426 102.172 42.5667C103.488 37.3897 104.799 35.4373 105.523 35.3351C105.73 35.3082 105.921 35.4534 106.099 35.7627C106.117 35.7949 106.136 35.838 106.152 35.881C104.632 36.6421 103.358 40.8401 102.708 43.3977C101.249 49.1394 100.83 51.2505 100.75 51.6969L100.747 51.6996Z" stroke="black" stroke-linecap="round" stroke-linejoin="round"/>
<path d="M100.862 50.8283L100.238 50.7476" stroke="black" stroke-linecap="round" stroke-linejoin="round"/>
<path d="M96.0435 50.1963H96.0355" stroke="black" stroke-linecap="round" stroke-linejoin="round"/>
<path d="M110.251 52.068L108.656 52.8076" stroke="black" stroke-linecap="round" stroke-linejoin="round"/>
<path d="M108.059 52.7377L107.558 52.6651C107.555 52.6489 107.553 52.6328 107.555 52.6113C107.558 52.536 107.561 52.4688 107.561 52.4042C107.563 52.3639 107.563 52.3262 107.566 52.2859C107.566 52.2375 107.566 52.1891 107.571 52.1353C107.574 52.0277 107.577 51.9282 107.579 51.8502L107.585 51.7131C107.722 47.2515 107.855 37.9733 107.147 36.7281C107.041 36.5453 106.932 36.4162 106.815 36.3516C106.736 36.3059 106.653 36.2898 106.571 36.3005C106.489 36.3113 106.399 36.3462 106.298 36.4108C105.547 36.8922 104.385 38.9495 103.22 43.5294C102.204 47.5177 101.692 49.7687 101.451 50.9036C101.352 51.3608 101.297 51.6324 101.273 51.7695L100.747 51.6942C100.827 51.2478 101.246 49.134 102.705 43.395C103.355 40.8374 104.632 36.6394 106.149 35.8783C106.263 35.8218 106.38 35.7815 106.497 35.7653C106.55 35.7573 106.608 35.7546 106.669 35.76C106.95 35.7734 107.303 35.9267 107.603 36.4592C108.473 37.9867 108.216 48.4886 108.112 51.783C108.102 52.181 108.091 52.4714 108.086 52.6301C108.086 52.6678 108.075 52.7027 108.059 52.735V52.7377Z" stroke="black" stroke-miterlimit="10"/>
<path d="M107.561 52.6651L101.275 51.7749C101.299 51.6378 101.355 51.3661 101.453 50.9089L106.513 51.5759L107.041 51.6431L107.587 51.7157L107.582 51.8529C107.577 51.9632 107.577 52.0546 107.574 52.138C107.571 52.1918 107.571 52.2402 107.569 52.2886C107.569 52.3289 107.566 52.3666 107.563 52.4069C107.563 52.4714 107.561 52.5387 107.558 52.614C107.558 52.6328 107.558 52.6516 107.561 52.6678V52.6651Z" stroke="black" stroke-miterlimit="10"/>
<path d="M106.672 35.7627C106.611 35.76 106.552 35.7627 106.499 35.768C106.383 35.7842 106.266 35.8218 106.152 35.881C106.136 35.838 106.117 35.7976 106.099 35.7627C105.921 35.4507 105.73 35.3055 105.523 35.3351C104.799 35.4373 103.488 37.3897 102.172 42.5667C100.803 47.9426 100.349 50.164 100.235 50.7449L99.7074 50.6777C99.8109 50.1398 100.246 47.9776 101.657 42.4322C102.358 39.681 103.777 35.0339 105.449 34.8026C105.751 34.7622 106.189 34.8483 106.555 35.4937C106.598 35.5637 106.635 35.6551 106.669 35.7627H106.672Z" stroke="black" stroke-miterlimit="10"/>
<path d="M107.038 51.6431L106.51 51.5759C106.64 47.9588 106.815 39.1028 106.295 36.4135C106.396 36.3516 106.483 36.3167 106.568 36.3032C106.651 36.2925 106.733 36.3086 106.812 36.3543C107.441 39.7375 107.088 50.2339 107.035 51.6431H107.038Z" stroke="black" stroke-miterlimit="10"/>
</g>
<path d="M55.4138 37.0777C55.4138 37.0777 55.2228 39.4094 55.2228 41.9965C55.2228 44.5837 55.7985 44.9736 55.7985 44.9736L47.0485 42.9674C47.0485 42.9674 47.6879 37.6586 47.0485 35.846C46.4091 34.0334 46.1544 33.1271 46.1544 33.1271L55.4138 37.0751V37.0777Z" fill="white" stroke="#263238" stroke-linecap="round" stroke-linejoin="round"/>
<path d="M50.5242 35.569L55.2441 40.1812L55.6659 35.9939L50.5242 35.569Z" fill="#263238" stroke="#263238" stroke-linecap="round" stroke-linejoin="round"/>
<path d="M59.3112 24.4514C59.3112 24.4514 61.3276 24.1367 61.3064 21.6034C61.2825 19.07 59.1945 17.8302 57.3055 17.0423C55.4165 16.2543 51.8772 14.759 48.3725 14.5304C44.8677 14.3018 41.5168 15.9101 39.5641 18.5106C37.6114 21.1139 37.2878 26.6727 37.0171 31.1666C36.7465 35.6605 36.9296 38.2745 37.5318 38.7693C38.1341 39.2642 42.8832 40.1947 46.2287 40.1758C49.5743 40.157 50.3835 39.7133 50.3835 39.7133C50.3835 39.7133 49.0304 36.9675 48.7174 35.6578C48.4043 34.3481 48.2451 33.8963 48.2451 33.8963L47.5235 27.2321L54.5011 20.5787L58.5206 22.2407L58.7859 24.7768L59.3112 24.454V24.4514Z" fill="#263238" stroke="#263238" stroke-linecap="round" stroke-linejoin="round"/>
<path d="M52.4609 20.135C52.4609 20.135 51.9939 20.9606 49.898 24.2658C47.802 27.571 47.3749 27.8453 47.3749 27.8453C47.3749 27.8453 47.879 32.7641 48.1124 34.2593C48.3459 35.7546 53.3125 38.1158 56.0293 38.4681C58.7461 38.8231 59.1335 37.3278 59.3271 36.8545C59.5208 36.3812 60.8421 30.9918 60.8023 29.9699C60.7625 28.9479 58.8629 26.272 58.7063 25.0914C58.5498 23.9108 58.4728 22.4155 58.4728 22.4155C58.4728 22.4155 54.3977 20.3313 52.4556 20.1323L52.4609 20.135Z" fill="white" stroke="#263238" stroke-linecap="round" stroke-linejoin="round"/>
<path d="M47.2979 93.3143C48.6112 96.6141 52.8853 102.869 55.7666 107.734L52.6731 118.863H70.104C70.2102 117.879 70.3667 115.125 69.4938 110.83C68.3848 105.365 67.5119 99.9811 67.5119 99.9811C67.5119 99.9811 68.7005 89.0517 68.7005 86.1606C68.7005 86.1606 59.9798 89.4551 52.8455 88.2502C45.7113 87.0454 46.1862 87.2068 46.1862 87.2068C46.1862 87.2068 45.4726 88.7343 47.2952 93.3143H47.2979Z" fill="#263238" stroke="#263238" stroke-linecap="round" stroke-linejoin="round"/>
<path d="M79.2971 55.5938L77.5912 64.0409" stroke="#263238" stroke-width="2" stroke-linecap="round" stroke-linejoin="round"/>
<path d="M80.0241 52.6516L79.1088 65.2431" stroke="#263238" stroke-width="2" stroke-linecap="round" stroke-linejoin="round"/>
<path d="M73.0649 55.4539C73.0649 55.4539 74.8318 52.7969 75.2882 52.2778C75.7445 51.7588 78.3658 50.718 79.1644 50.0833C79.963 49.4486 80.8173 46.9072 81.3877 47.1385C81.9581 47.3698 81.6159 47.948 81.4434 48.7548C81.2736 49.5643 80.1328 51.0649 80.0187 51.2397C79.9046 51.4119 82.6399 53.6655 82.5842 54.1281C82.5285 54.5906 82.1279 54.9376 81.5575 55.2845C80.9871 55.6314 75.9143 57.5946 75.9143 57.5946L74.1473 59.6735L72.3804 55.9756L73.0649 55.4566V55.4539Z" fill="white" stroke="#263238" stroke-linecap="round" stroke-linejoin="round"/>
<path d="M81.8971 49.6772C81.8971 49.6772 79.504 49.1582 79.3315 49.6208C79.1617 50.0833 78.7611 51.4683 78.9336 51.6996C79.106 51.9309 79.6738 51.8152 79.6738 51.8152L80.2999 50.2554C80.2999 50.2554 82.2367 50.6024 82.3508 50.5432C82.4649 50.484 82.3508 49.7337 81.8944 49.6772H81.8971Z" fill="white" stroke="#263238" stroke-linecap="round" stroke-linejoin="round"/>
<path d="M82.3534 50.5432C82.3534 50.5432 80.0637 49.8278 79.9443 49.9919C79.8223 50.1559 79.2572 52.1998 79.3394 52.3639C79.4217 52.5279 79.9046 52.813 80.0266 52.6489C80.1486 52.4849 80.7138 51.2182 80.7138 51.2182C80.7138 51.2182 82.7726 51.7507 82.892 51.3823C83.014 51.0138 82.356 50.5432 82.356 50.5432H82.3534Z" fill="white" stroke="#263238" stroke-linecap="round" stroke-linejoin="round"/>
<path d="M82.8894 51.3823C82.8894 51.3823 81.1145 50.7288 80.7112 51.2182C80.3079 51.7077 80.1461 52.0358 80.0241 52.6489C79.902 53.2621 80.2257 53.3858 80.4671 53.4665C80.7086 53.5472 81.1543 52.6086 81.3559 52.4849C81.5575 52.3612 83.1308 52.77 83.1308 52.3208C83.1308 51.8717 83.0911 51.748 82.8894 51.3796V51.3823Z" fill="white" stroke="#263238" stroke-linecap="round" stroke-linejoin="round"/>
<path d="M81.5177 53.4288C81.5177 53.4288 81.7989 53.3885 82.043 53.4692C82.2845 53.5499 81.921 54.042 81.7618 54.1657C81.6 54.2894 80.7138 54.1657 80.552 53.8376C80.3901 53.5095 80.9552 51.9981 81.0773 51.8341C81.1993 51.67 82.571 52.0788 82.571 52.0788C82.571 52.0788 83.1361 52.0385 83.1361 52.3235C83.1361 52.8937 82.7328 54.4508 82.571 54.6148C82.4092 54.7789 81.8838 55.0236 81.8838 55.0236" fill="white"/>
<path d="M81.5177 53.4288C81.5177 53.4288 81.7989 53.3885 82.043 53.4692C82.2845 53.5499 81.921 54.042 81.7618 54.1657C81.6 54.2894 80.7138 54.1657 80.552 53.8376C80.3901 53.5095 80.9552 51.9981 81.0773 51.8341C81.1993 51.67 82.571 52.0788 82.571 52.0788C82.571 52.0788 83.1361 52.0385 83.1361 52.3235C83.1361 52.8937 82.7328 54.4508 82.571 54.6148C82.4092 54.7789 81.8838 55.0236 81.8838 55.0236" stroke="#263238" stroke-linecap="round" stroke-linejoin="round"/>
<path d="M75.1423 55.8412C75.1025 55.9649 75.5057 54.6552 75.8294 54.4105C76.1531 54.1657 79.5411 53.5526 79.5411 53.5526" stroke="#263238" stroke-linecap="round" stroke-linejoin="round"/>
<path d="M73.171 54.7143L76.0576 59.0173L74.02 61.2548L71.1334 56.5216L73.171 54.7143Z" fill="#B0B0B0" stroke="#263238" stroke-linecap="round" stroke-linejoin="round"/>
<path d="M74.02 61.2548C74.02 61.2548 74.6992 61.9433 74.1899 62.6317C73.6805 63.3202 66.8036 69.5164 66.8036 69.5164L66.2942 59.0173C66.2942 59.0173 70.1147 56.2634 70.3694 56.1773C70.6241 56.0913 71.1335 56.5216 71.1335 56.5216L74.02 61.2548Z" fill="#B0B0B0" stroke="#263238" stroke-linecap="round" stroke-linejoin="round"/>
<path d="M46.0298 83.9124C46.0298 83.9124 45.0773 87.2875 45.4753 87.9302C45.8732 88.573 52.055 90.5012 57.6849 90.4205C63.3121 90.3398 67.1194 88.573 68.1488 88.0109C69.1782 87.4488 69.5761 86.9674 69.7353 86.1633C69.8945 85.3592 69.4965 83.431 69.4965 83.431C69.4965 83.431 63.4713 85.5206 57.6053 85.8406C51.7393 86.1633 46.0324 83.9124 46.0324 83.9124H46.0298Z" fill="#E0E0E0" stroke="#263238" stroke-linecap="round" stroke-linejoin="round"/>
<path d="M57.393 45.6567C57.393 45.6567 53.7954 43.4568 49.89 42.2009C45.9846 40.945 43.6897 45.4684 42.8221 49.7445C41.9545 54.0178 45.6742 74.5105 45.6742 74.5105C45.6742 74.5105 45.4275 83.8129 45.5495 84.6923C45.6742 85.5717 50.8823 87.8361 55.2838 87.8979C59.6853 87.9598 62.5374 87.4569 64.3362 87.0185C66.135 86.5775 68.9261 85.6981 69.4832 85.0688C70.0404 84.4395 70.1651 83.8747 70.1651 82.9953C70.1651 82.1159 67.8701 63.0082 67.8701 63.0082C67.8701 63.0082 66.196 55.0263 63.9647 51.7561C61.7335 48.4886 57.393 45.6594 57.393 45.6594V45.6567Z" fill="#E0E0E0" stroke="#263238" stroke-linecap="round" stroke-linejoin="round"/>
<g opacity="0.18">
<path d="M45.1436 71.4635L49.1657 68.7284L54.5887 72.7732C54.7054 72.8592 54.8434 72.9049 54.9813 72.9049C55.1193 72.9049 55.2679 72.8592 55.3873 72.7651L60.712 68.5886L66.3685 72.2864C66.6152 72.4478 66.9389 72.4262 67.1618 72.2299L68.7961 70.7911C68.7324 70.2425 68.6687 69.702 68.605 69.1775L66.6683 70.8826L61.0357 67.1982C60.7996 67.0422 60.4918 67.0557 60.269 67.2305L54.9681 71.3882L49.5716 67.3649C49.3461 67.1982 49.041 67.1901 48.8102 67.3488L44.8969 70.0085C44.9818 70.5276 45.064 71.0144 45.1409 71.4635H45.1436Z" fill="black" stroke="black" stroke-linecap="round" stroke-linejoin="round"/>
<path d="M69.7698 79.1576L67.191 81.4247L61.5584 77.7404C61.3223 77.5844 61.0146 77.6005 60.7917 77.7726L55.4908 81.9303L50.0944 77.9071C49.8688 77.7404 49.5637 77.7323 49.3329 77.891L45.5416 80.4673C45.5337 81.0375 45.5257 81.5888 45.5204 82.1024L49.6858 79.2706L55.1087 83.3153C55.2255 83.4014 55.3634 83.4471 55.5014 83.4471C55.6394 83.4471 55.7879 83.4014 55.9073 83.3073L61.2321 79.1307L66.8885 82.8286C67.1353 82.9899 67.459 82.9684 67.6818 82.7721L69.9476 80.7793C69.8945 80.2952 69.8335 79.7493 69.7672 79.1576H69.7698Z" fill="black" stroke="black" stroke-linecap="round" stroke-linejoin="round"/>
<path d="M49.0383 73.6042L54.4613 77.6489C54.578 77.735 54.716 77.7807 54.854 77.7807C54.9919 77.7807 55.1405 77.735 55.2599 77.6409L60.5847 73.4643L66.2411 77.1622C66.4879 77.3235 66.8115 77.302 67.0344 77.1057L69.3055 75.1102C69.2444 74.5777 69.1808 74.0372 69.1171 73.4966L66.5409 75.761L60.9084 72.0793C60.6722 71.9233 60.3645 71.9395 60.1416 72.1116L54.8407 76.2693L49.4443 72.2461C49.2188 72.0793 48.9136 72.0713 48.6828 72.2299L45.6344 74.3034C45.6583 74.4379 45.6715 74.5105 45.6715 74.5105C45.6715 74.5105 45.6556 75.0672 45.6371 75.9197L49.0357 73.6096L49.0383 73.6042Z" fill="black" stroke="black" stroke-linecap="round" stroke-linejoin="round"/>
</g>
<path d="M46.7036 59.9774C46.7036 59.9774 49.7786 58.985 51.5933 57.5704C51.5933 57.5704 50.0571 60.8272 47.8206 65.5012" stroke="#263238" stroke-linecap="round" stroke-linejoin="round"/>
<path d="M43.3182 50.1183C43.6897 45.2775 46.356 42.5747 50.3861 42.6393C54.4162 42.7011 64.835 48.4859 64.835 48.4859C64.835 48.4859 71.6561 53.2621 72.338 56.9707C73.0198 60.6793 72.0912 61.9997 70.6639 62.2498C69.2365 62.4999 63.3466 62.941 55.8436 60.491C48.3406 58.0384 46.356 55.0236 46.356 55.0236" fill="#E0E0E0"/>
<path d="M43.3182 50.1183C43.6897 45.2775 46.356 42.5747 50.3861 42.6393C54.4162 42.7011 64.835 48.4859 64.835 48.4859C64.835 48.4859 71.6561 53.2621 72.338 56.9707C73.0198 60.6793 72.0912 61.9997 70.6639 62.2498C69.2365 62.4999 63.3466 62.941 55.8436 60.491C48.3406 58.0384 46.356 55.0236 46.356 55.0236" stroke="#263238" stroke-linecap="round" stroke-linejoin="round"/>
<path d="M44.1274 43.3466L40.7421 54.0151" stroke="#263238" stroke-width="2" stroke-linecap="round" stroke-linejoin="round"/>
<path d="M54.4401 42.3838C54.4401 42.3838 52.6705 41.8405 51.4898 40.59C50.3092 39.3395 48.9694 38.85 47.7888 39.0141C46.6081 39.1781 45.3744 39.1781 45.3744 39.1781C45.3744 39.1781 46.1783 38.9065 46.0722 38.5246C45.9661 38.1454 45.4275 38.0351 44.7854 37.8173C44.1407 37.5995 43.2838 37.3278 43.1777 37.8173C43.0715 38.3068 42.3738 39.6649 42.4268 40.3184C42.4799 40.9719 43.3926 43.3089 43.7666 43.6881C44.1407 44.0673 46.1253 44.1776 47.0379 44.2851C47.9506 44.3927 49.5053 43.8495 50.4153 44.2313C51.328 44.6105 52.6148 45.1 52.6148 45.1L54.4375 42.3811L54.4401 42.3838Z" fill="white" stroke="#263238" stroke-linecap="round" stroke-linejoin="round"/>
<path d="M45.3771 39.1781L44.467 38.5811" stroke="#263238" stroke-linecap="round" stroke-linejoin="round"/>
<path d="M42.1562 53.7435L45.8733 39.1109" stroke="#263238" stroke-width="2" stroke-linecap="round" stroke-linejoin="round"/>
<path d="M54.9124 40.754L51.3784 45.0274L54.1695 47.4155L58.0139 42.763L54.9124 40.754Z" fill="#E0E0E0" stroke="#263238" stroke-linecap="round" stroke-linejoin="round"/>
<path d="M64.1531 57.9738C63.9674 57.8474 55.2227 50.683 54.4799 49.8655C53.737 49.0479 54.1695 47.4128 54.1695 47.4128L58.0138 42.7603C58.0138 42.7603 59.3165 42.4456 60.7412 43.2013C62.1686 43.9543 70.4755 50.242 72.338 53.0066C74.1978 55.7712 75.2113 59.0146 74.2615 60.612C72.6165 63.374 66.5064 62.3735 66.5064 62.3735" fill="#E0E0E0"/>
<path d="M64.1531 57.9738C63.9674 57.8474 55.2227 50.683 54.4799 49.8655C53.737 49.0479 54.1695 47.4128 54.1695 47.4128L58.0138 42.7603C58.0138 42.7603 59.3165 42.4456 60.7412 43.2013C62.1686 43.9543 70.4755 50.242 72.338 53.0066C74.1978 55.7712 75.2113 59.0146 74.2615 60.612C72.6165 63.374 66.5064 62.3735 66.5064 62.3735" stroke="#263238" stroke-linecap="round" stroke-linejoin="round"/>
<path d="M34.4781 93.446L41.0711 87.1557L42.5436 55.0801L39.2086 53.0362L34.4781 93.446Z" fill="#26AA9D" stroke="#263238" stroke-linecap="round" stroke-linejoin="round"/>
<path d="M39.2086 53.0362C39.2086 53.0362 37.6565 52.4069 37.4257 52.4069C37.1949 52.4069 33.316 50.519 33.316 50.519L20.9844 86.841C20.9844 86.841 26.5692 90.8508 29.1294 91.8728C31.6897 92.8947 34.4808 93.446 34.4808 93.446L39.2112 53.0362H39.2086Z" fill="#26AA9D" stroke="#263238" stroke-linecap="round" stroke-linejoin="round"/>
<path d="M31.4243 89.6057L32.3051 90.5362" stroke="#263238" stroke-linecap="round" stroke-linejoin="round"/>
<path d="M22.0669 87.0777L28.6599 86.6851L30.6948 88.8338" stroke="#263238" stroke-linecap="round" stroke-linejoin="round"/>
<path d="M31.7693 74.3141L32.0744 73.0851" stroke="#263238" stroke-linecap="round" stroke-linejoin="round"/>
<path d="M28.9702 85.5851L31.4615 75.5512" stroke="#263238" stroke-linecap="round" stroke-linejoin="round"/>
<path d="M39.2086 53.0362L42.1562 53.7435L45.0268 53.3509C45.0268 53.3509 45.4911 73.3191 46.4993 80.1608C47.5075 87.0024 47.5844 87.9437 47.5844 87.9437C47.5844 87.9437 43.5517 88.1803 40.2167 88.1803C36.8818 88.1803 35.4093 87.7097 35.4093 87.7097L39.2086 53.0389V53.0362Z" fill="#949494" stroke="#263238" stroke-linecap="round" stroke-linejoin="round"/>
<path d="M37.8315 86.2198L41.4 84.0334" stroke="#263238" stroke-linecap="round" stroke-linejoin="round"/>
<path d="M35.4093 87.707L37.0595 86.6958" stroke="#263238" stroke-linecap="round" stroke-linejoin="round"/>
<path d="M41.9254 71.1112L41.8936 57.5328" stroke="#263238" stroke-linecap="round" stroke-linejoin="round"/>
<path d="M46.1862 87.2068L41.9545 83.829L41.9253 72.0686" stroke="#263238" stroke-linecap="round" stroke-linejoin="round"/>
<path d="M45.8732 39.1109L36.7227 52.0842" stroke="#263238" stroke-width="2" stroke-linecap="round" stroke-linejoin="round"/>
<path d="M81.929 53.8161L82.7567 65.4232" stroke="#263238" stroke-width="2" stroke-linecap="round" stroke-linejoin="round"/>
<path d="M82.0431 53.4692L88.1612 65.1704" stroke="#263238" stroke-width="2" stroke-linecap="round" stroke-linejoin="round"/>
<path d="M85.9802 65.399L89.1507 65.7621L91.1962 64.4927L104.793 95.0704L91.7905 100.621L85.9802 65.399Z" fill="white" stroke="#263238" stroke-linecap="round" stroke-linejoin="round"/>
<path d="M91.7906 100.621L84.0674 95.4039L83.7384 65.4959L85.9803 65.399L91.7906 100.621Z" fill="#263238" stroke="#263238" stroke-linecap="round" stroke-linejoin="round"/>
<path d="M91.5359 74.1797L91.8569 75.1962" stroke="#263238" stroke-linecap="round" stroke-linejoin="round"/>
<path d="M89.0181 66.23L91.1936 73.1013" stroke="#263238" stroke-linecap="round" stroke-linejoin="round"/>
<path d="M98.8691 94.0619L97.6646 93.8656" stroke="#263238" stroke-linecap="round" stroke-linejoin="round"/>
<path d="M104.199 94.9359L100.185 94.277" stroke="#263238" stroke-linecap="round" stroke-linejoin="round"/>
<path d="M94.3005 97.1438L91.7906 100.621" stroke="#263238" stroke-linecap="round" stroke-linejoin="round"/>
<path d="M78.3897 64.326L82.3031 64.8934L85.9776 64.4067L91.4085 98.5773C91.4085 98.5773 88.132 99.5481 83.0194 99.8735C77.9069 100.196 76.3097 100.196 76.3097 100.196L78.3871 64.3233L78.3897 64.326Z" fill="#26AA9D" stroke="#263238" stroke-linecap="round" stroke-linejoin="round"/>
<path d="M78.3898 64.326L74.0758 63.7585L68.4857 93.4756L76.3124 100.199L78.3898 64.326Z" fill="#26AA9D" stroke="#263238" stroke-linecap="round" stroke-linejoin="round"/>
<path d="M82.3058 64.8934V69.831" stroke="#263238" stroke-linecap="round" stroke-linejoin="round"/>
<path d="M87.6146 97.1492L90.533 97.9291" stroke="#263238" stroke-linecap="round" stroke-linejoin="round"/>
<path d="M76.3124 100.199L83.2635 95.9874L86.4154 96.8292" fill="#26AA9D"/>
<path d="M76.3124 100.199L83.2635 95.9874L86.4154 96.8292" stroke="#263238" stroke-linecap="round" stroke-linejoin="round"/>
<path d="M82.8868 91.8593L82.7037 88.78" stroke="#263238" stroke-linecap="round" stroke-linejoin="round"/>
<path d="M83.0247 94.1237L82.9504 92.892" stroke="#263238" stroke-linecap="round" stroke-linejoin="round"/>
<path d="M69.3682 27.1193C69.2499 27.1193 69.1544 27.0231 69.1544 26.9055V25.7988C69.1544 25.6805 69.2499 25.585 69.3682 25.585C69.4865 25.585 69.582 25.6812 69.582 25.7988V26.9055C69.582 27.0238 69.4865 27.1193 69.3682 27.1193Z" fill="#F8931F"/>
<path d="M69.3682 29.6979C69.2499 29.6979 69.1544 29.6017 69.1544 29.4841V28.3774C69.1544 28.2591 69.2499 28.1636 69.3682 28.1636C69.4865 28.1636 69.582 28.2598 69.582 28.3774V29.4841C69.582 29.6024 69.4865 29.6979 69.3682 29.6979Z" fill="#F8931F"/>
<path d="M68.6326 27.8549H67.5259C67.4077 27.8549 67.3121 27.7587 67.3121 27.6411C67.3121 27.5235 67.4077 27.4273 67.5259 27.4273H68.6326C68.7509 27.4273 68.8464 27.5235 68.8464 27.6411C68.8464 27.7587 68.7509 27.8549 68.6326 27.8549Z" fill="#F8931F"/>
<path d="M71.2112 27.8549H70.1045C69.9863 27.8549 69.8907 27.7587 69.8907 27.6411C69.8907 27.5235 69.9863 27.4273 70.1045 27.4273H71.2112C71.3295 27.4273 71.425 27.5235 71.425 27.6411C71.425 27.7587 71.3295 27.8549 71.2112 27.8549Z" fill="#F8931F"/>
<path d="M19.9832 50.3243C19.8649 50.3243 19.7694 50.2281 19.7694 50.1105V49.0038C19.7694 48.8855 19.8649 48.79 19.9832 48.79C20.1015 48.79 20.197 48.8862 20.197 49.0038V50.1105C20.197 50.2288 20.1015 50.3243 19.9832 50.3243Z" fill="#F8931F"/>
<path d="M19.9832 52.9029C19.8649 52.9029 19.7694 52.8067 19.7694 52.6891V51.5824C19.7694 51.4641 19.8649 51.3686 19.9832 51.3686C20.1015 51.3686 20.197 51.4648 20.197 51.5824V52.6891C20.197 52.8074 20.1015 52.9029 19.9832 52.9029Z" fill="#F8931F"/>
<path d="M19.2476 51.0599H18.1409C18.0226 51.0599 17.9271 50.9637 17.9271 50.8461C17.9271 50.7285 18.0226 50.6323 18.1409 50.6323H19.2476C19.3659 50.6323 19.4614 50.7285 19.4614 50.8461C19.4614 50.9637 19.3659 51.0599 19.2476 51.0599Z" fill="#F8931F"/>
<path d="M21.8262 51.0599H20.7195C20.6013 51.0599 20.5057 50.9637 20.5057 50.8461C20.5057 50.7285 20.6013 50.6323 20.7195 50.6323H21.8262C21.9445 50.6323 22.04 50.7285 22.04 50.8461C22.04 50.9637 21.9445 51.0599 21.8262 51.0599Z" fill="#F8931F"/>
<path d="M66.9775 48.4246C66.8631 48.4246 66.7683 48.4975 66.7637 48.5904C66.7592 48.6859 66.8508 48.7662 66.9691 48.7699C67.2537 48.7793 67.5429 48.7856 67.8295 48.7898C67.9464 48.794 68.0452 48.7153 68.0472 48.6198C68.0491 48.5243 67.9549 48.4456 67.8366 48.444C67.5533 48.4398 67.2673 48.4335 66.986 48.424C66.9827 48.424 66.9801 48.424 66.9775 48.424V48.4246Z" fill="#26AA9D"/>
<path d="M12.4524 33.4507C12.4491 33.4507 12.4459 33.4507 12.4426 33.4507C12.1606 33.4607 11.876 33.4654 11.5972 33.4643H11.5959C11.4783 33.4643 11.3827 33.541 11.3821 33.636C11.3814 33.7315 11.477 33.8092 11.5946 33.8097C11.8812 33.8107 12.1723 33.8065 12.4615 33.7955C12.5797 33.7913 12.6707 33.7105 12.6655 33.615C12.6603 33.5221 12.5655 33.4496 12.4517 33.4496L12.4524 33.4507Z" fill="#26AA9D"/>
<path d="M47.358 10.115C47.4807 10.115 47.5802 10.2158 47.5809 10.3407C47.5816 10.4664 47.482 10.5685 47.3594 10.5692C46.7626 10.5727 46.161 10.5927 45.573 10.6279C45.4525 10.6348 45.3448 10.5395 45.3373 10.4146C45.3299 10.289 45.424 10.1813 45.5473 10.1744C46.1434 10.1385 46.7524 10.1185 47.3567 10.115H47.358ZM49.1566 10.153C49.16 10.153 49.1634 10.153 49.1674 10.153C49.767 10.1813 50.3739 10.2268 50.9728 10.2869C51.0954 10.2993 51.1848 10.4104 51.1726 10.5354C51.1604 10.6603 51.052 10.7528 50.9287 10.739C50.3373 10.6797 49.7378 10.6348 49.1458 10.6065C49.0225 10.601 48.9276 10.494 48.933 10.369C48.9385 10.2475 49.0374 10.1523 49.1559 10.1523L49.1566 10.153ZM43.7684 10.3311C43.8802 10.3311 43.977 10.4167 43.9899 10.5326C44.0041 10.6576 43.9161 10.7701 43.7935 10.7839C43.2014 10.8522 42.6059 10.9385 42.0247 11.0393C41.9035 11.06 41.7876 10.9772 41.7673 10.8536C41.7463 10.7301 41.8283 10.612 41.9495 10.5913C42.5389 10.4891 43.1425 10.4015 43.7427 10.3324C43.7515 10.3311 43.7596 10.3311 43.7684 10.3311ZM52.7361 10.5133C52.7469 10.5133 52.7584 10.514 52.77 10.5161C53.3654 10.6079 53.9649 10.7169 54.5522 10.8391C54.6728 10.864 54.7507 10.9848 54.7263 11.1077C54.702 11.2305 54.5848 11.3099 54.4628 11.2851C53.883 11.1643 53.2909 11.0566 52.7029 10.9661C52.581 10.9475 52.497 10.8315 52.5159 10.7073C52.5329 10.5948 52.6277 10.514 52.7361 10.514V10.5133ZM40.2235 10.9482C40.3251 10.9482 40.4172 11.0193 40.4409 11.1249C40.4687 11.2471 40.3935 11.3693 40.2736 11.3976C39.693 11.5336 39.1118 11.6882 38.5462 11.858C38.4276 11.8932 38.3037 11.8242 38.2691 11.7041C38.2346 11.5833 38.3023 11.4569 38.4202 11.4217C38.9946 11.2499 39.5847 11.0932 40.1733 10.9544C40.1903 10.9503 40.2072 10.9489 40.2235 10.9489V10.9482ZM56.26 11.2492C56.2783 11.2492 56.2973 11.2512 56.3162 11.2561C56.8981 11.41 57.4834 11.5819 58.0565 11.7669C58.1737 11.8049 58.2388 11.9326 58.2022 12.052C58.1649 12.1714 58.0396 12.2377 57.9217 12.1997C57.3561 12.0175 56.7783 11.8477 56.2038 11.6958C56.0846 11.664 56.0128 11.5398 56.0439 11.4183C56.0704 11.3161 56.1604 11.2478 56.26 11.2478V11.2492ZM36.772 11.9767C36.8641 11.9767 36.9502 12.0347 36.982 12.1286C37.0233 12.2473 36.9624 12.3771 36.8459 12.4185C36.285 12.6208 35.7247 12.8403 35.1794 13.0723C35.0656 13.1206 34.9349 13.066 34.8874 12.9501C34.84 12.8341 34.8935 12.7009 35.0073 12.6525C35.5601 12.4172 36.1285 12.1942 36.6968 11.9899C36.7212 11.9809 36.7463 11.9767 36.7713 11.9767H36.772ZM59.6891 12.3571C59.7155 12.3571 59.742 12.3619 59.7677 12.3716C60.332 12.5883 60.8963 12.823 61.4443 13.0695C61.5568 13.1199 61.6082 13.2545 61.5581 13.3691C61.5087 13.4837 61.3766 13.5361 61.2641 13.485C60.7235 13.2421 60.1667 13.0101 59.6099 12.7961C59.4947 12.7519 59.4364 12.6208 59.4798 12.5034C59.5137 12.4123 59.5983 12.3564 59.6884 12.3564L59.6891 12.3571ZM33.4547 13.3884C33.5373 13.3884 33.6166 13.4354 33.6552 13.5161C33.7094 13.6293 33.6627 13.7653 33.5522 13.8199C33.0164 14.0849 32.4846 14.3686 31.9698 14.662C31.8621 14.7234 31.7259 14.6841 31.6663 14.5743C31.606 14.4646 31.6446 14.3265 31.7517 14.2651C32.2733 13.9676 32.8139 13.6797 33.3571 13.4105C33.3883 13.3946 33.4215 13.3877 33.4547 13.3877V13.3884ZM62.98 13.8378C63.0139 13.8378 63.0491 13.8461 63.0816 13.8626C63.6202 14.1429 64.1547 14.4411 64.6709 14.7497C64.7772 14.8132 64.8131 14.9526 64.7508 15.061C64.6885 15.1694 64.5516 15.2053 64.4453 15.1418C63.9365 14.838 63.4095 14.544 62.8784 14.2679C62.7687 14.2106 62.7253 14.0739 62.7809 13.962C62.8202 13.8834 62.8987 13.8378 62.98 13.8378ZM30.3189 15.1791C30.3928 15.1791 30.4646 15.2163 30.5072 15.284C30.5736 15.3896 30.5431 15.5304 30.4395 15.5981C29.9402 15.9239 29.4444 16.269 28.9661 16.6239C28.8665 16.6977 28.727 16.6756 28.6545 16.5741C28.582 16.4727 28.6037 16.3305 28.7033 16.2566C29.189 15.8963 29.6923 15.5463 30.199 15.2149C30.2363 15.1908 30.2776 15.1791 30.3189 15.1791ZM66.0819 15.6919C66.1246 15.6919 66.168 15.7044 66.2059 15.7306C66.7079 16.0737 67.2044 16.4354 67.68 16.8054C67.7782 16.8813 67.7965 17.0242 67.722 17.1243C67.6474 17.2244 67.5072 17.2431 67.409 17.1671C66.9402 16.8026 66.4518 16.4464 65.9573 16.1082C65.855 16.0385 65.8279 15.897 65.8963 15.7927C65.939 15.7271 66.0101 15.6919 66.0819 15.6919ZM27.4128 17.3355C27.4771 17.3355 27.5408 17.3638 27.5848 17.4184C27.6634 17.515 27.6499 17.6586 27.5544 17.7387C27.0985 18.1218 26.6473 18.5249 26.2144 18.9357C26.1243 19.0213 25.9834 19.0164 25.8988 18.9239C25.8148 18.8321 25.8195 18.6878 25.9103 18.6023C26.3499 18.1846 26.8079 17.776 27.2705 17.3873C27.3119 17.3521 27.3627 17.3355 27.4121 17.3355H27.4128ZM68.9379 17.9175C68.9901 17.9175 69.0423 17.9361 69.0843 17.9734C69.5334 18.3724 69.973 18.7886 70.391 19.2118L70.412 19.2332C70.4994 19.3222 70.4994 19.4658 70.412 19.5549C70.3246 19.6439 70.1837 19.6439 70.0963 19.5549L70.0767 19.5348C69.6655 19.1186 69.2326 18.7086 68.7909 18.3165C68.6981 18.2343 68.6886 18.0907 68.7693 17.9955C68.8133 17.9437 68.8756 17.9175 68.9373 17.9175H68.9379ZM24.7851 19.8289C24.8406 19.8289 24.8955 19.8496 24.9389 19.8917C25.0283 19.978 25.0317 20.1223 24.9463 20.2134C24.5385 20.6497 24.1381 21.1053 23.7554 21.5671C23.6761 21.6631 23.5352 21.6755 23.4411 21.594C23.3469 21.5133 23.3347 21.3697 23.4146 21.2737C23.8028 20.805 24.2099 20.3425 24.6232 19.9C24.6672 19.8531 24.7261 19.8296 24.7851 19.8296V19.8289ZM71.4918 20.4958C71.5528 20.4958 71.6137 20.5213 71.6578 20.571C72.048 21.0142 72.4429 21.4863 72.8317 21.9737C72.9096 22.071 72.8947 22.2146 72.7992 22.2933C72.7037 22.3727 72.5628 22.3575 72.4856 22.2602C72.1008 21.7776 71.7106 21.3117 71.3252 20.874C71.2432 20.7802 71.2506 20.6366 71.3421 20.553C71.3848 20.5144 71.4376 20.4951 71.4911 20.4951L71.4918 20.4958ZM22.4663 22.626C22.513 22.626 22.5597 22.6405 22.5997 22.6716C22.6986 22.7468 22.7183 22.889 22.6444 22.9898C22.2908 23.4716 21.9446 23.9728 21.6168 24.4781C21.549 24.583 21.4102 24.612 21.3079 24.5423C21.2049 24.4733 21.1771 24.3318 21.2449 24.2275C21.5775 23.7146 21.9284 23.2066 22.2874 22.7178C22.3315 22.6585 22.3985 22.6267 22.4663 22.6267V22.626ZM73.7646 23.3363C73.8323 23.3363 73.8994 23.3681 73.9434 23.4275C74.2862 23.8948 74.6425 24.3973 75.0008 24.9192C75.0713 25.0221 75.0469 25.1636 74.946 25.236C74.845 25.3078 74.7062 25.283 74.635 25.1801C74.2794 24.6617 73.9265 24.164 73.5864 23.7001C73.5126 23.5993 73.5329 23.4571 73.6311 23.3819C73.6711 23.3515 73.7178 23.3363 73.7646 23.3363ZM20.4821 25.682C20.52 25.682 20.5587 25.6916 20.5946 25.713C20.7009 25.7766 20.7368 25.9153 20.6752 26.0237C20.3778 26.5435 20.0899 27.0812 19.8189 27.6224C19.7627 27.7342 19.6286 27.7784 19.5188 27.7218C19.4091 27.6645 19.3657 27.5279 19.4213 27.416C19.6956 26.8672 19.9876 26.3219 20.289 25.7952C20.3304 25.7227 20.4049 25.682 20.4821 25.682ZM75.83 26.3371C75.9025 26.3371 75.9729 26.373 76.0163 26.4386C76.3205 26.9045 76.6429 27.4077 77.0019 27.9759C77.0683 28.0815 77.0385 28.2223 76.9349 28.2899C76.8312 28.3576 76.693 28.3272 76.6266 28.2216C76.269 27.6556 75.9479 27.1544 75.6451 26.6898C75.5766 26.5856 75.6044 26.4441 75.7074 26.3744C75.7453 26.3488 75.788 26.3364 75.8307 26.3364L75.83 26.3371ZM18.8461 28.9478C18.8766 28.9478 18.9071 28.954 18.9362 28.9671C19.0487 29.0182 19.0995 29.1521 19.05 29.2667C18.8102 29.8183 18.5813 30.385 18.3692 30.9524C18.3252 31.0698 18.1965 31.1292 18.0813 31.0836C17.9662 31.0387 17.9086 30.9076 17.9519 30.7902C18.1667 30.2152 18.399 29.6409 18.6422 29.0824C18.6788 28.9975 18.7608 28.9471 18.8461 28.9471V28.9478ZM77.781 29.4179C77.8548 29.4179 77.9273 29.4552 77.97 29.5235L78.287 30.0336C78.5017 30.3802 78.7172 30.726 78.9326 31.0719C78.999 31.1782 78.9678 31.3183 78.8642 31.3859C78.7598 31.4536 78.6223 31.4218 78.5559 31.3162C78.3398 30.9704 78.1251 30.6238 77.9097 30.2773L77.5926 29.7672C77.5269 29.6609 77.5574 29.5208 77.6617 29.4531C77.699 29.4289 77.7403 29.4179 77.781 29.4179ZM17.5631 32.3765C17.5861 32.3765 17.6092 32.38 17.6315 32.3876C17.7487 32.4262 17.8131 32.5539 17.7751 32.674C17.5936 33.247 17.4236 33.8351 17.2698 34.4212C17.2379 34.5427 17.1153 34.6138 16.9968 34.582C16.8776 34.5496 16.8071 34.4246 16.8389 34.3038C16.9948 33.7102 17.1675 33.1151 17.3511 32.5346C17.3816 32.4387 17.4689 32.3772 17.5631 32.3772V32.3765ZM79.7143 32.5104C79.7875 32.5104 79.8593 32.547 79.902 32.614C80.2576 33.1731 80.5814 33.6729 80.891 34.1409C80.9601 34.2452 80.933 34.3867 80.8307 34.4564C80.7284 34.5268 80.5896 34.4992 80.5211 34.395C80.2102 33.9249 79.885 33.423 79.528 32.8618C79.461 32.7562 79.4908 32.6154 79.5937 32.547C79.631 32.5222 79.673 32.5104 79.715 32.5104H79.7143ZM81.729 35.5485C81.7987 35.5485 81.8672 35.5816 81.9112 35.6437C82.2696 36.1573 82.6272 36.6516 82.9734 37.1134C83.0479 37.2135 83.0296 37.3557 82.9314 37.4323C82.8332 37.5082 82.6936 37.4896 82.6184 37.3895C82.2689 36.9235 81.9085 36.4251 81.5467 35.9074C81.4756 35.8053 81.4986 35.663 81.5989 35.5906C81.6382 35.5623 81.6836 35.5485 81.7283 35.5485H81.729ZM16.6317 35.9157C16.6472 35.9157 16.6628 35.9171 16.6791 35.9205C16.7996 35.9468 16.8762 36.0683 16.8505 36.1904C16.7258 36.7793 16.6134 37.3812 16.5158 37.9804C16.4955 38.104 16.381 38.1875 16.2591 38.1675C16.1378 38.1468 16.0552 38.0301 16.0755 37.9058C16.1744 37.2998 16.2882 36.6902 16.4142 36.0945C16.4366 35.9882 16.5294 35.915 16.6323 35.915L16.6317 35.9157ZM83.9238 38.4526C83.9868 38.4526 84.0498 38.4795 84.0938 38.5326C84.482 38.9986 84.8837 39.4542 85.2881 39.887C85.3728 39.9781 85.3694 40.1217 85.28 40.2087C85.1906 40.295 85.0497 40.2915 84.9643 40.2004C84.5545 39.7614 84.1474 39.2996 83.7538 38.8267C83.6738 38.7307 83.6854 38.5879 83.7795 38.5064C83.8215 38.4698 83.873 38.4526 83.9238 38.4526ZM16.0423 39.5308C16.0511 39.5308 16.0599 39.5308 16.0687 39.5322C16.1913 39.5467 16.2787 39.6599 16.2645 39.7848C16.1947 40.384 16.1385 40.9942 16.0951 41.5996C16.0863 41.7253 15.9786 41.8185 15.8567 41.8102C15.7341 41.8012 15.6413 41.6921 15.6501 41.5672C15.6934 40.9549 15.751 40.3378 15.8208 39.7317C15.8343 39.6164 15.9305 39.5308 16.0423 39.5308ZM86.4059 41.1068C86.4601 41.1068 86.5149 41.1268 86.5576 41.1675C86.9973 41.5845 87.4505 41.9862 87.903 42.3624C87.9985 42.4418 88.0127 42.5847 87.9355 42.682C87.8576 42.7794 87.7174 42.7946 87.6218 42.7152C87.1612 42.3334 86.7012 41.9248 86.2541 41.5009C86.164 41.4153 86.1586 41.2717 86.2426 41.1792C86.2867 41.1309 86.3463 41.1068 86.4059 41.1068ZM15.7835 43.1866C15.7835 43.1866 15.7876 43.1866 15.7896 43.1866C15.9129 43.1901 16.0098 43.2943 16.0064 43.42C16.0016 43.587 15.9983 43.7548 15.9962 43.9225C15.9942 44.0785 15.9928 44.2352 15.9928 44.3919C15.9928 44.6749 15.9969 44.9607 16.0044 45.241C16.0077 45.3666 15.9109 45.4708 15.7876 45.4743C15.7856 45.4743 15.7835 45.4743 15.7815 45.4743C15.6609 45.4743 15.562 45.3763 15.5586 45.2534C15.5512 44.969 15.5471 44.6791 15.5471 44.3919C15.5471 44.2331 15.5485 44.0744 15.5505 43.9163C15.5532 43.7465 15.5566 43.5774 15.5613 43.4082C15.5647 43.2847 15.6636 43.1873 15.7842 43.1873L15.7835 43.1866ZM89.1982 43.4165C89.2422 43.4165 89.2869 43.4296 89.3256 43.4572C89.8174 43.8079 90.3214 44.1379 90.824 44.4382C90.9304 44.5017 90.9663 44.6411 90.9039 44.7495C90.8416 44.8579 90.7048 44.8938 90.5984 44.8302C90.0856 44.5238 89.5715 44.1869 89.0702 43.83C88.9692 43.7582 88.9448 43.616 89.0153 43.5132C89.0587 43.4496 89.1277 43.4158 89.1982 43.4158V43.4165ZM92.3001 45.2665C92.3319 45.2665 92.3651 45.2734 92.3956 45.2886C92.9342 45.5495 93.4849 45.7856 94.0336 45.9906C94.1495 46.0341 94.2084 46.1646 94.1664 46.282C94.1237 46.4 93.9957 46.4607 93.8799 46.4173C93.3183 46.2074 92.7547 45.9658 92.2032 45.6987C92.0921 45.6448 92.0447 45.5088 92.0976 45.3956C92.1355 45.3135 92.2161 45.2658 92.2994 45.2658L92.3001 45.2665ZM95.673 46.5215C95.6913 46.5215 95.7102 46.5236 95.7285 46.5284C96.3016 46.6789 96.8862 46.8004 97.4675 46.8901C97.5894 46.9087 97.6734 47.0247 97.6544 47.149C97.6361 47.2732 97.521 47.3574 97.4004 47.3395C96.8043 47.2477 96.2041 47.1227 95.6168 46.9681C95.4975 46.9371 95.4257 46.8128 95.4562 46.6913C95.4819 46.5891 95.5727 46.5208 95.6723 46.5208L95.673 46.5215ZM15.8878 46.8501C16.0016 46.8501 16.0992 46.9384 16.11 47.0572C16.1642 47.666 16.2381 48.2735 16.3302 48.8609C16.3498 48.9845 16.2665 49.1011 16.1446 49.1212C16.0233 49.1412 15.9088 49.0563 15.8892 48.932C15.7957 48.3342 15.7205 47.7171 15.6656 47.0979C15.6541 46.9729 15.7449 46.8625 15.8675 46.8508C15.8743 46.8508 15.8811 46.8501 15.8878 46.8501ZM16.4562 50.4679C16.5571 50.4679 16.6493 50.5384 16.673 50.6433C16.8098 51.2383 16.9697 51.8271 17.1478 52.3925C17.1858 52.5119 17.1207 52.6403 17.0036 52.6783C16.8864 52.7169 16.7604 52.6507 16.7231 52.5312C16.5415 51.9542 16.379 51.3543 16.2387 50.7475C16.2103 50.6253 16.2848 50.5031 16.4047 50.4742C16.4217 50.47 16.4393 50.4679 16.4562 50.4679ZM17.557 53.954C17.6444 53.954 17.727 54.0064 17.7629 54.0934C17.9939 54.656 18.2507 55.2069 18.525 55.7301C18.5833 55.8412 18.542 55.9786 18.4336 56.038C18.3252 56.0974 18.1897 56.0552 18.1315 55.9448C17.851 55.4091 17.5882 54.8451 17.3517 54.2701C17.3043 54.1541 17.3578 54.0209 17.471 53.9726C17.4994 53.9609 17.5286 53.9547 17.557 53.9547V53.954ZM19.2526 57.1811C19.3244 57.1811 19.3949 57.2163 19.4382 57.2819C19.4938 57.3661 19.55 57.4503 19.6076 57.5339C19.888 57.9432 20.1888 58.3457 20.5024 58.7295C20.581 58.8261 20.5681 58.9697 20.474 59.0498C20.3791 59.1305 20.2382 59.1174 20.1596 59.0201C19.8379 58.6259 19.529 58.2138 19.2418 57.7934C19.1828 57.7078 19.1252 57.6215 19.0683 57.5346C18.9999 57.4303 19.027 57.2888 19.1293 57.2191C19.1672 57.1929 19.2106 57.1804 19.2533 57.1804L19.2526 57.1811ZM21.549 59.9948C21.6053 59.9948 21.6622 60.0162 21.7055 60.0597C22.1221 60.4766 22.5686 60.8818 23.0312 61.2636C23.1267 61.3429 23.1416 61.4858 23.0644 61.5832C22.9872 61.6805 22.8463 61.6957 22.7508 61.617C22.2766 61.2263 21.82 60.8114 21.3932 60.3841C21.3052 60.2965 21.3038 60.1522 21.3905 60.0624C21.4346 60.0169 21.4921 59.9941 21.5497 59.9941L21.549 59.9948ZM24.3387 62.2997C24.3813 62.2997 24.4247 62.3121 24.4626 62.3384C24.947 62.669 25.4578 62.9866 25.9821 63.2827C26.0898 63.3434 26.1284 63.4822 26.0688 63.5919C26.0092 63.7017 25.873 63.7417 25.7653 63.6803C25.2301 63.378 24.7078 63.0535 24.214 62.716C24.1117 62.6462 24.0839 62.5047 24.153 62.4005C24.1957 62.3349 24.2668 62.2997 24.3387 62.2997ZM27.4805 64.08C27.5117 64.08 27.5435 64.0869 27.5733 64.1007C28.1038 64.3485 28.6579 64.5825 29.2208 64.7979C29.336 64.8421 29.3949 64.9732 29.3516 65.0906C29.3082 65.2079 29.1795 65.2673 29.0643 65.2238C28.4919 65.005 27.9276 64.7662 27.3877 64.5142C27.2759 64.4617 27.2265 64.3271 27.278 64.2125C27.3152 64.129 27.3965 64.08 27.4812 64.08H27.4805ZM30.8473 65.3702C30.869 65.3702 30.8907 65.3729 30.9117 65.3798C31.4726 65.5524 32.0531 65.7119 32.6364 65.8534C32.7563 65.8824 32.8301 66.0052 32.8017 66.1274C32.7732 66.2496 32.6533 66.3249 32.5327 66.2959C31.9407 66.1523 31.352 65.9907 30.7823 65.8147C30.6644 65.7781 30.5973 65.6518 30.6332 65.5317C30.6624 65.4337 30.7511 65.3702 30.8466 65.3702H30.8473ZM34.3469 66.222C34.3597 66.222 34.3733 66.2234 34.3868 66.2255C34.964 66.3318 35.5588 66.4243 36.1542 66.5009C36.2761 66.5168 36.3629 66.6307 36.348 66.7549C36.3324 66.8799 36.2206 66.9675 36.0987 66.9523C35.4958 66.8743 34.8935 66.7811 34.3082 66.6735C34.187 66.6514 34.1064 66.5333 34.128 66.4091C34.1477 66.2993 34.2412 66.222 34.3475 66.222H34.3469ZM37.9162 66.6838C37.9216 66.6838 37.9277 66.6838 37.9331 66.6838C38.5218 66.7294 39.1227 66.7618 39.7195 66.7798C39.8428 66.7832 39.9396 66.8881 39.9362 67.0138C39.9329 67.1394 39.8319 67.2416 39.7066 67.2347C39.103 67.2167 38.4947 67.1843 37.8992 67.138C37.7766 67.1284 37.6845 67.0193 37.694 66.8937C37.7028 66.7742 37.801 66.6838 37.9162 66.6838Z" fill="#F8931F"/>
</g>
<defs>
<clipPath id="clip0_194_4740">
<rect width="119" height="119" fill="white" transform="translate(0.672119)"/>
</clipPath>
</defs>
</svg>
