<svg width="866" height="884" viewBox="0 0 866 884" fill="none" xmlns="http://www.w3.org/2000/svg">
<path d="M721.899 16.4684C724.396 14.2849 727.425 12.795 730.681 12.1482C733.938 11.5014 737.308 11.7205 740.453 12.7834L805.735 34.8546C807.962 35.6091 810.348 35.7707 812.657 35.3237C814.966 34.8766 817.118 33.8362 818.9 32.3054L838.832 15.2072C843.797 10.9449 849.664 7.85707 855.993 6.1743L860.102 5.0837C860.843 4.88411 861.625 4.89613 862.36 5.1184C863.094 5.34067 863.751 5.76425 864.256 6.34089C864.761 6.91753 865.093 7.62403 865.215 8.37994C865.338 9.13585 865.245 9.91078 864.947 10.6164L863.324 14.5375C860.818 20.5753 856.98 25.9716 852.096 30.3252L832.465 47.7929C830.711 49.3557 829.395 51.3478 828.648 53.5727C827.9 55.7976 827.747 58.1785 828.203 60.4807L841.565 127.934C842.21 131.184 841.986 134.546 840.916 137.682C839.846 140.819 837.968 143.619 835.47 145.801C828.948 117.065 813.613 87.4587 806.908 75.3656C806.693 74.9798 806.394 74.6471 806.033 74.3923C805.672 74.1375 805.258 73.9671 804.822 73.8938C804.386 73.8204 803.939 73.846 803.514 73.9686C803.089 74.0912 802.698 74.3077 802.368 74.602L804.927 79.6987C805.531 80.8951 805.659 82.2751 805.286 83.5619C804.913 84.8486 804.066 85.9469 802.915 86.6365L796.493 90.4773C795.625 90.9974 794.608 91.215 793.603 91.0959C792.555 90.9721 791.497 91.2141 790.607 91.7809L788.341 93.2216L790.231 90.8769C790.819 90.1485 791.167 89.2564 791.227 88.323L791.332 86.7475L791.546 84.2235L787.389 87.9265C784.717 90.3047 781.754 92.3355 778.57 93.9704L762.55 102.19L769.733 120.955C770.476 122.908 770.537 125.054 769.904 127.045C769.271 129.036 767.982 130.755 766.247 131.923L760.845 135.561L750.528 108.372L746.066 110.658C745.909 110.74 745.729 110.768 745.555 110.735C745.381 110.703 745.223 110.614 745.106 110.481C744.989 110.348 744.92 110.18 744.911 110.004C744.901 109.828 744.951 109.653 745.053 109.509L747.915 105.397L722.268 91.6228L726.629 86.7189C728.01 85.1653 729.875 84.1203 731.924 83.7521C733.973 83.3838 736.086 83.7137 737.925 84.6886L755.77 94.1478L765.914 79.5461C767.956 76.611 770.363 73.9466 773.077 71.6167L777.306 67.9904L774.769 67.8712L773.19 67.7654C772.254 67.7026 771.322 67.9301 770.522 68.4167L767.941 69.9741L769.667 67.9204C770.346 67.1147 770.723 66.0996 770.737 65.0475C770.751 64.0374 771.101 63.0609 771.732 62.2709L776.416 56.4179C777.253 55.37 778.455 54.6766 779.783 54.4768C781.111 54.2771 782.465 54.5858 783.575 55.3411L788.299 58.5564C788.635 58.27 788.903 57.9115 789.081 57.5076C789.259 57.1037 789.343 56.6649 789.328 56.2239C789.312 55.7829 789.197 55.3511 788.99 54.9608C788.784 54.5704 788.492 54.2317 788.136 53.9697C776.99 45.7551 749.594 26.6949 721.899 16.4684Z" fill="#1DA99D" fill-opacity="0.2"/>
<path d="M594.917 100.679C594.145 100.875 593.361 101.109 592.605 101.371C592.28 101.486 592.013 101.726 591.864 102.037C591.714 102.348 591.695 102.705 591.808 103.031C591.864 103.193 591.952 103.342 592.066 103.47C592.18 103.598 592.319 103.702 592.473 103.776C592.628 103.85 592.795 103.892 592.966 103.901C593.137 103.91 593.309 103.885 593.47 103.828C596.047 102.922 598.754 102.438 601.486 102.396C601.656 102.395 601.825 102.36 601.982 102.294C602.139 102.228 602.281 102.131 602.401 102.01C602.521 101.888 602.615 101.744 602.679 101.587C602.743 101.429 602.776 101.26 602.774 101.089C602.773 100.919 602.738 100.751 602.672 100.594C602.605 100.437 602.509 100.295 602.387 100.175C602.266 100.055 602.122 99.961 601.964 99.8969C601.806 99.8329 601.637 99.8007 601.466 99.8019C599.256 99.8252 597.056 100.12 594.917 100.679ZM585.115 105.34C584.954 105.38 584.803 105.451 584.669 105.548C582.23 107.302 580.084 109.429 578.31 111.852C578.21 111.99 578.138 112.147 578.098 112.312C578.059 112.478 578.052 112.65 578.079 112.818C578.106 112.986 578.166 113.147 578.255 113.292C578.345 113.437 578.462 113.563 578.6 113.663C578.738 113.763 578.894 113.835 579.06 113.874C579.226 113.914 579.398 113.92 579.566 113.893C579.735 113.866 579.896 113.807 580.041 113.717C580.186 113.628 580.312 113.511 580.412 113.373C582.034 111.16 583.994 109.215 586.22 107.609C586.362 107.507 586.482 107.377 586.573 107.228C586.664 107.079 586.724 106.913 586.751 106.74C586.777 106.567 586.768 106.391 586.725 106.221C586.682 106.052 586.606 105.893 586.501 105.753C586.337 105.555 586.118 105.409 585.871 105.336C585.624 105.262 585.361 105.264 585.115 105.34ZM609.535 101.349C609.333 101.403 609.147 101.504 608.992 101.645C608.838 101.785 608.719 101.961 608.647 102.157C608.586 102.316 608.557 102.486 608.562 102.657C608.568 102.828 608.607 102.996 608.678 103.151C608.749 103.306 608.85 103.446 608.976 103.562C609.101 103.678 609.249 103.768 609.409 103.826C611.975 104.78 614.378 106.124 616.532 107.812C616.666 107.917 616.82 107.995 616.984 108.041C617.148 108.087 617.32 108.1 617.489 108.079C617.659 108.059 617.822 108.005 617.971 107.922C618.12 107.838 618.25 107.726 618.356 107.592C618.461 107.458 618.539 107.305 618.585 107.14C618.631 106.976 618.644 106.805 618.624 106.635C618.603 106.466 618.55 106.303 618.466 106.154C618.382 106.006 618.27 105.875 618.136 105.77C615.774 103.904 613.137 102.416 610.319 101.358C610.078 101.29 609.823 101.287 609.581 101.35L609.535 101.349ZM575.287 119.106C575.06 119.155 574.85 119.264 574.68 119.422C574.51 119.58 574.386 119.782 574.322 120.004C573.65 122.585 573.472 125.269 573.797 127.916C573.848 128.31 573.9 128.694 573.97 129.079C573.999 129.247 574.061 129.408 574.152 129.553C574.243 129.697 574.362 129.822 574.502 129.921C574.641 130.019 574.799 130.089 574.966 130.127C575.132 130.165 575.305 130.169 575.473 130.14C575.642 130.111 575.803 130.05 575.947 129.958C576.092 129.867 576.217 129.749 576.315 129.609C576.414 129.47 576.484 129.312 576.522 129.146C576.56 128.979 576.564 128.807 576.535 128.639L576.376 127.597C576.093 125.274 576.249 122.919 576.838 120.654C576.881 120.489 576.891 120.317 576.868 120.148C576.844 119.979 576.787 119.816 576.7 119.669C576.614 119.522 576.499 119.394 576.362 119.291C576.226 119.189 576.07 119.114 575.905 119.072C575.714 119.037 575.518 119.05 575.334 119.108L575.287 119.106ZM622.965 111.754C622.806 111.798 622.655 111.869 622.519 111.962C622.377 112.064 622.256 112.194 622.166 112.344C622.075 112.493 622.015 112.66 621.989 112.833C621.964 113.006 621.974 113.182 622.018 113.352C622.062 113.521 622.14 113.68 622.247 113.818C623.89 116.051 625.261 118.471 626.332 121.027C626.484 121.319 626.74 121.543 627.049 121.654C627.359 121.766 627.699 121.756 628.002 121.628C628.305 121.5 628.548 121.262 628.684 120.962C628.819 120.663 628.836 120.323 628.731 120.011C627.575 117.27 626.101 114.675 624.338 112.279C624.192 112.072 623.989 111.912 623.753 111.819C623.517 111.726 623.26 111.704 623.012 111.756L622.965 111.754ZM429.701 172.204C429.366 172.286 429.078 172.497 428.899 172.792C428.721 173.087 428.666 173.44 428.749 173.774C428.831 174.109 429.043 174.397 429.337 174.576C429.632 174.754 429.986 174.808 430.321 174.726C432.957 174.111 435.768 173.567 438.678 173.158C439.017 173.102 439.321 172.916 439.525 172.639C439.728 172.362 439.815 172.016 439.767 171.676C439.742 171.507 439.683 171.344 439.595 171.198C439.506 171.052 439.39 170.924 439.252 170.823C439.114 170.722 438.958 170.649 438.791 170.609C438.625 170.568 438.453 170.561 438.284 170.587C435.307 171.05 432.43 171.601 429.728 172.233L429.701 172.204ZM421.41 174.549L421.326 174.546C418.553 175.476 415.836 176.566 413.189 177.81C412.896 177.971 412.676 178.236 412.573 178.554C412.471 178.871 412.493 179.215 412.637 179.516C412.78 179.817 413.033 180.052 413.344 180.172C413.655 180.293 414 180.29 414.309 180.164C416.86 178.961 419.479 177.908 422.153 177.01C422.48 176.898 422.749 176.662 422.901 176.353C423.054 176.044 423.078 175.687 422.968 175.36C422.86 175.053 422.638 174.798 422.349 174.647C422.06 174.497 421.724 174.462 421.41 174.549ZM446.707 169.516C446.539 169.545 446.379 169.608 446.235 169.699C446.091 169.791 445.967 169.91 445.869 170.049C445.772 170.189 445.702 170.346 445.665 170.512C445.628 170.678 445.625 170.85 445.654 171.018C445.684 171.186 445.746 171.346 445.838 171.489C445.929 171.633 446.048 171.757 446.188 171.855C446.328 171.953 446.485 172.022 446.651 172.059C446.818 172.095 446.99 172.099 447.158 172.07C448.629 171.926 450.155 171.803 451.709 171.691C453.019 171.607 454.358 171.524 455.695 171.45C456.021 171.407 456.318 171.242 456.528 170.989C456.738 170.736 456.844 170.414 456.826 170.086C456.808 169.758 456.668 169.449 456.432 169.22C456.196 168.991 455.883 168.86 455.555 168.851C454.207 168.925 452.85 169.007 451.521 169.1C449.958 169.212 448.403 169.343 446.904 169.486C446.838 169.491 446.772 169.501 446.707 169.516ZM578.022 135.652C577.904 135.685 577.79 135.731 577.681 135.789C577.386 135.967 577.173 136.254 577.088 136.588C577.003 136.922 577.052 137.275 577.225 137.573C578.775 140.147 580.693 142.482 582.917 144.503C583.176 144.712 583.505 144.815 583.838 144.791C584.17 144.766 584.48 144.615 584.705 144.369C584.929 144.123 585.052 143.801 585.046 143.468C585.041 143.135 584.908 142.817 584.676 142.578C582.635 140.736 580.879 138.602 579.467 136.244C579.322 136.003 579.103 135.815 578.843 135.709C578.583 135.602 578.295 135.582 578.022 135.652ZM405.907 181.955C405.77 181.995 405.64 182.053 405.518 182.128C404.294 182.942 403.087 183.795 401.935 184.687C400.782 185.579 399.647 186.537 398.565 187.552C398.434 187.668 398.328 187.809 398.254 187.967C398.179 188.124 398.137 188.296 398.131 188.47C398.125 188.644 398.154 188.818 398.217 188.981C398.28 189.143 398.376 189.291 398.498 189.416C398.615 189.544 398.757 189.648 398.915 189.721C399.072 189.794 399.243 189.835 399.417 189.841C399.59 189.847 399.764 189.818 399.926 189.757C400.089 189.695 400.237 189.602 400.363 189.482C401.38 188.535 402.444 187.639 403.55 186.797C404.644 185.95 405.803 185.133 406.979 184.363C407.235 184.192 407.423 183.936 407.509 183.64C407.594 183.345 407.573 183.028 407.447 182.747C407.322 182.466 407.102 182.238 406.825 182.103C406.547 181.969 406.232 181.936 405.933 182.012L405.907 181.955ZM463.911 168.608C463.595 168.679 463.318 168.866 463.133 169.131C462.948 169.396 462.869 169.721 462.911 170.042C462.954 170.362 463.114 170.655 463.362 170.864C463.609 171.072 463.926 171.18 464.249 171.167C467.052 171.127 469.974 171.138 472.82 171.211C473.147 171.195 473.456 171.057 473.686 170.824C473.916 170.591 474.05 170.281 474.061 169.954C474.073 169.627 473.961 169.307 473.749 169.059C473.536 168.81 473.237 168.651 472.912 168.611C470.04 168.509 467.126 168.527 464.249 168.564C464.135 168.566 464.022 168.581 463.911 168.608ZM629.717 127.463C629.393 127.538 629.111 127.733 628.927 128.01C628.744 128.286 628.673 128.622 628.73 128.949C629.21 131.676 629.368 134.45 629.201 137.213C629.182 137.558 629.299 137.896 629.528 138.154C629.756 138.412 630.078 138.569 630.422 138.591C630.593 138.603 630.764 138.582 630.926 138.527C631.087 138.473 631.237 138.387 631.365 138.274C631.493 138.162 631.598 138.025 631.673 137.871C631.748 137.718 631.791 137.551 631.801 137.381C631.981 134.41 631.809 131.429 631.286 128.499C631.258 128.331 631.196 128.17 631.105 128.025C631.014 127.881 630.895 127.756 630.755 127.659C630.615 127.561 630.457 127.492 630.29 127.455C630.123 127.419 629.951 127.416 629.783 127.447C629.751 127.448 629.719 127.454 629.689 127.462L629.717 127.463ZM481.133 169.016C480.829 169.088 480.561 169.268 480.378 169.523C480.196 169.777 480.112 170.089 480.142 170.401C480.172 170.712 480.314 171.002 480.541 171.217C480.768 171.433 481.066 171.559 481.379 171.572C484.22 171.748 487.097 171.981 489.916 172.268C490.092 172.295 490.272 172.287 490.444 172.242C490.617 172.198 490.778 172.119 490.919 172.01C491.059 171.901 491.176 171.764 491.262 171.608C491.348 171.453 491.401 171.281 491.419 171.104C491.436 170.927 491.416 170.748 491.362 170.579C491.307 170.41 491.219 170.253 491.102 170.119C490.985 169.985 490.841 169.877 490.681 169.8C490.52 169.723 490.345 169.68 490.167 169.674C487.32 169.395 484.415 169.161 481.536 168.984C481.401 168.97 481.265 168.981 481.133 169.016ZM393.417 193.657C393.131 193.737 392.878 193.908 392.699 194.145C390.942 196.514 389.399 199.035 388.089 201.678C388.012 201.971 388.039 202.282 388.167 202.558C388.294 202.833 388.514 203.056 388.787 203.187C389.061 203.318 389.372 203.35 389.667 203.277C389.962 203.204 390.222 203.03 390.402 202.786C391.637 200.282 393.097 197.895 394.765 195.655C394.867 195.518 394.942 195.362 394.983 195.196C395.025 195.031 395.034 194.858 395.009 194.689C394.983 194.52 394.925 194.357 394.836 194.211C394.748 194.064 394.632 193.937 394.494 193.836C394.334 193.726 394.152 193.654 393.961 193.623C393.77 193.592 393.575 193.603 393.389 193.656L393.417 193.657ZM498.272 170.727C497.982 170.805 497.727 170.98 497.551 171.223C497.375 171.466 497.288 171.762 497.305 172.061C497.321 172.361 497.441 172.646 497.643 172.868C497.845 173.09 498.118 173.235 498.415 173.28C499.465 173.42 500.514 173.578 501.564 173.737C503.273 173.994 505.009 174.28 506.883 174.608C507.223 174.667 507.572 174.589 507.854 174.39C508.136 174.192 508.328 173.89 508.387 173.551C508.446 173.211 508.368 172.863 508.169 172.581C507.971 172.299 507.669 172.107 507.329 172.048C505.473 171.721 503.682 171.433 501.954 171.167C500.895 171.008 499.837 170.849 498.777 170.708C498.609 170.681 498.438 170.688 498.272 170.727ZM590.523 147.237C590.272 147.305 590.046 147.447 589.876 147.645C589.706 147.842 589.598 148.086 589.568 148.345C589.538 148.604 589.586 148.866 589.706 149.097C589.826 149.328 590.012 149.519 590.241 149.643C591.793 150.474 593.403 151.192 595.058 151.793C596.173 152.196 597.337 152.564 598.522 152.849C598.845 152.91 599.18 152.847 599.459 152.673C599.738 152.498 599.941 152.224 600.027 151.906C600.112 151.588 600.075 151.25 599.921 150.959C599.768 150.667 599.51 150.445 599.199 150.335C598.09 150.035 596.991 149.688 595.941 149.286C594.403 148.718 592.907 148.041 591.465 147.261C591.165 147.138 590.83 147.129 590.523 147.237ZM744.884 109.174C744.745 109.21 744.614 109.269 744.495 109.347C742.123 110.914 739.715 112.461 737.262 113.941C736.969 114.121 736.759 114.41 736.678 114.745C736.598 115.08 736.654 115.433 736.835 115.726C737.015 116.019 737.304 116.229 737.64 116.309C737.975 116.39 738.328 116.334 738.622 116.153C741.075 114.655 743.53 113.1 745.93 111.516C746.193 111.349 746.387 111.093 746.477 110.795C746.566 110.498 746.546 110.177 746.419 109.893C746.292 109.609 746.067 109.38 745.785 109.248C745.503 109.116 745.183 109.09 744.884 109.174ZM515.247 173.646C514.96 173.718 514.706 173.886 514.527 174.122C514.349 174.357 514.257 174.647 514.266 174.943C514.275 175.238 514.385 175.522 514.577 175.746C514.77 175.971 515.034 176.123 515.325 176.177C517.912 176.68 520.498 177.21 523.085 177.732L523.761 177.868C523.929 177.903 524.102 177.905 524.27 177.873C524.438 177.842 524.598 177.777 524.741 177.683C524.884 177.59 525.007 177.469 525.103 177.327C525.199 177.186 525.267 177.026 525.301 176.859C525.367 176.52 525.297 176.169 525.107 175.881C524.916 175.593 524.62 175.392 524.282 175.321L523.605 175.184C521.009 174.663 518.423 174.132 515.826 173.629C515.634 173.588 515.436 173.594 515.247 173.646ZM730.165 118.157C730.052 118.182 729.943 118.225 729.843 118.285C727.375 119.69 724.842 121.074 722.329 122.403C722.024 122.562 721.795 122.837 721.692 123.166C721.589 123.495 721.621 123.851 721.781 124.156C721.941 124.461 722.216 124.69 722.545 124.793C722.874 124.895 723.23 124.863 723.536 124.703C726.086 123.357 728.638 121.965 731.154 120.543C731.433 120.39 731.647 120.141 731.753 119.841C731.86 119.541 731.853 119.213 731.733 118.918C731.613 118.624 731.389 118.383 731.104 118.243C730.818 118.103 730.491 118.072 730.184 118.157L730.165 118.157ZM628.607 144.479C628.388 144.535 628.188 144.648 628.026 144.806C627.865 144.964 627.748 145.162 627.687 145.379C627.027 147.511 626.191 149.585 625.188 151.578C624.918 151.569 624.645 151.634 624.373 151.652C624.054 151.691 623.76 151.846 623.548 152.088C623.337 152.329 623.221 152.641 623.225 152.962C623.229 153.283 623.351 153.592 623.568 153.829C623.785 154.066 624.082 154.215 624.402 154.247C624.518 154.48 624.704 154.673 624.934 154.797C625.234 154.961 625.587 155 625.915 154.905C626.244 154.81 626.522 154.589 626.688 154.291L626.838 154.025L627.213 153.983C629.2 153.783 631.225 153.547 633.215 153.264C633.555 153.216 633.863 153.038 634.073 152.766C634.284 152.495 634.379 152.152 634.34 151.811C634.319 151.642 634.264 151.478 634.18 151.33C634.095 151.181 633.982 151.051 633.847 150.947C633.712 150.842 633.557 150.765 633.393 150.721C633.228 150.676 633.056 150.664 632.886 150.686C631.338 150.883 629.772 151.07 628.198 151.238C628.955 149.572 629.606 147.859 630.145 146.11C630.215 145.889 630.223 145.654 630.171 145.428C630.118 145.203 630.006 144.996 629.846 144.828C629.687 144.66 629.485 144.539 629.262 144.475C629.039 144.412 628.803 144.41 628.579 144.468L628.607 144.479ZM606.96 151.881C606.668 151.962 606.413 152.143 606.24 152.392C606.067 152.64 605.985 152.941 606.01 153.243C606.034 153.545 606.163 153.83 606.375 154.047C606.586 154.264 606.866 154.402 607.168 154.435C610.078 154.711 613.002 154.815 615.925 154.747C616.269 154.739 616.596 154.596 616.835 154.347C617.073 154.098 617.203 153.765 617.195 153.421C617.187 153.077 617.043 152.749 616.794 152.511C616.546 152.273 616.212 152.144 615.868 152.151C613.048 152.214 610.227 152.114 607.419 151.85C607.265 151.837 607.11 151.847 606.96 151.881ZM714.92 126.188C714.836 126.208 714.753 126.236 714.675 126.272C712.119 127.516 709.507 128.738 706.907 129.896C706.593 130.035 706.347 130.294 706.223 130.615C706.1 130.936 706.109 131.293 706.249 131.607C706.389 131.922 706.648 132.168 706.969 132.291C707.29 132.415 707.648 132.405 707.962 132.266C710.59 131.1 713.23 129.869 715.814 128.617C716.12 128.487 716.363 128.244 716.495 127.939C716.627 127.634 716.636 127.29 716.521 126.979C716.407 126.667 716.177 126.411 715.879 126.264C715.581 126.117 715.238 126.09 714.92 126.188ZM699.189 133.203C699.131 133.219 699.074 133.239 699.019 133.263C696.394 134.335 693.705 135.378 691.036 136.374C690.877 136.434 690.73 136.524 690.605 136.639C690.481 136.755 690.38 136.894 690.309 137.049C690.238 137.204 690.198 137.371 690.192 137.541C690.185 137.711 690.213 137.881 690.272 138.04C690.331 138.2 690.422 138.346 690.537 138.471C690.653 138.596 690.793 138.696 690.948 138.767C691.102 138.838 691.27 138.878 691.44 138.884C691.61 138.891 691.78 138.863 691.94 138.804C694.636 137.809 697.354 136.749 700.007 135.668C700.315 135.541 700.563 135.302 700.7 134.999C700.838 134.696 700.854 134.352 700.746 134.037C700.638 133.722 700.414 133.46 700.119 133.305C699.825 133.15 699.482 133.113 699.161 133.202L699.189 133.203ZM532.148 177.047C531.905 177.103 531.684 177.228 531.512 177.407C531.34 177.587 531.224 177.813 531.178 178.057C531.145 178.225 531.146 178.397 531.18 178.564C531.215 178.731 531.281 178.889 531.377 179.031C531.472 179.172 531.595 179.293 531.737 179.387C531.88 179.48 532.04 179.545 532.207 179.577C535.36 180.193 538.142 180.722 540.705 181.13C540.873 181.159 541.045 181.154 541.212 181.116C541.378 181.078 541.535 181.008 541.674 180.91C541.814 180.811 541.932 180.686 542.023 180.542C542.114 180.397 542.175 180.237 542.204 180.069C542.233 179.901 542.228 179.729 542.19 179.562C542.152 179.396 542.082 179.239 541.983 179.1C541.885 178.961 541.76 178.842 541.615 178.752C541.471 178.661 541.31 178.599 541.142 178.571C538.599 178.135 535.834 177.635 532.699 177.029C532.517 176.991 532.328 176.997 532.148 177.047ZM641.257 149.501C640.921 149.572 640.626 149.774 640.438 150.062C640.25 150.35 640.184 150.701 640.255 151.037C640.326 151.374 640.528 151.669 640.816 151.856C641.105 152.044 641.456 152.11 641.793 152.039C644.61 151.589 647.485 151.076 650.316 150.523C650.483 150.491 650.642 150.425 650.784 150.331C650.926 150.237 651.049 150.116 651.144 149.975C651.239 149.833 651.305 149.675 651.339 149.508C651.373 149.341 651.374 149.169 651.341 149.002C651.308 148.835 651.243 148.676 651.149 148.534C651.055 148.392 650.933 148.27 650.792 148.174C650.651 148.079 650.492 148.013 650.325 147.979C650.158 147.945 649.985 147.945 649.818 147.977C646.998 148.521 644.178 149.027 641.361 149.477L641.257 149.501ZM683.036 139.206L682.952 139.203C680.249 140.105 677.501 140.977 674.774 141.785C674.443 141.884 674.166 142.111 674.003 142.415C673.84 142.719 673.804 143.075 673.904 143.405C674.003 143.735 674.23 144.012 674.534 144.176C674.839 144.339 675.195 144.374 675.525 144.275C678.272 143.44 681.047 142.605 683.779 141.667C684.11 141.569 684.388 141.343 684.552 141.04C684.716 140.737 684.752 140.382 684.654 140.052C684.555 139.721 684.33 139.444 684.027 139.28C683.723 139.116 683.367 139.079 683.037 139.178L683.036 139.206ZM658.164 146.203C657.829 146.285 657.541 146.497 657.362 146.792C657.183 147.086 657.129 147.44 657.211 147.774C657.294 148.109 657.505 148.397 657.8 148.575C658.095 148.754 658.449 148.808 658.783 148.726C661.608 148.08 664.434 147.388 667.186 146.655C667.52 146.568 667.805 146.352 667.98 146.055C668.154 145.757 668.203 145.403 668.116 145.07C668.029 144.736 667.812 144.451 667.515 144.277C667.217 144.103 666.863 144.054 666.529 144.141C663.777 144.864 660.988 145.557 658.211 146.196L658.164 146.203ZM620.405 159.506C620.139 159.575 619.901 159.727 619.727 159.939C617.956 162.103 616.01 164.118 613.91 165.964C613.762 166.07 613.639 166.206 613.548 166.363C613.456 166.519 613.399 166.693 613.379 166.874C613.359 167.054 613.377 167.236 613.432 167.409C613.488 167.582 613.578 167.741 613.699 167.877C613.82 168.012 613.967 168.121 614.133 168.196C614.298 168.271 614.477 168.31 614.658 168.312C614.84 168.313 615.02 168.276 615.186 168.204C615.353 168.131 615.502 168.025 615.624 167.891C617.843 165.96 619.898 163.849 621.769 161.579C621.94 161.366 622.039 161.105 622.053 160.832C622.067 160.56 621.996 160.29 621.848 160.06C621.701 159.83 621.485 159.653 621.231 159.552C620.978 159.451 620.699 159.432 620.433 159.498L620.405 159.506ZM549.134 179.882C548.882 179.947 548.655 180.086 548.482 180.281C548.308 180.476 548.197 180.718 548.162 180.976C548.14 181.145 548.152 181.316 548.197 181.481C548.242 181.645 548.319 181.799 548.424 181.933C548.528 182.068 548.658 182.181 548.806 182.265C548.954 182.349 549.118 182.404 549.287 182.425L550.095 182.528C552.763 182.866 555.396 183.137 557.929 183.32C558.099 183.335 558.27 183.316 558.432 183.264C558.595 183.212 558.745 183.128 558.874 183.017C559.003 182.906 559.109 182.77 559.185 182.617C559.261 182.465 559.306 182.299 559.316 182.129C559.331 181.959 559.312 181.787 559.26 181.625C559.208 181.462 559.124 181.312 559.013 181.182C558.902 181.052 558.766 180.945 558.614 180.868C558.461 180.792 558.295 180.746 558.124 180.734C555.638 180.552 553.042 180.282 550.42 179.955L549.621 179.852C549.459 179.827 549.294 179.834 549.135 179.872L549.134 179.882ZM566.317 181.137C566.015 181.217 565.751 181.404 565.575 181.663C565.4 181.922 565.324 182.236 565.362 182.547C565.4 182.858 565.549 183.144 565.781 183.354C566.014 183.563 566.315 183.681 566.628 183.686C569.615 183.709 572.551 183.617 575.35 183.409C575.52 183.396 575.686 183.35 575.839 183.273C575.991 183.196 576.127 183.089 576.238 182.96C576.349 182.831 576.434 182.68 576.487 182.518C576.54 182.356 576.561 182.185 576.548 182.015C576.535 181.845 576.489 181.679 576.412 181.527C576.335 181.374 576.228 181.239 576.099 181.128C575.969 181.016 575.819 180.932 575.657 180.879C575.494 180.826 575.323 180.805 575.153 180.818C572.428 181.019 569.54 181.112 566.646 181.093C566.535 181.085 566.424 181.097 566.318 181.128L566.317 181.137ZM607.527 170.84C607.394 170.872 607.269 170.927 607.156 171.004C604.786 172.512 602.307 173.843 599.741 174.985C599.426 175.125 599.18 175.384 599.057 175.705C598.933 176.026 598.942 176.383 599.082 176.697C599.222 177.012 599.481 177.257 599.803 177.381C600.124 177.504 600.481 177.495 600.796 177.355C603.484 176.166 606.077 174.774 608.554 173.191C608.818 173.026 609.015 172.772 609.107 172.475C609.199 172.178 609.182 171.857 609.057 171.572C608.932 171.287 608.709 171.056 608.428 170.922C608.147 170.787 607.827 170.758 607.527 170.84ZM583.471 179.808C583.134 179.88 582.84 180.083 582.653 180.372C582.466 180.661 582.401 181.012 582.473 181.349C582.545 181.686 582.748 181.98 583.038 182.167C583.327 182.354 583.679 182.418 584.016 182.346C586.12 181.983 588.189 181.562 590.188 181.017C590.98 180.812 591.772 180.589 592.546 180.364C592.71 180.316 592.862 180.235 592.995 180.128C593.127 180.02 593.237 179.888 593.318 179.738C593.399 179.587 593.45 179.423 593.468 179.253C593.485 179.084 593.469 178.912 593.421 178.749C593.372 178.585 593.291 178.433 593.184 178.301C593.076 178.168 592.943 178.058 592.793 177.977C592.643 177.896 592.479 177.845 592.309 177.828C592.139 177.81 591.967 177.826 591.804 177.875C591.058 178.091 590.294 178.306 589.522 178.503C587.636 179.005 585.595 179.426 583.565 179.783L583.471 179.808Z" fill="#196E7E" fill-opacity="0.4" stroke="#176D7E" stroke-opacity="0.4" stroke-width="0.148566" stroke-miterlimit="10"/>
<g clip-path="url(#clip0_23_499)">
<path d="M1.39832 375.46C1.39832 374.535 2.15139 373.76 3.09811 373.76H3.93725V434.307H3.09811C2.17291 434.307 1.39832 433.554 1.39832 432.608V375.439V375.46Z" fill="#1C1C61"/>
<path d="M1.39832 298.582C1.39832 297.657 2.15139 296.882 3.09811 296.882H3.93725V357.429H3.09811C2.17291 357.429 1.39832 356.676 1.39832 355.73V298.561V298.582Z" fill="#1C1C61"/>
<path d="M-0.00012207 241.155C-0.00012207 240.23 0.752952 239.455 1.69967 239.455H3.95889V269.298H1.69967C0.774468 269.298 -0.00012207 268.545 -0.00012207 267.599V241.133V241.155Z" fill="#1C1C61"/>
<path d="M390.264 338.861H391.103C392.029 338.861 392.803 339.614 392.803 340.561V432.629C392.803 433.555 392.05 434.329 391.103 434.329H390.264V338.882V338.861Z" fill="#1C1C61"/>
<path d="M3.93762 239.734V269.449" stroke="black" stroke-width="0.250971"/>
<path d="M3.93762 297.183V357.3" stroke="black" stroke-width="0.250971"/>
<path d="M319.583 86H74.619C35.5827 86 3.93762 117.645 3.93762 156.681V813.319C3.93762 852.355 35.5827 884 74.619 884H319.583C358.619 884 390.264 852.355 390.264 813.319V156.681C390.264 117.645 358.619 86 319.583 86Z" fill="#1C1C61"/>
<path d="M315.646 95.5747H78.5564C42.6335 95.5747 13.5123 124.696 13.5123 160.619V809.381C13.5123 845.304 42.6335 874.425 78.5564 874.425H315.646C351.568 874.425 380.69 845.304 380.69 809.381V160.619C380.69 124.696 351.568 95.5747 315.646 95.5747Z" fill="#FBF5E2" stroke="black" stroke-width="10"/>
<path d="M209.039 483.293L191.043 472.295C190.74 472.11 190.393 472.009 190.038 472.002C189.682 471.995 189.332 472.083 189.022 472.257C188.712 472.431 188.454 472.684 188.274 472.99C188.095 473.297 188 473.646 188 474.001V495.999C188 496.354 188.095 496.703 188.275 497.01C188.454 497.316 188.712 497.569 189.022 497.743C189.332 497.916 189.683 498.005 190.038 497.998C190.393 497.991 190.74 497.89 191.043 497.705L209.039 486.707C209.331 486.528 209.573 486.278 209.741 485.979C209.908 485.68 209.996 485.343 209.996 485C209.996 484.658 209.908 484.321 209.741 484.022C209.573 483.723 209.331 483.472 209.039 483.293V483.293Z" fill="#353432"/>
<rect x="146" y="124" width="101" height="29" rx="14.5" fill="black"/>
<path d="M85.0327 879.632L90.67 879.783V884H85.0327V879.632Z" fill="black"/>
<path d="M386.047 169.914H390.264V175.551H386.047V169.914Z" fill="black"/>
<path d="M386.047 796.988H390.264V802.625H385.896L386.047 796.988Z" fill="black"/>
<path d="M239.047 90.2173C238.896 92.1107 237.326 93.5954 235.389 93.5954H158.791C156.854 93.5954 155.284 92.1107 155.133 90.2173H239.025H239.047Z" fill="black" stroke="#272727" stroke-width="0.501941"/>
<path d="M304.113 86H309.75V90.3678L304.113 90.0881V86Z" fill="black"/>
<path d="M3.93753 171.033H8.15475L8.00413 176.519L3.91602 176.67V171.033H3.93753Z" fill="black"/>
<path d="M3.93762 796.988H8.02574L8.17635 802.625H3.95914V796.988H3.93762Z" fill="black"/>
</g>
<defs>
<clipPath id="clip0_23_499">
<rect width="392.803" height="798" fill="white" transform="translate(0 86)"/>
</clipPath>
</defs>
</svg>
