<svg width="118" height="92" viewBox="0 0 118 92" fill="none" xmlns="http://www.w3.org/2000/svg">
<path fill-rule="evenodd" clip-rule="evenodd" d="M18.0481 2.23146C18.24 2.3147 18.4103 2.39505 18.551 2.47261C18.6578 2.53145 18.8638 2.64902 19.0224 2.83149C19.0946 2.91468 19.2981 3.16913 19.2905 3.55514C19.2812 4.02662 18.9793 4.30655 18.7893 4.42317C18.6194 4.5274 18.4554 4.56289 18.3784 4.57713C18.2851 4.59438 18.1966 4.60117 18.125 4.60412C17.6455 4.62381 16.742 4.49656 15.7614 4.33788C15.2833 4.26053 14.9398 3.85634 14.922 3.39051C14.5891 3.32622 14.2407 3.26879 13.8788 3.21836C13.3317 3.14212 12.9502 2.63698 13.0266 2.09007C13.103 1.54317 13.6085 1.16162 14.1556 1.23785C15.5966 1.43866 16.9535 1.75665 18.0481 2.23146ZM17.63 4.25081C17.6302 4.2508 17.6273 4.24872 17.6206 4.24457C17.6265 4.24874 17.6298 4.25081 17.63 4.25081ZM82.4359 34.006C81.9492 33.7449 81.7666 33.1388 82.0279 32.6522C82.2893 32.1657 82.8956 31.9829 83.3823 32.244C84.847 33.0299 86.2571 33.898 87.5977 34.8595C88.6201 35.5928 89.601 36.3458 90.5429 37.1186C90.9698 37.4688 91.0317 38.0988 90.6812 38.5257C90.3307 38.9526 89.7004 39.0147 89.2735 38.6644C88.3656 37.9195 87.4191 37.1929 86.4312 36.4844C85.167 35.5776 83.8312 34.7547 82.4359 34.006ZM74.279 28.4953C74.8061 28.6601 75.0996 29.221 74.9346 29.748C74.7695 30.275 74.2083 30.5686 73.6812 30.4037C70.6792 29.4649 67.558 28.7307 64.4049 28.1322C63.8622 28.0292 63.506 27.506 63.6092 26.9635C63.7124 26.421 64.236 26.0647 64.7786 26.1677C67.9866 26.7765 71.1856 27.5279 74.279 28.4953ZM9.83487 1.26936C10.3795 1.36129 10.7463 1.87721 10.6542 2.42169C10.562 2.96617 10.0458 3.33303 9.50118 3.2411C8.60468 3.08977 7.7859 2.96134 7.11535 2.87555C6.96915 2.98611 6.79083 3.05784 6.59462 3.074C5.75388 3.14325 4.95636 3.23955 4.23111 3.35831C4.60111 3.82245 5.113 4.40532 5.72539 5.06533C6.10095 5.47011 6.07707 6.10273 5.67202 6.47831C5.26696 6.85388 4.63413 6.8302 4.25857 6.42541C3.46015 5.5649 2.77101 4.77156 2.33041 4.16509C2.30068 4.12417 2.27096 4.08261 2.24153 4.04056L2.32617 4.62672C2.47844 5.68067 2.63112 6.73758 2.77902 7.79561C2.85545 8.34246 2.47394 8.84786 1.92687 8.92445C1.37981 9.00105 0.874351 8.61983 0.797916 8.07298C0.651081 7.02249 0.499649 5.97424 0.347885 4.9237L0.347202 4.91895L0.21208 3.98271C0.0751948 3.03254 0.0312946 2.25658 0.107488 1.64352C0.175602 1.09553 0.675197 0.706338 1.22335 0.774242C1.76917 0.841862 2.15735 1.33716 2.09343 1.88238C2.25226 1.74775 2.42617 1.67766 2.57377 1.6439C2.87173 1.57576 3.18462 1.51223 3.51 1.45349C3.49674 1.32163 3.50964 1.18496 3.55243 1.05063C3.72003 0.524422 4.28258 0.233519 4.80892 0.400891C5.40951 0.591868 6.01387 0.750924 6.62379 0.808005C7.45961 0.886223 8.60595 1.06193 9.83487 1.26936ZM94.4778 43.5694C94.1034 43.1635 94.1291 42.531 94.5353 42.1566C94.9414 41.7821 95.5741 41.8076 95.9485 42.2135C97.6453 44.0527 99.1845 45.9833 100.593 48.0066C100.908 48.4598 100.796 49.083 100.343 49.3984C99.8892 49.7139 99.2659 49.6022 98.9505 49.149C97.5922 47.1974 96.11 45.3386 94.4778 43.5694ZM55.1601 24.6876C55.7081 24.757 56.096 25.2572 56.0265 25.8051C55.957 26.3529 55.4564 26.7408 54.9084 26.6715C53.2904 26.4668 51.6903 26.2802 50.1194 26.1016C48.4923 25.9165 46.8887 25.7174 45.3066 25.4978C44.7595 25.4219 44.3777 24.9169 44.4539 24.37C44.53 23.8231 45.0352 23.4412 45.5823 23.5172C47.1453 23.7341 48.7324 23.9312 50.3462 24.1147C51.9204 24.2938 53.5299 24.4815 55.1601 24.6876ZM9.95971 12.079C9.55488 11.7034 9.53136 11.0708 9.90717 10.666C10.283 10.2612 10.9158 10.2375 11.3207 10.613C12.0162 11.2583 12.6467 11.8258 13.1559 12.2646C13.6843 12.7201 14.0329 12.9936 14.1865 13.0904C15.5497 13.9498 16.9186 14.7406 18.2957 15.4695C18.7838 15.7279 18.9698 16.3329 18.7112 16.821C18.4526 17.309 17.8472 17.4951 17.3591 17.2368C15.9377 16.4844 14.5251 15.6683 13.119 14.7819C12.8202 14.5936 12.3637 14.2225 11.8494 13.7793C11.316 13.3195 10.6664 12.7345 9.95971 12.079ZM36.1596 21.8574C36.6988 21.9768 37.039 22.5107 36.9193 23.0498C36.7997 23.5889 36.2655 23.9291 35.7263 23.8097C32.5251 23.1007 29.3995 22.2368 26.3292 21.1541C25.8084 20.9705 25.5352 20.3994 25.7191 19.8787C25.903 19.3579 26.4744 19.0847 26.9952 19.2683C29.9784 20.3203 33.025 21.1632 36.1596 21.8574ZM102.674 55.2756C102.415 54.7879 102.601 54.1826 103.088 53.9236C103.576 53.6645 104.182 53.8499 104.441 54.3376C105.578 56.4785 106.616 58.7066 107.58 61.0227C107.792 61.5325 107.551 62.1178 107.041 62.3301C106.531 62.5423 105.945 62.3012 105.733 61.7914C104.79 59.5253 103.778 57.3545 102.674 55.2756ZM1.75757 16.2347C1.71049 15.6845 2.11849 15.2002 2.66886 15.153C3.21923 15.1058 3.70356 15.5135 3.75063 16.0636C3.86873 17.4437 3.95932 18.8348 4.01224 20.239C4.03303 20.7908 3.60241 21.2551 3.05042 21.2761C2.49844 21.2971 2.03409 20.8667 2.01331 20.3149C1.96173 18.9467 1.87334 17.5877 1.75757 16.2347ZM108.271 68.5566C108.093 68.0339 108.373 67.4659 108.896 67.2881C109.419 67.1103 109.987 67.39 110.165 67.9127C110.932 70.1704 111.659 72.5029 112.362 74.911C112.516 75.441 112.212 75.9963 111.682 76.1511C111.152 76.306 110.596 76.0019 110.441 75.4718C109.745 73.0855 109.027 70.7813 108.271 68.5566ZM112.381 82.4768C112.239 81.943 112.558 81.3957 113.092 81.2543C113.626 81.1129 114.173 81.431 114.314 81.9648C114.622 83.1283 114.929 84.3081 115.236 85.5041C115.246 85.5398 115.253 85.5755 115.258 85.6112C115.441 85.6509 115.623 85.709 115.802 85.7865C117.273 86.4247 117.948 88.1341 117.309 89.6045C116.671 91.0749 114.96 91.7496 113.489 91.1113C112.018 90.4731 111.342 88.7637 111.981 87.2932C112.252 86.6702 112.715 86.19 113.271 85.8921C112.974 84.7374 112.678 83.5991 112.381 82.4768Z" fill="#26AA9D"/>
</svg>
