<svg width="12" height="59" viewBox="0 0 12 59" fill="none" xmlns="http://www.w3.org/2000/svg">
<path d="M5 58L5 59L7 59L7 58L5 58ZM6 0L0.226499 10L11.7735 10L6 0ZM7 56.0667L7 55.0667L5 55.0667L5 56.0667L7 56.0667ZM5 48.3333L5 49.3333L7 49.3333L7 48.3333L5 48.3333ZM7 44.4667L7 43.4667L5 43.4667L5 44.4667L7 44.4667ZM5 36.7333L5 37.7333L7 37.7333L7 36.7333L5 36.7333ZM7 32.8667L7 31.8667L5 31.8667L5 32.8667L7 32.8667ZM5 25.1333L5 26.1333L7 26.1333L7 25.1333L5 25.1333ZM7 21.2667L7 20.2667L5 20.2667L5 21.2667L7 21.2667ZM5 13.5333L5 14.5333L7 14.5333L7 13.5333L5 13.5333ZM7 9.66667L7 8.66667L5 8.66667L5 9.66667L7 9.66667ZM5 1.93334L5 2.93334L7 2.93334L7 1.93334L5 1.93334ZM7 58L7 56.0667L5 56.0667L5 58L7 58ZM7 48.3333L7 44.4667L5 44.4667L5 48.3333L7 48.3333ZM7 36.7333L7 32.8667L5 32.8667L5 36.7333L7 36.7333ZM7 25.1333L7 21.2667L5 21.2667L5 25.1333L7 25.1333ZM7 13.5333L7 9.66667L5 9.66667L5 13.5333L7 13.5333Z" fill="url(#paint0_linear_666_13011)"/>
<defs>
<linearGradient id="paint0_linear_666_13011" x1="6.99996" y1="-1" x2="6.99995" y2="59" gradientUnits="userSpaceOnUse">
<stop offset="0.0364583" stop-color="#26AA9D"/>
<stop offset="1" stop-opacity="0.15"/>
</linearGradient>
</defs>
</svg>
