<svg width="59" height="12" viewBox="0 0 59 12" fill="none" xmlns="http://www.w3.org/2000/svg">
<path d="M1 5H0V7H1V5ZM59 6L49 0.226497V11.7735L59 6ZM2.93333 7H3.93333V5H2.93333V7ZM10.6667 5H9.66667V7H10.6667V5ZM14.5333 7H15.5333V5H14.5333V7ZM22.2667 5H21.2667V7H22.2667V5ZM26.1333 7H27.1333V5H26.1333V7ZM33.8667 5H32.8667V7H33.8667V5ZM37.7333 7H38.7333V5H37.7333V7ZM45.4667 5H44.4667V7H45.4667V5ZM49.3333 7H50.3333V5H49.3333V7ZM57.0667 5H56.0667V7H57.0667V5ZM1 7H2.93333V5H1V7ZM10.6667 7H14.5333V5H10.6667V7ZM22.2667 7H26.1333V5H22.2667V7ZM33.8667 7H37.7333V5H33.8667V7ZM45.4667 7H49.3333V5H45.4667V7Z" fill="url(#paint0_linear_666_13082)"/>
<defs>
<linearGradient id="paint0_linear_666_13082" x1="60" y1="6.99995" x2="9.249e-07" y2="6.99995" gradientUnits="userSpaceOnUse">
<stop offset="0.0364583" stop-color="#26AA9D"/>
<stop offset="1" stop-opacity="0.15"/>
</linearGradient>
</defs>
</svg>
