<svg width="201" height="409" viewBox="0 0 201 409" fill="none" xmlns="http://www.w3.org/2000/svg">
<g clip-path="url(#clip0_1086_3814)">
<path d="M0.71228 148.687C0.71228 148.214 1.09612 147.818 1.57867 147.818H2.00638V178.755H1.57867C1.10709 178.755 0.71228 178.37 0.71228 177.887V148.676V148.687Z" fill="#1C1C61"/>
<path d="M0.71228 109.406C0.71228 108.933 1.09612 108.538 1.57867 108.538H2.00638V139.474H1.57867C1.10709 139.474 0.71228 139.089 0.71228 138.606V109.395V109.406Z" fill="#1C1C61"/>
<path d="M0 80.0638C0 79.591 0.383842 79.1953 0.866387 79.1953H2.01791V94.4437H0.866387C0.394809 94.4437 0 94.0589 0 93.5751V80.0528V80.0638Z" fill="#1C1C61"/>
<path d="M198.919 129.987H199.346C199.818 129.987 200.213 130.371 200.213 130.855V177.898C200.213 178.37 199.829 178.766 199.346 178.766H198.919V129.998V129.987Z" fill="#1C1C61"/>
<path d="M2.00696 79.3381V94.5205" stroke="black" stroke-width="0.250971"/>
<path d="M2.00696 108.691V139.408" stroke="black" stroke-width="0.250971"/>
<path d="M162.892 0.787415H38.0333C18.1365 0.787415 2.00696 16.9565 2.00696 36.902V372.411C2.00696 392.356 18.1365 408.525 38.0333 408.525H162.892C182.789 408.525 198.918 392.356 198.918 372.411V36.902C198.918 16.9565 182.789 0.787415 162.892 0.787415Z" fill="#1C1C61"/>
<path d="M160.885 5.67963H40.0406C21.7307 5.67963 6.88757 20.5591 6.88757 38.9139V370.399C6.88757 388.754 21.7307 403.633 40.0406 403.633H160.885C179.195 403.633 194.038 388.754 194.038 370.399V38.9139C194.038 20.5591 179.195 5.67963 160.885 5.67963Z" fill="#FBF5E2" stroke="black" stroke-width="10.0967"/>
<rect x="74.4159" y="20.2036" width="51.4798" height="14.8175" rx="7.40877" fill="black"/>
<path d="M43.3409 406.294L46.2143 406.371V408.526H43.3409V406.294Z" fill="black"/>
<path d="M196.769 43.6632H198.919V46.5436H196.769V43.6632Z" fill="black"/>
<path d="M196.768 364.066H198.918V366.947H196.692L196.768 364.066Z" fill="black"/>
<path d="M121.843 2.94214C121.766 3.90959 120.965 4.66817 119.978 4.66817H80.9359C79.9489 4.66817 79.1483 3.90959 79.0715 2.94214H121.832H121.843Z" fill="black" stroke="#272727" stroke-width="0.501941"/>
<path d="M155.006 0.787415H157.879V3.01916L155.006 2.87624V0.787415Z" fill="black"/>
<path d="M2.00743 44.2349H4.15694L4.08018 47.0383L1.99646 47.1152V44.2349H2.00743Z" fill="black"/>
<path d="M2.00696 364.066H4.09067L4.16744 366.947H2.01792V364.066H2.00696Z" fill="black"/>
</g>
<defs>
<clipPath id="clip0_1086_3814">
<rect width="200.212" height="407.738" fill="white" transform="translate(0 0.787415)"/>
</clipPath>
</defs>
</svg>
