<svg width="304" height="617" viewBox="0 0 304 617" fill="none" xmlns="http://www.w3.org/2000/svg">
<g clip-path="url(#clip0_1387_20633)">
<path d="M1.08203 223.806C1.08203 223.09 1.66485 222.491 2.39754 222.491H3.04697V269.305H2.39754C1.68151 269.305 1.08203 268.723 1.08203 267.991V223.789V223.806Z" fill="#1C1C61"/>
<path d="M1.08203 164.365C1.08203 163.649 1.66485 163.051 2.39754 163.051H3.04697V209.865H2.39754C1.68151 209.865 1.08203 209.282 1.08203 208.55V164.348V164.365Z" fill="#1C1C61"/>
<path d="M0 119.963C0 119.248 0.582822 118.649 1.31551 118.649H3.06398V141.723H1.31551C0.599474 141.723 0 141.141 0 140.409V119.946V119.963Z" fill="#1C1C61"/>
<path d="M302.035 195.508H302.685C303.401 195.508 304 196.09 304 196.822V268.008C304 268.723 303.417 269.322 302.685 269.322H302.035V195.524V195.508Z" fill="#1C1C61"/>
<path d="M3.04883 118.865V141.839" stroke="black" stroke-width="0.156306"/>
<path d="M3.04883 163.283V209.764" stroke="black" stroke-width="0.156306"/>
<path d="M247.335 0H57.7508C27.5398 0 3.04883 24.4675 3.04883 54.6496V562.35C3.04883 592.533 27.5398 617 57.7508 617H247.335C277.546 617 302.037 592.533 302.037 562.35V54.6496C302.037 24.4675 277.546 0 247.335 0Z" fill="#1C1C61"/>
<path d="M244.287 7.40302H60.7982C32.9966 7.40302 10.459 29.919 10.459 57.694V559.306C10.459 587.081 32.9966 609.597 60.7982 609.597H244.287C272.089 609.597 294.626 587.081 294.626 559.306V57.694C294.626 29.919 272.089 7.40302 244.287 7.40302Z" fill="#FBF5E2" stroke="black" stroke-width="6.28832"/>
<rect x="112.994" y="29.3812" width="78.1664" height="22.4223" rx="11.2112" fill="black"/>
<path d="M65.8105 613.623L70.1734 613.739V617H65.8105V613.623Z" fill="black"/>
<path d="M298.771 64.8809H302.035V69.2396H298.771V64.8809Z" fill="black"/>
<path d="M298.773 549.723H302.037V554.082H298.656L298.773 549.723Z" fill="black"/>
<path d="M185.006 3.26053C184.889 4.72451 183.673 5.8724 182.175 5.8724H122.893C121.395 5.8724 120.179 4.72451 120.062 3.26053H184.989H185.006Z" fill="black" stroke="#272727" stroke-width="0.312613"/>
<path d="M235.359 0H239.722V3.37713L235.359 3.16086V0Z" fill="black"/>
<path d="M3.0479 65.7458H6.31171L6.19514 69.988L3.03125 70.1044V65.7458H3.0479Z" fill="black"/>
<path d="M3.04883 549.723H6.21272L6.32928 554.082H3.06548V549.723H3.04883Z" fill="black"/>
</g>
<defs>
<clipPath id="clip0_1387_20633">
<rect width="304" height="617" fill="white"/>
</clipPath>
</defs>
</svg>
