<svg width="12" height="31" viewBox="0 0 12 31" fill="none" xmlns="http://www.w3.org/2000/svg">
<path d="M6 31L11.7735 21L0.226498 21L6 31ZM7 1L7 1.95106e-06L5 1.86364e-06L5 1L7 1ZM7 28.5L7 27.5L5 27.5L5 28.5L7 28.5ZM5 18.5L5 19.5L7 19.5L7 18.5L5 18.5ZM7 13.5L7 12.5L5 12.5L5 13.5L7 13.5ZM5 3.5L5 4.5L7 4.5L7 3.5L5 3.5ZM7 18.5L7 13.5L5 13.5L5 18.5L7 18.5ZM7 3.5L7 1L5 1L5 3.5L7 3.5Z" fill="url(#paint0_linear_1183_10505)"/>
<defs>
<linearGradient id="paint0_linear_1183_10505" x1="6.99996" y1="0.482757" x2="6.99995" y2="31.5172" gradientUnits="userSpaceOnUse">
<stop offset="0.0364583" stop-color="#26AA9D"/>
<stop offset="1" stop-opacity="0.15"/>
</linearGradient>
</defs>
</svg>
