<svg width="47" height="12" viewBox="0 0 47 12" fill="none" xmlns="http://www.w3.org/2000/svg">
<path d="M0 6L10 11.7735V0.226497L0 6ZM46 7H47V5H46V7ZM1.91667 7H2.91667V5H1.91667V7ZM9.58333 5L8.58333 5V7H9.58333V5ZM13.4167 7H14.4167V5H13.4167V7ZM21.0833 5H20.0833V7L21.0833 7V5ZM24.9167 7H25.9167V5H24.9167V7ZM32.5833 5H31.5833V7H32.5833V5ZM36.4167 7L37.4167 7V5H36.4167V7ZM44.0833 5H43.0833V7H44.0833V5ZM9.58333 7H13.4167V5H9.58333V7ZM21.0833 7H24.9167V5H21.0833V7ZM32.5833 7H36.4167V5H32.5833V7ZM44.0833 7H46V5H44.0833V7Z" fill="url(#paint0_linear_1387_20577)"/>
<defs>
<linearGradient id="paint0_linear_1387_20577" x1="46.7931" y1="6.99995" x2="-0.793103" y2="6.99995" gradientUnits="userSpaceOnUse">
<stop stop-opacity="0.15"/>
<stop offset="0.375" stop-color="#26AA9D"/>
<stop offset="1" stop-color="#26AA9D"/>
</linearGradient>
</defs>
</svg>
