<svg width="12" height="112" viewBox="0 0 12 112" fill="none" xmlns="http://www.w3.org/2000/svg">
<path d="M7 1L7 -4.37114e-08L5 4.37114e-08L5 1L7 1ZM6 112L11.7735 102L0.226502 102L6 112ZM5 3.05556L5 4.05556L7 4.05556L7 3.05556L5 3.05556ZM7 11.2778L7 10.2778L5 10.2778L5 11.2778L7 11.2778ZM5 15.3889L5 16.3889L7 16.3889L7 15.3889L5 15.3889ZM7 23.6111L7 22.6111L5 22.6111L5 23.6111L7 23.6111ZM5 27.7222L5 28.7222L7 28.7222L7 27.7222L5 27.7222ZM7 35.9444L7 34.9444L5 34.9444L5 35.9444L7 35.9444ZM5 40.0556L5 41.0556L7 41.0556L7 40.0556L5 40.0556ZM7 48.2778L7 47.2778L5 47.2778L5 48.2778L7 48.2778ZM5 52.3889L5 53.3889L7 53.3889L7 52.3889L5 52.3889ZM7 60.6111L7 59.6111L5 59.6111L5 60.6111L7 60.6111ZM5 64.7222L5 65.7222L7 65.7222L7 64.7222L5 64.7222ZM7 72.9444L7 71.9444L5 71.9444L5 72.9444L7 72.9444ZM5 77.0556L5 78.0556L7 78.0556L7 77.0556L5 77.0556ZM7 85.2778L7 84.2778L5 84.2778L5 85.2778L7 85.2778ZM5 89.3889L5 90.3889L7 90.3889L7 89.3889L5 89.3889ZM7 97.6111L7 96.6111L5 96.6111L5 97.6111L7 97.6111ZM5 101.722L5 102.722L7 102.722L7 101.722L5 101.722ZM7 109.944L7 108.944L5 108.944L5 109.944L7 109.944ZM5 1L5 3.05556L7 3.05556L7 1L5 1ZM5 11.2778L5 15.3889L7 15.3889L7 11.2778L5 11.2778ZM5 23.6111L5 27.7222L7 27.7222L7 23.6111L5 23.6111ZM5 35.9444L5 40.0556L7 40.0556L7 35.9444L5 35.9444ZM5 48.2778L5 52.3889L7 52.3889L7 48.2778L5 48.2778ZM5 60.6111L5 64.7222L7 64.7222L7 60.6111L5 60.6111ZM5 72.9444L5 77.0556L7 77.0556L7 72.9444L5 72.9444ZM5 85.2778L5 89.3889L7 89.3889L7 85.2778L5 85.2778ZM5 97.6111L5 101.722L7 101.722L7 97.6111L5 97.6111Z" fill="url(#paint0_linear_666_13079)"/>
<defs>
<linearGradient id="paint0_linear_666_13079" x1="5.00005" y1="113" x2="5.00005" y2="-3.81041e-07" gradientUnits="userSpaceOnUse">
<stop offset="0.0364583" stop-color="#26AA9D"/>
<stop offset="1" stop-opacity="0.15"/>
</linearGradient>
</defs>
</svg>
