<svg width="479" height="216" viewBox="0 0 479 216" fill="none" xmlns="http://www.w3.org/2000/svg">
<path d="M334.899 16.4679C337.396 14.2844 340.425 12.7945 343.681 12.1477C346.938 11.5009 350.308 11.72 353.453 12.7829L418.735 34.8541C420.962 35.6086 423.348 35.7702 425.657 35.3232C427.966 34.8761 430.118 33.8357 431.9 32.3049L451.832 15.2067C456.797 10.9444 462.664 7.85658 468.993 6.17381L473.102 5.08321C473.843 4.88362 474.625 4.89564 475.36 5.11791C476.094 5.34018 476.751 5.76376 477.256 6.3404C477.761 6.91704 478.093 7.62354 478.215 8.37945C478.338 9.13536 478.245 9.91029 477.947 10.6159L476.324 14.537C473.818 20.5748 469.98 25.9711 465.096 30.3248L445.465 47.7924C443.711 49.3552 442.395 51.3473 441.648 53.5722C440.9 55.7971 440.747 58.178 441.203 60.4802L454.565 127.933C455.21 131.184 454.986 134.546 453.916 137.682C452.846 140.818 450.968 143.618 448.47 145.801C441.948 117.065 426.613 87.4582 419.908 75.3651C419.693 74.9793 419.394 74.6466 419.033 74.3918C418.672 74.137 418.258 73.9666 417.822 73.8933C417.386 73.8199 416.939 73.8455 416.514 73.9681C416.089 74.0907 415.698 74.3072 415.368 74.6015L417.927 79.6982C418.531 80.8946 418.659 82.2746 418.286 83.5614C417.913 84.8481 417.066 85.9465 415.915 86.636L409.493 90.4768C408.625 90.9969 407.608 91.2145 406.603 91.0954C405.555 90.9716 404.497 91.2137 403.607 91.7804L401.341 93.2211L403.231 90.8764C403.819 90.148 404.167 89.2559 404.227 88.3225L404.332 86.7471L404.546 84.223L400.389 87.926C397.717 90.3042 394.754 92.335 391.57 93.9699L375.55 102.19L382.733 120.955C383.476 122.907 383.537 125.053 382.904 127.044C382.271 129.035 380.982 130.754 379.247 131.922L373.845 135.56L363.528 108.371L359.066 110.657C358.909 110.74 358.729 110.767 358.555 110.735C358.381 110.703 358.223 110.613 358.106 110.481C357.989 110.348 357.92 110.18 357.911 110.003C357.901 109.827 357.951 109.653 358.053 109.508L360.915 105.396L335.268 91.6223L339.629 86.7184C341.01 85.1648 342.875 84.1198 344.924 83.7516C346.973 83.3833 349.086 83.7132 350.925 84.6881L368.77 94.1474L378.914 79.5456C380.956 76.6105 383.363 73.9461 386.077 71.6162L390.306 67.9899L387.769 67.8707L386.19 67.765C385.254 67.7022 384.322 67.9296 383.522 68.4162L380.941 69.9736L382.667 67.9199C383.346 67.1142 383.723 66.0991 383.737 65.047C383.751 64.037 384.101 63.0604 384.732 62.2704L389.416 56.4174C390.253 55.3695 391.455 54.6761 392.783 54.4763C394.111 54.2766 395.465 54.5854 396.575 55.3406L401.299 58.5559C401.635 58.2695 401.903 57.911 402.081 57.5071C402.259 57.1032 402.343 56.6644 402.328 56.2234C402.312 55.7824 402.197 55.3506 401.99 54.9603C401.784 54.57 401.492 54.2312 401.136 53.9692C389.99 45.7546 362.594 26.6945 334.899 16.4679Z" fill="#1DA99D" fill-opacity="0.2"/>
<path d="M207.915 100.679C207.143 100.875 206.359 101.109 205.603 101.371C205.278 101.486 205.011 101.726 204.862 102.037C204.713 102.348 204.693 102.705 204.806 103.031C204.862 103.193 204.95 103.342 205.064 103.47C205.178 103.598 205.317 103.702 205.471 103.776C205.626 103.85 205.793 103.892 205.964 103.901C206.136 103.91 206.307 103.885 206.468 103.828C209.045 102.922 211.752 102.438 214.484 102.396C214.654 102.395 214.823 102.36 214.98 102.294C215.137 102.228 215.279 102.131 215.399 102.01C215.519 101.888 215.613 101.744 215.677 101.587C215.741 101.429 215.774 101.26 215.772 101.089C215.771 100.919 215.736 100.751 215.67 100.594C215.603 100.437 215.507 100.295 215.385 100.175C215.264 100.055 215.12 99.961 214.962 99.8969C214.804 99.8329 214.635 99.8007 214.464 99.8019C212.254 99.8252 210.054 100.12 207.915 100.679ZM198.113 105.34C197.953 105.38 197.801 105.451 197.667 105.548C195.228 107.302 193.082 109.429 191.308 111.852C191.208 111.99 191.136 112.147 191.096 112.312C191.057 112.478 191.05 112.65 191.077 112.818C191.104 112.986 191.164 113.147 191.254 113.292C191.343 113.437 191.46 113.563 191.598 113.663C191.736 113.763 191.892 113.835 192.058 113.874C192.224 113.914 192.396 113.92 192.564 113.893C192.733 113.866 192.894 113.807 193.039 113.717C193.184 113.628 193.31 113.511 193.41 113.373C195.032 111.16 196.992 109.215 199.218 107.609C199.36 107.507 199.48 107.377 199.571 107.228C199.662 107.079 199.722 106.913 199.749 106.74C199.775 106.567 199.766 106.391 199.723 106.221C199.68 106.052 199.604 105.893 199.499 105.753C199.335 105.555 199.116 105.409 198.869 105.336C198.622 105.262 198.359 105.264 198.113 105.34ZM222.533 101.349C222.331 101.403 222.145 101.504 221.991 101.645C221.836 101.785 221.718 101.961 221.645 102.157C221.584 102.316 221.555 102.486 221.561 102.657C221.566 102.828 221.605 102.996 221.676 103.151C221.747 103.306 221.848 103.446 221.974 103.562C222.099 103.678 222.247 103.768 222.407 103.826C224.973 104.78 227.376 106.124 229.53 107.812C229.664 107.917 229.818 107.995 229.982 108.041C230.146 108.087 230.318 108.1 230.487 108.079C230.657 108.059 230.82 108.005 230.969 107.922C231.118 107.838 231.249 107.726 231.354 107.592C231.459 107.458 231.537 107.305 231.583 107.14C231.629 106.976 231.642 106.805 231.622 106.635C231.601 106.466 231.548 106.303 231.464 106.154C231.38 106.006 231.268 105.875 231.134 105.77C228.772 103.904 226.135 102.416 223.317 101.358C223.076 101.29 222.822 101.287 222.579 101.35L222.533 101.349ZM188.285 119.106C188.058 119.155 187.848 119.264 187.678 119.422C187.508 119.58 187.384 119.782 187.32 120.004C186.648 122.585 186.47 125.269 186.795 127.916C186.846 128.31 186.898 128.694 186.968 129.079C186.997 129.247 187.059 129.408 187.15 129.553C187.242 129.697 187.36 129.822 187.5 129.921C187.639 130.019 187.797 130.089 187.964 130.127C188.13 130.165 188.303 130.169 188.471 130.14C188.64 130.111 188.801 130.05 188.945 129.958C189.09 129.867 189.215 129.749 189.313 129.609C189.412 129.47 189.482 129.312 189.52 129.146C189.558 128.979 189.562 128.807 189.533 128.639L189.374 127.597C189.091 125.274 189.248 122.919 189.836 120.654C189.879 120.489 189.889 120.317 189.866 120.148C189.842 119.979 189.785 119.816 189.698 119.669C189.612 119.522 189.497 119.394 189.36 119.291C189.224 119.189 189.068 119.114 188.903 119.072C188.712 119.037 188.517 119.05 188.332 119.108L188.285 119.106ZM235.963 111.754C235.804 111.798 235.653 111.869 235.517 111.962C235.375 112.064 235.255 112.194 235.164 112.344C235.073 112.493 235.013 112.66 234.987 112.833C234.962 113.006 234.972 113.182 235.016 113.352C235.06 113.521 235.138 113.68 235.245 113.818C236.888 116.051 238.259 118.471 239.33 121.027C239.482 121.319 239.738 121.543 240.047 121.654C240.357 121.766 240.697 121.756 241 121.628C241.303 121.5 241.546 121.262 241.682 120.962C241.817 120.663 241.834 120.323 241.729 120.011C240.574 117.27 239.099 114.675 237.336 112.279C237.19 112.072 236.987 111.912 236.751 111.819C236.515 111.726 236.258 111.704 236.01 111.756L235.963 111.754ZM42.699 172.204C42.3642 172.286 42.0758 172.497 41.8972 172.792C41.7186 173.087 41.6644 173.44 41.7466 173.774C41.8288 174.109 42.0407 174.397 42.3355 174.576C42.6303 174.754 42.984 174.808 43.3188 174.726C45.9552 174.111 48.7665 173.567 51.6757 173.158C52.0151 173.102 52.3192 172.916 52.5228 172.639C52.7264 172.362 52.8133 172.016 52.7649 171.676C52.7396 171.507 52.6811 171.344 52.5927 171.198C52.5043 171.052 52.3878 170.924 52.2499 170.823C52.1121 170.722 51.9556 170.649 51.7894 170.609C51.6232 170.568 51.4507 170.561 51.2817 170.587C48.3052 171.05 45.4283 171.601 42.726 172.233L42.699 172.204ZM34.4078 174.549L34.3239 174.546C31.5507 175.476 28.8337 176.566 26.1866 177.81C25.8941 177.971 25.6739 178.236 25.5712 178.554C25.4686 178.871 25.4912 179.215 25.6346 179.516C25.7779 179.817 26.031 180.052 26.342 180.172C26.6531 180.293 26.9984 180.29 27.3073 180.164C29.8581 178.961 32.4772 177.908 35.1511 177.01C35.4776 176.898 35.7466 176.662 35.8993 176.353C36.052 176.044 36.0761 175.687 35.9663 175.36C35.8576 175.053 35.6363 174.798 35.347 174.647C35.0577 174.497 34.7221 174.462 34.4078 174.549ZM59.705 169.516C59.5372 169.545 59.3768 169.608 59.2331 169.699C59.0893 169.791 58.965 169.91 58.8673 170.049C58.7696 170.189 58.7003 170.346 58.6634 170.512C58.6265 170.678 58.6228 170.85 58.6524 171.018C58.6819 171.186 58.7443 171.346 58.8358 171.489C58.9274 171.633 59.0464 171.757 59.186 171.855C59.3256 171.953 59.483 172.022 59.6494 172.059C59.8158 172.095 59.9877 172.099 60.1556 172.07C61.6267 171.926 63.1531 171.803 64.7071 171.691C66.0174 171.607 67.3556 171.524 68.6935 171.45C69.0192 171.407 69.3164 171.242 69.526 170.989C69.7356 170.736 69.8421 170.414 69.8243 170.086C69.8065 169.758 69.6658 169.449 69.4301 169.22C69.1944 168.991 68.8811 168.86 68.5526 168.851C67.2054 168.925 65.8485 169.007 64.5192 169.1C62.9559 169.212 61.4012 169.343 59.9021 169.486C59.8358 169.491 59.7699 169.501 59.705 169.516ZM191.02 135.652C190.902 135.685 190.788 135.731 190.679 135.789C190.384 135.967 190.172 136.254 190.086 136.588C190.001 136.922 190.05 137.275 190.223 137.573C191.773 140.147 193.691 142.482 195.915 144.503C196.174 144.712 196.503 144.815 196.836 144.791C197.168 144.766 197.478 144.615 197.703 144.369C197.927 144.123 198.05 143.801 198.044 143.468C198.039 143.135 197.906 142.817 197.674 142.578C195.633 140.736 193.878 138.602 192.465 136.244C192.32 136.003 192.101 135.815 191.841 135.709C191.581 135.602 191.293 135.582 191.02 135.652ZM18.9051 181.955C18.7684 181.995 18.6376 182.053 18.5162 182.128C17.2919 182.942 16.0851 183.795 14.9328 184.687C13.7805 185.579 12.6446 186.537 11.5626 187.552C11.4319 187.668 11.3261 187.809 11.2516 187.967C11.1771 188.124 11.1355 188.296 11.1293 188.47C11.1231 188.644 11.1524 188.818 11.2155 188.981C11.2785 189.143 11.3741 189.291 11.4962 189.416C11.6134 189.544 11.7549 189.648 11.9127 189.721C12.0704 189.794 12.2411 189.835 12.4148 189.841C12.5885 189.847 12.7617 189.818 12.9242 189.757C13.0867 189.695 13.2354 189.602 13.3614 189.482C14.3781 188.535 15.4416 187.639 16.5477 186.797C17.6424 185.95 18.8013 185.133 19.9772 184.363C20.2334 184.192 20.4209 183.936 20.5066 183.64C20.5923 183.345 20.5707 183.028 20.4455 182.747C20.3204 182.466 20.0997 182.238 19.8226 182.103C19.5455 181.969 19.2298 181.936 18.9311 182.012L18.9051 181.955ZM76.909 168.608C76.5934 168.679 76.3158 168.866 76.1309 169.131C75.9459 169.396 75.8668 169.721 75.9092 170.042C75.9516 170.362 76.1123 170.655 76.3599 170.864C76.6075 171.072 76.924 171.18 77.2474 171.167C80.0501 171.127 82.9723 171.138 85.8176 171.211C86.1446 171.195 86.4537 171.057 86.6837 170.824C86.9136 170.591 87.0477 170.281 87.0593 169.954C87.0709 169.627 86.9593 169.307 86.7465 169.059C86.5338 168.81 86.2353 168.651 85.9102 168.611C83.0379 168.509 80.124 168.527 77.2467 168.564C77.1329 168.566 77.0196 168.581 76.909 168.608ZM242.715 127.463C242.391 127.538 242.109 127.733 241.925 128.01C241.742 128.286 241.671 128.622 241.728 128.949C242.208 131.676 242.366 134.45 242.199 137.213C242.18 137.558 242.297 137.896 242.526 138.154C242.754 138.412 243.076 138.569 243.42 138.591C243.591 138.603 243.762 138.582 243.924 138.527C244.085 138.473 244.235 138.387 244.363 138.274C244.491 138.162 244.596 138.025 244.671 137.871C244.746 137.718 244.789 137.551 244.799 137.381C244.979 134.41 244.807 131.429 244.284 128.499C244.256 128.331 244.194 128.17 244.103 128.025C244.012 127.881 243.893 127.756 243.753 127.659C243.613 127.561 243.455 127.492 243.288 127.455C243.121 127.419 242.949 127.416 242.781 127.447C242.749 127.448 242.717 127.454 242.687 127.462L242.715 127.463ZM94.1315 169.016C93.8269 169.088 93.5587 169.268 93.3765 169.523C93.1943 169.777 93.1104 170.089 93.1403 170.401C93.1702 170.712 93.3118 171.002 93.539 171.217C93.7663 171.433 94.0638 171.559 94.3766 171.572C97.2183 171.748 100.095 171.981 102.914 172.268C103.09 172.295 103.27 172.287 103.442 172.242C103.615 172.198 103.776 172.119 103.917 172.01C104.057 171.901 104.174 171.764 104.26 171.608C104.346 171.453 104.399 171.281 104.417 171.104C104.434 170.927 104.414 170.748 104.36 170.579C104.306 170.41 104.217 170.253 104.1 170.119C103.983 169.985 103.839 169.877 103.679 169.8C103.518 169.723 103.343 169.68 103.165 169.674C100.318 169.395 97.4132 169.161 94.5342 168.984C94.3991 168.97 94.2627 168.981 94.1315 169.016ZM6.41491 193.657C6.12858 193.737 5.87638 193.908 5.69723 194.145C3.93977 196.514 2.39696 199.035 1.08701 201.678C1.00977 201.971 1.03726 202.282 1.16474 202.558C1.29223 202.833 1.51173 203.056 1.78555 203.187C2.05936 203.318 2.37035 203.35 2.66509 203.277C2.95982 203.204 3.21988 203.03 3.40053 202.786C4.63526 200.282 6.09547 197.895 7.76306 195.655C7.86545 195.518 7.93965 195.362 7.98144 195.196C8.02323 195.031 8.03181 194.858 8.00658 194.689C7.98136 194.52 7.92287 194.357 7.83451 194.211C7.74615 194.064 7.62966 193.937 7.49174 193.836C7.3321 193.726 7.15028 193.654 6.95933 193.623C6.76837 193.592 6.57297 193.603 6.38696 193.656L6.41491 193.657ZM111.27 170.727C110.98 170.805 110.725 170.98 110.549 171.223C110.373 171.466 110.286 171.762 110.303 172.061C110.319 172.361 110.439 172.646 110.641 172.868C110.843 173.09 111.116 173.235 111.413 173.28C112.463 173.42 113.512 173.578 114.562 173.737C116.271 173.994 118.007 174.28 119.881 174.608C120.221 174.667 120.57 174.589 120.852 174.39C121.134 174.192 121.326 173.89 121.385 173.551C121.444 173.211 121.366 172.863 121.168 172.581C120.969 172.299 120.667 172.107 120.327 172.048C118.471 171.721 116.68 171.433 114.952 171.167C113.893 171.008 112.835 170.849 111.775 170.708C111.607 170.681 111.436 170.688 111.27 170.727ZM203.521 147.237C203.27 147.305 203.044 147.447 202.874 147.645C202.704 147.842 202.596 148.086 202.566 148.345C202.536 148.604 202.584 148.866 202.704 149.097C202.824 149.328 203.01 149.519 203.239 149.643C204.791 150.474 206.401 151.192 208.056 151.793C209.171 152.196 210.335 152.564 211.52 152.849C211.843 152.91 212.178 152.847 212.457 152.673C212.736 152.498 212.939 152.224 213.025 151.906C213.111 151.588 213.073 151.25 212.92 150.959C212.766 150.667 212.508 150.445 212.198 150.335C211.088 150.035 209.989 149.688 208.939 149.286C207.401 148.718 205.905 148.041 204.464 147.261C204.163 147.138 203.828 147.129 203.521 147.237ZM357.882 109.174C357.743 109.21 357.612 109.269 357.493 109.347C355.121 110.914 352.713 112.461 350.261 113.941C349.967 114.121 349.757 114.41 349.677 114.745C349.596 115.08 349.653 115.433 349.833 115.726C350.013 116.019 350.302 116.229 350.638 116.309C350.973 116.39 351.326 116.334 351.62 116.153C354.073 114.655 356.528 113.1 358.928 111.516C359.191 111.349 359.385 111.093 359.475 110.795C359.564 110.498 359.544 110.177 359.417 109.893C359.29 109.609 359.065 109.38 358.783 109.248C358.501 109.116 358.181 109.09 357.882 109.174ZM128.245 173.646C127.958 173.718 127.704 173.886 127.525 174.122C127.347 174.357 127.255 174.647 127.264 174.943C127.273 175.238 127.383 175.522 127.575 175.746C127.768 175.971 128.032 176.123 128.323 176.177C130.91 176.68 133.496 177.21 136.083 177.732L136.759 177.868C136.927 177.903 137.1 177.905 137.268 177.873C137.436 177.842 137.596 177.777 137.739 177.683C137.882 177.59 138.005 177.469 138.102 177.327C138.198 177.186 138.265 177.026 138.299 176.859C138.365 176.52 138.295 176.169 138.105 175.881C137.914 175.593 137.618 175.392 137.28 175.321L136.603 175.184C134.007 174.663 131.421 174.132 128.824 173.629C128.632 173.588 128.434 173.594 128.245 173.646ZM343.163 118.157C343.05 118.182 342.941 118.225 342.841 118.285C340.373 119.69 337.84 121.074 335.327 122.403C335.022 122.562 334.793 122.837 334.69 123.166C334.587 123.495 334.619 123.851 334.779 124.156C334.939 124.461 335.214 124.69 335.543 124.793C335.872 124.895 336.229 124.863 336.534 124.703C339.084 123.357 341.636 121.965 344.152 120.543C344.431 120.39 344.645 120.141 344.751 119.841C344.858 119.541 344.851 119.213 344.731 118.918C344.611 118.624 344.387 118.383 344.102 118.243C343.816 118.103 343.489 118.072 343.182 118.157L343.163 118.157ZM241.605 144.479C241.386 144.535 241.186 144.648 241.024 144.806C240.863 144.964 240.746 145.162 240.685 145.379C240.025 147.511 239.19 149.585 238.186 151.578C237.916 151.569 237.643 151.634 237.371 151.652C237.052 151.691 236.758 151.846 236.546 152.088C236.335 152.329 236.219 152.641 236.223 152.962C236.227 153.283 236.349 153.592 236.566 153.829C236.783 154.066 237.08 154.215 237.4 154.247C237.516 154.48 237.702 154.673 237.932 154.797C238.232 154.961 238.585 155 238.913 154.905C239.242 154.81 239.52 154.589 239.686 154.291L239.836 154.025L240.211 153.983C242.198 153.783 244.223 153.547 246.213 153.264C246.553 153.216 246.861 153.038 247.071 152.766C247.282 152.495 247.377 152.152 247.338 151.811C247.317 151.642 247.262 151.478 247.178 151.33C247.093 151.181 246.98 151.051 246.845 150.947C246.71 150.842 246.556 150.765 246.391 150.721C246.226 150.676 246.054 150.664 245.884 150.686C244.336 150.883 242.77 151.07 241.196 151.238C241.953 149.572 242.604 147.859 243.143 146.11C243.213 145.889 243.221 145.654 243.169 145.428C243.116 145.203 243.004 144.996 242.844 144.828C242.685 144.66 242.483 144.539 242.26 144.475C242.037 144.412 241.801 144.41 241.577 144.468L241.605 144.479ZM219.958 151.881C219.666 151.962 219.411 152.143 219.238 152.392C219.065 152.64 218.983 152.941 219.008 153.243C219.033 153.545 219.161 153.83 219.373 154.047C219.584 154.264 219.864 154.402 220.166 154.435C223.076 154.711 226 154.815 228.923 154.747C229.267 154.739 229.595 154.596 229.833 154.347C230.071 154.098 230.201 153.765 230.193 153.421C230.186 153.077 230.041 152.749 229.793 152.511C229.544 152.273 229.21 152.144 228.866 152.151C226.046 152.214 223.225 152.114 220.417 151.85C220.263 151.837 220.108 151.847 219.958 151.881ZM327.918 126.188C327.834 126.208 327.752 126.236 327.673 126.272C325.117 127.516 322.505 128.738 319.906 129.896C319.591 130.035 319.345 130.294 319.221 130.615C319.098 130.936 319.107 131.293 319.247 131.607C319.387 131.922 319.646 132.168 319.967 132.291C320.289 132.415 320.646 132.405 320.96 132.266C323.588 131.1 326.228 129.869 328.812 128.617C329.118 128.487 329.361 128.244 329.493 127.939C329.625 127.634 329.634 127.29 329.519 126.979C329.405 126.667 329.175 126.411 328.877 126.264C328.579 126.117 328.236 126.09 327.918 126.188ZM312.187 133.203C312.129 133.219 312.072 133.239 312.017 133.263C309.392 134.335 306.703 135.378 304.034 136.374C303.875 136.434 303.728 136.524 303.604 136.639C303.479 136.755 303.378 136.894 303.307 137.049C303.236 137.204 303.196 137.371 303.19 137.541C303.184 137.711 303.211 137.881 303.27 138.04C303.329 138.2 303.42 138.346 303.535 138.471C303.651 138.596 303.791 138.696 303.946 138.767C304.1 138.838 304.268 138.878 304.438 138.884C304.608 138.891 304.778 138.863 304.938 138.804C307.634 137.809 310.352 136.749 313.005 135.668C313.313 135.541 313.561 135.302 313.698 134.999C313.836 134.696 313.852 134.352 313.744 134.037C313.636 133.722 313.412 133.46 313.117 133.305C312.823 133.15 312.48 133.113 312.159 133.202L312.187 133.203ZM145.146 177.047C144.903 177.103 144.682 177.228 144.51 177.407C144.338 177.587 144.222 177.813 144.176 178.057C144.144 178.225 144.144 178.397 144.178 178.564C144.213 178.731 144.279 178.889 144.375 179.031C144.471 179.172 144.593 179.293 144.736 179.387C144.878 179.48 145.038 179.545 145.205 179.577C148.358 180.193 151.14 180.722 153.703 181.13C153.871 181.159 154.043 181.154 154.21 181.116C154.376 181.078 154.533 181.008 154.673 180.91C154.812 180.811 154.93 180.686 155.021 180.542C155.112 180.397 155.173 180.237 155.202 180.069C155.231 179.901 155.226 179.729 155.188 179.562C155.15 179.396 155.08 179.239 154.981 179.1C154.883 178.961 154.758 178.842 154.613 178.752C154.469 178.661 154.308 178.599 154.14 178.571C151.597 178.135 148.832 177.635 145.697 177.029C145.515 176.991 145.326 176.997 145.146 177.047ZM254.255 149.501C253.919 149.572 253.624 149.774 253.436 150.062C253.248 150.35 253.182 150.701 253.253 151.037C253.324 151.374 253.526 151.669 253.814 151.856C254.103 152.044 254.454 152.11 254.791 152.039C257.608 151.589 260.483 151.076 263.314 150.523C263.481 150.491 263.64 150.425 263.782 150.331C263.924 150.237 264.047 150.116 264.142 149.975C264.237 149.833 264.303 149.675 264.337 149.508C264.371 149.341 264.372 149.169 264.339 149.002C264.306 148.835 264.241 148.676 264.147 148.534C264.053 148.392 263.931 148.27 263.79 148.174C263.649 148.079 263.49 148.013 263.323 147.979C263.156 147.945 262.984 147.945 262.816 147.977C259.996 148.521 257.176 149.027 254.359 149.477L254.255 149.501ZM296.034 139.206L295.95 139.203C293.247 140.105 290.499 140.977 287.772 141.785C287.441 141.884 287.164 142.111 287.001 142.415C286.838 142.719 286.802 143.075 286.902 143.405C287.001 143.735 287.228 144.012 287.532 144.176C287.837 144.339 288.193 144.374 288.524 144.275C291.27 143.44 294.045 142.605 296.777 141.667C297.108 141.569 297.386 141.343 297.55 141.04C297.714 140.737 297.75 140.382 297.652 140.052C297.554 139.721 297.328 139.444 297.025 139.28C296.721 139.116 296.365 139.079 296.035 139.178L296.034 139.206ZM271.162 146.203C270.827 146.285 270.539 146.497 270.36 146.792C270.181 147.086 270.127 147.44 270.209 147.774C270.292 148.109 270.503 148.397 270.798 148.575C271.093 148.754 271.447 148.808 271.782 148.726C274.606 148.08 277.432 147.388 280.184 146.655C280.518 146.568 280.804 146.352 280.978 146.055C281.152 145.757 281.201 145.403 281.114 145.07C281.027 144.736 280.811 144.451 280.513 144.277C280.215 144.103 279.861 144.054 279.527 144.141C276.775 144.864 273.986 145.557 271.209 146.196L271.162 146.203ZM233.403 159.506C233.137 159.575 232.899 159.727 232.725 159.939C230.954 162.103 229.008 164.118 226.908 165.964C226.761 166.07 226.637 166.206 226.546 166.363C226.454 166.519 226.397 166.693 226.377 166.874C226.357 167.054 226.375 167.236 226.43 167.409C226.486 167.582 226.576 167.741 226.697 167.877C226.818 168.012 226.965 168.121 227.131 168.196C227.296 168.271 227.475 168.31 227.657 168.312C227.838 168.313 228.018 168.276 228.184 168.204C228.351 168.131 228.5 168.025 228.623 167.891C230.841 165.96 232.897 163.849 234.767 161.579C234.938 161.366 235.037 161.105 235.051 160.832C235.065 160.56 234.994 160.29 234.846 160.06C234.699 159.83 234.483 159.653 234.229 159.552C233.976 159.451 233.697 159.432 233.432 159.498L233.403 159.506ZM162.132 179.882C161.88 179.947 161.653 180.086 161.48 180.281C161.306 180.476 161.195 180.718 161.16 180.976C161.138 181.145 161.15 181.316 161.195 181.481C161.24 181.645 161.317 181.799 161.422 181.933C161.526 182.068 161.656 182.181 161.804 182.265C161.952 182.349 162.116 182.404 162.285 182.425L163.093 182.528C165.761 182.866 168.394 183.137 170.927 183.32C171.097 183.335 171.268 183.316 171.43 183.264C171.593 183.212 171.743 183.128 171.872 183.017C172.001 182.906 172.107 182.77 172.183 182.617C172.259 182.465 172.304 182.299 172.314 182.129C172.329 181.959 172.31 181.787 172.258 181.625C172.206 181.462 172.122 181.312 172.011 181.182C171.9 181.052 171.764 180.945 171.612 180.868C171.459 180.792 171.293 180.746 171.122 180.734C168.636 180.552 166.04 180.282 163.418 179.955L162.619 179.852C162.457 179.827 162.292 179.834 162.133 179.872L162.132 179.882ZM179.315 181.137C179.013 181.217 178.749 181.404 178.573 181.663C178.398 181.922 178.322 182.236 178.36 182.547C178.398 182.858 178.547 183.144 178.779 183.354C179.012 183.563 179.313 183.681 179.626 183.686C182.613 183.709 185.549 183.617 188.348 183.409C188.518 183.396 188.684 183.35 188.837 183.273C188.989 183.196 189.125 183.089 189.236 182.96C189.347 182.831 189.432 182.68 189.485 182.518C189.538 182.356 189.559 182.185 189.546 182.015C189.533 181.845 189.487 181.679 189.41 181.527C189.333 181.374 189.226 181.239 189.097 181.128C188.967 181.016 188.817 180.932 188.655 180.879C188.492 180.826 188.321 180.805 188.151 180.818C185.426 181.019 182.538 181.112 179.644 181.093C179.533 181.085 179.422 181.097 179.316 181.128L179.315 181.137ZM220.525 170.84C220.392 170.872 220.267 170.927 220.155 171.004C217.784 172.512 215.305 173.843 212.739 174.985C212.424 175.125 212.178 175.384 212.055 175.705C211.931 176.026 211.94 176.383 212.08 176.697C212.22 177.012 212.479 177.257 212.801 177.381C213.122 177.504 213.479 177.495 213.794 177.355C216.482 176.166 219.075 174.774 221.552 173.191C221.816 173.026 222.013 172.772 222.105 172.475C222.197 172.178 222.18 171.857 222.055 171.572C221.93 171.287 221.707 171.056 221.426 170.922C221.145 170.787 220.825 170.758 220.525 170.84ZM196.469 179.808C196.132 179.88 195.838 180.083 195.651 180.372C195.464 180.661 195.399 181.012 195.471 181.349C195.543 181.686 195.746 181.98 196.036 182.167C196.325 182.354 196.677 182.418 197.014 182.346C199.118 181.983 201.188 181.562 203.186 181.017C203.978 180.812 204.77 180.589 205.544 180.364C205.708 180.316 205.86 180.235 205.993 180.128C206.125 180.02 206.235 179.888 206.316 179.738C206.397 179.587 206.448 179.423 206.466 179.253C206.483 179.084 206.467 178.912 206.419 178.749C206.37 178.585 206.289 178.433 206.182 178.301C206.074 178.168 205.941 178.058 205.791 177.977C205.641 177.896 205.477 177.845 205.307 177.828C205.137 177.81 204.965 177.826 204.802 177.875C204.056 178.091 203.292 178.306 202.52 178.503C200.634 179.005 198.593 179.426 196.563 179.783L196.469 179.808Z" fill="#196E7E" fill-opacity="0.4" stroke="#176D7E" stroke-opacity="0.4" stroke-width="0.148566" stroke-miterlimit="10"/>
</svg>
