<svg width="47" height="12" viewBox="0 0 47 12" fill="none" xmlns="http://www.w3.org/2000/svg">
<path d="M1 5H0L0 7H1L1 5ZM47 6L37 0.226497V11.7735L47 6ZM2.91667 7H3.91667V5H2.91667V7ZM10.5833 5L9.58333 5V7H10.5833V5ZM14.4167 7H15.4167V5H14.4167V7ZM22.0833 5H21.0833V7L22.0833 7V5ZM25.9167 7H26.9167V5H25.9167V7ZM33.5833 5H32.5833V7H33.5833V5ZM37.4167 7L38.4167 7V5H37.4167V7ZM45.0833 5H44.0833V7H45.0833V5ZM1 7H2.91667V5H1L1 7ZM10.5833 7H14.4167V5H10.5833V7ZM22.0833 7H25.9167V5H22.0833V7ZM33.5833 7H37.4167V5H33.5833V7Z" fill="url(#paint0_linear_1521_11742)"/>
<defs>
<linearGradient id="paint0_linear_1521_11742" x1="47.7931" y1="6.99995" x2="0.206897" y2="6.99995" gradientUnits="userSpaceOnUse">
<stop offset="0.0364583" stop-color="#26AA9D"/>
<stop offset="1" stop-opacity="0.15"/>
</linearGradient>
</defs>
</svg>
