<svg width="195" height="2" viewBox="0 0 195 2" fill="none" xmlns="http://www.w3.org/2000/svg">
<path d="M1 0L0 0L0 2H1L1 0ZM3.02083 2L4.02083 2V0H3.02083V2ZM11.1042 0H10.1042V2L11.1042 2V0ZM15.1458 2H16.1458V0H15.1458V2ZM23.2292 0H22.2292V2H23.2292V0ZM27.2708 2L28.2708 2V0L27.2708 0V2ZM35.3542 0H34.3542V2L35.3542 2V0ZM39.3958 2L40.3958 2V0H39.3958V2ZM47.4792 0H46.4792V2L47.4792 2V0ZM51.5208 2H52.5208V0H51.5208V2ZM59.6042 0H58.6042V2H59.6042V0ZM63.6458 2H64.6458V0L63.6458 0V2ZM71.7292 0L70.7292 0V2L71.7292 2V0ZM75.7708 2L76.7708 2V0H75.7708V2ZM83.8542 0H82.8542V2L83.8542 2V0ZM87.8958 2H88.8958V0H87.8958V2ZM95.9792 0H94.9792V2H95.9792V0ZM100.021 2H101.021V0L100.021 0V2ZM108.104 0L107.104 0V2H108.104V0ZM112.146 2L113.146 2V0H112.146V2ZM120.229 0H119.229V2L120.229 2V0ZM124.271 2H125.271V0H124.271V2ZM132.354 0H131.354V2H132.354V0ZM136.396 2H137.396V0L136.396 0V2ZM144.479 0L143.479 0V2H144.479V0ZM148.521 2L149.521 2V0H148.521V2ZM156.604 0H155.604V2L156.604 2V0ZM160.646 2H161.646V0H160.646V2ZM168.729 0H167.729V2H168.729V0ZM172.771 2H173.771V0L172.771 0V2ZM180.854 0L179.854 0V2H180.854V0ZM184.896 2L185.896 2V0H184.896V2ZM192.979 0H191.979V2L192.979 2V0ZM1 2H3.02083V0L1 0L1 2ZM11.1042 2L15.1458 2V0L11.1042 0V2ZM23.2292 2L27.2708 2V0L23.2292 0V2ZM35.3542 2H39.3958V0L35.3542 0V2ZM47.4792 2L51.5208 2V0L47.4792 0V2ZM59.6042 2L63.6458 2V0L59.6042 0V2ZM71.7292 2H75.7708V0L71.7292 0V2ZM83.8542 2L87.8958 2V0L83.8542 0V2ZM95.9792 2L100.021 2V0L95.9792 0V2ZM108.104 2H112.146V0L108.104 0V2ZM120.229 2L124.271 2V0L120.229 0V2ZM132.354 2L136.396 2V0L132.354 0V2ZM144.479 2H148.521V0L144.479 0V2ZM156.604 2L160.646 2V0L156.604 0V2ZM168.729 2L172.771 2V0L168.729 0V2ZM180.854 2H184.896V0L180.854 0V2ZM192.979 2L195 2V0H192.979V2Z" fill="url(#paint0_linear_1521_11747)"/>
<defs>
<linearGradient id="paint0_linear_1521_11747" x1="198.345" y1="1.99995" x2="-2.34482" y2="1.99995" gradientUnits="userSpaceOnUse">
<stop offset="0.0364583" stop-color="#26AA9D"/>
<stop offset="1" stop-opacity="0.15"/>
</linearGradient>
</defs>
</svg>
