<svg width="336" height="12" viewBox="0 0 336 12" fill="none" xmlns="http://www.w3.org/2000/svg">
<path d="M1 5H0V7H1V5ZM336 6L326 0.226497V11.7735L336 6ZM2.99405 7H3.99405V5H2.99405V7ZM10.9702 5H9.97024V7H10.9702V5ZM14.9583 7H15.9583V5H14.9583V7ZM22.9345 5H21.9345V7H22.9345V5ZM26.9226 7H27.9226V5H26.9226V7ZM34.8988 5H33.8988V7H34.8988V5ZM38.8869 7H39.8869V5H38.8869V7ZM46.8631 5H45.8631V7H46.8631V5ZM50.8512 7H51.8512V5H50.8512V7ZM58.8274 5H57.8274V7H58.8274V5ZM62.8155 7H63.8155V5H62.8155V7ZM70.7917 5H69.7917V7H70.7917V5ZM74.7798 7H75.7798V5H74.7798V7ZM82.756 5H81.756V7H82.756V5ZM86.7441 7H87.7441V5H86.7441V7ZM94.7203 5H93.7203V7H94.7203V5ZM98.7083 7H99.7083V5H98.7083V7ZM106.685 5H105.685V7H106.685V5ZM110.673 7H111.673V5H110.673V7ZM118.649 5H117.649V7H118.649V5ZM122.637 7H123.637V5H122.637V7ZM130.613 5H129.613V7H130.613V5ZM134.601 7H135.601V5H134.601V7ZM142.577 5H141.577V7H142.577V5ZM146.566 7H147.566V5H146.566V7ZM154.542 5H153.542V7H154.542V5ZM158.53 7H159.53V5H158.53V7ZM166.506 5H165.506V7H166.506V5ZM170.494 7H171.494V5H170.494V7ZM178.47 5H177.47V7H178.47V5ZM182.458 7H183.458V5H182.458V7ZM190.435 5H189.435V7H190.435V5ZM194.423 7H195.423V5H194.423V7ZM202.399 5H201.399V7H202.399V5ZM206.387 7H207.387V5H206.387V7ZM214.363 5H213.363V7H214.363V5ZM218.351 7H219.351V5H218.351V7ZM226.327 5H225.327V7H226.327V5ZM230.316 7H231.316V5H230.316V7ZM238.292 5H237.292V7H238.292V5ZM242.28 7H243.28V5H242.28V7ZM250.256 5H249.256V7H250.256V5ZM254.244 7H255.244V5H254.244V7ZM262.22 5H261.22V7H262.22V5ZM266.208 7H267.208V5H266.208V7ZM274.185 5H273.185V7H274.185V5ZM278.173 7H279.173V5H278.173V7ZM286.149 5H285.149V7H286.149V5ZM290.137 7H291.137V5H290.137V7ZM298.113 5H297.113V7H298.113V5ZM302.101 7H303.101V5H302.101V7ZM310.078 5H309.078V7H310.078V5ZM314.066 7H315.066V5H314.066V7ZM322.042 5H321.042V7H322.042V5ZM326.03 7H327.03V5H326.03V7ZM334.006 5H333.006V7H334.006V5ZM1 7H2.99405V5H1V7ZM10.9702 7H14.9583V5H10.9702V7ZM22.9345 7H26.9226V5H22.9345V7ZM34.8988 7H38.8869V5H34.8988V7ZM46.8631 7H50.8512V5H46.8631V7ZM58.8274 7H62.8155V5H58.8274V7ZM70.7917 7H74.7798V5H70.7917V7ZM82.756 7H86.7441V5H82.756V7ZM94.7203 7H98.7083V5H94.7203V7ZM106.685 7H110.673V5H106.685V7ZM118.649 7H122.637V5H118.649V7ZM130.613 7H134.601V5H130.613V7ZM142.577 7H146.566V5H142.577V7ZM154.542 7H158.53V5H154.542V7ZM166.506 7H170.494V5H166.506V7ZM178.47 7H182.458V5H178.47V7ZM190.435 7H194.423V5H190.435V7ZM202.399 7H206.387V5H202.399V7ZM214.363 7H218.351V5H214.363V7ZM226.327 7H230.316V5H226.327V7ZM238.292 7H242.28V5H238.292V7ZM250.256 7H254.244V5H250.256V7ZM262.22 7H266.208V5H262.22V7ZM274.185 7H278.173V5H274.185V7ZM286.149 7H290.137V5H286.149V7ZM298.113 7H302.101V5H298.113V7ZM310.078 7H314.066V5H310.078V7ZM322.042 7H326.03V5H322.042V7Z" fill="url(#paint0_linear_666_13078)"/>
<defs>
<linearGradient id="paint0_linear_666_13078" x1="337" y1="6.99995" x2="4.79684e-07" y2="6.99995" gradientUnits="userSpaceOnUse">
<stop offset="0.0364583" stop-color="#26AA9D"/>
<stop offset="1" stop-opacity="0.15"/>
</linearGradient>
</defs>
</svg>
