<svg width="525" height="940" viewBox="0 0 525 940" fill="none" xmlns="http://www.w3.org/2000/svg">
<path d="M247.235 232.271C247.886 232.732 248.572 233.176 249.262 233.582C249.561 233.754 249.916 233.802 250.25 233.714C250.584 233.625 250.869 233.409 251.043 233.111C251.129 232.963 251.186 232.8 251.209 232.63C251.232 232.46 251.222 232.287 251.178 232.122C251.134 231.956 251.057 231.801 250.953 231.665C250.849 231.529 250.719 231.415 250.57 231.33C248.209 229.956 246.085 228.21 244.28 226.159C244.168 226.03 244.033 225.924 243.88 225.848C243.728 225.772 243.562 225.726 243.392 225.714C243.222 225.701 243.051 225.723 242.89 225.776C242.728 225.83 242.578 225.915 242.45 226.027C242.321 226.138 242.215 226.274 242.139 226.426C242.063 226.579 242.017 226.745 242.005 226.915C241.993 227.085 242.014 227.255 242.068 227.417C242.122 227.579 242.207 227.728 242.319 227.857C243.771 229.524 245.422 231.007 247.235 232.271ZM257.142 236.705C257.277 236.801 257.429 236.871 257.59 236.91C260.507 237.628 263.519 237.88 266.514 237.658C266.683 237.645 266.849 237.598 267.001 237.52C267.152 237.443 267.287 237.336 267.398 237.207C267.508 237.077 267.592 236.927 267.644 236.765C267.697 236.603 267.717 236.432 267.703 236.262C267.69 236.092 267.643 235.927 267.565 235.775C267.488 235.623 267.381 235.488 267.251 235.377C267.121 235.267 266.971 235.183 266.809 235.13C266.647 235.078 266.476 235.058 266.306 235.071C263.57 235.273 260.818 235.044 258.152 234.392C257.982 234.351 257.806 234.344 257.633 234.371C257.46 234.399 257.295 234.46 257.147 234.553C256.998 234.645 256.87 234.766 256.768 234.908C256.667 235.051 256.596 235.212 256.558 235.383C256.513 235.636 256.544 235.897 256.649 236.133C256.753 236.369 256.925 236.568 257.142 236.705ZM238.26 220.714C238.432 220.833 238.63 220.909 238.837 220.935C239.045 220.961 239.255 220.937 239.451 220.865C239.612 220.808 239.76 220.72 239.887 220.605C240.013 220.49 240.115 220.352 240.188 220.197C240.26 220.042 240.3 219.874 240.307 219.704C240.314 219.533 240.286 219.362 240.227 219.202C239.287 216.631 238.751 213.931 238.638 211.197C238.631 211.026 238.59 210.859 238.519 210.704C238.447 210.549 238.345 210.41 238.22 210.294C238.095 210.179 237.948 210.089 237.788 210.03C237.628 209.971 237.457 209.944 237.287 209.951C237.117 209.958 236.949 209.998 236.795 210.07C236.64 210.142 236.501 210.243 236.385 210.368C236.27 210.494 236.18 210.641 236.121 210.801C236.063 210.961 236.036 211.131 236.043 211.301C236.156 214.309 236.734 217.281 237.759 220.112C237.863 220.339 238.026 220.535 238.231 220.678L238.26 220.714ZM273.994 235.251C274.178 235.392 274.398 235.481 274.628 235.508C274.859 235.534 275.093 235.498 275.304 235.403C277.703 234.239 279.861 232.633 281.665 230.668C281.931 230.374 282.19 230.085 282.437 229.782C282.546 229.65 282.629 229.499 282.679 229.336C282.73 229.173 282.748 229.001 282.733 228.831C282.717 228.661 282.668 228.496 282.589 228.344C282.509 228.193 282.401 228.059 282.269 227.95C282.138 227.84 281.987 227.758 281.823 227.707C281.66 227.656 281.489 227.638 281.319 227.653C281.149 227.669 280.983 227.718 280.832 227.797C280.681 227.876 280.547 227.985 280.438 228.116L279.749 228.913C278.165 230.636 276.271 232.045 274.165 233.066C274.012 233.141 273.875 233.245 273.761 233.373C273.648 233.5 273.561 233.649 273.506 233.81C273.45 233.972 273.427 234.142 273.438 234.313C273.448 234.483 273.492 234.65 273.567 234.803C273.665 234.97 273.801 235.112 273.965 235.214L273.994 235.251ZM237.463 203.744C237.6 203.836 237.751 203.905 237.911 203.948C238.081 203.99 238.258 203.997 238.431 203.969C238.603 203.941 238.769 203.879 238.917 203.786C239.065 203.693 239.193 203.571 239.293 203.427C239.393 203.284 239.463 203.122 239.5 202.95C240.132 200.252 241.084 197.638 242.333 195.165C242.457 194.86 242.462 194.52 242.346 194.212C242.23 193.904 242.002 193.651 241.708 193.504C241.414 193.357 241.075 193.326 240.759 193.417C240.443 193.509 240.174 193.717 240.004 193.998C238.669 196.656 237.651 199.462 236.972 202.359C236.909 202.604 236.919 202.862 237.001 203.102C237.083 203.342 237.234 203.552 237.434 203.707L237.463 203.744ZM408.863 311.573C409.143 311.775 409.491 311.857 409.831 311.802C410.171 311.746 410.475 311.558 410.676 311.279C410.877 310.999 410.959 310.651 410.904 310.311C410.848 309.971 410.66 309.666 410.38 309.465C408.201 307.858 405.963 306.072 403.764 304.124C403.502 303.902 403.162 303.791 402.82 303.816C402.477 303.841 402.157 303.999 401.93 304.257C401.818 304.386 401.732 304.535 401.678 304.698C401.624 304.86 401.603 305.031 401.615 305.202C401.628 305.372 401.674 305.539 401.751 305.691C401.828 305.844 401.934 305.98 402.064 306.092C404.348 308.056 406.633 309.888 408.867 311.534L408.863 311.573ZM416.027 316.36L416.079 316.426C418.587 317.932 421.179 319.292 423.844 320.499C424.155 320.618 424.5 320.613 424.808 320.485C425.116 320.358 425.364 320.117 425.5 319.813C425.636 319.508 425.65 319.163 425.54 318.849C425.43 318.534 425.203 318.273 424.907 318.119C422.337 316.959 419.836 315.65 417.418 314.198C417.121 314.022 416.767 313.97 416.432 314.055C416.098 314.139 415.811 314.353 415.633 314.648C415.47 314.93 415.42 315.264 415.493 315.582C415.566 315.9 415.757 316.178 416.027 316.36ZM395.783 300.378C395.914 300.486 396.066 300.568 396.229 300.618C396.392 300.668 396.563 300.685 396.732 300.669C396.902 300.653 397.067 300.603 397.217 300.524C397.367 300.444 397.501 300.335 397.609 300.204C397.717 300.073 397.799 299.921 397.849 299.758C397.899 299.595 397.916 299.424 397.9 299.255C397.883 299.085 397.834 298.92 397.754 298.77C397.674 298.619 397.565 298.486 397.434 298.378C396.37 297.351 395.286 296.27 394.192 295.16C393.278 294.218 392.347 293.253 391.422 292.283C391.178 292.064 390.86 291.944 390.531 291.949C390.203 291.953 389.889 292.082 389.651 292.308C389.413 292.534 389.269 292.842 389.248 293.17C389.227 293.497 389.33 293.821 389.537 294.077C390.466 295.054 391.41 296.033 392.342 296.984C393.442 298.101 394.551 299.199 395.632 300.247C395.679 300.294 395.73 300.338 395.783 300.378ZM284.809 222.434C284.911 222.502 285.02 222.559 285.135 222.604C285.462 222.713 285.818 222.689 286.127 222.537C286.437 222.385 286.674 222.118 286.788 221.793C287.741 218.944 288.273 215.97 288.367 212.966C288.359 212.633 288.224 212.316 287.989 212.079C287.755 211.842 287.439 211.704 287.106 211.693C286.773 211.681 286.448 211.798 286.199 212.018C285.949 212.238 285.793 212.545 285.762 212.877C285.685 215.625 285.2 218.345 284.322 220.95C284.233 221.217 284.232 221.505 284.32 221.773C284.407 222.04 284.579 222.272 284.809 222.434ZM431.722 323.351C431.841 323.429 431.97 323.49 432.106 323.535C433.52 323.937 434.952 324.302 436.378 324.6C437.804 324.898 439.27 325.141 440.745 325.305C440.918 325.33 441.094 325.319 441.262 325.273C441.431 325.228 441.588 325.148 441.725 325.04C441.861 324.931 441.974 324.796 442.057 324.643C442.14 324.489 442.191 324.321 442.206 324.147C442.228 323.974 442.215 323.799 442.168 323.632C442.121 323.465 442.042 323.308 441.934 323.172C441.826 323.036 441.691 322.923 441.539 322.839C441.387 322.755 441.219 322.703 441.047 322.684C439.666 322.526 438.294 322.298 436.936 322.002C435.581 321.719 434.207 321.368 432.858 320.972C432.562 320.888 432.246 320.912 431.965 321.039C431.685 321.165 431.458 321.387 431.325 321.665C431.192 321.942 431.162 322.258 431.239 322.556C431.317 322.855 431.497 323.116 431.748 323.294L431.722 323.351ZM383.929 287.876C384.188 288.07 384.51 288.16 384.832 288.129C385.154 288.097 385.452 287.947 385.669 287.707C385.885 287.466 386.004 287.154 386.002 286.83C385.999 286.507 385.876 286.196 385.657 285.958C383.808 283.852 381.92 281.621 380.129 279.409C379.905 279.17 379.599 279.025 379.273 279.001C378.946 278.977 378.623 279.076 378.367 279.28C378.11 279.483 377.94 279.775 377.889 280.098C377.838 280.421 377.91 280.752 378.091 281.025C379.877 283.277 381.781 285.483 383.676 287.648C383.752 287.733 383.837 287.81 383.929 287.876ZM245.035 188.413C245.302 188.611 245.634 188.699 245.963 188.659C246.293 188.619 246.594 188.455 246.806 188.2C248.569 186.065 250.577 184.145 252.788 182.478C253.063 182.27 253.244 181.962 253.292 181.62C253.34 181.279 253.251 180.932 253.044 180.656C252.943 180.518 252.816 180.402 252.669 180.314C252.523 180.226 252.36 180.168 252.192 180.144C252.023 180.119 251.85 180.129 251.685 180.171C251.52 180.214 251.365 180.289 251.229 180.392C248.852 182.182 246.695 184.248 244.805 186.547C244.695 186.678 244.613 186.829 244.562 186.992C244.512 187.155 244.494 187.326 244.51 187.496C244.527 187.666 244.576 187.831 244.657 187.982C244.738 188.132 244.848 188.265 244.98 188.373C245.002 188.397 245.026 188.417 245.053 188.435L245.035 188.413ZM373.064 274.507C373.317 274.692 373.628 274.779 373.94 274.752C374.252 274.726 374.543 274.587 374.761 274.363C374.979 274.138 375.107 273.842 375.124 273.529C375.14 273.217 375.043 272.909 374.85 272.662C373.14 270.386 371.45 268.045 369.84 265.714C369.746 265.562 369.623 265.431 369.478 265.329C369.332 265.227 369.167 265.155 368.993 265.119C368.819 265.082 368.639 265.082 368.464 265.118C368.29 265.153 368.125 265.224 367.979 265.326C367.833 265.428 367.71 265.559 367.616 265.71C367.523 265.861 367.461 266.03 367.435 266.206C367.41 266.382 367.42 266.562 367.466 266.734C367.512 266.906 367.593 267.066 367.703 267.206C369.338 269.554 371.045 271.916 372.778 274.221C372.856 274.333 372.953 274.43 373.064 274.507ZM448.731 325.261C448.977 325.427 449.271 325.508 449.567 325.491C452.511 325.291 455.43 324.829 458.291 324.111C458.564 323.979 458.783 323.756 458.91 323.481C459.037 323.205 459.063 322.893 458.986 322.6C458.908 322.307 458.73 322.049 458.483 321.872C458.236 321.696 457.936 321.61 457.633 321.631C454.926 322.316 452.163 322.754 449.376 322.939C449.205 322.95 449.039 322.995 448.885 323.07C448.732 323.146 448.595 323.252 448.483 323.38C448.371 323.509 448.285 323.659 448.231 323.822C448.177 323.984 448.155 324.155 448.168 324.326C448.188 324.518 448.251 324.704 448.351 324.869C448.451 325.035 448.587 325.176 448.748 325.283L448.731 325.261ZM363.246 260.356C363.493 260.526 363.791 260.606 364.09 260.583C364.389 260.559 364.671 260.433 364.889 260.226C365.106 260.019 365.245 259.743 365.282 259.446C365.32 259.148 365.254 258.846 365.095 258.591C364.52 257.701 363.96 256.8 363.4 255.898C362.486 254.431 361.577 252.925 360.61 251.286C360.435 250.989 360.149 250.774 359.815 250.688C359.481 250.602 359.127 250.652 358.831 250.827C358.534 251.003 358.319 251.288 358.234 251.622C358.148 251.956 358.198 252.31 358.374 252.607C359.329 254.232 360.273 255.782 361.191 257.269C361.757 258.178 362.323 259.087 362.903 259.984C362.992 260.129 363.108 260.255 363.246 260.356ZM285.512 205.405C285.728 205.552 285.982 205.631 286.243 205.633C286.503 205.634 286.759 205.557 286.975 205.412C287.192 205.268 287.36 205.061 287.458 204.82C287.556 204.578 287.58 204.313 287.526 204.058C287.152 202.338 286.654 200.647 286.037 198.998C285.62 197.888 285.145 196.763 284.593 195.677C284.429 195.391 284.164 195.177 283.85 195.078C283.536 194.979 283.196 195.003 282.899 195.144C282.601 195.285 282.368 195.533 282.246 195.838C282.124 196.144 282.122 196.485 282.24 196.792C282.732 197.832 283.18 198.893 283.557 199.953C284.122 201.491 284.578 203.069 284.919 204.672C285.021 204.981 285.232 205.241 285.512 205.405ZM156.39 112.65C156.507 112.732 156.637 112.794 156.774 112.834C159.505 113.622 162.245 114.451 164.962 115.356C165.29 115.463 165.646 115.435 165.953 115.279C166.26 115.123 166.492 114.851 166.598 114.523C166.705 114.196 166.676 113.839 166.52 113.532C166.364 113.225 166.092 112.993 165.764 112.886C163.032 111.992 160.256 111.133 157.493 110.335C157.195 110.243 156.875 110.261 156.59 110.386C156.305 110.511 156.075 110.735 155.941 111.015C155.807 111.296 155.779 111.616 155.862 111.916C155.944 112.216 156.132 112.477 156.39 112.65ZM354.452 245.546C354.693 245.718 354.985 245.802 355.281 245.785C355.576 245.767 355.856 245.65 356.075 245.451C356.294 245.252 356.439 244.985 356.484 244.692C356.53 244.4 356.475 244.101 356.327 243.844C355.031 241.55 353.757 239.237 352.475 236.931L352.139 236.328C352.058 236.177 351.947 236.045 351.814 235.937C351.681 235.83 351.527 235.75 351.363 235.702C351.199 235.654 351.027 235.639 350.857 235.657C350.687 235.676 350.523 235.728 350.373 235.811C350.072 235.981 349.85 236.261 349.755 236.593C349.66 236.925 349.699 237.281 349.864 237.585L350.199 238.188C351.487 240.502 352.761 242.814 354.063 245.116C354.156 245.289 354.29 245.436 354.452 245.546ZM172.775 118.021C172.868 118.091 172.972 118.146 173.082 118.183C175.753 119.149 178.45 120.179 181.091 121.228C181.41 121.357 181.768 121.353 182.085 121.218C182.402 121.083 182.652 120.827 182.78 120.508C182.909 120.188 182.905 119.83 182.769 119.513C182.634 119.196 182.378 118.946 182.058 118.817C179.379 117.75 176.664 116.712 173.95 115.72C173.652 115.607 173.324 115.606 173.026 115.72C172.729 115.833 172.484 116.051 172.337 116.334C172.191 116.616 172.154 116.943 172.232 117.251C172.311 117.559 172.5 117.828 172.764 118.006L172.775 118.021ZM258.703 178.217C258.887 178.347 259.103 178.426 259.328 178.446C259.553 178.466 259.779 178.427 259.984 178.332C262.034 177.451 264.155 176.741 266.323 176.211C266.491 176.423 266.717 176.589 266.907 176.783C267.144 177.001 267.453 177.124 267.774 177.128C268.096 177.133 268.407 177.018 268.649 176.807C268.892 176.596 269.047 176.303 269.087 175.983C269.126 175.664 269.046 175.342 268.863 175.078C268.965 174.838 268.991 174.572 268.937 174.316C268.867 173.981 268.668 173.688 268.382 173.499C268.097 173.311 267.748 173.243 267.413 173.31L267.114 173.368L266.838 173.11C265.397 171.728 263.904 170.34 262.397 169.01C262.14 168.782 261.804 168.663 261.461 168.679C261.118 168.696 260.795 168.845 260.561 169.097C260.446 169.223 260.357 169.37 260.299 169.531C260.241 169.691 260.215 169.862 260.224 170.032C260.232 170.203 260.273 170.37 260.346 170.525C260.419 170.679 260.522 170.818 260.649 170.933C261.803 171.983 262.961 173.053 264.111 174.142C262.351 174.647 260.626 175.263 258.946 175.987C258.733 176.078 258.548 176.224 258.41 176.41C258.273 176.597 258.188 176.816 258.164 177.047C258.14 177.277 258.178 177.51 258.275 177.72C258.371 177.931 258.523 178.112 258.713 178.245L258.703 178.217ZM278.381 189.885C278.632 190.054 278.935 190.13 279.236 190.101C279.538 190.072 279.82 189.938 280.034 189.723C280.248 189.509 280.38 189.226 280.409 188.924C280.437 188.623 280.359 188.32 280.189 188.069C278.511 185.675 276.693 183.383 274.745 181.204C274.515 180.946 274.193 180.791 273.85 180.771C273.506 180.751 273.168 180.868 272.911 181.098C272.654 181.327 272.499 181.649 272.479 181.992C272.459 182.336 272.577 182.674 272.806 182.931C274.684 185.036 276.438 187.248 278.06 189.555C278.149 189.681 278.257 189.792 278.381 189.885ZM188.778 124.409C188.848 124.461 188.923 124.505 189.002 124.542C191.607 125.68 194.231 126.874 196.799 128.101C197.109 128.249 197.466 128.268 197.79 128.154C198.115 128.04 198.38 127.801 198.529 127.491C198.677 127.18 198.696 126.824 198.582 126.499C198.467 126.175 198.228 125.909 197.918 125.76C195.325 124.517 192.676 123.307 190.047 122.153C189.749 122.005 189.406 121.977 189.089 122.075C188.772 122.173 188.504 122.389 188.341 122.678C188.179 122.967 188.133 123.308 188.214 123.631C188.296 123.953 188.498 124.232 188.778 124.409ZM204.324 131.827C204.374 131.861 204.426 131.892 204.48 131.918C206.999 133.219 209.537 134.589 212.027 135.973C212.176 136.056 212.339 136.109 212.508 136.129C212.677 136.149 212.849 136.135 213.012 136.089C213.176 136.042 213.329 135.964 213.463 135.858C213.596 135.753 213.708 135.622 213.791 135.473C213.873 135.325 213.926 135.161 213.946 134.992C213.966 134.823 213.952 134.652 213.905 134.488C213.859 134.324 213.781 134.171 213.675 134.037C213.569 133.904 213.438 133.792 213.29 133.709C210.782 132.303 208.212 130.923 205.668 129.606C205.372 129.454 205.029 129.42 204.71 129.512C204.39 129.604 204.117 129.815 203.948 130.102C203.779 130.388 203.725 130.728 203.798 131.053C203.871 131.378 204.066 131.663 204.341 131.849L204.324 131.827ZM346.073 230.479C346.273 230.628 346.512 230.714 346.76 230.729C347.008 230.744 347.255 230.685 347.471 230.562C347.619 230.478 347.75 230.365 347.855 230.231C347.96 230.097 348.037 229.943 348.083 229.779C348.128 229.614 348.141 229.443 348.12 229.273C348.098 229.104 348.044 228.941 347.96 228.792C346.383 225.994 344.979 223.534 343.628 221.319C343.54 221.172 343.425 221.044 343.288 220.942C343.151 220.84 342.996 220.766 342.831 220.724C342.665 220.682 342.493 220.673 342.325 220.698C342.156 220.722 341.994 220.78 341.847 220.867C341.701 220.954 341.573 221.069 341.471 221.206C341.369 221.343 341.295 221.498 341.253 221.663C341.211 221.829 341.202 222.001 341.227 222.169C341.252 222.338 341.309 222.501 341.397 222.647C342.715 224.865 344.129 227.293 345.702 230.071C345.791 230.235 345.918 230.375 346.073 230.479ZM254.315 165.332C254.588 165.542 254.932 165.636 255.274 165.592C255.615 165.548 255.925 165.37 256.135 165.098C256.345 164.825 256.438 164.481 256.394 164.139C256.349 163.798 256.172 163.488 255.899 163.278C253.729 161.426 251.472 159.571 249.215 157.776C249.082 157.67 248.929 157.591 248.765 157.544C248.601 157.497 248.43 157.483 248.261 157.502C248.091 157.521 247.928 157.574 247.779 157.656C247.63 157.739 247.498 157.85 247.392 157.983C247.286 158.117 247.208 158.27 247.161 158.433C247.114 158.597 247.1 158.769 247.119 158.938C247.138 159.107 247.191 159.271 247.274 159.42C247.356 159.569 247.467 159.701 247.601 159.807C249.844 161.601 252.059 163.417 254.229 165.269L254.315 165.332ZM219.372 140.223L219.424 140.289C221.864 141.76 224.312 143.285 226.696 144.836C226.986 145.023 227.339 145.087 227.676 145.014C228.013 144.941 228.307 144.737 228.493 144.447C228.68 144.157 228.744 143.804 228.67 143.467C228.597 143.13 228.393 142.836 228.103 142.649C225.685 141.101 223.25 139.53 220.763 138.06C220.474 137.873 220.122 137.808 219.785 137.88C219.448 137.951 219.153 138.154 218.966 138.443C218.779 138.732 218.714 139.084 218.786 139.421C218.858 139.758 219.061 140.053 219.35 140.241L219.372 140.223ZM240.836 154.608C241.116 154.809 241.464 154.891 241.804 154.836C242.144 154.781 242.448 154.593 242.649 154.313C242.85 154.034 242.932 153.685 242.877 153.345C242.821 153.005 242.633 152.701 242.353 152.5C240.029 150.77 237.669 149.069 235.325 147.449C235.042 147.252 234.693 147.175 234.353 147.235C234.014 147.295 233.713 147.488 233.516 147.771C233.318 148.054 233.242 148.403 233.302 148.743C233.363 149.082 233.556 149.384 233.839 149.581C236.175 151.206 238.512 152.878 240.8 154.577L240.836 154.608ZM275.459 174.706C275.684 174.864 275.953 174.947 276.228 174.941C279.024 174.885 281.819 175.058 284.587 175.458C284.763 175.501 284.947 175.507 285.125 175.475C285.304 175.443 285.474 175.374 285.624 175.272C285.774 175.17 285.901 175.038 285.996 174.884C286.092 174.73 286.154 174.557 286.179 174.378C286.204 174.198 286.191 174.015 286.141 173.841C286.09 173.666 286.004 173.504 285.887 173.365C285.771 173.226 285.626 173.113 285.463 173.034C285.3 172.954 285.122 172.91 284.941 172.903C282.032 172.468 279.092 172.274 276.151 172.323C275.878 172.332 275.615 172.426 275.398 172.592C275.182 172.758 275.023 172.988 274.944 173.249C274.865 173.51 274.869 173.79 274.957 174.048C275.045 174.307 275.212 174.531 275.434 174.69L275.459 174.706ZM337.208 215.715C337.421 215.864 337.675 215.947 337.935 215.952C338.196 215.958 338.452 215.886 338.672 215.745C338.814 215.652 338.937 215.531 339.033 215.39C339.128 215.249 339.195 215.091 339.23 214.924C339.265 214.758 339.266 214.586 339.234 214.418C339.202 214.251 339.138 214.091 339.044 213.949L338.598 213.266C337.124 211.017 335.622 208.838 334.118 206.792C334.019 206.653 333.893 206.535 333.748 206.445C333.603 206.356 333.442 206.296 333.273 206.27C333.105 206.244 332.933 206.251 332.768 206.292C332.603 206.333 332.447 206.407 332.311 206.509C332.172 206.608 332.054 206.734 331.964 206.879C331.874 207.024 331.814 207.186 331.787 207.355C331.76 207.523 331.767 207.696 331.808 207.862C331.848 208.028 331.921 208.184 332.023 208.322C333.498 210.332 334.977 212.482 336.43 214.688L336.87 215.364C336.956 215.503 337.068 215.624 337.201 215.721L337.208 215.715ZM327.014 201.825C327.271 202.004 327.584 202.083 327.895 202.049C328.207 202.014 328.495 201.868 328.706 201.638C328.918 201.408 329.039 201.108 329.048 200.795C329.056 200.482 328.951 200.177 328.751 199.935C326.83 197.648 324.856 195.474 322.881 193.479C322.761 193.357 322.618 193.261 322.46 193.195C322.303 193.129 322.134 193.095 321.963 193.094C321.793 193.094 321.623 193.127 321.466 193.191C321.308 193.256 321.164 193.351 321.043 193.472C320.922 193.592 320.826 193.735 320.76 193.892C320.694 194.05 320.66 194.219 320.66 194.389C320.659 194.56 320.692 194.729 320.757 194.887C320.822 195.045 320.917 195.189 321.037 195.31C322.959 197.252 324.904 199.39 326.767 201.604C326.833 201.694 326.914 201.77 327.006 201.831L327.014 201.825ZM292.439 177.151C292.549 177.232 292.673 177.291 292.804 177.326C295.489 178.152 298.11 179.174 300.645 180.386C300.956 180.534 301.312 180.554 301.637 180.439C301.961 180.325 302.227 180.086 302.375 179.776C302.523 179.466 302.542 179.109 302.428 178.784C302.313 178.46 302.074 178.194 301.764 178.045C299.115 176.772 296.372 175.702 293.561 174.844C293.264 174.75 292.944 174.765 292.657 174.888C292.371 175.011 292.139 175.232 292.003 175.512C291.867 175.792 291.836 176.112 291.916 176.413C291.996 176.714 292.182 176.976 292.439 177.151ZM314.871 189.636C315.145 189.846 315.49 189.938 315.832 189.893C316.173 189.848 316.482 189.669 316.692 189.395C316.901 189.122 316.993 188.777 316.948 188.435C316.902 188.094 316.723 187.784 316.45 187.575C314.807 186.209 313.145 184.908 311.433 183.74C310.763 183.271 310.079 182.813 309.406 182.37C309.263 182.277 309.103 182.213 308.935 182.182C308.768 182.151 308.595 182.153 308.428 182.189C308.262 182.225 308.103 182.293 307.963 182.389C307.822 182.486 307.702 182.61 307.61 182.753C307.517 182.896 307.453 183.056 307.422 183.224C307.391 183.391 307.394 183.564 307.43 183.731C307.465 183.898 307.533 184.056 307.63 184.196C307.727 184.337 307.851 184.457 307.994 184.55C308.642 184.977 309.301 185.419 309.952 185.879C311.558 186.988 313.203 188.268 314.792 189.58L314.871 189.636Z" fill="#196E7E" fill-opacity="0.4" stroke="#176D7E" stroke-opacity="0.4" stroke-width="0.148566" stroke-miterlimit="10"/>
<path d="M101.776 189.856C98.4947 189.373 95.3959 188.035 92.7907 185.977C90.1855 183.919 88.1656 181.212 86.9337 178.13L61.3678 114.135C60.4966 111.951 59.0714 110.031 57.2331 108.564C55.3947 107.097 53.2067 106.135 50.8853 105.772L24.9421 101.7C18.477 100.688 12.321 98.2279 6.93357 94.5038L3.43738 92.0848C2.80483 91.6506 2.30649 91.0477 1.99912 90.3447C1.69175 89.6418 1.58771 88.867 1.69885 88.1086C1.81 87.3503 2.13185 86.6389 2.62776 86.0554C3.12367 85.472 3.7737 85.04 4.50378 84.8086L8.54054 83.4994C14.7607 81.4884 21.357 80.907 27.8389 81.7985L53.868 85.4013C56.1954 85.722 58.5648 85.4304 60.7426 84.5554C62.9205 83.6804 64.8316 82.2521 66.2876 80.4114L108.942 26.4754C110.997 23.876 113.7 21.8648 116.781 20.6439C119.861 19.4229 123.211 19.0352 126.492 19.5197C108.859 43.1284 96.2817 74.0071 91.4314 86.9565C91.2771 87.3701 91.2179 87.8134 91.2583 88.2534C91.2987 88.6935 91.4376 89.119 91.6647 89.4984C91.8918 89.8778 92.2013 90.2013 92.5702 90.4449C92.9391 90.6886 93.3579 90.8461 93.7956 90.9057L96.0137 85.6521C96.532 84.4161 97.4988 83.4229 98.72 82.8719C99.9412 82.3208 101.326 82.2526 102.598 82.681L109.688 85.0753C110.646 85.3982 111.472 86.0305 112.033 86.8728C112.619 87.7505 113.49 88.3988 114.498 88.7077L117.065 89.4972L114.055 89.5811C113.119 89.6061 112.215 89.9203 111.466 90.4804L110.198 91.4222L108.139 92.8973L113.654 93.6574C117.197 94.1474 120.665 95.0843 123.975 96.4459L140.625 103.302L150.242 85.6604C151.245 83.8278 152.839 82.3896 154.765 81.5793C156.69 80.7689 158.834 80.634 160.849 81.1964L167.122 82.9465L153.129 108.439L157.764 110.35C157.928 110.416 158.065 110.535 158.154 110.689C158.243 110.842 158.277 111.02 158.252 111.195C158.227 111.371 158.144 111.532 158.016 111.654C157.888 111.776 157.722 111.851 157.546 111.867L152.561 112.358L158.722 140.809L152.161 140.673C150.082 140.63 148.077 139.889 146.467 138.569C144.858 137.249 143.737 135.427 143.286 133.396L138.904 113.679L121.212 115.435C117.654 115.786 114.065 115.684 110.53 115.13L105.027 114.266L106.583 116.274L107.527 117.544C108.086 118.296 108.864 118.858 109.754 119.151L112.613 120.104L109.93 120.123C108.877 120.13 107.86 120.501 107.051 121.174C106.273 121.818 105.302 122.185 104.292 122.218L96.7992 122.452C95.459 122.495 94.151 122.03 93.1375 121.149C92.124 120.269 91.48 119.038 91.3349 117.704L90.7159 112.023C90.2797 111.953 89.8335 111.982 89.4106 112.108C88.9877 112.235 88.5991 112.455 88.2737 112.754C87.9483 113.052 87.6946 113.42 87.5315 113.83C87.3684 114.24 87.3001 114.682 87.3317 115.123C88.3135 128.934 91.5874 162.147 101.776 189.856Z" fill="#1DA99D" fill-opacity="0.2"/>
<g clip-path="url(#clip0_236_6715)">
<path d="M222.082 546.806C222.082 546.091 222.665 545.492 223.398 545.492H224.047V592.306H223.398C222.682 592.306 222.082 591.724 222.082 590.992V546.79V546.806Z" fill="#1C1C61"/>
<path d="M222.082 487.365C222.082 486.65 222.665 486.051 223.398 486.051H224.047V532.865H223.398C222.682 532.865 222.082 532.283 222.082 531.551V487.348V487.365Z" fill="#1C1C61"/>
<path d="M221 442.963C221 442.247 221.583 441.648 222.316 441.648H224.064V464.723H222.316C221.599 464.723 221 464.14 221 463.408V442.946V442.963Z" fill="#1C1C61"/>
<path d="M523.035 518.508H523.685C524.401 518.508 525 519.09 525 519.822V591.008C525 591.723 524.417 592.322 523.685 592.322H523.035V518.524V518.508Z" fill="#1C1C61"/>
<path d="M224.047 441.865V464.84" stroke="black" stroke-width="0.156306"/>
<path d="M224.047 486.283V532.764" stroke="black" stroke-width="0.156306"/>
<path d="M468.333 323H278.749C248.538 323 224.047 347.467 224.047 377.65V885.35C224.047 915.533 248.538 940 278.749 940H468.333C498.544 940 523.035 915.533 523.035 885.35V377.65C523.035 347.467 498.544 323 468.333 323Z" fill="#1C1C61"/>
<path d="M465.289 330.402H281.8C253.999 330.402 231.461 352.918 231.461 380.693V882.305C231.461 910.08 253.999 932.596 281.8 932.596H465.289C493.091 932.596 515.628 910.08 515.628 882.305V380.693C515.628 352.918 493.091 330.402 465.289 330.402Z" fill="#FBF5E2" stroke="black" stroke-width="6.28832"/>
<rect x="333.992" y="352.381" width="78.1664" height="22.4223" rx="11.2112" fill="black"/>
<path d="M286.812 936.623L291.175 936.74V940H286.812V936.623Z" fill="black"/>
<path d="M519.77 387.881H523.033V392.24H519.77V387.881Z" fill="black"/>
<path d="M519.773 872.723H523.037V877.081H519.656L519.773 872.723Z" fill="black"/>
<path d="M406.006 326.26C405.889 327.724 404.673 328.872 403.175 328.872H343.893C342.395 328.872 341.179 327.724 341.062 326.26H405.989H406.006Z" fill="black" stroke="#272727" stroke-width="0.312613"/>
<path d="M456.359 323H460.722V326.377L456.359 326.161V323Z" fill="black"/>
<path d="M224.048 388.746H227.312L227.195 392.988L224.031 393.105V388.746H224.048Z" fill="black"/>
<path d="M224.047 872.723H227.211L227.327 877.081H224.064V872.723H224.047Z" fill="black"/>
</g>
<defs>
<clipPath id="clip0_236_6715">
<rect width="304" height="617" fill="white" transform="translate(221 323)"/>
</clipPath>
</defs>
</svg>
