<svg width="788" height="617" viewBox="0 0 788 617" fill="none" xmlns="http://www.w3.org/2000/svg">
<path d="M643.899 21.4679C646.396 19.2844 649.425 17.7945 652.681 17.1477C655.938 16.5009 659.308 16.72 662.453 17.7829L727.735 39.8541C729.962 40.6086 732.348 40.7702 734.657 40.3232C736.966 39.8761 739.118 38.8357 740.9 37.3049L760.832 20.2067C765.797 15.9444 771.664 12.8566 777.993 11.1738L782.102 10.0832C782.843 9.88362 783.625 9.89564 784.36 10.1179C785.094 10.3402 785.751 10.7638 786.256 11.3404C786.761 11.917 787.093 12.6235 787.215 13.3795C787.338 14.1354 787.245 14.9103 786.947 15.6159L785.324 19.537C782.818 25.5748 778.98 30.9711 774.096 35.3248L754.465 52.7924C752.711 54.3552 751.395 56.3473 750.648 58.5722C749.9 60.7971 749.747 63.178 750.203 65.4802L763.565 132.933C764.21 136.184 763.986 139.546 762.916 142.682C761.846 145.818 759.968 148.618 757.47 150.801C750.948 122.065 735.613 92.4582 728.908 80.3651C728.693 79.9793 728.394 79.6466 728.033 79.3918C727.672 79.137 727.258 78.9666 726.822 78.8933C726.386 78.8199 725.939 78.8455 725.514 78.9681C725.089 79.0907 724.698 79.3072 724.368 79.6015L726.927 84.6982C727.531 85.8946 727.659 87.2746 727.286 88.5614C726.913 89.8481 726.066 90.9465 724.915 91.636L718.493 95.4768C717.625 95.9969 716.608 96.2145 715.603 96.0954C714.555 95.9716 713.497 96.2137 712.607 96.7804L710.341 98.2211L712.231 95.8764C712.819 95.148 713.167 94.2559 713.227 93.3225L713.332 91.7471L713.546 89.223L709.389 92.926C706.717 95.3042 703.754 97.335 700.57 98.9699L684.55 107.19L691.733 125.955C692.476 127.907 692.537 130.053 691.904 132.044C691.271 134.035 689.982 135.754 688.247 136.922L682.845 140.56L672.528 113.371L668.066 115.657C667.909 115.74 667.729 115.767 667.555 115.735C667.381 115.703 667.223 115.613 667.106 115.481C666.989 115.348 666.92 115.18 666.911 115.003C666.901 114.827 666.951 114.653 667.053 114.508L669.915 110.396L644.268 96.6223L648.629 91.7184C650.01 90.1648 651.875 89.1198 653.924 88.7516C655.973 88.3833 658.086 88.7132 659.925 89.6881L677.77 99.1474L687.914 84.5456C689.956 81.6105 692.363 78.9461 695.077 76.6162L699.306 72.9899L696.769 72.8707L695.19 72.765C694.254 72.7022 693.322 72.9296 692.522 73.4162L689.941 74.9736L691.667 72.9199C692.346 72.1142 692.723 71.0991 692.737 70.047C692.751 69.037 693.101 68.0604 693.732 67.2704L698.416 61.4174C699.253 60.3695 700.455 59.6761 701.783 59.4763C703.111 59.2766 704.465 59.5854 705.575 60.3406L710.299 63.5559C710.635 63.2695 710.903 62.911 711.081 62.5071C711.259 62.1032 711.343 61.6644 711.328 61.2234C711.312 60.7824 711.197 60.3506 710.99 59.9603C710.784 59.57 710.492 59.2312 710.136 58.9692C698.99 50.7546 671.594 31.6945 643.899 21.4679Z" fill="#1DA99D" fill-opacity="0.2"/>
<path d="M516.917 105.679C516.145 105.875 515.361 106.109 514.605 106.371C514.28 106.486 514.013 106.726 513.864 107.037C513.714 107.348 513.695 107.705 513.808 108.031C513.864 108.193 513.952 108.342 514.066 108.47C514.18 108.598 514.319 108.702 514.473 108.776C514.628 108.85 514.795 108.892 514.966 108.901C515.137 108.91 515.309 108.885 515.47 108.828C518.047 107.922 520.754 107.438 523.486 107.396C523.656 107.395 523.825 107.36 523.982 107.294C524.139 107.228 524.281 107.131 524.401 107.01C524.521 106.888 524.615 106.744 524.679 106.587C524.743 106.429 524.776 106.26 524.774 106.089C524.773 105.919 524.738 105.751 524.672 105.594C524.605 105.437 524.509 105.295 524.387 105.175C524.266 105.055 524.122 104.961 523.964 104.897C523.806 104.833 523.637 104.801 523.466 104.802C521.256 104.825 519.056 105.12 516.917 105.679ZM507.115 110.34C506.954 110.38 506.803 110.451 506.669 110.548C504.23 112.302 502.084 114.429 500.31 116.852C500.21 116.99 500.138 117.147 500.098 117.312C500.059 117.478 500.052 117.65 500.079 117.818C500.106 117.986 500.166 118.147 500.255 118.292C500.345 118.437 500.462 118.563 500.6 118.663C500.738 118.763 500.894 118.835 501.06 118.874C501.226 118.914 501.398 118.92 501.566 118.893C501.735 118.866 501.896 118.807 502.041 118.717C502.186 118.628 502.312 118.511 502.412 118.373C504.034 116.16 505.994 114.215 508.22 112.609C508.362 112.507 508.482 112.377 508.573 112.228C508.664 112.079 508.724 111.913 508.751 111.74C508.777 111.567 508.768 111.391 508.725 111.221C508.682 111.052 508.606 110.893 508.501 110.753C508.337 110.555 508.118 110.409 507.871 110.336C507.624 110.262 507.361 110.264 507.115 110.34ZM531.535 106.349C531.333 106.403 531.147 106.504 530.992 106.645C530.838 106.785 530.719 106.961 530.647 107.157C530.586 107.316 530.557 107.486 530.562 107.657C530.568 107.828 530.607 107.996 530.678 108.151C530.749 108.306 530.85 108.446 530.976 108.562C531.101 108.678 531.249 108.768 531.409 108.826C533.975 109.78 536.378 111.124 538.532 112.812C538.666 112.917 538.82 112.995 538.984 113.041C539.148 113.087 539.32 113.1 539.489 113.079C539.659 113.059 539.822 113.005 539.971 112.922C540.12 112.838 540.25 112.726 540.356 112.592C540.461 112.458 540.539 112.305 540.585 112.14C540.631 111.976 540.644 111.805 540.624 111.635C540.603 111.466 540.55 111.303 540.466 111.154C540.382 111.006 540.27 110.875 540.136 110.77C537.774 108.904 535.137 107.416 532.319 106.358C532.078 106.29 531.823 106.287 531.581 106.35L531.535 106.349ZM497.287 124.106C497.06 124.155 496.85 124.264 496.68 124.422C496.51 124.58 496.386 124.782 496.322 125.004C495.65 127.585 495.472 130.269 495.797 132.916C495.848 133.31 495.9 133.694 495.97 134.079C495.999 134.247 496.061 134.408 496.152 134.553C496.243 134.697 496.362 134.822 496.502 134.921C496.641 135.019 496.799 135.089 496.966 135.127C497.132 135.165 497.305 135.169 497.473 135.14C497.642 135.111 497.803 135.05 497.947 134.958C498.092 134.867 498.217 134.749 498.315 134.609C498.414 134.47 498.484 134.312 498.522 134.146C498.56 133.979 498.564 133.807 498.535 133.639L498.376 132.597C498.093 130.274 498.249 127.919 498.838 125.654C498.881 125.489 498.891 125.317 498.868 125.148C498.844 124.979 498.787 124.816 498.7 124.669C498.614 124.522 498.499 124.394 498.362 124.291C498.226 124.189 498.07 124.114 497.905 124.072C497.714 124.037 497.518 124.05 497.334 124.108L497.287 124.106ZM544.965 116.754C544.806 116.798 544.655 116.869 544.519 116.962C544.377 117.064 544.256 117.194 544.166 117.344C544.075 117.493 544.015 117.66 543.989 117.833C543.964 118.006 543.974 118.182 544.018 118.352C544.062 118.521 544.14 118.68 544.247 118.818C545.89 121.051 547.261 123.471 548.332 126.027C548.484 126.319 548.74 126.543 549.049 126.654C549.359 126.766 549.699 126.756 550.002 126.628C550.305 126.5 550.548 126.262 550.684 125.962C550.819 125.663 550.836 125.323 550.731 125.011C549.575 122.27 548.101 119.675 546.338 117.279C546.192 117.072 545.989 116.912 545.753 116.819C545.517 116.726 545.26 116.704 545.012 116.756L544.965 116.754ZM351.701 177.204C351.366 177.286 351.078 177.497 350.899 177.792C350.721 178.087 350.666 178.44 350.749 178.774C350.831 179.109 351.043 179.397 351.337 179.576C351.632 179.754 351.986 179.808 352.321 179.726C354.957 179.111 357.768 178.567 360.678 178.158C361.017 178.102 361.321 177.916 361.525 177.639C361.728 177.362 361.815 177.016 361.767 176.676C361.742 176.507 361.683 176.344 361.595 176.198C361.506 176.052 361.39 175.924 361.252 175.823C361.114 175.722 360.958 175.649 360.791 175.609C360.625 175.568 360.453 175.561 360.284 175.587C357.307 176.05 354.43 176.601 351.728 177.233L351.701 177.204ZM343.41 179.549L343.326 179.546C340.553 180.476 337.836 181.566 335.189 182.81C334.896 182.971 334.676 183.236 334.573 183.554C334.471 183.871 334.493 184.215 334.637 184.516C334.78 184.817 335.033 185.052 335.344 185.172C335.655 185.293 336 185.29 336.309 185.164C338.86 183.961 341.479 182.908 344.153 182.01C344.48 181.898 344.749 181.662 344.901 181.353C345.054 181.044 345.078 180.687 344.968 180.36C344.86 180.053 344.638 179.798 344.349 179.647C344.06 179.497 343.724 179.462 343.41 179.549ZM368.707 174.516C368.539 174.545 368.379 174.608 368.235 174.699C368.091 174.791 367.967 174.91 367.869 175.049C367.772 175.189 367.702 175.346 367.665 175.512C367.628 175.678 367.625 175.85 367.654 176.018C367.684 176.186 367.746 176.346 367.838 176.489C367.929 176.633 368.048 176.757 368.188 176.855C368.328 176.953 368.485 177.022 368.651 177.059C368.818 177.095 368.99 177.099 369.158 177.07C370.629 176.926 372.155 176.803 373.709 176.691C375.019 176.607 376.358 176.524 377.695 176.45C378.021 176.407 378.318 176.242 378.528 175.989C378.738 175.736 378.844 175.414 378.826 175.086C378.808 174.758 378.668 174.449 378.432 174.22C378.196 173.991 377.883 173.86 377.555 173.851C376.207 173.925 374.85 174.007 373.521 174.1C371.958 174.212 370.403 174.343 368.904 174.486C368.838 174.491 368.772 174.501 368.707 174.516ZM500.022 140.652C499.904 140.685 499.79 140.731 499.681 140.789C499.386 140.967 499.173 141.254 499.088 141.588C499.003 141.922 499.052 142.275 499.225 142.573C500.775 145.147 502.693 147.482 504.917 149.503C505.176 149.712 505.505 149.815 505.838 149.791C506.17 149.766 506.48 149.615 506.705 149.369C506.929 149.123 507.052 148.801 507.046 148.468C507.041 148.135 506.908 147.817 506.676 147.578C504.635 145.736 502.879 143.602 501.467 141.244C501.322 141.003 501.103 140.815 500.843 140.709C500.583 140.602 500.295 140.582 500.022 140.652ZM327.907 186.955C327.77 186.995 327.64 187.053 327.518 187.128C326.294 187.942 325.087 188.795 323.935 189.687C322.782 190.579 321.647 191.537 320.565 192.552C320.434 192.668 320.328 192.809 320.254 192.967C320.179 193.124 320.137 193.296 320.131 193.47C320.125 193.644 320.154 193.818 320.217 193.981C320.28 194.143 320.376 194.291 320.498 194.416C320.615 194.544 320.757 194.648 320.915 194.721C321.072 194.794 321.243 194.835 321.417 194.841C321.59 194.847 321.764 194.818 321.926 194.757C322.089 194.695 322.237 194.602 322.363 194.482C323.38 193.535 324.444 192.639 325.55 191.797C326.644 190.95 327.803 190.133 328.979 189.363C329.235 189.192 329.423 188.936 329.509 188.64C329.594 188.345 329.573 188.028 329.447 187.747C329.322 187.466 329.102 187.238 328.825 187.103C328.547 186.969 328.232 186.936 327.933 187.012L327.907 186.955ZM385.911 173.608C385.595 173.679 385.318 173.866 385.133 174.131C384.948 174.396 384.869 174.721 384.911 175.042C384.954 175.362 385.114 175.655 385.362 175.864C385.609 176.072 385.926 176.18 386.249 176.167C389.052 176.127 391.974 176.138 394.82 176.211C395.147 176.195 395.456 176.057 395.686 175.824C395.916 175.591 396.05 175.281 396.061 174.954C396.073 174.627 395.961 174.307 395.749 174.059C395.536 173.81 395.237 173.651 394.912 173.611C392.04 173.509 389.126 173.527 386.249 173.564C386.135 173.566 386.022 173.581 385.911 173.608ZM551.717 132.463C551.393 132.538 551.111 132.733 550.927 133.01C550.744 133.286 550.673 133.622 550.73 133.949C551.21 136.676 551.368 139.45 551.201 142.213C551.182 142.558 551.299 142.896 551.528 143.154C551.756 143.412 552.078 143.569 552.422 143.591C552.593 143.603 552.764 143.582 552.926 143.527C553.087 143.473 553.237 143.387 553.365 143.274C553.493 143.162 553.598 143.025 553.673 142.871C553.748 142.718 553.791 142.551 553.801 142.381C553.981 139.41 553.809 136.429 553.286 133.499C553.258 133.331 553.196 133.17 553.105 133.025C553.014 132.881 552.895 132.756 552.755 132.659C552.615 132.561 552.457 132.492 552.29 132.455C552.123 132.419 551.951 132.416 551.783 132.447C551.751 132.448 551.719 132.454 551.689 132.462L551.717 132.463ZM403.133 174.016C402.829 174.088 402.561 174.268 402.378 174.523C402.196 174.777 402.112 175.089 402.142 175.401C402.172 175.712 402.314 176.002 402.541 176.217C402.768 176.433 403.066 176.559 403.379 176.572C406.22 176.748 409.097 176.981 411.916 177.268C412.092 177.295 412.272 177.287 412.444 177.242C412.617 177.198 412.778 177.119 412.919 177.01C413.059 176.901 413.176 176.764 413.262 176.608C413.348 176.453 413.401 176.281 413.419 176.104C413.436 175.927 413.416 175.748 413.362 175.579C413.307 175.41 413.219 175.253 413.102 175.119C412.985 174.985 412.841 174.877 412.681 174.8C412.52 174.723 412.345 174.68 412.167 174.674C409.32 174.395 406.415 174.161 403.536 173.984C403.401 173.97 403.265 173.981 403.133 174.016ZM315.417 198.657C315.131 198.737 314.878 198.908 314.699 199.145C312.942 201.514 311.399 204.035 310.089 206.678C310.012 206.971 310.039 207.282 310.167 207.558C310.294 207.833 310.514 208.056 310.787 208.187C311.061 208.318 311.372 208.35 311.667 208.277C311.962 208.204 312.222 208.03 312.402 207.786C313.637 205.282 315.097 202.895 316.765 200.655C316.867 200.518 316.942 200.362 316.983 200.196C317.025 200.031 317.034 199.858 317.009 199.689C316.983 199.52 316.925 199.357 316.836 199.211C316.748 199.064 316.632 198.937 316.494 198.836C316.334 198.726 316.152 198.654 315.961 198.623C315.77 198.592 315.575 198.603 315.389 198.656L315.417 198.657ZM420.272 175.727C419.982 175.805 419.727 175.98 419.551 176.223C419.375 176.466 419.288 176.762 419.305 177.061C419.321 177.361 419.441 177.646 419.643 177.868C419.845 178.09 420.118 178.235 420.415 178.28C421.465 178.42 422.514 178.578 423.564 178.737C425.273 178.994 427.009 179.28 428.883 179.608C429.223 179.667 429.572 179.589 429.854 179.39C430.136 179.192 430.328 178.89 430.387 178.551C430.446 178.211 430.368 177.863 430.169 177.581C429.971 177.299 429.669 177.107 429.329 177.048C427.473 176.721 425.682 176.433 423.954 176.167C422.895 176.008 421.837 175.849 420.777 175.708C420.609 175.681 420.438 175.688 420.272 175.727ZM512.523 152.237C512.272 152.305 512.046 152.447 511.876 152.645C511.706 152.842 511.598 153.086 511.568 153.345C511.538 153.604 511.586 153.866 511.706 154.097C511.826 154.328 512.012 154.519 512.241 154.643C513.793 155.474 515.403 156.192 517.058 156.793C518.173 157.196 519.337 157.564 520.522 157.849C520.845 157.91 521.18 157.847 521.459 157.673C521.738 157.498 521.941 157.224 522.027 156.906C522.112 156.588 522.075 156.25 521.921 155.959C521.768 155.667 521.51 155.445 521.199 155.335C520.09 155.035 518.991 154.688 517.941 154.286C516.403 153.718 514.907 153.041 513.465 152.261C513.165 152.138 512.83 152.129 512.523 152.237ZM666.884 114.174C666.745 114.21 666.614 114.269 666.495 114.347C664.123 115.914 661.715 117.461 659.262 118.941C658.969 119.121 658.759 119.41 658.678 119.745C658.598 120.08 658.654 120.433 658.835 120.726C659.015 121.019 659.304 121.229 659.64 121.309C659.975 121.39 660.328 121.334 660.622 121.153C663.075 119.655 665.53 118.1 667.93 116.516C668.193 116.349 668.387 116.093 668.477 115.795C668.566 115.498 668.546 115.177 668.419 114.893C668.292 114.609 668.067 114.38 667.785 114.248C667.503 114.116 667.183 114.09 666.884 114.174ZM437.247 178.646C436.96 178.718 436.706 178.886 436.527 179.122C436.349 179.357 436.257 179.647 436.266 179.943C436.275 180.238 436.385 180.522 436.577 180.746C436.77 180.971 437.034 181.123 437.325 181.177C439.912 181.68 442.498 182.21 445.085 182.732L445.761 182.868C445.929 182.903 446.102 182.905 446.27 182.873C446.438 182.842 446.598 182.777 446.741 182.683C446.884 182.59 447.007 182.469 447.103 182.327C447.199 182.186 447.267 182.026 447.301 181.859C447.367 181.52 447.297 181.169 447.107 180.881C446.916 180.593 446.62 180.392 446.282 180.321L445.605 180.184C443.009 179.663 440.423 179.132 437.826 178.629C437.634 178.588 437.436 178.594 437.247 178.646ZM652.165 123.157C652.052 123.182 651.943 123.225 651.843 123.285C649.375 124.69 646.842 126.074 644.329 127.403C644.024 127.562 643.795 127.837 643.692 128.166C643.589 128.495 643.621 128.851 643.781 129.156C643.941 129.461 644.216 129.69 644.545 129.793C644.874 129.895 645.23 129.863 645.536 129.703C648.086 128.357 650.638 126.965 653.154 125.543C653.433 125.39 653.647 125.141 653.753 124.841C653.86 124.541 653.853 124.213 653.733 123.918C653.613 123.624 653.389 123.383 653.104 123.243C652.818 123.103 652.491 123.072 652.184 123.157L652.165 123.157ZM550.607 149.479C550.388 149.535 550.188 149.648 550.026 149.806C549.865 149.964 549.748 150.162 549.687 150.379C549.027 152.511 548.191 154.585 547.188 156.578C546.918 156.569 546.645 156.634 546.373 156.652C546.054 156.691 545.76 156.846 545.548 157.088C545.337 157.329 545.221 157.641 545.225 157.962C545.229 158.283 545.351 158.592 545.568 158.829C545.785 159.066 546.082 159.215 546.402 159.247C546.518 159.48 546.704 159.673 546.934 159.797C547.234 159.961 547.587 160 547.915 159.905C548.244 159.81 548.522 159.589 548.688 159.291L548.838 159.025L549.213 158.983C551.2 158.783 553.225 158.547 555.215 158.264C555.555 158.216 555.863 158.038 556.073 157.766C556.284 157.495 556.379 157.152 556.34 156.811C556.319 156.642 556.264 156.478 556.18 156.33C556.095 156.181 555.982 156.051 555.847 155.947C555.712 155.842 555.557 155.765 555.393 155.721C555.228 155.676 555.056 155.664 554.886 155.686C553.338 155.883 551.772 156.07 550.198 156.238C550.955 154.572 551.606 152.859 552.145 151.11C552.215 150.889 552.223 150.654 552.171 150.428C552.118 150.203 552.006 149.996 551.846 149.828C551.687 149.66 551.485 149.539 551.262 149.475C551.039 149.412 550.803 149.41 550.579 149.468L550.607 149.479ZM528.96 156.881C528.668 156.962 528.413 157.143 528.24 157.392C528.067 157.64 527.985 157.941 528.01 158.243C528.034 158.545 528.163 158.83 528.375 159.047C528.586 159.264 528.866 159.402 529.168 159.435C532.078 159.711 535.002 159.815 537.925 159.747C538.269 159.739 538.596 159.596 538.835 159.347C539.073 159.098 539.203 158.765 539.195 158.421C539.187 158.077 539.043 157.749 538.794 157.511C538.546 157.273 538.212 157.144 537.868 157.151C535.048 157.214 532.227 157.114 529.419 156.85C529.265 156.837 529.11 156.847 528.96 156.881ZM636.92 131.188C636.836 131.208 636.753 131.236 636.675 131.272C634.119 132.516 631.507 133.738 628.907 134.896C628.593 135.035 628.347 135.294 628.223 135.615C628.1 135.936 628.109 136.293 628.249 136.607C628.389 136.922 628.648 137.168 628.969 137.291C629.29 137.415 629.648 137.405 629.962 137.266C632.59 136.1 635.23 134.869 637.814 133.617C638.12 133.487 638.363 133.244 638.495 132.939C638.627 132.634 638.636 132.29 638.521 131.979C638.407 131.667 638.177 131.411 637.879 131.264C637.581 131.117 637.238 131.09 636.92 131.188ZM621.189 138.203C621.131 138.219 621.074 138.239 621.019 138.263C618.394 139.335 615.705 140.378 613.036 141.374C612.877 141.434 612.73 141.524 612.605 141.639C612.481 141.755 612.38 141.894 612.309 142.049C612.238 142.204 612.198 142.371 612.192 142.541C612.185 142.711 612.213 142.881 612.272 143.04C612.331 143.2 612.422 143.346 612.537 143.471C612.653 143.596 612.793 143.696 612.948 143.767C613.102 143.838 613.27 143.878 613.44 143.884C613.61 143.891 613.78 143.863 613.94 143.804C616.636 142.809 619.354 141.749 622.007 140.668C622.315 140.541 622.563 140.302 622.7 139.999C622.838 139.696 622.854 139.352 622.746 139.037C622.638 138.722 622.414 138.46 622.119 138.305C621.825 138.15 621.482 138.113 621.161 138.202L621.189 138.203ZM454.148 182.047C453.905 182.103 453.684 182.228 453.512 182.407C453.34 182.587 453.224 182.813 453.178 183.057C453.145 183.225 453.146 183.397 453.18 183.564C453.215 183.731 453.281 183.889 453.377 184.031C453.472 184.172 453.595 184.293 453.737 184.387C453.88 184.48 454.04 184.545 454.207 184.577C457.36 185.193 460.142 185.722 462.705 186.13C462.873 186.159 463.045 186.154 463.212 186.116C463.378 186.078 463.535 186.008 463.674 185.91C463.814 185.811 463.932 185.686 464.023 185.542C464.114 185.397 464.175 185.237 464.204 185.069C464.233 184.901 464.228 184.729 464.19 184.562C464.152 184.396 464.082 184.239 463.983 184.1C463.885 183.961 463.76 183.842 463.615 183.752C463.471 183.661 463.31 183.599 463.142 183.571C460.599 183.135 457.834 182.635 454.699 182.029C454.517 181.991 454.328 181.997 454.148 182.047ZM563.257 154.501C562.921 154.572 562.626 154.774 562.438 155.062C562.25 155.35 562.184 155.701 562.255 156.037C562.326 156.374 562.528 156.669 562.816 156.856C563.105 157.044 563.456 157.11 563.793 157.039C566.61 156.589 569.485 156.076 572.316 155.523C572.483 155.491 572.642 155.425 572.784 155.331C572.926 155.237 573.049 155.116 573.144 154.975C573.239 154.833 573.305 154.675 573.339 154.508C573.373 154.341 573.374 154.169 573.341 154.002C573.308 153.835 573.243 153.676 573.149 153.534C573.055 153.392 572.933 153.27 572.792 153.174C572.651 153.079 572.492 153.013 572.325 152.979C572.158 152.945 571.985 152.945 571.818 152.977C568.998 153.521 566.178 154.027 563.361 154.477L563.257 154.501ZM605.036 144.206L604.952 144.203C602.249 145.105 599.501 145.977 596.774 146.785C596.443 146.884 596.166 147.111 596.003 147.415C595.84 147.719 595.804 148.075 595.904 148.405C596.003 148.735 596.23 149.012 596.534 149.176C596.839 149.339 597.195 149.374 597.525 149.275C600.272 148.44 603.047 147.605 605.779 146.667C606.11 146.569 606.388 146.343 606.552 146.04C606.716 145.737 606.752 145.382 606.654 145.052C606.555 144.721 606.33 144.444 606.027 144.28C605.723 144.116 605.367 144.079 605.037 144.178L605.036 144.206ZM580.164 151.203C579.829 151.285 579.541 151.497 579.362 151.792C579.183 152.086 579.129 152.44 579.211 152.774C579.294 153.109 579.505 153.397 579.8 153.575C580.095 153.754 580.449 153.808 580.783 153.726C583.608 153.08 586.434 152.388 589.186 151.655C589.52 151.568 589.805 151.352 589.98 151.055C590.154 150.757 590.203 150.403 590.116 150.07C590.029 149.736 589.812 149.451 589.515 149.277C589.217 149.103 588.863 149.054 588.529 149.141C585.777 149.864 582.988 150.557 580.211 151.196L580.164 151.203ZM542.405 164.506C542.139 164.575 541.901 164.727 541.727 164.939C539.956 167.103 538.01 169.118 535.91 170.964C535.762 171.07 535.639 171.206 535.548 171.363C535.456 171.519 535.399 171.693 535.379 171.874C535.359 172.054 535.377 172.236 535.432 172.409C535.488 172.582 535.578 172.741 535.699 172.877C535.82 173.012 535.967 173.121 536.133 173.196C536.298 173.271 536.477 173.31 536.658 173.312C536.84 173.313 537.02 173.276 537.186 173.204C537.353 173.131 537.502 173.025 537.624 172.891C539.843 170.96 541.898 168.849 543.769 166.579C543.94 166.366 544.039 166.105 544.053 165.832C544.067 165.56 543.996 165.29 543.848 165.06C543.701 164.83 543.485 164.653 543.231 164.552C542.978 164.451 542.699 164.432 542.433 164.498L542.405 164.506ZM471.134 184.882C470.882 184.947 470.655 185.086 470.482 185.281C470.308 185.476 470.197 185.718 470.162 185.976C470.14 186.145 470.152 186.316 470.197 186.481C470.242 186.645 470.319 186.799 470.424 186.933C470.528 187.068 470.658 187.181 470.806 187.265C470.954 187.349 471.118 187.404 471.287 187.425L472.095 187.528C474.763 187.866 477.396 188.137 479.929 188.32C480.099 188.335 480.27 188.316 480.432 188.264C480.595 188.212 480.745 188.128 480.874 188.017C481.003 187.906 481.109 187.77 481.185 187.617C481.261 187.465 481.306 187.299 481.316 187.129C481.331 186.959 481.312 186.787 481.26 186.625C481.208 186.462 481.124 186.312 481.013 186.182C480.902 186.052 480.766 185.945 480.614 185.868C480.461 185.792 480.295 185.746 480.124 185.734C477.638 185.552 475.042 185.282 472.42 184.955L471.621 184.852C471.459 184.827 471.294 184.834 471.135 184.872L471.134 184.882ZM488.317 186.137C488.015 186.217 487.751 186.404 487.575 186.663C487.4 186.922 487.324 187.236 487.362 187.547C487.4 187.858 487.549 188.144 487.781 188.354C488.014 188.563 488.315 188.681 488.628 188.686C491.615 188.709 494.551 188.617 497.35 188.409C497.52 188.396 497.686 188.35 497.839 188.273C497.991 188.196 498.127 188.089 498.238 187.96C498.349 187.831 498.434 187.68 498.487 187.518C498.54 187.356 498.561 187.185 498.548 187.015C498.535 186.845 498.489 186.679 498.412 186.527C498.335 186.374 498.228 186.239 498.099 186.128C497.969 186.016 497.819 185.932 497.657 185.879C497.494 185.826 497.323 185.805 497.153 185.818C494.428 186.019 491.54 186.112 488.646 186.093C488.535 186.085 488.424 186.097 488.318 186.128L488.317 186.137ZM529.527 175.84C529.394 175.872 529.269 175.927 529.156 176.004C526.786 177.512 524.307 178.843 521.741 179.985C521.426 180.125 521.18 180.384 521.057 180.705C520.933 181.026 520.942 181.383 521.082 181.697C521.222 182.012 521.481 182.257 521.803 182.381C522.124 182.504 522.481 182.495 522.796 182.355C525.484 181.166 528.077 179.774 530.554 178.191C530.818 178.026 531.015 177.772 531.107 177.475C531.199 177.178 531.182 176.857 531.057 176.572C530.932 176.287 530.709 176.056 530.428 175.922C530.147 175.787 529.827 175.758 529.527 175.84ZM505.471 184.808C505.134 184.88 504.84 185.083 504.653 185.372C504.466 185.661 504.401 186.012 504.473 186.349C504.545 186.686 504.748 186.98 505.038 187.167C505.327 187.354 505.679 187.418 506.016 187.346C508.12 186.983 510.189 186.562 512.188 186.017C512.98 185.812 513.772 185.589 514.546 185.364C514.71 185.316 514.862 185.235 514.995 185.128C515.127 185.02 515.237 184.888 515.318 184.738C515.399 184.587 515.45 184.423 515.468 184.253C515.485 184.084 515.469 183.912 515.421 183.749C515.372 183.585 515.291 183.433 515.184 183.301C515.076 183.168 514.943 183.058 514.793 182.977C514.643 182.896 514.479 182.845 514.309 182.828C514.139 182.81 513.967 182.826 513.804 182.875C513.058 183.091 512.294 183.306 511.522 183.503C509.636 184.005 507.595 184.426 505.565 184.783L505.471 184.808Z" fill="#196E7E" fill-opacity="0.4" stroke="#176D7E" stroke-opacity="0.4" stroke-width="0.148566" stroke-miterlimit="10"/>
<path d="M1.08203 223.805C1.08203 223.09 1.66485 222.491 2.39754 222.491H3.04697V269.305H2.39754C1.68151 269.305 1.08203 268.723 1.08203 267.991V223.789V223.805Z" fill="#1C1C61"/>
<path d="M1.08203 164.365C1.08203 163.65 1.66485 163.051 2.39754 163.051H3.04697V209.865H2.39754C1.68151 209.865 1.08203 209.283 1.08203 208.551V164.348V164.365Z" fill="#1C1C61"/>
<path d="M0 119.963C0 119.247 0.582822 118.648 1.31551 118.648H3.06398V141.723H1.31551C0.599474 141.723 0 141.14 0 140.408V119.946V119.963Z" fill="#1C1C61"/>
<path d="M302.035 195.508H302.685C303.401 195.508 304 196.09 304 196.822V268.008C304 268.723 303.417 269.322 302.685 269.322H302.035V195.524V195.508Z" fill="#1C1C61"/>
<path d="M3.04883 118.865V141.84" stroke="black" stroke-width="0.156306"/>
<path d="M3.04883 163.283V209.764" stroke="black" stroke-width="0.156306"/>
<path d="M247.335 0H57.7508C27.5398 0 3.04883 24.4675 3.04883 54.6496V562.35C3.04883 592.533 27.5398 617 57.7508 617H247.335C277.546 617 302.037 592.533 302.037 562.35V54.6496C302.037 24.4675 277.546 0 247.335 0Z" fill="#1C1C61"/>
<path d="M244.287 7.40332H60.7982C32.9966 7.40332 10.459 29.9193 10.459 57.6943V559.306C10.459 587.081 32.9966 609.597 60.7982 609.597H244.287C272.089 609.597 294.626 587.081 294.626 559.306V57.6943C294.626 29.9193 272.089 7.40332 244.287 7.40332Z" fill="#FBF5E2" stroke="black" stroke-width="6.28832"/>
<rect x="112.994" y="29.3809" width="78.1664" height="22.4223" rx="11.2112" fill="black"/>
<path d="M298.771 64.8809H302.035V69.2395H298.771V64.8809Z" fill="black"/>
<path d="M185.006 3.26074C184.889 4.72472 183.673 5.87261 182.175 5.87261H122.893C121.395 5.87261 120.179 4.72472 120.062 3.26074H184.989H185.006Z" fill="black" stroke="#272727" stroke-width="0.312613"/>
<path d="M235.359 0H239.722V3.37713L235.359 3.16086V0Z" fill="black"/>
<path d="M3.0479 65.7461H6.31171L6.19514 69.9883L3.03125 70.1048V65.7461H3.0479Z" fill="black"/>
</svg>
