<svg width="461" height="914" viewBox="0 0 461 914" fill="none" xmlns="http://www.w3.org/2000/svg">
<path d="M101.778 189.856C98.4966 189.373 95.3978 188.035 92.7926 185.977C90.1875 183.919 88.1676 181.212 86.9356 178.13L61.3697 114.135C60.4985 111.951 59.0734 110.031 57.235 108.564C55.3966 107.097 53.2087 106.135 50.8872 105.772L24.944 101.7C18.479 100.688 12.3229 98.2279 6.93553 94.5038L3.43933 92.0848C2.80678 91.6506 2.30844 91.0477 2.00107 90.3447C1.6937 89.6418 1.58966 88.867 1.70081 88.1086C1.81195 87.3503 2.1338 86.6389 2.62971 86.0554C3.12562 85.472 3.77565 85.04 4.50574 84.8086L8.54249 83.4994C14.7627 81.4884 21.3589 80.907 27.8409 81.7985L53.8699 85.4013C56.1973 85.722 58.5667 85.4304 60.7446 84.5554C62.9224 83.6804 64.8336 82.2521 66.2895 80.4114L108.944 26.4754C110.999 23.876 113.702 21.8648 116.783 20.6439C119.863 19.4229 123.213 19.0352 126.494 19.5197C108.861 43.1284 96.2837 74.0071 91.4334 86.9565C91.279 87.3701 91.2198 87.8134 91.2602 88.2534C91.3006 88.6935 91.4395 89.119 91.6666 89.4984C91.8938 89.8778 92.2033 90.2013 92.5722 90.4449C92.9411 90.6886 93.3599 90.8461 93.7976 90.9057L96.0157 85.6521C96.534 84.4161 97.5007 83.4229 98.7219 82.8719C99.9431 82.3208 101.328 82.2526 102.6 82.681L109.69 85.0753C110.648 85.3982 111.474 86.0305 112.035 86.8728C112.621 87.7505 113.492 88.3988 114.5 88.7077L117.067 89.4972L114.057 89.5811C113.121 89.6061 112.217 89.9203 111.468 90.4804L110.2 91.4222L108.141 92.8973L113.656 93.6574C117.199 94.1474 120.667 95.0843 123.977 96.4459L140.627 103.302L150.244 85.6604C151.247 83.8278 152.841 82.3896 154.767 81.5793C156.692 80.7689 158.836 80.634 160.851 81.1964L167.124 82.9465L153.131 108.439L157.766 110.35C157.93 110.416 158.067 110.535 158.156 110.689C158.245 110.842 158.279 111.02 158.254 111.195C158.229 111.371 158.146 111.532 158.018 111.654C157.89 111.776 157.724 111.851 157.548 111.867L152.563 112.358L158.724 140.809L152.163 140.673C150.084 140.63 148.079 139.889 146.469 138.569C144.86 137.249 143.739 135.427 143.288 133.396L138.906 113.679L121.214 115.435C117.656 115.786 114.067 115.684 110.532 115.13L105.029 114.266L106.585 116.274L107.529 117.544C108.088 118.296 108.866 118.858 109.756 119.151L112.615 120.104L109.932 120.123C108.879 120.13 107.862 120.501 107.053 121.174C106.275 121.818 105.304 122.185 104.294 122.218L96.8011 122.452C95.461 122.495 94.1529 122.03 93.1394 121.149C92.1259 120.269 91.482 119.038 91.3369 117.704L90.7178 112.023C90.2816 111.953 89.8354 111.982 89.4125 112.108C88.9897 112.235 88.601 112.455 88.2757 112.754C87.9503 113.052 87.6965 113.42 87.5334 113.83C87.3703 114.24 87.302 114.682 87.3337 115.123C88.3154 128.934 91.5894 162.147 101.778 189.856Z" fill="#1DA99D" fill-opacity="0.2"/>
<path d="M248.249 231.834C248.9 232.294 249.586 232.739 250.276 233.144C250.575 233.317 250.93 233.364 251.264 233.276C251.597 233.188 251.882 232.971 252.056 232.673C252.143 232.525 252.2 232.362 252.223 232.192C252.246 232.023 252.235 231.85 252.191 231.684C252.147 231.519 252.071 231.363 251.967 231.228C251.863 231.092 251.732 230.977 251.584 230.892C249.222 229.519 247.098 227.773 245.294 225.721C245.182 225.593 245.046 225.487 244.894 225.41C244.741 225.334 244.576 225.288 244.406 225.276C244.236 225.264 244.065 225.285 243.903 225.339C243.742 225.393 243.592 225.478 243.463 225.589C243.334 225.701 243.229 225.836 243.153 225.989C243.076 226.141 243.031 226.307 243.019 226.477C243.007 226.647 243.028 226.818 243.082 226.98C243.136 227.141 243.221 227.291 243.332 227.42C244.785 229.087 246.436 230.569 248.249 231.834ZM258.156 236.268C258.291 236.364 258.443 236.433 258.604 236.473C261.521 237.19 264.532 237.442 267.527 237.221C267.697 237.207 267.863 237.16 268.014 237.083C268.166 237.005 268.301 236.899 268.411 236.769C268.522 236.64 268.606 236.489 268.658 236.327C268.71 236.165 268.73 235.994 268.717 235.825C268.703 235.655 268.656 235.489 268.579 235.337C268.501 235.186 268.395 235.051 268.265 234.94C268.135 234.829 267.985 234.745 267.823 234.693C267.661 234.64 267.49 234.62 267.32 234.634C264.584 234.836 261.832 234.607 259.166 233.955C258.996 233.913 258.819 233.906 258.647 233.934C258.474 233.961 258.309 234.023 258.16 234.115C258.012 234.207 257.883 234.328 257.782 234.471C257.681 234.613 257.609 234.775 257.571 234.945C257.526 235.199 257.558 235.46 257.662 235.696C257.766 235.931 257.938 236.13 258.156 236.268ZM239.274 220.277C239.446 220.395 239.644 220.471 239.851 220.497C240.058 220.524 240.269 220.5 240.465 220.428C240.626 220.371 240.774 220.283 240.9 220.168C241.027 220.053 241.129 219.914 241.201 219.759C241.273 219.604 241.314 219.437 241.321 219.266C241.328 219.095 241.3 218.925 241.24 218.765C240.301 216.194 239.765 213.493 239.651 210.759C239.644 210.589 239.604 210.421 239.532 210.267C239.461 210.112 239.359 209.973 239.234 209.857C239.108 209.741 238.961 209.651 238.801 209.593C238.641 209.534 238.471 209.507 238.301 209.514C238.13 209.521 237.963 209.561 237.808 209.633C237.654 209.704 237.514 209.805 237.399 209.931C237.283 210.056 237.194 210.203 237.135 210.363C237.076 210.523 237.05 210.693 237.057 210.864C237.169 213.871 237.748 216.843 238.772 219.674C238.876 219.902 239.04 220.097 239.245 220.24L239.274 220.277ZM275.008 234.814C275.192 234.955 275.411 235.043 275.642 235.07C275.873 235.097 276.106 235.061 276.318 234.965C278.717 233.801 280.875 232.195 282.678 230.231C282.944 229.936 283.203 229.648 283.451 229.344C283.56 229.213 283.642 229.062 283.693 228.898C283.744 228.735 283.762 228.564 283.746 228.394C283.731 228.224 283.682 228.058 283.602 227.907C283.523 227.756 283.414 227.621 283.283 227.512C283.152 227.403 283 227.32 282.837 227.269C282.674 227.219 282.502 227.2 282.332 227.216C282.162 227.231 281.997 227.28 281.846 227.359C281.695 227.439 281.561 227.547 281.451 227.678L280.762 228.475C279.179 230.198 277.285 231.607 275.179 232.629C275.026 232.703 274.888 232.807 274.775 232.935C274.662 233.063 274.575 233.211 274.519 233.373C274.464 233.534 274.441 233.705 274.451 233.875C274.462 234.046 274.506 234.212 274.581 234.366C274.678 234.533 274.815 234.674 274.979 234.777L275.008 234.814ZM238.477 203.306C238.614 203.398 238.765 203.468 238.925 203.511C239.095 203.552 239.271 203.56 239.444 203.532C239.617 203.504 239.782 203.442 239.931 203.349C240.079 203.255 240.207 203.133 240.307 202.99C240.407 202.846 240.477 202.684 240.513 202.513C241.146 199.814 242.097 197.201 243.347 194.727C243.471 194.423 243.475 194.082 243.359 193.774C243.243 193.467 243.016 193.214 242.721 193.066C242.427 192.919 242.088 192.888 241.773 192.98C241.457 193.072 241.187 193.279 241.018 193.561C239.682 196.219 238.665 199.025 237.985 201.921C237.922 202.166 237.933 202.425 238.015 202.664C238.097 202.904 238.248 203.114 238.448 203.269L238.477 203.306ZM409.877 311.136C410.156 311.337 410.504 311.419 410.844 311.364C411.185 311.309 411.489 311.121 411.69 310.841C411.891 310.562 411.973 310.213 411.917 309.873C411.862 309.533 411.673 309.229 411.394 309.027C409.215 307.421 406.977 305.634 404.778 303.686C404.515 303.464 404.176 303.354 403.833 303.379C403.49 303.403 403.171 303.562 402.943 303.819C402.831 303.948 402.746 304.098 402.692 304.26C402.638 304.422 402.616 304.594 402.629 304.764C402.641 304.935 402.687 305.101 402.764 305.254C402.842 305.407 402.948 305.543 403.078 305.654C405.361 307.618 407.647 309.45 409.881 311.097L409.877 311.136ZM417.041 315.923L417.093 315.989C419.601 317.495 422.193 318.855 424.857 320.062C425.169 320.181 425.514 320.176 425.822 320.048C426.13 319.92 426.377 319.68 426.513 319.375C426.649 319.071 426.664 318.726 426.554 318.411C426.443 318.096 426.217 317.835 425.921 317.682C423.35 316.522 420.849 315.212 418.431 313.76C418.135 313.584 417.78 313.533 417.446 313.617C417.112 313.702 416.824 313.915 416.647 314.211C416.484 314.493 416.433 314.826 416.507 315.144C416.58 315.462 416.771 315.74 417.041 315.923ZM396.797 299.94C396.928 300.049 397.08 300.13 397.242 300.18C397.405 300.23 397.576 300.248 397.746 300.231C397.916 300.215 398.08 300.166 398.231 300.086C398.381 300.006 398.514 299.898 398.623 299.766C398.731 299.635 398.812 299.484 398.862 299.321C398.912 299.158 398.929 298.987 398.913 298.817C398.897 298.648 398.847 298.483 398.768 298.332C398.688 298.182 398.579 298.049 398.448 297.94C397.384 296.914 396.3 295.832 395.206 294.723C394.292 293.78 393.36 292.816 392.436 291.846C392.192 291.626 391.873 291.507 391.545 291.511C391.217 291.516 390.902 291.644 390.664 291.87C390.426 292.097 390.282 292.404 390.261 292.732C390.24 293.06 390.343 293.384 390.55 293.639C391.48 294.617 392.423 295.596 393.356 296.547C394.456 297.664 395.565 298.762 396.646 299.81C396.693 299.857 396.744 299.9 396.797 299.94ZM285.823 221.996C285.925 222.064 286.034 222.122 286.148 222.167C286.475 222.275 286.832 222.251 287.141 222.099C287.45 221.948 287.687 221.681 287.802 221.356C288.755 218.506 289.287 215.533 289.381 212.529C289.373 212.196 289.237 211.878 289.003 211.642C288.768 211.405 288.452 211.267 288.119 211.255C287.787 211.244 287.462 211.36 287.212 211.58C286.962 211.8 286.806 212.108 286.776 212.439C286.698 215.187 286.213 217.908 285.336 220.513C285.247 220.779 285.246 221.068 285.333 221.335C285.421 221.602 285.593 221.834 285.823 221.996ZM432.735 322.913C432.855 322.991 432.984 323.053 433.119 323.097C434.534 323.5 435.965 323.865 437.392 324.163C438.818 324.461 440.284 324.704 441.759 324.868C441.932 324.892 442.108 324.881 442.276 324.836C442.444 324.79 442.602 324.711 442.738 324.602C442.875 324.494 442.988 324.359 443.071 324.205C443.154 324.052 443.204 323.883 443.22 323.709C443.242 323.537 443.229 323.362 443.182 323.195C443.135 323.027 443.055 322.871 442.947 322.735C442.839 322.598 442.705 322.485 442.553 322.401C442.401 322.318 442.233 322.265 442.06 322.247C440.68 322.088 439.308 321.861 437.949 321.565C436.594 321.282 435.221 320.93 433.872 320.535C433.576 320.451 433.259 320.474 432.979 320.601C432.698 320.728 432.471 320.949 432.339 321.227C432.206 321.505 432.175 321.821 432.253 322.119C432.33 322.417 432.511 322.678 432.762 322.856L432.735 322.913ZM384.943 287.439C385.202 287.633 385.524 287.723 385.846 287.691C386.168 287.66 386.466 287.509 386.682 287.269C386.899 287.029 387.018 286.716 387.015 286.393C387.013 286.069 386.89 285.758 386.67 285.521C384.821 283.414 382.933 281.184 381.143 278.971C380.918 278.733 380.613 278.587 380.286 278.563C379.96 278.539 379.637 278.639 379.38 278.842C379.124 279.045 378.954 279.338 378.902 279.661C378.851 279.984 378.924 280.315 379.105 280.588C380.891 282.839 382.795 285.045 384.69 287.21C384.766 287.295 384.85 287.372 384.943 287.439ZM246.049 187.975C246.315 188.173 246.648 188.261 246.977 188.222C247.306 188.182 247.608 188.018 247.82 187.762C249.583 185.628 251.591 183.707 253.802 182.041C254.077 181.833 254.258 181.524 254.306 181.183C254.354 180.841 254.265 180.494 254.058 180.218C253.957 180.08 253.829 179.964 253.683 179.877C253.537 179.789 253.374 179.731 253.205 179.706C253.036 179.682 252.864 179.691 252.699 179.734C252.534 179.776 252.379 179.852 252.243 179.955C249.865 181.745 247.709 183.811 245.819 186.109C245.709 186.24 245.626 186.391 245.576 186.554C245.525 186.717 245.508 186.889 245.524 187.059C245.54 187.229 245.59 187.394 245.671 187.544C245.751 187.695 245.861 187.828 245.994 187.936C246.015 187.959 246.04 187.98 246.066 187.997L246.049 187.975ZM374.078 274.069C374.331 274.254 374.642 274.341 374.954 274.315C375.265 274.288 375.557 274.15 375.775 273.925C375.992 273.7 376.121 273.404 376.137 273.092C376.154 272.779 376.057 272.471 375.864 272.224C374.154 269.948 372.464 267.608 370.853 265.277C370.76 265.125 370.637 264.994 370.491 264.891C370.346 264.789 370.181 264.718 370.006 264.681C369.832 264.645 369.652 264.645 369.478 264.68C369.304 264.716 369.139 264.787 368.993 264.889C368.847 264.991 368.724 265.121 368.63 265.272C368.537 265.424 368.475 265.593 368.449 265.769C368.423 265.945 368.434 266.124 368.48 266.296C368.526 266.468 368.606 266.629 368.716 266.769C370.352 269.116 372.059 271.478 373.792 273.784C373.87 273.895 373.966 273.992 374.078 274.069ZM449.744 324.823C449.991 324.99 450.285 325.071 450.581 325.053C453.524 324.853 456.443 324.391 459.304 323.673C459.578 323.542 459.797 323.319 459.923 323.043C460.05 322.767 460.077 322.456 459.999 322.163C459.921 321.869 459.744 321.612 459.497 321.435C459.25 321.258 458.949 321.173 458.647 321.193C455.94 321.879 453.176 322.317 450.39 322.501C450.219 322.512 450.052 322.557 449.899 322.633C449.746 322.709 449.609 322.814 449.497 322.943C449.384 323.072 449.299 323.222 449.244 323.384C449.19 323.546 449.169 323.718 449.181 323.888C449.202 324.081 449.265 324.266 449.365 324.432C449.465 324.597 449.601 324.738 449.762 324.845L449.744 324.823ZM364.259 259.918C364.506 260.089 364.805 260.169 365.104 260.145C365.403 260.122 365.685 259.996 365.902 259.789C366.119 259.582 366.258 259.306 366.296 259.008C366.334 258.71 366.267 258.409 366.109 258.154C365.534 257.264 364.974 256.362 364.413 255.461C363.5 253.994 362.591 252.487 361.624 250.848C361.449 250.551 361.163 250.336 360.829 250.25C360.495 250.164 360.141 250.215 359.844 250.39C359.548 250.565 359.333 250.851 359.247 251.185C359.162 251.518 359.212 251.873 359.387 252.169C360.343 253.794 361.286 255.344 362.204 256.832C362.77 257.74 363.336 258.649 363.917 259.546C364.005 259.692 364.122 259.818 364.259 259.918ZM286.526 204.967C286.741 205.114 286.996 205.194 287.256 205.195C287.517 205.197 287.772 205.12 287.989 204.975C288.205 204.83 288.374 204.624 288.472 204.382C288.57 204.141 288.594 203.875 288.54 203.62C288.165 201.9 287.667 200.209 287.05 198.561C286.633 197.45 286.159 196.326 285.606 195.239C285.443 194.953 285.178 194.74 284.864 194.641C284.55 194.542 284.21 194.565 283.912 194.706C283.615 194.847 283.382 195.095 283.26 195.401C283.138 195.707 283.136 196.047 283.254 196.355C283.745 197.394 284.194 198.456 284.57 199.515C285.136 201.054 285.591 202.631 285.933 204.234C286.034 204.543 286.245 204.804 286.526 204.967ZM157.404 112.213C157.521 112.295 157.651 112.357 157.788 112.397C160.519 113.185 163.258 114.013 165.976 114.919C166.303 115.025 166.66 114.998 166.967 114.841C167.273 114.685 167.506 114.413 167.612 114.086C167.718 113.758 167.69 113.402 167.534 113.095C167.377 112.788 167.105 112.555 166.778 112.449C164.046 111.555 161.27 110.695 158.507 109.897C158.209 109.805 157.889 109.824 157.604 109.949C157.319 110.074 157.089 110.297 156.955 110.578C156.821 110.859 156.793 111.179 156.875 111.479C156.958 111.779 157.145 112.039 157.404 112.213ZM355.466 245.109C355.707 245.28 355.999 245.365 356.294 245.347C356.59 245.33 356.87 245.212 357.089 245.013C357.308 244.815 357.452 244.547 357.498 244.255C357.544 243.963 357.489 243.663 357.341 243.407C356.045 241.112 354.77 238.8 353.489 236.494L353.153 235.89C353.071 235.74 352.961 235.607 352.827 235.5C352.694 235.392 352.541 235.312 352.377 235.264C352.213 235.216 352.041 235.201 351.871 235.22C351.701 235.239 351.536 235.291 351.387 235.374C351.086 235.543 350.864 235.824 350.769 236.156C350.673 236.488 350.712 236.844 350.877 237.147L351.213 237.75C352.5 240.064 353.775 242.376 355.077 244.678C355.17 244.851 355.303 244.999 355.466 245.109ZM173.789 117.583C173.882 117.654 173.985 117.708 174.096 117.745C176.767 118.712 179.463 119.741 182.104 120.791C182.424 120.919 182.782 120.916 183.099 120.781C183.415 120.645 183.666 120.39 183.794 120.07C183.922 119.75 183.918 119.393 183.783 119.076C183.648 118.759 183.392 118.508 183.072 118.38C180.393 117.312 177.678 116.274 174.963 115.283C174.666 115.169 174.337 115.169 174.04 115.282C173.743 115.395 173.498 115.614 173.351 115.896C173.205 116.179 173.167 116.505 173.246 116.813C173.324 117.122 173.514 117.391 173.778 117.569L173.789 117.583ZM259.716 177.779C259.901 177.909 260.117 177.988 260.342 178.008C260.567 178.029 260.793 177.989 260.998 177.895C263.048 177.013 265.168 176.304 267.336 175.774C267.504 175.986 267.731 176.151 267.921 176.346C268.158 176.564 268.466 176.686 268.788 176.691C269.109 176.695 269.421 176.581 269.663 176.369C269.905 176.158 270.061 175.865 270.1 175.546C270.14 175.227 270.06 174.904 269.877 174.64C269.979 174.4 270.005 174.134 269.951 173.879C269.881 173.544 269.681 173.25 269.396 173.062C269.11 172.873 268.762 172.805 268.427 172.872L268.128 172.93L267.852 172.673C266.411 171.291 264.917 169.903 263.411 168.573C263.154 168.345 262.818 168.226 262.475 168.242C262.132 168.258 261.809 168.408 261.575 168.659C261.46 168.785 261.371 168.933 261.313 169.093C261.255 169.254 261.229 169.424 261.237 169.595C261.245 169.766 261.287 169.933 261.36 170.087C261.433 170.242 261.536 170.38 261.663 170.495C262.817 171.545 263.975 172.615 265.124 173.705C263.365 174.209 261.64 174.826 259.959 175.55C259.746 175.64 259.561 175.786 259.424 175.973C259.286 176.159 259.201 176.379 259.177 176.609C259.154 176.84 259.192 177.072 259.289 177.283C259.385 177.494 259.536 177.675 259.726 177.807L259.716 177.779ZM279.394 189.447C279.646 189.616 279.948 189.693 280.25 189.663C280.552 189.634 280.834 189.501 281.048 189.286C281.261 189.071 281.394 188.789 281.422 188.487C281.451 188.185 281.373 187.883 281.203 187.632C279.525 185.238 277.707 182.945 275.758 180.766C275.529 180.509 275.207 180.353 274.863 180.333C274.519 180.313 274.182 180.431 273.925 180.66C273.668 180.889 273.512 181.211 273.493 181.555C273.473 181.899 273.591 182.237 273.82 182.494C275.698 184.599 277.452 186.81 279.074 189.118C279.163 189.244 279.271 189.355 279.394 189.447ZM189.792 123.972C189.862 124.023 189.937 124.068 190.016 124.104C192.62 125.242 195.245 126.436 197.813 127.663C198.123 127.812 198.48 127.831 198.804 127.717C199.128 127.602 199.394 127.364 199.542 127.053C199.691 126.743 199.71 126.386 199.595 126.062C199.481 125.737 199.242 125.471 198.931 125.323C196.339 124.079 193.69 122.87 191.061 121.715C190.763 121.568 190.42 121.54 190.103 121.637C189.785 121.735 189.518 121.951 189.355 122.241C189.192 122.53 189.147 122.871 189.228 123.193C189.309 123.515 189.511 123.794 189.792 123.972ZM205.338 131.39C205.387 131.424 205.439 131.454 205.493 131.481C208.013 132.782 210.551 134.151 213.04 135.535C213.189 135.619 213.353 135.671 213.522 135.691C213.691 135.711 213.862 135.697 214.026 135.651C214.19 135.605 214.343 135.527 214.476 135.421C214.61 135.315 214.721 135.185 214.804 135.036C214.887 134.887 214.94 134.724 214.96 134.555C214.979 134.385 214.966 134.214 214.919 134.05C214.873 133.886 214.794 133.733 214.689 133.6C214.583 133.466 214.452 133.355 214.303 133.271C211.796 131.866 209.226 130.486 206.682 129.168C206.386 129.016 206.043 128.983 205.723 129.075C205.403 129.167 205.131 129.378 204.962 129.664C204.792 129.95 204.739 130.291 204.812 130.616C204.885 130.941 205.079 131.225 205.355 131.412L205.338 131.39ZM347.087 230.042C347.287 230.19 347.525 230.277 347.774 230.292C348.022 230.306 348.269 230.248 348.485 230.124C348.633 230.04 348.764 229.928 348.869 229.794C348.973 229.659 349.051 229.506 349.096 229.341C349.142 229.177 349.154 229.005 349.133 228.836C349.112 228.667 349.058 228.503 348.974 228.355C347.397 225.556 345.993 223.096 344.641 220.881C344.554 220.735 344.439 220.607 344.302 220.505C344.165 220.403 344.01 220.328 343.844 220.286C343.679 220.245 343.507 220.236 343.338 220.26C343.169 220.285 343.007 220.342 342.861 220.429C342.714 220.516 342.586 220.632 342.484 220.768C342.383 220.905 342.309 221.061 342.267 221.226C342.225 221.391 342.216 221.563 342.241 221.732C342.265 221.901 342.323 222.063 342.41 222.21C343.729 224.427 345.143 226.855 346.715 229.634C346.805 229.797 346.932 229.937 347.087 230.042ZM255.329 164.895C255.601 165.105 255.946 165.198 256.287 165.154C256.629 165.11 256.938 164.933 257.148 164.66C257.358 164.388 257.452 164.043 257.407 163.702C257.363 163.361 257.185 163.051 256.913 162.84C254.742 160.989 252.486 159.134 250.229 157.339C250.096 157.233 249.943 157.154 249.779 157.107C249.615 157.06 249.444 157.045 249.274 157.065C249.105 157.084 248.941 157.136 248.792 157.219C248.643 157.301 248.512 157.412 248.406 157.546C248.3 157.679 248.221 157.832 248.174 157.996C248.127 158.16 248.113 158.331 248.133 158.501C248.152 158.67 248.205 158.834 248.287 158.983C248.37 159.132 248.481 159.263 248.615 159.369C250.858 161.163 253.073 162.98 255.243 164.831L255.329 164.895ZM220.386 139.786L220.438 139.852C222.878 141.323 225.325 142.848 227.71 144.399C228 144.586 228.352 144.65 228.689 144.577C229.026 144.504 229.321 144.3 229.507 144.009C229.694 143.719 229.757 143.367 229.684 143.03C229.611 142.693 229.407 142.398 229.116 142.211C226.699 140.663 224.263 139.093 221.777 137.623C221.487 137.435 221.136 137.37 220.799 137.442C220.462 137.514 220.167 137.717 219.98 138.006C219.793 138.295 219.728 138.647 219.8 138.984C219.872 139.321 220.075 139.616 220.364 139.803L220.386 139.786ZM241.85 154.17C242.129 154.372 242.477 154.454 242.817 154.399C243.157 154.343 243.462 154.155 243.663 153.876C243.864 153.596 243.946 153.248 243.89 152.908C243.835 152.568 243.646 152.263 243.367 152.062C241.043 150.332 238.682 148.631 236.339 147.012C236.056 146.814 235.707 146.737 235.367 146.798C235.028 146.858 234.726 147.051 234.529 147.333C234.332 147.616 234.255 147.966 234.316 148.305C234.377 148.645 234.569 148.946 234.852 149.144C237.188 150.769 239.526 152.44 241.813 154.14L241.85 154.17ZM276.472 174.269C276.697 174.427 276.967 174.509 277.242 174.504C280.037 174.447 282.833 174.62 285.601 175.021C285.777 175.064 285.96 175.07 286.139 175.038C286.317 175.005 286.487 174.936 286.637 174.834C286.787 174.733 286.914 174.6 287.01 174.446C287.106 174.292 287.168 174.12 287.193 173.94C287.218 173.76 287.205 173.577 287.154 173.403C287.104 173.229 287.018 173.067 286.901 172.928C286.784 172.789 286.64 172.676 286.477 172.596C286.314 172.517 286.136 172.472 285.954 172.465C283.045 172.03 280.105 171.837 277.164 171.886C276.892 171.894 276.629 171.988 276.412 172.154C276.195 172.32 276.037 172.55 275.957 172.811C275.878 173.073 275.883 173.352 275.971 173.611C276.059 173.869 276.225 174.094 276.447 174.253L276.472 174.269ZM338.222 215.277C338.435 215.427 338.688 215.51 338.949 215.515C339.21 215.52 339.466 215.448 339.685 215.307C339.828 215.214 339.95 215.094 340.046 214.953C340.142 214.812 340.209 214.654 340.244 214.487C340.278 214.32 340.28 214.148 340.248 213.981C340.216 213.813 340.151 213.654 340.058 213.511L339.612 212.829C338.138 210.58 336.635 208.401 335.131 206.354C335.032 206.215 334.907 206.098 334.762 206.008C334.617 205.918 334.455 205.859 334.287 205.832C334.119 205.806 333.947 205.814 333.782 205.855C333.616 205.896 333.461 205.97 333.325 206.072C333.186 206.171 333.068 206.297 332.978 206.442C332.888 206.587 332.828 206.749 332.801 206.917C332.774 207.086 332.781 207.258 332.822 207.424C332.862 207.59 332.935 207.747 333.037 207.884C334.512 209.894 335.991 212.044 337.443 214.251L337.883 214.926C337.969 215.065 338.082 215.187 338.214 215.283L338.222 215.277ZM328.027 201.388C328.285 201.566 328.598 201.646 328.909 201.611C329.22 201.577 329.508 201.431 329.72 201.201C329.932 200.97 330.053 200.671 330.061 200.358C330.07 200.045 329.964 199.739 329.765 199.498C327.844 197.21 325.87 195.036 323.895 193.041C323.775 192.92 323.632 192.824 323.474 192.758C323.317 192.692 323.148 192.657 322.977 192.657C322.806 192.656 322.637 192.689 322.479 192.754C322.321 192.819 322.178 192.914 322.057 193.034C321.936 193.154 321.839 193.297 321.774 193.455C321.708 193.612 321.674 193.781 321.673 193.952C321.673 194.123 321.706 194.292 321.771 194.45C321.835 194.608 321.931 194.751 322.051 194.873C323.972 196.815 325.917 198.952 327.781 201.167C327.846 201.256 327.927 201.333 328.02 201.394L328.027 201.388ZM293.453 176.714C293.563 176.794 293.686 176.853 293.818 176.889C296.503 177.714 299.124 178.737 301.659 179.948C301.969 180.097 302.326 180.116 302.65 180.002C302.975 179.887 303.24 179.649 303.389 179.338C303.537 179.028 303.556 178.671 303.441 178.347C303.327 178.022 303.088 177.756 302.778 177.608C300.128 176.334 297.386 175.264 294.575 174.407C294.278 174.312 293.957 174.328 293.671 174.45C293.385 174.573 293.153 174.795 293.017 175.075C292.88 175.354 292.85 175.674 292.93 175.975C293.01 176.276 293.196 176.538 293.453 176.714ZM315.885 189.199C316.159 189.408 316.504 189.5 316.845 189.455C317.187 189.41 317.496 189.231 317.705 188.958C317.915 188.684 318.007 188.339 317.961 187.998C317.916 187.656 317.737 187.347 317.463 187.137C315.821 185.772 314.158 184.47 312.447 183.303C311.777 182.833 311.093 182.375 310.42 181.932C310.277 181.839 310.117 181.776 309.949 181.745C309.781 181.714 309.609 181.716 309.442 181.752C309.275 181.787 309.117 181.855 308.977 181.952C308.836 182.049 308.716 182.172 308.623 182.315C308.531 182.458 308.467 182.618 308.436 182.786C308.405 182.954 308.408 183.126 308.443 183.293C308.479 183.46 308.547 183.618 308.644 183.759C308.741 183.9 308.864 184.02 309.008 184.113C309.656 184.54 310.315 184.981 310.966 185.442C312.571 186.551 314.217 187.83 315.805 189.143L315.885 189.199Z" fill="#196E7E" fill-opacity="0.4" stroke="#176D7E" stroke-opacity="0.4" stroke-width="0.148566" stroke-miterlimit="10"/>
<path d="M158.082 520.805C158.082 520.09 158.665 519.491 159.398 519.491H160.047V566.305H159.398C158.682 566.305 158.082 565.723 158.082 564.991V520.789V520.805Z" fill="#1C1C61"/>
<path d="M158.082 461.365C158.082 460.65 158.665 460.051 159.398 460.051H160.047V506.865H159.398C158.682 506.865 158.082 506.283 158.082 505.551V461.348V461.365Z" fill="#1C1C61"/>
<path d="M157 416.963C157 416.247 157.583 415.648 158.316 415.648H160.064V438.723H158.316C157.599 438.723 157 438.14 157 437.408V416.946V416.963Z" fill="#1C1C61"/>
<path d="M160.049 415.865V438.84" stroke="black" stroke-width="0.156306"/>
<path d="M160.049 460.283V506.764" stroke="black" stroke-width="0.156306"/>
<path d="M404.335 297H214.751C184.54 297 160.049 321.467 160.049 351.65V859.35C160.049 889.533 184.54 914 214.751 914H404.335C434.546 914 459.037 889.533 459.037 859.35V351.65C459.037 321.467 434.546 297 404.335 297Z" fill="#1C1C61"/>
<path d="M401.287 304.403H217.798C189.997 304.403 167.459 326.919 167.459 354.694V856.306C167.459 884.081 189.997 906.597 217.798 906.597H401.287C429.089 906.597 451.626 884.081 451.626 856.306V354.694C451.626 326.919 429.089 304.403 401.287 304.403Z" fill="#FBF5E2" stroke="black" stroke-width="6.28832"/>
<rect x="269.994" y="326.381" width="78.1664" height="22.4223" rx="11.2112" fill="black"/>
<path d="M342.006 300.261C341.889 301.725 340.673 302.873 339.175 302.873H279.893C278.395 302.873 277.179 301.725 277.062 300.261H341.989H342.006Z" fill="black" stroke="#272727" stroke-width="0.312613"/>
<path d="M392.359 297H396.722V300.377L392.359 300.161V297Z" fill="black"/>
<path d="M160.048 362.746H163.312L163.195 366.988L160.031 367.105V362.746H160.048Z" fill="black"/>
</svg>
