<svg width="25" height="24" viewBox="0 0 25 24" fill="none" xmlns="http://www.w3.org/2000/svg">
<path d="M12.3647 8.87579C10.6444 8.87579 9.24052 10.2797 9.24052 12C9.24052 13.7203 10.6444 15.1242 12.3647 15.1242C14.085 15.1242 15.489 13.7203 15.489 12C15.489 10.2797 14.085 8.87579 12.3647 8.87579ZM21.735 12C21.735 10.7063 21.7468 9.42423 21.6741 8.13282C21.6015 6.63282 21.2593 5.30157 20.1624 4.2047C19.0632 3.10548 17.7343 2.76564 16.2343 2.69298C14.9405 2.62032 13.6585 2.63204 12.3671 2.63204C11.0733 2.63204 9.7913 2.62032 8.49989 2.69298C6.99989 2.76564 5.66864 3.10782 4.57177 4.2047C3.47255 5.30392 3.1327 6.63282 3.06005 8.13282C2.98739 9.42657 2.99911 10.7086 2.99911 12C2.99911 13.2914 2.98739 14.5758 3.06005 15.8672C3.1327 17.3672 3.47489 18.6984 4.57177 19.7953C5.67099 20.8945 6.99989 21.2344 8.49989 21.307C9.79364 21.3797 11.0757 21.368 12.3671 21.368C13.6608 21.368 14.9429 21.3797 16.2343 21.307C17.7343 21.2344 19.0655 20.8922 20.1624 19.7953C21.2616 18.6961 21.6015 17.3672 21.6741 15.8672C21.7491 14.5758 21.735 13.2938 21.735 12ZM12.3647 16.807C9.70458 16.807 7.5577 14.6602 7.5577 12C7.5577 9.33985 9.70458 7.19298 12.3647 7.19298C15.0249 7.19298 17.1718 9.33985 17.1718 12C17.1718 14.6602 15.0249 16.807 12.3647 16.807ZM17.3686 8.11876C16.7475 8.11876 16.246 7.6172 16.246 6.9961C16.246 6.37501 16.7475 5.87345 17.3686 5.87345C17.9897 5.87345 18.4913 6.37501 18.4913 6.9961C18.4915 7.14359 18.4626 7.28965 18.4062 7.42595C18.3499 7.56224 18.2672 7.68607 18.1629 7.79035C18.0586 7.89464 17.9348 7.97733 17.7985 8.03368C17.6622 8.09003 17.5161 8.11895 17.3686 8.11876Z" fill="#353432"/>
</svg>
