<svg width="20" height="21" viewBox="0 0 20 21" fill="none" xmlns="http://www.w3.org/2000/svg">
<path d="M3.17257 13.2392C3.21987 13.3534 3.29998 13.451 3.40277 13.5197C3.50555 13.5883 3.62638 13.625 3.75 13.625L16.25 13.625C16.3736 13.625 16.4945 13.5883 16.5972 13.5197C16.7 13.451 16.7801 13.3534 16.8274 13.2392C16.8747 13.125 16.8871 12.9993 16.863 12.8781C16.8389 12.7568 16.7793 12.6455 16.6919 12.558L10.4419 6.30807C10.3839 6.25003 10.315 6.20399 10.2392 6.17258C10.1633 6.14117 10.0821 6.125 10 6.125C9.91792 6.125 9.83665 6.14117 9.76082 6.17258C9.685 6.20399 9.6161 6.25003 9.55806 6.30807L3.30807 12.558C3.22065 12.6455 3.16112 12.7568 3.137 12.8781C3.11289 12.9993 3.12526 13.125 3.17257 13.2392Z" fill="white"/>
</svg>
