<svg width="160" height="141" viewBox="0 0 160 141" fill="none" xmlns="http://www.w3.org/2000/svg">
<path d="M140.618 72.7398C140.611 72.7231 140.618 72.7029 140.635 72.6962C140.651 72.6895 140.668 72.6962 140.678 72.713C141.654 74.9472 142.336 77.2954 142.91 79.6605C143.46 82.0355 143.862 84.4408 144.142 86.8629L144.317 88.6844C144.344 88.9897 144.378 89.2916 144.398 89.5969L144.449 90.5094C144.476 91.1199 144.513 91.7271 144.53 92.3376L144.513 94.1659L144.493 95.0817C144.479 95.387 144.456 95.6923 144.435 95.9942C144.388 96.6014 144.351 97.2119 144.297 97.8191C144.179 99.0335 143.997 100.238 143.808 101.439C143.808 101.456 143.791 101.466 143.777 101.466C143.76 101.466 143.743 101.452 143.743 101.432C143.743 100.822 143.774 100.214 143.787 99.6071C143.804 99 143.858 98.3961 143.848 97.7889C143.848 97.1817 143.862 96.5779 143.868 95.9741L143.885 95.0683L143.868 94.1626L143.862 92.3511L143.811 90.5396L143.791 89.6338C143.781 89.3319 143.757 89.03 143.74 88.7281L143.629 86.9165C143.416 84.5079 143.082 82.106 142.596 79.7309C142.11 77.3592 141.512 74.9975 140.621 72.7398H140.618Z" fill="#263238"/>
<path d="M140.358 82.22C140.358 82.22 140.361 82.1864 140.378 82.1797C140.395 82.173 140.412 82.1797 140.418 82.1998C140.945 83.7061 141.364 85.2458 141.718 86.8058C142.056 88.3657 142.322 89.9457 142.484 91.5391C142.646 93.1259 142.825 94.7126 142.845 96.3094C142.869 97.9029 142.845 99.4997 142.673 101.093C142.673 101.107 142.66 101.12 142.643 101.123C142.626 101.123 142.609 101.113 142.606 101.093C142.42 99.5031 142.309 97.9197 142.197 96.3363C142.083 94.7529 142.069 93.1661 141.964 91.5828C141.867 90.0027 141.667 88.4328 141.394 86.8695C141.127 85.3062 140.793 83.7497 140.351 82.2233L140.358 82.22Z" fill="#263238"/>
<path d="M135.068 85.5579C135.068 85.5579 135.099 85.5377 135.112 85.5478C136.436 86.3798 137.617 87.4297 138.65 88.6106C139.156 89.2111 139.629 89.8384 140.034 90.5227L140.317 91.0561L140.54 91.6096C140.621 91.7941 140.675 91.982 140.733 92.1699C140.79 92.3577 140.854 92.5456 140.905 92.7368C141.303 94.2598 141.566 95.813 141.637 97.3729C141.701 98.9328 141.671 100.493 141.462 102.043C141.462 102.056 141.448 102.069 141.431 102.069C141.414 102.069 141.398 102.056 141.398 102.039L140.996 97.4165C140.834 95.8868 140.736 94.3504 140.405 92.8576C140.365 92.673 140.311 92.4885 140.263 92.304C140.216 92.1195 140.169 91.935 140.101 91.7606L139.912 91.2272L139.669 90.724C139.311 90.0564 138.873 89.419 138.403 88.8119C137.458 87.6008 136.348 86.4972 135.082 85.5981C135.082 85.5981 135.065 85.5679 135.072 85.5545L135.068 85.5579Z" fill="#263238"/>
<path d="M137.627 91.4956C138.349 91.9585 138.829 92.6865 139.234 93.4178C139.619 94.1659 139.926 94.9576 140.135 95.7727C140.199 95.974 140.25 96.1786 140.294 96.3833L140.439 96.9972C140.513 97.4098 140.571 97.8258 140.594 98.2451C140.601 98.6644 140.611 99.0838 140.584 99.4997C140.55 99.9191 140.5 100.335 140.419 100.748C140.419 100.761 140.405 100.771 140.392 100.775C140.375 100.778 140.358 100.768 140.355 100.748C140.253 100.335 140.186 99.9258 140.132 99.5199C140.068 99.114 140.003 98.708 139.953 98.3055C139.892 97.9029 139.838 97.5004 139.808 97.0945C139.75 96.6953 139.72 96.2826 139.632 95.8868C139.49 95.085 139.258 94.3034 138.944 93.5553C138.63 92.8139 138.221 92.0726 137.593 91.5526H137.59C137.59 91.5526 137.573 91.5191 137.583 91.5056C137.593 91.4922 137.614 91.4855 137.627 91.4956Z" fill="#263238"/>
<path d="M145.046 96.1249C145.222 94.0719 145.56 92.0423 145.884 90.0094C146.208 87.9799 146.562 85.9537 146.937 83.9342C147.325 81.9147 147.73 79.9019 148.165 77.8925C148.169 77.8757 148.186 77.8656 148.203 77.869C148.219 77.869 148.233 77.8891 148.23 77.9059C147.875 79.9287 147.558 81.9583 147.254 83.9878C146.944 86.0174 146.653 88.047 146.393 90.0832C146.14 92.1195 145.944 94.1591 145.688 96.192L144.932 102.301C144.932 102.301 144.918 102.328 144.901 102.328C144.884 102.328 144.868 102.314 144.868 102.297C144.844 101.784 144.844 101.268 144.83 100.751C144.827 100.234 144.851 99.7211 144.861 99.2079C144.881 98.178 144.969 97.1515 145.046 96.1249Z" fill="#263238"/>
<path d="M146.285 96.0948C146.397 95.283 146.545 94.4745 146.7 93.6694L146.991 92.4718C147.085 92.0726 147.176 91.6734 147.294 91.2775C147.706 89.6874 148.233 88.1242 148.874 86.6112L149.121 86.0476L149.397 85.4941C149.573 85.1218 149.786 84.7662 149.985 84.4106C150.417 83.7128 150.866 83.0117 151.477 82.4481C151.49 82.438 151.507 82.438 151.521 82.4481C151.534 82.4615 151.534 82.4816 151.521 82.4917C150.957 83.0754 150.545 83.7933 150.157 84.5045C149.978 84.8702 149.789 85.2291 149.634 85.6048L149.391 86.1617L149.175 86.732C148.604 88.2516 148.145 89.8115 147.797 91.4016C147.608 92.19 147.484 92.9951 147.332 93.7901L147.139 94.9945C147.068 95.3937 146.984 95.7929 146.927 96.1954C146.798 96.9972 146.65 97.7989 146.508 98.6007C146.383 99.4058 146.235 100.208 146.066 101.013C146.066 101.026 146.049 101.04 146.035 101.04C146.019 101.04 146.002 101.026 146.002 101.006C145.998 100.187 146.019 99.3656 146.059 98.547C146.106 97.7285 146.204 96.9133 146.289 96.0981L146.285 96.0948Z" fill="#263238"/>
<path d="M147.993 96.2021C148.375 95.1253 148.817 94.0719 149.299 93.0387C149.796 92.0122 150.329 91.0024 150.943 90.043C150.953 90.0296 150.974 90.0229 150.987 90.0329C151.004 90.043 151.007 90.0631 150.997 90.0765C150.461 91.0729 150.005 92.1128 149.593 93.1662C149.175 94.2162 148.797 95.2796 148.479 96.3631C148.155 97.4433 147.926 98.547 147.635 99.6305C147.332 100.714 147.085 101.811 146.751 102.911C146.748 102.925 146.734 102.935 146.721 102.935C146.704 102.935 146.687 102.921 146.687 102.901C146.67 101.754 146.785 100.61 147.007 99.4863C147.21 98.3558 147.608 97.2756 147.99 96.2021H147.993Z" fill="#263238"/>
<path d="M148.064 99.7882C148.26 99.114 148.594 98.4866 148.972 97.8929C149.343 97.2991 149.776 96.7355 150.295 96.2592C150.562 96.031 150.835 95.8096 151.136 95.6285C151.433 95.444 151.747 95.2863 152.091 95.1991C152.105 95.1957 152.122 95.2024 152.128 95.2159C152.135 95.2326 152.128 95.2494 152.111 95.2595H152.108C151.49 95.5346 150.967 95.9874 150.525 96.4839C150.076 96.9804 149.718 97.5507 149.421 98.1445C149.107 98.7349 148.945 99.3857 148.672 99.9929C148.55 100.305 148.432 100.617 148.294 100.929C148.176 101.248 148.044 101.563 147.878 101.878C147.878 101.878 147.862 101.898 147.851 101.898C147.835 101.898 147.818 101.885 147.818 101.868C147.804 101.516 147.824 101.167 147.858 100.818C147.909 100.473 147.983 100.13 148.064 99.7916V99.7882Z" fill="#263238"/>
<path d="M147.936 80.8312C147.936 80.8312 151.318 80.0562 152.101 76.4332C152.881 72.8136 150.366 74.3634 152.621 68.6739C154.876 62.9845 154.356 61.6896 153.576 60.0525C152.797 58.4155 152.361 58.9321 151.669 61.0858C150.974 63.2428 148.459 66.6041 147.504 72.8974C146.549 79.1907 147.939 80.8312 147.939 80.8312H147.936Z" fill="#F8931F"/>
<path d="M141.256 74.709C141.256 74.709 143.511 73.934 143.598 69.7072C143.686 65.4837 141.951 66.3459 141.691 61.0858C141.431 55.8257 141.084 52.1188 140.128 52.0316C139.173 51.9444 136.658 54.618 135.791 60.4819C134.923 66.3459 136.918 70.2238 138.653 71.9481C140.388 73.6724 141.256 74.7056 141.256 74.7056V74.709Z" fill="#F8931F"/>
<path d="M149.151 85.9202C149.151 85.9202 149.671 82.8172 150.714 81.3512C151.754 79.8852 154.012 78.5937 155.487 75.7456C156.962 72.9008 158.609 71.5221 158.525 75.5745C158.437 79.6269 156.618 81.6967 154.36 83.0755C152.105 84.4542 149.154 85.9202 149.154 85.9202H149.151Z" fill="#F8931F"/>
<path d="M150.106 91.2641C150.106 91.2641 152.189 87.2989 155.224 84.3669C158.262 81.435 160.689 79.969 159.821 81.435C158.954 82.901 157.914 82.8137 156.439 85.4002C154.964 87.9866 155.399 89.882 153.316 91.3479C151.234 92.8139 150.106 91.2607 150.106 91.2607V91.2641Z" fill="#F8931F"/>
<path d="M150.366 96.3531C150.454 96.0948 150.538 94.1961 153.489 92.6463C156.439 91.0931 159.213 91.6969 158.869 92.4752C158.521 93.2501 156.699 94.545 154.879 95.3199C153.057 96.0948 150.366 96.3531 150.366 96.3531Z" fill="#F8931F"/>
<path d="M141.428 86.0913C141.428 86.0913 142.731 84.4542 142.035 81.0057C141.34 77.5571 139.781 78.4192 138.046 76.6077C136.311 74.7962 136.658 74.5379 134.923 72.6426C133.188 70.7472 131.625 69.7106 130.933 70.4855C130.238 71.2604 131.281 73.6758 132.321 75.0545C133.36 76.4333 135.011 77.1244 135.791 78.8486C136.57 80.5729 136.226 83.3304 138.221 84.6253C140.216 85.9202 141.431 86.0913 141.431 86.0913H141.428Z" fill="#F8931F"/>
<path d="M137.09 87.0406C137.09 87.0406 133.968 83.5048 131.71 80.9184C129.455 78.3319 128.587 76.3494 128.5 78.0736C128.412 79.7979 127.72 81.1767 129.539 83.4209C131.362 85.6618 137.087 87.0406 137.087 87.0406H137.09Z" fill="#F8931F"/>
<path d="M138.741 92.7301C138.741 92.7301 138.829 91.3513 133.884 88.161C128.938 84.9708 126.856 84.3669 127.376 85.6618C127.895 86.9567 130.066 88.2483 132.408 90.5764C134.751 92.9045 138.741 92.7334 138.741 92.7334V92.7301Z" fill="#F8931F"/>
<path d="M147.73 80.4655C147.73 80.4655 148.891 74.2796 150.106 69.8816C151.322 65.4837 152.101 62.8101 152.101 62.8101" stroke="#263238" stroke-width="0.306878" stroke-linecap="round" stroke-linejoin="round"/>
<path d="M141.455 74.7761C141.455 74.7761 139.345 68.0735 138.653 64.0211C137.958 59.9687 138.741 56.9495 139.089 55.1414" stroke="#263238" stroke-width="0.306878" stroke-linecap="round" stroke-linejoin="round"/>
<path d="M149.424 85.7893C149.424 85.7893 150.714 83.5048 152.621 81.2639C154.528 79.023 156.003 77.8154 156.871 75.6583" stroke="#263238" stroke-width="0.306878" stroke-linecap="round" stroke-linejoin="round"/>
<path d="M141.428 86.0912C141.428 86.0912 140.732 81.9516 139.085 79.7979C137.438 77.6409 134.14 74.2795 132.837 72.1259" stroke="#263238" stroke-width="0.306878" stroke-linecap="round" stroke-linejoin="round"/>
<path d="M150.569 96.2591C150.569 96.2591 153.489 94.3704 155.571 93.3372" stroke="#263238" stroke-width="0.306878" stroke-linecap="round" stroke-linejoin="round"/>
<path d="M133.853 113.636C134.049 108.403 139.899 104.917 139.899 104.917H148.864C148.864 104.917 154.714 108.406 154.91 113.636C155.106 118.869 148.28 138.051 148.28 138.051H140.486C140.486 138.051 133.661 118.866 133.857 113.636H133.853Z" fill="#263238" stroke="#263238" stroke-width="0.306878" stroke-linecap="round" stroke-linejoin="round"/>
<path d="M138.744 99.7714H150.184L148.864 104.917H140.064L138.744 99.7714Z" fill="#263238" stroke="#263238" stroke-width="0.306878" stroke-linecap="round" stroke-linejoin="round"/>
<path d="M1.4413 138.051H158.299" stroke="#263238" stroke-width="0.306878" stroke-linecap="round" stroke-linejoin="round"/>
<path d="M96.096 115.204C96.096 115.204 88.7874 105.519 79.6621 98.8044C70.5411 92.0897 62.7182 89.3376 60.5686 89.9827C58.4232 90.6236 56.5349 92.6845 56.5349 92.6845L31.0474 118.115C31.0474 118.115 22.6429 124.716 21.7114 125.29C20.7799 125.864 16.447 128.558 13.7874 129.387C11.1277 130.216 6.77375 130.086 6.74846 130.891C6.72317 131.695 7.31325 132.319 8.61566 132.859C9.91807 133.4 13.1298 134.405 16.1688 134.493C19.2077 134.581 21.1171 135.042 22.0233 135.272C22.9295 135.498 25.5259 136.684 26.1665 135.695C26.803 134.707 27.6839 128.993 27.9073 128.394C28.1307 127.795 36.2064 121.994 41.8628 119.242C47.5192 116.49 54.4443 111.961 56.4338 109.804C58.4232 107.647 61.361 104.308 61.361 104.308C61.361 104.308 70.4273 112.837 73.5505 116.854C76.6737 120.875 81.6937 125.856 90.7895 130.053C99.8852 134.25 103.232 130.824 103.839 127.418C104.446 124.013 96.096 115.204 96.096 115.204Z" fill="white" stroke="#263238" stroke-width="0.306878" stroke-linecap="round" stroke-linejoin="round"/>
<path d="M79.6621 98.8043C70.5411 92.0896 62.7182 89.3375 60.5686 89.9826C58.4232 90.6235 56.535 92.6844 56.535 92.6844L31.3467 117.813C31.8946 119.334 33.138 121.294 35.9704 122.58C37.9557 121.336 40.0294 120.13 41.8544 119.242C47.5108 116.489 54.4359 111.961 56.4254 109.804C58.4148 107.647 61.3526 104.308 61.3526 104.308C61.3526 104.308 70.4189 112.837 73.5421 116.854C76.6654 120.875 85.1289 132.126 94.8274 134.665C112.682 139.335 112.071 130.287 112.682 126.882C113.289 123.476 96.0919 115.204 96.0919 115.204C96.0919 115.204 88.7832 105.519 79.6579 98.8043H79.6621Z" fill="#263238" stroke="#263238" stroke-width="0.306878" stroke-linecap="round" stroke-linejoin="round"/>
<path d="M6.74846 130.891C6.72317 131.695 7.31325 132.319 8.61566 132.859C9.91807 133.4 13.1298 134.405 16.1688 134.493C19.2077 134.581 21.1171 135.042 22.0233 135.272C22.9295 135.498 25.5259 136.684 26.1665 135.695C26.7145 134.845 27.4436 130.505 27.7766 128.926C24.999 129.018 21.842 127.812 21.842 127.812C21.842 127.812 22.0654 127.112 21.7156 125.29C20.7883 125.868 16.4512 128.558 13.7916 129.387C11.132 130.216 6.77796 130.086 6.75267 130.891H6.74846Z" fill="white" stroke="#263238" stroke-width="0.306878" stroke-linecap="round" stroke-linejoin="round"/>
<path d="M127.442 77.9776C125.027 75.8371 119.598 70.6974 115.809 64.2718C112.016 57.8461 113.053 55.7936 110.208 50.7377C107.363 45.6859 103.228 43.202 97.6261 44.312C93.074 45.2168 90.7432 47.9311 90.0267 48.9155C89.8665 49.1375 89.7021 49.3512 89.5251 49.5606C88.7074 50.5157 86.1152 54.0385 84.1806 62.2988C81.854 72.2347 81.9383 77.1189 85.4746 79.4311C89.0067 81.7433 91.5061 80.7171 92.543 81.8313C93.5756 82.9455 93.9212 84.3153 93.0614 84.3153C92.2016 84.3153 91.7674 83.8001 91.7674 83.8001C91.7674 83.8001 93.7484 86.7992 95.6451 85.9405C97.5418 85.0818 99.6957 81.9989 98.3174 77.8896C96.9391 73.7762 93.2342 69.5832 92.6273 68.8124C92.0245 68.0417 90.8191 59.1321 90.8191 59.1321C90.8191 59.1321 90.9034 56.1329 94.2669 57.1633C97.6261 58.1896 102.195 60.0745 103.662 63.0737C105.129 66.0729 110.557 72.8379 115.295 74.8946C120.037 76.9513 121.934 78.8363 123.653 83.888C125.373 88.9397 125.377 90.5692 125.377 90.5692C125.377 90.5692 128.909 88.9397 129.6 85.2578C130.292 81.5758 129.858 80.1181 127.447 77.9776H127.442ZM85.816 78.1493C84.1764 76.3523 85.2132 73.0976 85.2132 73.0976C84.6948 77.7221 90.0393 80.294 90.0393 80.294C90.0393 80.294 87.4556 79.9505 85.816 78.1535V78.1493Z" fill="#263238" stroke="#263238" stroke-width="0.306878" stroke-linecap="round" stroke-linejoin="round"/>
<path d="M96.4754 115.995C96.4754 115.995 85.0277 113.981 82.1911 114.99C79.3544 115.995 71.9615 128.076 70.6422 129.488C69.3272 130.895 67.9068 131.502 66.6929 131.502C65.479 131.502 61.1207 130.698 58.5876 131.201C56.0544 131.703 52.9143 133.316 53.2178 134.824C53.5213 136.332 54.9417 137.04 59.5992 137.744C64.2566 138.447 69.2218 136.738 70.5411 136.03C71.8561 135.327 73.3777 134.317 73.7823 134.116C74.187 133.915 77.8328 133.111 79.8602 131.8C81.8876 130.493 84.1131 128.377 84.1131 128.377C84.1131 128.377 92.7241 132.302 95.9654 134.016C99.2066 135.729 104.273 136.835 107.11 136.835C109.946 136.835 116.125 136.03 117.643 135.327C119.16 134.623 121.997 131.904 121.997 128.784C121.997 125.663 122.334 121.307 121.305 121.118C120.277 120.93 119.362 121.336 118.351 121.236C117.339 121.135 111.767 118.014 110.347 117.411C108.93 116.808 96.4712 116.004 96.4712 116.004L96.4754 115.995Z" fill="#263238" stroke="#263238" stroke-width="0.306878" stroke-linecap="round" stroke-linejoin="round"/>
<path d="M78.7476 118.576C79.9699 117.202 81.4957 115.543 82.1911 114.986C83.4556 113.98 92.8506 115.057 92.8506 115.057" stroke="white" stroke-width="0.306878" stroke-linecap="round" stroke-linejoin="round"/>
<path d="M76.9562 120.624C76.9562 120.624 77.3903 120.117 78.0183 119.405" stroke="white" stroke-width="0.306878" stroke-linecap="round" stroke-linejoin="round"/>
<path d="M70.3388 129.789C69.1123 130.975 67.8183 131.498 66.6971 131.498C65.4832 131.498 61.125 130.694 58.5919 131.197C56.0587 131.699 52.9186 133.312 53.2221 134.82C53.5256 136.328 54.946 137.036 59.6035 137.739C64.2609 138.443 69.2261 136.734 70.5453 136.026C71.8309 135.339 73.3019 134.367 73.7529 134.133C71.5316 133.09 70.6718 131.054 70.343 129.785L70.3388 129.789Z" fill="white" stroke="#263238" stroke-width="0.306878" stroke-linecap="round" stroke-linejoin="round"/>
<path d="M66.9963 133.609C66.5074 132.818 67.0511 131.955 67.5611 131.393C67.2619 131.46 66.971 131.494 66.6929 131.494C65.479 131.494 61.1208 130.69 58.5876 131.192C56.0544 131.695 52.9143 133.308 53.2178 134.816C53.5213 136.324 54.9417 137.032 59.5992 137.735C64.2566 138.439 69.2218 136.73 70.5411 136.022C70.7434 135.913 70.9499 135.8 71.1564 135.683C69.8751 135.507 67.7044 134.749 66.9963 133.609Z" fill="white" stroke="#263238" stroke-width="0.306878" stroke-linecap="round" stroke-linejoin="round"/>
<path d="M98.2247 74.3835C98.2247 74.3835 90.2965 74.4673 89.4324 77.4665C88.5726 80.4657 89.3481 95.1977 89.2596 100.078C89.1711 104.958 89.1753 108.129 89.778 109.327C90.3808 110.525 93.9171 112.753 94.1742 112.837C94.4313 112.921 94.0899 115.576 94.0899 115.576C94.0899 115.576 100.21 116.347 103.658 116.431C107.105 116.515 110.208 117.801 113.398 120.285C116.589 122.769 118.654 124.398 118.654 124.398L120.635 122.258C120.635 122.258 121.411 129.538 122.275 132.88C123.135 136.219 126.068 136.391 126.928 136.391C127.788 136.391 130.633 136.307 130.633 136.307C130.633 136.307 127.877 131.255 126.667 127.829C125.461 124.402 124.686 121.491 124.686 121.491C124.686 121.491 125.289 120.549 125.289 118.492C125.289 116.435 124.859 115.237 124.943 113.18C125.027 111.124 128.736 102.13 127.185 92.1106C125.634 82.0909 126.153 79.2635 122.359 77.2905C118.566 75.3176 110.292 74.1196 107.965 73.952C105.639 73.7803 98.2247 74.3793 98.2247 74.3793V74.3835Z" fill="#F8931F" stroke="#263238" stroke-width="0.306878" stroke-linecap="round" stroke-linejoin="round"/>
<path d="M92.623 68.8166C92.4923 68.649 92.328 68.0835 92.1551 67.3086C90.3469 64.3052 88.7116 61.2013 88.2816 59.731C87.6325 57.4984 88.1341 53.2509 88.4713 51.0182C87.3038 52.8613 85.5715 56.3548 84.1763 62.3071C81.8497 72.243 81.934 77.1272 85.4703 79.4394C89.0024 81.7516 91.5018 80.7254 92.5387 81.8396C93.5713 82.9538 93.917 84.3236 93.0571 84.3236C92.1973 84.3236 91.7631 83.8084 91.7631 83.8084C91.7631 83.8084 93.7442 86.8076 95.6409 85.9489C97.5376 85.0901 99.6914 82.0072 98.3131 77.8979C96.9348 73.7845 93.2299 69.5915 92.623 68.8207V68.8166ZM85.8159 78.1534C84.1763 76.3564 85.2132 73.1017 85.2132 73.1017C84.6948 77.7262 90.0393 80.2981 90.0393 80.2981C90.0393 80.2981 87.4555 79.9546 85.8159 78.1576V78.1534Z" fill="#263238" stroke="#263238" stroke-width="0.306878" stroke-linecap="round" stroke-linejoin="round"/>
<path d="M109.183 113.976C110.671 114.19 111.645 114.328 111.645 114.328" stroke="#263238" stroke-width="0.306878" stroke-linecap="round" stroke-linejoin="round"/>
<path d="M95.1984 100.802C95.1984 100.802 93.466 111.14 94.1994 111.559C94.6926 111.84 102.393 112.992 107.396 113.717" stroke="#263238" stroke-width="0.306878" stroke-linecap="round" stroke-linejoin="round"/>
<path d="M94.9329 112.079L94.0857 115.581" stroke="#263238" stroke-width="0.306878" stroke-linecap="round" stroke-linejoin="round"/>
<path d="M113.533 118.609C113.533 118.609 118.735 120.385 121.31 121.114C123.885 121.847 124.252 121.583 124.252 121.583" stroke="#263238" stroke-width="0.306878" stroke-linecap="round" stroke-linejoin="round"/>
<path d="M104.812 82.1077L108.699 84.3026L108.804 81.0647" stroke="#263238" stroke-width="0.306878" stroke-linecap="round" stroke-linejoin="round"/>
<path d="M99.5059 81.693L98.7683 82.2669" stroke="#263238" stroke-width="0.306878" stroke-linecap="round" stroke-linejoin="round"/>
<path d="M94.6167 88.6884L94.5662 86.7029" stroke="#263238" stroke-width="0.306878" stroke-linecap="round" stroke-linejoin="round"/>
<path d="M92.7789 54.7672C92.7789 54.7672 88.2816 58.667 88.2816 59.7268C88.2816 60.7865 89.7526 65.4152 90.3258 67.2834C90.8991 69.1516 92.29 71.267 93.5966 72.6493C94.9032 74.0316 97.4406 75.6569 98.0138 75.6569C98.5871 75.6569 99.3205 75.2506 99.3205 75.2506C99.3205 75.2506 99.6492 81.915 100.791 84.2733C101.938 86.6316 102.507 86.5478 102.756 85.9781C103 85.4084 106.026 75.5731 106.026 75.5731L107.497 68.5819L104.391 60.619C104.391 60.619 100.058 56.7988 97.1118 55.8228C94.1656 54.8468 92.7789 54.7672 92.7789 54.7672Z" fill="white" stroke="#263238" stroke-width="0.306878" stroke-linecap="round" stroke-linejoin="round"/>
<path d="M99.3204 75.2506C99.3204 75.2506 102.018 73.1394 103.493 71.1874C103.493 71.1874 101.858 75.0077 101.369 75.9836C100.88 76.9596 100.631 77.6885 100.631 77.6885L99.3246 75.2506H99.3204Z" fill="#263238" stroke="#263238" stroke-width="0.306878" stroke-linecap="round" stroke-linejoin="round"/>
<path d="M116.323 84.7466C116.323 84.7466 115.375 88.0014 115.721 90.2298C116.066 92.4583 115.548 99.6505 115.548 99.994C115.548 100.337 113.651 101.192 113.74 101.791C113.824 102.39 114.17 103.504 114.17 103.504L111.413 102.39L107.708 107.274C107.708 107.274 110.637 110.102 115.636 112.841C120.635 115.581 124.083 114.726 124.083 114.726C124.083 114.726 126.064 102.65 126.325 97.2545C126.582 91.8593 127.792 84.7508 125.895 79.6949C124.416 75.7448 117.879 75.2422 116.416 82.0071" fill="#F8931F"/>
<path d="M116.323 84.7466C116.323 84.7466 115.375 88.0014 115.721 90.2298C116.066 92.4583 115.548 99.6505 115.548 99.994C115.548 100.337 113.651 101.192 113.74 101.791C113.824 102.39 114.17 103.504 114.17 103.504L111.413 102.39L107.708 107.274C107.708 107.274 110.637 110.102 115.636 112.841C120.635 115.581 124.083 114.726 124.083 114.726C124.083 114.726 126.064 102.65 126.325 97.2545C126.582 91.8593 127.792 84.7508 125.895 79.6949C124.416 75.7448 117.879 75.2422 116.416 82.0071" stroke="#263238" stroke-width="0.306878" stroke-linecap="round" stroke-linejoin="round"/>
<path d="M120.913 98.2849L121.752 97.9373" stroke="#263238" stroke-width="0.306878" stroke-linecap="round" stroke-linejoin="round"/>
<path d="M116.58 100.078L119.864 98.7205" stroke="#263238" stroke-width="0.306878" stroke-linecap="round" stroke-linejoin="round"/>
<path d="M114.772 103.676C114.772 103.676 122.014 101.879 121.925 102.478C121.841 103.077 119.426 103.332 119.426 103.332" stroke="#263238" stroke-width="0.306878" stroke-linecap="round" stroke-linejoin="round"/>
<path d="M115.548 104.019C115.548 104.019 120.892 104.618 121.841 106.847" stroke="#263238" stroke-width="0.306878" stroke-linecap="round" stroke-linejoin="round"/>
<path d="M120.93 109.054C121.348 109.293 121.693 109.457 121.925 109.498" stroke="#263238" stroke-width="0.306878" stroke-linecap="round" stroke-linejoin="round"/>
<path d="M115.118 104.79C115.118 104.79 117.959 107.119 120.054 108.506" stroke="#263238" stroke-width="0.306878" stroke-linecap="round" stroke-linejoin="round"/>
<path d="M81.7445 89.0025C81.7445 89.0025 79.8014 93.1285 80.5348 93.8071C81.2724 94.4857 85.6854 98.7164 86.1027 98.9258C86.5242 99.1353 87.7296 102.788 88.3619 104.2C88.9941 105.611 89.3608 108.899 90.5705 109.369C91.7802 109.838 94.3513 107.383 94.406 106.131C94.4566 104.878 94.406 104.409 93.2512 102.788C92.0963 101.171 89.4704 95.9476 89.4704 95.9476L82.2713 88.1689L81.7445 89.0025Z" fill="white" stroke="#263238" stroke-width="0.306878" stroke-linecap="round" stroke-linejoin="round"/>
<path d="M78.385 83.8838L86.5282 97.0409L92.7789 97.8786L86.6842 85.9196L78.385 83.8838Z" fill="#263238" stroke="#263238" stroke-width="0.306878" stroke-linecap="round" stroke-linejoin="round"/>
<path d="M111.413 102.39C111.413 102.39 102.107 95.8805 99.6915 94.2511C97.2763 92.6216 96.2437 91.6833 96.2437 91.6833C96.2437 91.6833 95.9866 90.0539 95.3838 89.3711C94.7811 88.6841 94.1784 88.5166 93.0572 88.6004C91.936 88.6841 90.9877 88.8559 90.3006 88.6004C89.6094 88.3448 88.3196 86.2002 88.1468 87.1426C87.974 88.0851 88.0625 88.7721 88.9224 89.4549C89.7822 90.1418 90.9919 90.3974 91.3375 90.5691C91.6831 90.7408 90.7896 90.8791 90.7896 90.8791C90.7896 90.8791 89.0446 91.6079 86.4819 91.3482C84.3323 91.1304 82.5621 90.3052 82.2881 90.2256C81.6854 90.0539 81.7697 90.9126 82.4609 91.4236C83.1522 91.9388 83.5821 92.1944 83.5821 92.1944C83.5821 92.1944 81.4283 91.8509 81.6854 92.5378C81.9425 93.2248 82.8908 93.8238 83.4936 94.2511C84.0963 94.6783 84.699 95.4491 85.2175 95.7088C85.7359 95.9643 85.8202 97.1665 86.6843 97.6775C87.5441 98.1928 87.2912 98.1341 89.4956 98.3352C93.0151 98.6535 96.4249 98.2765 96.4249 98.2765L107.717 107.27L111.422 102.386L111.413 102.39Z" fill="white" stroke="#263238" stroke-width="0.306878" stroke-linecap="round" stroke-linejoin="round"/>
<path d="M83.5735 92.1985C83.5735 92.1985 85.7273 93.2248 86.0729 93.2248H90.7262" stroke="#263238" stroke-width="0.306878" stroke-linecap="round" stroke-linejoin="round"/>
<path d="M83.1184 94.0668C83.1184 94.0668 84.2817 94.2301 84.5852 94.4312C84.8887 94.6323 86.8612 95.0218 87.4682 95.1224C88.0751 95.2229 90.1994 95.1726 90.1994 95.1726" stroke="#263238" stroke-width="0.306878" stroke-linecap="round" stroke-linejoin="round"/>
<path d="M85.2089 95.7087C85.2089 95.7087 87.6156 96.8774 88.0708 96.978C88.526 97.0785 91.0044 96.8774 91.0044 96.8774" stroke="#263238" stroke-width="0.306878" stroke-linecap="round" stroke-linejoin="round"/>
<path d="M113.478 68.8166C108.652 63.7649 104.947 58.1937 104.947 58.1937C104.947 58.1937 103.999 71.6398 106.069 77.3785C108.138 83.1172 115.721 80.717 118.393 79.2635C121.065 77.8058 122.014 76.6958 123.649 76.9513C123.649 76.9513 118.304 73.8683 113.478 68.8124V68.8166Z" fill="#263238" stroke="#263238" stroke-width="0.306878" stroke-linecap="round" stroke-linejoin="round"/>
<path d="M94.0686 54.0887C91.0592 50.5366 92.7831 54.7715 92.7831 54.7715C92.7831 54.7715 98.5449 60.2421 104.395 60.6233C104.395 60.6233 97.0781 57.6408 94.0686 54.0887Z" fill="#263238" stroke="#263238" stroke-width="0.306878" stroke-linecap="round" stroke-linejoin="round"/>
<path d="M40.6643 76.9933C40.6065 76.9933 40.548 76.9714 40.504 76.9269C40.4153 76.8385 40.4153 76.6953 40.504 76.6069L41.0322 76.0808C41.1209 75.9924 41.2646 75.9924 41.3533 76.0808C41.442 76.1691 41.442 76.3123 41.3533 76.4007L40.8252 76.9269C40.7812 76.9707 40.7227 76.9933 40.665 76.9933H40.6643Z" fill="#26AA9D"/>
<path d="M42.6593 75.0057C42.6015 75.0057 42.543 74.9838 42.499 74.9393C42.4103 74.8509 42.4103 74.7077 42.499 74.6193L43.0272 74.0931C43.1159 74.0048 43.2596 74.0048 43.3483 74.0931C43.437 74.1815 43.437 74.3247 43.3483 74.4131L42.8202 74.9393C42.7762 74.9831 42.7177 75.0057 42.6599 75.0057H42.6593Z" fill="#26AA9D"/>
<path d="M43.1874 76.9933C43.1296 76.9933 43.0712 76.9714 43.0272 76.9269L42.499 76.4007C42.4103 76.3123 42.4103 76.1691 42.499 76.0808C42.5877 75.9924 42.7315 75.9924 42.8202 76.0808L43.3483 76.6069C43.437 76.6953 43.437 76.8385 43.3483 76.9269C43.3043 76.9707 43.2459 76.9933 43.1881 76.9933H43.1874Z" fill="#26AA9D"/>
<path d="M41.1917 75.0058C41.1339 75.0058 41.0755 74.9839 41.0314 74.9393L40.5033 74.4132C40.4146 74.3248 40.4146 74.1816 40.5033 74.0932C40.592 74.0048 40.7357 74.0048 40.8245 74.0932L41.3526 74.6194C41.4413 74.7078 41.4413 74.8509 41.3526 74.9393C41.3086 74.9832 41.2501 75.0058 41.1924 75.0058H41.1917Z" fill="#26AA9D"/>
<path d="M66.2677 21.6112C66.2051 21.6112 66.1425 21.5851 66.0978 21.5351C66.0146 21.4413 66.0236 21.2988 66.1171 21.2159L66.6762 20.7226C66.7704 20.6397 66.9141 20.6486 66.9967 20.7418C67.0799 20.8356 67.0709 20.9781 66.9774 21.061L66.4183 21.5543C66.375 21.5927 66.3213 21.6112 66.2677 21.6112Z" fill="#26AA9D"/>
<path d="M68.3801 19.749C68.3175 19.749 68.255 19.723 68.2103 19.673C68.1271 19.5791 68.136 19.4366 68.2295 19.3537L68.7886 18.8604C68.8828 18.7775 69.0266 18.7865 69.1091 18.8796C69.1923 18.9735 69.1834 19.116 69.0898 19.1989L68.5307 19.6922C68.4874 19.7305 68.4338 19.749 68.3801 19.749Z" fill="#26AA9D"/>
<path d="M68.7862 21.7639C68.7236 21.7639 68.661 21.7379 68.6163 21.6879L68.1212 21.1309C68.0379 21.037 68.0469 20.8945 68.1404 20.8116C68.2346 20.7287 68.3777 20.7376 68.4609 20.8308L68.956 21.3878C69.0392 21.4817 69.0303 21.6242 68.9368 21.7071C68.8934 21.7454 68.8398 21.7639 68.7862 21.7639Z" fill="#26AA9D"/>
<path d="M66.9162 19.6599C66.8536 19.6599 66.791 19.6339 66.7463 19.5839L66.2512 19.0269C66.168 18.9337 66.1769 18.7905 66.2704 18.7076C66.3646 18.6247 66.5084 18.6336 66.5909 18.7268L67.086 19.2838C67.1692 19.3777 67.1603 19.5202 67.0668 19.6031C67.0234 19.6414 66.9698 19.6599 66.9162 19.6599Z" fill="#26AA9D"/>
<path d="M60.8939 28.4572C60.8699 28.4572 60.8465 28.4565 60.8224 28.4551C60.5116 28.4359 60.2269 28.2983 60.0212 28.0661C59.8149 27.8339 59.7118 27.536 59.731 27.2264C59.7503 26.9168 59.8885 26.634 60.1216 26.4285C60.3548 26.223 60.6519 26.121 60.9648 26.1395C61.6057 26.1785 62.0953 26.7292 62.0561 27.3682C62.0183 27.9825 61.5039 28.4578 60.8939 28.4578V28.4572ZM60.8926 26.5894C60.7193 26.5894 60.5535 26.6518 60.4229 26.7668C60.2805 26.8922 60.1959 27.0654 60.1842 27.2538C60.1602 27.6435 60.4593 27.9798 60.8506 28.0038C61.2405 28.0277 61.5796 27.7298 61.6036 27.3401C61.6277 26.9504 61.3285 26.6141 60.9379 26.5908C60.9228 26.5901 60.9084 26.5894 60.8932 26.5894H60.8926Z" fill="#26AA9D"/>
<path d="M114.522 134.723C114.459 134.723 114.396 134.697 114.352 134.647C114.269 134.553 114.277 134.41 114.371 134.327L114.93 133.834C115.024 133.751 115.168 133.76 115.251 133.853C115.334 133.947 115.325 134.09 115.231 134.172L114.672 134.666C114.629 134.704 114.575 134.723 114.522 134.723Z" fill="#F8931F"/>
<path d="M116.635 132.86C116.572 132.86 116.51 132.834 116.465 132.784C116.382 132.69 116.391 132.547 116.484 132.464L117.044 131.971C117.138 131.888 117.281 131.897 117.364 131.99C117.447 132.084 117.438 132.227 117.345 132.309L116.786 132.803C116.742 132.841 116.689 132.86 116.635 132.86Z" fill="#F8931F"/>
<path d="M117.041 134.875C116.978 134.875 116.916 134.849 116.871 134.799L116.376 134.242C116.292 134.148 116.301 134.006 116.395 133.923C116.488 133.84 116.633 133.849 116.715 133.942L117.211 134.499C117.294 134.593 117.285 134.736 117.191 134.818C117.148 134.857 117.094 134.875 117.041 134.875Z" fill="#F8931F"/>
<path d="M115.171 132.771C115.108 132.771 115.046 132.745 115.001 132.695L114.506 132.138C114.423 132.044 114.432 131.901 114.525 131.818C114.619 131.735 114.762 131.744 114.846 131.837L115.341 132.394C115.424 132.488 115.415 132.631 115.322 132.714C115.278 132.752 115.225 132.771 115.171 132.771Z" fill="#F8931F"/>
<path d="M100.688 14.672C99.989 14.672 99.2835 14.6946 98.5916 14.7379C98.4263 14.7488 98.301 14.8906 98.3119 15.055C98.3228 15.2194 98.4544 15.3467 98.6306 15.3332C99.4133 15.2835 100.213 15.2627 101.006 15.27H101.009C101.173 15.27 101.307 15.1381 101.308 14.9746C101.31 14.8102 101.177 14.6756 101.011 14.6738C100.904 14.6729 100.796 14.672 100.689 14.672H100.688ZM103.402 14.7804C103.248 14.7804 103.116 14.8987 103.104 15.055C103.091 15.2194 103.213 15.363 103.379 15.3756C104.158 15.4371 104.952 15.5265 105.741 15.6421C105.907 15.6656 106.057 15.5536 106.082 15.3901C106.106 15.2275 105.993 15.0758 105.829 15.0514C105.027 14.9348 104.219 14.8436 103.427 14.7804C103.419 14.7804 103.411 14.7795 103.402 14.7795V14.7804ZM96.2261 14.9782C96.2125 14.9782 96.198 14.9791 96.1844 14.9809C95.3862 15.092 94.5844 15.2356 93.8008 15.4063C93.6391 15.4416 93.5365 15.6005 93.5719 15.7613C93.6073 15.9221 93.7672 16.0251 93.9288 15.9889C94.697 15.8209 95.4834 15.6809 96.2661 15.5716C96.4304 15.5491 96.5448 15.3982 96.5212 15.2347C96.5004 15.0857 96.3723 14.9782 96.2243 14.9782H96.2261ZM108.145 15.4687C108.006 15.4687 107.882 15.5653 107.852 15.7053C107.817 15.867 107.922 16.0251 108.083 16.0585C108.848 16.2184 109.626 16.4054 110.398 16.614C110.559 16.6574 110.722 16.5634 110.766 16.4044C110.809 16.2455 110.715 16.082 110.555 16.0386C109.772 15.8273 108.982 15.6376 108.207 15.475C108.186 15.4705 108.165 15.4687 108.144 15.4687H108.145ZM91.5443 16.0016C91.5152 16.0016 91.4862 16.0061 91.4571 16.0142C90.6907 16.2446 89.9207 16.5074 89.168 16.7983C89.0136 16.8579 88.9364 17.0304 88.9963 17.184C89.0563 17.3375 89.2306 17.4143 89.3841 17.3547C90.1232 17.0702 90.8787 16.8118 91.6306 16.586C91.7895 16.5381 91.8785 16.3719 91.8312 16.2148C91.7922 16.0856 91.6732 16.0025 91.5443 16.0025V16.0016ZM112.774 16.7161C112.648 16.7161 112.531 16.7956 112.489 16.9211C112.437 17.0774 112.523 17.2463 112.68 17.2978C113.421 17.5407 114.176 17.8099 114.924 18.0981C115.079 18.1577 115.252 18.0809 115.312 17.9273C115.372 17.7738 115.295 17.6013 115.141 17.5416C114.382 17.2508 113.618 16.978 112.868 16.7314C112.837 16.7215 112.805 16.7161 112.773 16.7161H112.774ZM87.0804 17.734C87.0323 17.734 86.9841 17.7449 86.9387 17.7693C86.2314 18.1468 85.5531 18.6201 84.9238 19.1765C84.8003 19.2858 84.7885 19.4746 84.8993 19.5975C85.0092 19.7203 85.1989 19.7311 85.3224 19.6219C85.9163 19.0962 86.5555 18.6499 87.222 18.2941C87.3682 18.2164 87.4227 18.0357 87.3446 17.8903C87.2901 17.79 87.1875 17.7331 87.0804 17.7331V17.734ZM117.251 18.4332C117.135 18.4332 117.026 18.5 116.977 18.6111C116.909 18.7619 116.978 18.9381 117.13 19.004C117.846 19.3175 118.575 19.6553 119.294 20.0075C119.443 20.0798 119.623 20.0193 119.695 19.8721C119.769 19.7239 119.707 19.5451 119.559 19.4728C118.833 19.1169 118.096 18.7755 117.372 18.4585C117.333 18.4413 117.293 18.4332 117.252 18.4332H117.251ZM121.558 20.5405C121.451 20.5405 121.349 20.5965 121.294 20.6967C121.215 20.8413 121.269 21.0228 121.415 21.1014C122.104 21.4744 122.803 21.8692 123.494 22.2747C123.636 22.3578 123.82 22.3118 123.905 22.1699C123.989 22.0281 123.942 21.8457 123.8 21.7617C123.104 21.3516 122.398 20.9533 121.702 20.5775C121.657 20.5531 121.608 20.5414 121.559 20.5414L121.558 20.5405ZM83.5055 20.8575C83.4146 20.8575 83.3248 20.8982 83.2657 20.9767C82.789 21.6054 82.3522 22.2982 81.9645 23.0362C81.8882 23.1825 81.9454 23.3622 82.0916 23.4381C82.2387 23.514 82.4194 23.458 82.4957 23.3117C82.8671 22.6026 83.2875 21.9378 83.7434 21.3353C83.8432 21.2035 83.8169 21.0165 83.6843 20.918C83.6308 20.8774 83.5672 20.8584 83.5045 20.8584L83.5055 20.8575ZM125.69 22.9729C125.591 22.9729 125.495 23.0217 125.438 23.1102C125.349 23.2493 125.389 23.4336 125.528 23.5221C126.191 23.9448 126.861 24.3883 127.521 24.8391C127.657 24.9321 127.844 24.8987 127.937 24.7623C128.031 24.6268 127.997 24.4407 127.86 24.3477C127.196 23.8925 126.52 23.4462 125.852 23.0199C125.802 22.9883 125.745 22.9729 125.69 22.9729ZM81.2799 25.064C81.1564 25.064 81.0401 25.1408 80.9975 25.2627C80.7323 26.0115 80.5098 26.7955 80.3364 27.594C80.3019 27.7548 80.4045 27.9138 80.5661 27.949C80.7269 27.9824 80.8876 27.8812 80.923 27.7205C81.091 26.9464 81.3062 26.1858 81.5632 25.4614C81.6186 25.3061 81.5359 25.1362 81.3797 25.0811C81.347 25.0694 81.3135 25.064 81.2799 25.064ZM129.646 25.6809C129.555 25.6809 129.464 25.7225 129.405 25.8019C129.307 25.9347 129.335 26.1217 129.468 26.2192C130.105 26.6853 130.746 27.1704 131.373 27.6599C131.503 27.7611 131.692 27.7385 131.795 27.6094C131.896 27.4802 131.874 27.2923 131.744 27.1902C131.112 26.6971 130.465 26.2084 129.824 25.7387C129.771 25.6999 129.708 25.6809 129.646 25.6809ZM133.427 28.63C133.34 28.63 133.255 28.6662 133.196 28.7375C133.09 28.864 133.107 29.0519 133.234 29.1575C133.847 29.6661 134.457 30.1882 135.049 30.7102C135.173 30.8195 135.362 30.8087 135.472 30.6849C135.582 30.5621 135.571 30.3733 135.447 30.264C134.85 29.7383 134.236 29.2117 133.618 28.6996C133.562 28.6526 133.494 28.63 133.427 28.63ZM80.2647 29.7158C80.1121 29.7158 79.9814 29.8314 79.9668 29.9858C79.906 30.6326 79.8751 31.2901 79.8751 31.9396C79.8751 32.094 79.8769 32.2494 79.8806 32.4048C79.8842 32.5673 80.0177 32.6965 80.1802 32.6965H80.1875C80.3527 32.6929 80.4844 32.5565 80.4808 32.3912C80.4772 32.2404 80.4753 32.0904 80.4753 31.9396C80.4753 31.3082 80.5053 30.6705 80.5643 30.0418C80.5798 29.8774 80.459 29.732 80.2937 29.7167C80.2837 29.7158 80.2747 29.7149 80.2656 29.7149L80.2647 29.7158ZM137.02 31.8041C136.941 31.8041 136.861 31.8357 136.803 31.8971C136.688 32.0164 136.694 32.2051 136.814 32.3189C137.603 33.0632 138.176 33.6395 138.517 33.9918C138.632 34.111 138.822 34.1137 138.941 33.9999C139.06 33.8852 139.064 33.6964 138.949 33.5781C138.603 33.2213 138.024 32.6387 137.227 31.8863C137.169 31.8312 137.094 31.8041 137.021 31.8041H137.02ZM80.3736 34.4768C80.36 34.4768 80.3455 34.4777 80.331 34.4795C80.1666 34.503 80.0531 34.6539 80.0758 34.8165C80.1902 35.6222 80.3546 36.4197 80.5634 37.1884C80.607 37.3474 80.7723 37.4413 80.9312 37.3989C81.091 37.3555 81.1854 37.192 81.1427 37.033C80.9402 36.2879 80.7813 35.5138 80.6706 34.7334C80.6497 34.5843 80.5207 34.4768 80.3736 34.4768ZM81.6285 39.069C81.5904 39.069 81.5504 39.0762 81.5132 39.0925C81.3607 39.1557 81.2889 39.3309 81.3525 39.4827C81.6694 40.236 82.039 40.9649 82.4503 41.6496C82.5357 41.7905 82.72 41.8366 82.8617 41.7526C83.0042 41.6677 83.0505 41.4852 82.9652 41.3434C82.5684 40.6831 82.2115 39.9795 81.9064 39.2523C81.8583 39.1376 81.7466 39.069 81.6294 39.069H81.6285ZM84.0884 43.1445C84.0212 43.1445 83.9531 43.1671 83.8977 43.2131C83.7697 43.3179 83.7524 43.5058 83.8578 43.6331C84.3772 44.2582 84.9501 44.8453 85.5585 45.3773C85.6829 45.4866 85.8727 45.474 85.9817 45.3502C86.0915 45.2265 86.0788 45.0386 85.9544 44.9293C85.3696 44.4172 84.8194 43.8535 84.32 43.2529C84.2609 43.1815 84.1747 43.1445 84.0884 43.1445ZM87.6742 46.2815C87.5753 46.2815 87.4781 46.3303 87.4209 46.4206C87.3319 46.5597 87.3737 46.744 87.5144 46.8325C88.1927 47.2588 88.9173 47.6409 89.6701 47.9697C89.8217 48.0356 89.9988 47.967 90.0651 47.8161C90.1314 47.6653 90.0624 47.4892 89.9107 47.4232C89.1852 47.1071 88.4869 46.7385 87.8341 46.3285C87.7841 46.2969 87.7287 46.2824 87.6742 46.2824V46.2815Z" fill="#26AA9D"/>
<path d="M39.7966 60.9162C39.8088 60.8964 39.8244 60.8777 39.8436 60.8622C39.9393 60.7817 40.0827 60.7939 40.1635 60.8892C40.1677 60.8942 40.5979 61.4014 41.3681 62.2392C41.4525 62.3311 41.4458 62.4742 41.354 62.5587C41.2617 62.6429 41.1178 62.6368 41.0333 62.5449C40.2564 61.6998 39.8212 61.1862 39.817 61.1813C39.7522 61.1045 39.7471 60.9977 39.7972 60.9166L39.7966 60.9162ZM42.2502 63.5951C42.2603 63.5788 42.2721 63.5635 42.2869 63.55C42.3772 63.4638 42.5214 63.4669 42.6079 63.5569C43.022 63.9883 43.4478 64.4228 43.8743 64.8498C43.9624 64.9384 43.9622 65.0814 43.8738 65.1696C43.7849 65.2575 43.6414 65.2572 43.5528 65.1692C43.1244 64.7403 42.696 64.3033 42.2799 63.8699C42.2073 63.794 42.1976 63.6803 42.2502 63.5951ZM44.8149 66.1619C44.8232 66.1485 44.833 66.1352 44.8452 66.1233C44.9321 66.0334 45.0765 66.031 45.1663 66.1182C45.5981 66.5339 46.0405 66.9521 46.4822 67.361C46.574 67.4462 46.5787 67.589 46.4937 67.6809C46.4082 67.7725 46.2645 67.7778 46.1726 67.6926C45.7296 67.282 45.2846 66.8614 44.8508 66.4437C44.7729 66.3686 44.7607 66.251 44.8151 66.1628L44.8149 66.1619ZM47.4765 68.628C47.4833 68.6169 47.4917 68.606 47.5007 68.5954C47.5842 68.5018 47.7278 68.494 47.8211 68.5769C48.2744 68.9801 48.7326 69.3806 49.1852 69.7664C49.2802 69.8479 49.2911 69.9898 49.2095 70.0854C49.1277 70.18 48.9844 70.1912 48.8895 70.1097C48.4348 69.7218 47.9737 69.3195 47.5185 68.9143C47.4352 68.84 47.4197 68.7187 47.4762 68.6271L47.4765 68.628ZM50.2361 70.9836C50.2415 70.9749 50.2469 70.9661 50.2541 70.9584C50.3339 70.8618 50.4765 70.8478 50.5738 70.9267C51.0428 71.3097 51.5185 71.6896 51.9878 72.0551C52.0866 72.1317 52.1052 72.2742 52.0267 72.3725C51.9498 72.471 51.807 72.488 51.7082 72.4114C51.2363 72.0435 50.7577 71.6619 50.2861 71.2765C50.1972 71.2035 50.1777 71.0782 50.2365 70.9831L50.2361 70.9836ZM53.0995 73.213C53.1031 73.2072 53.1067 73.2013 53.1105 73.1965C53.1854 73.096 53.3274 73.0752 53.4282 73.1498C53.919 73.5132 54.4129 73.8688 54.8964 74.206C54.999 74.2777 55.0256 74.4163 54.9518 74.5215C54.8798 74.6238 54.7384 74.6489 54.6352 74.5769C54.1486 74.2369 53.6511 73.8791 53.1572 73.513C53.0619 73.4426 53.0382 73.3122 53.0991 73.2136L53.0995 73.213ZM56.0734 75.2906C56.0734 75.2906 56.076 75.2865 56.0774 75.2842C56.1465 75.1801 56.287 75.1512 56.3918 75.2194C56.8935 75.5493 57.4001 75.8701 57.8961 76.1739L57.9178 76.1872C58.0244 76.2525 58.0577 76.3919 57.9922 76.4982C57.9266 76.6044 57.7866 76.6377 57.68 76.5724L57.6584 76.5591C57.1583 76.2527 56.648 75.9289 56.1421 75.5965C56.0394 75.5288 56.0095 75.393 56.0736 75.2891L56.0734 75.2906ZM59.17 77.1827C59.2338 77.0794 59.3683 77.0444 59.4751 77.1042C60.0055 77.4033 60.5399 77.6921 61.0648 77.9622C61.1764 78.0193 61.2196 78.156 61.1622 78.2672C61.1054 78.3763 60.9677 78.4215 60.8561 78.3644C60.3261 78.092 59.7861 77.8006 59.2511 77.4986C59.1423 77.4368 59.1039 77.299 59.1653 77.1903C59.1668 77.1879 59.1682 77.1856 59.1696 77.1833L59.17 77.1827ZM62.3997 78.8395C62.4591 78.7432 62.5823 78.7044 62.6879 78.753C63.2416 79.0078 63.7989 79.2478 64.3446 79.4671C64.4612 79.5136 64.5168 79.6458 64.4699 79.761C64.4249 79.8758 64.2905 79.9326 64.1749 79.8859C63.6226 79.6642 63.058 79.4204 62.498 79.1627C62.3841 79.1106 62.3349 78.9759 62.3872 78.8623C62.3907 78.854 62.3954 78.8465 62.4004 78.8383L62.3997 78.8395ZM65.7683 80.1888C65.8227 80.1007 65.9326 80.0586 66.0348 80.0931C66.6129 80.2888 67.193 80.4656 67.7573 80.6182C67.8781 80.6513 67.9498 80.7756 67.9167 80.8961C67.8829 81.0161 67.7587 81.088 67.6378 81.055C67.0639 80.8996 66.4751 80.7199 65.8877 80.5209C65.7691 80.4804 65.7054 80.3522 65.7461 80.2339C65.7516 80.2172 65.759 80.2025 65.7677 80.1884L65.7683 80.1888ZM69.2725 81.1314C69.3207 81.0532 69.4142 81.0091 69.5097 81.0282C70.1074 81.1451 70.7048 81.2376 71.2854 81.3037C71.4098 81.3179 71.4996 81.4301 71.4852 81.554C71.4715 81.6783 71.3583 81.7674 71.234 81.7531C70.6411 81.6859 70.0313 81.5914 69.422 81.4724C69.2988 81.4484 69.2189 81.3294 69.243 81.2067C69.2485 81.1795 69.2584 81.1542 69.2721 81.132L69.2725 81.1314ZM72.8765 81.5344C72.9176 81.4679 72.9917 81.4249 73.0752 81.4269C73.6798 81.441 74.2819 81.4254 74.8664 81.3805C74.9916 81.3711 75.1004 81.4643 75.1101 81.5885C75.1198 81.7127 75.0259 81.8216 74.9013 81.8313C74.3025 81.8771 73.6844 81.8926 73.0649 81.879C72.9392 81.8761 72.84 81.7727 72.8431 81.6474C72.8436 81.606 72.8563 81.5671 72.8765 81.5344ZM76.489 81.2541C76.5215 81.2016 76.5755 81.1624 76.6411 81.1503C77.2283 81.041 77.813 80.899 78.3776 80.7269C78.4979 80.6904 78.6243 80.7574 78.661 80.8772C78.6976 80.9969 78.6303 81.123 78.5101 81.1596C77.9287 81.3366 77.3275 81.4831 76.7235 81.5948C76.6005 81.6176 76.4817 81.5368 76.4589 81.4142C76.4482 81.357 76.4602 81.3008 76.4887 81.2547L76.489 81.2541ZM79.9524 80.1996C79.9758 80.1617 80.0107 80.13 80.055 80.1105C80.5967 79.8761 81.1339 79.606 81.6517 79.3096C81.7603 79.2474 81.8993 79.2851 81.9616 79.3933C82.024 79.5014 81.9861 79.6399 81.8775 79.7021C81.3447 80.007 80.7928 80.2842 80.2353 80.5258C80.1204 80.576 79.9868 80.5231 79.9364 80.4086C79.9055 80.3383 79.914 80.2606 79.9514 80.1999L79.9524 80.1996ZM83.0949 78.4057C83.11 78.3812 83.1302 78.359 83.1549 78.3412C83.6299 77.9992 84.1004 77.6239 84.554 77.2262C84.6478 77.1436 84.7914 77.1528 84.8742 77.2462C84.9576 77.3399 84.9478 77.4827 84.8541 77.5652C84.3893 77.973 83.9069 78.3571 83.421 78.7077C83.3191 78.7812 83.1776 78.758 83.1039 78.6566C83.0486 78.5801 83.0475 78.4812 83.0943 78.4054L83.0949 78.4057Z" fill="#26AA9D"/>
</svg>
