<svg width="347" height="78" viewBox="0 0 347 78" fill="none" xmlns="http://www.w3.org/2000/svg">
<line x1="1" y1="72" x2="1" y2="1" stroke="url(#paint0_linear_144_695)" stroke-width="2" stroke-linecap="square" stroke-dasharray="4 8"/>
<path d="M3 71L2 71L2 73L3 73L3 71ZM347 72L337 66.2265L337 77.7735L347 72ZM4.97701 73L5.97701 73L5.97701 71L4.97701 71L4.97701 73ZM12.8851 71L11.8851 71L11.8851 73L12.8851 73L12.8851 71ZM16.8391 73L17.8391 73L17.8391 71L16.8391 71L16.8391 73ZM24.7471 71L23.7471 71L23.7471 73L24.7471 73L24.7471 71ZM28.7012 73L29.7012 73L29.7012 71L28.7012 71L28.7012 73ZM36.6092 71L35.6092 71L35.6092 73L36.6092 73L36.6092 71ZM40.5632 73L41.5632 73L41.5632 71L40.5632 71L40.5632 73ZM48.4713 71L47.4713 71L47.4713 73L48.4713 73L48.4713 71ZM52.4253 73L53.4253 73L53.4253 71L52.4253 71L52.4253 73ZM60.3333 71L59.3333 71L59.3333 73L60.3333 73L60.3333 71ZM64.2874 73L65.2874 73L65.2874 71L64.2874 71L64.2874 73ZM72.1954 71L71.1954 71L71.1954 73L72.1954 73L72.1954 71ZM76.1494 73L77.1494 73L77.1494 71L76.1494 71L76.1494 73ZM84.0575 71L83.0575 71L83.0575 73L84.0575 73L84.0575 71ZM88.0115 73L89.0115 73L89.0115 71L88.0115 71L88.0115 73ZM95.9195 71L94.9195 71L94.9195 73L95.9195 73L95.9195 71ZM99.8736 73L100.874 73L100.874 71L99.8736 71L99.8736 73ZM107.782 71L106.782 71L106.782 73L107.782 73L107.782 71ZM111.736 73L112.736 73L112.736 71L111.736 71L111.736 73ZM119.644 71L118.644 71L118.644 73L119.644 73L119.644 71ZM123.598 73L124.598 73L124.598 71L123.598 71L123.598 73ZM131.506 71L130.506 71L130.506 73L131.506 73L131.506 71ZM135.46 73L136.46 73L136.46 71L135.46 71L135.46 73ZM143.368 71L142.368 71L142.368 73L143.368 73L143.368 71ZM147.322 73L148.322 73L148.322 71L147.322 71L147.322 73ZM155.23 71L154.23 71L154.23 73L155.23 73L155.23 71ZM159.184 73L160.184 73L160.184 71L159.184 71L159.184 73ZM167.092 71L166.092 71L166.092 73L167.092 73L167.092 71ZM171.046 73L172.046 73L172.046 71L171.046 71L171.046 73ZM178.954 71L177.954 71L177.954 73L178.954 73L178.954 71ZM182.908 73L183.908 73L183.908 71L182.908 71L182.908 73ZM190.816 71L189.816 71L189.816 73L190.816 73L190.816 71ZM194.77 73L195.77 73L195.77 71L194.77 71L194.77 73ZM202.678 71L201.678 71L201.678 73L202.678 73L202.678 71ZM206.632 73L207.632 73L207.632 71L206.632 71L206.632 73ZM214.54 71L213.54 71L213.54 73L214.54 73L214.54 71ZM218.494 73L219.494 73L219.494 71L218.494 71L218.494 73ZM226.402 71L225.402 71L225.402 73L226.402 73L226.402 71ZM230.356 73L231.356 73L231.356 71L230.356 71L230.356 73ZM238.264 71L237.264 71L237.264 73L238.264 73L238.264 71ZM242.218 73L243.218 73L243.218 71L242.218 71L242.218 73ZM250.127 71L249.127 71L249.127 73L250.127 73L250.127 71ZM254.081 73L255.081 73L255.081 71L254.081 71L254.081 73ZM261.989 71L260.989 71L260.989 73L261.989 73L261.989 71ZM265.943 73L266.943 73L266.943 71L265.943 71L265.943 73ZM273.851 71L272.851 71L272.851 73L273.851 73L273.851 71ZM277.805 73L278.805 73L278.805 71L277.805 71L277.805 73ZM285.713 71L284.713 71L284.713 73L285.713 73L285.713 71ZM289.667 73L290.667 73L290.667 71L289.667 71L289.667 73ZM297.575 71L296.575 71L296.575 73L297.575 73L297.575 71ZM301.529 73L302.529 73L302.529 71L301.529 71L301.529 73ZM309.437 71L308.437 71L308.437 73L309.437 73L309.437 71ZM313.391 73L314.391 73L314.391 71L313.391 71L313.391 73ZM321.299 71L320.299 71L320.299 73L321.299 73L321.299 71ZM325.253 73L326.253 73L326.253 71L325.253 71L325.253 73ZM333.161 71L332.161 71L332.161 73L333.161 73L333.161 71ZM337.115 73L338.115 73L338.115 71L337.115 71L337.115 73ZM345.023 71L344.023 71L344.023 73L345.023 73L345.023 71ZM3 73L4.97701 73L4.97701 71L3 71L3 73ZM12.8851 73L16.8391 73L16.8391 71L12.8851 71L12.8851 73ZM24.7471 73L28.7012 73L28.7012 71L24.7471 71L24.7471 73ZM36.6092 73L40.5632 73L40.5632 71L36.6092 71L36.6092 73ZM48.4713 73L52.4253 73L52.4253 71L48.4713 71L48.4713 73ZM60.3333 73L64.2874 73L64.2874 71L60.3333 71L60.3333 73ZM72.1954 73L76.1494 73L76.1494 71L72.1954 71L72.1954 73ZM84.0575 73L88.0115 73L88.0115 71L84.0575 71L84.0575 73ZM95.9195 73L99.8736 73L99.8736 71L95.9195 71L95.9195 73ZM107.782 73L111.736 73L111.736 71L107.782 71L107.782 73ZM119.644 73L123.598 73L123.598 71L119.644 71L119.644 73ZM131.506 73L135.46 73L135.46 71L131.506 71L131.506 73ZM143.368 73L147.322 73L147.322 71L143.368 71L143.368 73ZM155.23 73L159.184 73L159.184 71L155.23 71L155.23 73ZM167.092 73L171.046 73L171.046 71L167.092 71L167.092 73ZM178.954 73L182.908 73L182.908 71L178.954 71L178.954 73ZM190.816 73L194.77 73L194.77 71L190.816 71L190.816 73ZM202.678 73L206.632 73L206.632 71L202.678 71L202.678 73ZM214.54 73L218.494 73L218.494 71L214.54 71L214.54 73ZM226.402 73L230.356 73L230.356 71L226.402 71L226.402 73ZM238.264 73L242.218 73L242.218 71L238.264 71L238.264 73ZM250.127 73L254.081 73L254.081 71L250.127 71L250.127 73ZM261.989 73L265.943 73L265.943 71L261.989 71L261.989 73ZM273.851 73L277.805 73L277.805 71L273.851 71L273.851 73ZM285.713 73L289.667 73L289.667 71L285.713 71L285.713 73ZM297.575 73L301.529 73L301.529 71L297.575 71L297.575 73ZM309.437 73L313.391 73L313.391 71L309.437 71L309.437 73ZM321.299 73L325.253 73L325.253 71L321.299 71L321.299 73ZM333.161 73L337.115 73L337.115 71L333.161 71L333.161 73Z" fill="url(#paint1_linear_144_695)"/>
<defs>
<linearGradient id="paint0_linear_144_695" x1="2" y1="0" x2="2" y2="73" gradientUnits="userSpaceOnUse">
<stop offset="0.0364583" stop-color="#26AA9D"/>
<stop offset="1" stop-opacity="0.15"/>
</linearGradient>
<linearGradient id="paint1_linear_144_695" x1="347.905" y1="73" x2="2.09475" y2="73" gradientUnits="userSpaceOnUse">
<stop offset="0.0364583" stop-color="#26AA9D"/>
<stop offset="1" stop-opacity="0.15"/>
</linearGradient>
</defs>
</svg>
