<svg width="115" height="2" viewBox="0 0 115 2" fill="none" xmlns="http://www.w3.org/2000/svg">
<path d="M1 0L0 0L0 2H1L1 0ZM2.9 2L3.9 2V0H2.9V2ZM10.5 0L9.5 0V2H10.5V0ZM14.3 2H15.3V0H14.3V2ZM21.9 0L20.9 0V2H21.9V0ZM25.7 2H26.7V0H25.7V2ZM33.3 0H32.3V2L33.3 2V0ZM37.1 2H38.1V0H37.1V2ZM44.7 0H43.7V2H44.7V0ZM48.5 2L49.5 2V0H48.5V2ZM56.1 0H55.1V2H56.1V0ZM59.9 2H60.9V0L59.9 0V2ZM67.5 0H66.5V2H67.5V0ZM71.3 2H72.3V0L71.3 0V2ZM78.9 0H77.9V2L78.9 2V0ZM82.7 2L83.7 2V0H82.7V2ZM90.3 0L89.3 0V2H90.3V0ZM94.1 2H95.1V0H94.1V2ZM101.7 0L100.7 0V2H101.7V0ZM105.5 2H106.5V0H105.5V2ZM113.1 0H112.1V2L113.1 2V0ZM1 2H2.9V0L1 0L1 2ZM10.5 2L14.3 2V0L10.5 0V2ZM21.9 2L25.7 2V0L21.9 0V2ZM33.3 2L37.1 2V0L33.3 0V2ZM44.7 2L48.5 2V0L44.7 0V2ZM56.1 2L59.9 2V0L56.1 0V2ZM67.5 2L71.3 2V0L67.5 0V2ZM78.9 2H82.7V0L78.9 0V2ZM90.3 2L94.1 2V0L90.3 0V2ZM101.7 2L105.5 2V0L101.7 0V2ZM113.1 2L115 2V0H113.1V2Z" fill="url(#paint0_linear_1387_20653)"/>
<defs>
<linearGradient id="paint0_linear_1387_20653" x1="116.966" y1="1.99995" x2="-0.965515" y2="1.99995" gradientUnits="userSpaceOnUse">
<stop offset="0.0364583" stop-color="#26AA9D"/>
<stop offset="1" stop-opacity="0.15"/>
</linearGradient>
</defs>
</svg>
