<svg width="956" height="923" viewBox="0 0 956 923" fill="none" xmlns="http://www.w3.org/2000/svg">
<path d="M101.778 238.856C98.4966 238.373 95.3978 237.035 92.7926 234.977C90.1875 232.919 88.1676 230.212 86.9356 227.13L61.3697 163.135C60.4985 160.951 59.0734 159.031 57.235 157.564C55.3966 156.097 53.2087 155.135 50.8872 154.772L24.944 150.7C18.479 149.688 12.3229 147.228 6.93553 143.504L3.43933 141.085C2.80678 140.651 2.30844 140.048 2.00107 139.345C1.6937 138.642 1.58966 137.867 1.70081 137.109C1.81195 136.35 2.1338 135.639 2.62971 135.055C3.12562 134.472 3.77565 134.04 4.50574 133.809L8.54249 132.499C14.7627 130.488 21.3589 129.907 27.8409 130.798L53.8699 134.401C56.1973 134.722 58.5667 134.43 60.7446 133.555C62.9224 132.68 64.8336 131.252 66.2895 129.411L108.944 75.4754C110.999 72.876 113.702 70.8648 116.783 69.6439C119.863 68.4229 123.213 68.0352 126.494 68.5197C108.861 92.1284 96.2837 123.007 91.4334 135.956C91.279 136.37 91.2198 136.813 91.2602 137.253C91.3006 137.693 91.4395 138.119 91.6666 138.498C91.8938 138.878 92.2033 139.201 92.5722 139.445C92.9411 139.689 93.3599 139.846 93.7976 139.906L96.0157 134.652C96.534 133.416 97.5007 132.423 98.7219 131.872C99.9431 131.321 101.328 131.253 102.6 131.681L109.69 134.075C110.648 134.398 111.474 135.031 112.035 135.873C112.621 136.75 113.492 137.399 114.5 137.708L117.067 138.497L114.057 138.581C113.121 138.606 112.217 138.92 111.468 139.48L110.2 140.422L108.141 141.897L113.656 142.657C117.199 143.147 120.667 144.084 123.977 145.446L140.627 152.302L150.244 134.66C151.247 132.828 152.841 131.39 154.767 130.579C156.692 129.769 158.836 129.634 160.851 130.196L167.124 131.946L153.131 157.439L157.766 159.35C157.93 159.416 158.067 159.535 158.156 159.689C158.245 159.842 158.279 160.02 158.254 160.195C158.229 160.371 158.146 160.532 158.018 160.654C157.89 160.776 157.724 160.851 157.548 160.867L152.563 161.358L158.724 189.809L152.163 189.673C150.084 189.63 148.079 188.889 146.469 187.569C144.86 186.249 143.739 184.427 143.288 182.396L138.906 162.679L121.214 164.435C117.656 164.786 114.067 164.684 110.532 164.13L105.029 163.266L106.585 165.274L107.529 166.544C108.088 167.296 108.866 167.858 109.756 168.151L112.615 169.104L109.932 169.123C108.879 169.13 107.862 169.501 107.053 170.174C106.275 170.818 105.304 171.185 104.294 171.218L96.8011 171.452C95.461 171.495 94.1529 171.03 93.1394 170.149C92.1259 169.269 91.482 168.038 91.3369 166.704L90.7178 161.023C90.2816 160.953 89.8354 160.982 89.4125 161.108C88.9897 161.235 88.601 161.455 88.2757 161.754C87.9503 162.052 87.6965 162.42 87.5334 162.83C87.3703 163.24 87.302 163.682 87.3337 164.123C88.3154 177.934 91.5894 211.147 101.778 238.856Z" fill="#1DA99D" fill-opacity="0.2"/>
<path d="M248.249 280.834C248.9 281.294 249.586 281.739 250.276 282.144C250.575 282.317 250.93 282.364 251.264 282.276C251.597 282.188 251.882 281.971 252.056 281.673C252.143 281.525 252.2 281.362 252.223 281.192C252.246 281.023 252.235 280.85 252.191 280.684C252.147 280.519 252.071 280.363 251.967 280.228C251.863 280.092 251.732 279.977 251.584 279.892C249.222 278.519 247.098 276.773 245.294 274.721C245.182 274.593 245.046 274.487 244.894 274.41C244.741 274.334 244.576 274.288 244.406 274.276C244.236 274.264 244.065 274.285 243.903 274.339C243.742 274.393 243.592 274.478 243.463 274.589C243.334 274.701 243.229 274.836 243.153 274.989C243.076 275.141 243.031 275.307 243.019 275.477C243.007 275.647 243.028 275.818 243.082 275.98C243.136 276.141 243.221 276.291 243.332 276.42C244.785 278.087 246.436 279.569 248.249 280.834ZM258.156 285.268C258.291 285.364 258.443 285.433 258.604 285.473C261.521 286.19 264.532 286.442 267.527 286.221C267.697 286.207 267.863 286.16 268.014 286.083C268.166 286.005 268.301 285.899 268.411 285.769C268.522 285.64 268.606 285.489 268.658 285.327C268.71 285.165 268.73 284.994 268.717 284.825C268.703 284.655 268.656 284.489 268.579 284.337C268.501 284.186 268.395 284.051 268.265 283.94C268.135 283.829 267.985 283.745 267.823 283.693C267.661 283.64 267.49 283.62 267.32 283.634C264.584 283.836 261.832 283.607 259.166 282.955C258.996 282.913 258.819 282.906 258.647 282.934C258.474 282.961 258.309 283.023 258.16 283.115C258.012 283.207 257.883 283.328 257.782 283.471C257.681 283.613 257.609 283.775 257.571 283.945C257.526 284.199 257.558 284.46 257.662 284.696C257.766 284.931 257.938 285.13 258.156 285.268ZM239.274 269.277C239.446 269.395 239.644 269.471 239.851 269.497C240.058 269.524 240.269 269.5 240.465 269.428C240.626 269.371 240.774 269.283 240.9 269.168C241.027 269.053 241.129 268.914 241.201 268.759C241.273 268.604 241.314 268.437 241.321 268.266C241.328 268.095 241.3 267.925 241.24 267.765C240.301 265.194 239.765 262.493 239.651 259.759C239.644 259.589 239.604 259.421 239.532 259.267C239.461 259.112 239.359 258.973 239.234 258.857C239.108 258.741 238.961 258.651 238.801 258.593C238.641 258.534 238.471 258.507 238.301 258.514C238.13 258.521 237.963 258.561 237.808 258.633C237.654 258.704 237.514 258.805 237.399 258.931C237.283 259.056 237.194 259.203 237.135 259.363C237.076 259.523 237.05 259.693 237.057 259.864C237.169 262.871 237.748 265.843 238.772 268.674C238.876 268.902 239.04 269.097 239.245 269.24L239.274 269.277ZM275.008 283.814C275.192 283.955 275.411 284.043 275.642 284.07C275.873 284.097 276.106 284.061 276.318 283.965C278.717 282.801 280.875 281.195 282.678 279.231C282.944 278.936 283.203 278.648 283.451 278.344C283.56 278.213 283.642 278.062 283.693 277.898C283.744 277.735 283.762 277.564 283.746 277.394C283.731 277.224 283.682 277.058 283.602 276.907C283.523 276.756 283.414 276.621 283.283 276.512C283.152 276.403 283 276.32 282.837 276.269C282.674 276.219 282.502 276.2 282.332 276.216C282.162 276.231 281.997 276.28 281.846 276.359C281.695 276.439 281.561 276.547 281.451 276.678L280.762 277.475C279.179 279.198 277.285 280.607 275.179 281.629C275.026 281.703 274.888 281.807 274.775 281.935C274.662 282.063 274.575 282.211 274.519 282.373C274.464 282.534 274.441 282.705 274.451 282.875C274.462 283.046 274.506 283.212 274.581 283.366C274.678 283.533 274.815 283.674 274.979 283.777L275.008 283.814ZM238.477 252.306C238.614 252.398 238.765 252.468 238.925 252.511C239.095 252.552 239.271 252.56 239.444 252.532C239.617 252.504 239.782 252.442 239.931 252.349C240.079 252.255 240.207 252.133 240.307 251.99C240.407 251.846 240.477 251.684 240.513 251.513C241.146 248.814 242.097 246.201 243.347 243.727C243.471 243.423 243.475 243.082 243.359 242.774C243.243 242.467 243.016 242.214 242.721 242.066C242.427 241.919 242.088 241.888 241.773 241.98C241.457 242.072 241.187 242.279 241.018 242.561C239.682 245.219 238.665 248.025 237.985 250.921C237.922 251.166 237.933 251.425 238.015 251.664C238.097 251.904 238.248 252.114 238.448 252.269L238.477 252.306ZM409.877 360.136C410.156 360.337 410.504 360.419 410.844 360.364C411.185 360.309 411.489 360.121 411.69 359.841C411.891 359.562 411.973 359.213 411.917 358.873C411.862 358.533 411.673 358.229 411.394 358.027C409.215 356.421 406.977 354.634 404.778 352.686C404.515 352.464 404.176 352.354 403.833 352.379C403.49 352.403 403.171 352.562 402.943 352.819C402.831 352.948 402.746 353.098 402.692 353.26C402.638 353.422 402.616 353.594 402.629 353.764C402.641 353.935 402.687 354.101 402.764 354.254C402.842 354.407 402.948 354.543 403.078 354.654C405.361 356.618 407.647 358.45 409.881 360.097L409.877 360.136ZM417.041 364.923L417.093 364.989C419.601 366.495 422.193 367.855 424.857 369.062C425.169 369.181 425.514 369.176 425.822 369.048C426.13 368.92 426.377 368.68 426.513 368.375C426.649 368.071 426.664 367.726 426.554 367.411C426.443 367.096 426.217 366.835 425.921 366.682C423.35 365.522 420.849 364.212 418.431 362.76C418.135 362.584 417.78 362.533 417.446 362.617C417.112 362.702 416.824 362.915 416.647 363.211C416.484 363.493 416.433 363.826 416.507 364.144C416.58 364.462 416.771 364.74 417.041 364.923ZM396.797 348.94C396.928 349.049 397.08 349.13 397.242 349.18C397.405 349.23 397.576 349.248 397.746 349.231C397.916 349.215 398.08 349.166 398.231 349.086C398.381 349.006 398.514 348.898 398.623 348.766C398.731 348.635 398.812 348.484 398.862 348.321C398.912 348.158 398.929 347.987 398.913 347.817C398.897 347.648 398.847 347.483 398.768 347.332C398.688 347.182 398.579 347.049 398.448 346.94C397.384 345.914 396.3 344.832 395.206 343.723C394.292 342.78 393.36 341.816 392.436 340.846C392.192 340.626 391.873 340.507 391.545 340.511C391.217 340.516 390.902 340.644 390.664 340.87C390.426 341.097 390.282 341.404 390.261 341.732C390.24 342.06 390.343 342.384 390.55 342.639C391.48 343.617 392.423 344.596 393.356 345.547C394.456 346.664 395.565 347.762 396.646 348.81C396.693 348.857 396.744 348.9 396.797 348.94ZM285.823 270.996C285.925 271.064 286.034 271.122 286.148 271.167C286.475 271.275 286.832 271.251 287.141 271.099C287.45 270.948 287.687 270.681 287.802 270.356C288.755 267.506 289.287 264.533 289.381 261.529C289.373 261.196 289.237 260.878 289.003 260.642C288.768 260.405 288.452 260.267 288.119 260.255C287.787 260.244 287.462 260.36 287.212 260.58C286.962 260.8 286.806 261.108 286.776 261.439C286.698 264.187 286.213 266.908 285.336 269.513C285.247 269.779 285.246 270.068 285.333 270.335C285.421 270.602 285.593 270.834 285.823 270.996ZM432.735 371.913C432.855 371.991 432.984 372.053 433.119 372.097C434.534 372.5 435.965 372.865 437.392 373.163C438.818 373.461 440.284 373.704 441.759 373.868C441.932 373.892 442.108 373.881 442.276 373.836C442.444 373.79 442.602 373.711 442.738 373.602C442.875 373.494 442.988 373.359 443.071 373.205C443.154 373.052 443.204 372.883 443.22 372.709C443.242 372.537 443.229 372.362 443.182 372.195C443.135 372.027 443.055 371.871 442.947 371.735C442.839 371.598 442.705 371.485 442.553 371.401C442.401 371.318 442.233 371.265 442.06 371.247C440.68 371.088 439.308 370.861 437.949 370.565C436.594 370.282 435.221 369.93 433.872 369.535C433.576 369.451 433.259 369.474 432.979 369.601C432.698 369.728 432.471 369.949 432.339 370.227C432.206 370.505 432.175 370.821 432.253 371.119C432.33 371.417 432.511 371.678 432.762 371.856L432.735 371.913ZM384.943 336.439C385.202 336.633 385.524 336.723 385.846 336.691C386.168 336.66 386.466 336.509 386.682 336.269C386.899 336.029 387.018 335.716 387.015 335.393C387.013 335.069 386.89 334.758 386.67 334.521C384.821 332.414 382.933 330.184 381.143 327.971C380.918 327.733 380.613 327.587 380.286 327.563C379.96 327.539 379.637 327.639 379.38 327.842C379.124 328.045 378.954 328.338 378.902 328.661C378.851 328.984 378.924 329.315 379.105 329.588C380.891 331.839 382.795 334.045 384.69 336.21C384.766 336.295 384.85 336.372 384.943 336.439ZM246.049 236.975C246.315 237.173 246.648 237.261 246.977 237.222C247.306 237.182 247.608 237.018 247.82 236.762C249.583 234.628 251.591 232.707 253.802 231.041C254.077 230.833 254.258 230.524 254.306 230.183C254.354 229.841 254.265 229.494 254.058 229.218C253.957 229.08 253.829 228.964 253.683 228.877C253.537 228.789 253.374 228.731 253.205 228.706C253.036 228.682 252.864 228.691 252.699 228.734C252.534 228.776 252.379 228.852 252.243 228.955C249.865 230.745 247.709 232.811 245.819 235.109C245.709 235.24 245.626 235.391 245.576 235.554C245.525 235.717 245.508 235.889 245.524 236.059C245.54 236.229 245.59 236.394 245.671 236.544C245.751 236.695 245.861 236.828 245.994 236.936C246.015 236.959 246.04 236.98 246.066 236.997L246.049 236.975ZM374.078 323.069C374.331 323.254 374.642 323.341 374.954 323.315C375.265 323.288 375.557 323.15 375.775 322.925C375.992 322.7 376.121 322.404 376.137 322.092C376.154 321.779 376.057 321.471 375.864 321.224C374.154 318.948 372.464 316.608 370.853 314.277C370.76 314.125 370.637 313.994 370.491 313.891C370.346 313.789 370.181 313.718 370.006 313.681C369.832 313.645 369.652 313.645 369.478 313.68C369.304 313.716 369.139 313.787 368.993 313.889C368.847 313.991 368.724 314.121 368.63 314.272C368.537 314.424 368.475 314.593 368.449 314.769C368.423 314.945 368.434 315.124 368.48 315.296C368.526 315.468 368.606 315.629 368.716 315.769C370.352 318.116 372.059 320.478 373.792 322.784C373.87 322.895 373.966 322.992 374.078 323.069ZM449.744 373.823C449.991 373.99 450.285 374.071 450.581 374.053C453.524 373.853 456.443 373.391 459.304 372.673C459.578 372.542 459.797 372.319 459.923 372.043C460.05 371.767 460.077 371.456 459.999 371.163C459.921 370.869 459.744 370.612 459.497 370.435C459.25 370.258 458.949 370.173 458.647 370.193C455.94 370.879 453.176 371.317 450.39 371.501C450.219 371.512 450.052 371.557 449.899 371.633C449.746 371.709 449.609 371.814 449.497 371.943C449.384 372.072 449.299 372.222 449.244 372.384C449.19 372.546 449.169 372.718 449.181 372.888C449.202 373.081 449.265 373.266 449.365 373.432C449.465 373.597 449.601 373.738 449.762 373.845L449.744 373.823ZM364.259 308.918C364.506 309.089 364.805 309.169 365.104 309.145C365.403 309.122 365.685 308.996 365.902 308.789C366.119 308.582 366.258 308.306 366.296 308.008C366.334 307.71 366.267 307.409 366.109 307.154C365.534 306.264 364.974 305.362 364.413 304.461C363.5 302.994 362.591 301.487 361.624 299.848C361.449 299.551 361.163 299.336 360.829 299.25C360.495 299.164 360.141 299.215 359.844 299.39C359.548 299.565 359.333 299.851 359.247 300.185C359.162 300.518 359.212 300.873 359.387 301.169C360.343 302.794 361.286 304.344 362.204 305.832C362.77 306.74 363.336 307.649 363.917 308.546C364.005 308.692 364.122 308.818 364.259 308.918ZM286.526 253.967C286.741 254.114 286.996 254.194 287.256 254.195C287.517 254.197 287.772 254.12 287.989 253.975C288.205 253.83 288.374 253.624 288.472 253.382C288.57 253.141 288.594 252.875 288.54 252.62C288.165 250.9 287.667 249.209 287.05 247.561C286.633 246.45 286.159 245.326 285.606 244.239C285.443 243.953 285.178 243.74 284.864 243.641C284.55 243.542 284.21 243.565 283.912 243.706C283.615 243.847 283.382 244.095 283.26 244.401C283.138 244.707 283.136 245.047 283.254 245.355C283.745 246.394 284.194 247.456 284.57 248.515C285.136 250.054 285.591 251.631 285.933 253.234C286.034 253.543 286.245 253.804 286.526 253.967ZM157.404 161.213C157.521 161.295 157.651 161.357 157.788 161.397C160.519 162.185 163.258 163.013 165.976 163.919C166.303 164.025 166.66 163.998 166.967 163.841C167.273 163.685 167.506 163.413 167.612 163.086C167.718 162.758 167.69 162.402 167.534 162.095C167.377 161.788 167.105 161.555 166.778 161.449C164.046 160.555 161.27 159.695 158.507 158.897C158.209 158.805 157.889 158.824 157.604 158.949C157.319 159.074 157.089 159.297 156.955 159.578C156.821 159.859 156.793 160.179 156.875 160.479C156.958 160.779 157.145 161.039 157.404 161.213ZM355.466 294.109C355.707 294.28 355.999 294.365 356.294 294.347C356.59 294.33 356.87 294.212 357.089 294.013C357.308 293.815 357.452 293.547 357.498 293.255C357.544 292.963 357.489 292.663 357.341 292.407C356.045 290.112 354.77 287.8 353.489 285.494L353.153 284.89C353.071 284.74 352.961 284.607 352.827 284.5C352.694 284.392 352.541 284.312 352.377 284.264C352.213 284.216 352.041 284.201 351.871 284.22C351.701 284.239 351.536 284.291 351.387 284.374C351.086 284.543 350.864 284.824 350.769 285.156C350.673 285.488 350.712 285.844 350.877 286.147L351.213 286.75C352.5 289.064 353.775 291.376 355.077 293.678C355.17 293.851 355.303 293.999 355.466 294.109ZM173.789 166.583C173.882 166.654 173.985 166.708 174.096 166.745C176.767 167.712 179.463 168.741 182.104 169.791C182.424 169.919 182.782 169.916 183.099 169.781C183.415 169.645 183.666 169.39 183.794 169.07C183.922 168.75 183.918 168.393 183.783 168.076C183.648 167.759 183.392 167.508 183.072 167.38C180.393 166.312 177.678 165.274 174.963 164.283C174.666 164.169 174.337 164.169 174.04 164.282C173.743 164.395 173.498 164.614 173.351 164.896C173.205 165.179 173.167 165.505 173.246 165.813C173.324 166.122 173.514 166.391 173.778 166.569L173.789 166.583ZM259.716 226.779C259.901 226.909 260.117 226.988 260.342 227.008C260.567 227.029 260.793 226.989 260.998 226.895C263.048 226.013 265.168 225.304 267.336 224.774C267.504 224.986 267.731 225.151 267.921 225.346C268.158 225.564 268.466 225.686 268.788 225.691C269.109 225.695 269.421 225.581 269.663 225.369C269.905 225.158 270.061 224.865 270.1 224.546C270.14 224.227 270.06 223.904 269.877 223.64C269.979 223.4 270.005 223.134 269.951 222.879C269.881 222.544 269.681 222.25 269.396 222.062C269.11 221.873 268.762 221.805 268.427 221.872L268.128 221.93L267.852 221.673C266.411 220.291 264.917 218.903 263.411 217.573C263.154 217.345 262.818 217.226 262.475 217.242C262.132 217.258 261.809 217.408 261.575 217.659C261.46 217.785 261.371 217.933 261.313 218.093C261.255 218.254 261.229 218.424 261.237 218.595C261.245 218.766 261.287 218.933 261.36 219.087C261.433 219.242 261.536 219.38 261.663 219.495C262.817 220.545 263.975 221.615 265.124 222.705C263.365 223.209 261.64 223.826 259.959 224.55C259.746 224.64 259.561 224.786 259.424 224.973C259.286 225.159 259.201 225.379 259.177 225.609C259.154 225.84 259.192 226.072 259.289 226.283C259.385 226.494 259.536 226.675 259.726 226.807L259.716 226.779ZM279.394 238.447C279.646 238.616 279.948 238.693 280.25 238.663C280.552 238.634 280.834 238.501 281.048 238.286C281.261 238.071 281.394 237.789 281.422 237.487C281.451 237.185 281.373 236.883 281.203 236.632C279.525 234.238 277.707 231.945 275.758 229.766C275.529 229.509 275.207 229.353 274.863 229.333C274.519 229.313 274.182 229.431 273.925 229.66C273.668 229.889 273.512 230.211 273.493 230.555C273.473 230.899 273.591 231.237 273.82 231.494C275.698 233.599 277.452 235.81 279.074 238.118C279.163 238.244 279.271 238.355 279.394 238.447ZM189.792 172.972C189.862 173.023 189.937 173.068 190.016 173.104C192.62 174.242 195.245 175.436 197.813 176.663C198.123 176.812 198.48 176.831 198.804 176.717C199.128 176.602 199.394 176.364 199.542 176.053C199.691 175.743 199.71 175.386 199.595 175.062C199.481 174.737 199.242 174.471 198.931 174.323C196.339 173.079 193.69 171.87 191.061 170.715C190.763 170.568 190.42 170.54 190.103 170.637C189.785 170.735 189.518 170.951 189.355 171.241C189.192 171.53 189.147 171.871 189.228 172.193C189.309 172.515 189.511 172.794 189.792 172.972ZM205.338 180.39C205.387 180.424 205.439 180.454 205.493 180.481C208.013 181.782 210.551 183.151 213.04 184.535C213.189 184.619 213.353 184.671 213.522 184.691C213.691 184.711 213.862 184.697 214.026 184.651C214.19 184.605 214.343 184.527 214.476 184.421C214.61 184.315 214.721 184.185 214.804 184.036C214.887 183.887 214.94 183.724 214.96 183.555C214.979 183.385 214.966 183.214 214.919 183.05C214.873 182.886 214.794 182.733 214.689 182.6C214.583 182.466 214.452 182.355 214.303 182.271C211.796 180.866 209.226 179.486 206.682 178.168C206.386 178.016 206.043 177.983 205.723 178.075C205.403 178.167 205.131 178.378 204.962 178.664C204.792 178.95 204.739 179.291 204.812 179.616C204.885 179.941 205.079 180.225 205.355 180.412L205.338 180.39ZM347.087 279.042C347.287 279.19 347.525 279.277 347.774 279.292C348.022 279.306 348.269 279.248 348.485 279.124C348.633 279.04 348.764 278.928 348.869 278.794C348.973 278.659 349.051 278.506 349.096 278.341C349.142 278.177 349.154 278.005 349.133 277.836C349.112 277.667 349.058 277.503 348.974 277.355C347.397 274.556 345.993 272.096 344.641 269.881C344.554 269.735 344.439 269.607 344.302 269.505C344.165 269.403 344.01 269.328 343.844 269.286C343.679 269.245 343.507 269.236 343.338 269.26C343.169 269.285 343.007 269.342 342.861 269.429C342.714 269.516 342.586 269.632 342.484 269.768C342.383 269.905 342.309 270.061 342.267 270.226C342.225 270.391 342.216 270.563 342.241 270.732C342.265 270.901 342.323 271.063 342.41 271.21C343.729 273.427 345.143 275.855 346.715 278.634C346.805 278.797 346.932 278.937 347.087 279.042ZM255.329 213.895C255.601 214.105 255.946 214.198 256.287 214.154C256.629 214.11 256.938 213.933 257.148 213.66C257.358 213.388 257.452 213.043 257.407 212.702C257.363 212.361 257.185 212.051 256.913 211.84C254.742 209.989 252.486 208.134 250.229 206.339C250.096 206.233 249.943 206.154 249.779 206.107C249.615 206.06 249.444 206.045 249.274 206.065C249.105 206.084 248.941 206.136 248.792 206.219C248.643 206.301 248.512 206.412 248.406 206.546C248.3 206.679 248.221 206.832 248.174 206.996C248.127 207.16 248.113 207.331 248.133 207.501C248.152 207.67 248.205 207.834 248.287 207.983C248.37 208.132 248.481 208.263 248.615 208.369C250.858 210.163 253.073 211.98 255.243 213.831L255.329 213.895ZM220.386 188.786L220.438 188.852C222.878 190.323 225.325 191.848 227.71 193.399C228 193.586 228.352 193.65 228.689 193.577C229.026 193.504 229.321 193.3 229.507 193.009C229.694 192.719 229.757 192.367 229.684 192.03C229.611 191.693 229.407 191.398 229.116 191.211C226.699 189.663 224.263 188.093 221.777 186.623C221.487 186.435 221.136 186.37 220.799 186.442C220.462 186.514 220.167 186.717 219.98 187.006C219.793 187.295 219.728 187.647 219.8 187.984C219.872 188.321 220.075 188.616 220.364 188.803L220.386 188.786ZM241.85 203.17C242.129 203.372 242.477 203.454 242.817 203.399C243.157 203.343 243.462 203.155 243.663 202.876C243.864 202.596 243.946 202.248 243.89 201.908C243.835 201.568 243.646 201.263 243.367 201.062C241.043 199.332 238.682 197.631 236.339 196.012C236.056 195.814 235.707 195.737 235.367 195.798C235.028 195.858 234.726 196.051 234.529 196.333C234.332 196.616 234.255 196.966 234.316 197.305C234.377 197.645 234.569 197.946 234.852 198.144C237.188 199.769 239.526 201.44 241.813 203.14L241.85 203.17ZM276.472 223.269C276.697 223.427 276.967 223.509 277.242 223.504C280.037 223.447 282.833 223.62 285.601 224.021C285.777 224.064 285.96 224.07 286.139 224.038C286.317 224.005 286.487 223.936 286.637 223.834C286.787 223.733 286.914 223.6 287.01 223.446C287.106 223.292 287.168 223.12 287.193 222.94C287.218 222.76 287.205 222.577 287.154 222.403C287.104 222.229 287.018 222.067 286.901 221.928C286.784 221.789 286.64 221.676 286.477 221.596C286.314 221.517 286.136 221.472 285.954 221.465C283.045 221.03 280.105 220.837 277.164 220.886C276.892 220.894 276.629 220.988 276.412 221.154C276.195 221.32 276.037 221.55 275.957 221.811C275.878 222.073 275.883 222.352 275.971 222.611C276.059 222.869 276.225 223.094 276.447 223.253L276.472 223.269ZM338.222 264.277C338.435 264.427 338.688 264.51 338.949 264.515C339.21 264.52 339.466 264.448 339.685 264.307C339.828 264.214 339.95 264.094 340.046 263.953C340.142 263.812 340.209 263.654 340.244 263.487C340.278 263.32 340.28 263.148 340.248 262.981C340.216 262.813 340.151 262.654 340.058 262.511L339.612 261.829C338.138 259.58 336.635 257.401 335.131 255.354C335.032 255.215 334.907 255.098 334.762 255.008C334.617 254.918 334.455 254.859 334.287 254.832C334.119 254.806 333.947 254.814 333.782 254.855C333.616 254.896 333.461 254.97 333.325 255.072C333.186 255.171 333.068 255.297 332.978 255.442C332.888 255.587 332.828 255.749 332.801 255.917C332.774 256.086 332.781 256.258 332.822 256.424C332.862 256.59 332.935 256.747 333.037 256.884C334.512 258.894 335.991 261.044 337.443 263.251L337.883 263.926C337.969 264.065 338.082 264.187 338.214 264.283L338.222 264.277ZM328.027 250.388C328.285 250.566 328.598 250.646 328.909 250.611C329.22 250.577 329.508 250.431 329.72 250.201C329.932 249.97 330.053 249.671 330.061 249.358C330.07 249.045 329.964 248.739 329.765 248.498C327.844 246.21 325.87 244.036 323.895 242.041C323.775 241.92 323.632 241.824 323.474 241.758C323.317 241.692 323.148 241.657 322.977 241.657C322.806 241.656 322.637 241.689 322.479 241.754C322.321 241.819 322.178 241.914 322.057 242.034C321.936 242.154 321.839 242.297 321.774 242.455C321.708 242.612 321.674 242.781 321.673 242.952C321.673 243.123 321.706 243.292 321.771 243.45C321.835 243.608 321.931 243.751 322.051 243.873C323.972 245.815 325.917 247.952 327.781 250.167C327.846 250.256 327.927 250.333 328.02 250.394L328.027 250.388ZM293.453 225.714C293.563 225.794 293.686 225.853 293.818 225.889C296.503 226.714 299.124 227.737 301.659 228.948C301.969 229.097 302.326 229.116 302.65 229.002C302.975 228.887 303.24 228.649 303.389 228.338C303.537 228.028 303.556 227.671 303.441 227.347C303.327 227.022 303.088 226.756 302.778 226.608C300.128 225.334 297.386 224.264 294.575 223.407C294.278 223.312 293.957 223.328 293.671 223.45C293.385 223.573 293.153 223.795 293.017 224.075C292.88 224.354 292.85 224.674 292.93 224.975C293.01 225.276 293.196 225.538 293.453 225.714ZM315.885 238.199C316.159 238.408 316.504 238.5 316.845 238.455C317.187 238.41 317.496 238.231 317.705 237.958C317.915 237.684 318.007 237.339 317.961 236.998C317.916 236.656 317.737 236.347 317.463 236.137C315.821 234.772 314.158 233.47 312.447 232.303C311.777 231.833 311.093 231.375 310.42 230.932C310.277 230.839 310.117 230.776 309.949 230.745C309.781 230.714 309.609 230.716 309.442 230.752C309.275 230.787 309.117 230.855 308.977 230.952C308.836 231.049 308.716 231.172 308.623 231.315C308.531 231.458 308.467 231.618 308.436 231.786C308.405 231.954 308.408 232.126 308.443 232.293C308.479 232.46 308.547 232.618 308.644 232.759C308.741 232.9 308.864 233.02 309.008 233.113C309.656 233.54 310.315 233.981 310.966 234.442C312.571 235.551 314.217 236.83 315.805 238.143L315.885 238.199Z" fill="#196E7E" fill-opacity="0.4" stroke="#176D7E" stroke-opacity="0.4" stroke-width="0.148566" stroke-miterlimit="10"/>
<rect x="5" y="500" width="951" height="423" fill="#F6F6F6"/>
<g clip-path="url(#clip0_17_454)">
<path d="M464.398 289.46C464.398 288.535 465.152 287.76 466.098 287.76H466.937V348.307H466.098C465.173 348.307 464.398 347.554 464.398 346.608V289.439V289.46Z" fill="#1C1C61"/>
<path d="M464.398 212.582C464.398 211.657 465.152 210.882 466.098 210.882H466.937V271.429H466.098C465.173 271.429 464.398 270.676 464.398 269.73V212.561V212.582Z" fill="#1C1C61"/>
<path d="M463 155.155C463 154.23 463.753 153.455 464.7 153.455H466.959V183.298H464.7C463.775 183.298 463 182.545 463 181.599V155.133V155.155Z" fill="#1C1C61"/>
<path d="M853.265 252.861H854.104C855.029 252.861 855.804 253.614 855.804 254.561V346.629C855.804 347.555 855.051 348.329 854.104 348.329H853.265V252.882V252.861Z" fill="#1C1C61"/>
<path d="M466.938 153.734V183.449" stroke="black" stroke-width="0.250971"/>
<path d="M466.938 211.183V271.3" stroke="black" stroke-width="0.250971"/>
<path d="M782.583 0H537.619C498.583 0 466.938 31.6451 466.938 70.6813V727.319C466.938 766.355 498.583 798 537.619 798H782.583C821.619 798 853.264 766.355 853.264 727.319V70.6813C853.264 31.6451 821.619 0 782.583 0Z" fill="#1C1C61"/>
<path d="M778.645 9.57471H541.556C505.633 9.57471 476.512 38.6959 476.512 74.6188V723.381C476.512 759.304 505.633 788.425 541.556 788.425H778.645C814.568 788.425 843.689 759.304 843.689 723.381V74.6188C843.689 38.6959 814.568 9.57471 778.645 9.57471Z" fill="#FBF5E2" stroke="black" stroke-width="10.0967"/>
<path d="M672.039 397.293L654.043 386.295C653.74 386.11 653.393 386.009 653.038 386.002C652.682 385.995 652.332 386.083 652.022 386.257C651.712 386.431 651.454 386.684 651.274 386.99C651.095 387.297 651 387.646 651 388.001V409.999C651 410.354 651.095 410.703 651.275 411.01C651.454 411.316 651.712 411.569 652.022 411.743C652.332 411.916 652.683 412.005 653.038 411.998C653.393 411.991 653.74 411.89 654.043 411.705L672.039 400.707C672.331 400.528 672.573 400.278 672.741 399.979C672.908 399.68 672.996 399.343 672.996 399C672.996 398.658 672.908 398.321 672.741 398.022C672.573 397.723 672.331 397.472 672.039 397.293V397.293Z" fill="#353432"/>
<rect x="609" y="38" width="101" height="29" rx="14.5" fill="black"/>
<path d="M548.033 793.632L553.67 793.783V798H548.033V793.632Z" fill="black"/>
<path d="M849.047 83.9141H853.264V89.5514H849.047V83.9141Z" fill="black"/>
<path d="M849.047 710.988H853.264V716.625H848.896L849.047 710.988Z" fill="black"/>
<path d="M702.047 4.21729C701.897 6.11073 700.326 7.59536 698.389 7.59536H621.791C619.855 7.59536 618.284 6.11073 618.133 4.21729H702.026H702.047Z" fill="black" stroke="#272727" stroke-width="0.501941"/>
<path d="M767.112 0H772.75V4.36783L767.112 4.08811V0Z" fill="black"/>
<path d="M466.938 85.0327H471.155L471.004 90.5194L466.916 90.67V85.0327H466.938Z" fill="black"/>
<path d="M466.938 710.988H471.026L471.176 716.625H466.959V710.988H466.938Z" fill="black"/>
</g>
<defs>
<clipPath id="clip0_17_454">
<rect width="392.803" height="798" fill="white" transform="translate(463)"/>
</clipPath>
</defs>
</svg>
