<svg width="120" height="119" viewBox="0 0 120 119" fill="none" xmlns="http://www.w3.org/2000/svg">
<path d="M116.881 79.3201L48.8885 69.8675C47.1816 69.6497 45.9021 68.1976 45.9021 66.4769L44.9692 19.0671C44.9692 19.0671 46.5194 17.9499 47.3976 17.522C47.8445 17.3041 48.359 17.2085 48.895 17.2768L116.686 25.9191C118.393 26.137 119.672 27.5891 119.672 29.3097V75.8755C119.672 76.7085 119.292 77.4434 118.702 77.9278C118.16 78.3739 116.881 79.3207 116.881 79.3207V79.3201Z" fill="#C2E1DE"/>
<path d="M114.806 79.9496L47.0157 71.3072C45.3088 71.0894 44.0293 69.6373 44.0293 67.9166V21.3515C44.0293 19.7512 45.4344 18.5143 47.0223 18.7172L114.813 27.3595C116.52 27.5774 117.799 29.0295 117.799 30.7501V77.3159C117.799 78.9163 116.394 80.1531 114.806 79.9502V79.9496Z" fill="white"/>
<path d="M113.366 78.0306L48.6355 69.7784C47.3944 69.6204 46.4635 68.5643 46.4635 67.3132V22.3959C46.4635 21.3275 47.4022 20.5009 48.4625 20.6362L113.193 28.8883C114.434 29.0464 115.365 30.1024 115.365 31.3536V76.2702C115.365 77.3386 114.426 78.1652 113.366 78.0299V78.0306Z" fill="#D8D8D8"/>
<path d="M115.142 80.1857C115.021 80.1857 114.9 80.1779 114.779 80.1629L46.9884 71.5206C45.1787 71.2897 43.8146 69.7408 43.8146 67.9174V21.3516C43.8146 20.527 44.1698 19.7421 44.7884 19.1972C45.407 18.6522 46.2312 18.3999 47.0495 18.504L114.84 27.1463C116.65 27.3771 118.014 28.9261 118.014 30.7495V77.3153C118.014 78.1399 117.659 78.9248 117.04 79.4697C116.513 79.934 115.837 80.1857 115.142 80.1857ZM114.833 79.7363C115.529 79.8248 116.23 79.6102 116.756 79.1472C117.282 78.6842 117.584 78.0163 117.584 77.3153V30.7495C117.584 29.1414 116.381 27.7758 114.786 27.5722L46.9949 18.9299C46.2995 18.8415 45.5982 19.0561 45.072 19.5197C44.5457 19.9827 44.2439 20.6506 44.2439 21.3516V67.9174C44.2439 69.5255 45.4473 70.8911 47.043 71.0947L114.834 79.737L114.833 79.7363Z" fill="#26AA9D"/>
<path d="M75.2572 107.374L5.53722 98.3853C4.99145 98.3157 4.68376 97.8586 4.69092 97.4021C4.69547 97.0873 4.72149 94.8686 4.72149 94.8686L41.586 73.8005C43.4328 72.7458 45.8227 72.3387 47.9323 72.6086L116.772 81.4856C117.186 81.539 117.541 81.8075 117.706 82.1919L117.816 82.4507C117.816 82.4507 117.757 84.3007 117.781 84.7332C117.8 85.0713 117.648 85.4199 117.293 85.6221L81.3544 106.164C79.5076 107.219 77.3668 107.643 75.2572 107.373V107.374Z" fill="#C2E1DE"/>
<path d="M14.1121 97.0086L5.78636 95.9337C4.86395 95.8154 4.62196 94.5928 5.42923 94.1318L41.1756 73.7225C43.0223 72.6677 45.1631 72.2437 47.2727 72.5136L116.744 81.485C117.666 81.6033 117.908 82.8259 117.101 83.2869L81.3544 103.696C79.5076 104.751 77.3668 105.175 75.2572 104.905L14.1121 97.0086Z" fill="white"/>
<path d="M88.8586 93.5757L28.6183 85.7397C27.7857 85.6331 27.5665 84.5289 28.2957 84.1127L42.4597 76.107C44.1282 75.1544 46.0608 74.7713 47.9668 75.0152L108.207 82.8512C109.04 82.9578 109.259 84.062 108.53 84.4782L94.3657 92.4839C92.6972 93.4365 90.7646 93.8196 88.8586 93.5757Z" fill="#D8D8D8"/>
<path d="M76.4848 105.198C76.0659 105.198 75.647 105.171 75.23 105.118L41.2095 100.755C41.0917 100.741 41.0085 100.633 41.0241 100.515C41.039 100.397 41.1477 100.315 41.2641 100.329L75.2846 104.691C77.335 104.954 79.4524 104.534 81.2478 103.509L116.994 83.0995C117.341 82.9012 117.411 82.5559 117.36 82.2984C117.309 82.0409 117.112 81.7483 116.716 81.6975L47.2448 72.7262C45.1951 72.4634 43.0764 72.8835 41.2817 73.9084L36.2735 76.7684C36.1707 76.8269 36.0393 76.7911 35.9801 76.6884C35.9209 76.5856 35.9573 76.4543 36.0601 76.3951L41.0683 73.5351C42.9443 72.4641 45.158 72.0258 47.2994 72.2996L116.77 81.2709C117.284 81.3366 117.68 81.7073 117.781 82.2145C117.881 82.7217 117.656 83.2153 117.207 83.4722L81.4605 103.881C79.9494 104.744 78.2197 105.196 76.4842 105.196L76.4848 105.198Z" fill="#C2E1DE"/>
<path d="M107.977 75.8242L54.4405 69.0554C53.5187 68.939 52.772 68.0559 52.772 67.0831V1.77733C52.772 0.804495 53.5187 0.110639 54.4405 0.22704L107.977 6.99588C108.899 7.11228 109.646 7.99537 109.646 8.9682V74.2746C109.646 75.2474 108.899 75.9413 107.977 75.8249V75.8242Z" fill="#C2E1DE"/>
<path d="M108.179 76.0518C108.104 76.0518 108.028 76.0466 107.951 76.0375L54.4139 69.2686C53.39 69.1392 52.5574 68.1592 52.5574 67.0837V1.77726C52.5574 1.22907 52.7668 0.742655 53.1467 0.407757C53.5052 0.0917176 53.9748 -0.0474439 54.4679 0.0143334L108.005 6.78382C109.029 6.91323 109.861 7.89321 109.861 8.96879V74.2752C109.861 74.8234 109.652 75.3098 109.272 75.6447C108.969 75.9113 108.588 76.0524 108.179 76.0524V76.0518ZM108.005 75.6109C108.374 75.6577 108.723 75.555 108.988 75.3215C109.274 75.0692 109.431 74.6972 109.431 74.2739V8.96814C109.431 8.10131 108.767 7.31251 107.951 7.20911L54.4133 0.440272C54.0438 0.392801 53.6951 0.496196 53.4303 0.729649C53.1441 0.981961 52.9867 1.35393 52.9867 1.77726V67.0837C52.9867 67.9505 53.6509 68.7393 54.4672 68.8427L108.004 75.6115L108.005 75.6109Z" fill="black"/>
<path d="M99.6334 39.6949L62.9224 35.0531C62.5386 35.0043 62.2271 34.6369 62.2271 34.2318V30.7098C62.2271 30.3047 62.538 30.0153 62.9224 30.0641L99.6334 34.7059C100.017 34.7546 100.329 35.122 100.329 35.5272V39.0491C100.329 39.4543 100.017 39.7436 99.6334 39.6949Z" fill="white"/>
<path d="M99.9112 49.7086L62.923 45.0318C62.6154 44.9927 62.3662 44.6982 62.3662 44.3737V40.5591C62.3662 40.2346 62.6154 40.0031 62.923 40.0421L99.9112 44.719C100.219 44.758 100.468 45.0526 100.468 45.3771V49.1916C100.468 49.5161 100.219 49.7476 99.9112 49.7086Z" fill="white"/>
<path d="M94.1413 59.3992L68.4153 56.1465C67.9932 56.0932 67.651 55.6887 67.651 55.2432V51.867C67.651 51.4215 67.9932 51.1035 68.4153 51.1568L94.1413 54.4096C94.5635 54.4629 94.9057 54.8674 94.9057 55.3128V58.6891C94.9057 59.1346 94.5635 59.4526 94.1413 59.3992Z" fill="#D8D8D8"/>
<path d="M87.0619 25.9692C90.2945 23.2219 90.4014 18.0372 87.3007 14.3887C84.2001 10.7403 79.0659 10.0097 75.8333 12.757C72.6008 15.5042 72.4938 20.689 75.5945 24.3374C78.6952 27.9859 83.8293 28.7164 87.0619 25.9692Z" fill="#26AA9D"/>
<path d="M83.2719 20.527C84.4003 19.5683 84.4375 17.7589 83.3549 16.4855C82.2724 15.2121 80.4801 14.957 79.3516 15.9157C78.2232 16.8744 78.186 18.6838 79.2686 19.9572C80.3511 21.2306 82.1434 21.4857 83.2719 20.527Z" fill="white"/>
<path d="M75.511 24.2356C76.4796 23.2738 77.6557 22.3315 78.9086 21.7684C79.211 21.6325 79.5701 21.637 79.9019 21.7827C81.1768 22.3426 82.1689 22.2789 83.2708 21.9992C83.5382 21.9316 83.8348 21.9797 84.0904 22.1391C85.4682 22.9981 86.6599 24.1003 87.5667 25.4971C83.987 29.0945 78.2528 27.818 75.5116 24.2356H75.511Z" fill="white"/>
<path d="M81.4494 27.9221C76.7866 27.357 72.9929 23.0573 72.9929 18.3381C72.9929 13.619 76.7866 10.2394 81.4494 10.8052C86.1122 11.3703 89.9059 15.67 89.9059 20.3891C89.9059 25.1083 86.1122 28.4878 81.4494 27.9221ZM81.4494 11.5029C77.1665 10.9834 73.6818 14.0878 73.6818 18.422C73.6818 22.7562 77.1665 26.7054 81.4494 27.2249C85.7323 27.7445 89.2171 24.6401 89.2171 20.3059C89.2171 15.9717 85.7323 12.0225 81.4494 11.5029Z" fill="#D8D8D8"/>
<path d="M13.3835 59.4909C11.3995 60.227 9.71536 61.776 8.56918 63.816C5.64453 69.0202 -1.9878 84.2734 1.62248 96.0514C6.04459 110.479 43.4295 110.092 53.1727 103.952C55.6479 102.392 65.7762 91.8687 52.7766 83.1217C40.8613 75.1036 35.9364 80.9894 30.4423 77.8303C24.9481 74.6712 20.9794 61.9939 18.9525 60.1926C17.643 59.0292 15.6069 58.6657 13.3835 59.4909Z" fill="#26AA9D"/>
<path d="M24.8838 94.2071C24.8291 94.2071 24.7738 94.1863 24.7322 94.1441C19.7923 89.209 8.30379 88.6244 8.18865 88.6192C8.07026 88.614 7.97854 88.5132 7.9844 88.3949C7.9896 88.2765 8.09303 88.1874 8.20882 88.19C8.68694 88.2121 19.9796 88.7883 25.0366 93.8397C25.1205 93.9236 25.1205 94.0595 25.0366 94.1434C24.995 94.185 24.9397 94.2065 24.8844 94.2065L24.8838 94.2071Z" fill="#C2E1DE"/>
<path d="M36.4569 94.4783C36.4276 94.4783 36.3983 94.4725 36.3697 94.4595C32.5174 92.7466 29.7983 94.2826 29.771 94.2988C29.6689 94.3587 29.5375 94.3242 29.4776 94.2215C29.4178 94.1194 29.4523 93.988 29.5544 93.9282C29.6721 93.8593 32.4803 92.2596 36.544 94.0674C36.6527 94.1155 36.7014 94.2423 36.6527 94.3509C36.6169 94.4309 36.5388 94.4783 36.4562 94.4783H36.4569Z" fill="#C2E1DE"/>
<path d="M54.0008 103.608C54.0352 103.721 58.1627 108.383 58.1627 108.383L55.4111 109.466L52.0876 105.422L54.0008 103.608Z" fill="white"/>
<path d="M55.4111 109.681C55.348 109.681 55.2868 109.653 55.2452 109.603L51.9218 105.559C51.8502 105.471 51.8581 105.344 51.94 105.267L53.8531 103.452C53.9071 103.401 53.9839 103.382 54.0561 103.4C54.114 103.416 54.1621 103.454 54.1901 103.506C54.3566 103.742 56.7459 106.459 58.324 108.241C58.3702 108.294 58.3884 108.365 58.3722 108.433C58.3559 108.502 58.3071 108.558 58.2421 108.583L55.4904 109.666C55.4651 109.676 55.4384 109.681 55.4117 109.681L55.4111 109.681ZM52.3804 105.44L55.4774 109.209L57.7984 108.296C55.2107 105.371 54.3033 104.318 53.98 103.923L52.3804 105.44V105.44Z" fill="black"/>
<path d="M55.3642 107.568C55.4702 107.335 55.6537 107.068 55.9692 106.898C56.4447 106.643 57.0334 106.73 57.4484 107.075C58.4859 107.939 61.3007 110.381 62.8937 112.72C63.4564 113.546 63.1286 114.598 61.7905 114.526C59.597 114.407 56.1337 113.374 53.3093 110.74C52.9853 110.437 52.8331 109.991 52.9151 109.555C52.9821 109.2 53.0907 108.755 53.265 108.336C53.4315 107.936 53.868 107.72 54.2889 107.82L54.6682 107.911C54.9531 107.978 55.2445 107.834 55.3648 107.567L55.3642 107.568Z" fill="white"/>
<path d="M61.9226 114.745C61.8758 114.745 61.8283 114.743 61.7788 114.741C59.4722 114.616 55.9972 113.541 53.1623 110.897C52.7798 110.54 52.6081 110.024 52.7031 109.516C52.7915 109.045 52.9138 108.619 53.0654 108.255C53.2722 107.757 53.807 107.487 54.3371 107.613L54.7164 107.703C54.8991 107.746 55.0897 107.653 55.1678 107.48C55.3226 107.139 55.5646 106.872 55.8671 106.71C56.4038 106.421 57.0946 106.502 57.5851 106.911C58.7033 107.842 61.477 110.26 63.0707 112.6C63.4077 113.095 63.4649 113.672 63.2204 114.106C63.0824 114.35 62.7338 114.745 61.922 114.745L61.9226 114.745ZM54.0782 108.011C53.8122 108.011 53.5676 108.167 53.4622 108.419C53.3217 108.757 53.2085 109.153 53.1252 109.596C53.0569 109.958 53.1805 110.327 53.455 110.583C56.206 113.149 59.5704 114.191 61.8016 114.312C62.309 114.341 62.6791 114.191 62.8463 113.895C63.0102 113.604 62.9602 113.2 62.7156 112.841C61.1524 110.546 58.4151 108.16 57.3106 107.24C56.9528 106.942 56.4545 106.881 56.0707 107.087C55.8489 107.207 55.6765 107.398 55.5594 107.657C55.3968 108.017 54.9993 108.212 54.6175 108.121L54.2382 108.03C54.1843 108.017 54.1309 108.011 54.0782 108.011Z" fill="black"/>
<path d="M61.3346 113.66C60.0622 113.66 57.6612 113.118 53.8688 110.244C53.7744 110.172 53.7556 110.038 53.8271 109.943C53.8987 109.849 54.0333 109.83 54.1283 109.901C59.8748 114.256 62.2355 113.094 62.2583 113.082C62.363 113.026 62.4931 113.066 62.5484 113.172C62.6037 113.276 62.564 113.406 62.4586 113.462C62.4209 113.482 62.0618 113.659 61.3339 113.659L61.3346 113.66Z" fill="black"/>
<path d="M58.9511 111.195C58.8991 111.195 58.8464 111.176 58.8054 111.137C58.7182 111.057 58.713 110.921 58.7937 110.834L59.9073 109.631C59.988 109.544 60.124 109.539 60.2111 109.62C60.2983 109.7 60.3035 109.836 60.2228 109.923L59.1092 111.126C59.0669 111.171 59.009 111.195 58.9518 111.195H58.9511Z" fill="black"/>
<path d="M57.9656 110.385C57.911 110.385 57.8564 110.364 57.8141 110.322C57.7302 110.239 57.7295 110.103 57.8128 110.019L59.039 108.783C59.1222 108.699 59.2582 108.698 59.3428 108.781C59.4267 108.865 59.4273 109.001 59.3441 109.085L58.1179 110.321C58.0762 110.363 58.0209 110.385 57.9656 110.385Z" fill="black"/>
<path d="M45.3934 106.102L44.1255 111.665L42.042 110.079L43.0054 104.731L45.3934 106.102Z" fill="white"/>
<path d="M44.1255 111.879C44.0794 111.879 44.0332 111.864 43.9954 111.836L41.9119 110.25C41.8475 110.201 41.8163 110.12 41.8306 110.041L42.794 104.694C42.8063 104.625 42.8512 104.566 42.915 104.537C42.9787 104.508 43.0522 104.51 43.1127 104.545L45.5007 105.916C45.5827 105.962 45.6243 106.057 45.6035 106.15L44.3363 111.713C44.32 111.784 44.2687 111.842 44.2003 111.867C44.1763 111.875 44.1516 111.88 44.1268 111.88L44.1255 111.879ZM42.2762 109.988L43.9896 111.292L45.1475 106.209L43.1615 105.07L42.2755 109.988H42.2762Z" fill="black"/>
<path d="M44.8437 110.656C44.7162 112.387 44.4104 115.868 43.101 118.337C42.7497 118.999 41.3778 118.949 40.8802 118.047C39.842 116.164 38.515 112.965 39.2956 109.103C39.3567 108.802 39.5584 108.547 39.8374 108.417C40.1653 108.266 40.6837 108.075 41.4214 107.941C41.7889 107.874 42.1376 108.131 42.1825 108.502L42.3471 109.864L42.5207 109.638C42.7816 109.298 43.2408 109.18 43.6331 109.352C43.8445 109.445 44.078 109.547 44.2888 109.64C44.6837 109.814 44.8762 110.226 44.8443 110.657L44.8437 110.656Z" fill="white"/>
<path d="M42.1909 119C41.5645 119 40.9771 118.668 40.6915 118.15C39.0184 115.118 38.4779 112.06 39.0841 109.06C39.159 108.693 39.4061 108.38 39.7464 108.221C40.0631 108.075 40.6037 107.87 41.3817 107.729C41.6152 107.686 41.8579 107.742 42.0485 107.883C42.2397 108.024 42.3659 108.24 42.3945 108.476L42.4993 109.345C42.8291 109.053 43.3026 108.972 43.7183 109.155L44.374 109.443C44.8294 109.642 45.0974 110.125 45.057 110.671C44.8944 112.881 44.5347 116.09 43.2896 118.436C43.1049 118.785 42.699 118.995 42.2046 118.999C42.2 118.999 42.1948 118.999 42.1903 118.999L42.1909 119ZM41.5378 108.144C41.5118 108.144 41.4858 108.147 41.4591 108.151C40.7254 108.285 40.2212 108.476 39.9272 108.612C39.7106 108.712 39.5532 108.911 39.5057 109.146C38.9202 112.043 39.4458 115.002 41.0682 117.943C41.3264 118.411 41.8364 118.575 42.202 118.57C42.5311 118.568 42.8031 118.439 42.911 118.235C44.2576 115.697 44.5275 112.023 44.629 110.64C44.6563 110.272 44.4924 109.964 44.2016 109.836L43.5459 109.548C43.2434 109.415 42.8915 109.506 42.6899 109.768L42.5162 109.994C42.4628 110.062 42.3737 110.093 42.2892 110.07C42.2052 110.047 42.1434 109.975 42.1324 109.888L41.9678 108.527C41.9535 108.407 41.8911 108.301 41.7935 108.229C41.718 108.173 41.6289 108.144 41.5372 108.144H41.5378Z" fill="black"/>
<path d="M41.9587 117.917C41.8878 117.917 41.8182 117.881 41.7772 117.817C39.3476 114.003 39.8979 109.61 39.9226 109.425C39.9382 109.307 40.0443 109.224 40.164 109.24C40.2817 109.255 40.3643 109.363 40.3487 109.481C40.3428 109.525 39.7964 113.908 42.1402 117.587C42.2039 117.687 42.1747 117.82 42.0745 117.883C42.0387 117.906 41.999 117.917 41.9593 117.917L41.9587 117.917Z" fill="black"/>
<path d="M44.417 113.244C44.3975 113.244 44.3773 113.241 44.3572 113.235L42.7368 112.768C42.6229 112.735 42.5572 112.617 42.5897 112.502C42.6229 112.389 42.742 112.323 42.8558 112.355L44.4762 112.822C44.59 112.855 44.6557 112.974 44.6232 113.088C44.5959 113.183 44.51 113.244 44.417 113.244Z" fill="black"/>
<path d="M44.1054 114.652C44.08 114.652 44.0546 114.648 44.0299 114.639L42.4993 114.063C42.3881 114.021 42.3321 113.897 42.3737 113.787C42.4154 113.675 42.5396 113.62 42.6502 113.661L44.1808 114.237C44.2921 114.278 44.348 114.402 44.3064 114.513C44.2739 114.599 44.1919 114.652 44.1054 114.652Z" fill="black"/>
<path d="M31.264 80.6844C31.264 80.6844 39.0212 79.7623 46.0102 83.7148C47.7717 84.711 48.8522 86.5851 48.8411 88.6082C48.819 92.625 48.3936 99.9674 45.9321 106.341C45.7922 106.704 45.3766 106.875 45.0207 106.717L41.8749 105.325C41.6635 105.231 41.5139 105.038 41.4781 104.809C41.2465 103.337 40.4653 97.7376 41.2485 93.6752C42.1572 88.9606 26.9615 83.9638 26.9615 83.9638L31.264 80.6838V80.6844Z" fill="black"/>
<path d="M54.8484 104.588L52.0447 106.431C51.8574 106.554 51.6082 106.522 51.4573 106.357C49.7322 104.467 39.9935 93.8488 37.5516 92.4585C34.8695 90.9317 29.8587 88.6329 25.3072 88.6602C20.7563 88.6875 19.7961 85.5271 19.7961 85.5271L26.2862 81.3354C26.2862 81.3354 37.5164 82.6067 42.2618 86.4648C46.5467 89.9491 53.6515 101.722 54.9902 103.975C55.1144 104.185 55.052 104.454 54.8484 104.588Z" fill="black"/>
<path d="M48.7902 94.2221C48.7232 94.2221 48.6575 94.1909 48.6159 94.1324C46.7235 91.5 43.7787 87.9742 42.1265 86.6307C40.3389 85.1773 37.4175 83.9242 33.4449 82.9065C33.3297 82.8772 33.2608 82.7601 33.2901 82.645C33.3193 82.5299 33.4358 82.4604 33.5516 82.4903C37.5853 83.5236 40.5613 84.804 42.3977 86.2971C44.078 87.6633 47.056 91.2262 48.9645 93.8814C49.0335 93.9776 49.012 94.1116 48.9157 94.1811C48.878 94.2085 48.8338 94.2215 48.7908 94.2215L48.7902 94.2221Z" fill="#26AA9D"/>
<path d="M26.1834 71.1194L27.0148 72.8297C28.0042 74.8651 29.5257 76.5942 31.418 77.8343L32.185 78.337C32.6767 78.6595 33.2615 78.8091 33.8477 78.7635L33.9374 78.7564C34.8332 78.6868 35.723 78.9482 36.4386 79.4912L34.4266 80.1376C33.1998 80.5317 31.8643 80.4393 30.7148 79.8567C29.6135 79.2987 28.2677 78.3825 27.1449 76.9213C24.7933 73.8584 24.2495 71.9726 24.2495 71.9726L26.1841 71.1201L26.1834 71.1194Z" fill="white"/>
<path d="M32.8992 80.5933C32.1108 80.5933 31.3328 80.41 30.6173 80.0478C29.1595 79.3084 27.9333 78.3004 26.9745 77.0512C24.6249 73.9916 24.0654 72.1104 24.0427 72.0317C24.0127 71.9283 24.0641 71.819 24.1624 71.7761L26.0969 70.9236C26.203 70.8768 26.3266 70.9223 26.3767 71.0263L27.208 72.7366C28.1799 74.7362 29.6767 76.4367 31.5358 77.6554L32.3027 78.158C32.7522 78.4526 33.2947 78.5911 33.8308 78.5502L33.9199 78.543C34.869 78.4676 35.8089 78.7452 36.5674 79.3207C36.6312 79.3689 36.663 79.4489 36.6494 79.5282C36.6357 79.6069 36.5798 79.6719 36.5037 79.6966L34.4917 80.343C33.9674 80.5114 33.4307 80.5953 32.8992 80.5953V80.5933ZM24.5156 72.0889C24.7107 72.6215 25.4237 74.3272 27.3147 76.7898C28.2345 77.9876 29.4113 78.9546 30.8111 79.6647C31.9079 80.2207 33.1679 80.3157 34.3603 79.9327L35.9481 79.4228C35.3471 79.0749 34.6523 78.9163 33.9537 78.9702L33.8639 78.9774C33.2329 79.0268 32.5955 78.8623 32.0666 78.5163L31.2997 78.0137C29.3755 76.7528 27.8273 74.9924 26.821 72.9232L26.08 71.3996L24.5156 72.0895V72.0889Z" fill="black"/>
<path d="M23.6224 87.5183C23.6224 87.5183 21.0718 89.4653 19.6693 88.9047C18.2668 88.3448 20.6808 85.9466 21.3918 85.8536C22.1028 85.7606 23.6224 87.5177 23.6224 87.5177V87.5183Z" fill="black"/>
<path d="M24.0668 58.8022C25.2142 58.6429 26.5224 59.6476 26.3923 61.3598C26.2863 62.7586 24.8265 63.1813 24.1507 63.9285C21.9656 66.3443 24.0629 68.9662 22.3546 71.3762C20.7277 73.6717 18.2578 72.0915 14.9519 74.7278C12.3499 76.8028 21.8089 73.6496 18.4972 75.8391C15.8555 77.5858 10.8987 77.4395 8.09827 74.2297C5.43512 71.1772 4.82235 66.5946 7.5512 64.3837C10.0042 62.3957 11.7359 64.7147 14.3515 62.8496C16.9301 61.0113 16.2211 59.2288 17.8317 58.4608C20.0343 57.4106 20.813 59.2542 24.0661 58.8029L24.0668 58.8022Z" fill="black"/>
<path d="M10.4927 75.9023C10.639 75.0419 10.8518 74.0307 11.069 73.3642C11.7371 71.3125 12.1924 69.9775 14.4822 68.7576C14.825 68.5748 15.1847 68.4266 15.5536 68.3037L16.9372 67.842C16.9372 67.842 22.6479 66.2091 24.9357 68.4162C25.1211 68.595 25.3553 68.7966 25.5056 69.0333L26.9959 71.2794L26.9822 71.2852C25.6578 71.8263 25.1036 73.4091 25.812 74.6518C26.6264 76.0804 27.7492 77.7491 28.8661 78.4429C29.2186 78.6621 32.062 79.83 32.062 79.83C32.062 79.83 32.76 81.9564 28.3847 83.7798C24.0094 85.6032 20.8213 86.2639 19.9035 88.5152C19.3603 89.8483 17.1479 83.458 15.7234 77.4701C15.4495 76.3178 14.371 75.542 13.1916 75.6519L10.4933 75.9023H10.4927Z" fill="white"/>
<path d="M19.7167 88.9079C19.707 88.9079 19.6972 88.9079 19.6888 88.9066C19.4819 88.8904 18.9973 88.8533 17.7099 85.1616C16.9541 82.9942 16.1539 80.2084 15.5145 77.5195C15.2667 76.4777 14.2746 75.7663 13.2111 75.8651L10.5128 76.1155C10.4471 76.1226 10.3807 76.0966 10.3352 76.0479C10.2897 75.9991 10.2695 75.9315 10.2812 75.8658C10.4543 74.8487 10.6722 73.8889 10.8647 73.2971C11.5178 71.291 11.9901 69.8415 14.3813 68.5669C14.7176 68.3875 15.0787 68.2347 15.4852 68.0987L16.8688 67.637C17.116 67.5662 22.7351 65.9938 25.084 68.2607C25.1152 68.2906 25.1478 68.3211 25.1809 68.3524C25.3527 68.5143 25.5472 68.6977 25.6864 68.9168L27.1747 71.1596C27.2105 71.2136 27.2196 71.2799 27.2007 71.3417C27.1819 71.4035 27.1363 71.4529 27.0765 71.4776L27.0628 71.4835C26.4858 71.7195 26.0383 72.1923 25.8353 72.7815C25.6337 73.3661 25.6929 74.0092 25.998 74.545C27.0739 76.4328 28.1049 77.7171 28.9792 78.2608C29.2271 78.4149 31.0068 79.1647 32.1432 79.6316C32.2011 79.6556 32.246 79.7038 32.2655 79.7629C32.2968 79.8572 32.9739 82.1001 28.4673 83.9781C27.4811 84.3891 26.5372 84.748 25.7046 85.0641C22.845 86.1514 20.779 86.9369 20.1025 88.5964C19.9945 88.8611 19.8247 88.9086 19.7167 88.9086V88.9079ZM13.4088 75.4268C14.5927 75.4268 15.6537 76.2488 15.9328 77.42C17.3066 83.1952 19.0818 88.0853 19.6927 88.4618C19.6966 88.454 19.7005 88.4449 19.7057 88.4339C20.4525 86.6014 22.5919 85.7885 25.553 84.6622C26.3831 84.3468 27.323 83.9892 28.3027 83.5808C31.9091 82.078 31.9279 80.3879 31.8746 79.984C31.3048 79.7493 29.0833 78.8298 28.7528 78.6243C27.8051 78.0351 26.7526 76.7339 25.6252 74.7564C25.2584 74.1133 25.1874 73.342 25.4294 72.6403C25.646 72.0122 26.0949 71.4939 26.6784 71.1883L25.326 69.1503C25.2135 68.9734 25.0398 68.8095 24.8863 68.6645C24.8518 68.632 24.818 68.6001 24.7861 68.5689C22.6128 66.4724 17.0523 68.0305 16.9957 68.0467L15.6212 68.5058C15.238 68.6339 14.8978 68.7776 14.583 68.9454C12.3446 70.138 11.9179 71.4477 11.2732 73.4291C11.1041 73.9487 10.9135 74.7687 10.7528 75.6616L13.1714 75.4372C13.2508 75.4301 13.3301 75.4262 13.4088 75.4262V75.4268Z" fill="black"/>
<path d="M27.543 81.2782L25.4243 80.6747C25.1095 80.5849 24.7705 80.6662 24.5299 80.888L23.6094 81.7392C23.4338 81.9018 23.2028 81.9896 22.9635 81.9876C21.9194 81.9766 17.1057 80.8607 16.5794 80.0628C16.3192 79.668 15.9237 78.2868 15.6258 77.143C15.376 76.1845 14.4686 75.5485 13.4818 75.6408L11.3566 75.8398C11.3566 75.8398 12.2673 80.9329 14.1004 82.476C15.5237 83.6745 18.7411 84.1342 23.3401 83.599C23.3401 83.599 24.2989 83.4365 25.0535 82.4266C25.5355 81.7815 26.8118 82.0292 27.5482 81.8049C27.8097 81.7249 27.8064 81.3542 27.5436 81.2795L27.543 81.2782Z" fill="white"/>
<path d="M19.8143 84.0347C17.0796 84.0347 15.0553 83.5606 13.9624 82.6405C12.0909 81.0655 11.1835 76.0888 11.1458 75.8775C11.1354 75.8183 11.1497 75.7578 11.1861 75.7097C11.2225 75.6616 11.2772 75.6317 11.337 75.6258L13.4622 75.4268C14.5589 75.3247 15.5562 76.0231 15.8339 77.0883C16.3797 79.1796 16.6477 79.7753 16.7589 79.9444C17.2039 80.6194 21.8198 81.7606 22.966 81.773C23.1469 81.7749 23.3283 81.7073 23.4637 81.5818L24.3841 80.7306C24.6775 80.4594 25.099 80.3586 25.4828 80.4685L27.6015 81.072C27.8116 81.1318 27.9541 81.3191 27.956 81.5376C27.958 81.7561 27.8188 81.9459 27.6099 82.0097C27.3289 82.0955 26.9985 82.117 26.6485 82.1391C26.0735 82.1761 25.4789 82.2145 25.2246 82.5546C24.4277 83.6211 23.4175 83.8032 23.3752 83.8103C22.0865 83.9605 20.8942 84.0347 19.8137 84.0347H19.8143ZM11.6128 76.0309C11.8151 77.0317 12.7031 81.0186 14.2389 82.3114C15.6518 83.5008 18.9602 83.8923 23.3153 83.385C23.3153 83.385 24.1922 83.2192 24.8817 82.2971C25.2545 81.7977 25.9811 81.7509 26.6218 81.7099C26.9458 81.6891 27.2522 81.6696 27.4857 81.598C27.5137 81.5896 27.528 81.5701 27.528 81.5408C27.528 81.5116 27.513 81.492 27.485 81.4842L25.3664 80.8808C25.125 80.8118 24.8609 80.8749 24.6768 81.0453L23.7564 81.8965C23.5437 82.0936 23.2665 82.2015 22.9751 82.2015H22.9628C21.935 82.1905 16.9899 81.072 16.4018 80.1804C16.178 79.841 15.8476 78.8369 15.4196 77.1962C15.1951 76.3353 14.3898 75.7728 13.5032 75.8534L11.6141 76.0303L11.6128 76.0309Z" fill="black"/>
<path d="M17.1739 67.8784C17.1739 67.8784 18.367 64.0332 18.4079 63.5663C18.4079 63.5663 18.028 63.366 18.0495 62.7808C18.0898 61.6675 19.195 62.2189 19.195 62.2189L19.3037 62.2449C19.9373 62.3978 20.6014 62.3646 21.2175 62.15L22.51 61.6993C22.51 61.6993 22.7806 62.1741 22.4658 63.0903C22.3155 63.5273 22.3448 64.0345 22.4241 64.5652C22.4449 64.705 22.3487 64.8357 22.2088 64.8571L21.8634 64.9098C21.6832 65.3279 21.5219 65.5764 21.2233 65.8449C21.1413 65.9184 21.034 65.9587 20.9247 65.9529C20.7758 65.9451 20.5461 65.9132 20.2885 65.8053L20.094 67.4368L20.9514 67.416C20.9514 67.416 21.2604 68.4383 19.6367 69.1783C18.7403 69.5867 17.4712 69.5041 16.5137 69.3474C16.0226 69.2674 15.9003 68.6177 16.3309 68.368L17.1746 67.8777L17.1739 67.8784Z" fill="white"/>
<path d="M17.963 69.69C17.4368 69.69 16.917 69.6315 16.4779 69.56C16.1631 69.5086 15.9218 69.2725 15.8639 68.9597C15.8066 68.6476 15.9465 68.3426 16.2216 68.1833L16.9925 67.7352C17.4316 66.3176 18.056 64.2302 18.1738 63.6599C18.0274 63.5285 17.8154 63.2535 17.8329 62.7736C17.8472 62.3873 17.9767 62.1181 18.2193 61.9744C18.6142 61.7403 19.1372 61.9561 19.2653 62.016L19.3518 62.0368C19.9471 62.1798 20.5663 62.1493 21.144 61.9477L22.4365 61.497C22.5341 61.4632 22.6427 61.5035 22.6941 61.5933C22.7071 61.616 23.009 62.1636 22.6661 63.1605C22.5204 63.5851 22.5679 64.093 22.6343 64.5339C22.6727 64.7901 22.4957 65.0307 22.2394 65.0697L22.0098 65.1048C21.8277 65.5035 21.6514 65.748 21.3645 66.0055C21.2396 66.1173 21.075 66.1759 20.9111 66.1681C20.7992 66.1622 20.645 66.144 20.4681 66.0952L20.3348 67.2163L20.9443 67.2014C21.0425 67.2059 21.1271 67.2618 21.155 67.3542C21.17 67.4036 21.4985 68.5657 19.7239 69.374C19.2081 69.6094 18.5804 69.69 17.9624 69.69H17.963ZM18.6395 62.2976C18.5654 62.2976 18.4958 62.3106 18.4392 62.3437C18.3312 62.4081 18.272 62.5583 18.2636 62.7892C18.2479 63.2223 18.5003 63.3725 18.5107 63.3783C18.583 63.4199 18.6285 63.5019 18.6213 63.5851C18.5797 64.0611 17.5018 67.546 17.3789 67.942C17.3626 67.9934 17.3281 68.037 17.282 68.0643L16.4383 68.5546C16.2607 68.6574 16.2776 68.8316 16.2873 68.8824C16.3069 68.9884 16.3856 69.1106 16.5482 69.1366C17.4426 69.2823 18.6896 69.3753 19.547 68.9838C20.6086 68.5 20.7563 67.9141 20.7602 67.6364L20.098 67.6527C20.0355 67.6494 19.9757 67.6286 19.934 67.5824C19.8924 67.5363 19.8722 67.4745 19.8794 67.4127L20.0739 65.7811C20.0817 65.7142 20.1207 65.655 20.1793 65.6212C20.2372 65.5874 20.3081 65.5828 20.3705 65.6088C20.6002 65.7051 20.8044 65.7337 20.9345 65.7402C20.9879 65.7441 21.0379 65.7233 21.0783 65.6875C21.3417 65.4508 21.49 65.2336 21.665 64.8265C21.6943 64.7589 21.7567 64.7101 21.8296 64.6991L22.175 64.6464C22.1978 64.6425 22.214 64.621 22.2108 64.5983C22.1373 64.106 22.0853 63.5337 22.2615 63.022C22.4346 62.5186 22.4138 62.1675 22.3741 61.9757L21.2871 62.3548C20.6314 62.5837 19.9282 62.6181 19.2523 62.4556L19.1437 62.4296C19.1281 62.4257 19.1125 62.4205 19.0982 62.4126C19.0207 62.3743 18.8184 62.2988 18.6389 62.2988L18.6395 62.2976Z" fill="black"/>
<path d="M20.2866 66.0206C20.256 66.0206 20.2248 66.0141 20.1955 66.0004L19.9581 65.8892C19.8508 65.8391 19.8046 65.711 19.8547 65.6036C19.9048 65.4963 20.0329 65.4495 20.1403 65.5002L20.3777 65.6114C20.485 65.6615 20.5312 65.7897 20.4811 65.897C20.4447 65.9751 20.3673 66.0206 20.2866 66.0206Z" fill="black"/>
<path d="M37.7637 79.2713L27.9789 82.2457L31.2457 71.146C31.3667 70.7285 31.6971 70.3969 32.1213 70.2681L40.0619 67.8542C40.5661 67.7008 41.037 68.1482 40.8933 68.6443L37.7624 79.272L37.7637 79.2713Z" fill="black"/>
<path d="M35.4309 74.8951C35.3151 75.2952 34.9307 75.7076 34.5722 75.8169C34.2138 75.9261 34.0167 75.69 34.1319 75.29C34.2476 74.8899 34.6321 74.4775 34.9905 74.3682C35.3489 74.2589 35.546 74.495 35.4309 74.8951Z" fill="white"/>
<path d="M37.4216 80.0198L22.0723 84.6856C21.7555 84.7819 21.4199 84.603 21.3236 84.2857L21.2781 84.2038L37.7754 79.1888L37.821 79.2707C37.9172 79.588 37.7383 79.9236 37.4216 80.0198Z" fill="black"/>
<path d="M47.644 24.8293L59.3596 28.2329L67.6723 18.9871L47.644 24.8293Z" fill="white"/>
<path d="M53.4823 30.3236L51.8463 26.0499L62.737 21.6013L53.9058 26.6481L56.3549 27.3596L53.4823 30.3236Z" fill="#D8D8D8"/>
<path d="M53.7606 29.0959C53.7528 29.0959 53.7444 29.0959 53.7366 29.0946C53.6273 29.0816 53.5493 28.9821 53.563 28.8728L53.7951 26.9584C53.8081 26.8491 53.9096 26.7698 54.0169 26.7847C54.1261 26.7977 54.2041 26.8972 54.1905 27.0065L53.9583 28.9209C53.946 29.0224 53.8601 29.0965 53.7606 29.0965V29.0959Z" fill="white"/>
<path d="M4.48733 58.2797C4.43269 58.2797 4.3774 58.2589 4.33576 58.2166C4.25185 58.1327 4.25185 57.9967 4.33576 57.9128L4.83535 57.4132C4.91926 57.3293 5.05522 57.3293 5.13913 57.4132C5.22305 57.4972 5.22305 57.6331 5.13913 57.717L4.63955 58.2166C4.59792 58.2583 4.54262 58.2797 4.48798 58.2797H4.48733Z" fill="#F8931F"/>
<path d="M6.37441 56.3926C6.31977 56.3926 6.26448 56.3718 6.22285 56.3295C6.13893 56.2456 6.13893 56.1096 6.22285 56.0257L6.72243 55.5261C6.80635 55.4422 6.9423 55.4422 7.02622 55.5261C7.11013 55.61 7.11013 55.746 7.02622 55.8299L6.52663 56.3295C6.485 56.3711 6.42971 56.3926 6.37507 56.3926H6.37441Z" fill="#F8931F"/>
<path d="M6.874 58.2797C6.81936 58.2797 6.76406 58.2589 6.72243 58.2166L6.22285 57.717C6.13893 57.6331 6.13893 57.4972 6.22285 57.4132C6.30676 57.3293 6.44272 57.3293 6.52663 57.4132L7.02622 57.9128C7.11013 57.9967 7.11013 58.1327 7.02622 58.2166C6.98458 58.2583 6.92929 58.2797 6.87465 58.2797H6.874Z" fill="#F8931F"/>
<path d="M4.98618 56.3926C4.93154 56.3926 4.87625 56.3718 4.83462 56.3295L4.33503 55.8299C4.25112 55.746 4.25112 55.61 4.33503 55.5261C4.41895 55.4422 4.5549 55.4422 4.63881 55.5261L5.1384 56.0257C5.22231 56.1096 5.22231 56.2456 5.1384 56.3295C5.09677 56.3711 5.04147 56.3926 4.98683 56.3926H4.98618Z" fill="#F8931F"/>
<path d="M28.7061 5.69618C28.6469 5.69618 28.5877 5.67146 28.5454 5.62397C28.4667 5.53485 28.4752 5.39955 28.5637 5.32084L29.0925 4.85248C29.1816 4.77377 29.3176 4.78222 29.3956 4.87069C29.4744 4.95981 29.4659 5.09511 29.3774 5.17382L28.8486 5.64218C28.8076 5.67861 28.7569 5.69618 28.7061 5.69618Z" fill="#F8931F"/>
<path d="M30.7045 3.92808C30.6453 3.92808 30.5861 3.90336 30.5439 3.85587C30.4651 3.76675 30.4736 3.63145 30.5621 3.55274L31.0909 3.08438C31.18 3.00567 31.316 3.01412 31.3941 3.10259C31.4728 3.19171 31.4643 3.32702 31.3758 3.40573L30.847 3.87409C30.806 3.91051 30.7553 3.92808 30.7045 3.92808Z" fill="#F8931F"/>
<path d="M31.0883 5.84121C31.0291 5.84121 30.9699 5.81649 30.9276 5.769L30.4593 5.24014C30.3805 5.15102 30.389 5.01572 30.4775 4.93701C30.5666 4.8583 30.7019 4.86676 30.7806 4.95522L31.249 5.48408C31.3277 5.5732 31.3192 5.7085 31.2307 5.78721C31.1898 5.82364 31.139 5.84121 31.0883 5.84121Z" fill="#F8931F"/>
<path d="M29.3196 3.84352C29.2604 3.84352 29.2012 3.81881 29.1589 3.77132L28.6906 3.24246C28.6119 3.15399 28.6203 3.01804 28.7088 2.93933C28.7979 2.86062 28.9339 2.86907 29.0119 2.95754L29.4803 3.4864C29.559 3.57552 29.5505 3.71082 29.4621 3.78953C29.4211 3.82596 29.3704 3.84352 29.3196 3.84352Z" fill="#F8931F"/>
<path d="M23.623 12.1962C23.6003 12.1962 23.5781 12.1955 23.5554 12.1942C23.2613 12.176 22.992 12.0453 22.7975 11.8248C22.6024 11.6044 22.5048 11.3215 22.523 11.0276C22.5412 10.7337 22.672 10.4651 22.8925 10.27C23.113 10.0749 23.3941 9.97803 23.69 9.99559C24.2963 10.0327 24.7595 10.5555 24.7224 11.1622C24.6866 11.7455 24.2 12.1968 23.623 12.1968V12.1962ZM23.6217 10.4228C23.4578 10.4228 23.301 10.482 23.1774 10.5913C23.0428 10.7103 22.9628 10.8748 22.9517 11.0536C22.9289 11.4236 23.2119 11.7429 23.582 11.7657C23.9509 11.7884 24.2716 11.5056 24.2943 11.1355C24.3171 10.7655 24.0341 10.4462 23.6647 10.4241C23.6503 10.4235 23.6367 10.4228 23.6224 10.4228H23.6217Z" fill="#F8931F"/>
<path d="M74.3504 113.092C74.2912 113.092 74.232 113.067 74.1897 113.02C74.111 112.93 74.1195 112.795 74.2079 112.716L74.7368 112.248C74.8259 112.169 74.9619 112.178 75.0399 112.266C75.1186 112.355 75.1102 112.491 75.0217 112.569L74.4929 113.038C74.4519 113.074 74.4011 113.092 74.3504 113.092Z" fill="#F8931F"/>
<path d="M76.3494 111.323C76.2902 111.323 76.231 111.298 76.1887 111.251C76.11 111.162 76.1185 111.026 76.207 110.948L76.7358 110.479C76.8249 110.401 76.9602 110.409 77.0389 110.498C77.1177 110.587 77.1092 110.722 77.0207 110.801L76.4919 111.269C76.4509 111.305 76.4002 111.323 76.3494 111.323Z" fill="#F8931F"/>
<path d="M76.7332 113.237C76.674 113.237 76.6148 113.212 76.5725 113.165L76.1042 112.636C76.0254 112.547 76.0339 112.411 76.1224 112.333C76.2108 112.254 76.3474 112.262 76.4255 112.351L76.8939 112.88C76.9726 112.969 76.9641 113.104 76.8756 113.183C76.8347 113.219 76.7839 113.237 76.7332 113.237Z" fill="#F8931F"/>
<path d="M74.9645 111.238C74.9053 111.238 74.8461 111.214 74.8038 111.166L74.3355 110.637C74.2568 110.548 74.2652 110.413 74.3537 110.334C74.4422 110.256 74.5781 110.264 74.6568 110.352L75.1252 110.881C75.2039 110.97 75.1954 111.106 75.107 111.184C75.066 111.221 75.0152 111.238 74.9645 111.238Z" fill="#F8931F"/>
<path d="M22.1445 46.2081C21.6436 46.2081 21.1382 46.1918 20.6425 46.1606C20.5241 46.1528 20.4343 46.0507 20.4421 45.9324C20.4499 45.814 20.5443 45.7223 20.6705 45.7321C21.2312 45.7679 21.8043 45.7828 22.3722 45.7776H22.3741C22.4919 45.7776 22.5875 45.8726 22.5888 45.9903C22.5901 46.1086 22.4945 46.2055 22.3761 46.2068C22.2993 46.2075 22.2219 46.2081 22.1452 46.2081H22.1445ZM24.0889 46.1301C23.9783 46.1301 23.8839 46.0449 23.8748 45.9324C23.8657 45.814 23.9535 45.7106 24.0719 45.7015C24.6301 45.6573 25.1993 45.5929 25.7645 45.5097C25.8829 45.4928 25.9909 45.5734 26.0085 45.6911C26.0254 45.8082 25.9447 45.9174 25.827 45.935C25.2526 46.0189 24.6736 46.0845 24.1064 46.1301C24.1006 46.1301 24.0947 46.1307 24.0889 46.1307V46.1301ZM18.9479 45.9877C18.9382 45.9877 18.9278 45.987 18.918 45.9857C18.3462 45.9057 17.7718 45.8023 17.2105 45.6794C17.0947 45.6541 17.0212 45.5396 17.0465 45.4239C17.0719 45.3081 17.1864 45.234 17.3022 45.26C17.8525 45.3809 18.4158 45.4817 18.9766 45.5604C19.0943 45.5767 19.1763 45.6853 19.1594 45.803C19.1444 45.9103 19.0527 45.9877 18.9466 45.9877H18.9479ZM27.4864 45.6345C27.3869 45.6345 27.2978 45.565 27.2763 45.4642C27.2516 45.3478 27.3264 45.234 27.4422 45.2099C27.9899 45.0948 28.5474 44.9602 29.1003 44.81C29.2154 44.7788 29.3325 44.8464 29.3638 44.9608C29.395 45.0753 29.3273 45.193 29.2128 45.2242C28.6521 45.3764 28.0862 45.5129 27.5306 45.63C27.5157 45.6332 27.5007 45.6345 27.4858 45.6345H27.4864ZM15.594 45.2509C15.5731 45.2509 15.5523 45.2476 15.5315 45.2418C14.9825 45.0759 14.4309 44.8867 13.8916 44.6773C13.781 44.6344 13.7257 44.5102 13.7687 44.3996C13.8116 44.2891 13.9365 44.2338 14.0464 44.2767C14.5759 44.4816 15.1171 44.6676 15.6558 44.8301C15.7696 44.8646 15.8333 44.9843 15.7995 45.0974C15.7715 45.1904 15.6863 45.2502 15.594 45.2502V45.2509ZM30.8027 44.7365C30.7122 44.7365 30.6283 44.6793 30.5984 44.5889C30.5613 44.4764 30.6225 44.3548 30.735 44.3177C31.2658 44.1428 31.807 43.949 32.3431 43.7416C32.4536 43.6986 32.5779 43.7539 32.6208 43.8645C32.6637 43.975 32.6085 44.0992 32.4979 44.1421C31.9547 44.3515 31.407 44.5479 30.8697 44.7254C30.8476 44.7326 30.8248 44.7365 30.802 44.7365H30.8027ZM12.3961 44.0036C12.3616 44.0036 12.3271 43.9958 12.2946 43.9783C11.7879 43.7064 11.302 43.3657 10.8512 42.9651C10.7627 42.8864 10.7542 42.7505 10.8336 42.6621C10.9123 42.5736 11.0483 42.5658 11.1367 42.6445C11.5622 43.023 12.0201 43.3442 12.4976 43.6004C12.6023 43.6564 12.6413 43.7864 12.5854 43.8911C12.5464 43.9633 12.4729 44.0043 12.3961 44.0043V44.0036ZM34.0096 43.5003C33.927 43.5003 33.8483 43.4522 33.8132 43.3722C33.765 43.2636 33.8145 43.1368 33.9231 43.0893C34.4364 42.8637 34.9581 42.6205 35.4733 42.3668C35.5799 42.3148 35.7087 42.3584 35.7608 42.4644C35.8135 42.571 35.7692 42.6998 35.6632 42.7518C35.1428 43.008 34.6153 43.2538 34.0968 43.4821C34.0688 43.4944 34.0396 43.5003 34.0103 43.5003H34.0096ZM37.095 41.9832C37.0189 41.9832 36.9453 41.9429 36.9063 41.8707C36.8497 41.7666 36.8881 41.6359 36.9928 41.5794C37.4866 41.3108 37.9874 41.0266 38.4818 40.7346C38.584 40.6748 38.7154 40.708 38.7765 40.8101C38.837 40.9122 38.8032 41.0435 38.701 41.104C38.2028 41.3992 37.6973 41.686 37.1984 41.9565C37.1659 41.9741 37.1307 41.9825 37.0963 41.9825L37.095 41.9832ZM9.83508 41.7549C9.77003 41.7549 9.70563 41.7257 9.66335 41.6691C9.32183 41.2165 9.00894 40.7177 8.73118 40.1864C8.67654 40.0811 8.71752 39.9517 8.82225 39.8971C8.92763 39.8424 9.05708 39.8828 9.11172 39.9881C9.37778 40.4986 9.67896 40.9772 10.0055 41.4109C10.0771 41.5059 10.0582 41.6405 9.96323 41.7114C9.92485 41.7406 9.87931 41.7543 9.83443 41.7543L9.83508 41.7549ZM40.0554 40.232C39.9845 40.232 39.9155 40.1968 39.8745 40.1331C39.8108 40.033 39.8394 39.9003 39.9396 39.8366C40.4145 39.5322 40.8945 39.213 41.3668 38.8885C41.4644 38.8215 41.5984 38.8455 41.6654 38.9437C41.7324 39.0413 41.7083 39.1752 41.6101 39.2422C41.1339 39.57 40.6499 39.8912 40.1712 40.1981C40.1354 40.2209 40.0951 40.232 40.0554 40.232ZM8.2407 38.7265C8.15223 38.7265 8.06897 38.6713 8.03839 38.5835C7.84845 38.0444 7.68908 37.4799 7.56483 36.9051C7.54011 36.7893 7.61362 36.6749 7.72941 36.6495C7.84454 36.6255 7.95968 36.6983 7.98505 36.814C8.1054 37.3713 8.25956 37.9189 8.44366 38.4404C8.48334 38.5523 8.42414 38.6745 8.31225 38.7142C8.28884 38.7226 8.26477 38.7265 8.2407 38.7265ZM42.8896 38.2824C42.8239 38.2824 42.7589 38.2525 42.7166 38.1953C42.6463 38.0997 42.6665 37.9651 42.7621 37.8948C43.2181 37.5593 43.6774 37.2101 44.1269 36.8576C44.2199 36.7848 44.3552 36.801 44.4287 36.894C44.5016 36.987 44.4853 37.1223 44.3923 37.1958C43.9395 37.5508 43.4764 37.9026 43.0171 38.2408C42.9787 38.2687 42.9339 38.2824 42.8896 38.2824ZM45.5977 36.1592C45.5359 36.1592 45.4747 36.1332 45.4324 36.0818C45.3563 35.9908 45.3687 35.8555 45.4598 35.7794C45.8988 35.4133 46.336 35.0375 46.7601 34.6616C46.8486 34.5829 46.9845 34.5907 47.0632 34.6798C47.1419 34.7682 47.1341 34.9042 47.045 34.9828C46.6176 35.3613 46.1772 35.7404 45.7349 36.1091C45.6946 36.143 45.6458 36.1592 45.5977 36.1592ZM7.51344 35.3776C7.40416 35.3776 7.31048 35.2943 7.30008 35.1831C7.25649 34.7175 7.23438 34.2441 7.23438 33.7766C7.23438 33.6654 7.23568 33.5535 7.23828 33.4417C7.24088 33.3246 7.3365 33.2316 7.45294 33.2316H7.45815C7.57654 33.2342 7.67086 33.3324 7.66826 33.4514C7.66566 33.56 7.66436 33.668 7.66436 33.7766C7.66436 34.2311 7.68582 34.6902 7.72811 35.1428C7.73916 35.2612 7.65265 35.3659 7.53426 35.3769C7.5271 35.3776 7.5206 35.3782 7.51409 35.3782L7.51344 35.3776ZM48.1717 33.8741C48.1151 33.8741 48.0578 33.8513 48.0162 33.8071C47.9343 33.7213 47.9382 33.5854 48.024 33.5034C48.5893 32.9676 48.9998 32.5527 49.2444 32.2991C49.327 32.2133 49.4629 32.2113 49.5481 32.2933C49.6334 32.3758 49.636 32.5117 49.554 32.5969C49.3062 32.8538 48.8911 33.2732 48.32 33.8149C48.2784 33.8546 48.225 33.8741 48.1723 33.8741H48.1717ZM7.5915 31.9499C7.58174 31.9499 7.57133 31.9492 7.56093 31.9479C7.44319 31.931 7.36187 31.8224 7.37814 31.7054C7.4601 31.1253 7.57784 30.5511 7.72745 29.9977C7.75868 29.8833 7.87707 29.8157 7.99091 29.8462C8.1054 29.8774 8.17305 29.9951 8.14247 30.1096C7.99741 30.6461 7.88357 31.2034 7.80421 31.7652C7.78925 31.8725 7.69688 31.9499 7.5915 31.9499ZM8.49049 28.6438C8.46317 28.6438 8.43455 28.6386 8.40788 28.6269C8.29859 28.5814 8.2472 28.4553 8.29274 28.346C8.51976 27.8037 8.78452 27.2789 9.0792 26.786C9.14034 26.6845 9.27239 26.6514 9.37387 26.7118C9.476 26.773 9.50918 26.9043 9.44803 27.0064C9.16376 27.4818 8.90811 27.9883 8.68955 28.5118C8.65507 28.5944 8.57506 28.6438 8.49114 28.6438H8.49049ZM10.2527 25.7097C10.2046 25.7097 10.1558 25.6935 10.1161 25.6603C10.0244 25.5849 10.012 25.4496 10.0875 25.3579C10.4596 24.9079 10.87 24.4853 11.3059 24.1022C11.395 24.0235 11.5309 24.0327 11.609 24.1217C11.6877 24.2108 11.6786 24.3461 11.5895 24.4248C11.1706 24.7935 10.7764 25.1993 10.4186 25.6317C10.3763 25.6831 10.3145 25.7097 10.2527 25.7097ZM12.8215 23.4513C12.7506 23.4513 12.681 23.4162 12.64 23.3511C12.5763 23.251 12.6062 23.1183 12.707 23.0546C13.193 22.7477 13.7121 22.4726 14.2513 22.2359C14.36 22.1884 14.4868 22.2379 14.5343 22.3465C14.5818 22.4551 14.5323 22.5819 14.4237 22.6293C13.904 22.8569 13.4037 23.1222 12.936 23.4175C12.9002 23.4402 12.8606 23.4506 12.8215 23.4506V23.4513Z" fill="#F8931F"/>
<path d="M36.7034 66.2818C36.6813 66.2818 36.6585 66.2786 36.6364 66.2708C36.5239 66.2337 36.4627 66.1121 36.4998 65.9996C36.5017 65.9938 36.6988 65.3948 36.9948 64.3576C37.0273 64.2438 37.1464 64.1782 37.2602 64.21C37.3741 64.2425 37.4404 64.3615 37.4079 64.4753C37.1093 65.5217 36.9096 66.1277 36.9076 66.1336C36.8777 66.224 36.7938 66.2812 36.7034 66.2812V66.2818ZM37.6544 62.9725C37.6362 62.9725 37.618 62.9706 37.5998 62.9654C37.4853 62.9355 37.4163 62.8178 37.4463 62.7033C37.59 62.1551 37.7305 61.5959 37.8645 61.0399C37.8925 60.9248 38.0083 60.8539 38.1234 60.8812C38.2386 60.9092 38.3095 61.0249 38.2822 61.14C38.1475 61.6986 38.0063 62.2611 37.8619 62.8119C37.8366 62.9081 37.7494 62.9725 37.6544 62.9725ZM38.4597 59.6294C38.4448 59.6294 38.4292 59.6281 38.4136 59.6242C38.2978 59.5988 38.2243 59.4837 38.2503 59.368C38.3726 58.8133 38.4916 58.2488 38.6035 57.6896C38.6269 57.5732 38.7401 57.4984 38.8565 57.5212C38.973 57.5446 39.0484 57.6577 39.025 57.7741C38.9125 58.3353 38.7928 58.903 38.6699 59.4603C38.6477 59.5605 38.5586 59.6287 38.4604 59.6287L38.4597 59.6294ZM39.1356 56.2583C39.1233 56.2583 39.1102 56.257 39.0972 56.2551C38.9801 56.2342 38.9027 56.1224 38.9235 56.006C39.025 55.4402 39.122 54.8719 39.2098 54.3153C39.2286 54.1982 39.3379 54.1189 39.4557 54.1371C39.5727 54.1559 39.6528 54.2658 39.6339 54.3829C39.5454 54.9421 39.4485 55.5137 39.3464 56.0821C39.3275 56.1861 39.2371 56.259 39.135 56.259L39.1356 56.2583ZM39.6736 52.8632C39.6638 52.8632 39.6541 52.8632 39.6443 52.8612C39.5266 52.8449 39.4446 52.737 39.4602 52.6193C39.5376 52.0509 39.6092 51.4787 39.6723 50.9188C39.6853 50.8011 39.7913 50.7153 39.9097 50.7296C40.0274 50.7426 40.112 50.8492 40.099 50.9669C40.0353 51.5301 39.9637 52.1056 39.8856 52.6772C39.8707 52.7851 39.779 52.8632 39.6729 52.8632H39.6736ZM40.058 49.4472C40.0515 49.4472 40.045 49.4472 40.0392 49.4465C39.9208 49.4361 39.8336 49.3321 39.844 49.2137C39.8947 48.6376 39.9377 48.0627 39.9709 47.5054C39.978 47.3871 40.0769 47.2967 40.1985 47.3039C40.3169 47.311 40.4073 47.4125 40.4002 47.5315C40.3664 48.0927 40.3234 48.6714 40.272 49.2515C40.2623 49.3633 40.1686 49.4472 40.0587 49.4472H40.058ZM40.2649 46.0176C40.2649 46.0176 40.2603 46.0176 40.2577 46.0176C40.1393 46.0137 40.0463 45.9148 40.0496 45.7965C40.0678 45.2281 40.0762 44.6604 40.0762 44.1096V44.0856C40.0762 43.9672 40.1725 43.871 40.2909 43.871C40.4093 43.871 40.5056 43.9672 40.5056 44.0856V44.1096C40.5056 44.665 40.4965 45.2372 40.4782 45.8101C40.4743 45.9265 40.3794 46.0182 40.2636 46.0182L40.2649 46.0176ZM40.261 42.5815C40.1458 42.5815 40.0509 42.4904 40.0463 42.3747C40.0255 41.7985 39.9943 41.2243 39.9526 40.667C39.9435 40.5487 40.0327 40.4459 40.151 40.4368C40.2675 40.4284 40.3722 40.5168 40.3813 40.6352C40.4236 41.1977 40.4555 41.7777 40.4763 42.3591C40.4802 42.4774 40.3878 42.5769 40.2694 42.5815C40.2668 42.5815 40.2642 42.5815 40.2616 42.5815H40.261ZM40.0008 39.1551C39.8934 39.1551 39.8011 39.0751 39.7881 38.9659C39.7198 38.393 39.6378 37.8246 39.5448 37.2758C39.5246 37.1587 39.604 37.0482 39.7204 37.0287C39.8356 37.0079 39.9481 37.0878 39.9676 37.2042C40.0619 37.7596 40.1445 38.3357 40.2135 38.9151C40.2278 39.0328 40.1432 39.1395 40.0255 39.1538C40.017 39.1551 40.0086 39.1551 39.9995 39.1551H40.0008ZM39.4231 35.7697C39.3249 35.7697 39.2364 35.7021 39.2137 35.6026C39.0855 35.0394 38.9411 34.4841 38.785 33.9535C38.7518 33.8397 38.8169 33.72 38.9307 33.6868C39.0445 33.6543 39.1642 33.7187 39.1974 33.8325C39.3561 34.3722 39.5025 34.936 39.6326 35.5083C39.6586 35.624 39.5864 35.7391 39.4706 35.7652C39.4544 35.7691 39.4387 35.7704 39.4231 35.7704V35.7697ZM38.4493 32.4773C38.3622 32.4773 38.2802 32.424 38.2483 32.3375C38.0467 31.7977 37.8255 31.2704 37.5913 30.7696C37.5412 30.6623 37.5874 30.5342 37.6948 30.4842C37.8021 30.4334 37.9302 30.4803 37.9803 30.5876C38.2197 31.0987 38.4454 31.6371 38.651 32.1873C38.6926 32.2985 38.636 32.422 38.5248 32.4636C38.5001 32.4727 38.4747 32.4773 38.45 32.4773H38.4493ZM36.9896 29.3728C36.9155 29.3728 36.8439 29.3345 36.8042 29.2662C36.516 28.772 36.2051 28.2947 35.8792 27.846C35.8096 27.7497 35.8311 27.6158 35.9267 27.5462C36.0223 27.4766 36.157 27.4981 36.2266 27.5936C36.5603 28.0534 36.879 28.5437 37.175 29.0496C37.2348 29.1524 37.2004 29.2837 37.0976 29.3436C37.0638 29.3637 37.026 29.3728 36.9896 29.3728ZM34.9731 26.6013C34.9145 26.6013 34.856 26.5772 34.8137 26.5304C34.4344 26.1116 34.0298 25.7111 33.6109 25.3417C33.5218 25.263 33.5133 25.1278 33.592 25.0387C33.6708 24.9496 33.8061 24.9411 33.8952 25.0198C34.3265 25.4002 34.7428 25.8119 35.1324 26.243C35.2118 26.3308 35.2053 26.4667 35.1175 26.546C35.0765 26.5831 35.0251 26.6013 34.9737 26.6013H34.9731ZM32.4042 24.3351C32.3619 24.3351 32.319 24.3227 32.2813 24.2967C31.8233 23.9767 31.3387 23.6783 30.8424 23.4084C30.7383 23.3518 30.6999 23.2211 30.7565 23.1171C30.8131 23.013 30.9439 22.9747 31.0479 23.0312C31.5586 23.3089 32.0562 23.6158 32.5278 23.9449C32.6254 24.0125 32.6488 24.1465 32.5812 24.244C32.5395 24.3038 32.4725 24.3357 32.4049 24.3357L32.4042 24.3351ZM29.3963 22.695C29.369 22.695 29.341 22.6898 29.3144 22.6788C28.8024 22.4661 28.2657 22.2736 27.7193 22.1059C27.6061 22.0714 27.5424 21.9511 27.5769 21.8379C27.6113 21.7241 27.7317 21.6611 27.8449 21.6955C28.405 21.8672 28.9546 22.0649 29.4789 22.2821C29.5889 22.3276 29.6403 22.4531 29.5947 22.563C29.5602 22.6456 29.4809 22.6957 29.3963 22.6957V22.695Z" fill="#F8931F"/>
<path d="M98.2752 110.81C98.2752 110.81 91.3799 97.3311 94.7306 84.2259C94.8425 83.7876 96.5474 84.2753 96.6828 83.8383C96.8558 83.2797 95.4683 81.7977 95.6823 81.2437C96.4785 79.1836 97.5661 77.1599 99.0135 75.2272C99.0135 75.2272 101.745 79.2037 103.162 85.4114C103.269 85.8796 101.527 87.1828 101.617 87.6757C101.702 88.1413 103.621 87.7947 103.688 88.2811C104.558 94.5694 103.809 102.534 98.2745 110.81H98.2752Z" fill="#C2E1DE"/>
<path d="M92.2737 94.8984C91.9868 94.5063 90.3528 95.922 90.0613 95.5493C89.7738 95.1819 90.5492 92.5262 90.2591 92.1782C84.562 85.3535 78.4974 82.2243 78.4974 82.2243C77.9601 85.7703 78.0206 89.1655 78.5175 92.3798C78.5969 92.8929 80.9192 93.75 81.02 94.254C81.1306 94.8067 79.2351 95.4973 79.3704 96.039C81.3661 104.036 85.7231 110.292 90.0412 115.182C93.4108 113.995 96.4668 112.506 99.2236 110.759C97.8979 104.087 95.3811 99.1441 92.275 94.8991L92.2737 94.8984Z" fill="#26AA9D"/>
<path d="M93.9766 110.691C93.9076 110.691 93.84 110.658 93.7984 110.596C92.2716 108.329 90.7839 105.99 89.3763 103.645C89.3151 103.543 89.3483 103.411 89.4498 103.35C89.5512 103.289 89.6833 103.322 89.7444 103.424C91.1489 105.763 92.6327 108.095 94.1548 110.356C94.2212 110.455 94.1952 110.589 94.0969 110.654C94.0599 110.679 94.0182 110.691 93.9773 110.691L93.9766 110.691Z" fill="#D8D8D8"/>
<path d="M87.5946 100.38C87.5198 100.38 87.4469 100.341 87.4079 100.271C85.1324 96.2595 83.0079 92.0976 81.0922 87.902L80.2166 85.9836C80.1671 85.8757 80.2146 85.7482 80.3226 85.6995C80.4306 85.65 80.5581 85.6975 80.6069 85.8055L81.4825 87.7238C83.393 91.9084 85.5123 96.0592 87.7813 100.06C87.8398 100.163 87.8034 100.294 87.7006 100.352C87.6668 100.371 87.631 100.38 87.5946 100.38V100.38Z" fill="#D8D8D8"/>
<path d="M97.8848 111.563C97.8848 111.563 95.156 97.1581 109.263 92.1581C109.263 92.1581 110.445 104.733 97.8848 111.563Z" fill="#26AA9D"/>
<path d="M100.417 107.813C100.394 107.813 100.37 107.809 100.346 107.801C100.234 107.762 100.175 107.639 100.215 107.528C101.833 102.907 106.867 95.7522 106.918 95.6807C106.986 95.5838 107.121 95.561 107.217 95.6293C107.314 95.6976 107.337 95.8316 107.268 95.9284C107.218 96 102.218 103.106 100.62 107.67C100.589 107.758 100.506 107.814 100.417 107.814V107.813Z" fill="#D8D8D8"/>
</svg>
