<svg width="160" height="160" viewBox="0 0 160 160" fill="none" xmlns="http://www.w3.org/2000/svg">
<path d="M156.248 106.649L64.8288 93.9396C62.5338 93.6467 60.8134 91.6943 60.8134 89.3808L59.5592 25.6365C59.5592 25.6365 61.6434 24.1344 62.8242 23.5591C63.425 23.2662 64.1169 23.1377 64.8376 23.2295L155.985 34.8494C158.28 35.1423 160 37.0947 160 39.4082V102.018C160 103.138 159.488 104.126 158.696 104.777C157.967 105.377 156.248 106.65 156.248 106.65V106.649Z" fill="#C2E1DE"/>
<path d="M153.458 107.495L62.3107 95.8754C60.0157 95.5825 58.2953 93.6301 58.2953 91.3166V28.708C58.2953 26.5563 60.1845 24.8933 62.3195 25.1661L153.467 36.786C155.762 37.0789 157.482 39.0313 157.482 41.3448V103.954C157.482 106.106 155.593 107.769 153.458 107.496V107.495Z" fill="white"/>
<path d="M151.521 104.915L64.4885 93.8198C62.8198 93.6074 61.5682 92.1874 61.5682 90.5052V30.1122C61.5682 28.6757 62.8303 27.5644 64.2559 27.7463L151.288 38.8416C152.957 39.0541 154.208 40.474 154.208 42.1562V102.548C154.208 103.985 152.946 105.096 151.521 104.914V104.915Z" fill="#D8D8D8"/>
<path d="M153.909 107.813C153.746 107.813 153.584 107.802 153.421 107.782L62.2741 96.1622C59.8409 95.8518 58.0068 93.7691 58.0068 91.3175V28.7081C58.0068 27.5994 58.4843 26.5441 59.3161 25.8114C60.1479 25.0787 61.256 24.7395 62.3563 24.8794L153.503 36.4993C155.937 36.8097 157.771 38.8923 157.771 41.344V103.953C157.771 105.062 157.293 106.117 156.461 106.85C155.753 107.474 154.843 107.813 153.909 107.813ZM153.494 107.209C154.43 107.327 155.372 107.039 156.079 106.416C156.787 105.794 157.193 104.896 157.193 103.953V41.344C157.193 39.1817 155.574 37.3456 153.43 37.072L62.2828 25.452C61.3478 25.3331 60.405 25.6217 59.6974 26.2451C58.9899 26.8676 58.584 27.7655 58.584 28.7081V91.3175C58.584 93.4797 60.2021 95.3158 62.3475 95.5895L153.495 107.209L153.494 107.209Z" fill="#26AA9D"/>
<path d="M100.283 144.368L6.54131 132.283C5.8075 132.189 5.3938 131.575 5.40342 130.961C5.40955 130.538 5.44453 127.554 5.44453 127.554L55.0103 99.2278C57.4933 97.8096 60.7067 97.2622 63.5431 97.6251L156.1 109.561C156.657 109.632 157.135 109.993 157.356 110.51L157.505 110.858C157.505 110.858 157.425 113.346 157.458 113.927C157.483 114.382 157.278 114.85 156.802 115.122L108.48 142.742C105.997 144.16 103.119 144.73 100.283 144.367V144.368Z" fill="#C2E1DE"/>
<path d="M18.0706 130.432L6.87626 128.987C5.63604 128.827 5.31068 127.184 6.39609 126.564L54.4584 99.1227C56.9414 97.7046 59.8198 97.1345 62.6562 97.4973L156.062 109.56C157.303 109.719 157.628 111.363 156.543 111.982L108.48 139.424C105.997 140.842 103.119 141.412 100.282 141.049L18.0706 130.432Z" fill="white"/>
<path d="M118.57 125.816L37.5747 115.28C36.4552 115.137 36.1605 113.652 37.1409 113.093L56.185 102.329C58.4284 101.048 61.0269 100.533 63.5895 100.861L144.585 111.397C145.704 111.54 145.999 113.025 145.019 113.584L125.975 124.348C123.731 125.629 121.133 126.144 118.57 125.816Z" fill="#D8D8D8"/>
<path d="M101.933 141.442C101.37 141.442 100.807 141.406 100.246 141.335L54.5041 135.47C54.3457 135.45 54.2338 135.304 54.2548 135.146C54.2749 134.988 54.421 134.878 54.5775 134.896L100.319 140.761C103.076 141.114 105.923 140.55 108.337 139.172L156.399 111.731C156.866 111.464 156.96 111 156.891 110.653C156.823 110.307 156.559 109.914 156.025 109.846L62.6188 97.7832C59.8629 97.43 57.0142 97.9948 54.6011 99.3727L47.8674 103.218C47.7292 103.297 47.5526 103.249 47.473 103.111C47.3934 102.972 47.4424 102.796 47.5805 102.716L54.3143 98.8709C56.8367 97.4308 59.813 96.8415 62.6923 97.2096L156.099 109.272C156.789 109.36 157.322 109.859 157.457 110.541C157.592 111.223 157.289 111.886 156.685 112.232L108.623 139.673C106.591 140.833 104.266 141.441 101.932 141.441L101.933 141.442Z" fill="#C2E1DE"/>
<path d="M144.276 101.949L72.2938 92.8477C71.0544 92.6912 70.0504 91.5038 70.0504 90.1958V2.38976C70.0504 1.08176 71.0544 0.148839 72.2938 0.305345L144.276 9.40631C145.515 9.56281 146.52 10.7502 146.52 12.0582V99.8651C146.52 101.173 145.515 102.106 144.276 101.95V101.949Z" fill="#C2E1DE"/>
<path d="M144.547 102.254C144.446 102.254 144.343 102.247 144.24 102.235L72.2579 93.1343C70.8812 92.9603 69.7617 91.6427 69.7617 90.1965V2.3896C69.7617 1.65253 70.0433 0.998528 70.5541 0.548245C71.036 0.123318 71.6675 -0.0637901 72.3305 0.0192718L144.313 9.12111C145.689 9.2951 146.809 10.6127 146.809 12.0589V99.8658C146.809 100.603 146.527 101.257 146.017 101.707C145.61 102.066 145.096 102.255 144.547 102.255V102.254ZM144.313 101.662C144.81 101.725 145.278 101.586 145.634 101.273C146.019 100.933 146.231 100.433 146.231 99.8641V12.058C146.231 10.8925 145.338 9.83194 144.24 9.69292L72.257 0.591962C71.7602 0.528135 71.2914 0.667155 70.9355 0.981041C70.5506 1.32028 70.339 1.8204 70.339 2.3896V90.1965C70.339 91.362 71.232 92.4226 72.3296 92.5616L144.312 101.663L144.313 101.662Z" fill="black"/>
<path d="M133.057 53.3713L83.698 47.1303C83.182 47.0647 82.7631 46.5707 82.7631 46.026V41.2906C82.7631 40.7459 83.1811 40.3568 83.698 40.4224L133.057 46.6634C133.573 46.729 133.992 47.223 133.992 47.7677V52.5031C133.992 53.0478 133.573 53.4369 133.057 53.3713Z" fill="white"/>
<path d="M133.431 66.8352L83.6989 60.547C83.2852 60.4945 82.9502 60.0985 82.9502 59.6622V54.5333C82.9502 54.097 83.2852 53.7858 83.6989 53.8382L133.431 60.1265C133.845 60.1789 134.179 60.575 134.179 61.0113V66.1401C134.179 66.5764 133.845 66.8877 133.431 66.8352Z" fill="white"/>
<path d="M125.673 79.8645L91.0835 75.491C90.5158 75.4193 90.0558 74.8755 90.0558 74.2766V69.737C90.0558 69.1381 90.5158 68.7106 91.0835 68.7823L125.673 73.1557C126.241 73.2274 126.701 73.7712 126.701 74.3701V78.9097C126.701 79.5086 126.241 79.9362 125.673 79.8645Z" fill="#D8D8D8"/>
<path d="M116.154 34.9165C120.501 31.2227 120.644 24.2517 116.475 19.3462C112.306 14.4407 105.403 13.4585 101.057 17.1522C96.7108 20.846 96.567 27.8171 100.736 32.7226C104.905 37.6281 111.808 38.6103 116.154 34.9165Z" fill="#26AA9D"/>
<path d="M111.059 27.5994C112.576 26.3104 112.626 23.8775 111.17 22.1654C109.715 20.4534 107.305 20.1104 105.788 21.3994C104.27 22.6883 104.22 25.1212 105.676 26.8333C107.131 28.5454 109.541 28.8883 111.059 27.5994Z" fill="white"/>
<path d="M100.624 32.5857C101.926 31.2925 103.507 30.0256 105.192 29.2684C105.599 29.0857 106.081 29.0918 106.527 29.2877C108.242 30.0405 109.576 29.9548 111.057 29.5788C111.417 29.4879 111.815 29.5526 112.159 29.7668C114.012 30.9218 115.614 32.4038 116.833 34.2819C112.02 39.1187 104.31 37.4024 100.625 32.5857H100.624Z" fill="white"/>
<path d="M108.608 37.5424C102.339 36.7826 97.2382 31.0015 97.2382 24.6564C97.2382 18.3113 102.339 13.7674 108.608 14.5281C114.878 15.2879 119.978 21.069 119.978 27.4141C119.978 33.7591 114.878 38.303 108.608 37.5424ZM108.608 15.4663C102.85 14.7677 98.1644 18.9417 98.1644 24.7692C98.1644 30.5966 102.85 35.9065 108.608 36.6051C114.367 37.3037 119.052 33.1296 119.052 27.3021C119.052 21.4747 114.367 16.1649 108.608 15.4663Z" fill="#D8D8D8"/>
<path d="M17.091 79.9878C14.4234 80.9775 12.159 83.0602 10.6179 85.803C6.68559 92.8003 -3.57636 113.309 1.2778 129.145C7.22349 148.543 57.4889 148.023 70.589 139.768C73.917 137.67 87.5349 123.521 70.0564 111.76C54.0359 100.98 47.4142 108.893 40.0271 104.646C32.64 100.398 27.304 83.3531 24.5786 80.9312C22.818 79.367 20.0804 78.8782 17.091 79.9878Z" fill="#26AA9D"/>
<path d="M32.5534 126.665C32.48 126.665 32.4056 126.637 32.3496 126.58C25.7077 119.945 10.261 119.159 10.1062 119.152C9.94704 119.145 9.82372 119.009 9.83159 118.85C9.83859 118.691 9.97766 118.571 10.1333 118.575C10.7762 118.605 25.9596 119.379 32.759 126.171C32.8718 126.284 32.8718 126.467 32.759 126.579C32.703 126.635 32.6286 126.664 32.5543 126.664L32.5534 126.665Z" fill="#C2E1DE"/>
<path d="M48.1138 127.03C48.0745 127.03 48.0351 127.022 47.9966 127.004C42.8171 124.701 39.1612 126.766 39.1245 126.788C38.9871 126.869 38.8105 126.822 38.73 126.684C38.6495 126.547 38.6959 126.37 38.8332 126.29C38.9915 126.197 42.7673 124.046 48.231 126.477C48.3771 126.542 48.4427 126.712 48.3771 126.858C48.329 126.966 48.224 127.03 48.113 127.03H48.1138Z" fill="#C2E1DE"/>
<path d="M71.7026 139.305C71.7489 139.457 77.2984 145.726 77.2984 145.726L73.5988 147.181L69.1303 141.744L71.7026 139.305Z" fill="white"/>
<path d="M73.5987 147.471C73.5138 147.471 73.4316 147.433 73.3757 147.365L68.9072 141.927C68.811 141.81 68.8215 141.639 68.9317 141.535L71.504 139.095C71.5766 139.026 71.6798 139.001 71.7768 139.026C71.8547 139.047 71.9194 139.098 71.957 139.167C72.1809 139.485 75.3934 143.138 77.5152 145.534C77.5773 145.605 77.6018 145.701 77.58 145.793C77.5581 145.885 77.4925 145.96 77.405 145.994L73.7054 147.45C73.6713 147.463 73.6354 147.47 73.5996 147.47L73.5987 147.471ZM69.5238 141.768L73.6879 146.836L76.8086 145.608C73.3293 141.675 72.1092 140.259 71.6745 139.728L69.5238 141.767V141.768Z" fill="black"/>
<path d="M73.5357 144.629C73.6783 144.315 73.9249 143.957 74.3491 143.729C74.9885 143.385 75.78 143.502 76.338 143.967C77.733 145.128 81.5175 148.412 83.6595 151.556C84.416 152.667 83.9752 154.082 82.1761 153.985C79.2269 153.825 74.5704 152.435 70.7728 148.893C70.3372 148.487 70.1326 147.887 70.2428 147.301C70.3329 146.823 70.4789 146.225 70.7133 145.662C70.9372 145.124 71.5241 144.834 72.09 144.969L72.5999 145.09C72.983 145.181 73.3748 144.987 73.5366 144.628L73.5357 144.629Z" fill="white"/>
<path d="M82.3537 154.278C82.2907 154.278 82.2268 154.277 82.1604 154.273C79.059 154.105 74.3867 152.66 70.5751 149.105C70.0608 148.625 69.8299 147.931 69.9576 147.249C70.0766 146.615 70.241 146.043 70.4448 145.552C70.7229 144.884 71.4419 144.52 72.1547 144.689L72.6646 144.811C72.9104 144.869 73.1666 144.744 73.2716 144.511C73.4797 144.052 73.8051 143.694 74.2118 143.475C74.9334 143.087 75.8622 143.196 76.5217 143.746C78.0252 144.997 81.7545 148.249 83.8974 151.395C84.3504 152.06 84.4274 152.837 84.0985 153.42C83.9131 153.748 83.4443 154.279 82.3528 154.279L82.3537 154.278ZM71.8066 145.225C71.4489 145.225 71.12 145.434 70.9783 145.774C70.7894 146.228 70.6372 146.76 70.5253 147.355C70.4334 147.842 70.5996 148.339 70.9687 148.683C74.6675 152.133 79.191 153.534 82.191 153.697C82.8732 153.735 83.3709 153.534 83.5956 153.136C83.816 152.745 83.7487 152.202 83.4198 151.718C81.3181 148.633 77.6377 145.425 76.1526 144.188C75.6715 143.788 75.0016 143.706 74.4856 143.983C74.1873 144.144 73.9555 144.401 73.7981 144.749C73.5795 145.232 73.0451 145.496 72.5317 145.372L72.0217 145.251C71.9492 145.233 71.8774 145.225 71.8066 145.225Z" fill="black"/>
<path d="M81.563 152.82C79.8523 152.82 76.624 152.091 71.525 148.227C71.3982 148.131 71.3728 147.95 71.469 147.822C71.5652 147.695 71.7463 147.671 71.8739 147.766C79.6004 153.621 82.7744 152.059 82.805 152.043C82.9458 151.968 83.1207 152.022 83.1951 152.163C83.2694 152.304 83.2161 152.479 83.0744 152.553C83.0236 152.58 82.5408 152.819 81.5621 152.819L81.563 152.82Z" fill="black"/>
<path d="M78.3586 149.505C78.2886 149.505 78.2178 149.48 78.1627 149.428C78.0455 149.32 78.0385 149.137 78.1469 149.02L79.6443 147.403C79.7527 147.286 79.9355 147.279 80.0527 147.388C80.1699 147.496 80.1769 147.679 80.0685 147.796L78.5711 149.413C78.5143 149.474 78.4364 149.505 78.3594 149.505H78.3586Z" fill="black"/>
<path d="M77.0335 148.417C76.96 148.417 76.8865 148.389 76.8297 148.333C76.7169 148.221 76.716 148.037 76.8279 147.924L78.4766 146.262C78.5885 146.15 78.7713 146.149 78.885 146.261C78.9979 146.373 78.9987 146.556 78.8868 146.669L77.2381 148.331C77.1821 148.388 77.1078 148.417 77.0335 148.417Z" fill="black"/>
<path d="M60.1296 142.658L58.425 150.138L55.6235 148.005L56.9189 140.815L60.1296 142.658Z" fill="white"/>
<path d="M58.425 150.426C58.3629 150.426 58.3008 150.406 58.2501 150.367L55.4486 148.235C55.3621 148.169 55.3201 148.061 55.3393 147.954L56.6346 140.765C56.6513 140.672 56.7116 140.593 56.7973 140.554C56.883 140.515 56.9819 140.518 57.0632 140.565L60.2739 142.407C60.3841 142.47 60.4401 142.598 60.4121 142.722L58.7084 150.202C58.6865 150.297 58.6174 150.376 58.5256 150.409C58.4932 150.421 58.46 150.427 58.4267 150.427L58.425 150.426ZM55.9384 147.883L58.2422 149.636L59.799 142.802L57.1288 141.27L55.9376 147.883H55.9384Z" fill="black"/>
<path d="M59.3904 148.781C59.219 151.109 58.8079 155.789 57.0473 159.108C56.575 159.998 54.7304 159.932 54.0614 158.718C52.6655 156.187 50.8812 151.886 51.9308 146.693C52.013 146.288 52.2841 145.945 52.6593 145.771C53.1001 145.567 53.7972 145.311 54.789 145.13C55.2832 145.04 55.752 145.386 55.8123 145.886L56.0336 147.716L56.2672 147.412C56.6179 146.955 57.2354 146.797 57.7628 147.028C58.047 147.153 58.361 147.291 58.6444 147.416C59.1753 147.649 59.4342 148.203 59.3913 148.782L59.3904 148.781Z" fill="white"/>
<path d="M55.8238 160C54.9815 160 54.1918 159.553 53.8078 158.857C51.5583 154.78 50.8315 150.669 51.6466 146.636C51.7472 146.142 52.0795 145.72 52.537 145.508C52.9629 145.31 53.6897 145.036 54.7358 144.845C55.0498 144.788 55.376 144.863 55.6323 145.053C55.8894 145.243 56.0591 145.533 56.0976 145.85L56.2384 147.018C56.6818 146.626 57.3185 146.517 57.8774 146.763L58.759 147.15C59.3713 147.418 59.7316 148.067 59.6774 148.801C59.4587 151.772 58.9751 156.087 57.301 159.242C57.0527 159.711 56.5069 159.993 55.8422 159.998C55.836 159.998 55.8291 159.998 55.8229 159.998L55.8238 160ZM54.9457 145.404C54.9107 145.404 54.8757 145.407 54.8399 145.413C53.8533 145.594 53.1755 145.85 52.7801 146.032C52.4889 146.167 52.2772 146.436 52.2134 146.75C51.4262 150.645 52.1329 154.625 54.3142 158.578C54.6614 159.208 55.3471 159.428 55.8387 159.422C56.2812 159.419 56.6468 159.246 56.792 158.972C58.6025 155.559 58.9655 150.619 59.1019 148.76C59.1386 148.265 58.9182 147.85 58.5273 147.679L57.6456 147.292C57.2389 147.113 56.7658 147.235 56.4946 147.587L56.2611 147.89C56.1894 147.983 56.0696 148.024 55.9559 147.993C55.843 147.962 55.76 147.865 55.7451 147.749L55.5238 145.919C55.5046 145.757 55.4206 145.615 55.2894 145.517C55.188 145.442 55.0681 145.404 54.9448 145.404H54.9457Z" fill="black"/>
<path d="M55.5115 158.543C55.4162 158.543 55.3226 158.496 55.2675 158.41C52.0008 153.281 52.7407 147.375 52.7739 147.125C52.7949 146.967 52.9375 146.855 53.0984 146.877C53.2567 146.898 53.3678 147.043 53.3468 147.202C53.339 147.26 52.6043 153.153 55.7555 158.1C55.8412 158.235 55.8019 158.413 55.6672 158.499C55.6191 158.529 55.5657 158.544 55.5124 158.544L55.5115 158.543Z" fill="black"/>
<path d="M58.8168 152.26C58.7906 152.26 58.7635 152.257 58.7364 152.249L56.5577 151.621C56.4046 151.577 56.3163 151.418 56.36 151.264C56.4046 151.111 56.5647 151.022 56.7177 151.066L58.8964 151.694C59.0495 151.738 59.1378 151.898 59.0941 152.051C59.0573 152.178 58.9419 152.26 58.8168 152.26Z" fill="black"/>
<path d="M58.3978 154.154C58.3637 154.154 58.3296 154.148 58.2963 154.136L56.2383 153.362C56.0888 153.306 56.0136 153.139 56.0695 152.99C56.1255 152.841 56.2926 152.766 56.4412 152.822L58.4992 153.595C58.6488 153.651 58.724 153.818 58.668 153.967C58.6243 154.082 58.5141 154.154 58.3978 154.154Z" fill="black"/>
<path d="M41.1319 108.483C41.1319 108.483 51.5617 107.243 60.9587 112.558C63.3272 113.897 64.7799 116.417 64.765 119.137C64.7353 124.538 64.1633 134.41 60.8537 142.979C60.6657 143.467 60.1068 143.697 59.6284 143.485L55.3987 141.613C55.1145 141.488 54.9133 141.227 54.8652 140.92C54.5538 138.941 53.5034 131.412 54.5564 125.95C55.7783 119.611 35.3471 112.892 35.3471 112.892L41.1319 108.482V108.483Z" fill="black"/>
<path d="M72.8421 140.623L69.0724 143.1C68.8205 143.265 68.4856 143.223 68.2827 143.001C65.9632 140.459 52.8692 126.183 49.5858 124.314C45.9798 122.261 39.2426 119.17 33.1228 119.207C27.004 119.244 25.713 114.994 25.713 114.994L34.4391 109.358C34.4391 109.358 49.5386 111.068 55.919 116.255C61.6801 120.94 71.2328 136.769 73.0327 139.798C73.1998 140.08 73.1158 140.443 72.8421 140.623Z" fill="black"/>
<path d="M64.6967 126.685C64.6066 126.685 64.5182 126.643 64.4623 126.565C61.918 123.025 57.9586 118.285 55.737 116.478C53.3336 114.524 49.4056 112.839 44.0643 111.471C43.9095 111.432 43.8168 111.274 43.8562 111.119C43.8955 110.965 44.0521 110.871 44.2078 110.911C49.6313 112.301 53.6327 114.022 56.1017 116.03C58.3609 117.867 62.3649 122.657 64.9311 126.227C65.0238 126.356 64.9949 126.537 64.8655 126.63C64.8147 126.667 64.7553 126.684 64.6975 126.684L64.6967 126.685Z" fill="#26AA9D"/>
<path d="M34.3008 95.6226L35.4186 97.9221C36.7489 100.659 38.7946 102.984 41.3389 104.651L42.3701 105.327C43.0313 105.761 43.8176 105.962 44.6056 105.9L44.7263 105.891C45.9307 105.797 47.1272 106.149 48.0892 106.879L45.384 107.748C43.7345 108.278 41.9389 108.154 40.3934 107.37C38.9127 106.62 37.1031 105.388 35.5935 103.423C32.4317 99.3053 31.7006 96.7697 31.7006 96.7697L34.3017 95.6235L34.3008 95.6226Z" fill="white"/>
<path d="M43.3305 108.361C42.2705 108.361 41.2244 108.114 40.2624 107.627C38.3023 106.633 36.6537 105.278 35.3645 103.598C32.2053 99.4845 31.4532 96.9551 31.4225 96.8493C31.3823 96.7102 31.4514 96.5634 31.5835 96.5056L34.1846 95.3594C34.3272 95.2964 34.4933 95.3576 34.5607 95.4975L35.6785 97.797C36.9851 100.486 38.9977 102.772 41.4973 104.411L42.5285 105.086C43.1329 105.482 43.8623 105.669 44.583 105.614L44.7028 105.604C45.9789 105.503 47.2427 105.876 48.2625 106.65C48.3482 106.714 48.3911 106.822 48.3727 106.929C48.3544 107.034 48.2792 107.122 48.1768 107.155L45.4716 108.024C44.7667 108.251 44.0451 108.363 43.3305 108.363V108.361ZM32.0584 96.9262C32.3208 97.6423 33.2794 99.9357 35.8219 103.247C37.0586 104.857 38.6408 106.157 40.523 107.112C41.9976 107.86 43.6918 107.987 45.2949 107.472L47.4299 106.787C46.6217 106.319 45.6876 106.106 44.7483 106.178L44.6276 106.188C43.7792 106.254 42.9221 106.033 42.211 105.568L41.1798 104.892C38.5927 103.197 36.5111 100.83 35.1581 98.048L34.1619 95.9994L32.0584 96.9271V96.9262Z" fill="black"/>
<path d="M30.8574 117.672C30.8574 117.672 27.428 120.289 25.5423 119.536C23.6566 118.783 26.9024 115.558 27.8583 115.433C28.8143 115.308 30.8574 117.671 30.8574 117.671V117.672Z" fill="black"/>
<path d="M31.4549 79.0618C32.9978 78.8476 34.7566 80.1984 34.5817 82.5005C34.4391 84.3812 32.4765 84.9496 31.5678 85.9542C28.6299 89.2023 31.4497 92.7277 29.1529 95.9679C26.9655 99.0543 23.6445 96.9297 19.1997 100.474C15.7012 103.264 28.4191 99.0246 23.9664 101.969C20.4146 104.317 13.7499 104.12 9.98468 99.8045C6.40398 95.7004 5.58008 89.539 9.24913 86.5662C12.5473 83.8934 14.8756 87.0113 18.3924 84.5037C21.8594 82.0319 20.9061 79.6354 23.0717 78.6028C26.0331 77.1907 27.0801 79.6694 31.4541 79.0627L31.4549 79.0618Z" fill="black"/>
<path d="M13.204 102.053C13.4008 100.897 13.6868 99.5371 13.979 98.6409C14.8772 95.8824 15.4894 94.0874 18.5681 92.4471C19.029 92.2015 19.5127 92.0021 20.0086 91.8368L21.8689 91.2161C21.8689 91.2161 29.5472 89.0206 32.6233 91.9881C32.8726 92.2286 33.1874 92.4996 33.3895 92.8179L35.3932 95.8378L35.3749 95.8457C33.5941 96.5731 32.8489 98.7013 33.8014 100.372C34.8964 102.293 36.406 104.537 37.9078 105.469C38.3818 105.764 42.2048 107.334 42.2048 107.334C42.2048 107.334 43.1433 110.194 37.2605 112.645C31.3778 115.097 27.0913 115.985 25.8572 119.012C25.1269 120.804 22.1523 112.212 20.2369 104.161C19.8687 102.612 18.4185 101.569 16.8329 101.717L13.2049 102.053H13.204Z" fill="white"/>
<path d="M25.6062 119.54C25.5931 119.54 25.58 119.54 25.5686 119.538C25.2905 119.516 24.6389 119.467 22.908 114.503C21.8917 111.589 20.8159 107.843 19.9561 104.228C19.6229 102.827 18.2891 101.871 16.8591 102.003L13.2312 102.34C13.1428 102.35 13.0536 102.315 12.9924 102.249C12.9312 102.184 12.9041 102.093 12.9198 102.004C13.1524 100.637 13.4454 99.3464 13.7043 98.5507C14.5825 95.8534 15.2174 93.9045 18.4325 92.1908C18.8847 91.9495 19.3701 91.744 19.9168 91.5613L21.7771 90.9405C22.1095 90.8452 29.6645 88.7311 32.8227 91.779C32.8647 91.8192 32.9084 91.8603 32.953 91.9023C33.1839 92.12 33.4454 92.3665 33.6326 92.6612L35.6338 95.6768C35.6819 95.7493 35.6941 95.8385 35.6687 95.9216C35.6434 96.0047 35.5822 96.0711 35.5017 96.1043L35.4833 96.1122C34.7075 96.4296 34.1058 97.0652 33.8329 97.8574C33.5618 98.6434 33.6414 99.5081 34.0516 100.229C35.4982 102.767 36.8845 104.494 38.06 105.225C38.3932 105.432 40.7862 106.44 42.3141 107.068C42.392 107.1 42.4523 107.165 42.4786 107.244C42.5205 107.371 43.431 110.387 37.3716 112.912C36.0457 113.464 34.7766 113.947 33.6571 114.372C29.8123 115.834 27.0345 116.89 26.1249 119.121C25.9797 119.477 25.7514 119.541 25.6062 119.541V119.54ZM17.125 101.414C18.7168 101.414 20.1433 102.519 20.5185 104.094C22.3657 111.859 24.7526 118.434 25.5738 118.94C25.5791 118.93 25.5843 118.917 25.5913 118.903C26.5954 116.439 29.472 115.346 33.4533 113.831C34.5693 113.407 35.8332 112.927 37.1504 112.377C41.9993 110.357 42.0246 108.084 41.9529 107.542C41.1867 107.226 38.1999 105.99 37.7556 105.713C36.4813 104.921 35.0661 103.172 33.5504 100.513C33.0571 99.648 32.9618 98.6111 33.2871 97.6676C33.5784 96.823 34.1819 96.1262 34.9664 95.7153L33.1481 92.9751C32.9968 92.7373 32.7632 92.5169 32.5568 92.322C32.5105 92.2782 32.465 92.2354 32.4221 92.1934C29.5 89.3746 22.0237 91.4695 21.9477 91.4913L20.0996 92.1086C19.5844 92.2809 19.127 92.4741 18.7037 92.6997C15.6941 94.3032 15.1203 96.0641 14.2536 98.7282C14.0262 99.4268 13.7699 100.529 13.5539 101.73L16.8057 101.428C16.9125 101.419 17.0192 101.413 17.125 101.413V101.414Z" fill="black"/>
<path d="M36.1288 109.282L33.2802 108.47C32.8569 108.35 32.4012 108.459 32.0776 108.757L30.84 109.901C30.6038 110.12 30.2934 110.238 29.9715 110.235C28.5677 110.221 22.0955 108.72 21.3879 107.647C21.0381 107.117 20.5063 105.26 20.1058 103.722C19.7699 102.433 18.5498 101.578 17.223 101.702L14.3656 101.969C14.3656 101.969 15.5901 108.817 18.0548 110.892C19.9684 112.503 24.2943 113.122 30.4779 112.402C30.4779 112.402 31.7671 112.183 32.7817 110.826C33.4298 109.958 35.1458 110.291 36.1358 109.99C36.4874 109.882 36.4831 109.384 36.1297 109.283L36.1288 109.282Z" fill="white"/>
<path d="M25.7374 112.988C22.0605 112.988 19.3387 112.35 17.8693 111.113C15.353 108.996 14.1329 102.304 14.0822 102.02C14.0682 101.941 14.0875 101.859 14.1364 101.794C14.1854 101.73 14.2589 101.69 14.3394 101.682L17.1967 101.414C18.6714 101.277 20.0122 102.216 20.3856 103.648C21.1194 106.46 21.4798 107.261 21.6293 107.488C22.2276 108.396 28.4339 109.93 29.975 109.947C30.2181 109.949 30.4621 109.859 30.6441 109.69L31.8817 108.545C32.2761 108.181 32.8429 108.045 33.3589 108.193L36.2075 109.004C36.4901 109.085 36.6816 109.337 36.6842 109.63C36.6868 109.924 36.4997 110.179 36.2189 110.265C35.8411 110.38 35.3968 110.409 34.9262 110.439C34.1531 110.489 33.3537 110.54 33.0117 110.998C31.9403 112.432 30.582 112.676 30.5251 112.686C28.7925 112.888 27.1893 112.988 25.7366 112.988H25.7374ZM14.7102 102.226C14.9822 103.572 16.1761 108.933 18.241 110.671C20.1407 112.27 24.5891 112.796 30.4447 112.114C30.4447 112.114 31.6236 111.891 32.5508 110.652C33.0519 109.98 34.0289 109.917 34.8904 109.862C35.3259 109.834 35.7379 109.808 36.0519 109.712C36.0895 109.7 36.1087 109.674 36.1087 109.635C36.1087 109.595 36.0886 109.569 36.051 109.559L33.2023 108.747C32.8779 108.655 32.5228 108.739 32.2752 108.968L31.0377 110.113C30.7516 110.378 30.3791 110.523 29.9872 110.523H29.9706C28.5887 110.508 21.9398 109.004 21.1492 107.806C20.8483 107.349 20.404 105.999 19.8285 103.793C19.5267 102.636 18.444 101.879 17.2518 101.988L14.7119 102.226L14.7102 102.226Z" fill="black"/>
<path d="M22.1874 91.265C22.1874 91.265 23.7914 86.0951 23.8465 85.4673C23.8465 85.4673 23.3358 85.198 23.3646 84.4111C23.4188 82.9143 24.9048 83.6557 24.9048 83.6557L25.0509 83.6907C25.9028 83.8961 26.7958 83.8515 27.624 83.563L29.3619 82.9571C29.3619 82.9571 29.7257 83.5954 29.3024 84.8273C29.1004 85.4149 29.1398 86.0968 29.2465 86.8103C29.2744 86.9983 29.145 87.174 28.957 87.2029L28.4925 87.2737C28.2503 87.8359 28.0334 88.1699 27.6319 88.531C27.5217 88.6298 27.3774 88.684 27.2304 88.6761C27.0302 88.6656 26.7214 88.6228 26.3751 88.4777L26.1136 90.6714L27.2663 90.6434C27.2663 90.6434 27.6818 92.0178 25.4987 93.0128C24.2935 93.5619 22.5871 93.4509 21.2996 93.2402C20.6393 93.1326 20.4749 92.2591 21.0539 91.9234L22.1882 91.2642L22.1874 91.265Z" fill="white"/>
<path d="M23.2483 93.7009C22.5407 93.7009 21.8419 93.6222 21.2515 93.526C20.8282 93.4569 20.5037 93.1395 20.4258 92.719C20.3489 92.2993 20.5369 91.8892 20.9069 91.675L21.9433 91.0726C22.5337 89.1665 23.3733 86.3599 23.5316 85.5931C23.3348 85.4165 23.0497 85.0467 23.0733 84.4014C23.0926 83.8821 23.2666 83.5201 23.5929 83.3269C24.1237 83.0121 24.8269 83.3024 24.9992 83.3828L25.1156 83.4108C25.9159 83.6032 26.7485 83.5621 27.5252 83.291L29.263 82.6851C29.3942 82.6396 29.5403 82.6938 29.6094 82.8145C29.6269 82.8451 30.0327 83.5813 29.5718 84.9216C29.3759 85.4926 29.4397 86.1754 29.5289 86.7682C29.5805 87.1127 29.3426 87.4362 28.998 87.4887L28.6893 87.5359C28.4444 88.0719 28.2074 88.4006 27.8217 88.7469C27.6537 88.8973 27.4324 88.9759 27.212 88.9655C27.0616 88.9576 26.8543 88.9331 26.6164 88.8675L26.4371 90.3749L27.2566 90.3548C27.3887 90.3609 27.5024 90.4361 27.54 90.5602C27.5601 90.6267 28.0018 92.1891 25.6159 93.2759C24.9223 93.5924 24.0783 93.7009 23.2474 93.7009H23.2483ZM24.1579 83.7614C24.0582 83.7614 23.9646 83.7789 23.8885 83.8235C23.7433 83.91 23.6637 84.112 23.6523 84.4224C23.6313 85.0047 23.9707 85.2067 23.9847 85.2146C24.0818 85.2705 24.143 85.3807 24.1334 85.4926C24.0774 86.1326 22.6281 90.8182 22.4628 91.3506C22.441 91.4197 22.3946 91.4783 22.3325 91.515L21.1981 92.1743C20.9594 92.3124 20.9821 92.5467 20.9952 92.6149C21.0215 92.7574 21.1273 92.9218 21.3459 92.9568C22.5486 93.1526 24.2252 93.2777 25.378 92.7513C26.8053 92.1008 27.0039 91.313 27.0091 90.9397L26.1188 90.9616C26.0348 90.9572 25.9543 90.9292 25.8984 90.8671C25.8424 90.8051 25.8153 90.722 25.8249 90.6389L26.0864 88.4452C26.0969 88.3552 26.1494 88.2756 26.2281 88.2301C26.3059 88.1847 26.4013 88.1786 26.4852 88.2135C26.794 88.3429 27.0686 88.3814 27.2435 88.3901C27.3152 88.3954 27.3826 88.3674 27.4368 88.3193C27.791 88.0011 27.9905 87.709 28.2257 87.1617C28.2651 87.0708 28.3491 87.0052 28.447 86.9903L28.9114 86.9195C28.942 86.9143 28.9639 86.8854 28.9595 86.8548C28.8607 86.1929 28.7907 85.4235 29.0278 84.7354C29.2604 84.0587 29.2324 83.5865 29.1791 83.3286L27.7176 83.8383C26.836 84.1461 25.8905 84.1925 24.9818 83.9739L24.8357 83.9389C24.8147 83.9336 24.7937 83.9267 24.7745 83.9162C24.6704 83.8646 24.3984 83.7632 24.157 83.7632L24.1579 83.7614Z" fill="black"/>
<path d="M26.3724 88.7672C26.3313 88.7672 26.2893 88.7584 26.2499 88.7401L25.9307 88.5905C25.7864 88.5231 25.7243 88.3508 25.7916 88.2065C25.859 88.0622 26.0313 87.9993 26.1756 88.0675L26.4948 88.217C26.6391 88.2844 26.7012 88.4567 26.6339 88.601C26.5849 88.7059 26.4808 88.7672 26.3724 88.7672Z" fill="black"/>
<path d="M49.8709 106.583L36.7148 110.582L41.1072 95.6584C41.2699 95.0971 41.7142 94.6512 42.2844 94.478L52.961 91.2325C53.6388 91.0262 54.272 91.6277 54.0787 92.2948L49.8692 106.584L49.8709 106.583Z" fill="black"/>
<path d="M46.7345 100.699C46.5788 101.237 46.0619 101.792 45.58 101.939C45.098 102.086 44.833 101.768 44.9878 101.23C45.1435 100.692 45.6604 100.138 46.1423 99.9908C46.6243 99.8439 46.8893 100.161 46.7345 100.699Z" fill="white"/>
<path d="M49.4108 107.59L28.7732 113.863C28.3473 113.992 27.896 113.752 27.7665 113.325L27.7053 113.215L49.8866 106.472L49.9479 106.582C50.0773 107.009 49.8368 107.46 49.4108 107.59Z" fill="black"/>
<path d="M63.1556 33.384L78.9075 37.9602L90.0843 25.5289L63.1556 33.384Z" fill="white"/>
<path d="M71.0053 40.7713L68.8056 35.0252L83.4485 29.0438L71.5747 35.8295L74.8676 36.7861L71.0053 40.7713Z" fill="#D8D8D8"/>
<path d="M71.3796 39.1206C71.3691 39.1206 71.3577 39.1206 71.3472 39.1189C71.2003 39.1014 71.0954 38.9676 71.1138 38.8207L71.4259 36.2467C71.4434 36.0998 71.5798 35.9931 71.7241 36.0132C71.871 36.0307 71.9759 36.1645 71.9575 36.3114L71.6454 38.8854C71.6288 39.0218 71.5133 39.1215 71.3796 39.1215V39.1206Z" fill="white"/>
<path d="M5.12953 78.3594C5.05606 78.3594 4.98172 78.3314 4.92575 78.2745C4.81292 78.1617 4.81292 77.9789 4.92575 77.8661L5.59746 77.1944C5.71028 77.0815 5.89308 77.0815 6.0059 77.1944C6.11873 77.3072 6.11873 77.49 6.0059 77.6028L5.33419 78.2745C5.27822 78.3305 5.20388 78.3594 5.13041 78.3594H5.12953Z" fill="#F8931F"/>
<path d="M7.66689 75.8219C7.59342 75.8219 7.51907 75.794 7.4631 75.7371C7.35027 75.6243 7.35027 75.4415 7.4631 75.3287L8.13481 74.6569C8.24764 74.5441 8.43043 74.5441 8.54326 74.6569C8.65608 74.7698 8.65608 74.9526 8.54326 75.0654L7.87155 75.7371C7.81557 75.7931 7.74123 75.8219 7.66776 75.8219H7.66689Z" fill="#F8931F"/>
<path d="M8.3386 78.3594C8.26513 78.3594 8.19078 78.3314 8.13481 78.2745L7.4631 77.6028C7.35027 77.49 7.35027 77.3072 7.4631 77.1944C7.57593 77.0815 7.75872 77.0815 7.87155 77.1944L8.54326 77.8661C8.65608 77.9789 8.65608 78.1617 8.54326 78.2745C8.48728 78.3305 8.41294 78.3594 8.33947 78.3594H8.3386Z" fill="#F8931F"/>
<path d="M5.80045 75.8219C5.72698 75.8219 5.65264 75.794 5.59666 75.7371L4.92495 75.0654C4.81213 74.9526 4.81213 74.7698 4.92495 74.6569C5.03778 74.5441 5.22057 74.5441 5.3334 74.6569L6.00511 75.3287C6.11794 75.4415 6.11794 75.6243 6.00511 75.7371C5.94914 75.7931 5.87479 75.8219 5.80132 75.8219H5.80045Z" fill="#F8931F"/>
<path d="M37.6928 7.65863C37.6132 7.65863 37.5336 7.62539 37.4768 7.56155C37.3709 7.44172 37.3823 7.2598 37.5012 7.15397L38.2123 6.52424C38.3321 6.41841 38.5149 6.42978 38.6199 6.54873C38.7257 6.66856 38.7143 6.85048 38.5954 6.95631L37.8843 7.58604C37.8292 7.63501 37.761 7.65863 37.6928 7.65863Z" fill="#F8931F"/>
<path d="M40.3797 5.28137C40.3001 5.28137 40.2205 5.24813 40.1636 5.18429C40.0578 5.06446 40.0692 4.88254 40.1881 4.77671L40.8992 4.14698C41.019 4.04116 41.2018 4.05253 41.3068 4.17147C41.4126 4.2913 41.4012 4.47322 41.2823 4.57905L40.5712 5.20878C40.5161 5.25776 40.4479 5.28137 40.3797 5.28137Z" fill="#F8931F"/>
<path d="M40.8958 7.85362C40.8162 7.85362 40.7366 7.82038 40.6797 7.75653L40.05 7.04546C39.9442 6.92564 39.9555 6.74372 40.0745 6.63789C40.1943 6.53206 40.3762 6.54343 40.4821 6.66238L41.1118 7.37345C41.2176 7.49327 41.2062 7.67519 41.0873 7.78102C41.0322 7.83 40.964 7.85362 40.8958 7.85362Z" fill="#F8931F"/>
<path d="M38.5176 5.1677C38.438 5.1677 38.3584 5.13447 38.3016 5.07062L37.6718 4.35955C37.566 4.2406 37.5774 4.05781 37.6963 3.95198C37.8161 3.84615 37.9989 3.85752 38.1039 3.97647L38.7336 4.68754C38.8394 4.80736 38.8281 4.98928 38.7091 5.09511C38.654 5.14409 38.5858 5.1677 38.5176 5.1677Z" fill="#F8931F"/>
<path d="M30.8584 16.3981C30.8277 16.3981 30.798 16.3972 30.7674 16.3955C30.3721 16.371 30.01 16.1953 29.7485 15.8989C29.4861 15.6025 29.3549 15.2221 29.3794 14.8269C29.4039 14.4317 29.5797 14.0706 29.8762 13.8083C30.1726 13.546 30.5505 13.4158 30.9484 13.4394C31.7636 13.4892 32.3863 14.1922 32.3365 15.0079C32.2884 15.7922 31.6341 16.399 30.8584 16.399V16.3981ZM30.8566 14.0138C30.6362 14.0138 30.4254 14.0934 30.2592 14.2403C30.0782 14.4003 29.9706 14.6215 29.9557 14.8619C29.9251 15.3594 30.3056 15.7887 30.8033 15.8193C31.2992 15.8499 31.7304 15.4696 31.761 14.9721C31.7916 14.4746 31.4111 14.0453 30.9143 14.0156C30.8951 14.0147 30.8767 14.0138 30.8575 14.0138H30.8566Z" fill="#F8931F"/>
<path d="M99.0633 152.056C98.9837 152.056 98.9041 152.023 98.8472 151.959C98.7414 151.839 98.7528 151.657 98.8717 151.551L99.5828 150.922C99.7026 150.816 99.8854 150.827 99.9904 150.946C100.096 151.066 100.085 151.248 99.9659 151.354L99.2548 151.984C99.1997 152.033 99.1315 152.056 99.0633 152.056Z" fill="#F8931F"/>
<path d="M101.751 149.678C101.671 149.678 101.592 149.645 101.535 149.581C101.429 149.461 101.441 149.279 101.559 149.173L102.271 148.544C102.39 148.438 102.572 148.449 102.678 148.568C102.784 148.688 102.773 148.87 102.654 148.976L101.943 149.605C101.887 149.654 101.819 149.678 101.751 149.678Z" fill="#F8931F"/>
<path d="M102.267 152.251C102.188 152.251 102.108 152.218 102.051 152.154L101.421 151.443C101.316 151.323 101.327 151.141 101.446 151.035C101.565 150.93 101.748 150.941 101.853 151.06L102.483 151.771C102.589 151.891 102.578 152.073 102.459 152.179C102.404 152.228 102.335 152.251 102.267 152.251Z" fill="#F8931F"/>
<path d="M99.8889 149.564C99.8093 149.564 99.7297 149.531 99.6729 149.467L99.0432 148.756C98.9373 148.636 98.9487 148.454 99.0676 148.349C99.1866 148.243 99.3694 148.254 99.4752 148.373L100.105 149.084C100.211 149.204 100.199 149.386 100.08 149.492C100.025 149.541 99.9571 149.564 99.8889 149.564Z" fill="#F8931F"/>
<path d="M28.8704 62.1285C28.197 62.1285 27.5174 62.1066 26.8509 62.0646C26.6917 62.0541 26.571 61.9169 26.5815 61.7577C26.592 61.5986 26.7188 61.4753 26.8885 61.4884C27.6424 61.5365 28.413 61.5566 29.1765 61.5496H29.1792C29.3375 61.5496 29.466 61.6773 29.4678 61.8356C29.4695 61.9947 29.341 62.125 29.1818 62.1267C29.0786 62.1276 28.9745 62.1285 28.8713 62.1285H28.8704ZM31.4847 62.0235C31.336 62.0235 31.2092 61.909 31.1969 61.7577C31.1847 61.5986 31.3027 61.4596 31.4619 61.4473C32.2123 61.3879 32.9776 61.3013 33.7377 61.1894C33.8969 61.1667 34.0421 61.2751 34.0657 61.4334C34.0884 61.5907 33.98 61.7376 33.8217 61.7612C33.0494 61.874 32.2709 61.9623 31.5083 62.0235C31.5004 62.0235 31.4925 62.0244 31.4847 62.0244V62.0235ZM24.5725 61.8321C24.5594 61.8321 24.5454 61.8312 24.5323 61.8294C23.7635 61.7219 22.9912 61.5829 22.2364 61.4176C22.0807 61.3835 21.9819 61.2296 22.016 61.074C22.0501 60.9184 22.204 60.8187 22.3597 60.8537C23.0996 61.0163 23.8571 61.1518 24.611 61.2576C24.7693 61.2795 24.8795 61.4255 24.8568 61.5837C24.8367 61.728 24.7133 61.8321 24.5708 61.8321H24.5725ZM36.0528 61.3573C35.919 61.3573 35.7992 61.2637 35.7703 61.1282C35.7371 60.9717 35.8377 60.8187 35.9933 60.7864C36.7298 60.6316 37.4793 60.4506 38.2228 60.2486C38.3776 60.2067 38.535 60.2976 38.577 60.4515C38.619 60.6054 38.528 60.7636 38.3741 60.8056C37.6201 61.0102 36.8592 61.1938 36.1123 61.3512C36.0922 61.3555 36.0721 61.3573 36.0519 61.3573H36.0528ZM20.063 60.8414C20.035 60.8414 20.007 60.8371 19.979 60.8292C19.2408 60.6062 18.4991 60.3518 17.7741 60.0703C17.6254 60.0126 17.551 59.8456 17.6088 59.6969C17.6665 59.5483 17.8344 59.474 17.9822 59.5317C18.6942 59.8071 19.4219 60.0572 20.146 60.2757C20.2991 60.3221 20.3848 60.483 20.3393 60.6351C20.3017 60.7601 20.1872 60.8406 20.063 60.8406V60.8414ZM40.5116 60.1498C40.3901 60.1498 40.2772 60.0729 40.237 59.9514C40.1872 59.8001 40.2694 59.6366 40.4207 59.5868C41.1344 59.3516 41.8621 59.091 42.5827 58.8121C42.7314 58.7544 42.8985 58.8287 42.9562 58.9774C43.0139 59.126 42.9396 59.293 42.7909 59.3507C42.0606 59.6322 41.3242 59.8963 40.6017 60.135C40.572 60.1446 40.5414 60.1498 40.5108 60.1498H40.5116ZM15.7633 59.1645C15.717 59.1645 15.6706 59.154 15.6269 59.1304C14.9455 58.7649 14.2922 58.3067 13.6861 57.7681C13.5671 57.6623 13.5558 57.4796 13.6625 57.3607C13.7683 57.2418 13.9511 57.2313 14.07 57.3371C14.642 57.846 15.2578 58.2779 15.8998 58.6224C16.0406 58.6976 16.093 58.8724 16.0178 59.0132C15.9654 59.1102 15.8665 59.1653 15.7633 59.1653V59.1645ZM44.8235 58.4877C44.7125 58.4877 44.6066 58.423 44.5594 58.3155C44.4947 58.1695 44.5611 57.999 44.7072 57.9351C45.3973 57.6318 46.0987 57.3047 46.7914 56.9638C46.9349 56.8938 47.108 56.9524 47.178 57.0949C47.2489 57.2383 47.1894 57.4114 47.0468 57.4814C46.3471 57.8259 45.6378 58.1563 44.9407 58.4632C44.9031 58.4799 44.8638 58.4877 44.8244 58.4877H44.8235ZM48.9719 56.4479C48.8695 56.4479 48.7707 56.3937 48.7182 56.2966C48.6421 56.1567 48.6937 55.981 48.8345 55.9049C49.4984 55.5438 50.1718 55.1617 50.8366 54.7692C50.9739 54.6887 51.1506 54.7333 51.2328 54.8706C51.3141 55.0079 51.2686 55.1845 51.1313 55.2658C50.4613 55.6627 49.7818 56.0483 49.1109 56.412C49.0672 56.4357 49.02 56.447 48.9736 56.447L48.9719 56.4479ZM12.3199 56.141C12.2325 56.141 12.1459 56.1017 12.089 56.0256C11.6298 55.4171 11.2092 54.7464 10.8357 54.0321C10.7622 53.8905 10.8173 53.7165 10.9581 53.643C11.0998 53.5696 11.2739 53.6238 11.3473 53.7654C11.7051 54.4518 12.11 55.0953 12.5491 55.6785C12.6453 55.8061 12.6199 55.9871 12.4922 56.0824C12.4406 56.1218 12.3794 56.1401 12.319 56.1401L12.3199 56.141ZM52.9523 54.0933C52.8569 54.0933 52.7642 54.0461 52.7091 53.9604C52.6234 53.8258 52.6619 53.6474 52.7966 53.5617C53.4351 53.1525 54.0805 52.7232 54.7155 52.2869C54.8467 52.1969 55.0269 52.2292 55.117 52.3613C55.2071 52.4924 55.1747 52.6725 55.0426 52.7626C54.4024 53.2032 53.7517 53.6352 53.108 54.0478C53.0599 54.0784 53.0056 54.0933 52.9523 54.0933ZM10.1762 52.0692C10.0573 52.0692 9.94532 51.9949 9.90421 51.8769C9.64883 51.152 9.43454 50.3931 9.26749 49.6202C9.23425 49.4646 9.33309 49.3107 9.48877 49.2766C9.64358 49.2442 9.79839 49.3422 9.8325 49.4978C9.9943 50.2471 10.2016 50.9833 10.4491 51.6845C10.5025 51.8349 10.4229 51.9993 10.2724 52.0526C10.2409 52.064 10.2086 52.0692 10.1762 52.0692ZM56.763 51.472C56.6747 51.472 56.5872 51.4318 56.5304 51.3549C56.4359 51.2264 56.463 51.0454 56.5916 50.9509C57.2047 50.4998 57.8222 50.0303 58.4265 49.5564C58.5516 49.4585 58.7335 49.4803 58.8324 49.6053C58.9303 49.7304 58.9085 49.9122 58.7834 50.011C58.1746 50.4884 57.5519 50.9614 56.9344 51.4161C56.8828 51.4537 56.8225 51.472 56.763 51.472ZM60.4041 48.6173C60.321 48.6173 60.2388 48.5824 60.1819 48.5133C60.0796 48.3909 60.0962 48.209 60.2186 48.1067C60.809 47.6145 61.3968 47.1091 61.967 46.6037C62.086 46.498 62.2688 46.5084 62.3746 46.6282C62.4804 46.7471 62.4699 46.9299 62.3501 47.0357C61.7755 47.5445 61.1833 48.0543 60.5886 48.55C60.5344 48.5955 60.4688 48.6173 60.4041 48.6173ZM9.19839 47.5664C9.05146 47.5664 8.92551 47.4545 8.91152 47.305C8.85292 46.6789 8.82318 46.0424 8.82318 45.4138C8.82318 45.2643 8.82493 45.1139 8.82843 44.9635C8.83193 44.8061 8.9605 44.6811 9.11705 44.6811H9.12405C9.28323 44.6846 9.41005 44.8166 9.40656 44.9766C9.40306 45.1226 9.40131 45.2678 9.40131 45.4138C9.40131 46.0249 9.43017 46.6422 9.48702 47.2508C9.50189 47.4099 9.38556 47.5507 9.22638 47.5655C9.21676 47.5664 9.20802 47.5673 9.19927 47.5673L9.19839 47.5664ZM63.8649 45.5449C63.7889 45.5449 63.7119 45.5143 63.6559 45.4549C63.5457 45.3395 63.551 45.1567 63.6664 45.0466C64.4265 44.3261 64.9783 43.7683 65.3072 43.4273C65.4183 43.3119 65.6011 43.3093 65.7156 43.4194C65.8302 43.5305 65.8337 43.7132 65.7235 43.8277C65.3903 44.1731 64.8323 44.737 64.0644 45.4654C64.0084 45.5187 63.9367 45.5449 63.8658 45.5449H63.8649ZM9.30335 42.9578C9.29023 42.9578 9.27624 42.9569 9.26224 42.9551C9.10394 42.9324 8.99461 42.7864 9.01647 42.629C9.12668 41.8491 9.28498 41.0771 9.48615 40.333C9.52813 40.1791 9.68731 40.0882 9.84037 40.1293C9.9943 40.1713 10.0853 40.3295 10.0442 40.4834C9.84911 41.2047 9.69605 41.954 9.58935 42.7095C9.56923 42.8537 9.44504 42.9578 9.30335 42.9578ZM10.5121 38.5126C10.4753 38.5126 10.4369 38.5056 10.401 38.4899C10.2541 38.4287 10.185 38.2591 10.2462 38.1122C10.5514 37.383 10.9074 36.6774 11.3036 36.0147C11.3858 35.8783 11.5634 35.8337 11.6998 35.915C11.8371 35.9972 11.8817 36.1738 11.7995 36.3111C11.4173 36.9502 11.0736 37.6313 10.7797 38.3352C10.7334 38.4462 10.6258 38.5126 10.513 38.5126H10.5121ZM12.8814 34.5676C12.8167 34.5676 12.7511 34.5458 12.6978 34.5012C12.5744 34.3998 12.5578 34.2179 12.6593 34.0946C13.1596 33.4896 13.7114 32.9213 14.2974 32.4063C14.4173 32.3005 14.6001 32.3127 14.705 32.4325C14.8108 32.5523 14.7986 32.7342 14.6788 32.84C14.1155 33.3357 13.5855 33.8813 13.1045 34.4627C13.0476 34.5318 12.9645 34.5676 12.8814 34.5676ZM16.3353 31.5311C16.24 31.5311 16.1464 31.4839 16.0913 31.3964C16.0056 31.2618 16.0458 31.0834 16.1814 30.9977C16.8347 30.585 17.5327 30.2152 18.2577 29.8969C18.4038 29.8331 18.5744 29.8996 18.6382 30.0456C18.702 30.1916 18.6356 30.3621 18.4895 30.4259C17.7907 30.7319 17.1181 31.0887 16.4893 31.4856C16.4411 31.5162 16.3878 31.5302 16.3353 31.5302V31.5311Z" fill="#F8931F"/>
<path d="M48.4453 89.1183C48.4156 89.1183 48.385 89.114 48.3553 89.1035C48.2039 89.0536 48.1217 88.8901 48.1716 88.7389C48.1742 88.731 48.4392 87.9257 48.8372 86.5312C48.8809 86.3782 49.041 86.2899 49.194 86.3327C49.3471 86.3764 49.4363 86.5364 49.3926 86.6894C48.9911 88.0962 48.7226 88.9111 48.72 88.919C48.6797 89.0405 48.5669 89.1175 48.4453 89.1175V89.1183ZM49.724 84.6688C49.6996 84.6688 49.6751 84.6662 49.6506 84.6592C49.4966 84.619 49.4039 84.4607 49.4442 84.3069C49.6375 83.5698 49.8264 82.8179 50.0065 82.0703C50.0442 81.9156 50.1998 81.8203 50.3546 81.857C50.5095 81.8946 50.6048 82.0502 50.5681 82.205C50.387 82.956 50.1972 83.7123 50.0031 84.4529C49.9689 84.5823 49.8517 84.6688 49.724 84.6688ZM50.8068 80.1739C50.7867 80.1739 50.7657 80.1721 50.7447 80.1669C50.589 80.1328 50.4902 79.978 50.5252 79.8224C50.6896 79.0766 50.8497 78.3177 51.0001 77.5657C51.0316 77.4092 51.1838 77.3087 51.3403 77.3393C51.4969 77.3708 51.5984 77.5229 51.5669 77.6794C51.4156 78.4339 51.2546 79.1972 51.0893 79.9466C51.0596 80.0812 50.9398 80.173 50.8077 80.173L50.8068 80.1739ZM51.7156 75.6413C51.6989 75.6413 51.6815 75.6396 51.664 75.6369C51.5065 75.609 51.4024 75.4586 51.4304 75.3021C51.5669 74.5414 51.6972 73.7772 51.8153 73.0288C51.8406 72.8714 51.9876 72.7648 52.1459 72.7892C52.3033 72.8146 52.4109 72.9624 52.3855 73.1197C52.2666 73.8717 52.1363 74.6402 51.9989 75.4044C51.9736 75.5443 51.852 75.6422 51.7147 75.6422L51.7156 75.6413ZM52.4389 71.0764C52.4258 71.0764 52.4126 71.0764 52.3995 71.0738C52.2412 71.0519 52.131 70.9068 52.152 70.7485C52.2561 69.9844 52.3523 69.2149 52.4371 68.4621C52.4546 68.3039 52.5972 68.1885 52.7564 68.2077C52.9147 68.2252 53.0284 68.3686 53.0109 68.5268C52.9252 69.284 52.829 70.0578 52.724 70.8264C52.7039 70.9715 52.5806 71.0764 52.438 71.0764H52.4389ZM52.9558 66.4835C52.947 66.4835 52.9383 66.4835 52.9304 66.4826C52.7712 66.4687 52.654 66.3288 52.668 66.1696C52.7362 65.395 52.794 64.6221 52.8386 63.8728C52.8482 63.7136 52.9811 63.5921 53.1447 63.6017C53.3039 63.6113 53.4254 63.7477 53.4158 63.9077C53.3703 64.6623 53.3126 65.4404 53.2435 66.2203C53.2304 66.3707 53.1045 66.4835 52.9566 66.4835H52.9558ZM53.2339 61.8723C53.2339 61.8723 53.2278 61.8723 53.2243 61.8723C53.0651 61.867 52.94 61.7341 52.9444 61.575C52.9689 60.8108 52.9803 60.0475 52.9803 59.307V59.2746C52.9803 59.1155 53.1097 58.9861 53.2689 58.9861C53.4281 58.9861 53.5575 59.1155 53.5575 59.2746V59.307C53.5575 60.0537 53.5453 60.8231 53.5208 61.5934C53.5155 61.7499 53.3878 61.8731 53.2322 61.8731L53.2339 61.8723ZM53.2287 57.2523C53.0739 57.2523 52.9462 57.1299 52.94 56.9742C52.912 56.1996 52.8701 55.4275 52.8141 54.6782C52.8018 54.5191 52.9217 54.381 53.0808 54.3687C53.2374 54.3574 53.3782 54.4763 53.3905 54.6354C53.4473 55.3917 53.4902 56.1716 53.5182 56.9533C53.5234 57.1124 53.3992 57.2462 53.24 57.2523C53.2365 57.2523 53.233 57.2523 53.2295 57.2523H53.2287ZM52.8788 52.6454C52.7345 52.6454 52.6103 52.5379 52.5928 52.391C52.501 51.6207 52.3908 50.8565 52.2657 50.1186C52.2386 49.9612 52.3453 49.8126 52.5018 49.7863C52.6567 49.7584 52.808 49.8659 52.8342 50.0224C52.961 50.7691 53.0721 51.5437 53.1648 52.3228C53.1841 52.481 53.0703 52.6244 52.912 52.6437C52.9007 52.6454 52.8893 52.6454 52.8771 52.6454H52.8788ZM52.1021 48.0936C51.9701 48.0936 51.8511 48.0027 51.8205 47.8689C51.6482 47.1117 51.4541 46.3651 51.2441 45.6516C51.1995 45.4986 51.287 45.3377 51.4401 45.2931C51.5931 45.2494 51.754 45.336 51.7986 45.489C52.0121 46.2147 52.2088 46.9727 52.3838 47.7421C52.4188 47.8978 52.3217 48.0525 52.166 48.0875C52.1441 48.0927 52.1231 48.0945 52.1021 48.0945V48.0936ZM50.7928 43.6669C50.6756 43.6669 50.5654 43.5952 50.5226 43.4789C50.2514 42.7532 49.9541 42.0441 49.6392 41.3709C49.5719 41.2266 49.634 41.0543 49.7783 40.987C49.9226 40.9188 50.0949 40.9818 50.1622 41.126C50.4841 41.8133 50.7876 42.5372 51.064 43.2769C51.1199 43.4264 51.0439 43.5925 50.8943 43.6485C50.8611 43.6607 50.8269 43.6669 50.7937 43.6669H50.7928ZM48.8302 39.4928C48.7305 39.4928 48.6343 39.4412 48.5809 39.3494C48.1935 38.6849 47.7754 38.0431 47.3372 37.4398C47.2436 37.3104 47.2725 37.1303 47.401 37.0368C47.5296 36.9432 47.7107 36.9721 47.8042 37.1006C48.2529 37.7188 48.6815 38.378 49.0794 39.0582C49.1599 39.1964 49.1136 39.373 48.9754 39.4534C48.9299 39.4805 48.8792 39.4928 48.8302 39.4928ZM46.1188 35.7664C46.0401 35.7664 45.9614 35.734 45.9046 35.6711C45.3947 35.108 44.8506 34.5694 44.2874 34.0728C44.1676 33.967 44.1562 33.7851 44.262 33.6653C44.3679 33.5455 44.5498 33.5342 44.6696 33.64C45.2495 34.1515 45.8092 34.7049 46.3331 35.2846C46.4398 35.4026 46.4311 35.5854 46.313 35.692C46.2579 35.7419 46.1888 35.7664 46.1197 35.7664H46.1188ZM42.665 32.7193C42.6081 32.7193 42.5504 32.7027 42.4997 32.6677C41.8839 32.2375 41.2323 31.8362 40.565 31.4734C40.4251 31.3973 40.3735 31.2216 40.4495 31.0817C40.5256 30.9418 40.7014 30.8902 40.8414 30.9663C41.528 31.3396 42.197 31.7523 42.8311 32.1947C42.9623 32.2856 42.9938 32.4657 42.9029 32.5969C42.8469 32.6773 42.7568 32.7202 42.6658 32.7202L42.665 32.7193ZM38.6207 30.5142C38.584 30.5142 38.5464 30.5072 38.5105 30.4924C37.8222 30.2065 37.1006 29.9477 36.3659 29.7221C36.2137 29.6757 36.128 29.514 36.1744 29.3618C36.2207 29.2088 36.3825 29.124 36.5347 29.1704C37.2878 29.4012 38.0268 29.667 38.7318 29.959C38.8796 30.0202 38.9487 30.189 38.8875 30.3367C38.8411 30.4478 38.7344 30.5151 38.6207 30.5151V30.5142Z" fill="#F8931F"/>
<path d="M131.231 148.989C131.231 148.989 121.96 130.865 126.465 113.245C126.616 112.656 128.908 113.311 129.09 112.724C129.323 111.973 127.457 109.98 127.745 109.235C128.815 106.465 130.278 103.744 132.224 101.146C132.224 101.146 135.896 106.492 137.802 114.839C137.945 115.468 135.603 117.221 135.724 117.883C135.838 118.509 138.419 118.043 138.509 118.697C139.679 127.152 138.671 137.861 131.23 148.989H131.231Z" fill="#C2E1DE"/>
<path d="M123.162 127.595C122.776 127.067 120.579 128.971 120.187 128.47C119.801 127.976 120.843 124.405 120.453 123.937C112.793 114.761 104.639 110.554 104.639 110.554C103.917 115.321 103.998 119.886 104.666 124.208C104.773 124.898 107.895 126.05 108.031 126.728C108.179 127.471 105.631 128.4 105.813 129.128C108.496 139.881 114.354 148.292 120.16 154.866C124.691 153.271 128.8 151.268 132.506 148.92C130.724 139.949 127.34 133.303 123.163 127.595L123.162 127.595Z" fill="#26AA9D"/>
<path d="M125.452 148.829C125.359 148.829 125.268 148.784 125.212 148.701C123.159 145.653 121.159 142.508 119.266 139.354C119.184 139.218 119.229 139.041 119.365 138.958C119.502 138.876 119.679 138.921 119.761 139.057C121.65 142.202 123.645 145.338 125.691 148.378C125.78 148.51 125.745 148.691 125.613 148.779C125.564 148.812 125.508 148.828 125.452 148.828L125.452 148.829Z" fill="#D8D8D8"/>
<path d="M116.87 134.964C116.77 134.964 116.672 134.912 116.619 134.818C113.56 129.425 110.704 123.829 108.128 118.188L106.951 115.608C106.884 115.463 106.948 115.292 107.093 115.226C107.238 115.16 107.41 115.224 107.475 115.369L108.653 117.948C111.221 123.574 114.071 129.155 117.121 134.534C117.2 134.673 117.151 134.849 117.013 134.928C116.968 134.953 116.919 134.965 116.87 134.965V134.964Z" fill="#D8D8D8"/>
<path d="M130.706 150.001C130.706 150.001 127.037 130.633 146.004 123.91C146.004 123.91 147.593 140.817 130.706 150.001Z" fill="#26AA9D"/>
<path d="M134.111 144.959C134.08 144.959 134.047 144.954 134.016 144.943C133.865 144.891 133.786 144.725 133.839 144.575C136.015 138.363 142.783 128.743 142.851 128.646C142.943 128.516 143.124 128.486 143.254 128.577C143.384 128.669 143.414 128.849 143.323 128.98C143.255 129.076 136.533 138.63 134.384 144.767C134.342 144.885 134.231 144.96 134.111 144.96V144.959Z" fill="#D8D8D8"/>
</svg>
