<svg width="56" height="95" viewBox="0 0 56 95" fill="none" xmlns="http://www.w3.org/2000/svg">
<path fill-rule="evenodd" clip-rule="evenodd" d="M55.0177 81.482C54.977 81.3301 54.9345 81.1889 54.889 81.0672C54.8572 80.9819 54.7801 80.7789 54.6297 80.6046C54.5606 80.5244 54.3423 80.291 53.9646 80.2434C53.5055 80.1854 53.1896 80.436 53.0485 80.6022C52.9228 80.7503 52.8657 80.901 52.8424 80.9676C52.8138 81.0497 52.7961 81.1266 52.7846 81.1856C52.7107 81.5642 52.7055 82.2644 52.7131 82.9805C52.7174 83.3892 52.9663 83.738 53.3194 83.8895C53.3243 84.074 53.3256 84.2647 53.3232 84.4609C53.3167 85.0131 53.7591 85.4661 54.3114 85.4728C54.8637 85.4795 55.3167 85.0373 55.3233 84.4851C55.336 83.4056 55.2531 82.3599 55.0177 81.482ZM53.0046 81.7404C53.0046 81.74 53.007 81.7449 53.0114 81.7561C53.0067 81.7464 53.0045 81.7408 53.0046 81.7404ZM38.4126 31.6303C38.5999 32.1499 39.1729 32.4194 39.6925 32.2323C40.2122 32.0452 40.4816 31.4723 40.2943 30.9527C39.878 29.7979 39.3946 28.6731 38.8339 27.5883C38.261 26.4797 37.6535 25.422 37.0115 24.4105C36.7156 23.9442 36.0976 23.806 35.6312 24.1018C35.1649 24.3976 35.0268 25.0154 35.3228 25.4817C35.9325 26.4424 36.5107 27.4488 37.057 28.5059C37.5741 29.5064 38.0233 30.5503 38.4126 31.6303ZM42.0417 37.9979C41.9567 37.4522 41.4454 37.0786 40.8996 37.1635C40.3539 37.2483 39.9804 37.7595 40.0654 38.3052C40.4178 40.5663 40.6088 42.8941 40.6976 45.234C40.7185 45.7858 41.1829 46.2164 41.7348 46.1956C42.2868 46.1748 42.7172 45.7106 42.6963 45.1588C42.6054 42.7626 42.409 40.3545 42.0417 37.9979ZM54.8232 87.5997C54.8136 87.0475 54.3581 86.6076 53.8059 86.617C53.2536 86.6265 52.8137 87.0818 52.8233 87.6339C52.8342 88.2557 52.8378 88.8221 52.8291 89.2918C52.7364 89.405 52.6673 89.5405 52.6311 89.6924C52.5283 90.1233 52.4179 90.5356 52.3026 90.9216C52.0753 90.6633 51.8175 90.3556 51.5369 90.0081C51.1899 89.5784 50.5602 89.5112 50.1305 89.858C49.7008 90.2049 49.6338 90.8344 49.9808 91.2641C50.276 91.6297 50.5623 91.9723 50.8275 92.2723C50.2465 92.1011 49.6641 91.9301 49.0809 91.761C48.5504 91.6072 47.9958 91.9125 47.8421 92.4429C47.6884 92.9733 47.9939 93.5279 48.5244 93.6817C49.2754 93.8994 50.024 94.1201 50.7749 94.3415L50.7791 94.3428L51.4484 94.54C52.1311 94.741 52.7155 94.8622 53.2032 94.8741C53.7554 94.8877 54.2139 94.4511 54.2272 93.8991C54.2367 93.5088 54.0212 93.1652 53.699 92.9926C53.7101 92.9694 53.72 92.9465 53.7288 92.9241C53.7884 92.7738 53.8471 92.6179 53.9047 92.457C53.9598 92.4574 54.0157 92.4532 54.072 92.4442C54.6173 92.3564 54.9881 91.8433 54.9002 91.2981C54.8277 90.8487 54.7813 90.4152 54.8054 89.9949C54.8411 89.37 54.8391 88.512 54.8232 87.5997ZM42.7157 52.2977C42.7292 51.7457 42.2925 51.2871 41.7403 51.2735C41.1881 51.2598 40.7296 51.6963 40.7161 52.2484C40.687 53.4399 40.6468 54.6167 40.604 55.7726C40.5595 56.9719 40.5278 58.1563 40.5136 59.3277C40.5068 59.8799 40.9491 60.3331 41.5014 60.34C42.0537 60.3468 42.5069 59.9048 42.5136 59.3526C42.5276 58.2007 42.5588 57.0332 42.6027 55.8472C42.6457 54.688 42.6863 53.5015 42.7157 52.2977ZM31.067 19.9888C31.4448 20.3918 32.0776 20.4124 32.4806 20.0348C32.8835 19.6572 32.9039 19.0244 32.5262 18.6214C30.8565 16.8403 29.0392 15.2314 27.0801 13.7477C26.6398 13.4142 26.0125 13.5007 25.6791 13.9408C25.3457 14.381 25.4324 15.0082 25.8727 15.3417C27.751 16.7642 29.4823 18.2983 31.067 19.9888ZM46.4658 86.5172C46.7794 86.9719 47.4022 87.0864 47.8569 86.773C48.3115 86.4596 48.4259 85.8369 48.1123 85.3822C47.7185 84.8113 47.3752 84.297 47.1129 83.885C46.8368 83.4514 46.6865 83.1864 46.6424 83.0867C46.1677 82.0144 45.7436 80.9453 45.3652 79.8769C45.1809 79.3562 44.6094 79.0835 44.0887 79.2677C43.5681 79.4518 43.2954 80.0232 43.4798 80.5438C43.875 81.66 44.318 82.7765 44.8134 83.8956C44.9277 84.154 45.1599 84.5411 45.4257 84.9586C45.7054 85.3978 46.0634 85.9337 46.4658 86.5172ZM42.6851 66.33C42.6473 65.779 42.1699 65.3629 41.6189 65.4006C41.0678 65.4383 40.6518 65.9155 40.6897 66.4664C40.8548 68.8701 41.1422 71.2374 41.5966 73.589C41.7014 74.1312 42.226 74.486 42.7683 74.3814C43.3106 74.2767 43.6652 73.7524 43.5605 73.2101C43.1237 70.9501 42.8455 68.6649 42.6851 66.33ZM42.6795 92.1241C43.2175 92.2494 43.7551 91.9151 43.8803 91.3772C44.0055 90.8394 43.6709 90.3018 43.133 90.1764C42.1346 89.9438 41.1245 89.7298 40.1002 89.5418C39.5569 89.442 39.0357 89.8015 38.9361 90.3446C38.8365 90.8878 39.1962 91.4089 39.7395 91.5087C40.7286 91.6903 41.7074 91.8976 42.6795 92.1241ZM20.0092 11.4862C20.4876 11.7624 21.0992 11.5986 21.3753 11.1203C21.6514 10.6421 21.4874 10.0306 21.009 9.75439C18.9859 8.58651 16.8494 7.48362 14.6044 6.41101C14.106 6.17288 13.509 6.38375 13.271 6.88201C13.0329 7.38027 13.244 7.97723 13.7424 8.21536C15.9525 9.27127 18.0412 10.3501 20.0092 11.4862ZM7.26204 5.30147C7.76982 5.5189 8.35763 5.28364 8.57495 4.776C8.79227 4.26837 8.5568 3.68059 8.04902 3.46316C6.96845 3.00047 5.86654 2.53701 4.74382 2.06995C4.73614 2.06675 4.72843 2.06366 4.72072 2.06066C4.7089 1.9835 4.69273 1.90621 4.67204 1.82907C4.36721 0.692147 3.19784 0.0174425 2.06019 0.322071C0.92254 0.6267 0.247408 1.79531 0.55224 2.93223C0.857073 4.06914 2.02644 4.74385 3.16409 4.43922C3.50861 4.34697 3.81071 4.17548 4.05602 3.94964C5.14637 4.40348 6.215 4.85313 7.26204 5.30147Z" fill="#FFB400"/>
</svg>
