<svg width="14" height="14" viewBox="0 0 14 14" fill="none" xmlns="http://www.w3.org/2000/svg">
<path d="M11.7792 5.08257C11.7461 5.00263 11.69 4.9343 11.6181 4.88623C11.5461 4.83816 11.4615 4.8125 11.375 4.8125H2.625C2.53847 4.8125 2.45388 4.83816 2.38194 4.88623C2.30999 4.93431 2.25391 5.00264 2.2208 5.08258C2.18769 5.16252 2.17903 5.25049 2.19591 5.33536C2.21279 5.42023 2.25446 5.49818 2.31565 5.55937L6.69065 9.93435C6.73127 9.97498 6.7795 10.0072 6.83258 10.0292C6.88566 10.0512 6.94255 10.0625 7 10.0625C7.05746 10.0625 7.11435 10.0512 7.16742 10.0292C7.2205 10.0072 7.26873 9.97498 7.30935 9.93435L11.6844 5.55937C11.7455 5.49818 11.7872 5.42022 11.8041 5.33536C11.821 5.25049 11.8123 5.16252 11.7792 5.08257Z" fill="#353432"/>
</svg>
