<svg width="72" height="72" viewBox="0 0 72 72" fill="none" xmlns="http://www.w3.org/2000/svg">
<path d="M21.811 51.5354C21.811 53.3581 20.4199 54.6974 18.5012 54.6974C16.5825 54.6974 15.1914 53.3653 15.1914 51.5354C15.1914 49.7126 16.5825 48.4078 18.5012 48.4078C20.4199 48.4078 21.811 49.7226 21.811 51.5354ZM17.2396 51.544C17.2396 52.4031 17.8412 53.0391 18.5285 53.0391C19.2159 53.0391 19.7661 52.4031 19.7661 51.544C19.7661 50.6849 19.2159 50.0661 18.5285 50.0661C17.8325 50.0661 17.2396 50.6849 17.2396 51.544Z" fill="#1DA99D"/>
<path d="M27.4555 51.5613V54.5598H25.5223V52.1197C25.5223 51.7244 25.2988 51.4755 24.9635 51.4755C24.5855 51.4755 24.3452 51.7762 24.3452 52.2315V54.5598H22.4116V49.859H24.3452V50.5305C24.6628 50.0508 25.1525 49.7745 25.7713 49.7745C26.7594 49.7741 27.4555 50.4787 27.4555 51.5613Z" fill="#1DA99D"/>
<path d="M32.9366 52.6439H29.8777C30.0067 53.0133 30.2816 53.2022 30.6595 53.2022C30.9862 53.2022 31.321 53.0583 31.6136 52.7811L32.621 53.7692C32.1226 54.3194 31.4011 54.6288 30.4902 54.6288C28.8833 54.6288 27.9297 53.6834 27.9297 52.2304C27.9297 50.7434 28.9265 49.7903 30.4389 49.7903C32.0775 49.7908 33.0397 50.9084 32.9366 52.6439ZM30.4533 51.0801C30.1175 51.0801 29.9122 51.355 29.835 51.7517H31.0035C31.0289 51.3636 30.7886 51.0801 30.4533 51.0801Z" fill="#1DA99D"/>
<path d="M45.5836 48.537L43.5473 54.5599H41.5025L40.6002 50.9599L39.6725 54.5599H37.6276L35.6082 48.537H37.7389L38.7102 52.4891L39.6725 48.537H41.6142L42.5957 52.4891L43.5493 48.537H45.5836Z" fill="#1DA99D"/>
<path d="M49.8618 51.5177V54.5593H47.9632V54.0523C47.6884 54.4308 47.2437 54.6452 46.6398 54.6452C45.6435 54.6452 45.0674 54.0609 45.0674 53.1673C45.0674 52.2396 45.6948 51.7498 46.8902 51.7326H47.9632C47.9546 51.4064 47.7056 51.2169 47.2327 51.2169C46.8806 51.2169 46.339 51.32 45.8066 51.5177L45.3749 50.2288C46.174 49.9371 46.9991 49.7736 47.6951 49.7736C49.0545 49.774 49.8618 50.4101 49.8618 51.5177ZM47.9632 53.056V52.6243H47.2917C47.025 52.6243 46.8791 52.7533 46.8791 53.0023C46.8791 53.2599 47.0336 53.4148 47.3084 53.4148C47.4386 53.4134 47.5664 53.38 47.6806 53.3175C47.7948 53.255 47.8919 53.1654 47.9632 53.0565V53.056Z" fill="#1DA99D"/>
<path d="M51.6574 56.3145C51.0391 56.3145 50.5407 56.1427 50.0337 55.7647L50.8415 54.4917C51.0477 54.6807 51.2367 54.7665 51.4684 54.7665C51.6919 54.7665 51.8378 54.6893 51.9323 54.5267L52.0013 54.4149L50.051 49.8608H52.0354L52.9636 52.5418L53.7282 49.8608H55.6527L53.7196 54.8874C53.3243 55.866 52.6628 56.3145 51.6574 56.3145Z" fill="#1DA99D"/>
<path d="M24.7227 61.5655C24.5669 61.5677 24.4143 61.5207 24.2867 61.4312C24.1548 61.3373 24.0515 61.2086 23.9883 61.0595C23.914 60.8862 23.8775 60.6991 23.8814 60.5107V57.0364C23.8814 56.9749 23.9058 56.916 23.9492 56.8725C23.9927 56.8291 24.0516 56.8047 24.1131 56.8047C24.1745 56.8047 24.2334 56.8291 24.2769 56.8725C24.3203 56.916 24.3448 56.9749 24.3448 57.0364V60.5107C24.3382 60.6603 24.3752 60.8086 24.4512 60.9376C24.4779 60.9866 24.5171 61.0277 24.5648 61.0566C24.6125 61.0855 24.667 61.1012 24.7227 61.1021H24.8748C24.9021 61.1014 24.9292 61.1068 24.9541 61.1179C24.979 61.1291 25.0011 61.1456 25.0187 61.1664C25.0572 61.2135 25.0768 61.2731 25.0739 61.3338C25.0749 61.3657 25.0686 61.3974 25.0553 61.4265C25.0421 61.4555 25.0223 61.4811 24.9976 61.5012C24.9414 61.5458 24.8711 61.5686 24.7995 61.5655H24.7227Z" fill="#176D7E"/>
<path d="M27.0575 61.5957C26.7527 61.601 26.452 61.5253 26.1859 61.3765C25.934 61.2345 25.7254 61.0268 25.5825 60.7754C25.4383 60.5064 25.3628 60.206 25.3628 59.9007C25.3628 59.5955 25.4383 59.295 25.5825 59.026C25.725 58.7737 25.9336 58.5651 26.1859 58.4226C26.4533 58.2784 26.7523 58.2029 27.0561 58.2029C27.3598 58.2029 27.6589 58.2784 27.9262 58.4226C28.177 58.5659 28.3844 58.7744 28.5263 59.026C28.6759 59.2943 28.7536 59.5967 28.7517 59.9038C28.7569 60.209 28.6803 60.51 28.5296 60.7754C28.3856 61.0266 28.1773 61.2348 27.9262 61.3789C27.661 61.527 27.3612 61.6018 27.0575 61.5957ZM27.0575 61.1692C27.2797 61.1726 27.4987 61.1158 27.6912 61.0047C27.876 60.8973 28.0279 60.7411 28.1301 60.5533C28.2383 60.3533 28.2929 60.1288 28.2888 59.9015C28.2928 59.6731 28.2381 59.4475 28.1301 59.2462C28.0285 59.0572 27.8766 58.9 27.6912 58.792C27.4973 58.684 27.2791 58.6274 27.0573 58.6274C26.8354 58.6274 26.6172 58.684 26.4234 58.792C26.2375 58.9004 26.0848 59.0574 25.9816 59.2462C25.8717 59.4469 25.816 59.6727 25.8199 59.9015C25.8159 60.1291 25.8716 60.3539 25.9816 60.5533C26.0854 60.7409 26.2381 60.8969 26.4234 61.0047C26.616 61.1158 26.8352 61.1726 27.0575 61.1692Z" fill="#176D7E"/>
<path d="M31.1352 61.5957C30.8364 61.6015 30.5417 61.5268 30.2818 61.3794C30.0359 61.2371 29.8343 61.0294 29.6995 60.7793C29.556 60.5093 29.4837 60.2072 29.4894 59.9015C29.4831 59.5926 29.5589 59.2875 29.7091 59.0174C29.8511 58.7655 30.0599 58.5577 30.3125 58.4169C30.5816 58.2749 30.8813 58.2007 31.1855 58.2007C31.4898 58.2007 31.7894 58.2749 32.0585 58.4169C32.3095 58.5579 32.5164 58.7658 32.6562 59.0174C32.8041 59.2885 32.8806 59.5927 32.8783 59.9015L32.6044 60.0454C32.6095 60.3242 32.5445 60.5998 32.4154 60.8469C32.296 61.0756 32.1155 61.2667 31.894 61.3991C31.6639 61.533 31.4014 61.6011 31.1352 61.5957ZM31.1961 62.8822C30.9036 62.8884 30.6137 62.8268 30.349 62.7023C30.1122 62.5883 29.9055 62.4202 29.7455 62.2116C29.7247 62.1912 29.7086 62.1664 29.6986 62.1391C29.6885 62.1117 29.6848 62.0824 29.6875 62.0533C29.6907 62.0248 29.7004 61.9974 29.7156 61.973C29.7309 61.9487 29.7515 61.9281 29.7757 61.9128C29.8012 61.8949 29.83 61.8825 29.8605 61.8762C29.8909 61.87 29.9223 61.87 29.9527 61.8763C30.0134 61.8859 30.068 61.9187 30.1048 61.968C30.2282 62.118 30.3833 62.2387 30.5591 62.3215C30.7606 62.4142 30.9805 62.46 31.2023 62.4553C31.4187 62.4584 31.6317 62.4014 31.8177 62.2908C32.0026 62.179 32.1534 62.0187 32.2538 61.8274C32.3655 61.611 32.4211 61.37 32.4154 61.1266V60.1999L32.5919 59.8463L32.8798 59.9015V61.1448C32.8847 61.4545 32.8092 61.7601 32.6605 62.0317C32.52 62.2887 32.3139 62.5038 32.0633 62.6553C31.8009 62.8101 31.5006 62.8886 31.1961 62.8822ZM31.1841 61.1693C31.4071 61.1737 31.6272 61.1178 31.8211 61.0076C32.0047 60.9012 32.1554 60.7462 32.2567 60.5596C32.3653 60.3575 32.42 60.1309 32.4154 59.9015C32.4198 59.6711 32.3651 59.4433 32.2567 59.24C32.156 59.0523 32.0052 58.8962 31.8211 58.7891C31.6272 58.6789 31.4071 58.6231 31.1841 58.6275C30.96 58.6233 30.739 58.6791 30.5437 58.7891C30.3582 58.8956 30.2062 59.0517 30.1048 59.24C29.9967 59.4435 29.9422 59.6711 29.9465 59.9015C29.942 60.1308 29.9965 60.3574 30.1048 60.5596C30.2068 60.7467 30.3588 60.9018 30.5437 61.0076C30.739 61.1176 30.96 61.1734 31.1841 61.1693Z" fill="#176D7E"/>
<path d="M34.1221 57.5971C34.079 57.5979 34.0362 57.5897 33.9963 57.5732C33.9564 57.5567 33.9204 57.5322 33.8904 57.5012C33.8588 57.4699 33.834 57.4325 33.8175 57.3912C33.801 57.35 33.7932 57.3058 33.7945 57.2613C33.7925 57.2164 33.8005 57.1716 33.8179 57.1301C33.8353 57.0886 33.8617 57.0515 33.8952 57.0215C33.9596 56.9638 34.0433 56.9324 34.1298 56.9332C34.2144 56.9331 34.296 56.9646 34.3586 57.0215C34.3921 57.0515 34.4185 57.0886 34.4359 57.1301C34.4533 57.1716 34.4613 57.2164 34.4593 57.2613C34.4596 57.3055 34.4512 57.3493 34.4344 57.3902C34.4177 57.4311 34.3929 57.4682 34.3617 57.4995C34.3304 57.5307 34.2933 57.5555 34.2524 57.5722C34.2115 57.589 34.1677 57.5974 34.1235 57.5971H34.1221ZM34.1279 61.5655C34.0956 61.5684 34.0632 61.5641 34.0328 61.5531C34.0024 61.5421 33.9748 61.5245 33.9519 61.5016C33.9291 61.4787 33.9115 61.4511 33.9004 61.4207C33.8894 61.3903 33.8852 61.3579 33.888 61.3257V58.4668C33.885 58.4345 33.8891 58.402 33.9001 58.3715C33.9111 58.341 33.9286 58.3134 33.9515 58.2905C33.9745 58.2676 34.0021 58.25 34.0326 58.239C34.0631 58.228 34.0956 58.2239 34.1279 58.2269C34.1587 58.2256 34.1895 58.2306 34.2184 58.2415C34.2473 58.2525 34.2736 58.2692 34.2958 58.2907C34.3176 58.3138 34.3345 58.3412 34.3455 58.371C34.3565 58.4009 34.3612 58.4326 34.3595 58.4644V61.3233C34.3613 61.355 34.3566 61.3868 34.3456 61.4167C34.3346 61.4466 34.3177 61.4739 34.2958 61.4969C34.274 61.5193 34.2478 61.5369 34.2189 61.5487C34.1901 61.5605 34.1591 61.5662 34.1279 61.5655Z" fill="#176D7E"/>
<path d="M36.7185 61.5958C36.4756 61.5954 36.2345 61.5543 36.0052 61.474C35.7861 61.4034 35.5888 61.2775 35.4325 61.1084C35.4112 61.0871 35.3952 61.0612 35.3856 61.0327C35.376 61.0041 35.3732 60.9737 35.3773 60.9439C35.3866 60.8813 35.4193 60.8245 35.469 60.7851C35.5176 60.7479 35.5785 60.7303 35.6395 60.736C35.7005 60.7417 35.7571 60.7702 35.798 60.8158C35.9027 60.9346 36.036 61.0247 36.1851 61.0777C36.3559 61.1405 36.5366 61.1716 36.7185 61.1694C37.0191 61.1694 37.2366 61.1175 37.3709 61.0139C37.4322 60.9718 37.4828 60.9159 37.5187 60.8508C37.5547 60.7857 37.575 60.7131 37.5781 60.6388C37.5781 60.4924 37.509 60.3715 37.3709 60.2762C37.2328 60.1809 37.0051 60.1075 36.6878 60.056C36.2775 59.9921 35.9769 59.8784 35.786 59.715C35.5951 59.5516 35.4992 59.3584 35.4982 59.1355C35.4916 58.9489 35.5499 58.7658 35.6632 58.6175C35.7781 58.4754 35.93 58.3678 36.1021 58.3066C36.2953 58.2357 36.4998 58.2006 36.7056 58.203C36.9476 58.197 37.188 58.2449 37.4093 58.3431C37.5971 58.4289 37.7616 58.5585 37.889 58.7211C37.9078 58.7437 37.9218 58.77 37.93 58.7983C37.9383 58.8267 37.9406 58.8563 37.9369 58.8856C37.9324 58.9147 37.9215 58.9424 37.9049 58.9667C37.8883 58.991 37.8664 59.0113 37.841 59.0261C37.7902 59.0548 37.7309 59.0645 37.6736 59.0535C37.6111 59.0437 37.554 59.0125 37.5119 58.9652C37.4165 58.8519 37.2953 58.763 37.1584 58.7062C37.0108 58.6487 36.8534 58.6207 36.695 58.6237C36.4712 58.6237 36.2924 58.6694 36.1587 58.7609C36.0244 58.8525 35.9578 58.9671 35.9578 59.1053C35.9557 59.1926 35.9823 59.2782 36.0335 59.349C36.1033 59.432 36.1939 59.495 36.2959 59.5317C36.4638 59.5966 36.6386 59.6417 36.8169 59.666C37.1219 59.715 37.3627 59.7871 37.5393 59.8824C37.6936 59.9576 37.8244 60.0737 37.9173 60.2182C37.9921 60.3446 38.031 60.489 38.03 60.636C38.0331 60.8177 37.974 60.9951 37.8626 61.1387C37.7405 61.2896 37.5806 61.4054 37.3992 61.4744C37.1825 61.5593 36.9512 61.6006 36.7185 61.5958Z" fill="#176D7E"/>
<path d="M38.6262 58.7608C38.5983 58.7617 38.5705 58.7571 38.5444 58.7472C38.5183 58.7373 38.4944 58.7224 38.4741 58.7033C38.4543 58.6849 38.4387 58.6627 38.4281 58.6379C38.4175 58.6131 38.4123 58.5863 38.4127 58.5594C38.4118 58.5316 38.4168 58.5039 38.4274 58.4782C38.4379 58.4525 38.4539 58.4293 38.4741 58.4102C38.4943 58.3909 38.5182 58.3758 38.5443 58.3659C38.5704 58.3559 38.5982 58.3512 38.6262 58.3521H40.1808C40.2087 58.3512 40.2366 58.3559 40.2627 58.3659C40.2888 58.3758 40.3126 58.3909 40.3329 58.4102C40.3531 58.4293 40.369 58.4525 40.3796 58.4782C40.3902 58.5039 40.3952 58.5316 40.3943 58.5594C40.3947 58.5863 40.3895 58.6131 40.3789 58.6379C40.3683 58.6627 40.3526 58.6849 40.3329 58.7033C40.3126 58.7224 40.2887 58.7373 40.2626 58.7472C40.2365 58.7571 40.2087 58.7617 40.1808 58.7608H38.6262ZM40.1439 61.565C39.9447 61.5688 39.7482 61.5177 39.5762 61.4171C39.4042 61.3166 39.2632 61.1706 39.1687 60.9952C39.0697 60.8085 39.0201 60.5996 39.0248 60.3884V57.4081C39.0229 57.345 39.046 57.2836 39.0891 57.2374C39.1107 57.2151 39.1368 57.1976 39.1656 57.1862C39.1945 57.1747 39.2254 57.1694 39.2565 57.1707C39.2884 57.1691 39.3203 57.1742 39.3501 57.1857C39.3799 57.1972 39.407 57.2148 39.4296 57.2374C39.4522 57.26 39.4698 57.2871 39.4813 57.3169C39.4928 57.3467 39.4979 57.3786 39.4963 57.4105V60.3913C39.4887 60.5782 39.5543 60.7608 39.6791 60.9002C39.7383 60.9651 39.8109 61.0165 39.8919 61.0507C39.9729 61.0849 40.0603 61.1011 40.1482 61.0983H40.3132C40.3429 61.0974 40.3724 61.1029 40.3997 61.1145C40.4271 61.1261 40.4516 61.1435 40.4715 61.1655C40.513 61.2124 40.5348 61.2736 40.5324 61.3362C40.5335 61.3679 40.5275 61.3993 40.5148 61.4283C40.5021 61.4573 40.483 61.483 40.459 61.5036C40.4083 61.5472 40.3431 61.5702 40.2763 61.5679L40.1439 61.565Z" fill="#176D7E"/>
<path d="M41.6194 57.5971C41.5763 57.5979 41.5335 57.5897 41.4936 57.5732C41.4538 57.5567 41.4177 57.5322 41.3877 57.5012C41.3561 57.4699 41.3313 57.4325 41.3148 57.3912C41.2983 57.35 41.2905 57.3058 41.2918 57.2613C41.2898 57.2164 41.2978 57.1716 41.3152 57.1301C41.3326 57.0886 41.3591 57.0515 41.3925 57.0215C41.457 56.9638 41.5406 56.9324 41.6271 56.9332C41.7117 56.9331 41.7933 56.9646 41.8559 57.0215C41.8894 57.0515 41.9158 57.0886 41.9332 57.1301C41.9506 57.1716 41.9586 57.2164 41.9566 57.2613C41.957 57.3055 41.9485 57.3493 41.9317 57.3902C41.915 57.4311 41.8902 57.4682 41.859 57.4995C41.8278 57.5307 41.7906 57.5555 41.7497 57.5722C41.7089 57.589 41.665 57.5974 41.6209 57.5971H41.6194ZM41.6252 61.5655C41.5932 61.568 41.561 61.5635 41.5309 61.5523C41.5008 61.5411 41.4735 61.5235 41.4509 61.5006C41.4283 61.4778 41.4109 61.4503 41.4 61.4201C41.3891 61.3899 41.3849 61.3577 41.3877 61.3257V58.4668C41.3848 58.4347 41.3888 58.4024 41.3997 58.3722C41.4105 58.3419 41.4279 58.3143 41.4505 58.2915C41.4731 58.2686 41.5005 58.251 41.5307 58.2398C41.5609 58.2287 41.5931 58.2243 41.6252 58.2269C41.656 58.2256 41.6868 58.2306 41.7157 58.2415C41.7446 58.2525 41.7709 58.2692 41.7931 58.2907C41.8149 58.3138 41.8318 58.3412 41.8428 58.371C41.8538 58.4009 41.8586 58.4326 41.8569 58.4644V61.3233C41.8586 61.355 41.8539 61.3868 41.8429 61.4167C41.832 61.4466 41.815 61.4739 41.7931 61.4969C41.7713 61.5193 41.7451 61.5369 41.7163 61.5487C41.6874 61.5605 41.6564 61.5662 41.6252 61.5655Z" fill="#176D7E"/>
<path d="M44.5388 61.5957C44.2385 61.6012 43.9424 61.5244 43.6826 61.3736C43.435 61.2275 43.2309 61.018 43.0911 60.7668C42.945 60.5028 42.8704 60.2051 42.8748 59.9034C42.8695 59.5999 42.9408 59.3 43.082 59.0313C43.2142 58.7821 43.4106 58.5728 43.6509 58.425C43.9006 58.274 44.188 58.1968 44.4798 58.2024C44.7162 58.1993 44.9505 58.2484 45.1657 58.3463C45.3808 58.4485 45.5695 58.5986 45.7174 58.7852C45.7378 58.805 45.7529 58.8296 45.7613 58.8568C45.7697 58.884 45.7711 58.9128 45.7653 58.9407C45.7501 58.9999 45.7131 59.0513 45.6617 59.0846C45.6406 59.1004 45.6163 59.1116 45.5905 59.1174C45.5647 59.1232 45.538 59.1234 45.5121 59.1181C45.4549 59.107 45.4038 59.0755 45.3682 59.0294C45.2591 58.9003 45.1225 58.7973 44.9685 58.7277C44.8144 58.6582 44.6468 58.6239 44.4779 58.6274C44.2661 58.623 44.0577 58.6802 43.8778 58.792C43.7045 58.9021 43.5651 59.0582 43.4753 59.2429C43.3765 59.4481 43.3272 59.6737 43.3314 59.9015C43.3274 60.1281 43.3798 60.3521 43.484 60.5533C43.5817 60.7405 43.7295 60.8968 43.9109 61.0047C44.1009 61.1162 44.318 61.1731 44.5383 61.1693C44.6861 61.1708 44.8333 61.1491 44.9743 61.105C45.1037 61.0639 45.2231 60.9965 45.325 60.9069C45.3673 60.8691 45.4206 60.8457 45.477 60.8402C45.5295 60.8366 45.5812 60.8539 45.621 60.8882C45.6665 60.9269 45.6959 60.9813 45.7035 61.0407C45.7063 61.0676 45.7025 61.0948 45.6924 61.1199C45.6823 61.145 45.6661 61.1672 45.6454 61.1846C45.3509 61.459 44.982 61.596 44.5388 61.5957Z" fill="#176D7E"/>
<path d="M47.8428 61.5958C47.5999 61.5955 47.3587 61.5543 47.1295 61.474C46.9101 61.4035 46.7127 61.2776 46.5563 61.1084C46.5352 61.087 46.5193 61.0611 46.5098 61.0325C46.5003 61.004 46.4975 60.9737 46.5016 60.9439C46.5106 60.8812 46.5434 60.8244 46.5932 60.7851C46.6418 60.7479 46.7027 60.7303 46.7638 60.736C46.8248 60.7417 46.8814 60.7702 46.9223 60.8158C47.027 60.9346 47.1602 61.0247 47.3094 61.0777C47.4801 61.1406 47.6609 61.1716 47.8428 61.1694C48.1434 61.1694 48.3607 61.1176 48.4947 61.0139C48.5559 60.9718 48.6065 60.9159 48.6425 60.8508C48.6785 60.7857 48.6988 60.7131 48.7019 60.6388C48.7019 60.4924 48.6328 60.3715 48.4947 60.2762C48.3565 60.1809 48.129 60.1075 47.8121 60.056C47.4015 59.9921 47.1007 59.8784 46.9098 59.715C46.7189 59.5516 46.6229 59.3584 46.622 59.1355C46.6154 58.949 46.6735 58.766 46.7865 58.6175C46.9016 58.4756 47.0534 58.3681 47.2254 58.3066C47.4186 58.2358 47.6231 58.2007 47.8289 58.203C48.0711 58.197 48.3116 58.2448 48.533 58.3431C48.7208 58.429 48.8852 58.5586 49.0127 58.7211C49.0316 58.7437 49.0456 58.77 49.0538 58.7984C49.0621 58.8267 49.0644 58.8564 49.0607 58.8856C49.0561 58.9147 49.0451 58.9423 49.0285 58.9666C49.0119 58.9909 48.9901 59.0113 48.9647 59.0262C48.9139 59.0548 48.8546 59.0645 48.7973 59.0535C48.7349 59.0437 48.6777 59.0125 48.6357 58.9652C48.5402 58.8519 48.419 58.763 48.2822 58.7062C48.1346 58.6487 47.9772 58.6207 47.8188 58.6237C47.5949 58.6237 47.4162 58.6694 47.2825 58.7609C47.1488 58.8523 47.0817 58.9672 47.081 59.1053C47.0791 59.1927 47.1059 59.2783 47.1573 59.349C47.2271 59.432 47.3176 59.4951 47.4197 59.5317C47.5875 59.5966 47.7624 59.6417 47.9406 59.666C48.2451 59.715 48.4859 59.7871 48.663 59.8824C48.8173 59.9577 48.948 60.0738 49.041 60.2182C49.1155 60.3447 49.1545 60.4891 49.1537 60.636C49.1567 60.8178 49.0974 60.9951 48.9859 61.1387C48.864 61.2896 48.7042 61.4054 48.523 61.4744C48.3064 61.5592 48.0753 61.6005 47.8428 61.5958Z" fill="#176D7E"/>
<path d="M41.1922 30.3383C36.1219 30.3383 41.1922 36.4436 41.1922 36.4436C41.1922 36.4436 46.2619 30.3383 41.1922 30.3383ZM41.1922 34.2002C40.8532 34.2003 40.5219 34.0998 40.2401 33.9116C39.9583 33.7234 39.7386 33.4559 39.6088 33.1428C39.4791 32.8297 39.4451 32.4852 39.5111 32.1528C39.5772 31.8204 39.7403 31.515 39.9799 31.2753C40.2195 31.0357 40.5248 30.8724 40.8572 30.8063C41.1896 30.7401 41.5341 30.774 41.8473 30.9037C42.1604 31.0334 42.428 31.253 42.6163 31.5348C42.8046 31.8166 42.9051 32.1478 42.9051 32.4867C42.9053 32.7118 42.8611 32.9347 42.7751 33.1427C42.6891 33.3507 42.563 33.5397 42.4039 33.6989C42.2448 33.8581 42.0559 33.9844 41.848 34.0706C41.6401 34.1568 41.4172 34.2011 41.1922 34.2011V34.2002Z" fill="#1DA99D"/>
<path d="M41.192 31.0079C40.8993 31.0078 40.6133 31.0945 40.3699 31.257C40.1266 31.4196 39.9369 31.6506 39.8249 31.9209C39.7128 32.1913 39.6835 32.4887 39.7406 32.7758C39.7976 33.0628 39.9385 33.3264 40.1454 33.5333C40.3524 33.7402 40.616 33.8811 40.903 33.9382C41.19 33.9953 41.4875 33.9659 41.7578 33.8539C42.0282 33.7419 42.2592 33.5522 42.4217 33.3088C42.5842 33.0655 42.6709 32.7794 42.6708 32.4868C42.6708 32.0946 42.515 31.7184 42.2377 31.4411C41.9603 31.1637 41.5842 31.0079 41.192 31.0079ZM41.192 33.7277C40.9466 33.7276 40.7067 33.6548 40.5027 33.5184C40.2987 33.3819 40.1397 33.1881 40.0458 32.9613C39.952 32.7346 39.9275 32.4851 39.9754 32.2444C40.0234 32.0037 40.1416 31.7826 40.3151 31.6091C40.4887 31.4356 40.7098 31.3175 40.9505 31.2697C41.1912 31.2218 41.4407 31.2464 41.6674 31.3404C41.8942 31.4343 42.0879 31.5934 42.2243 31.7974C42.3606 32.0015 42.4334 32.2414 42.4334 32.4868C42.4333 32.8159 42.3024 33.1316 42.0696 33.3643C41.8368 33.597 41.5211 33.7277 41.192 33.7277Z" fill="#1DA99D"/>
<path d="M41.7672 37.6357C41.7672 37.7495 41.7334 37.8608 41.6702 37.9555C41.6069 38.0501 41.517 38.1239 41.4119 38.1675C41.3067 38.211 41.1909 38.2224 41.0793 38.2002C40.9676 38.178 40.8651 38.1232 40.7846 38.0427C40.7041 37.9622 40.6492 37.8596 40.627 37.748C40.6048 37.6363 40.6162 37.5206 40.6598 37.4154C40.7033 37.3102 40.7771 37.2203 40.8718 37.1571C40.9664 37.0938 41.0777 37.0601 41.1916 37.0601C41.3442 37.0601 41.4907 37.1207 41.5986 37.2287C41.7066 37.3366 41.7672 37.483 41.7672 37.6357Z" fill="#1DA99D"/>
<path d="M36.6561 32.0124C36.9205 31.7316 37.1064 31.3862 37.1951 31.0108C37.2839 30.6355 37.2723 30.2434 37.1617 29.874L34.8645 22.2048C34.786 21.9432 34.7771 21.6655 34.8386 21.3994C34.9002 21.1332 35.0302 20.8877 35.2157 20.6871L37.2874 18.4441C37.8038 17.8854 38.1874 17.2172 38.4094 16.4894L38.5533 16.017C38.5796 15.9318 38.5814 15.841 38.5586 15.7548C38.5358 15.6686 38.4892 15.5906 38.4242 15.5296C38.3592 15.4686 38.2784 15.4271 38.191 15.4098C38.1035 15.3925 38.013 15.4001 37.9297 15.4317L37.4668 15.604C36.754 15.8699 36.1103 16.293 35.5836 16.842L33.4701 19.0485C33.281 19.2457 33.0438 19.3902 32.7819 19.4677C32.5199 19.5453 32.2423 19.5532 31.9764 19.4908L24.1844 17.6608C23.809 17.5726 23.4169 17.5847 23.0476 17.6959C22.6783 17.8071 22.3448 18.0136 22.0806 18.2945C25.3966 19.1704 28.7774 21.0728 30.1565 21.9012C30.2005 21.9277 30.2379 21.9638 30.2661 22.0067C30.2942 22.0497 30.3123 22.0984 30.3191 22.1494C30.3258 22.2003 30.321 22.2521 30.3049 22.3009C30.2889 22.3497 30.2621 22.3942 30.2265 22.4312L29.6442 22.1132C29.5075 22.0381 29.3475 22.0175 29.1962 22.0555C29.045 22.0935 28.9137 22.1873 28.8287 22.318L28.3553 23.0476C28.2912 23.1462 28.2616 23.2633 28.2713 23.3805C28.2814 23.5027 28.2488 23.6245 28.1792 23.7254L28.0022 23.9825L28.2828 23.7729C28.37 23.7076 28.4752 23.671 28.5841 23.6679L28.7678 23.6621L29.0623 23.6477L28.6143 24.1149C28.3266 24.4152 28.078 24.7508 27.8746 25.1136L26.8519 26.9393L24.6987 26.0279C24.4746 25.9335 24.2252 25.9177 23.9909 25.9829C23.7567 26.0481 23.5514 26.1906 23.4083 26.3872L22.9627 26.9992L26.083 28.3092L25.7986 28.8177C25.7883 28.8355 25.7844 28.8563 25.7874 28.8767C25.7904 28.897 25.8002 28.9158 25.8151 28.9299C25.8301 28.944 25.8494 28.9527 25.8699 28.9545C25.8903 28.9564 25.9109 28.9513 25.9281 28.94L26.4183 28.6249L27.9144 31.6588L28.503 31.1729C28.6895 31.019 28.8188 30.8068 28.8701 30.5705C28.9214 30.3342 28.8918 30.0876 28.786 29.8701L27.7595 27.7595L29.5003 26.6424C29.8502 26.4175 30.1701 26.1491 30.4524 25.8437L30.8918 25.3678L30.8952 25.6628L30.9009 25.8466C30.9044 25.9554 30.874 26.0626 30.8141 26.1536L30.6222 26.4466L30.8683 26.2548C30.9649 26.1794 31.0845 26.1397 31.207 26.1425C31.3245 26.145 31.4396 26.1084 31.5341 26.0384L32.2344 25.5189C32.3598 25.4262 32.4455 25.2894 32.4742 25.1361C32.5029 24.9828 32.4726 24.8243 32.3894 24.6925L32.0349 24.1307C32.0696 24.0929 32.1124 24.0633 32.1601 24.0443C32.2079 24.0253 32.2593 24.0174 32.3105 24.021C32.3617 24.0246 32.4115 24.0398 32.4561 24.0654C32.5006 24.0909 32.5388 24.1262 32.5678 24.1686C33.4773 25.4964 35.5812 28.7553 36.6561 32.0124Z" fill="#1DA99D"/>
<path d="M25.3389 37.5144C25.3274 37.5537 25.314 37.5935 25.2991 37.6319C25.2926 37.6484 25.2798 37.6617 25.2635 37.6688C25.2473 37.6759 25.2289 37.6762 25.2123 37.6698C25.2041 37.6666 25.1966 37.6618 25.1902 37.6557C25.1839 37.6496 25.1788 37.6423 25.1753 37.6343C25.1717 37.6262 25.1699 37.6175 25.1697 37.6087C25.1696 37.5999 25.1712 37.5911 25.1744 37.583C25.2257 37.4522 25.2555 37.3141 25.2627 37.1738C25.2631 37.165 25.2652 37.1564 25.2689 37.1485C25.2726 37.1406 25.2778 37.1334 25.2842 37.1275C25.2907 37.1216 25.2983 37.117 25.3065 37.114C25.3147 37.111 25.3235 37.1096 25.3322 37.11C25.341 37.1104 25.3496 37.1125 25.3575 37.1162C25.3655 37.1199 25.3726 37.1251 25.3785 37.1316C25.3845 37.138 25.3891 37.1456 25.3921 37.1538C25.3951 37.1621 25.3964 37.1708 25.396 37.1796C25.3908 37.2931 25.3716 37.4055 25.3389 37.5144ZM25.0814 38.0094C25.079 38.0176 25.0751 38.0252 25.0698 38.0319C24.9752 38.154 24.8619 38.2604 24.7341 38.3471C24.7268 38.352 24.7186 38.3554 24.71 38.3571C24.7014 38.3588 24.6926 38.3588 24.684 38.3572C24.6754 38.3555 24.6672 38.3521 24.6599 38.3472C24.6526 38.3424 24.6464 38.3361 24.6415 38.3289C24.6366 38.3216 24.6332 38.3134 24.6315 38.3048C24.6298 38.2962 24.6297 38.2874 24.6314 38.2788C24.6331 38.2702 24.6365 38.262 24.6413 38.2547C24.6462 38.2474 24.6524 38.2412 24.6597 38.2363C24.7765 38.157 24.8801 38.0599 24.9667 37.9485C24.9722 37.9414 24.9791 37.9355 24.987 37.9311C24.9948 37.9266 25.0034 37.9239 25.0124 37.9228C25.0213 37.9218 25.0303 37.9226 25.039 37.9251C25.0476 37.9276 25.0557 37.9318 25.0627 37.9374C25.0726 37.9462 25.0796 37.9578 25.083 37.9706C25.0863 37.9834 25.0857 37.9969 25.0814 38.0094ZM25.3313 36.7622C25.3281 36.7725 25.3226 36.7819 25.3151 36.7896C25.3075 36.7972 25.2983 36.803 25.2881 36.8064C25.2798 36.8092 25.271 36.8104 25.2622 36.8098C25.2535 36.8092 25.2449 36.8069 25.237 36.8029C25.2292 36.799 25.2222 36.7936 25.2165 36.7869C25.2107 36.7802 25.2064 36.7725 25.2037 36.7641C25.1593 36.6306 25.0946 36.5047 25.0118 36.391C25.0066 36.3839 25.0029 36.3758 25.0009 36.3673C24.9988 36.3588 24.9984 36.3499 24.9998 36.3413C25.0012 36.3326 25.0042 36.3243 25.0088 36.3168C25.0133 36.3093 25.0193 36.3028 25.0264 36.2977C25.0335 36.2925 25.0416 36.2888 25.0501 36.2867C25.0586 36.2847 25.0675 36.2843 25.0761 36.2857C25.0848 36.287 25.0931 36.2901 25.1006 36.2946C25.1081 36.2992 25.1146 36.3052 25.1197 36.3123C25.2113 36.437 25.283 36.5752 25.3322 36.7219C25.3353 36.7344 25.335 36.7475 25.3313 36.7598V36.7622ZM24.3556 38.4891C24.3527 38.5007 24.3467 38.5112 24.3382 38.5197C24.3298 38.5281 24.3192 38.5341 24.3076 38.537C24.1737 38.5668 24.0354 38.571 23.8999 38.5495C23.8798 38.5462 23.8601 38.5428 23.8404 38.5385C23.8318 38.5367 23.8237 38.5332 23.8164 38.5283C23.8092 38.5233 23.8029 38.517 23.7981 38.5096C23.7933 38.5023 23.79 38.4941 23.7884 38.4854C23.7867 38.4768 23.7868 38.4679 23.7886 38.4593C23.7904 38.4507 23.7939 38.4426 23.7988 38.4353C23.8038 38.4281 23.8101 38.4219 23.8175 38.417C23.8248 38.4122 23.833 38.4089 23.8417 38.4073C23.8503 38.4057 23.8592 38.4057 23.8678 38.4075L23.921 38.4176C24.0399 38.4364 24.1613 38.4327 24.2789 38.4066C24.2874 38.4047 24.2963 38.4045 24.3049 38.406C24.3136 38.4075 24.3218 38.4107 24.3292 38.4155C24.3366 38.4202 24.343 38.4263 24.348 38.4335C24.3531 38.4407 24.3566 38.4488 24.3585 38.4574C24.3599 38.4673 24.3589 38.4773 24.3556 38.4867V38.4891ZM24.8209 36.0533C24.8183 36.0614 24.8144 36.069 24.8094 36.0758C24.8039 36.0829 24.797 36.0889 24.7891 36.0933C24.7813 36.0977 24.7726 36.1004 24.7636 36.1014C24.7547 36.1024 24.7456 36.1016 24.737 36.099C24.7284 36.0964 24.7204 36.0921 24.7134 36.0864C24.6017 35.9979 24.4798 35.923 24.3503 35.8633C24.3356 35.855 24.3245 35.8414 24.3194 35.8253C24.3142 35.8092 24.3153 35.7918 24.3225 35.7764C24.3296 35.7611 24.3423 35.749 24.3579 35.7426C24.3736 35.7363 24.3911 35.736 24.4069 35.742C24.5457 35.8063 24.6765 35.8868 24.7964 35.9818C24.8068 35.9897 24.8147 36.0004 24.819 36.0127C24.8233 36.0249 24.824 36.0382 24.8209 36.0509V36.0533ZM21.359 45.8709C21.3542 45.8879 21.3428 45.9024 21.3273 45.911C21.3119 45.9196 21.2936 45.9218 21.2765 45.9169C21.2595 45.9121 21.2451 45.9007 21.2364 45.8852C21.2278 45.8697 21.2257 45.8515 21.2305 45.8344C21.2669 45.7001 21.3 45.5567 21.3264 45.408C21.3299 45.3907 21.34 45.3754 21.3547 45.3654C21.3693 45.3555 21.3872 45.3516 21.4046 45.3547C21.4133 45.3564 21.4215 45.3597 21.4289 45.3645C21.4362 45.3693 21.4426 45.3755 21.4475 45.3828C21.4524 45.39 21.4559 45.3982 21.4577 45.4068C21.4595 45.4154 21.4595 45.4243 21.4579 45.4329C21.4286 45.585 21.395 45.7318 21.3576 45.8694L21.359 45.8709ZM21.2233 46.2925V46.2968C21.1704 46.4376 21.1093 46.5752 21.0405 46.7089C21.0318 46.7236 21.0177 46.7344 21.0012 46.7391C20.9847 46.7438 20.967 46.742 20.9518 46.7341C20.9366 46.7262 20.925 46.7128 20.9194 46.6966C20.9138 46.6804 20.9145 46.6626 20.9216 46.647C20.9881 46.5182 21.047 46.3855 21.0981 46.2498C21.1044 46.2333 21.1171 46.2199 21.1333 46.2126C21.1494 46.2053 21.1678 46.2047 21.1844 46.211C21.2 46.2171 21.2127 46.229 21.2199 46.2441C21.2271 46.2592 21.2283 46.2765 21.2233 46.2925ZM21.5284 45.0022C21.5265 45.0107 21.523 45.0189 21.5181 45.0261C21.5131 45.0333 21.5068 45.0395 21.4994 45.0442C21.4921 45.049 21.4839 45.0523 21.4752 45.0539C21.4666 45.0555 21.4578 45.0553 21.4492 45.0535C21.4407 45.0517 21.4325 45.0482 21.4253 45.0432C21.4181 45.0382 21.4119 45.0319 21.4072 45.0246C21.4024 45.0172 21.3991 45.009 21.3975 45.0004C21.3959 44.9918 21.3961 44.9829 21.3979 44.9744C21.408 44.899 21.4171 44.8209 21.4257 44.7412C21.4324 44.6741 21.4391 44.6055 21.4454 44.5369C21.4482 44.5202 21.4572 44.5053 21.4706 44.495C21.484 44.4847 21.5008 44.4798 21.5176 44.4813C21.5344 44.4828 21.5501 44.4906 21.5614 44.5031C21.5727 44.5157 21.5789 44.532 21.5787 44.5489C21.5725 44.618 21.5658 44.6875 21.5586 44.7556C21.55 44.8357 21.5404 44.9154 21.5303 44.9921C21.5299 44.9955 21.5292 44.9989 21.5284 45.0022ZM23.5099 38.3183C23.508 38.3243 23.5054 38.3301 23.5023 38.3356C23.4925 38.3504 23.4774 38.3608 23.4601 38.3646C23.4428 38.3683 23.4247 38.3652 23.4097 38.3557C23.2802 38.2714 23.1637 38.1686 23.0638 38.0507C23.0535 38.037 23.0488 38.0199 23.0507 38.0028C23.0526 37.9858 23.0609 37.9702 23.074 37.9591C23.087 37.948 23.1038 37.9423 23.1209 37.9432C23.138 37.9441 23.1542 37.9515 23.166 37.9638C23.2569 38.072 23.3635 38.1661 23.4821 38.243C23.4942 38.2509 23.5035 38.2625 23.5085 38.276C23.5135 38.2896 23.514 38.3044 23.5099 38.3183ZM20.8141 47.0754C20.8118 47.0823 20.8086 47.0889 20.8045 47.095C20.7604 47.1564 20.7143 47.2169 20.6664 47.2744C20.6184 47.332 20.5671 47.3886 20.5129 47.4423C20.5067 47.4488 20.4993 47.454 20.491 47.4575C20.4828 47.4611 20.4739 47.4629 20.4649 47.4629C20.4559 47.4629 20.4471 47.4611 20.4388 47.4575C20.4306 47.454 20.4231 47.4488 20.4169 47.4423C20.4106 47.4361 20.4055 47.4286 20.402 47.4204C20.3986 47.4121 20.3968 47.4033 20.3968 47.3943C20.3968 47.3854 20.3986 47.3766 20.402 47.3683C20.4055 47.3601 20.4106 47.3526 20.4169 47.3464C20.4675 47.2959 20.5156 47.2429 20.5609 47.1876C20.6064 47.1329 20.6506 47.0749 20.6923 47.0159C20.7015 47.003 20.715 46.9939 20.7304 46.99C20.7458 46.9861 20.762 46.9878 20.7762 46.9948C20.7905 47.0017 20.8018 47.0135 20.8082 47.028C20.8146 47.0424 20.8157 47.0587 20.8112 47.0739L20.8141 47.0754ZM21.6066 44.12C21.6023 44.1361 21.5922 44.15 21.5782 44.1591C21.5643 44.1681 21.5474 44.1715 21.531 44.1688C21.5146 44.166 21.4998 44.1572 21.4896 44.1441C21.4793 44.131 21.4743 44.1146 21.4756 44.098C21.4828 43.9541 21.4876 43.8039 21.489 43.6576C21.4905 43.6409 21.4981 43.6252 21.5105 43.6139C21.5229 43.6025 21.5391 43.5962 21.5559 43.5962C21.5728 43.5962 21.589 43.6025 21.6014 43.6139C21.6138 43.6252 21.6214 43.6409 21.6229 43.6576C21.6229 43.8054 21.6166 43.955 21.6094 44.1028C21.6091 44.1086 21.6082 44.1144 21.6066 44.12ZM24.0256 35.6777C24.0212 35.6942 24.0106 35.7083 23.996 35.7172C23.9815 35.7262 23.9641 35.7292 23.9474 35.7256C23.8081 35.696 23.6658 35.6828 23.5234 35.6863C23.5056 35.6867 23.4885 35.6801 23.4756 35.6678C23.4628 35.6556 23.4553 35.6388 23.4548 35.6211C23.4544 35.6123 23.4559 35.6036 23.459 35.5953C23.4621 35.5871 23.4668 35.5796 23.4728 35.5732C23.4788 35.5668 23.486 35.5617 23.4941 35.5582C23.5021 35.5546 23.5107 35.5527 23.5195 35.5525C23.6726 35.5486 23.8255 35.563 23.9752 35.5952C23.9838 35.5969 23.992 35.6004 23.9992 35.6053C24.0065 35.6103 24.0127 35.6166 24.0174 35.624C24.0222 35.6314 24.0255 35.6396 24.0271 35.6482C24.0286 35.6569 24.0284 35.6657 24.0265 35.6743C24.0264 35.6759 24.0261 35.6776 24.0256 35.6791V35.6777ZM21.6171 43.2346C21.6128 43.2501 21.6031 43.2635 21.5897 43.2724C21.5763 43.2813 21.5601 43.285 21.5441 43.2829C21.5282 43.2808 21.5135 43.273 21.5028 43.261C21.4922 43.2489 21.4863 43.2334 21.4862 43.2173C21.4823 43.071 21.4756 42.9228 21.466 42.7774C21.4649 42.7683 21.4657 42.7591 21.4683 42.7503C21.4709 42.7416 21.4753 42.7334 21.4811 42.7264C21.487 42.7194 21.4942 42.7136 21.5024 42.7095C21.5105 42.7054 21.5195 42.7029 21.5286 42.7024C21.5377 42.7018 21.5469 42.7031 21.5555 42.7062C21.5641 42.7094 21.572 42.7142 21.5787 42.7205C21.5853 42.7267 21.5906 42.7343 21.5943 42.7427C21.5979 42.7511 21.5998 42.7601 21.5998 42.7693C21.609 42.916 21.6157 43.0657 21.6195 43.2139C21.62 43.2209 21.6191 43.2279 21.6171 43.2346ZM20.1896 47.6956C20.185 47.7101 20.1757 47.7228 20.1632 47.7316C20.0382 47.8175 19.9057 47.8922 19.7675 47.9546C19.7522 47.958 19.7363 47.9561 19.7224 47.949C19.7084 47.942 19.6974 47.9303 19.6912 47.916C19.6849 47.9017 19.6838 47.8856 19.6881 47.8706C19.6924 47.8556 19.7018 47.8426 19.7147 47.8337C19.8457 47.7749 19.9711 47.7042 20.0893 47.6227C20.0966 47.6177 20.1047 47.6141 20.1133 47.6123C20.1219 47.6104 20.1308 47.6103 20.1395 47.6119C20.1481 47.6135 20.1563 47.6168 20.1637 47.6216C20.1711 47.6265 20.1774 47.6327 20.1824 47.6399C20.1877 47.6483 20.1911 47.6578 20.1924 47.6677C20.1936 47.6775 20.1927 47.6876 20.1896 47.697V47.6956ZM21.5605 42.351C21.556 42.3658 21.5465 42.3785 21.5337 42.3871C21.5209 42.3957 21.5055 42.3997 21.4902 42.3983C21.4748 42.3969 21.4604 42.3902 21.4493 42.3794C21.4383 42.3686 21.4313 42.3543 21.4296 42.339C21.4243 42.2848 21.418 42.2306 21.4118 42.1764C21.4017 42.0881 21.3902 41.9984 21.3768 41.9015C21.3744 41.884 21.379 41.8662 21.3897 41.852C21.4004 41.8379 21.4163 41.8286 21.4339 41.8262C21.4514 41.8238 21.4692 41.8285 21.4833 41.8392C21.4975 41.8499 21.5068 41.8657 21.5092 41.8833C21.5226 41.9792 21.5341 42.0718 21.5447 42.161C21.5509 42.2157 21.5571 42.2704 21.5624 42.3251C21.5635 42.3338 21.5629 42.3426 21.5605 42.351ZM22.9372 37.6549C22.9332 37.6677 22.9255 37.679 22.915 37.6874C22.9046 37.6958 22.8918 37.7009 22.8785 37.702C22.8651 37.703 22.8517 37.7001 22.8401 37.6935C22.8284 37.6869 22.8189 37.677 22.813 37.665C22.7731 37.5838 22.7391 37.4997 22.7113 37.4136C22.6926 37.3556 22.6758 37.2952 22.6633 37.2338C22.6607 37.217 22.6646 37.1999 22.6741 37.1859C22.6836 37.1719 22.698 37.162 22.7145 37.1582C22.731 37.1543 22.7483 37.1569 22.763 37.1653C22.7777 37.1737 22.7887 37.1874 22.7938 37.2035C22.8072 37.2611 22.823 37.3182 22.8417 37.3729C22.8681 37.4529 22.9002 37.531 22.9377 37.6065C22.9435 37.6221 22.9433 37.6394 22.9372 37.6549ZM25.1768 29.7949C25.1747 29.8019 25.1715 29.8085 25.1672 29.8145C25.0823 29.9335 24.9984 30.0544 24.9178 30.1777C24.908 30.1924 24.8927 30.2027 24.8754 30.2062C24.858 30.2097 24.84 30.2062 24.8252 30.1964C24.8105 30.1866 24.8002 30.1713 24.7967 30.154C24.7932 30.1366 24.7967 30.1185 24.8065 30.1038C24.888 29.9805 24.9725 29.8572 25.0583 29.7368C25.0674 29.7236 25.0809 29.7141 25.0964 29.7101C25.1118 29.706 25.1283 29.7076 25.1426 29.7147C25.157 29.7217 25.1684 29.7337 25.1746 29.7484C25.1809 29.7631 25.1817 29.7796 25.1768 29.7949ZM21.4415 41.4736C21.4373 41.4883 21.4282 41.501 21.4158 41.5097C21.4033 41.5185 21.3883 41.5227 21.3731 41.5217C21.3579 41.5207 21.3435 41.5145 21.3323 41.5042C21.3211 41.4939 21.3138 41.4801 21.3116 41.465C21.2904 41.3312 21.2679 41.1974 21.2458 41.0635L21.2401 41.0285C21.2386 41.0198 21.2388 41.011 21.2407 41.0024C21.2427 40.9938 21.2463 40.9857 21.2513 40.9785C21.2564 40.9713 21.2629 40.9652 21.2703 40.9606C21.2778 40.9559 21.2861 40.9527 21.2948 40.9513C21.3123 40.9485 21.3302 40.9527 21.3447 40.963C21.3591 40.9734 21.3689 40.989 21.372 41.0064L21.3777 41.0415C21.3998 41.1758 21.4224 41.3096 21.4435 41.4439C21.4452 41.4538 21.4446 41.464 21.4415 41.4736ZM24.688 30.5345C24.6865 30.5403 24.6841 30.5458 24.6808 30.5509C24.6041 30.6751 24.5283 30.8027 24.4554 30.9293C24.4466 30.9447 24.4321 30.956 24.415 30.9607C24.3979 30.9653 24.3796 30.963 24.3642 30.9543C24.3488 30.9455 24.3376 30.931 24.3329 30.9139C24.3282 30.8968 24.3305 30.8785 24.3393 30.8631C24.4132 30.7346 24.4894 30.606 24.5671 30.4794C24.5755 30.4653 24.5887 30.4548 24.6043 30.4499C24.6199 30.4449 24.6368 30.4459 24.6517 30.4526C24.6667 30.4593 24.6786 30.4712 24.6853 30.4862C24.692 30.5011 24.693 30.518 24.688 30.5336V30.5345ZM23.1487 35.7036C23.1454 35.7147 23.1393 35.7248 23.1308 35.7328C23.1224 35.7408 23.112 35.7464 23.1008 35.7491C22.9899 35.7792 22.8818 35.8183 22.7775 35.8662C22.7775 35.8801 22.7736 35.894 22.7722 35.9079C22.7696 35.9243 22.7611 35.9391 22.7483 35.9495C22.7354 35.9599 22.7192 35.9653 22.7027 35.9645C22.6862 35.9637 22.6705 35.9569 22.6588 35.9453C22.647 35.9337 22.6399 35.9182 22.6388 35.9017C22.627 35.8953 22.6175 35.8854 22.6115 35.8734C22.6036 35.8577 22.6023 35.8395 22.6077 35.8228C22.6132 35.806 22.6251 35.7922 22.6407 35.7842L22.6547 35.777L22.6575 35.7578C22.6714 35.6561 22.6873 35.5525 22.7055 35.4508C22.7086 35.4334 22.7183 35.4179 22.7326 35.4076C22.747 35.3973 22.7648 35.393 22.7823 35.3956C22.7909 35.397 22.7992 35.4001 22.8067 35.4047C22.8142 35.4094 22.8207 35.4154 22.8258 35.4225C22.8309 35.4297 22.8346 35.4377 22.8366 35.4463C22.8386 35.4548 22.8389 35.4637 22.8374 35.4724C22.8245 35.5515 22.812 35.6316 22.8005 35.7122C22.8875 35.6764 22.9768 35.6461 23.0677 35.6216C23.0791 35.6184 23.0913 35.6184 23.1028 35.6215C23.1143 35.6246 23.1247 35.6307 23.133 35.6392C23.1414 35.6478 23.1473 35.6584 23.1501 35.6699C23.1529 35.6815 23.1526 35.6936 23.1492 35.705L23.1487 35.7036ZM22.7285 36.802C22.7238 36.8169 22.714 36.8296 22.7009 36.8381C22.6878 36.8465 22.6722 36.8502 22.6567 36.8484C22.6412 36.8465 22.6269 36.8394 22.6161 36.8281C22.6053 36.8169 22.5987 36.8022 22.5976 36.7867C22.5887 36.6367 22.5887 36.4863 22.5976 36.3363C22.5986 36.3186 22.6066 36.302 22.6198 36.2903C22.633 36.2785 22.6504 36.2724 22.6681 36.2734C22.6858 36.2745 22.7023 36.2825 22.7141 36.2957C22.7259 36.3089 22.7319 36.3263 22.7309 36.3439C22.7225 36.4887 22.7225 36.6338 22.7309 36.7785C22.7313 36.7865 22.7305 36.7944 22.7285 36.802ZM24.2472 31.303C24.246 31.3073 24.2444 31.3115 24.2424 31.3155C24.1738 31.4445 24.1062 31.5764 24.0419 31.7078C24.0341 31.7237 24.0204 31.7359 24.0036 31.7417C23.9869 31.7474 23.9686 31.7463 23.9527 31.7385C23.9368 31.7308 23.9246 31.717 23.9188 31.7003C23.9131 31.6836 23.9142 31.6652 23.922 31.6493C23.9867 31.5164 24.0548 31.3831 24.1239 31.2526C24.1312 31.2372 24.1441 31.2251 24.16 31.2189C24.176 31.2127 24.1936 31.2128 24.2095 31.2193C24.2253 31.2258 24.238 31.238 24.245 31.2536C24.252 31.2692 24.2528 31.2869 24.2472 31.303ZM23.8577 32.0983C23.8568 32.1013 23.8557 32.1041 23.8543 32.1069C23.7944 32.2398 23.7359 32.376 23.6797 32.5113C23.6764 32.5194 23.6715 32.5268 23.6653 32.533C23.6591 32.5392 23.6518 32.5441 23.6437 32.5474C23.6356 32.5508 23.627 32.5525 23.6182 32.5526C23.6094 32.5526 23.6008 32.5509 23.5927 32.5475C23.5846 32.5442 23.5772 32.5393 23.571 32.5331C23.5648 32.5269 23.5599 32.5196 23.5565 32.5115C23.5532 32.5034 23.5514 32.4947 23.5514 32.486C23.5514 32.4772 23.5531 32.4686 23.5565 32.4605C23.6126 32.3238 23.6721 32.1861 23.7325 32.0518C23.7396 32.0362 23.7523 32.0239 23.7682 32.0174C23.784 32.0109 23.8017 32.0107 23.8177 32.0168C23.8337 32.0229 23.8467 32.0349 23.8542 32.0503C23.8616 32.0657 23.8629 32.0834 23.8577 32.0997V32.0983ZM21.2976 40.5992C21.2943 40.6116 21.2875 40.6227 21.2779 40.6312C21.2684 40.6397 21.2566 40.6453 21.2439 40.6472C21.2353 40.6485 21.2264 40.6482 21.2179 40.6461C21.2094 40.6441 21.2013 40.6403 21.1942 40.6352C21.1872 40.63 21.1812 40.6235 21.1766 40.616C21.172 40.6085 21.169 40.6002 21.1676 40.5915C21.1417 40.4284 21.1197 40.2845 21.1034 40.1521C21.1022 40.1434 21.1028 40.1346 21.105 40.1261C21.1073 40.1176 21.1112 40.1097 21.1165 40.1027C21.1218 40.0958 21.1285 40.0899 21.136 40.0855C21.1436 40.0811 21.152 40.0782 21.1607 40.0771C21.1694 40.0759 21.1782 40.0765 21.1867 40.0787C21.1952 40.081 21.2031 40.0849 21.2101 40.0902C21.2171 40.0955 21.2229 40.1021 21.2273 40.1097C21.2317 40.1173 21.2346 40.1257 21.2358 40.1344C21.2535 40.2658 21.2741 40.4088 21.2996 40.5709C21.3012 40.5803 21.3005 40.59 21.2976 40.5992ZM22.9137 35.0445C22.9094 35.0617 22.8985 35.0764 22.8834 35.0856C22.8682 35.0947 22.85 35.0974 22.8329 35.0932C22.8157 35.0889 22.8009 35.078 22.7918 35.0629C22.7826 35.0477 22.7799 35.0295 22.7842 35.0124C22.8125 34.8685 22.8441 34.7217 22.8777 34.5773C22.8797 34.5688 22.8833 34.5607 22.8884 34.5536C22.8935 34.5464 22.9 34.5404 22.9074 34.5358C22.9149 34.5311 22.9231 34.528 22.9318 34.5266C22.9404 34.5251 22.9493 34.5254 22.9578 34.5274C22.9663 34.5294 22.9744 34.533 22.9815 34.5381C22.9887 34.5432 22.9947 34.5497 22.9993 34.5571C23.004 34.5646 23.0071 34.5728 23.0085 34.5815C23.01 34.5901 23.0097 34.599 23.0077 34.6075C22.9746 34.7514 22.9434 34.8953 22.9151 35.0392L22.9137 35.0445ZM23.5195 32.9171V32.9214C23.4682 33.0586 23.4183 33.1982 23.3718 33.3368C23.3661 33.3536 23.3539 33.3675 23.338 33.3753C23.322 33.3831 23.3037 33.3843 23.2869 33.3786C23.2701 33.3728 23.2563 33.3607 23.2484 33.3448C23.2406 33.3288 23.2394 33.3105 23.2451 33.2937C23.2931 33.1541 23.3411 33.0131 23.3943 32.8744C23.4 32.8576 23.4121 32.8438 23.428 32.8359C23.4438 32.828 23.4622 32.8268 23.479 32.8325C23.4958 32.8381 23.5096 32.8502 23.5175 32.8661C23.5254 32.882 23.5266 32.9003 23.521 32.9171H23.5195ZM23.1142 34.182C23.1094 34.1991 23.0979 34.2135 23.0825 34.2221C23.067 34.2308 23.0487 34.2329 23.0317 34.2281C23.0146 34.2232 23.0002 34.2118 22.9916 34.1964C22.9829 34.1809 22.9808 34.1626 22.9856 34.1456C23.024 34.0017 23.0648 33.8578 23.1075 33.7177C23.1126 33.7007 23.1242 33.6864 23.1398 33.678C23.1554 33.6696 23.1737 33.6678 23.1907 33.6728C23.2077 33.6779 23.2219 33.6896 23.2304 33.7052C23.2388 33.7208 23.2406 33.7391 23.2355 33.7561C23.1933 33.8961 23.1526 34.0381 23.1147 34.1796L23.1142 34.182ZM22.3611 36.0974C22.3571 36.111 22.3488 36.1229 22.3376 36.1315C22.2231 36.2185 22.1159 36.3147 22.0172 36.4193C22.0114 36.4266 22.0042 36.4327 21.996 36.4371C21.9878 36.4415 21.9787 36.4442 21.9694 36.4449C21.9601 36.4455 21.9508 36.4443 21.942 36.4411C21.9332 36.438 21.9252 36.433 21.9185 36.4266C21.9117 36.4201 21.9064 36.4124 21.9028 36.4037C21.8993 36.3951 21.8976 36.3858 21.8979 36.3765C21.8981 36.3672 21.9003 36.358 21.9044 36.3496C21.9084 36.3412 21.9141 36.3337 21.9212 36.3276C22.0246 36.2172 22.1369 36.1155 22.257 36.0235C22.2683 36.0152 22.2819 36.0105 22.2959 36.0103C22.31 36.0101 22.3237 36.0143 22.3353 36.0223C22.3468 36.0302 22.3555 36.0417 22.3603 36.0549C22.365 36.0681 22.3654 36.0825 22.3616 36.096L22.3611 36.0974ZM21.183 39.7214C21.1792 39.7342 21.1716 39.7456 21.1613 39.7542C21.1509 39.7627 21.1383 39.768 21.125 39.7693C21.1162 39.7701 21.1074 39.7692 21.0991 39.7666C21.0907 39.764 21.0829 39.7598 21.0762 39.7541C21.0695 39.7485 21.0639 39.7416 21.0599 39.7339C21.0558 39.7261 21.0533 39.7176 21.0525 39.7089L21.0487 39.6672C21.0362 39.5295 21.0271 39.3938 21.0223 39.2633C21.0219 39.2545 21.0232 39.2458 21.0261 39.2375C21.0291 39.2293 21.0337 39.2217 21.0397 39.2153C21.0456 39.2089 21.0528 39.2037 21.0607 39.2001C21.0687 39.1964 21.0773 39.1945 21.0861 39.1942C21.0949 39.1938 21.1037 39.1951 21.1119 39.198C21.1202 39.201 21.1278 39.2056 21.1342 39.2115C21.1407 39.2175 21.1459 39.2246 21.1496 39.2326C21.1533 39.2406 21.1553 39.2492 21.1557 39.258C21.1605 39.3861 21.1696 39.5199 21.1816 39.6552L21.1854 39.6964C21.1864 39.7048 21.1857 39.7133 21.1835 39.7214H21.183ZM21.1499 38.8364C21.1452 38.8518 21.1351 38.865 21.1215 38.8735C21.1079 38.8821 21.0916 38.8854 21.0757 38.8829C21.0598 38.8804 21.0453 38.8722 21.035 38.8598C21.0246 38.8475 21.0191 38.8318 21.0194 38.8157C21.0237 38.6622 21.0338 38.5116 21.0496 38.3682C21.0506 38.3595 21.0533 38.351 21.0575 38.3433C21.0618 38.3357 21.0675 38.3289 21.0744 38.3234C21.0812 38.3179 21.0891 38.3138 21.0975 38.3114C21.106 38.309 21.1148 38.3082 21.1235 38.3092C21.1322 38.3102 21.1407 38.3129 21.1484 38.3171C21.1561 38.3213 21.1628 38.3271 21.1683 38.3339C21.1738 38.3408 21.1779 38.3486 21.1803 38.3571C21.1827 38.3655 21.1835 38.3743 21.1825 38.3831C21.1672 38.5227 21.1571 38.6709 21.1528 38.8196C21.153 38.8253 21.1522 38.831 21.1504 38.8364H21.1499ZM21.7548 36.7382C21.7529 36.745 21.7498 36.7513 21.7457 36.757C21.6638 36.876 21.5909 37.0009 21.5274 37.1306C21.5196 37.1465 21.5059 37.1587 21.4892 37.1645C21.4724 37.1702 21.4541 37.1691 21.4382 37.1613C21.4223 37.1536 21.4101 37.1398 21.4044 37.1231C21.3986 37.1063 21.3997 37.088 21.4075 37.0721C21.4736 36.9362 21.5499 36.8055 21.6358 36.6812C21.6448 36.6679 21.6582 36.6583 21.6736 36.6541C21.6891 36.6499 21.7055 36.6514 21.72 36.6583C21.7344 36.6652 21.7459 36.6771 21.7523 36.6918C21.7586 36.7065 21.7595 36.723 21.7548 36.7382ZM21.2497 37.9576C21.2453 37.9748 21.2344 37.9895 21.2192 37.9986C21.204 38.0077 21.1858 38.0104 21.1686 38.006C21.1514 38.0017 21.1367 37.9907 21.1276 37.9755C21.1185 37.9603 21.1158 37.9422 21.1202 37.925C21.1427 37.8175 21.1681 37.712 21.1998 37.6103C21.2118 37.57 21.2247 37.5297 21.2377 37.4904C21.2405 37.4821 21.2449 37.4744 21.2507 37.4678C21.2564 37.4612 21.2635 37.4558 21.2713 37.4519C21.2792 37.448 21.2877 37.4457 21.2965 37.4451C21.3052 37.4445 21.314 37.4456 21.3223 37.4484C21.3307 37.4512 21.3383 37.4556 21.345 37.4614C21.3516 37.4672 21.357 37.4742 21.3609 37.4821C21.3648 37.4899 21.3671 37.4985 21.3677 37.5072C21.3683 37.516 21.3671 37.5248 21.3643 37.5331C21.3518 37.571 21.3394 37.6098 21.3279 37.6492C21.2986 37.7451 21.2732 37.8492 21.2511 37.9528L21.2497 37.9576Z" fill="#196E7E" stroke="#176D7E" stroke-width="0.148566" stroke-miterlimit="10"/>
<path d="M25.5794 29.2605C25.577 29.2685 25.5731 29.2759 25.5679 29.2825C25.5224 29.3401 25.4768 29.3991 25.4322 29.4576C25.4272 29.4655 25.4206 29.4722 25.4129 29.4774C25.4052 29.4825 25.3965 29.4861 25.3873 29.4877C25.3782 29.4893 25.3688 29.489 25.3597 29.4869C25.3507 29.4847 25.3422 29.4807 25.3348 29.475C25.3274 29.4694 25.3213 29.4623 25.3168 29.4542C25.3123 29.446 25.3095 29.4371 25.3086 29.4278C25.3078 29.4185 25.3089 29.4092 25.3118 29.4004C25.3147 29.3916 25.3194 29.3835 25.3257 29.3766C25.3708 29.3176 25.4173 29.2581 25.4629 29.1996C25.4727 29.1876 25.4863 29.1794 25.5014 29.1763C25.5165 29.1732 25.5323 29.1754 25.546 29.1826C25.5596 29.1897 25.5704 29.2014 25.5765 29.2156C25.5826 29.2298 25.5837 29.2456 25.5794 29.2605Z" fill="#196E7E" stroke="#176D7E" stroke-width="0.148566" stroke-miterlimit="10"/>
<path d="M28.1091 16.7279L28.7327 16.4717C29.4522 15.9383 29.0296 15.5867 28.6425 15.0835C28.9054 14.5377 29.7573 14.5895 29.8648 13.8709C29.3625 13.4982 27.8228 14.5842 27.8021 13.6584C27.7901 13.0473 29.0081 12.1714 29.4992 11.9877C29.9904 11.804 31.358 11.7805 31.8353 12.0184C32.207 12.204 32.4071 12.5542 32.339 12.9427C32.2646 13.3663 31.8713 13.5505 31.6674 13.9501C32.1735 14.1419 32.4306 13.5073 32.6105 13.1955C32.9103 12.6751 33.1472 12.8866 33.6418 12.6962C34.0917 12.5225 34.3762 12.1724 34.8765 12.0477C35.266 11.9517 35.7039 11.8663 36.102 11.8035C36.5568 11.7311 36.8595 11.9661 37.2758 11.9675C37.9095 11.9675 37.6869 11.0418 38.3081 11.5138C38.5288 11.6817 38.3191 11.7493 38.6703 11.8831C38.8194 11.9397 39.1384 11.9791 39.3106 12.0141C40.0968 12.1743 39.703 11.8155 39.6368 11.2994C39.5529 10.6431 40.0148 11.0562 40.4292 11.2408C40.7329 11.3766 40.7348 11.2495 40.8677 11.5694C40.9852 11.8519 40.7353 11.958 41.0499 12.1517C41.6505 12.5197 41.6361 11.6639 41.6361 11.3823C41.6361 10.9027 41.7321 10.6302 41.2687 10.3035C41.4126 10.1831 41.5507 9.98935 41.581 9.80083C41.1492 9.58929 41.2725 9.25495 41.0471 8.94124C40.6686 8.4136 40.4739 8.88128 40.0791 9.02615C39.6713 9.17581 39.2977 8.85442 38.9043 9.10625C38.4957 9.36768 38.4626 9.7543 37.9349 9.25687C38.1642 9.08803 38.3258 8.78391 38.4688 8.53735C38.3177 8.40235 38.1796 8.25348 38.0563 8.09269C38.453 7.49837 39.1451 7.88643 39.6306 8.12771C40.1745 8.39825 40.6782 7.99675 41.1833 8.20925C41.6548 8.40688 41.5042 9.28326 42.2808 9.23385C42.724 9.20555 42.6751 8.98393 42.7125 8.69613C42.7221 8.61938 42.6602 8.39105 42.6564 8.31238C42.6559 8.30424 42.6559 8.29607 42.6564 8.28792C43.1078 8.47643 43.5515 8.68605 43.9899 8.9115C43.9184 9.18492 43.9055 9.56435 43.894 9.77877C43.8849 9.9361 43.9602 10.0954 43.9304 10.2551C43.8969 10.4364 43.6378 10.517 43.7529 10.7314C43.9309 11.0624 45.3714 10.6355 45.6678 10.6091C46.0439 10.5741 46.2689 10.5674 46.3394 10.3371C47.5893 11.2222 48.7267 12.2564 49.7264 13.4167C49.7422 13.6018 49.7585 13.7927 49.7662 13.9971C49.7825 14.436 49.7398 14.7933 50.0377 15.1819C50.2099 15.4064 50.9318 15.8669 50.2967 16.1796C49.7101 16.4674 49.8171 15.652 49.7782 15.4121C49.723 15.0802 49.3096 14.4758 49.0141 14.9588C48.5742 15.6784 50.2281 16.6142 49.3772 17.1586C49.4923 17.3956 49.7422 17.8302 49.4976 18.0638C49.1954 18.3516 48.8966 17.8422 48.6159 18.283C48.2183 18.9066 48.5536 19.8626 49.3259 20.0578C50.149 20.2641 50.2627 19.0059 51.0887 19.4184C51.4144 19.581 51.5334 19.7868 51.6605 20.1797C51.7646 20.4996 51.6432 20.9879 51.966 21.1587C52.1229 20.9918 52.0701 20.7634 52.1608 20.5744C52.3565 20.7884 52.6328 21.3947 52.6313 21.6878C52.6313 22.1315 52.3128 22.5618 53.0741 22.4946C53.0405 22.3838 53.0938 22.2226 53.0861 22.1468C53.7202 22.5718 53.9898 23.1287 53.8963 23.8622C53.6862 25.4998 52.841 23.5264 52.3383 24.1183C52.0471 23.7562 52.0807 23.3508 51.8787 22.9599C51.7828 22.7747 51.472 22.6332 51.4125 22.4701C51.3305 22.2466 51.5118 22.0591 51.448 21.8499C51.1961 21.0273 49.4453 20.9208 48.7416 20.8752C48.5497 20.8627 48.3982 20.7735 48.2044 20.8603C47.8729 21.0086 48.0562 21.2254 47.8465 21.4307C47.5477 21.7233 46.998 21.5847 46.6814 21.7665C45.9221 22.2078 45.9532 23.584 45.38 24.2536C45.062 24.6253 44.3343 24.7736 44.2768 25.2235C44.2518 25.4154 44.4207 25.7085 44.4024 25.943C44.3861 26.1574 44.2873 26.3867 44.2945 26.6251C44.319 27.3979 44.4677 28.3381 44.579 29.1195C44.6428 29.5632 44.9286 29.8659 45.3551 30.0381C45.7067 30.182 46.2454 30.3887 46.6234 30.4419C47.1285 30.5139 47.3515 30.2889 47.6379 30.7298C47.8652 31.0823 47.8777 31.6781 48.4749 31.5889C48.5828 32.0954 47.8916 32.3928 47.5995 32.6825C47.2249 33.0543 47.1467 33.5412 47.1678 34.0827C47.1932 34.7327 47.2158 34.8598 46.7615 35.4028C46.4065 35.8264 46.0127 36.1669 45.6131 36.554C45.2294 36.9248 44.7363 37.0702 44.4456 37.5388C44.1779 37.9705 44.1343 38.4334 43.7769 38.8503C43.4613 39.2177 43.1198 39.6782 42.7547 40.0015C42.3806 40.331 41.8611 40.4984 41.4682 40.8294C41.095 41.1451 40.7904 41.6722 40.8499 42.1725C40.9118 42.6963 41.3219 42.693 41.8242 42.6618C42.8147 42.5999 43.6786 41.9514 44.5641 41.5686C45.4683 41.1767 46.3365 40.8491 47.1064 40.333C47.27 40.2236 47.446 40.1252 47.6225 40.0279C45.1251 42.1469 42.1181 43.5777 38.8986 44.1791C35.679 44.7804 32.3583 44.5313 29.2644 43.4566C26.1705 42.3819 23.4105 40.5186 21.2571 38.0508C19.1036 35.583 17.6312 32.5961 16.9853 29.3852C15.9939 24.456 16.982 19.4362 19.7675 15.2495C21.1313 13.1869 22.8905 11.4153 24.9435 10.0372C26.9965 8.65901 29.3024 7.7017 31.7278 7.22063C31.8434 7.19761 31.9595 7.18082 32.0756 7.15971C31.9134 7.29723 31.7332 7.41183 31.5398 7.50028C31.076 7.69216 30.5944 7.5732 30.1339 7.73677C29.7141 7.88595 29.2369 8.21645 28.9323 8.49466C28.6027 8.79542 28.3653 9.26982 27.9993 9.54516C27.534 9.89485 27.0606 9.9716 26.7627 10.5376C27.2735 11.1502 27.7499 9.83537 28.3255 10.1337C28.2142 10.6695 27.58 11.3809 27.2256 11.8088C26.7377 12.3973 26.5104 12.4717 26.5262 13.267C26.5391 13.8968 26.4466 14.2508 26.9809 14.706C27.4702 15.1224 27.5311 15.509 27.4126 16.1681C27.675 16.4281 27.4736 16.4439 28.2281 16.7284M46.3926 9.20603C37.2974 3.1563 25.02 5.62473 18.9698 14.7199C12.9196 23.8152 15.389 36.0926 24.4861 42.1423C33.5832 48.192 45.8573 45.7241 51.9061 36.6289C57.9548 27.5336 55.4874 15.2562 46.3926 9.20603Z" stroke="#176D7E" stroke-width="0.25" stroke-miterlimit="10"/>
</svg>
