<svg width="350" height="711" viewBox="0 0 350 711" fill="none" xmlns="http://www.w3.org/2000/svg">
<g clip-path="url(#clip0_1446_29545)">
<path d="M1.24585 257.902C1.24585 257.078 1.91686 256.388 2.76042 256.388H3.50812V310.334H2.76042C1.93603 310.334 1.24585 309.663 1.24585 308.82V257.883V257.902Z" fill="#1C1C61"/>
<path d="M1.24585 189.406C1.24585 188.582 1.91686 187.891 2.76042 187.891H3.50812V241.837H2.76042C1.93603 241.837 1.24585 241.167 1.24585 240.323V189.387V189.406Z" fill="#1C1C61"/>
<path d="M0 138.24C0 137.415 0.671012 136.725 1.51457 136.725H3.52761V163.315H1.51457C0.690184 163.315 0 162.644 0 161.8V138.22V138.24Z" fill="#1C1C61"/>
<path d="M347.738 225.293H348.485C349.31 225.293 350 225.964 350 226.808V308.839C350 309.663 349.329 310.353 348.485 310.353H347.738V225.312V225.293Z" fill="#1C1C61"/>
<path d="M3.50854 136.974V163.449" stroke="black" stroke-width="0.250971"/>
<path d="M3.50854 188.159V241.722" stroke="black" stroke-width="0.250971"/>
<path d="M284.759 0H66.4878C31.7053 0 3.50854 28.1951 3.50854 62.9755V648.024C3.50854 682.805 31.7053 711 66.4878 711H284.759C319.541 711 347.738 682.805 347.738 648.024V62.9755C347.738 28.1951 319.541 0 284.759 0Z" fill="#1C1C61"/>
<path d="M281.25 8.53076H69.9961C37.9877 8.53076 12.0398 34.4771 12.0398 66.4836V644.516C12.0398 676.523 37.9877 702.469 69.9961 702.469H281.25C313.258 702.469 339.206 676.523 339.206 644.516V66.4836C339.206 34.4771 313.258 8.53076 281.25 8.53076Z" fill="#FBF5E2" stroke="black" stroke-width="10.0967"/>
<path d="M190.039 353.979L172.043 344.18C171.74 344.015 171.393 343.925 171.038 343.919C170.682 343.913 170.332 343.991 170.022 344.146C169.712 344.301 169.454 344.526 169.274 344.8C169.095 345.073 169 345.384 169 345.7V365.3C169 365.616 169.095 365.927 169.275 366.2C169.454 366.473 169.712 366.699 170.022 366.853C170.332 367.008 170.683 367.087 171.038 367.081C171.393 367.075 171.74 366.985 172.043 366.82L190.039 357.021C190.331 356.862 190.573 356.638 190.741 356.372C190.908 356.106 190.996 355.805 190.996 355.5C190.996 355.195 190.908 354.895 190.741 354.628C190.573 354.362 190.331 354.138 190.039 353.979Z" fill="#353432"/>
<rect x="130.091" y="33.8572" width="89.9942" height="25.8383" rx="12.9192" fill="black"/>
<path d="M75.7668 707.109L80.7898 707.243V711H75.7668V707.109Z" fill="black"/>
<path d="M343.98 74.7654H347.738V79.7881H343.98V74.7654Z" fill="black"/>
<path d="M343.98 633.474H347.738V638.497H343.846L343.98 633.474Z" fill="black"/>
<path d="M212.998 3.75732C212.864 5.44434 211.465 6.76711 209.739 6.76711H141.488C139.762 6.76711 138.363 5.44434 138.229 3.75732H212.979H212.998Z" fill="black" stroke="#272727" stroke-width="0.501941"/>
<path d="M270.974 0H275.997V3.89164L270.974 3.64242V0Z" fill="black"/>
<path d="M3.50843 75.7622H7.2661L7.1319 80.6507L3.48926 80.7849V75.7622H3.50843Z" fill="black"/>
<path d="M3.50854 633.474H7.15118L7.28539 638.497H3.52772V633.474H3.50854Z" fill="black"/>
</g>
<defs>
<clipPath id="clip0_1446_29545">
<rect width="350" height="711" fill="white"/>
</clipPath>
</defs>
</svg>
