<svg width="473" height="473" viewBox="0 0 473 473" fill="none" xmlns="http://www.w3.org/2000/svg">
<path d="M143.286 338.559C143.286 350.533 134.147 359.332 121.542 359.332C108.937 359.332 99.7988 350.581 99.7988 338.559C99.7988 326.584 108.937 318.013 121.542 318.013C134.147 318.013 143.286 326.65 143.286 338.559ZM113.255 338.615C113.255 344.259 117.206 348.438 121.722 348.438C126.238 348.438 129.852 344.259 129.852 338.615C129.852 332.972 126.238 328.907 121.722 328.907C117.15 328.907 113.255 332.972 113.255 338.615Z" fill="#1DA99D"/>
<path d="M180.368 338.729V358.427H167.668V342.397C167.668 339.8 166.2 338.165 163.997 338.165C161.514 338.165 159.935 340.141 159.935 343.131V358.427H147.232V327.545H159.935V331.957C162.021 328.806 165.239 326.99 169.304 326.99C175.795 326.987 180.368 331.616 180.368 338.729Z" fill="#1DA99D"/>
<path d="M216.378 345.842H196.283C197.13 348.268 198.936 349.51 201.419 349.51C203.565 349.51 205.765 348.564 207.687 346.743L214.304 353.234C211.03 356.849 206.291 358.881 200.307 358.881C189.75 358.881 183.485 352.67 183.485 343.125C183.485 333.356 190.034 327.095 199.969 327.095C210.734 327.098 217.055 334.44 216.378 345.842ZM200.064 335.569C197.858 335.569 196.509 337.374 196.002 339.98H203.678C203.845 337.431 202.267 335.569 200.064 335.569Z" fill="#1DA99D"/>
<path d="M299.46 318.861L286.083 358.428H272.649L266.722 334.778L260.627 358.428H247.193L233.927 318.861H247.925L254.306 344.824L260.627 318.861H273.383L279.831 344.824L286.095 318.861H299.46Z" fill="#1DA99D"/>
<path d="M327.567 338.443V358.425H315.094V355.094C313.289 357.58 310.367 358.989 306.4 358.989C299.855 358.989 296.07 355.151 296.07 349.28C296.07 343.185 300.192 339.968 308.045 339.855H315.094C315.038 337.712 313.402 336.467 310.295 336.467C307.982 336.467 304.424 337.145 300.926 338.443L298.09 329.976C303.34 328.06 308.76 326.985 313.333 326.985C322.263 326.988 327.567 331.167 327.567 338.443ZM315.094 348.549V345.713H310.683C308.93 345.713 307.973 346.56 307.973 348.196C307.973 349.888 308.987 350.906 310.793 350.906C311.648 350.897 312.488 350.677 313.238 350.267C313.988 349.856 314.626 349.267 315.094 348.552V348.549Z" fill="#1DA99D"/>
<path d="M339.358 369.955C335.296 369.955 332.022 368.827 328.691 366.344L333.998 357.98C335.353 359.222 336.595 359.786 338.117 359.786C339.585 359.786 340.543 359.279 341.164 358.211L341.618 357.476L328.805 327.558H341.841L347.939 345.171L352.962 327.558H365.605L352.905 360.58C350.309 367.009 345.963 369.955 339.358 369.955Z" fill="#1DA99D"/>
<path d="M162.414 404.452C161.39 404.466 160.388 404.157 159.549 403.569C158.683 402.952 158.004 402.107 157.589 401.127C157.101 399.989 156.861 398.76 156.887 397.522V374.698C156.887 374.294 157.047 373.907 157.332 373.621C157.618 373.336 158.005 373.176 158.409 373.176C158.812 373.176 159.199 373.336 159.485 373.621C159.77 373.907 159.931 374.294 159.931 374.698V397.522C159.888 398.505 160.131 399.479 160.63 400.327C160.805 400.648 161.063 400.918 161.376 401.108C161.689 401.298 162.048 401.401 162.414 401.407H163.413C163.592 401.403 163.77 401.438 163.933 401.511C164.097 401.584 164.242 401.693 164.358 401.83C164.611 402.139 164.74 402.531 164.721 402.929C164.727 403.139 164.686 403.347 164.599 403.538C164.512 403.729 164.382 403.897 164.22 404.029C163.851 404.322 163.389 404.472 162.918 404.452H162.414Z" fill="#176D7E"/>
<path d="M177.753 404.649C175.751 404.684 173.775 404.187 172.028 403.209C170.373 402.277 169.003 400.912 168.063 399.261C167.116 397.494 166.62 395.52 166.62 393.514C166.62 391.509 167.116 389.535 168.063 387.768C168.999 386.111 170.37 384.74 172.028 383.804C173.784 382.856 175.748 382.36 177.744 382.36C179.74 382.36 181.704 382.856 183.46 383.804C185.108 384.745 186.47 386.115 187.403 387.768C188.385 389.53 188.896 391.517 188.884 393.535C188.918 395.54 188.414 397.517 187.425 399.261C186.478 400.911 185.11 402.279 183.46 403.225C181.718 404.198 179.748 404.69 177.753 404.649ZM177.753 401.848C179.213 401.87 180.652 401.496 181.916 400.767C183.131 400.061 184.128 399.035 184.8 397.802C185.51 396.488 185.87 395.013 185.843 393.519C185.868 392.019 185.509 390.537 184.8 389.215C184.132 387.973 183.134 386.94 181.916 386.23C180.643 385.521 179.209 385.149 177.752 385.149C176.294 385.149 174.861 385.521 173.588 386.23C172.367 386.943 171.363 387.974 170.685 389.215C169.964 390.533 169.598 392.016 169.623 393.519C169.596 395.015 169.963 396.492 170.685 397.802C171.367 399.034 172.37 400.058 173.588 400.767C174.853 401.497 176.293 401.87 177.753 401.848Z" fill="#176D7E"/>
<path d="M204.538 404.65C202.576 404.688 200.639 404.197 198.932 403.228C197.316 402.294 195.992 400.929 195.106 399.286C194.164 397.512 193.689 395.528 193.726 393.52C193.685 391.49 194.183 389.486 195.169 387.712C196.102 386.057 197.474 384.692 199.134 383.766C200.901 382.834 202.87 382.346 204.869 382.346C206.868 382.346 208.836 382.834 210.604 383.766C212.252 384.693 213.612 386.059 214.53 387.712C215.502 389.492 216.004 391.491 215.989 393.52L214.19 394.465C214.224 396.296 213.797 398.107 212.949 399.731C212.164 401.233 210.978 402.488 209.523 403.358C208.012 404.238 206.287 404.685 204.538 404.65ZM204.938 413.101C203.017 413.142 201.112 412.738 199.373 411.92C197.817 411.17 196.46 410.066 195.409 408.696C195.272 408.562 195.166 408.399 195.1 408.219C195.034 408.039 195.01 407.847 195.027 407.656C195.049 407.469 195.112 407.288 195.212 407.128C195.313 406.969 195.448 406.833 195.607 406.733C195.774 406.615 195.964 406.534 196.164 406.492C196.364 406.451 196.57 406.451 196.77 406.493C197.169 406.556 197.527 406.772 197.769 407.095C198.579 408.081 199.599 408.874 200.753 409.418C202.077 410.027 203.522 410.327 204.979 410.297C206.401 410.317 207.8 409.943 209.022 409.216C210.237 408.481 211.227 407.429 211.887 406.172C212.621 404.75 212.986 403.167 212.949 401.568V395.48L214.108 393.157L215.999 393.52V401.688C216.032 403.722 215.535 405.729 214.559 407.514C213.635 409.202 212.282 410.615 210.636 411.611C208.912 412.627 206.939 413.143 204.938 413.101ZM204.859 401.848C206.324 401.877 207.77 401.51 209.044 400.786C210.25 400.087 211.24 399.069 211.905 397.843C212.619 396.516 212.979 395.026 212.949 393.52C212.977 392.006 212.618 390.51 211.905 389.174C211.244 387.941 210.254 386.916 209.044 386.212C207.77 385.488 206.324 385.121 204.859 385.15C203.387 385.123 201.935 385.489 200.652 386.212C199.434 386.911 198.435 387.937 197.769 389.174C197.059 390.511 196.701 392.006 196.729 393.52C196.7 395.026 197.058 396.515 197.769 397.843C198.439 399.072 199.437 400.091 200.652 400.786C201.935 401.509 203.387 401.875 204.859 401.848Z" fill="#176D7E"/>
<path d="M224.166 378.381C223.883 378.386 223.601 378.333 223.339 378.224C223.078 378.116 222.841 377.955 222.644 377.751C222.436 377.546 222.273 377.3 222.165 377.029C222.056 376.758 222.005 376.467 222.014 376.175C222.001 375.88 222.053 375.586 222.168 375.313C222.282 375.041 222.455 374.797 222.675 374.6C223.099 374.221 223.648 374.014 224.216 374.02C224.772 374.019 225.308 374.226 225.72 374.6C225.939 374.797 226.113 375.041 226.227 375.313C226.342 375.586 226.394 375.88 226.381 376.175C226.383 376.466 226.328 376.753 226.218 377.022C226.108 377.291 225.945 377.535 225.74 377.74C225.535 377.945 225.291 378.107 225.022 378.218C224.753 378.328 224.466 378.383 224.175 378.381H224.166ZM224.204 404.451C223.992 404.47 223.779 404.442 223.579 404.37C223.38 404.297 223.198 404.182 223.048 404.032C222.898 403.881 222.782 403.7 222.71 403.5C222.637 403.301 222.609 403.087 222.628 402.876V384.094C222.608 383.882 222.635 383.669 222.707 383.469C222.78 383.268 222.895 383.087 223.045 382.936C223.196 382.786 223.378 382.67 223.578 382.598C223.778 382.526 223.992 382.499 224.204 382.519C224.406 382.51 224.609 382.542 224.798 382.615C224.988 382.687 225.161 382.797 225.307 382.938C225.45 383.09 225.561 383.269 225.633 383.465C225.706 383.661 225.737 383.87 225.726 384.079V402.86C225.737 403.069 225.706 403.278 225.634 403.474C225.562 403.67 225.451 403.849 225.307 404.001C225.164 404.147 224.992 404.263 224.802 404.341C224.612 404.418 224.409 404.456 224.204 404.451Z" fill="#176D7E"/>
<path d="M241.22 404.65C239.624 404.648 238.04 404.377 236.534 403.85C235.094 403.386 233.798 402.559 232.771 401.448C232.631 401.309 232.526 401.138 232.463 400.951C232.4 400.763 232.381 400.563 232.409 400.368C232.469 399.956 232.685 399.583 233.011 399.325C233.33 399.08 233.73 398.964 234.131 399.002C234.532 399.039 234.904 399.226 235.172 399.526C235.86 400.306 236.735 400.898 237.715 401.247C238.837 401.659 240.025 401.863 241.22 401.849C243.194 401.849 244.623 401.508 245.505 400.828C245.908 400.551 246.24 400.184 246.476 399.756C246.713 399.328 246.846 398.852 246.867 398.363C246.867 397.401 246.413 396.607 245.505 395.981C244.598 395.355 243.102 394.873 241.018 394.535C238.323 394.114 236.348 393.368 235.094 392.294C233.839 391.221 233.209 389.952 233.203 388.487C233.159 387.262 233.542 386.059 234.287 385.084C235.041 384.151 236.039 383.444 237.17 383.042C238.439 382.576 239.783 382.346 241.134 382.361C242.725 382.322 244.303 382.636 245.757 383.282C246.991 383.845 248.072 384.697 248.909 385.765C249.032 385.914 249.124 386.086 249.179 386.272C249.233 386.458 249.248 386.653 249.224 386.846C249.194 387.037 249.122 387.219 249.013 387.379C248.904 387.538 248.761 387.672 248.593 387.769C248.26 387.957 247.87 388.021 247.494 387.949C247.083 387.884 246.708 387.679 246.432 387.369C245.805 386.624 245.008 386.04 244.109 385.667C243.14 385.289 242.105 385.105 241.065 385.125C239.595 385.125 238.42 385.425 237.542 386.026C236.66 386.628 236.222 387.381 236.222 388.289C236.208 388.863 236.383 389.425 236.72 389.89C237.178 390.435 237.773 390.849 238.443 391.09C239.546 391.517 240.694 391.813 241.866 391.973C243.87 392.294 245.452 392.768 246.611 393.394C247.625 393.888 248.484 394.651 249.094 395.6C249.586 396.43 249.842 397.379 249.835 398.344C249.855 399.538 249.467 400.704 248.735 401.647C247.933 402.638 246.883 403.4 245.691 403.853C244.268 404.411 242.748 404.682 241.22 404.65Z" fill="#176D7E"/>
<path d="M253.755 386.026C253.571 386.031 253.389 386.001 253.217 385.936C253.046 385.871 252.889 385.773 252.756 385.648C252.626 385.527 252.523 385.381 252.453 385.218C252.384 385.055 252.349 384.879 252.352 384.702C252.346 384.52 252.379 384.338 252.449 384.169C252.518 384 252.623 383.848 252.756 383.722C252.889 383.595 253.045 383.497 253.217 383.431C253.388 383.366 253.571 383.335 253.755 383.341H263.968C264.151 383.335 264.334 383.366 264.506 383.431C264.677 383.497 264.834 383.595 264.967 383.722C265.1 383.848 265.204 384 265.274 384.169C265.343 384.338 265.376 384.52 265.37 384.702C265.373 384.879 265.339 385.055 265.269 385.218C265.2 385.381 265.097 385.527 264.967 385.648C264.833 385.773 264.676 385.871 264.505 385.936C264.333 386.001 264.151 386.031 263.968 386.026H253.755ZM263.725 404.448C262.416 404.473 261.126 404.137 259.996 403.476C258.866 402.816 257.939 401.857 257.319 400.704C256.668 399.478 256.343 398.106 256.373 396.718V377.139C256.361 376.724 256.512 376.321 256.796 376.017C256.938 375.871 257.109 375.756 257.299 375.681C257.488 375.606 257.691 375.571 257.895 375.579C258.105 375.569 258.314 375.603 258.51 375.678C258.706 375.754 258.884 375.869 259.032 376.018C259.181 376.166 259.297 376.344 259.372 376.54C259.448 376.736 259.481 376.945 259.471 377.155V396.737C259.421 397.965 259.852 399.164 260.672 400.08C261.061 400.507 261.538 400.844 262.07 401.069C262.602 401.293 263.176 401.4 263.753 401.382H264.837C265.032 401.375 265.226 401.412 265.406 401.488C265.586 401.564 265.746 401.678 265.877 401.823C266.15 402.131 266.293 402.533 266.278 402.945C266.285 403.152 266.246 403.359 266.162 403.55C266.079 403.74 265.953 403.909 265.795 404.044C265.462 404.331 265.034 404.481 264.595 404.467L263.725 404.448Z" fill="#176D7E"/>
<path d="M273.416 378.381C273.133 378.386 272.851 378.333 272.589 378.224C272.328 378.116 272.091 377.955 271.894 377.751C271.686 377.546 271.523 377.3 271.415 377.029C271.306 376.758 271.255 376.467 271.264 376.175C271.251 375.88 271.303 375.586 271.418 375.313C271.532 375.041 271.705 374.797 271.925 374.6C272.349 374.221 272.898 374.014 273.466 374.02C274.022 374.019 274.558 374.226 274.97 374.6C275.189 374.797 275.363 375.041 275.477 375.313C275.592 375.586 275.644 375.88 275.631 376.175C275.633 376.466 275.578 376.753 275.468 377.022C275.358 377.291 275.195 377.535 274.99 377.74C274.785 377.945 274.541 378.107 274.272 378.218C274.003 378.328 273.716 378.383 273.425 378.381H273.416ZM273.454 404.451C273.243 404.468 273.032 404.438 272.834 404.364C272.636 404.291 272.457 404.175 272.309 404.025C272.16 403.875 272.046 403.695 271.975 403.496C271.903 403.298 271.875 403.086 271.894 402.876V384.094C271.874 383.884 271.901 383.672 271.972 383.473C272.044 383.274 272.157 383.093 272.306 382.943C272.455 382.792 272.635 382.677 272.833 382.603C273.031 382.53 273.243 382.501 273.454 382.519C273.656 382.51 273.859 382.542 274.048 382.615C274.238 382.687 274.411 382.797 274.557 382.938C274.7 383.09 274.811 383.269 274.883 383.465C274.956 383.661 274.987 383.87 274.976 384.079V402.86C274.987 403.069 274.956 403.278 274.884 403.474C274.812 403.67 274.701 403.849 274.557 404.001C274.414 404.147 274.242 404.263 274.052 404.341C273.862 404.418 273.659 404.456 273.454 404.451Z" fill="#176D7E"/>
<path d="M292.593 404.649C290.62 404.685 288.674 404.181 286.968 403.19C285.341 402.23 284 400.854 283.082 399.204C282.122 397.47 281.632 395.514 281.661 393.532C281.627 391.538 282.095 389.568 283.022 387.803C283.891 386.166 285.181 384.791 286.76 383.82C288.4 382.828 290.288 382.321 292.205 382.358C293.758 382.337 295.297 382.66 296.711 383.303C298.124 383.974 299.364 384.961 300.335 386.186C300.469 386.316 300.569 386.478 300.624 386.656C300.679 386.835 300.688 387.024 300.65 387.207C300.55 387.597 300.307 387.934 299.97 388.153C299.831 388.257 299.671 388.33 299.502 388.368C299.332 388.406 299.157 388.408 298.986 388.373C298.611 388.3 298.275 388.093 298.041 387.79C297.324 386.942 296.427 386.265 295.415 385.809C294.403 385.352 293.302 385.127 292.192 385.15C290.801 385.121 289.432 385.496 288.25 386.23C287.112 386.954 286.196 387.979 285.606 389.193C284.957 390.541 284.633 392.023 284.661 393.519C284.634 395.008 284.979 396.48 285.663 397.802C286.305 399.031 287.276 400.058 288.468 400.767C289.716 401.499 291.142 401.873 292.589 401.848C293.56 401.858 294.527 401.716 295.454 401.426C296.304 401.156 297.088 400.713 297.757 400.124C298.036 399.876 298.385 399.723 298.756 399.686C299.101 399.663 299.44 399.776 299.702 400.001C300.001 400.256 300.194 400.614 300.244 401.003C300.263 401.18 300.238 401.359 300.171 401.524C300.105 401.689 299.999 401.835 299.862 401.949C297.928 403.751 295.504 404.652 292.593 404.649Z" fill="#176D7E"/>
<path d="M314.304 404.65C312.709 404.648 311.125 404.377 309.618 403.85C308.177 403.387 306.88 402.56 305.853 401.448C305.714 401.308 305.61 401.137 305.547 400.95C305.485 400.762 305.467 400.563 305.493 400.368C305.553 399.956 305.768 399.582 306.095 399.325C306.415 399.08 306.815 398.964 307.216 399.002C307.617 399.039 307.988 399.226 308.257 399.526C308.945 400.306 309.82 400.898 310.8 401.247C311.922 401.66 313.109 401.864 314.304 401.849C316.279 401.849 317.707 401.508 318.587 400.828C318.989 400.551 319.322 400.184 319.558 399.756C319.794 399.328 319.928 398.852 319.948 398.363C319.948 397.401 319.494 396.607 318.587 395.981C317.679 395.355 316.185 394.873 314.103 394.535C311.405 394.115 309.429 393.368 308.175 392.294C306.921 391.221 306.291 389.952 306.284 388.487C306.241 387.262 306.623 386.06 307.365 385.084C308.121 384.152 309.119 383.446 310.249 383.042C311.518 382.577 312.861 382.346 314.213 382.361C315.804 382.322 317.384 382.636 318.839 383.282C320.072 383.846 321.153 384.698 321.99 385.765C322.114 385.914 322.206 386.087 322.26 386.272C322.314 386.458 322.33 386.654 322.305 386.846C322.275 387.037 322.203 387.218 322.094 387.378C321.985 387.538 321.842 387.671 321.675 387.769C321.341 387.957 320.952 388.021 320.575 387.949C320.165 387.884 319.789 387.679 319.513 387.369C318.886 386.624 318.09 386.04 317.191 385.667C316.221 385.289 315.187 385.105 314.147 385.125C312.676 385.125 311.502 385.426 310.624 386.026C309.746 386.627 309.304 387.381 309.3 388.289C309.288 388.863 309.464 389.425 309.801 389.89C310.26 390.435 310.854 390.849 311.525 391.09C312.627 391.517 313.776 391.813 314.947 391.973C316.947 392.294 318.529 392.768 319.693 393.394C320.706 393.889 321.565 394.652 322.176 395.6C322.666 396.431 322.921 397.38 322.917 398.345C322.936 399.539 322.547 400.704 321.814 401.647C321.013 402.638 319.964 403.399 318.773 403.853C317.35 404.41 315.832 404.681 314.304 404.65Z" fill="#176D7E"/>
<path d="M270.608 199.306C237.3 199.306 270.608 239.415 270.608 239.415C270.608 239.415 303.914 199.306 270.608 199.306ZM270.608 224.676C268.382 224.677 266.206 224.017 264.354 222.781C262.503 221.544 261.059 219.787 260.207 217.73C259.354 215.673 259.131 213.41 259.565 211.226C259.999 209.042 261.071 207.036 262.645 205.462C264.219 203.887 266.225 202.815 268.408 202.38C270.592 201.946 272.855 202.169 274.912 203.02C276.969 203.872 278.727 205.315 279.964 207.166C281.201 209.017 281.862 211.194 281.862 213.42C281.863 214.899 281.573 216.363 281.008 217.729C280.443 219.096 279.614 220.337 278.569 221.383C277.524 222.429 276.283 223.259 274.917 223.825C273.551 224.391 272.087 224.683 270.608 224.683V224.676Z" fill="#1DA99D"/>
<path d="M270.611 203.705C268.689 203.704 266.809 204.274 265.211 205.341C263.612 206.409 262.366 207.927 261.63 209.703C260.894 211.479 260.701 213.433 261.076 215.319C261.451 217.204 262.377 218.936 263.736 220.295C265.095 221.655 266.827 222.58 268.713 222.955C270.598 223.33 272.553 223.137 274.329 222.401C276.105 221.665 277.622 220.419 278.69 218.821C279.758 217.222 280.327 215.343 280.326 213.42C280.326 210.844 279.303 208.372 277.481 206.55C275.659 204.729 273.188 203.705 270.611 203.705ZM270.611 221.572C268.999 221.572 267.423 221.093 266.083 220.197C264.743 219.301 263.698 218.027 263.082 216.538C262.465 215.048 262.304 213.409 262.619 211.828C262.934 210.247 263.711 208.794 264.851 207.655C265.991 206.515 267.444 205.739 269.025 205.424C270.606 205.11 272.245 205.272 273.735 205.889C275.224 206.506 276.497 207.551 277.393 208.891C278.289 210.232 278.767 211.808 278.767 213.42C278.766 215.583 277.906 217.656 276.377 219.185C274.847 220.714 272.774 221.572 270.611 221.572Z" fill="#1DA99D"/>
<path d="M274.39 247.246C274.39 247.994 274.168 248.725 273.753 249.347C273.337 249.969 272.747 250.454 272.056 250.74C271.365 251.026 270.604 251.101 269.871 250.955C269.137 250.809 268.464 250.449 267.935 249.92C267.406 249.391 267.046 248.717 266.9 247.984C266.754 247.25 266.829 246.49 267.115 245.799C267.401 245.108 267.886 244.517 268.508 244.102C269.13 243.686 269.861 243.465 270.609 243.465C271.612 243.465 272.573 243.863 273.283 244.572C273.992 245.281 274.39 246.243 274.39 247.246Z" fill="#1DA99D"/>
<path d="M240.814 210.303C242.551 208.459 243.772 206.19 244.355 203.724C244.938 201.258 244.862 198.682 244.135 196.255L229.044 145.873C228.528 144.154 228.469 142.33 228.874 140.582C229.279 138.833 230.132 137.221 231.351 135.903L244.961 121.168C248.354 117.497 250.873 113.107 252.332 108.326L253.277 105.222C253.45 104.663 253.462 104.066 253.312 103.5C253.162 102.934 252.856 102.422 252.429 102.021C252.002 101.62 251.471 101.347 250.897 101.234C250.323 101.12 249.728 101.17 249.18 101.378L246.139 102.509C241.457 104.256 237.228 107.036 233.768 110.643L219.883 125.138C218.641 126.433 217.083 127.383 215.362 127.892C213.641 128.402 211.818 128.454 210.07 128.044L158.882 116.022C156.415 115.442 153.84 115.521 151.414 116.252C148.988 116.983 146.797 118.339 145.061 120.184C166.845 125.939 189.055 138.436 198.115 143.879C198.404 144.053 198.65 144.29 198.835 144.572C199.02 144.854 199.139 145.174 199.183 145.509C199.227 145.843 199.195 146.184 199.09 146.504C198.985 146.825 198.809 147.117 198.575 147.361L194.749 145.271C193.851 144.778 192.8 144.643 191.806 144.892C190.813 145.142 189.95 145.758 189.392 146.617L186.282 151.41C185.861 152.058 185.667 152.827 185.73 153.597C185.796 154.399 185.583 155.2 185.125 155.863L183.963 157.552L185.806 156.175C186.379 155.746 187.07 155.505 187.785 155.485L188.992 155.447L190.927 155.352L187.983 158.422C186.093 160.395 184.46 162.599 183.124 164.982L176.406 176.976L162.26 170.989C160.788 170.369 159.149 170.265 157.611 170.693C156.072 171.121 154.723 172.057 153.783 173.349L150.856 177.37L171.354 185.976L169.486 189.316C169.419 189.433 169.393 189.57 169.413 189.704C169.432 189.837 169.496 189.96 169.595 190.053C169.693 190.146 169.819 190.203 169.954 190.215C170.089 190.227 170.223 190.194 170.337 190.12L173.557 188.049L183.386 207.981L187.252 204.789C188.477 203.777 189.327 202.384 189.664 200.831C190.001 199.279 189.807 197.658 189.112 196.23L182.368 182.365L193.804 175.025C196.103 173.548 198.204 171.785 200.059 169.779L202.946 166.653L202.968 168.591L203.005 169.797C203.028 170.512 202.829 171.217 202.435 171.814L201.175 173.74L202.791 172.479C203.425 171.984 204.211 171.723 205.016 171.742C205.788 171.758 206.544 171.518 207.165 171.058L211.766 167.645C212.59 167.036 213.152 166.137 213.341 165.13C213.53 164.123 213.331 163.082 212.784 162.216L210.455 158.526C210.683 158.277 210.964 158.083 211.278 157.958C211.591 157.833 211.929 157.781 212.266 157.804C212.602 157.828 212.929 157.928 213.222 158.096C213.514 158.264 213.765 158.496 213.956 158.774C219.931 167.497 233.752 188.907 240.814 210.303Z" fill="#1DA99D"/>
<path d="M166.463 246.449C166.387 246.707 166.299 246.969 166.201 247.221C166.159 247.329 166.074 247.416 165.968 247.463C165.861 247.509 165.74 247.512 165.631 247.47C165.577 247.449 165.528 247.417 165.486 247.377C165.444 247.337 165.411 247.289 165.388 247.236C165.364 247.183 165.352 247.126 165.351 247.068C165.35 247.01 165.361 246.953 165.382 246.899C165.719 246.04 165.915 245.133 165.962 244.211C165.964 244.154 165.978 244.097 166.002 244.045C166.027 243.993 166.061 243.946 166.104 243.907C166.146 243.868 166.196 243.838 166.25 243.818C166.304 243.798 166.361 243.79 166.419 243.792C166.476 243.795 166.533 243.808 166.585 243.833C166.637 243.857 166.684 243.891 166.723 243.934C166.762 243.976 166.792 244.026 166.812 244.08C166.832 244.134 166.84 244.191 166.838 244.249C166.804 244.995 166.678 245.734 166.463 246.449ZM164.771 249.701C164.755 249.754 164.729 249.805 164.695 249.849C164.073 250.651 163.329 251.349 162.489 251.919C162.441 251.951 162.388 251.974 162.331 251.985C162.275 251.996 162.217 251.996 162.16 251.985C162.104 251.974 162.05 251.952 162.002 251.92C161.954 251.888 161.913 251.847 161.881 251.799C161.849 251.752 161.827 251.698 161.815 251.641C161.804 251.585 161.804 251.527 161.815 251.47C161.826 251.414 161.848 251.36 161.88 251.312C161.912 251.264 161.953 251.223 162.001 251.191C162.768 250.67 163.449 250.032 164.018 249.3C164.054 249.254 164.099 249.215 164.151 249.186C164.202 249.157 164.259 249.139 164.317 249.132C164.376 249.125 164.436 249.13 164.492 249.147C164.549 249.163 164.602 249.191 164.648 249.228C164.713 249.286 164.759 249.361 164.781 249.446C164.803 249.53 164.799 249.619 164.771 249.701ZM166.413 241.507C166.392 241.575 166.355 241.636 166.306 241.687C166.257 241.737 166.196 241.775 166.129 241.797C166.074 241.816 166.017 241.824 165.959 241.82C165.901 241.816 165.845 241.801 165.793 241.775C165.742 241.749 165.696 241.713 165.658 241.67C165.621 241.626 165.592 241.575 165.574 241.52C165.283 240.643 164.858 239.816 164.314 239.068C164.28 239.022 164.255 238.969 164.242 238.913C164.228 238.857 164.226 238.799 164.235 238.742C164.244 238.685 164.264 238.631 164.294 238.581C164.324 238.532 164.363 238.489 164.41 238.455C164.456 238.422 164.509 238.397 164.565 238.384C164.621 238.37 164.679 238.368 164.736 238.377C164.793 238.385 164.848 238.406 164.897 238.436C164.946 238.466 164.989 238.505 165.023 238.552C165.625 239.371 166.096 240.279 166.419 241.243C166.439 241.325 166.437 241.411 166.413 241.492V241.507ZM160.003 252.852C159.984 252.928 159.944 252.997 159.889 253.053C159.833 253.108 159.764 253.148 159.688 253.167C158.808 253.362 157.899 253.39 157.009 253.249C156.877 253.227 156.748 253.205 156.618 253.176C156.562 253.165 156.508 253.142 156.461 253.109C156.413 253.077 156.372 253.035 156.341 252.987C156.309 252.939 156.287 252.885 156.277 252.828C156.266 252.771 156.266 252.713 156.278 252.657C156.29 252.6 156.313 252.546 156.345 252.499C156.378 252.451 156.419 252.41 156.468 252.379C156.516 252.347 156.57 252.325 156.627 252.315C156.683 252.304 156.742 252.304 156.798 252.316L157.148 252.382C157.929 252.506 158.727 252.481 159.499 252.31C159.555 252.297 159.613 252.296 159.67 252.306C159.727 252.316 159.781 252.337 159.83 252.368C159.878 252.399 159.92 252.44 159.953 252.487C159.986 252.534 160.01 252.588 160.022 252.644C160.031 252.709 160.025 252.775 160.003 252.836V252.852ZM163.06 236.85C163.043 236.903 163.017 236.953 162.984 236.998C162.948 237.045 162.902 237.084 162.851 237.113C162.799 237.142 162.742 237.16 162.684 237.166C162.625 237.173 162.565 237.167 162.509 237.15C162.452 237.133 162.399 237.105 162.354 237.067C161.619 236.486 160.819 235.994 159.968 235.602C159.871 235.547 159.799 235.458 159.765 235.353C159.731 235.247 159.738 235.132 159.785 235.031C159.832 234.931 159.915 234.851 160.018 234.809C160.121 234.767 160.236 234.766 160.34 234.805C161.252 235.228 162.111 235.757 162.899 236.38C162.967 236.432 163.019 236.503 163.047 236.583C163.076 236.664 163.08 236.751 163.06 236.834V236.85ZM140.317 301.346C140.285 301.458 140.21 301.553 140.109 301.61C140.007 301.666 139.887 301.68 139.775 301.649C139.663 301.617 139.568 301.542 139.512 301.44C139.455 301.339 139.441 301.219 139.473 301.107C139.712 300.224 139.93 299.282 140.103 298.305C140.126 298.191 140.192 298.091 140.288 298.026C140.384 297.96 140.502 297.935 140.617 297.955C140.673 297.966 140.727 297.988 140.776 298.019C140.824 298.051 140.866 298.092 140.898 298.14C140.931 298.187 140.954 298.241 140.965 298.298C140.977 298.354 140.977 298.412 140.966 298.469C140.774 299.468 140.554 300.432 140.308 301.337L140.317 301.346ZM139.425 304.116V304.144C139.078 305.069 138.677 305.973 138.225 306.851C138.167 306.948 138.075 307.019 137.966 307.05C137.858 307.081 137.742 307.069 137.642 307.017C137.542 306.965 137.466 306.877 137.429 306.771C137.392 306.664 137.397 306.548 137.443 306.445C137.88 305.599 138.268 304.727 138.603 303.836C138.645 303.727 138.728 303.639 138.834 303.591C138.94 303.543 139.061 303.539 139.17 303.58C139.273 303.621 139.356 303.699 139.403 303.798C139.451 303.897 139.459 304.011 139.425 304.116ZM141.43 295.639C141.418 295.696 141.395 295.749 141.362 295.796C141.329 295.844 141.288 295.884 141.239 295.916C141.191 295.947 141.137 295.968 141.081 295.979C141.024 295.989 140.966 295.988 140.91 295.976C140.853 295.964 140.8 295.942 140.753 295.909C140.705 295.876 140.665 295.835 140.633 295.786C140.602 295.738 140.581 295.684 140.57 295.627C140.56 295.571 140.56 295.513 140.572 295.457C140.639 294.962 140.698 294.448 140.755 293.925C140.799 293.484 140.843 293.033 140.884 292.583C140.903 292.473 140.962 292.375 141.05 292.307C141.138 292.24 141.248 292.207 141.359 292.217C141.469 292.227 141.572 292.279 141.646 292.361C141.721 292.443 141.762 292.55 141.76 292.661C141.719 293.115 141.675 293.572 141.628 294.02C141.571 294.546 141.508 295.069 141.442 295.573C141.439 295.595 141.435 295.618 141.43 295.639ZM154.447 251.73C154.434 251.77 154.418 251.808 154.397 251.843C154.333 251.941 154.234 252.009 154.12 252.034C154.006 252.059 153.887 252.038 153.789 251.976C152.938 251.422 152.172 250.747 151.517 249.972C151.449 249.882 151.418 249.769 151.431 249.658C151.443 249.546 151.498 249.443 151.583 249.37C151.669 249.297 151.779 249.26 151.892 249.266C152.004 249.271 152.11 249.32 152.188 249.401C152.785 250.112 153.485 250.73 154.265 251.235C154.344 251.287 154.405 251.363 154.438 251.452C154.471 251.541 154.474 251.639 154.447 251.73ZM136.737 309.259C136.722 309.305 136.701 309.348 136.674 309.388C136.384 309.791 136.082 310.189 135.767 310.567C135.452 310.945 135.114 311.317 134.758 311.67C134.718 311.712 134.669 311.746 134.615 311.77C134.561 311.793 134.502 311.805 134.443 311.805C134.384 311.805 134.326 311.793 134.272 311.77C134.218 311.746 134.169 311.712 134.128 311.67C134.086 311.629 134.053 311.58 134.03 311.525C134.007 311.471 133.996 311.413 133.996 311.354C133.996 311.296 134.007 311.238 134.03 311.184C134.053 311.129 134.086 311.08 134.128 311.039C134.46 310.708 134.776 310.36 135.074 309.996C135.373 309.637 135.663 309.256 135.937 308.868C135.998 308.784 136.086 308.724 136.187 308.698C136.288 308.673 136.395 308.684 136.488 308.73C136.582 308.775 136.656 308.852 136.698 308.948C136.74 309.043 136.748 309.15 136.718 309.249L136.737 309.259ZM141.943 289.844C141.915 289.95 141.849 290.041 141.757 290.101C141.665 290.16 141.555 290.183 141.447 290.164C141.339 290.146 141.242 290.088 141.175 290.002C141.107 289.916 141.075 289.808 141.083 289.699C141.13 288.754 141.162 287.768 141.171 286.806C141.18 286.696 141.231 286.594 141.312 286.519C141.394 286.444 141.5 286.402 141.611 286.402C141.721 286.402 141.828 286.444 141.909 286.519C141.991 286.594 142.041 286.696 142.05 286.806C142.05 287.777 142.009 288.76 141.962 289.731C141.96 289.769 141.954 289.807 141.943 289.844ZM157.835 234.383C157.806 234.491 157.736 234.584 157.641 234.642C157.545 234.701 157.431 234.721 157.321 234.698C156.406 234.503 155.471 234.416 154.536 234.439C154.419 234.442 154.306 234.398 154.222 234.318C154.137 234.238 154.088 234.127 154.085 234.011C154.083 233.953 154.092 233.896 154.112 233.842C154.133 233.788 154.164 233.738 154.203 233.696C154.243 233.654 154.29 233.621 154.343 233.597C154.396 233.574 154.453 233.561 154.51 233.56C155.516 233.535 156.521 233.629 157.504 233.84C157.56 233.852 157.614 233.875 157.662 233.907C157.709 233.94 157.75 233.981 157.781 234.03C157.813 234.078 157.834 234.132 157.845 234.189C157.855 234.246 157.854 234.304 157.841 234.36C157.84 234.371 157.838 234.382 157.835 234.392V234.383ZM142.013 284.027C141.984 284.129 141.92 284.217 141.832 284.276C141.744 284.334 141.638 284.359 141.533 284.345C141.428 284.331 141.332 284.28 141.262 284.201C141.192 284.121 141.153 284.019 141.152 283.914C141.127 282.952 141.083 281.979 141.02 281.024C141.013 280.964 141.018 280.904 141.035 280.846C141.052 280.788 141.081 280.735 141.119 280.689C141.158 280.643 141.205 280.605 141.259 280.578C141.312 280.55 141.371 280.535 141.431 280.531C141.491 280.527 141.551 280.536 141.608 280.556C141.664 280.577 141.716 280.608 141.76 280.65C141.804 280.691 141.839 280.74 141.863 280.796C141.887 280.851 141.899 280.91 141.899 280.97C141.959 281.935 142.003 282.918 142.028 283.892C142.031 283.937 142.026 283.983 142.013 284.027ZM132.634 313.333C132.604 313.429 132.543 313.512 132.461 313.57C131.64 314.134 130.77 314.625 129.861 315.035C129.761 315.058 129.657 315.045 129.565 314.998C129.474 314.952 129.401 314.875 129.36 314.781C129.319 314.687 129.312 314.582 129.34 314.483C129.369 314.385 129.43 314.299 129.515 314.241C130.375 313.854 131.199 313.39 131.976 312.854C132.023 312.822 132.077 312.798 132.133 312.786C132.19 312.774 132.248 312.773 132.305 312.784C132.362 312.794 132.416 312.816 132.465 312.848C132.513 312.879 132.555 312.92 132.587 312.968C132.622 313.023 132.645 313.085 132.653 313.15C132.661 313.215 132.655 313.281 132.634 313.343V313.333ZM141.641 278.222C141.611 278.319 141.549 278.403 141.465 278.46C141.381 278.516 141.279 278.542 141.178 278.533C141.077 278.524 140.983 278.48 140.91 278.409C140.838 278.338 140.792 278.244 140.78 278.144C140.746 277.788 140.705 277.431 140.664 277.075C140.598 276.496 140.522 275.906 140.434 275.27C140.418 275.154 140.448 275.037 140.519 274.945C140.589 274.852 140.693 274.791 140.809 274.775C140.924 274.759 141.041 274.79 141.134 274.86C141.227 274.93 141.288 275.035 141.304 275.15C141.392 275.78 141.467 276.388 141.537 276.975C141.578 277.334 141.619 277.693 141.653 278.052C141.66 278.109 141.656 278.167 141.641 278.222ZM150.685 247.372C150.659 247.456 150.608 247.53 150.539 247.585C150.47 247.641 150.387 247.674 150.299 247.681C150.211 247.688 150.123 247.669 150.047 247.625C149.97 247.582 149.908 247.517 149.869 247.438C149.607 246.904 149.383 246.353 149.2 245.787C149.078 245.405 148.967 245.008 148.885 244.605C148.869 244.495 148.894 244.383 148.956 244.291C149.019 244.199 149.114 244.134 149.222 244.108C149.33 244.083 149.444 244.1 149.541 244.155C149.637 244.211 149.709 244.3 149.743 244.407C149.831 244.785 149.935 245.16 150.058 245.519C150.231 246.045 150.442 246.558 150.688 247.054C150.726 247.156 150.725 247.27 150.685 247.372ZM165.398 195.736C165.384 195.782 165.363 195.826 165.335 195.865C164.777 196.646 164.226 197.441 163.696 198.25C163.632 198.347 163.532 198.415 163.418 198.438C163.303 198.461 163.185 198.438 163.088 198.373C162.991 198.309 162.924 198.209 162.901 198.095C162.878 197.981 162.901 197.862 162.965 197.765C163.501 196.955 164.055 196.145 164.619 195.354C164.679 195.268 164.768 195.205 164.869 195.179C164.971 195.152 165.079 195.163 165.173 195.209C165.268 195.255 165.342 195.334 165.384 195.431C165.425 195.527 165.43 195.636 165.398 195.736ZM140.859 272.459C140.831 272.555 140.772 272.638 140.69 272.696C140.608 272.753 140.509 272.781 140.409 272.774C140.31 272.768 140.215 272.727 140.142 272.659C140.068 272.592 140.02 272.501 140.005 272.402C139.867 271.523 139.718 270.644 139.573 269.765L139.536 269.535C139.526 269.478 139.527 269.419 139.54 269.363C139.553 269.307 139.576 269.253 139.61 269.206C139.643 269.159 139.685 269.119 139.734 269.088C139.783 269.057 139.838 269.037 139.895 269.027C140.01 269.009 140.128 269.037 140.223 269.104C140.318 269.172 140.382 269.275 140.402 269.39L140.44 269.62C140.585 270.502 140.733 271.381 140.872 272.263C140.883 272.329 140.879 272.396 140.859 272.459ZM162.187 200.595C162.177 200.633 162.161 200.669 162.139 200.702C161.635 201.518 161.137 202.357 160.658 203.188C160.601 203.29 160.505 203.364 160.393 203.394C160.281 203.425 160.161 203.41 160.06 203.352C159.959 203.295 159.884 203.199 159.854 203.087C159.823 202.975 159.838 202.855 159.896 202.754C160.381 201.909 160.882 201.065 161.393 200.233C161.448 200.14 161.534 200.071 161.637 200.039C161.739 200.006 161.85 200.013 161.948 200.057C162.046 200.101 162.125 200.179 162.169 200.277C162.213 200.375 162.219 200.486 162.187 200.589V200.595ZM152.074 234.553C152.053 234.626 152.012 234.692 151.957 234.745C151.902 234.797 151.833 234.834 151.759 234.852C151.031 235.049 150.321 235.306 149.635 235.621C149.635 235.712 149.61 235.804 149.601 235.895C149.584 236.002 149.528 236.1 149.444 236.168C149.359 236.237 149.253 236.272 149.144 236.267C149.036 236.262 148.933 236.217 148.856 236.141C148.778 236.065 148.732 235.963 148.725 235.854C148.647 235.812 148.584 235.747 148.545 235.668C148.493 235.565 148.484 235.445 148.52 235.336C148.556 235.226 148.634 235.135 148.737 235.082L148.829 235.035L148.848 234.909C148.939 234.241 149.043 233.56 149.163 232.892C149.183 232.778 149.247 232.676 149.341 232.608C149.435 232.54 149.552 232.512 149.667 232.53C149.724 232.539 149.778 232.559 149.827 232.589C149.877 232.62 149.919 232.66 149.953 232.706C149.987 232.753 150.011 232.806 150.024 232.862C150.037 232.919 150.039 232.977 150.029 233.034C149.944 233.554 149.862 234.08 149.787 234.609C150.358 234.374 150.945 234.175 151.542 234.014C151.617 233.993 151.697 233.993 151.772 234.013C151.848 234.034 151.917 234.074 151.971 234.13C152.026 234.186 152.065 234.256 152.083 234.332C152.102 234.408 152.1 234.487 152.078 234.562L152.074 234.553ZM149.314 241.769C149.283 241.867 149.219 241.95 149.133 242.006C149.047 242.061 148.944 242.085 148.842 242.073C148.74 242.061 148.646 242.014 148.575 241.94C148.504 241.867 148.461 241.77 148.454 241.668C148.395 240.683 148.395 239.695 148.454 238.709C148.46 238.593 148.513 238.484 148.6 238.407C148.687 238.329 148.801 238.29 148.917 238.296C149.033 238.303 149.142 238.356 149.219 238.442C149.297 238.529 149.336 238.643 149.33 238.76C149.275 239.71 149.275 240.664 149.33 241.615C149.332 241.667 149.327 241.719 149.314 241.769ZM159.291 205.643C159.283 205.672 159.272 205.699 159.259 205.725C158.809 206.573 158.364 207.439 157.942 208.303C157.891 208.407 157.801 208.487 157.691 208.525C157.581 208.563 157.46 208.556 157.356 208.505C157.251 208.454 157.171 208.363 157.134 208.253C157.096 208.143 157.103 208.023 157.154 207.918C157.58 207.046 158.027 206.17 158.481 205.312C158.529 205.211 158.614 205.132 158.718 205.091C158.823 205.05 158.939 205.051 159.043 205.093C159.147 205.136 159.23 205.217 159.276 205.319C159.323 205.421 159.328 205.537 159.291 205.643ZM156.732 210.868C156.726 210.887 156.719 210.906 156.71 210.925C156.316 211.798 155.932 212.693 155.563 213.581C155.541 213.634 155.509 213.683 155.468 213.723C155.427 213.764 155.379 213.797 155.326 213.819C155.273 213.841 155.216 213.852 155.159 213.852C155.101 213.852 155.044 213.841 154.991 213.819C154.938 213.797 154.889 213.765 154.849 213.724C154.808 213.684 154.776 213.636 154.753 213.582C154.731 213.529 154.72 213.472 154.72 213.415C154.72 213.357 154.731 213.3 154.753 213.247C155.122 212.349 155.512 211.445 155.909 210.562C155.956 210.46 156.04 210.379 156.144 210.336C156.248 210.294 156.364 210.292 156.469 210.332C156.574 210.373 156.66 210.452 156.709 210.553C156.758 210.654 156.766 210.77 156.732 210.877V210.868ZM139.914 266.714C139.892 266.795 139.847 266.868 139.784 266.924C139.722 266.98 139.644 267.017 139.561 267.029C139.504 267.038 139.446 267.036 139.39 267.022C139.334 267.009 139.281 266.984 139.235 266.95C139.188 266.916 139.149 266.874 139.119 266.824C139.089 266.775 139.069 266.721 139.06 266.664C138.89 265.592 138.745 264.647 138.638 263.777C138.63 263.72 138.634 263.662 138.648 263.606C138.663 263.551 138.689 263.498 138.724 263.453C138.759 263.407 138.802 263.368 138.852 263.339C138.902 263.311 138.957 263.292 139.014 263.284C139.071 263.276 139.129 263.28 139.185 263.295C139.241 263.31 139.293 263.335 139.339 263.37C139.384 263.405 139.423 263.449 139.452 263.499C139.481 263.548 139.5 263.603 139.507 263.661C139.624 264.524 139.759 265.463 139.926 266.528C139.937 266.59 139.933 266.654 139.914 266.714ZM150.53 230.223C150.502 230.336 150.431 230.433 150.331 230.493C150.231 230.553 150.112 230.571 149.999 230.543C149.886 230.515 149.789 230.443 149.729 230.343C149.669 230.244 149.651 230.125 149.679 230.012C149.865 229.066 150.073 228.102 150.294 227.154C150.307 227.098 150.331 227.045 150.364 226.998C150.398 226.951 150.44 226.911 150.489 226.881C150.538 226.85 150.592 226.83 150.649 226.82C150.706 226.811 150.764 226.813 150.82 226.826C150.876 226.839 150.929 226.863 150.976 226.896C151.023 226.93 151.063 226.972 151.093 227.021C151.124 227.07 151.144 227.124 151.153 227.181C151.163 227.238 151.161 227.296 151.148 227.352C150.931 228.297 150.726 229.243 150.54 230.188L150.53 230.223ZM154.51 216.247V216.276C154.173 217.177 153.845 218.094 153.54 219.004C153.502 219.115 153.422 219.206 153.318 219.257C153.213 219.308 153.092 219.316 152.982 219.279C152.872 219.241 152.781 219.161 152.729 219.057C152.678 218.952 152.67 218.831 152.708 218.721C153.023 217.804 153.338 216.877 153.688 215.967C153.725 215.856 153.805 215.765 153.909 215.714C154.013 215.662 154.134 215.654 154.244 215.691C154.354 215.728 154.445 215.808 154.497 215.912C154.549 216.016 154.557 216.137 154.52 216.247H154.51ZM151.848 224.557C151.816 224.669 151.741 224.764 151.639 224.82C151.538 224.877 151.417 224.891 151.306 224.859C151.194 224.828 151.099 224.753 151.042 224.651C150.985 224.549 150.971 224.429 151.003 224.317C151.255 223.372 151.523 222.427 151.803 221.507C151.837 221.395 151.913 221.301 152.016 221.246C152.118 221.191 152.239 221.178 152.35 221.212C152.462 221.245 152.555 221.322 152.611 221.424C152.666 221.527 152.678 221.647 152.645 221.759C152.367 222.679 152.1 223.612 151.851 224.541L151.848 224.557ZM146.9 237.14C146.874 237.229 146.82 237.307 146.746 237.364C145.993 237.935 145.289 238.568 144.641 239.254C144.603 239.303 144.556 239.343 144.502 239.372C144.448 239.401 144.388 239.418 144.327 239.422C144.266 239.427 144.205 239.419 144.147 239.398C144.089 239.377 144.036 239.345 143.992 239.302C143.948 239.26 143.913 239.209 143.89 239.152C143.866 239.096 143.855 239.035 143.857 238.973C143.859 238.912 143.873 238.852 143.9 238.797C143.926 238.741 143.964 238.692 144.01 238.652C144.689 237.927 145.427 237.259 146.216 236.655C146.29 236.6 146.38 236.569 146.472 236.568C146.564 236.566 146.655 236.594 146.73 236.646C146.806 236.699 146.864 236.774 146.895 236.86C146.926 236.947 146.929 237.042 146.903 237.13L146.9 237.14ZM139.161 260.947C139.135 261.032 139.086 261.107 139.018 261.163C138.95 261.219 138.867 261.254 138.779 261.263C138.722 261.268 138.664 261.262 138.609 261.244C138.554 261.227 138.503 261.199 138.459 261.163C138.415 261.126 138.378 261.081 138.352 261.03C138.325 260.979 138.309 260.923 138.304 260.865L138.278 260.591C138.196 259.687 138.137 258.795 138.105 257.938C138.102 257.88 138.111 257.823 138.13 257.769C138.15 257.715 138.18 257.665 138.219 257.623C138.258 257.581 138.305 257.546 138.358 257.523C138.41 257.499 138.467 257.486 138.524 257.484C138.582 257.481 138.639 257.49 138.694 257.509C138.748 257.529 138.798 257.559 138.84 257.598C138.883 257.637 138.917 257.684 138.941 257.737C138.966 257.789 138.979 257.846 138.981 257.903C139.013 258.745 139.072 259.624 139.151 260.513L139.176 260.784C139.183 260.838 139.179 260.894 139.164 260.947H139.161ZM138.943 255.133C138.913 255.235 138.846 255.321 138.757 255.377C138.667 255.434 138.56 255.456 138.456 255.439C138.351 255.422 138.256 255.369 138.188 255.288C138.12 255.207 138.084 255.104 138.086 254.998C138.114 253.989 138.181 253 138.285 252.058C138.291 252 138.309 251.945 138.337 251.894C138.364 251.844 138.402 251.799 138.447 251.763C138.492 251.727 138.544 251.701 138.599 251.685C138.655 251.669 138.713 251.664 138.77 251.67C138.827 251.677 138.883 251.694 138.933 251.722C138.984 251.75 139.028 251.787 139.064 251.833C139.1 251.878 139.127 251.929 139.143 251.985C139.159 252.04 139.164 252.098 139.158 252.155C139.057 253.072 138.99 254.046 138.962 255.023C138.963 255.06 138.958 255.098 138.946 255.133H138.943ZM142.917 241.35C142.905 241.394 142.884 241.436 142.857 241.473C142.319 242.255 141.84 243.075 141.423 243.928C141.372 244.032 141.282 244.112 141.172 244.15C141.062 244.188 140.942 244.18 140.837 244.129C140.733 244.078 140.653 243.988 140.615 243.878C140.577 243.768 140.584 243.648 140.635 243.543C141.07 242.65 141.571 241.792 142.135 240.975C142.194 240.888 142.282 240.824 142.384 240.797C142.485 240.769 142.593 240.779 142.688 240.825C142.783 240.87 142.858 240.948 142.9 241.045C142.942 241.141 142.948 241.249 142.917 241.35ZM139.599 249.36C139.57 249.473 139.498 249.57 139.398 249.63C139.298 249.689 139.179 249.707 139.066 249.679C138.953 249.65 138.856 249.578 138.797 249.478C138.737 249.378 138.719 249.259 138.748 249.146C138.896 248.44 139.063 247.747 139.271 247.079C139.35 246.814 139.435 246.549 139.52 246.291C139.538 246.236 139.567 246.186 139.605 246.143C139.643 246.099 139.689 246.064 139.741 246.038C139.793 246.012 139.849 245.997 139.906 245.993C139.964 245.989 140.021 245.997 140.076 246.015C140.131 246.034 140.181 246.063 140.225 246.101C140.268 246.139 140.304 246.185 140.329 246.236C140.355 246.288 140.37 246.344 140.374 246.402C140.378 246.459 140.37 246.517 140.352 246.571C140.27 246.82 140.188 247.076 140.112 247.334C139.92 247.964 139.753 248.648 139.608 249.329L139.599 249.36Z" fill="#196E7E" stroke="#176D7E" stroke-width="0.969262" stroke-miterlimit="10"/>
<path d="M168.045 192.224C168.028 192.277 168.003 192.326 167.969 192.369C167.67 192.748 167.37 193.135 167.077 193.52C167.044 193.571 167.001 193.615 166.951 193.649C166.9 193.683 166.843 193.706 166.782 193.717C166.722 193.728 166.661 193.726 166.601 193.712C166.542 193.697 166.486 193.671 166.438 193.634C166.389 193.597 166.349 193.55 166.319 193.497C166.289 193.443 166.271 193.385 166.266 193.324C166.26 193.263 166.267 193.202 166.286 193.144C166.306 193.086 166.337 193.032 166.378 192.987C166.674 192.599 166.979 192.209 167.279 191.824C167.343 191.746 167.432 191.692 167.532 191.671C167.631 191.651 167.735 191.666 167.825 191.713C167.915 191.76 167.986 191.836 168.026 191.929C168.066 192.023 168.072 192.127 168.045 192.224Z" fill="#196E7E" stroke="#176D7E" stroke-width="0.969262" stroke-miterlimit="10"/>
<path d="M184.66 109.894L188.756 108.211C193.483 104.707 190.707 102.397 188.164 99.0911C189.891 95.505 195.487 95.8454 196.193 91.1248C192.894 88.6763 182.778 95.8107 182.643 89.7288C182.564 85.7141 190.565 79.96 193.792 78.7531C197.019 77.5461 206.003 77.3917 209.138 78.9547C211.581 80.1743 212.895 82.4747 212.447 85.0272C211.959 87.8097 209.375 89.0198 208.035 91.6448C211.36 92.9053 213.049 88.7362 214.231 86.6879C216.2 83.2688 217.757 84.6585 221.006 83.4074C223.962 82.2667 225.83 79.9663 229.117 79.147C231.676 78.5167 234.553 77.9558 237.169 77.543C240.156 77.0672 242.144 78.6113 244.88 78.6207C249.042 78.6207 247.58 72.5388 251.661 75.6396C253.111 76.7426 251.734 77.1869 254.04 78.0661C255.02 78.4379 257.116 78.6963 258.247 78.9264C263.412 79.9789 260.825 77.6218 260.39 74.231C259.839 69.9202 262.873 72.6334 265.596 73.8466C267.591 74.7384 267.603 73.9033 268.476 76.0052C269.248 77.8613 267.606 78.5577 269.674 79.8308C273.619 82.2478 273.524 76.626 273.524 74.7762C273.524 71.625 274.155 69.8351 271.11 67.6891C272.056 66.8981 272.963 65.625 273.162 64.3866C270.326 62.9969 271.136 60.8005 269.655 58.7396C267.168 55.2732 265.889 58.3457 263.295 59.2974C260.617 60.2805 258.162 58.1692 255.578 59.8236C252.893 61.541 252.676 64.0809 249.209 60.8131C250.716 59.7039 251.778 57.706 252.717 56.0863C251.724 55.1994 250.817 54.2214 250.007 53.1651C252.613 49.2607 257.16 51.81 260.349 53.3951C263.923 55.1724 267.231 52.5348 270.55 53.9308C273.647 55.2291 272.658 60.9864 277.76 60.6618C280.671 60.4759 280.35 59.02 280.596 57.1293C280.659 56.6251 280.252 55.1251 280.227 54.6083C280.224 54.5548 280.224 54.5011 280.227 54.4476C283.192 55.686 286.107 57.0631 288.987 58.5442C288.518 60.3404 288.433 62.833 288.357 64.2416C288.297 65.2752 288.792 66.3215 288.597 67.3708C288.376 68.562 286.674 69.0914 287.431 70.5C288.6 72.6743 298.063 69.8697 300.01 69.6964C302.481 69.4664 303.959 69.4223 304.422 67.9097C312.633 73.7244 320.105 80.5181 326.673 88.1406C326.777 89.357 326.884 90.6112 326.935 91.9536C327.042 94.837 326.761 97.1846 328.718 99.7371C329.849 101.212 334.592 104.237 330.42 106.292C326.566 108.182 327.269 102.825 327.013 101.25C326.651 99.0691 323.935 95.0985 321.993 98.2718C319.104 102.999 329.969 109.147 324.379 112.723C325.135 114.28 326.777 117.135 325.17 118.67C323.185 120.56 321.221 117.214 319.378 120.11C316.766 124.206 318.968 130.487 324.042 131.769C329.449 133.124 330.196 124.859 335.623 127.569C337.762 128.637 338.544 129.989 339.379 132.57C340.063 134.672 339.265 137.88 341.386 139.001C342.417 137.905 342.07 136.405 342.666 135.163C343.951 136.569 345.766 140.552 345.757 142.477C345.757 145.392 343.664 148.219 348.665 147.778C348.445 147.05 348.795 145.991 348.744 145.493C352.91 148.285 354.681 151.944 354.067 156.762C352.686 167.52 347.134 154.556 343.831 158.445C341.919 156.065 342.139 153.403 340.813 150.834C340.182 149.618 338.14 148.688 337.75 147.617C337.211 146.148 338.402 144.916 337.983 143.542C336.328 138.138 324.826 137.438 320.204 137.139C318.943 137.057 317.947 136.471 316.674 137.041C314.497 138.015 315.7 139.439 314.323 140.788C312.36 142.71 308.749 141.8 306.669 142.994C301.681 145.893 301.885 154.934 298.12 159.333C296.03 161.775 291.25 162.749 290.872 165.705C290.708 166.966 291.817 168.891 291.697 170.432C291.59 171.84 290.941 173.347 290.988 174.913C291.149 179.99 292.126 186.166 292.857 191.299C293.276 194.214 295.154 196.203 297.956 197.334C300.266 198.279 303.805 199.637 306.288 199.987C309.606 200.46 311.071 198.982 312.953 201.878C314.446 204.194 314.528 208.108 318.451 207.522C319.16 210.85 314.62 212.803 312.7 214.707C310.239 217.149 309.726 220.347 309.864 223.905C310.031 228.175 310.179 229.01 307.195 232.577C304.863 235.36 302.276 237.597 299.651 240.14C297.13 242.576 293.891 243.531 291.981 246.61C290.223 249.446 289.936 252.487 287.588 255.225C285.515 257.639 283.271 260.664 280.873 262.788C278.415 264.953 275.002 266.053 272.421 268.227C269.97 270.301 267.969 273.764 268.359 277.051C268.766 280.492 271.46 280.47 274.76 280.265C281.267 279.858 286.942 275.598 292.759 273.083C298.7 270.509 304.403 268.356 309.461 264.966C310.536 264.247 311.692 263.601 312.852 262.962C296.445 276.882 276.691 286.282 255.54 290.232C234.389 294.183 212.574 292.547 192.249 285.486C171.924 278.426 153.792 266.185 139.645 249.973C125.498 233.761 115.826 214.139 111.582 193.045C105.069 160.663 111.56 127.685 129.86 100.181C138.819 86.6315 150.376 74.9929 163.863 65.9392C177.35 56.8855 192.499 50.5965 208.432 47.4361C209.192 47.2849 209.955 47.1746 210.717 47.0359C209.652 47.9393 208.467 48.6922 207.197 49.2733C204.15 50.5338 200.986 49.7523 197.961 50.8268C195.204 51.8069 192.068 53.9781 190.067 55.8058C187.902 57.7816 186.342 60.8982 183.938 62.707C180.881 65.0042 177.771 65.5084 175.814 69.2269C179.17 73.251 182.299 64.6135 186.081 66.5736C185.35 70.0935 181.184 74.7668 178.855 77.5777C175.65 81.4442 174.156 81.9327 174.26 87.1574C174.346 91.295 173.737 93.6206 177.248 96.6111C180.462 99.3464 180.862 101.886 180.084 106.216C181.808 107.924 180.484 108.028 185.441 109.897M304.772 60.4791C245.021 20.7357 164.366 36.952 124.619 96.7025C84.8726 156.453 101.095 237.109 160.858 276.852C220.621 316.595 301.255 300.382 340.992 240.632C380.729 180.881 364.519 100.226 304.772 60.4791Z" stroke="#176D7E" stroke-width="1.63103" stroke-miterlimit="10"/>
</svg>
