<svg width="32" height="32" viewBox="0 0 32 32" fill="none" xmlns="http://www.w3.org/2000/svg">
<path d="M26.8768 10.7793L23.1509 14.2778L26.9257 24.6582C26.9907 24.8371 27.0033 25.0308 26.9621 25.2166C26.9209 25.4024 26.8275 25.5726 26.6929 25.7072L23.6929 28.7072C23.589 28.8111 23.4634 28.8909 23.3251 28.9407C23.1869 28.9906 23.0393 29.0094 22.8929 28.9957C22.7466 28.9821 22.605 28.9363 22.4784 28.8617C22.3517 28.7871 22.2431 28.6855 22.1602 28.5641L16.8368 20.772L14.4858 22.9384V25.5C14.4858 25.7652 14.3805 26.0196 14.1929 26.2072L11.6929 28.7072C11.5727 28.8274 11.4238 28.915 11.2603 28.9616C11.0969 29.0083 10.9242 29.0125 10.7586 28.9739C10.593 28.9352 10.4401 28.855 10.3141 28.7408C10.1882 28.6266 10.0934 28.4822 10.0388 28.3212L8.42334 23.5571L3.66534 21.9473C3.50424 21.8927 3.3597 21.798 3.2454 21.6721C3.13109 21.5462 3.05079 21.3932 3.01208 21.2275C2.97338 21.0619 2.97755 20.8892 3.0242 20.7256C3.07084 20.5621 3.15843 20.4131 3.27868 20.2928L5.77868 17.7928C5.96626 17.6053 6.22062 17.5 6.48584 17.5H9.07166L11.4162 15.1554L3.43116 9.83203C3.30806 9.74996 3.2047 9.64159 3.12854 9.51475C3.05238 9.38791 3.00531 9.24575 2.99073 9.09852C2.97614 8.95128 2.99441 8.80265 3.0442 8.66333C3.094 8.52401 3.17409 8.39748 3.27869 8.29285L6.27869 5.29285C6.41329 5.15832 6.58347 5.06497 6.76925 5.02376C6.95504 4.98255 7.14872 4.99518 7.32758 5.06018L17.7104 8.83582L21.0361 5.31824C21.0718 5.26557 21.1125 5.21644 21.1575 5.17151C21.8878 4.4413 22.8721 4.02182 23.9047 4.00085C24.9372 3.97989 25.9378 4.35907 26.6971 5.05904C27.4564 5.75901 27.9156 6.72553 27.9785 7.75633C28.0414 8.78713 27.7033 9.80233 27.0347 10.5895C26.9901 10.659 26.9371 10.7228 26.8768 10.7793Z" fill="#A7A7A7"/>
</svg>
