<svg width="41" height="25" viewBox="0 0 41 25" fill="none" xmlns="http://www.w3.org/2000/svg">
<g clip-path="url(#clip0_2020_2732)">
<path opacity="0.07" d="M37.3421 0H3.65789C1.86842 0 0.5 1.35417 0.5 3.125V21.875C0.5 23.6458 1.97368 25 3.65789 25H37.3421C39.1316 25 40.5 23.6458 40.5 21.875V3.125C40.5 1.35417 39.0263 0 37.3421 0Z" fill="#263238"/>
<path d="M37.3421 1.0415C38.5 1.0415 39.4473 1.979 39.4473 3.12484V21.8748C39.4473 23.0207 38.5 23.9582 37.3421 23.9582H3.65788C2.49998 23.9582 1.55261 23.0207 1.55261 21.8748V3.12484C1.55261 1.979 2.49998 1.0415 3.65788 1.0415H37.3421Z" fill="white"/>
<path d="M16.2894 19.7918C20.3589 19.7918 23.6579 16.5272 23.6579 12.5002C23.6579 8.47309 20.3589 5.2085 16.2894 5.2085C12.22 5.2085 8.92102 8.47309 8.92102 12.5002C8.92102 16.5272 12.22 19.7918 16.2894 19.7918Z" fill="#EB001B"/>
<path d="M24.7105 19.7918C28.78 19.7918 32.0789 16.5272 32.0789 12.5002C32.0789 8.47309 28.78 5.2085 24.7105 5.2085C20.6411 5.2085 17.3421 8.47309 17.3421 12.5002C17.3421 16.5272 20.6411 19.7918 24.7105 19.7918Z" fill="#F79E1B"/>
<path d="M23.6579 12.5C23.6579 10 22.3947 7.8125 20.5 6.5625C18.6053 7.91667 17.3421 10.1042 17.3421 12.5C17.3421 14.8958 18.6053 17.1875 20.5 18.4375C22.3947 17.1875 23.6579 15 23.6579 12.5Z" fill="#FF5F00"/>
</g>
<defs>
<clipPath id="clip0_2020_2732">
<rect width="40" height="25" fill="white" transform="translate(0.5)"/>
</clipPath>
</defs>
</svg>
