<svg width="20" height="21" viewBox="0 0 20 21" fill="none" xmlns="http://www.w3.org/2000/svg">
<path d="M16.8274 7.76082C16.7801 7.64662 16.7 7.54901 16.5972 7.48033C16.4945 7.41166 16.3736 7.375 16.25 7.375H3.75C3.62639 7.375 3.50555 7.41166 3.40277 7.48033C3.29999 7.54901 3.21988 7.64662 3.17257 7.76083C3.12527 7.87503 3.11289 8.0007 3.13701 8.12194C3.16113 8.24318 3.22066 8.35455 3.30807 8.44195L9.55807 14.6919C9.6161 14.75 9.685 14.796 9.76083 14.8274C9.83666 14.8588 9.91793 14.875 10 14.875C10.0821 14.875 10.1634 14.8588 10.2392 14.8274C10.315 14.796 10.3839 14.75 10.4419 14.6919L16.6919 8.44195C16.7793 8.35454 16.8389 8.24318 16.863 8.12194C16.8871 8.0007 16.8747 7.87503 16.8274 7.76082Z" fill="#353432"/>
</svg>
