<svg width="32" height="32" viewBox="0 0 32 32" fill="none" xmlns="http://www.w3.org/2000/svg">
<path d="M29.6034 5.51718H2.39656C1.07294 5.51718 0 6.59012 0 7.91374V24.0862C0 25.4098 1.07294 26.4828 2.39656 26.4828H29.6034C30.927 26.4828 32 25.4099 32 24.0862V7.91374C32 6.59012 30.9271 5.51718 29.6034 5.51718Z" fill="#FF4B55"/>
<path d="M5.31276 8.79569L5.83876 10.3728L7.50126 10.3857C7.71651 10.3873 7.80576 10.6621 7.63257 10.7899L6.2952 11.7774L6.79664 13.3626C6.86151 13.5678 6.62789 13.7375 6.45276 13.6124L5.10026 12.6456L3.74776 13.6123C3.57264 13.7375 3.33901 13.5677 3.40389 13.3625L3.90532 11.7774L2.56795 10.7899C2.39476 10.662 2.48401 10.3873 2.69926 10.3857L4.36176 10.3728L4.88776 8.79569C4.95589 8.5915 5.2447 8.5915 5.31276 8.79569Z" fill="#FFE15A"/>
<path d="M11.3495 9.18431L11.7267 9.69856L12.3354 9.50818C12.4142 9.48356 12.479 9.57343 12.4308 9.64037L12.0581 10.1579L12.4273 10.678C12.4751 10.7453 12.4096 10.8347 12.331 10.8096L11.7236 10.6151L11.343 11.1269C11.2937 11.1932 11.1884 11.1586 11.1881 11.0761L11.1853 10.4382L10.5809 10.2344C10.5027 10.208 10.5031 10.0972 10.5815 10.0714L11.1871 9.87162L11.1943 9.23387C11.1951 9.15156 11.3007 9.11775 11.3495 9.18431Z" fill="#FFE15A"/>
<path d="M9.05349 7.65119L9.68749 7.72007L9.95799 7.1425C9.99305 7.06775 10.1031 7.08057 10.1199 7.16138L10.2503 7.78563L10.8832 7.86438C10.9651 7.87457 10.9869 7.98319 10.9152 8.02425L10.3618 8.34113L10.4825 8.96738C10.4981 9.0485 10.4015 9.10275 10.3404 9.04732L9.86792 8.61888L9.30967 8.92713C9.23742 8.96707 9.15586 8.89194 9.18974 8.81663L9.45117 8.23488L8.98542 7.79913C8.92524 7.743 8.97142 7.64232 9.05349 7.65119Z" fill="#FFE15A"/>
<path d="M10.0558 13.8321L9.67864 14.3464L9.06996 14.1561C8.99114 14.1314 8.92633 14.2213 8.97458 14.2883L9.34721 14.8058L8.97808 15.3259C8.93027 15.3932 8.99571 15.4826 9.07433 15.4574L9.68171 15.263L10.0623 15.7748C10.1115 15.8411 10.2168 15.8064 10.2171 15.7239L10.22 15.0861L10.8243 14.8823C10.9026 14.8559 10.9022 14.7451 10.8238 14.7193L10.2181 14.5195L10.211 13.8818C10.21 13.7993 10.1046 13.7654 10.0558 13.8321Z" fill="#FFE15A"/>
<path d="M12.3525 12.3913L11.7184 12.4602L11.4479 11.8826C11.4128 11.8079 11.3028 11.8207 11.286 11.9015L11.1555 12.5258L10.5227 12.6045C10.4407 12.6147 10.4189 12.7233 10.4906 12.7644L11.044 13.0813L10.9233 13.7075C10.9077 13.7886 11.0043 13.8429 11.0655 13.7874L11.5379 13.359L12.0962 13.6673C12.1684 13.7072 12.25 13.6321 12.2161 13.5568L11.9547 12.975L12.4204 12.5393C12.4808 12.4831 12.4347 12.3824 12.3525 12.3913Z" fill="#FFE15A"/>
</svg>
