<svg width="200" height="200" viewBox="0 0 200 200" fill="none" xmlns="http://www.w3.org/2000/svg">
<path d="M195.31 133.311L81.036 117.424C78.1672 117.058 76.0167 114.618 76.0167 111.726L74.449 32.0456C74.449 32.0456 77.0543 30.1679 78.5302 29.4488C79.2813 29.0827 80.1461 28.922 81.0469 29.0368L194.981 43.5617C197.85 43.9278 200 46.3683 200 49.2602V127.522C200 128.922 199.36 130.157 198.37 130.971C197.458 131.721 195.31 133.312 195.31 133.312V133.311Z" fill="#C2E1DE"/>
<path d="M191.822 134.369L77.8884 119.844C75.0196 119.478 72.8691 117.038 72.8691 114.146V35.885C72.8691 33.1953 75.2306 31.1166 77.8993 31.4576L191.833 45.9825C194.702 46.3486 196.852 48.7891 196.852 51.681V129.943C196.852 132.632 194.491 134.711 191.822 134.37V134.369Z" fill="white"/>
<path d="M189.4 131.144L80.6104 117.275C78.5244 117.009 76.96 115.234 76.96 113.132V37.6403C76.96 35.8446 78.5376 34.4555 80.3196 34.6829L189.11 48.552C191.196 48.8176 192.76 50.5925 192.76 52.6953V128.185C192.76 129.981 191.182 131.37 189.4 131.143V131.144Z" fill="#D8D8D8"/>
<path d="M192.386 134.766C192.183 134.766 191.98 134.753 191.776 134.728L77.8424 120.203C74.8009 119.815 72.5083 117.211 72.5083 114.147V35.8851C72.5083 34.4993 73.1052 33.1801 74.1449 32.2642C75.1847 31.3484 76.5698 30.9243 77.9452 31.0992L191.879 45.6241C194.921 46.0121 197.213 48.6154 197.213 51.68V129.942C197.213 131.328 196.616 132.647 195.576 133.563C194.691 134.343 193.554 134.766 192.386 134.766ZM191.867 134.011C193.037 134.159 194.214 133.799 195.099 133.021C195.983 132.242 196.49 131.12 196.49 129.942V51.68C196.49 48.9772 194.468 46.682 191.787 46.3399L77.8533 31.815C76.6846 31.6664 75.5061 32.0271 74.6216 32.8063C73.7371 33.5845 73.2299 34.7069 73.2299 35.8851V114.147C73.2299 116.85 75.2524 119.145 77.9342 119.487L191.868 134.012L191.867 134.011Z" fill="#26AA9D"/>
<path d="M125.353 180.46L8.17671 165.354C7.25945 165.237 6.74233 164.468 6.75436 163.701C6.76201 163.172 6.80574 159.443 6.80574 159.443L68.7629 124.035C71.8668 122.262 75.8835 121.578 79.429 122.031L195.125 136.951C195.822 137.04 196.419 137.492 196.695 138.138L196.881 138.573C196.881 138.573 196.782 141.682 196.822 142.409C196.854 142.977 196.598 143.563 196.002 143.903L135.601 178.427C132.497 180.2 128.899 180.912 125.353 180.459V180.46Z" fill="#C2E1DE"/>
<path d="M22.5883 163.04L8.5954 161.233C7.04513 161.034 6.63843 158.98 7.99519 158.205L68.073 123.903C71.1768 122.131 74.7748 121.418 78.3203 121.872L195.078 136.95C196.628 137.149 197.035 139.203 195.678 139.978L135.6 174.279C132.497 176.052 128.899 176.765 125.353 176.311L22.5883 163.04Z" fill="white"/>
<path d="M148.213 157.27L46.9684 144.101C45.569 143.921 45.2005 142.066 46.4261 141.366L70.2311 127.911C73.0354 126.31 76.2835 125.666 79.4868 126.076L180.731 139.246C182.13 139.425 182.499 141.281 181.273 141.98L157.468 155.435C154.664 157.036 151.416 157.68 148.213 157.27Z" fill="#D8D8D8"/>
<path d="M127.416 176.803C126.712 176.803 126.008 176.758 125.307 176.668L68.1301 169.337C67.9322 169.312 67.7923 169.131 67.8185 168.933C67.8436 168.735 68.0262 168.597 68.2219 168.62L125.399 175.951C128.845 176.393 132.404 175.687 135.421 173.965L195.499 139.663C196.083 139.33 196.2 138.75 196.114 138.317C196.028 137.884 195.698 137.392 195.031 137.307L78.2735 122.229C74.8286 121.787 71.2678 122.493 68.2514 124.216L59.8343 129.023C59.6615 129.121 59.4407 129.061 59.3412 128.888C59.2417 128.715 59.303 128.495 59.4757 128.395L67.8928 123.589C71.0459 121.789 74.7663 121.052 78.3654 121.512L195.123 136.59C195.986 136.7 196.653 137.323 196.821 138.176C196.99 139.028 196.611 139.858 195.857 140.29L135.779 174.591C133.239 176.041 130.332 176.801 127.415 176.801L127.416 176.803Z" fill="#C2E1DE"/>
<path d="M180.345 127.436L90.3673 116.06C88.8181 115.864 87.563 114.38 87.563 112.745V2.98717C87.563 1.35216 88.8181 0.186018 90.3673 0.381651L180.345 11.7579C181.894 11.9535 183.149 13.4377 183.149 15.0727V124.831C183.149 126.466 181.894 127.632 180.345 127.437V127.436Z" fill="#C2E1DE"/>
<path d="M180.684 127.818C180.557 127.818 180.429 127.809 180.3 127.794L90.3224 116.418C88.6015 116.2 87.2021 114.553 87.2021 112.746V2.987C87.2021 2.06566 87.5542 1.24816 88.1927 0.685306C88.7951 0.154147 89.5844 -0.0797376 90.4131 0.0240897L180.391 11.4014C182.112 11.6189 183.511 13.2659 183.511 15.0736V124.832C183.511 125.754 183.159 126.571 182.521 127.134C182.012 127.582 181.371 127.819 180.684 127.819V127.818ZM180.391 127.077C181.012 127.156 181.598 126.983 182.043 126.591C182.524 126.167 182.789 125.542 182.789 124.83V15.0725C182.789 13.6156 181.672 12.2899 180.3 12.1162L90.3213 0.739952C89.7003 0.660169 89.1143 0.833943 88.6693 1.2263C88.1883 1.65035 87.9237 2.2755 87.9237 2.987V112.746C87.9237 114.203 89.0399 115.528 90.412 115.702L180.39 127.078L180.391 127.077Z" fill="#263238"/>
<path d="M166.322 66.7141L104.623 58.9128C103.978 58.8308 103.454 58.2133 103.454 57.5325V51.6132C103.454 50.9323 103.976 50.446 104.623 50.5279L166.322 58.3292C166.967 58.4112 167.49 59.0287 167.49 59.7096V65.6288C167.49 66.3097 166.967 66.796 166.322 66.7141Z" fill="white"/>
<path d="M166.789 83.544L104.624 75.6837C104.106 75.6181 103.688 75.123 103.688 74.5777V68.1666C103.688 67.6212 104.106 67.2322 104.624 67.2977L166.789 75.158C167.306 75.2236 167.724 75.7187 167.724 76.2641V82.6751C167.724 83.2205 167.306 83.6096 166.789 83.544Z" fill="white"/>
<path d="M157.091 99.8306L113.854 94.3639C113.145 94.2742 112.57 93.5944 112.57 92.8458V87.1714C112.57 86.4227 113.145 85.8883 113.854 85.9779L157.091 91.4447C157.801 91.5343 158.376 92.2141 158.376 92.9627V98.6372C158.376 99.3858 157.801 99.9203 157.091 99.8306Z" fill="#D8D8D8"/>
<path d="M145.193 43.6456C150.626 39.0284 150.805 30.3145 145.594 24.1827C140.383 18.0509 131.754 16.823 126.321 21.4403C120.888 26.0575 120.709 34.7714 125.92 40.9032C131.131 47.0351 139.76 48.2629 145.193 43.6456Z" fill="#26AA9D"/>
<path d="M138.823 34.4992C140.72 32.888 140.782 29.8469 138.963 27.7068C137.143 25.5667 134.131 25.138 132.235 26.7492C130.338 28.3605 130.276 31.4015 132.095 33.5416C133.914 35.6817 136.927 36.1105 138.823 34.4992Z" fill="white"/>
<path d="M125.78 40.7321C127.407 39.1157 129.384 37.532 131.49 36.5856C131.998 36.3571 132.602 36.3648 133.159 36.6096C135.302 37.5506 136.969 37.4435 138.821 36.9736C139.271 36.8599 139.769 36.9408 140.199 37.2085C142.514 38.6523 144.517 40.5048 146.041 42.8524C140.025 48.8984 130.388 46.753 125.781 40.7321H125.78Z" fill="white"/>
<path d="M135.76 46.9279C127.923 45.9782 121.547 38.7518 121.547 30.8205C121.547 22.8892 127.923 17.2092 135.76 18.1601C143.597 19.1098 149.973 26.3362 149.973 34.2675C149.973 42.1989 143.597 47.8788 135.76 46.9279ZM135.76 19.3328C128.562 18.4595 122.705 23.6771 122.705 30.9615C122.705 38.2458 128.562 44.8831 135.76 45.7563C142.958 46.6296 148.815 41.412 148.815 34.1276C148.815 26.8433 142.958 20.206 135.76 19.3328Z" fill="#D8D8D8"/>
<path d="M21.3637 99.9847C18.0292 101.222 15.1987 103.825 13.2724 107.254C8.35699 116 -4.47045 141.636 1.59725 161.431C9.02936 185.678 71.8612 185.029 88.2363 174.71C92.3962 172.088 109.419 154.401 87.5705 139.7C67.5449 126.225 59.2677 136.117 50.0339 130.807C40.8 125.498 34.1299 104.191 30.7233 101.164C28.5225 99.2087 25.1006 98.5978 21.3637 99.9847Z" fill="#26AA9D"/>
<path d="M40.6918 158.331C40.6 158.331 40.507 158.296 40.4371 158.225C32.1347 149.931 12.8263 148.949 12.6328 148.94C12.4338 148.931 12.2797 148.762 12.2895 148.563C12.2983 148.364 12.4721 148.214 12.6667 148.218C13.4702 148.256 32.4496 149.224 40.9487 157.714C41.0897 157.855 41.0897 158.083 40.9487 158.224C40.8787 158.294 40.7858 158.33 40.6929 158.33L40.6918 158.331Z" fill="#C2E1DE"/>
<path d="M60.1425 158.787C60.0933 158.787 60.0441 158.777 59.996 158.755C53.5216 155.877 48.9517 158.458 48.9057 158.485C48.7341 158.586 48.5133 158.528 48.4127 158.355C48.3121 158.184 48.37 157.963 48.5417 157.862C48.7396 157.747 53.4593 155.058 60.289 158.096C60.4715 158.177 60.5535 158.39 60.4715 158.573C60.4114 158.707 60.2802 158.787 60.1414 158.787H60.1425Z" fill="#C2E1DE"/>
<path d="M89.6282 174.131C89.6861 174.321 96.623 182.157 96.623 182.157L91.9984 183.977L86.4128 177.18L89.6282 174.131Z" fill="white"/>
<path d="M91.9985 184.338C91.8924 184.338 91.7897 184.291 91.7197 184.206L86.1341 177.409C86.0139 177.263 86.027 177.049 86.1648 176.919L89.3801 173.869C89.4708 173.783 89.5998 173.751 89.7212 173.782C89.8185 173.808 89.8994 173.873 89.9464 173.959C90.2263 174.357 94.2419 178.922 96.8942 181.918C96.9718 182.006 97.0024 182.126 96.9751 182.241C96.9478 182.356 96.8658 182.45 96.7564 182.492L92.1319 184.312C92.0892 184.329 92.0444 184.337 91.9996 184.337L91.9985 184.338ZM86.9049 177.21L92.11 183.545L96.0108 182.009C91.6618 177.093 90.1366 175.324 89.5933 174.661L86.9049 177.209V177.21Z" fill="#263238"/>
<path d="M91.9198 180.787C92.098 180.394 92.4063 179.946 92.9365 179.661C93.7357 179.231 94.7251 179.378 95.4226 179.958C97.1664 181.41 101.897 185.515 104.574 189.445C105.52 190.834 104.969 192.602 102.72 192.481C99.0337 192.281 93.2131 190.544 88.4661 186.117C87.9217 185.609 87.6658 184.859 87.8036 184.127C87.9162 183.529 88.0988 182.781 88.3918 182.077C88.6717 181.405 89.4052 181.042 90.1126 181.211L90.75 181.363C91.2288 181.476 91.7186 181.234 91.9209 180.785L91.9198 180.787Z" fill="white"/>
<path d="M102.942 192.848C102.864 192.848 102.784 192.846 102.701 192.841C98.8239 192.631 92.9836 190.825 88.2191 186.381C87.5762 185.781 87.2876 184.914 87.4472 184.061C87.5959 183.268 87.8015 182.554 88.0562 181.941C88.4038 181.104 89.3025 180.65 90.1935 180.862L90.8309 181.014C91.1381 181.086 91.4585 180.93 91.5897 180.639C91.8499 180.065 92.2566 179.617 92.7649 179.344C93.6669 178.859 94.828 178.995 95.6523 179.683C97.5316 181.247 102.193 185.311 104.872 189.243C105.438 190.075 105.534 191.046 105.123 191.775C104.892 192.186 104.306 192.849 102.941 192.849L102.942 192.848ZM89.7584 181.532C89.3113 181.532 88.9002 181.793 88.7231 182.217C88.4869 182.785 88.2967 183.45 88.1568 184.194C88.042 184.803 88.2497 185.424 88.7111 185.854C93.3345 190.166 98.989 191.918 102.739 192.121C103.592 192.169 104.214 191.918 104.495 191.419C104.77 190.931 104.686 190.252 104.275 189.648C101.648 185.791 97.0473 181.781 95.1909 180.236C94.5896 179.735 93.7522 179.632 93.1071 179.979C92.7343 180.18 92.4446 180.501 92.2478 180.936C91.9745 181.541 91.3065 181.87 90.6647 181.715L90.0274 181.563C89.9366 181.542 89.847 181.532 89.7584 181.532Z" fill="#263238"/>
<path d="M101.954 191.025C99.8155 191.025 95.7802 190.113 89.4064 185.284C89.2479 185.164 89.2162 184.937 89.3364 184.778C89.4567 184.619 89.683 184.589 89.8426 184.708C99.5007 192.026 103.468 190.074 103.506 190.053C103.682 189.96 103.901 190.027 103.994 190.204C104.087 190.38 104.02 190.599 103.843 190.692C103.78 190.725 103.176 191.024 101.953 191.024L101.954 191.025Z" fill="#263238"/>
<path d="M97.9484 186.881C97.861 186.881 97.7724 186.85 97.7035 186.785C97.557 186.65 97.5483 186.421 97.6839 186.275L99.5555 184.254C99.6911 184.108 99.9196 184.099 100.066 184.235C100.213 184.37 100.221 184.599 100.086 184.745L98.2141 186.766C98.143 186.842 98.0457 186.881 97.9495 186.881H97.9484Z" fill="#263238"/>
<path d="M96.2919 185.521C96.2 185.521 96.1082 185.486 96.0371 185.416C95.8961 185.276 95.895 185.046 96.0349 184.905L98.0958 182.828C98.2357 182.687 98.4642 182.686 98.6063 182.826C98.7474 182.966 98.7485 183.195 98.6085 183.336L96.5477 185.414C96.4777 185.485 96.3848 185.521 96.2919 185.521Z" fill="#263238"/>
<path d="M75.1621 178.322L73.0313 187.672L69.5295 185.006L71.1487 176.019L75.1621 178.322Z" fill="white"/>
<path d="M73.0313 188.033C72.9537 188.033 72.8761 188.007 72.8126 187.959L69.3109 185.294C69.2026 185.212 69.1502 185.076 69.1742 184.943L70.7934 175.956C70.8141 175.84 70.8896 175.742 70.9967 175.692C71.1039 175.643 71.2274 175.648 71.3291 175.707L75.3425 178.009C75.4802 178.088 75.5502 178.248 75.5152 178.403L73.3855 187.753C73.3582 187.872 73.2718 187.97 73.157 188.012C73.1166 188.026 73.075 188.034 73.0335 188.034L73.0313 188.033ZM69.9231 184.853L72.8028 187.046L74.7488 178.502L71.4111 176.587L69.922 184.853H69.9231Z" fill="#263238"/>
<path d="M74.2381 185.977C74.0238 188.886 73.5099 194.737 71.3092 198.885C70.7188 199.998 68.4131 199.915 67.5767 198.398C65.8318 195.234 63.6016 189.858 64.9135 183.367C65.0163 182.86 65.3552 182.431 65.8242 182.214C66.3752 181.959 67.2465 181.639 68.4863 181.413C69.104 181.3 69.69 181.733 69.7655 182.357L70.0421 184.645L70.334 184.265C70.7724 183.694 71.5442 183.496 72.2035 183.786C72.5588 183.942 72.9513 184.113 73.3055 184.27C73.9691 184.561 74.2927 185.254 74.2392 185.978L74.2381 185.977Z" fill="white"/>
<path d="M69.7797 200C68.7269 200 67.7397 199.441 67.2597 198.571C64.4478 193.475 63.5393 188.336 64.5582 183.295C64.684 182.677 65.0994 182.15 65.6712 181.885C66.2036 181.638 67.1121 181.295 68.4197 181.056C68.8122 180.985 69.22 181.079 69.5403 181.316C69.8617 181.554 70.0738 181.916 70.1219 182.312L70.298 183.772C70.8522 183.283 71.6482 183.146 72.3468 183.453L73.4488 183.937C74.2141 184.273 74.6645 185.084 74.5967 186.002C74.3234 189.716 73.7188 195.109 71.6263 199.052C71.3158 199.638 70.6336 199.991 69.8027 199.998C69.795 199.998 69.7863 199.998 69.7786 199.998L69.7797 200ZM68.6821 181.755C68.6384 181.755 68.5946 181.759 68.5498 181.767C67.3166 181.992 66.4693 182.312 65.9751 182.541C65.6111 182.709 65.3465 183.044 65.2667 183.438C64.2827 188.307 65.1661 193.281 67.8927 198.223C68.3268 199.01 69.1839 199.285 69.7983 199.278C70.3515 199.273 70.8085 199.058 70.99 198.715C73.2531 194.449 73.7068 188.274 73.8774 185.949C73.9233 185.331 73.6478 184.813 73.1591 184.599L72.057 184.114C71.5487 183.891 70.9572 184.043 70.6183 184.484L70.3264 184.863C70.2367 184.979 70.087 185.03 69.9448 184.991C69.8038 184.953 69.6999 184.831 69.6813 184.686L69.4047 182.398C69.3807 182.196 69.2757 182.018 69.1118 181.897C68.9849 181.803 68.8352 181.755 68.681 181.755H68.6821Z" fill="#263238"/>
<path d="M69.3895 198.179C69.2704 198.179 69.1534 198.12 69.0845 198.012C65.0011 191.601 65.926 184.218 65.9676 183.907C65.9938 183.709 66.172 183.569 66.3732 183.596C66.5711 183.623 66.7099 183.804 66.6837 184.002C66.6738 184.075 65.7555 191.441 69.6946 197.625C69.8017 197.793 69.7525 198.016 69.5841 198.123C69.524 198.162 69.4573 198.18 69.3906 198.18L69.3895 198.179Z" fill="#263238"/>
<path d="M73.521 190.325C73.4882 190.325 73.4543 190.321 73.4205 190.311L70.6971 189.527C70.5058 189.471 70.3954 189.272 70.45 189.08C70.5058 188.888 70.7058 188.778 70.8972 188.833L73.6205 189.617C73.8119 189.673 73.9223 189.872 73.8676 190.064C73.8217 190.223 73.6774 190.325 73.521 190.325Z" fill="#263238"/>
<path d="M72.9972 192.693C72.9545 192.693 72.9119 192.685 72.8703 192.67L70.2979 191.703C70.1109 191.633 70.0169 191.424 70.0869 191.238C70.1568 191.051 70.3656 190.957 70.5515 191.027L73.124 191.994C73.3109 192.064 73.405 192.273 73.335 192.459C73.2803 192.603 73.1426 192.693 72.9972 192.693Z" fill="#263238"/>
<path d="M51.4148 135.604C51.4148 135.604 64.4521 134.054 76.1983 140.697C79.1589 142.371 80.9748 145.521 80.9563 148.921C80.9191 155.672 80.2041 168.012 76.0671 178.724C75.8321 179.334 75.1335 179.621 74.5354 179.357L69.2483 177.017C68.893 176.86 68.6416 176.534 68.5814 176.15C68.1922 173.676 66.8792 164.265 68.1955 157.437C69.7228 149.514 44.1838 141.116 44.1838 141.116L51.4148 135.603V135.604Z" fill="#263238"/>
<path d="M91.0527 175.779L86.3406 178.875C86.0258 179.081 85.6071 179.029 85.3534 178.751C82.454 175.574 66.0866 157.729 61.9824 155.392C57.4748 152.826 49.0533 148.963 41.4036 149.009C33.755 149.055 32.1414 143.743 32.1414 143.743L43.049 136.698C43.049 136.698 61.9234 138.835 69.8988 145.319C77.1003 151.175 89.041 170.961 91.291 174.748C91.4998 175.1 91.3949 175.553 91.0527 175.779Z" fill="#263238"/>
<path d="M80.871 158.356C80.7584 158.356 80.648 158.304 80.578 158.206C77.3977 153.782 72.4484 147.856 69.6715 145.598C66.6672 143.155 61.7572 141.049 55.0806 139.339C54.8871 139.289 54.7712 139.093 54.8204 138.899C54.8696 138.706 55.0653 138.589 55.2599 138.639C62.0393 140.376 67.0411 142.528 70.1274 145.037C72.9513 147.333 77.9564 153.321 81.164 157.784C81.2799 157.946 81.2438 158.171 81.082 158.288C81.0186 158.334 80.9443 158.355 80.8721 158.355L80.871 158.356Z" fill="#26AA9D"/>
<path d="M42.8763 119.528L44.2735 122.403C45.9364 125.824 48.4936 128.73 51.6739 130.814L52.9629 131.659C53.7894 132.201 54.7723 132.452 55.7573 132.376L55.9082 132.364C57.4136 132.247 58.9092 132.686 60.1118 133.599L56.7303 134.685C54.6684 135.347 52.4239 135.192 50.4921 134.213C48.6412 133.275 46.3792 131.735 44.4922 129.279C40.54 124.132 39.626 120.962 39.626 120.962L42.8774 119.529L42.8763 119.528Z" fill="white"/>
<path d="M54.1634 135.451C52.8384 135.451 51.5308 135.143 50.3282 134.534C47.8782 133.291 45.8173 131.597 44.2058 129.498C40.2569 124.356 39.3167 121.194 39.2784 121.062C39.2281 120.888 39.3145 120.704 39.4796 120.632L42.731 119.199C42.9092 119.121 43.1169 119.197 43.2011 119.372L44.5983 122.246C46.2317 125.607 48.7473 128.465 51.8719 130.513L53.1609 131.358C53.9163 131.853 54.8281 132.086 55.729 132.017L55.8788 132.005C57.4739 131.878 59.0536 132.345 60.3284 133.312C60.4356 133.393 60.4891 133.527 60.4662 133.661C60.4432 133.793 60.3492 133.902 60.2213 133.944L56.8398 135.03C55.9586 135.313 55.0566 135.454 54.1634 135.454V135.451ZM40.0732 121.158C40.4012 122.053 41.5995 124.92 44.7776 129.058C46.3235 131.072 48.3013 132.697 50.654 133.89C52.4973 134.825 54.6149 134.984 56.6189 134.341L59.2876 133.484C58.2774 132.899 57.1098 132.632 55.9356 132.723L55.7847 132.735C54.7243 132.818 53.6529 132.542 52.764 131.96L51.475 131.115C48.2411 128.996 45.6391 126.038 43.9478 122.56L42.7026 119.999L40.0732 121.159V121.158Z" fill="#263238"/>
<path d="M38.5718 147.09C38.5718 147.09 34.2851 150.362 31.928 149.42C29.5709 148.479 33.628 144.448 34.823 144.292C36.0179 144.135 38.5718 147.088 38.5718 147.088V147.09Z" fill="#263238"/>
<path d="M39.3188 98.8273C41.2474 98.5595 43.4459 100.248 43.2273 103.126C43.0491 105.477 40.5958 106.187 39.4598 107.443C35.7875 111.503 39.3123 115.91 36.4413 119.96C33.707 123.818 29.5558 121.162 23.9998 125.593C19.6267 129.08 35.524 123.781 29.9582 127.461C25.5184 130.396 17.1876 130.15 12.481 124.756C8.00512 119.626 6.97526 111.924 11.5616 108.208C15.6843 104.867 18.5946 108.764 22.9907 105.63C27.3244 102.54 26.1328 99.5442 28.8397 98.2535C32.5416 96.4884 33.8502 99.5868 39.3177 98.8284L39.3188 98.8273Z" fill="#263238"/>
<path d="M16.5054 127.567C16.7514 126.121 17.1089 124.421 17.474 123.301C18.5968 119.853 19.3621 117.609 23.2104 115.559C23.7866 115.252 24.3912 115.003 25.0111 114.796L27.3365 114.02C27.3365 114.02 36.9344 111.276 40.7794 114.985C41.091 115.286 41.4846 115.624 41.7372 116.022L44.2419 119.797L44.2189 119.807C41.993 120.716 41.0615 123.377 42.2521 125.465C43.6209 127.866 45.5079 130.671 47.385 131.837C47.9776 132.205 52.7563 134.168 52.7563 134.168C52.7563 134.168 53.9294 137.742 46.576 140.806C39.2226 143.871 33.8645 144.981 32.3218 148.765C31.4089 151.006 27.6907 140.265 25.2964 130.202C24.8362 128.265 23.0235 126.961 21.0414 127.146L16.5065 127.567H16.5054Z" fill="white"/>
<path d="M32.008 149.425C31.9916 149.425 31.9752 149.425 31.961 149.423C31.6134 149.396 30.7989 149.333 28.6353 143.129C27.3649 139.486 26.0201 134.804 24.9454 130.285C24.5289 128.534 22.8617 127.338 21.0741 127.504L16.5392 127.925C16.4288 127.937 16.3173 127.893 16.2408 127.811C16.1642 127.729 16.1303 127.616 16.15 127.505C16.4408 125.796 16.8071 124.183 17.1307 123.188C18.2283 119.817 19.0221 117.381 23.041 115.239C23.6062 114.937 24.213 114.68 24.8963 114.452L27.2217 113.676C27.6371 113.556 37.0808 110.914 41.0287 114.724C41.0811 114.774 41.1358 114.825 41.1916 114.878C41.4802 115.15 41.8071 115.458 42.041 115.826L44.5425 119.596C44.6026 119.687 44.6179 119.798 44.5862 119.902C44.5545 120.006 44.478 120.089 44.3774 120.13L44.3544 120.14C43.3847 120.537 42.6325 121.332 42.2914 122.322C41.9525 123.304 42.052 124.385 42.5647 125.286C44.373 128.458 46.1059 130.617 47.5752 131.531C47.9918 131.79 50.983 133.05 52.8929 133.835C52.9902 133.875 53.0657 133.956 53.0985 134.055C53.1509 134.214 54.289 137.983 46.7148 141.14C45.0574 141.83 43.4711 142.434 42.0717 142.965C37.2656 144.792 33.7934 146.112 32.6563 148.902C32.4749 149.346 32.1895 149.426 32.008 149.426V149.425ZM21.4065 126.768C23.3963 126.768 25.1794 128.149 25.6484 130.118C27.9574 139.824 30.941 148.042 31.9676 148.675C31.9741 148.662 31.9807 148.647 31.9894 148.628C33.2445 145.548 36.8403 144.182 41.8169 142.289C43.2119 141.759 44.7917 141.158 46.4382 140.472C52.4993 137.946 52.5311 135.106 52.4414 134.427C51.4837 134.032 47.7501 132.487 47.1948 132.142C45.6019 131.151 43.8329 128.964 41.9383 125.641C41.3217 124.56 41.2025 123.264 41.6092 122.085C41.9733 121.029 42.7276 120.158 43.7083 119.644L41.4354 116.219C41.2462 115.922 40.9543 115.646 40.6963 115.402C40.6384 115.348 40.5815 115.294 40.5279 115.242C36.8753 111.718 27.53 114.337 27.4348 114.364L25.1247 115.136C24.4808 115.351 23.909 115.593 23.3799 115.875C19.6179 117.879 18.9007 120.08 17.8173 123.41C17.533 124.284 17.2127 125.662 16.9426 127.162L21.0075 126.785C21.1408 126.773 21.2742 126.767 21.4065 126.767V126.768Z" fill="#263238"/>
<path d="M45.1616 136.602L41.6008 135.588C41.0716 135.437 40.502 135.573 40.0975 135.946L38.5505 137.377C38.2553 137.65 37.8672 137.798 37.4649 137.794C35.7102 137.776 27.6199 135.9 26.7355 134.559C26.2981 133.896 25.6334 131.574 25.1327 129.652C24.7129 128.041 23.1878 126.972 21.5293 127.127L17.9575 127.462C17.9575 127.462 19.4881 136.022 22.569 138.615C24.9611 140.629 30.3684 141.402 38.0979 140.503C38.0979 140.503 39.7094 140.229 40.9776 138.532C41.7877 137.448 43.9327 137.864 45.1703 137.487C45.6098 137.353 45.6043 136.73 45.1627 136.604L45.1616 136.602Z" fill="white"/>
<path d="M32.1723 141.235C27.5761 141.235 24.1738 140.438 22.3371 138.891C19.1918 136.244 17.6666 127.88 17.6032 127.525C17.5857 127.426 17.6098 127.324 17.671 127.243C17.7322 127.162 17.8241 127.112 17.9246 127.102L21.4964 126.768C23.3397 126.596 25.0157 127.77 25.4825 129.56C26.3997 133.075 26.8502 134.076 27.0371 134.36C27.7849 135.495 35.5428 137.413 37.4692 137.434C37.7731 137.437 38.0781 137.323 38.3055 137.112L39.8525 135.682C40.3456 135.226 41.054 135.056 41.6991 135.241L45.2599 136.255C45.613 136.356 45.8524 136.671 45.8557 137.038C45.859 137.405 45.625 137.724 45.2741 137.831C44.8018 137.976 44.2464 138.012 43.6582 138.049C42.6918 138.111 41.6925 138.176 41.2651 138.747C39.9258 140.54 38.2279 140.846 38.1569 140.858C35.9911 141.11 33.9871 141.235 32.1712 141.235H32.1723ZM18.3882 127.783C18.7282 129.465 20.2205 136.166 22.8018 138.338C25.1764 140.337 30.7368 140.995 38.0563 140.143C38.0563 140.143 39.53 139.864 40.6889 138.314C41.3153 137.475 42.5365 137.396 43.6134 137.327C44.1579 137.293 44.6728 137.26 45.0653 137.14C45.1123 137.125 45.1364 137.093 45.1364 137.043C45.1364 136.994 45.1112 136.961 45.0642 136.948L41.5034 135.934C41.0978 135.818 40.6539 135.924 40.3445 136.211L38.7975 137.641C38.44 137.972 37.9743 138.154 37.4845 138.154H37.4637C35.7363 138.135 27.4252 136.255 26.4369 134.757C26.0608 134.186 25.5054 132.499 24.7861 129.742C24.4089 128.295 23.0554 127.349 21.5653 127.485L18.3904 127.782L18.3882 127.783Z" fill="#263238"/>
<path d="M27.7345 114.081C27.7345 114.081 29.7395 107.619 29.8084 106.834C29.8084 106.834 29.17 106.497 29.206 105.514C29.2738 103.643 31.1313 104.57 31.1313 104.57L31.3139 104.613C32.3787 104.87 33.495 104.814 34.5303 104.454L36.7026 103.696C36.7026 103.696 37.1574 104.494 36.6283 106.034C36.3757 106.768 36.4249 107.621 36.5583 108.513C36.5933 108.748 36.4315 108.967 36.1965 109.004L35.6159 109.092C35.3131 109.795 35.0419 110.212 34.5401 110.664C34.4024 110.787 34.222 110.855 34.0383 110.845C33.788 110.832 33.402 110.778 32.9691 110.597L32.6422 113.339L34.0831 113.304C34.0831 113.304 34.6025 115.022 31.8736 116.266C30.3671 116.952 28.2341 116.814 26.6248 116.55C25.7994 116.416 25.5938 115.324 26.3176 114.904L27.7356 114.08L27.7345 114.081Z" fill="white"/>
<path d="M29.0605 117.126C28.1761 117.126 27.3025 117.028 26.5646 116.907C26.0354 116.821 25.6298 116.424 25.5325 115.899C25.4363 115.374 25.6714 114.861 26.1338 114.594L27.4294 113.841C28.1673 111.458 29.2169 107.95 29.4147 106.991C29.1688 106.771 28.8124 106.308 28.8419 105.502C28.8659 104.853 29.0835 104.4 29.4913 104.159C30.1549 103.765 31.0339 104.128 31.2493 104.228L31.3947 104.263C32.395 104.504 33.4358 104.453 34.4067 104.114L36.579 103.356C36.743 103.299 36.9256 103.367 37.0119 103.518C37.0338 103.556 37.5411 104.477 36.9649 106.152C36.72 106.866 36.7998 107.719 36.9114 108.46C36.9759 108.891 36.6785 109.295 36.2477 109.361L35.8618 109.42C35.5557 110.09 35.2594 110.501 34.7773 110.934C34.5674 111.122 34.2908 111.22 34.0153 111.207C33.8272 111.197 33.5681 111.166 33.2707 111.084L33.0466 112.969L34.071 112.943C34.2361 112.951 34.3782 113.045 34.4252 113.2C34.4504 113.283 35.0025 115.236 32.02 116.595C31.1531 116.991 30.098 117.126 29.0594 117.126H29.0605ZM30.1975 104.702C30.0729 104.702 29.9559 104.724 29.8608 104.779C29.6793 104.888 29.5798 105.14 29.5656 105.528C29.5394 106.256 29.9636 106.508 29.9811 106.518C30.1024 106.588 30.1789 106.726 30.1669 106.866C30.097 107.666 28.2854 113.523 28.0788 114.188C28.0514 114.275 27.9935 114.348 27.9159 114.394L26.4979 115.218C26.1994 115.39 26.2278 115.683 26.2442 115.769C26.277 115.947 26.4093 116.152 26.6826 116.196C28.1859 116.441 30.2817 116.597 31.7227 115.939C33.5069 115.126 33.7551 114.141 33.7616 113.675L32.6487 113.702C32.5437 113.696 32.4431 113.661 32.3732 113.584C32.3032 113.506 32.2693 113.402 32.2813 113.299L32.6082 110.556C32.6213 110.444 32.6869 110.344 32.7853 110.288C32.8826 110.231 33.0018 110.223 33.1068 110.267C33.4927 110.429 33.836 110.477 34.0546 110.488C34.1443 110.494 34.2285 110.459 34.2962 110.399C34.739 110.001 34.9883 109.636 35.2824 108.952C35.3316 108.838 35.4365 108.756 35.559 108.738L36.1395 108.649C36.1778 108.643 36.2051 108.607 36.1996 108.568C36.0761 107.741 35.9886 106.779 36.2849 105.919C36.5757 105.073 36.5407 104.483 36.474 104.161L34.6472 104.798C33.5452 105.183 32.3633 105.241 31.2274 104.967L31.0448 104.924C31.0186 104.917 30.9924 104.908 30.9683 104.895C30.8382 104.831 30.4982 104.704 30.1964 104.704L30.1975 104.702Z" fill="#263238"/>
<path d="M32.9657 110.959C32.9143 110.959 32.8619 110.948 32.8127 110.925L32.4136 110.738C32.2332 110.654 32.1556 110.439 32.2398 110.258C32.324 110.078 32.5393 109.999 32.7197 110.084L33.1188 110.271C33.2992 110.355 33.3768 110.571 33.2926 110.751C33.2314 110.882 33.1013 110.959 32.9657 110.959Z" fill="#263238"/>
<path d="M62.3391 133.229L45.894 138.228L51.3845 119.573C51.5878 118.871 52.1432 118.314 52.856 118.098L66.2017 114.041C67.049 113.783 67.8405 114.535 67.5989 115.369L62.337 133.23L62.3391 133.229Z" fill="#263238"/>
<path d="M58.4184 125.874C58.2238 126.546 57.5777 127.24 56.9753 127.423C56.3729 127.607 56.0416 127.21 56.2352 126.538C56.4298 125.865 57.0759 125.172 57.6783 124.988C58.2807 124.805 58.6119 125.202 58.4184 125.874Z" fill="white"/>
<path d="M61.764 134.487L35.967 142.329C35.4345 142.49 34.8704 142.19 34.7086 141.657L34.6321 141.519L62.3587 133.09L62.4353 133.228C62.5971 133.761 62.2964 134.325 61.764 134.487Z" fill="#263238"/>
<path d="M78.9446 41.7299L98.6345 47.4503L112.606 31.9111L78.9446 41.7299Z" fill="white"/>
<path d="M88.7567 50.964L86.0071 43.7814L104.311 36.3047L89.4684 44.7868L93.5846 45.9825L88.7567 50.964Z" fill="#D8D8D8"/>
<path d="M89.2245 48.9007C89.2114 48.9007 89.1972 48.9007 89.1841 48.8985C89.0005 48.8767 88.8693 48.7094 88.8923 48.5258L89.2824 45.3083C89.3043 45.1247 89.4748 44.9913 89.6551 45.0165C89.8387 45.0383 89.9699 45.2056 89.9469 45.3892L89.5567 48.6067C89.536 48.7772 89.3917 48.9018 89.2245 48.9018V48.9007Z" fill="white"/>
<path d="M6.41202 97.9492C6.32019 97.9492 6.22726 97.9142 6.15729 97.8431C6.01626 97.7021 6.01626 97.4736 6.15729 97.3326L6.99693 96.4929C7.13796 96.3519 7.36645 96.3519 7.50749 96.4929C7.64852 96.634 7.64852 96.8625 7.50749 97.0035L6.66785 97.8431C6.59788 97.9131 6.50495 97.9492 6.41312 97.9492H6.41202Z" fill="#F8931F"/>
<path d="M9.58365 94.7775C9.49182 94.7775 9.39889 94.7425 9.32892 94.6714C9.18789 94.5304 9.18789 94.3019 9.32892 94.1609L10.1686 93.3212C10.3096 93.1802 10.5381 93.1802 10.6791 93.3212C10.8202 93.4623 10.8202 93.6908 10.6791 93.8318L9.83948 94.6714C9.76951 94.7414 9.67658 94.7775 9.58475 94.7775H9.58365Z" fill="#F8931F"/>
<path d="M10.4233 97.9492C10.3315 97.9492 10.2385 97.9142 10.1686 97.8431L9.32892 97.0035C9.18789 96.8625 9.18789 96.634 9.32892 96.4929C9.46995 96.3519 9.69845 96.3519 9.83948 96.4929L10.6791 97.3326C10.8202 97.4736 10.8202 97.7021 10.6791 97.8431C10.6091 97.9131 10.5162 97.9492 10.4244 97.9492H10.4233Z" fill="#F8931F"/>
<path d="M7.25068 94.7775C7.15885 94.7775 7.06592 94.7425 6.99595 94.6714L6.15631 93.8318C6.01528 93.6908 6.01528 93.4623 6.15631 93.3212C6.29734 93.1802 6.52584 93.1802 6.66687 93.3212L7.50651 94.1609C7.64754 94.3019 7.64754 94.5304 7.50651 94.6714C7.43654 94.7414 7.34361 94.7775 7.25178 94.7775H7.25068Z" fill="#F8931F"/>
<path d="M47.1159 9.57341C47.0164 9.57341 46.9169 9.53186 46.8459 9.45205C46.7136 9.30228 46.7278 9.07487 46.8765 8.94259L47.7653 8.15543C47.9151 8.02314 48.1436 8.03735 48.2748 8.18604C48.4071 8.33582 48.3928 8.56322 48.2442 8.69551L47.3553 9.48267C47.2864 9.54389 47.2012 9.57341 47.1159 9.57341Z" fill="#F8931F"/>
<path d="M50.4745 6.60185C50.375 6.60185 50.2756 6.56031 50.2045 6.4805C50.0722 6.33072 50.0864 6.10332 50.2351 5.97103L51.1239 5.18387C51.2737 5.05158 51.5022 5.06579 51.6334 5.21448C51.7657 5.36426 51.7515 5.59166 51.6028 5.72395L50.714 6.51111C50.6451 6.57233 50.5598 6.60185 50.4745 6.60185Z" fill="#F8931F"/>
<path d="M51.1196 9.81717C51.0201 9.81717 50.9206 9.77563 50.8496 9.69582L50.0624 8.80698C49.9301 8.6572 49.9443 8.4298 50.093 8.29752C50.2428 8.16523 50.4702 8.17944 50.6025 8.32813L51.3896 9.21696C51.5219 9.36674 51.5077 9.59414 51.359 9.72643C51.2902 9.78765 51.2049 9.81717 51.1196 9.81717Z" fill="#F8931F"/>
<path d="M48.147 6.45975C48.0475 6.45975 47.948 6.41821 47.8769 6.3384L47.0898 5.44956C46.9575 5.30088 46.9717 5.07238 47.1204 4.94009C47.2701 4.80781 47.4986 4.82202 47.6298 4.97071L48.417 5.85954C48.5493 6.00932 48.5351 6.23672 48.3864 6.36901C48.3175 6.43023 48.2322 6.45975 48.147 6.45975Z" fill="#F8931F"/>
<path d="M38.5731 20.4977C38.5348 20.4977 38.4976 20.4967 38.4594 20.4945C37.9652 20.4639 37.5126 20.2442 37.1857 19.8737C36.8577 19.5032 36.6937 19.0278 36.7243 18.5338C36.7549 18.0398 36.9747 17.5884 37.3453 17.2605C37.7159 16.9326 38.1882 16.7698 38.6857 16.7993C39.7046 16.8616 40.483 17.7403 40.4207 18.76C40.3606 19.7404 39.5428 20.4988 38.5731 20.4988V20.4977ZM38.5709 17.5174C38.2954 17.5174 38.0319 17.6168 37.8242 17.8004C37.5979 18.0004 37.4634 18.2769 37.4448 18.5775C37.4065 19.1994 37.8821 19.736 38.5042 19.7742C39.1241 19.8125 39.6631 19.3371 39.7013 18.7152C39.7396 18.0933 39.264 17.5567 38.643 17.5195C38.619 17.5184 38.596 17.5174 38.572 17.5174H38.5709Z" fill="#F8931F"/>
<path d="M123.829 190.07C123.73 190.07 123.63 190.029 123.559 189.949C123.427 189.799 123.441 189.572 123.59 189.439L124.479 188.652C124.628 188.52 124.857 188.534 124.988 188.683C125.12 188.833 125.106 189.06 124.957 189.192L124.069 189.979C124 190.041 123.914 190.07 123.829 190.07Z" fill="#F8931F"/>
<path d="M127.189 187.098C127.089 187.098 126.99 187.056 126.919 186.976C126.787 186.826 126.801 186.599 126.949 186.467L127.838 185.68C127.988 185.547 128.215 185.561 128.348 185.71C128.48 185.86 128.466 186.087 128.317 186.22L127.428 187.007C127.359 187.068 127.274 187.098 127.189 187.098Z" fill="#F8931F"/>
<path d="M127.834 190.314C127.734 190.314 127.635 190.272 127.564 190.193L126.777 189.304C126.644 189.154 126.659 188.927 126.807 188.794C126.956 188.662 127.186 188.676 127.317 188.825L128.104 189.714C128.236 189.864 128.222 190.091 128.073 190.223C128.004 190.284 127.919 190.314 127.834 190.314Z" fill="#F8931F"/>
<path d="M124.861 186.955C124.762 186.955 124.662 186.914 124.591 186.834L123.804 185.945C123.672 185.795 123.686 185.568 123.835 185.436C123.983 185.303 124.212 185.318 124.344 185.466L125.131 186.355C125.264 186.505 125.249 186.732 125.101 186.865C125.032 186.926 124.946 186.955 124.861 186.955Z" fill="#F8931F"/>
<path d="M36.0881 77.6607C35.2463 77.6607 34.3968 77.6333 33.5637 77.5809C33.3647 77.5678 33.2139 77.3962 33.227 77.1973C33.2401 76.9984 33.3986 76.8442 33.6107 76.8606C34.5531 76.9208 35.5163 76.9459 36.4707 76.9371H36.474C36.6719 76.9371 36.8326 77.0967 36.8348 77.2945C36.837 77.4934 36.6763 77.6563 36.4773 77.6585C36.3483 77.6596 36.2182 77.6607 36.0892 77.6607H36.0881ZM39.3559 77.5295C39.17 77.5295 39.0115 77.3863 38.9962 77.1973C38.9809 76.9984 39.1285 76.8246 39.3275 76.8093C40.2655 76.735 41.2221 76.6268 42.1722 76.4869C42.3712 76.4585 42.5526 76.594 42.5822 76.7918C42.6106 76.9885 42.475 77.1721 42.2771 77.2016C41.3118 77.3426 40.3388 77.453 39.3854 77.5295C39.3756 77.5295 39.3657 77.5306 39.3559 77.5306V77.5295ZM30.7157 77.2902C30.6993 77.2902 30.6818 77.2891 30.6654 77.2869C29.7044 77.1525 28.7391 76.9787 27.7956 76.7721C27.601 76.7295 27.4774 76.5371 27.5201 76.3426C27.5627 76.1481 27.7551 76.0235 27.9497 76.0672C28.8746 76.2705 29.8214 76.4399 30.7638 76.5721C30.9617 76.5994 31.0995 76.782 31.071 76.9798C31.0459 77.1601 30.8917 77.2902 30.7135 77.2902H30.7157ZM45.0661 76.6967C44.8988 76.6967 44.749 76.5798 44.713 76.4104C44.6714 76.2147 44.7971 76.0235 44.9917 75.983C45.9123 75.7896 46.8492 75.5633 47.7785 75.3109C47.972 75.2584 48.1688 75.3721 48.2213 75.5644C48.2738 75.7568 48.1601 75.9546 47.9677 76.0071C47.0252 76.2628 46.0741 76.4923 45.1404 76.6891C45.1153 76.6945 45.0901 76.6967 45.065 76.6967H45.0661ZM25.0788 76.0519C25.0438 76.0519 25.0088 76.0464 24.9738 76.0366C24.0511 75.7579 23.124 75.4398 22.2177 75.0879C22.0318 75.0158 21.9389 74.807 22.011 74.6213C22.0832 74.4355 22.2931 74.3426 22.4779 74.4147C23.3678 74.759 24.2774 75.0715 25.1826 75.3448C25.374 75.4027 25.4811 75.6038 25.4243 75.794C25.3772 75.9502 25.234 76.0508 25.0788 76.0508V76.0519ZM50.6396 75.1874C50.4877 75.1874 50.3466 75.0912 50.2963 74.9393C50.234 74.7502 50.3368 74.5458 50.5259 74.4835C51.418 74.1895 52.3276 73.8639 53.2285 73.5152C53.4144 73.4431 53.6232 73.536 53.6953 73.7218C53.7675 73.9076 53.6746 74.1163 53.4887 74.1885C52.5758 74.5404 51.6553 74.8704 50.7522 75.1688C50.7151 75.1808 50.6768 75.1874 50.6385 75.1874H50.6396ZM19.7042 73.9557C19.6463 73.9557 19.5883 73.9425 19.5337 73.913C18.682 73.4562 17.8653 72.8835 17.1077 72.2103C16.959 72.078 16.9448 71.8496 17.0782 71.701C17.2105 71.5523 17.4389 71.5392 17.5876 71.6715C18.3026 72.3075 19.0723 72.8474 19.8748 73.2781C20.0508 73.372 20.1164 73.5906 20.0224 73.7666C19.9568 73.8879 19.8332 73.9568 19.7042 73.9568V73.9557ZM56.0295 73.1097C55.8906 73.1097 55.7584 73.0289 55.6993 72.8944C55.6184 72.7119 55.7015 72.4988 55.8841 72.419C56.7467 72.0398 57.6235 71.631 58.4894 71.2048C58.6687 71.1173 58.8851 71.1906 58.9726 71.3687C59.0611 71.548 58.9868 71.7644 58.8086 71.8518C57.934 72.2824 57.0473 72.6955 56.176 73.0791C56.129 73.0999 56.0798 73.1097 56.0306 73.1097H56.0295ZM61.2149 70.56C61.087 70.56 60.9635 70.4922 60.8979 70.3709C60.8027 70.196 60.8672 69.9763 61.0433 69.8813C61.8731 69.4299 62.7149 68.9523 63.5458 68.4616C63.7174 68.361 63.9383 68.4167 64.041 68.5883C64.1427 68.7599 64.0859 68.9807 63.9142 69.0823C63.0768 69.5785 62.2273 70.0605 61.3887 70.5151C61.3341 70.5447 61.275 70.5589 61.2171 70.5589L61.2149 70.56ZM15.4 70.1763C15.2907 70.1763 15.1824 70.1272 15.1114 70.0321C14.5374 69.2714 14.0115 68.4331 13.5447 67.5402C13.4529 67.3632 13.5217 67.1457 13.6977 67.0539C13.8749 66.9621 14.0924 67.0298 14.1843 67.2069C14.6314 68.0648 15.1376 68.8692 15.6864 69.5982C15.8067 69.7578 15.775 69.984 15.6154 70.1031C15.5509 70.1523 15.4743 70.1753 15.3989 70.1753L15.4 70.1763ZM66.1904 67.6167C66.0713 67.6167 65.9554 67.5577 65.8865 67.4506C65.7794 67.2823 65.8275 67.0593 65.9958 66.9522C66.7939 66.4407 67.6008 65.9041 68.3945 65.3588C68.5585 65.2462 68.7837 65.2866 68.8963 65.4517C69.0089 65.6156 68.9684 65.8407 68.8034 65.9533C68.0031 66.5041 67.1897 67.044 66.385 67.5599C66.3249 67.5981 66.2571 67.6167 66.1904 67.6167ZM12.7204 65.0866C12.5717 65.0866 12.4317 64.9937 12.3803 64.8462C12.0611 63.9401 11.7933 62.9915 11.5844 62.0253C11.5429 61.8308 11.6664 61.6385 11.861 61.5958C12.0545 61.5554 12.2481 61.6778 12.2907 61.8723C12.493 62.809 12.7521 63.7292 13.0615 64.6057C13.1281 64.7937 13.0287 64.9992 12.8406 65.0659C12.8013 65.0801 12.7608 65.0866 12.7204 65.0866ZM70.9538 64.3402C70.8434 64.3402 70.7341 64.2899 70.663 64.1937C70.545 64.033 70.5788 63.8068 70.7396 63.6888C71.5059 63.1248 72.2778 62.5379 73.0333 61.9456C73.1896 61.8232 73.417 61.8505 73.5405 62.0068C73.663 62.1631 73.6356 62.3904 73.4793 62.5139C72.7184 63.1106 71.94 63.7019 71.1681 64.2702C71.1036 64.3172 71.0282 64.3402 70.9538 64.3402ZM75.5052 60.7718C75.4013 60.7718 75.2985 60.7281 75.2275 60.6417C75.0995 60.4887 75.1203 60.2614 75.2734 60.1335C76.0113 59.5182 76.746 58.8865 77.4588 58.2548C77.6075 58.1225 77.836 58.1357 77.9683 58.2854C78.1006 58.434 78.0875 58.6624 77.9377 58.7947C77.2194 59.4308 76.4793 60.0679 75.7358 60.6876C75.6681 60.7444 75.5861 60.7718 75.5052 60.7718ZM11.4981 59.4581C11.3144 59.4581 11.157 59.3182 11.1395 59.1313C11.0662 58.3488 11.0291 57.5531 11.0291 56.7673C11.0291 56.5804 11.0312 56.3924 11.0356 56.2045C11.04 56.0077 11.2007 55.8514 11.3964 55.8514H11.4051C11.6041 55.8558 11.7626 56.0208 11.7583 56.2209C11.7539 56.4034 11.7517 56.5848 11.7517 56.7673C11.7517 57.5313 11.7878 58.3029 11.8589 59.0635C11.8774 59.2624 11.732 59.4384 11.5331 59.457C11.521 59.4581 11.5101 59.4592 11.4992 59.4592L11.4981 59.4581ZM79.8313 56.9313C79.7361 56.9313 79.6399 56.893 79.57 56.8187C79.4322 56.6744 79.4388 56.446 79.5831 56.3083C80.5331 55.4077 81.223 54.7104 81.6341 54.2842C81.7729 54.1399 82.0014 54.1367 82.1446 54.2744C82.2878 54.4132 82.2922 54.6416 82.1545 54.7848C81.7379 55.2165 81.0404 55.9214 80.0805 56.8318C80.0106 56.8985 79.9209 56.9313 79.8324 56.9313H79.8313ZM11.6293 53.6973C11.6129 53.6973 11.5954 53.6962 11.5779 53.694C11.38 53.6656 11.2433 53.4831 11.2707 53.2864C11.4084 52.3115 11.6063 51.3464 11.8578 50.4164C11.9102 50.224 12.1092 50.1103 12.3005 50.1617C12.493 50.2142 12.6067 50.412 12.5553 50.6043C12.3115 51.506 12.1201 52.4426 11.9868 53.3869C11.9616 53.5672 11.8064 53.6973 11.6293 53.6973ZM13.1402 48.1409C13.0943 48.1409 13.0462 48.1322 13.0013 48.1125C12.8177 48.036 12.7313 47.8239 12.8078 47.6403C13.1894 46.7288 13.6343 45.8469 14.1296 45.0184C14.2324 44.8479 14.4543 44.7922 14.6248 44.8938C14.7965 44.9966 14.8522 45.2173 14.7495 45.3889C14.2717 46.1878 13.8421 47.0392 13.4747 47.919C13.4168 48.0578 13.2823 48.1409 13.1413 48.1409H13.1402ZM16.1019 43.2096C16.021 43.2096 15.939 43.1823 15.8723 43.1266C15.7181 42.9998 15.6974 42.7725 15.8242 42.6184C16.4495 41.8621 17.1394 41.1517 17.8719 40.5079C18.0217 40.3757 18.2502 40.391 18.3814 40.5407C18.5136 40.6905 18.4983 40.9178 18.3486 41.05C17.6445 41.6697 16.982 42.3517 16.3807 43.0785C16.3096 43.1648 16.2057 43.2096 16.1019 43.2096ZM20.4192 39.4139C20.3001 39.4139 20.1831 39.3549 20.1142 39.2456C20.0071 39.0773 20.0573 38.8544 20.2268 38.7472C21.0435 38.2314 21.9159 37.7691 22.8222 37.3713C23.0048 37.2915 23.218 37.3745 23.2978 37.5571C23.3776 37.7396 23.2945 37.9527 23.112 38.0325C22.2384 38.415 21.3977 38.8609 20.6116 39.3571C20.5515 39.3954 20.4848 39.4128 20.4192 39.4128V39.4139Z" fill="#F8931F"/>
<path d="M60.5568 111.398C60.5197 111.398 60.4814 111.393 60.4442 111.379C60.2551 111.317 60.1523 111.113 60.2146 110.924C60.2179 110.914 60.5492 109.907 61.0466 108.164C61.1013 107.973 61.3013 107.862 61.4927 107.916C61.684 107.971 61.7955 108.171 61.7408 108.362C61.239 110.12 60.9034 111.139 60.9001 111.149C60.8498 111.301 60.7088 111.397 60.5568 111.397V111.398ZM62.1552 105.836C62.1246 105.836 62.094 105.833 62.0634 105.824C61.8709 105.774 61.7551 105.576 61.8053 105.384C62.047 104.462 62.2831 103.522 62.5083 102.588C62.5553 102.395 62.7499 102.275 62.9434 102.321C63.137 102.368 63.2561 102.563 63.2102 102.756C62.9839 103.695 62.7467 104.641 62.504 105.566C62.4613 105.728 62.3148 105.836 62.1552 105.836ZM63.5087 100.217C63.4835 100.217 63.4573 100.215 63.431 100.209C63.2364 100.166 63.1129 99.9726 63.1566 99.7781C63.3622 98.8458 63.5622 97.8972 63.7503 96.9573C63.7896 96.7617 63.9799 96.636 64.1756 96.6742C64.3713 96.7136 64.4981 96.9037 64.4587 97.0994C64.2696 98.0426 64.0684 98.9967 63.8618 99.9333C63.8246 100.102 63.6748 100.216 63.5098 100.216L63.5087 100.217ZM64.6446 94.5518C64.6238 94.5518 64.602 94.5496 64.5801 94.5463C64.3833 94.5113 64.2532 94.3234 64.2882 94.1277C64.4587 93.1769 64.6216 92.2217 64.7692 91.2861C64.8009 91.0894 64.9846 90.9561 65.1825 90.9867C65.3793 91.0184 65.5137 91.2031 65.482 91.3998C65.3334 92.3397 65.1705 93.3004 64.9988 94.2556C64.9671 94.4305 64.8151 94.5529 64.6435 94.5529L64.6446 94.5518ZM65.5487 88.8456C65.5323 88.8456 65.5159 88.8456 65.4995 88.8424C65.3016 88.815 65.1639 88.6336 65.1901 88.4358C65.3202 87.4806 65.4405 86.5188 65.5465 85.5778C65.5684 85.38 65.7466 85.2357 65.9456 85.2598C66.1435 85.2816 66.2856 85.4609 66.2637 85.6587C66.1566 86.6051 66.0363 87.5724 65.9051 88.5331C65.88 88.7145 65.7258 88.8456 65.5476 88.8456H65.5487ZM66.1949 83.1045C66.1839 83.1045 66.173 83.1045 66.1632 83.1034C65.9642 83.0859 65.8177 82.9111 65.8352 82.7122C65.9204 81.7438 65.9926 80.7777 66.0484 79.8411C66.0604 79.6422 66.2266 79.4902 66.431 79.5023C66.63 79.5143 66.7819 79.6848 66.7699 79.8848C66.7131 80.828 66.6409 81.8007 66.5545 82.7756C66.5381 82.9635 66.3807 83.1045 66.1959 83.1045H66.1949ZM66.5425 77.3405C66.5425 77.3405 66.5349 77.3405 66.5305 77.3405C66.3315 77.3339 66.1752 77.1678 66.1806 76.9689C66.2113 76.0137 66.2255 75.0595 66.2255 74.1338V74.0934C66.2255 73.8945 66.3873 73.7327 66.5863 73.7327C66.7852 73.7327 66.947 73.8945 66.947 74.0934V74.1338C66.947 75.0672 66.9317 76.029 66.9011 76.9918C66.8946 77.1875 66.7349 77.3416 66.5403 77.3416L66.5425 77.3405ZM66.536 71.5655C66.3425 71.5655 66.1828 71.4125 66.1752 71.2179C66.1402 70.2496 66.0877 69.2846 66.0177 68.3479C66.0024 68.149 66.1522 67.9763 66.3512 67.961C66.5469 67.9468 66.7229 68.0955 66.7382 68.2944C66.8093 69.2397 66.8629 70.2146 66.8978 71.1917C66.9044 71.3906 66.7491 71.5578 66.5502 71.5655C66.5458 71.5655 66.5414 71.5655 66.5371 71.5655H66.536ZM66.0987 65.8069C65.9183 65.8069 65.763 65.6725 65.7411 65.4888C65.6264 64.526 65.4886 63.5708 65.3323 62.6483C65.2984 62.4516 65.4318 62.2658 65.6274 62.233C65.821 62.1981 66.0101 62.3325 66.0429 62.5281C66.2014 63.4615 66.3403 64.4298 66.4562 65.4036C66.4802 65.6014 66.3381 65.7807 66.1402 65.8047C66.126 65.8069 66.1118 65.8069 66.0965 65.8069H66.0987ZM65.1278 60.1171C64.9627 60.1171 64.814 60.0035 64.7758 59.8363C64.5604 58.8898 64.3177 57.9564 64.0553 57.0646C63.9996 56.8734 64.1089 56.6723 64.3002 56.6165C64.4915 56.5619 64.6927 56.6701 64.7484 56.8613C65.0152 57.7685 65.2612 58.716 65.4799 59.6778C65.5236 59.8723 65.4022 60.0658 65.2076 60.1095C65.1803 60.1161 65.1541 60.1182 65.1278 60.1182V60.1171ZM63.4912 54.5837C63.3447 54.5837 63.2069 54.4941 63.1534 54.3487C62.8144 53.4416 62.4427 52.5552 62.0491 51.7137C61.965 51.5334 62.0426 51.318 62.223 51.2339C62.4034 51.1486 62.6187 51.2273 62.7029 51.4077C63.1053 52.2667 63.4846 53.1716 63.8301 54.0962C63.9001 54.2831 63.805 54.4908 63.618 54.5607C63.5765 54.576 63.5338 54.5837 63.4923 54.5837H63.4912ZM61.0379 49.3661C60.9132 49.3661 60.793 49.3016 60.7263 49.1869C60.242 48.3562 59.7194 47.554 59.1716 46.7999C59.0547 46.6382 59.0907 46.413 59.2514 46.2961C59.4122 46.1791 59.6385 46.2152 59.7554 46.3759C60.3163 47.1486 60.852 47.9726 61.3494 48.8229C61.45 48.9956 61.3921 49.2164 61.2193 49.3169C61.1625 49.3508 61.0991 49.3661 61.0379 49.3661ZM57.6487 44.7081C57.5503 44.7081 57.4519 44.6676 57.3808 44.5889C56.7435 43.8851 56.0634 43.2119 55.3594 42.5911C55.2096 42.4588 55.1954 42.2315 55.3277 42.0818C55.46 41.9321 55.6874 41.9178 55.8371 42.0501C56.562 42.6894 57.2617 43.3813 57.9166 44.1059C58.0499 44.2534 58.039 44.4818 57.8914 44.6152C57.8225 44.6775 57.7362 44.7081 57.6498 44.7081H57.6487ZM53.3313 40.8992C53.2603 40.8992 53.1881 40.8785 53.1247 40.8348C52.355 40.297 51.5405 39.7954 50.7064 39.3418C50.5315 39.2467 50.467 39.0271 50.5621 38.8522C50.6572 38.6773 50.8769 38.6129 51.0519 38.7079C51.9101 39.1746 52.7464 39.6905 53.5391 40.2435C53.7031 40.3572 53.7424 40.5823 53.6287 40.7462C53.5587 40.8468 53.4461 40.9003 53.3324 40.9003L53.3313 40.8992ZM48.276 38.1429C48.2301 38.1429 48.1831 38.1342 48.1383 38.1156C47.2779 37.7582 46.3759 37.4347 45.4575 37.1527C45.2673 37.0948 45.1602 36.8926 45.2181 36.7024C45.2761 36.5112 45.4783 36.4052 45.6686 36.4631C46.6099 36.7516 47.5337 37.0839 48.4149 37.4489C48.5996 37.5254 48.686 37.7363 48.6095 37.921C48.5515 38.0598 48.4181 38.144 48.276 38.144V38.1429Z" fill="#F8931F"/>
<path d="M164.039 186.236C164.039 186.236 152.45 163.582 158.082 141.556C158.27 140.82 161.135 141.639 161.363 140.905C161.653 139.966 159.322 137.475 159.681 136.544C161.019 133.082 162.847 129.68 165.28 126.432C165.28 126.432 169.871 133.116 172.253 143.549C172.432 144.335 169.504 146.526 169.655 147.354C169.798 148.137 173.024 147.554 173.136 148.372C174.599 158.94 173.34 172.326 164.038 186.236H164.039Z" fill="#C2E1DE"/>
<path d="M153.952 159.493C153.47 158.834 150.724 161.213 150.234 160.587C149.751 159.97 151.054 155.506 150.567 154.921C140.992 143.451 130.799 138.192 130.799 138.192C129.896 144.152 129.998 149.858 130.833 155.26C130.966 156.123 134.869 157.563 135.039 158.41C135.225 159.339 132.039 160.5 132.266 161.41C135.62 174.851 142.943 185.365 150.2 193.582C155.864 191.589 161 189.085 165.633 186.149C163.405 174.936 159.175 166.629 153.955 159.494L153.952 159.493Z" fill="#26AA9D"/>
<path d="M156.815 186.036C156.699 186.036 156.585 185.98 156.515 185.876C153.949 182.066 151.449 178.135 149.083 174.193C148.98 174.022 149.036 173.801 149.206 173.698C149.377 173.595 149.599 173.651 149.702 173.821C152.062 177.753 154.556 181.673 157.114 185.473C157.226 185.638 157.182 185.863 157.017 185.973C156.955 186.015 156.885 186.035 156.816 186.035L156.815 186.036Z" fill="#D8D8D8"/>
<path d="M146.088 168.705C145.963 168.705 145.84 168.64 145.775 168.523C141.95 161.781 138.38 154.786 135.16 147.734L133.688 144.51C133.605 144.329 133.685 144.115 133.867 144.033C134.048 143.95 134.262 144.029 134.344 144.211L135.816 147.435C139.027 154.468 142.589 161.444 146.402 168.168C146.501 168.341 146.439 168.561 146.267 168.659C146.21 168.691 146.15 168.706 146.088 168.706V168.705Z" fill="#D8D8D8"/>
<path d="M163.383 187.501C163.383 187.501 158.797 163.291 182.506 154.888C182.506 154.888 184.492 176.021 163.383 187.501Z" fill="#26AA9D"/>
<path d="M167.639 181.199C167.6 181.199 167.559 181.192 167.52 181.179C167.332 181.113 167.232 180.907 167.299 180.719C170.019 172.954 178.479 160.928 178.564 160.808C178.679 160.645 178.905 160.607 179.067 160.722C179.23 160.836 179.268 161.061 179.153 161.224C179.069 161.345 170.666 173.287 167.98 180.958C167.928 181.107 167.789 181.2 167.639 181.2V181.199Z" fill="#D8D8D8"/>
</svg>
