<svg width="200" height="199" viewBox="0 0 200 199" fill="none" xmlns="http://www.w3.org/2000/svg">
<path d="M150.642 172.438L182.405 178.815C184.163 179.295 184.141 181.552 183.525 182.013L161.133 197.852C159.961 198.677 151.395 199.173 149.982 198.931L121.411 188.488L149.356 172.684C149.737 172.438 150.198 172.35 150.642 172.439V172.438Z" fill="#D8D8D8"/>
<path d="M195.791 23.2588L195.229 18.805L190.353 18.3342C190.038 17.3262 189.646 16.3574 189.178 15.4367L192.33 11.6905L189.618 8.11475L185.157 10.1473C184.39 9.44174 183.565 8.80173 182.691 8.2327L183.551 3.4042L179.416 1.66436L176.573 5.6508C175.565 5.42581 174.529 5.28602 173.475 5.23141L171.808 0.621338L167.357 1.18381L166.885 6.06474C165.878 6.37928 164.91 6.77247 163.989 7.24101L160.245 4.0879L156.671 6.80195L158.702 11.2657C157.996 12.0346 157.356 12.8592 156.788 13.734L151.963 12.8755L150.224 17.0138L154.207 19.8578C153.982 20.8659 153.843 21.9024 153.788 22.9574L149.181 24.6273L149.743 29.0812L154.619 29.552C154.934 30.56 155.326 31.5288 155.794 32.4495L152.642 36.1957L155.354 39.7714L159.815 37.7389C160.582 38.4444 161.407 39.0844 162.281 39.6535L161.421 44.482L165.556 46.2218L168.399 42.2354C169.407 42.4604 170.443 42.6002 171.496 42.6548L173.164 47.2648L177.615 46.7024L178.087 41.8214C179.094 41.5069 180.062 41.1137 180.983 40.6441L184.727 43.7972L188.301 41.0831L186.27 36.6205C186.976 35.8516 187.616 35.0259 188.184 34.1522L193.009 35.0106L194.748 30.8724L190.765 28.0284C190.99 27.0203 191.129 25.9838 191.184 24.9288L195.791 23.2588ZM173.93 35.4082C167.602 36.2088 161.825 31.7232 161.027 25.3919C160.228 19.0594 164.712 13.2775 171.04 12.478C177.368 11.6774 183.145 16.163 183.943 22.4943C184.741 28.8267 180.258 34.6087 173.931 35.4082H173.93Z" fill="white"/>
<path d="M25.1494 60.4277C24.9998 60.4277 24.8633 60.3338 24.8108 60.1907L23.237 55.8417C22.3338 55.7838 21.4415 55.6637 20.5776 55.4824L17.8952 59.2438C17.7969 59.3803 17.6178 59.4317 17.4627 59.3661L13.3616 57.6405C13.2065 57.575 13.1169 57.4112 13.1464 57.2462L13.9568 52.6897C13.2152 52.1927 12.5042 51.6412 11.8402 51.0471L7.63203 52.9649C7.47912 53.0348 7.29782 52.9889 7.19625 52.8546L4.50622 49.3083C4.40465 49.174 4.40902 48.9883 4.51715 48.8594L7.49114 45.3241C7.10123 44.5322 6.76266 43.6967 6.48197 42.8361L1.88064 42.3916C1.71353 42.3752 1.5792 42.2452 1.55844 42.0781L1.00144 37.6603C0.980684 37.4932 1.07789 37.3348 1.23625 37.2769L5.58311 35.702C5.64099 34.7988 5.76222 33.9054 5.94243 33.0404L2.18426 30.3569C2.04774 30.2597 1.99641 30.0795 2.06194 29.9244L3.78648 25.82C3.85201 25.6649 4.01584 25.5764 4.18076 25.6048L8.73294 26.4152C9.22879 25.6726 9.78034 24.9616 10.3756 24.2964L8.4599 20.085C8.39 19.9321 8.43587 19.7508 8.57021 19.6492L12.1143 16.957C12.2486 16.8554 12.4354 16.8598 12.5632 16.9679L16.0942 19.943C16.8871 19.552 17.7204 19.2134 18.5811 18.9328L19.0256 14.3281C19.042 14.161 19.1719 14.0267 19.339 14.006L23.7536 13.4478C23.9185 13.426 24.0791 13.5243 24.137 13.6827L25.7108 18.0317C26.6129 18.0896 27.5052 18.2097 28.3702 18.391L31.0526 14.6296C31.1498 14.4931 31.33 14.4417 31.4851 14.5073L35.5862 16.2329C35.7413 16.2984 35.8309 16.4623 35.8014 16.6272L34.991 21.1837C35.7326 21.6796 36.4425 22.2311 37.1076 22.8264L41.3158 20.9085C41.4687 20.8397 41.65 20.8845 41.7516 21.0188L44.4405 24.5651C44.5421 24.6994 44.5377 24.8851 44.4296 25.014L41.4556 28.5493C41.8455 29.3412 42.1841 30.1767 42.4648 31.0373L47.0661 31.4818C47.2332 31.4982 47.3675 31.6282 47.3883 31.7953L47.9453 36.2131C47.966 36.3802 47.8688 36.5386 47.7105 36.5965L43.3636 38.1714C43.3057 39.0746 43.1856 39.968 43.0043 40.833L46.7625 43.5165C46.899 43.6137 46.9503 43.7939 46.8848 43.949L45.1602 48.0534C45.0947 48.2085 44.9309 48.298 44.766 48.2686L40.2138 47.4582C39.7179 48.2008 39.1664 48.9119 38.5712 49.577L40.4868 53.7884C40.5567 53.9413 40.5109 54.1226 40.3765 54.2242L36.8324 56.9164C36.6981 57.018 36.5113 57.0136 36.3835 56.9055L32.8525 53.9304C32.0607 54.3203 31.2263 54.66 30.3656 54.9407L29.9211 59.5453C29.9047 59.7124 29.7748 59.8467 29.6077 59.8675L25.1931 60.4256C25.1778 60.4277 25.1625 60.4288 25.1483 60.4288L25.1494 60.4277ZM20.4236 54.72C20.4498 54.72 20.476 54.7233 20.5022 54.7288C21.4742 54.9461 22.4878 55.0837 23.5144 55.1362C23.6586 55.1438 23.7853 55.2366 23.8344 55.3732L25.3908 59.6752L29.2342 59.1892L29.6743 54.6348C29.6885 54.4907 29.7868 54.3694 29.9255 54.3258C30.9063 54.0189 31.8543 53.6344 32.7422 53.1812C32.8711 53.1156 33.0273 53.1331 33.1376 53.2259L36.6304 56.1683L39.7168 53.8245L37.8219 49.66C37.7618 49.5289 37.787 49.3738 37.8842 49.2679C38.5679 48.5219 39.1948 47.7148 39.7463 46.8662C39.825 46.745 39.9691 46.6827 40.1111 46.7078L44.6131 47.5095L46.1148 43.9348L42.3981 41.2808C42.2802 41.1967 42.2245 41.0504 42.2561 40.9095C42.4735 39.9353 42.6111 38.9206 42.6635 37.8951C42.6712 37.7509 42.764 37.6242 42.9005 37.5751L47.1993 36.0165L46.7144 32.1699L42.1633 31.7309C42.0191 31.7167 41.8979 31.6184 41.8542 31.4797C41.5484 30.4978 41.164 29.5498 40.7107 28.6618C40.6452 28.533 40.6627 28.3779 40.7555 28.2665L43.6967 24.7704L41.3551 21.6828L37.1928 23.58C37.0618 23.64 36.9067 23.6149 36.8007 23.5177C36.0559 22.834 35.2488 22.2071 34.4012 21.6555C34.28 21.5769 34.2177 21.4327 34.2429 21.2908L35.0445 16.7855L31.4731 15.2827L28.8202 19.0027C28.7361 19.1206 28.5898 19.1774 28.4489 19.1446C27.4757 18.9273 26.4622 18.7897 25.4367 18.7373C25.2925 18.7296 25.1658 18.6368 25.1167 18.5002L23.5603 14.1982L19.7169 14.6842L19.2768 19.2386C19.2626 19.3827 19.1643 19.504 19.0256 19.5476C18.0459 19.8535 17.0979 20.239 16.2089 20.6922C16.08 20.7578 15.9249 20.7403 15.8135 20.6475L12.3207 17.7051L9.23425 20.049L11.1292 24.2145C11.1892 24.3456 11.1641 24.5007 11.0669 24.6066C10.3832 25.3515 9.75631 26.1597 9.20585 27.0072C9.12722 27.1284 8.98305 27.1907 8.84106 27.1656L4.33912 26.3639L2.83738 29.9375L6.55405 32.5915C6.67201 32.6756 6.72771 32.8219 6.69603 32.9628C6.47869 33.936 6.34108 34.9506 6.28865 35.9772C6.28101 36.1214 6.18817 36.2481 6.05165 36.2972L1.75285 37.8558L2.23778 41.7024L6.78887 42.1415C6.93304 42.1557 7.05427 42.254 7.09795 42.3927C7.40376 43.3745 7.78821 44.3225 8.24146 45.2105C8.30699 45.3393 8.28952 45.4944 8.19668 45.6058L5.25546 49.1019L7.59708 52.1895L11.7594 50.2924C11.8904 50.2323 12.0455 50.2563 12.1514 50.3546C12.8952 51.0383 13.7023 51.6652 14.5499 52.2168C14.6711 52.2954 14.7333 52.4385 14.7082 52.5816L13.9066 57.0868L17.478 58.5896L20.1309 54.8697C20.1997 54.7736 20.3089 54.7189 20.4236 54.7189V54.72ZM24.4504 48.7611C21.8445 48.7611 19.327 47.9027 17.2344 46.2786C14.741 44.3433 13.1508 41.5528 12.7565 38.4193C11.9417 31.9526 16.5354 26.0264 22.9989 25.2095C26.1291 24.8152 29.2265 25.6616 31.7199 27.597C34.2134 29.5323 35.8036 32.3239 36.1979 35.4563C37.0126 41.923 32.4189 47.8492 25.9554 48.6661C25.4519 48.7295 24.9495 48.7611 24.4504 48.7611ZM25.8648 47.9518C31.934 47.1851 36.2492 41.6194 35.4836 35.5458C35.1122 32.6035 33.6192 29.9823 31.2776 28.1649C28.936 26.3475 26.0286 25.5513 23.0874 25.9227C17.0182 26.6894 12.703 32.2551 13.4686 38.3287C13.8399 41.271 15.333 43.8922 17.6746 45.7096C20.0162 47.527 22.9247 48.3232 25.8637 47.9518H25.8648Z" fill="white"/>
<path d="M191.099 122.909L75.7411 106.866C72.8446 106.497 70.6745 104.031 70.6745 101.112L69.0919 20.6494C69.0919 20.6494 71.7219 18.7534 73.2116 18.0271C73.9696 17.6569 74.8433 17.4952 75.752 17.611L190.767 32.2789C193.663 32.648 195.833 35.1131 195.833 38.0325V117.062C195.833 118.477 195.187 119.723 194.187 120.545C193.267 121.302 191.099 122.909 191.099 122.909Z" fill="#263238"/>
<path d="M187.579 123.978L72.564 109.31C69.6676 108.941 67.4974 106.476 67.4974 103.556V24.5267C67.4974 21.8105 69.8817 19.7124 72.575 20.0553L187.59 34.7233C190.486 35.0924 192.656 37.5574 192.656 40.4768V119.507C192.656 122.223 190.272 124.321 187.579 123.978Z" fill="white"/>
<path d="M67.4974 42.3662C67.2986 42.3662 67.1381 42.2045 67.1381 42.0069V24.5266C67.1381 23.1286 67.7399 21.7973 68.7883 20.8744C69.8368 19.9504 71.2348 19.5223 72.6208 19.6992L162.917 31.2151C163.114 31.2402 163.254 31.4204 163.229 31.617C163.204 31.8147 163.022 31.9523 162.827 31.9283L72.5301 20.4124C71.3484 20.2606 70.1579 20.6264 69.2645 21.4139C68.37 22.2014 67.8578 23.3361 67.8578 24.5266V42.0069C67.8578 42.2056 67.6973 42.3662 67.4985 42.3662H67.4974Z" fill="#263238"/>
<path d="M185.134 120.72L75.3129 106.715C73.2061 106.446 71.6279 104.654 71.6279 102.531V26.2993C71.6279 24.4852 73.2203 23.084 75.0191 23.3133L184.841 37.3183C186.946 37.587 188.526 39.3792 188.526 41.5024V117.734C188.526 119.548 186.933 120.949 185.134 120.72Z" fill="#CADDFF"/>
<path d="M120.479 170.521L2.19081 155.267C1.26464 155.148 0.742583 154.373 0.754597 153.598C0.763335 153.063 0.80593 149.298 0.80593 149.298L63.3504 113.542C66.4839 111.752 70.538 111.061 74.1182 111.52L190.912 126.586C191.615 126.677 192.218 127.133 192.497 127.785L192.685 128.226C192.685 128.226 192.584 131.366 192.625 132.099C192.656 132.673 192.398 133.265 191.798 133.609L130.823 168.472C127.689 170.262 124.058 170.982 120.478 170.523L120.479 170.521Z" fill="white"/>
<path d="M120.479 166.33L2.6146 151.106C1.0506 150.906 0.638851 148.831 2.00844 148.047L62.6558 113.409C65.7893 111.619 69.4207 110.899 73.0009 111.358L190.866 126.584C192.431 126.784 192.842 128.859 191.472 129.642L130.825 164.28C127.692 166.07 124.06 166.79 120.48 166.332L120.479 166.33Z" fill="white"/>
<path d="M143.555 147.104L41.3519 133.804C39.9386 133.623 39.5673 131.749 40.8047 131.042L64.8358 117.456C67.6657 115.839 70.9466 115.188 74.1794 115.602L176.383 128.902C177.796 129.083 178.168 130.957 176.93 131.664L152.899 145.25C150.069 146.867 146.788 147.518 143.555 147.104Z" fill="#CADDFF"/>
<path d="M122.562 166.823C121.851 166.823 121.14 166.778 120.433 166.688L95.9497 163.525C95.7531 163.499 95.6133 163.319 95.6395 163.122C95.6646 162.925 95.8448 162.785 96.0425 162.811L120.526 165.974C124.005 166.419 127.6 165.707 130.646 163.967L169.844 141.571C170.017 141.472 170.236 141.533 170.334 141.705C170.433 141.878 170.373 142.097 170.2 142.196L131.002 164.592C128.44 166.055 125.505 166.823 122.562 166.823Z" fill="#263238"/>
<path d="M132.611 119.541C132.595 119.541 132.579 119.541 132.564 119.537L72.9539 111.714C69.4753 111.268 65.881 111.982 62.8349 113.721L59.4164 115.674C59.2438 115.773 59.0243 115.713 58.926 115.54C58.8277 115.367 58.8878 115.148 59.0604 115.05L62.4789 113.097C65.6604 111.279 69.4142 110.536 73.0478 111.001L132.659 118.824C132.855 118.85 132.994 119.031 132.969 119.227C132.945 119.408 132.791 119.539 132.613 119.539L132.611 119.541Z" fill="#263238"/>
<path d="M166.622 109.482L89.1343 99.8727C87.258 99.6401 85.7366 97.9767 85.7366 96.1582V3.25787C85.7366 1.4394 87.258 0.152821 89.1343 0.385454L166.622 9.99441C168.498 10.227 170.02 11.8904 170.02 13.7089V106.608C170.02 108.427 168.498 109.713 166.622 109.481V109.482Z" fill="white"/>
<path d="M157.66 38.155L153.951 29.0791C152.148 24.6699 148.035 21.4371 143.484 20.855L110.299 16.6097C105.749 16.0276 101.634 18.2075 99.8322 22.1558L96.1232 30.2826L108.085 36.839V76.237L145.698 81.0491V41.6511L157.66 38.155Z" fill="#26AA9D"/>
<path d="M129.829 26.0308C128.868 26.0308 127.868 25.9675 126.847 25.8364C119.976 24.9572 114.594 21.4699 114.594 17.8974C114.594 17.6986 114.755 17.5381 114.953 17.5381C115.152 17.5381 115.313 17.6997 115.313 17.8974C115.313 21.0614 120.528 24.3019 126.938 25.1221C131.311 25.6824 135.389 24.9419 137.327 23.2371C138.087 22.5686 138.471 21.7998 138.471 20.9522C138.471 20.7534 138.632 20.5929 138.83 20.5929C139.029 20.5929 139.19 20.7545 139.19 20.9522C139.19 22.0007 138.709 22.9771 137.801 23.7766C136.149 25.2303 133.232 26.0297 129.828 26.0297L129.829 26.0308Z" fill="#263238"/>
<path d="M137.255 43.416C138.755 42.0025 138.681 39.4876 137.089 37.7988C135.498 36.11 132.992 35.8869 131.492 37.3004C129.992 38.714 130.066 41.2289 131.657 42.9177C133.249 44.6065 135.755 44.8296 137.255 43.416Z" fill="white"/>
<path d="M167.064 109.868C166.905 109.868 166.742 109.858 166.578 109.838L89.0907 100.229C87.0429 99.9754 85.3773 98.1482 85.3773 96.1571V3.25893C85.3773 2.29891 85.7574 1.43391 86.4477 0.824477C87.1729 0.184463 88.1427 -0.0984104 89.1792 0.0304662L166.667 9.63942C168.715 9.8928 170.38 11.72 170.38 13.711V106.61C170.38 107.57 170 108.435 169.31 109.045C168.699 109.584 167.915 109.869 167.064 109.869V109.868ZM88.6953 0.718536C88.0193 0.718536 87.4 0.94134 86.9238 1.36292C86.3909 1.83474 86.0971 2.50752 86.0971 3.25893V96.1582C86.0971 97.7987 87.4798 99.3048 89.1792 99.5156L166.667 109.125C167.496 109.226 168.265 109.008 168.834 108.505C169.367 108.033 169.66 107.361 169.66 106.609V13.71C169.66 12.0695 168.278 10.5634 166.578 10.3526L89.0907 0.743656C88.9575 0.727274 88.8253 0.718536 88.6964 0.718536H88.6953Z" fill="#26AA9D"/>
<path d="M197.063 142.577L138.282 135.057C136.859 134.875 135.705 133.574 135.705 132.15V59.4469C135.705 58.0238 136.859 57.0168 138.282 57.1992L197.063 64.7188C198.486 64.9012 199.641 66.202 199.641 67.6262V140.329C199.641 141.752 198.486 142.759 197.063 142.577Z" fill="white"/>
<path d="M197.397 142.959C197.272 142.959 197.145 142.951 197.017 142.935L138.236 135.415C136.642 135.211 135.345 133.748 135.345 132.152V59.4491C135.345 58.6595 135.655 57.9528 136.215 57.4592C136.782 56.9612 137.532 56.7427 138.328 56.8443L197.109 64.3639C198.704 64.5682 200 66.0317 200 67.6284V140.331C200 141.121 199.691 141.827 199.131 142.321C198.656 142.739 198.05 142.96 197.397 142.96V142.959ZM137.951 57.5389C137.472 57.5389 137.033 57.6973 136.691 57.9987C136.288 58.3537 136.065 58.8681 136.065 59.448V132.151C136.065 133.397 137.081 134.542 138.328 134.701L197.109 142.221C197.698 142.296 198.246 142.14 198.656 141.779C199.059 141.424 199.281 140.91 199.281 140.33V67.6273C199.281 66.3812 198.266 65.2366 197.018 65.0771L138.238 57.5575C138.141 57.5455 138.045 57.5389 137.951 57.5389Z" fill="#263238"/>
<path d="M182.128 86.404C181.929 86.404 181.768 86.2424 181.768 86.0447L181.77 73.8833C180.971 69.7527 177.902 66.438 174.463 65.9957C172.649 65.7641 170.992 66.2054 169.669 67.2746C167.945 68.6704 166.86 71.0776 166.615 74.0515L165.738 82.9615C165.719 83.1592 165.541 83.3023 165.345 83.2848C165.148 83.2651 165.003 83.0893 165.023 82.8916L165.899 73.9882C166.16 70.822 167.338 68.2368 169.217 66.7165C170.696 65.5206 172.542 65.0236 174.554 65.2825C178.364 65.7718 181.624 69.2667 182.484 73.7818C182.488 73.8036 182.49 73.8266 182.49 73.8495L182.488 86.0447C182.488 86.2435 182.326 86.404 182.129 86.404H182.128Z" fill="#263238"/>
<path d="M179.314 131.019L192.627 128.26C192.812 128.222 192.925 128.055 192.896 127.86C192.343 124.075 188.281 89.1212 185.567 82.3148L183.211 81.9216L180.198 96.8953L179.315 131.019H179.314Z" fill="#26AA9D"/>
<path d="M143.374 124.793C143.295 125.08 143.362 125.407 143.554 125.677C143.746 125.948 144.044 126.133 144.357 126.177L179.333 131.105L183.21 81.9217L156.584 79.3223C156.137 79.2786 155.755 79.5287 155.643 79.9372L143.374 124.792V124.793Z" fill="white"/>
<path d="M185.382 126.446C185.188 126.446 185.028 126.291 185.023 126.097L183.882 84.1759C183.876 83.9771 184.032 83.8122 184.231 83.8068C184.431 83.7915 184.595 83.9575 184.6 84.1563L185.742 126.077C185.747 126.276 185.591 126.441 185.392 126.446C185.389 126.446 185.386 126.446 185.382 126.446Z" fill="white"/>
<path d="M178.896 131.397C178.852 131.397 178.809 131.394 178.765 131.387L156.96 128.315C156.763 128.288 156.625 128.105 156.654 127.909C156.681 127.712 156.862 127.575 157.06 127.603L178.865 130.675C178.911 130.682 178.952 130.673 178.978 130.652C179 130.635 179.012 130.609 179.014 130.575L179.474 124.739C179.489 124.542 179.663 124.394 179.86 124.409C180.058 124.425 180.206 124.598 180.19 124.796L179.73 130.63C179.712 130.863 179.605 131.071 179.427 131.213C179.277 131.333 179.091 131.396 178.895 131.396L178.896 131.397Z" fill="#263238"/>
<path d="M143.723 124.337C143.692 124.337 143.66 124.333 143.629 124.325C143.436 124.273 143.324 124.075 143.375 123.884L155.301 79.852C155.456 79.2709 155.999 78.9061 156.625 78.9673L182.971 81.5394C183.317 81.5732 183.575 81.8823 183.546 82.2285L180.692 116.174C180.675 116.372 180.502 116.515 180.303 116.503C180.105 116.487 179.958 116.312 179.974 116.114L182.821 82.2471L156.554 79.6827C156.277 79.6532 156.059 79.7952 155.994 80.0387L144.068 124.073C144.024 124.234 143.879 124.338 143.72 124.338L143.723 124.337Z" fill="#263238"/>
<path d="M177.385 81.4466H177.377C177.178 81.4411 177.021 81.2773 177.026 81.0774L177.14 76.4335C177.393 71.2959 173.96 66.4947 169.643 65.9399C166.185 65.4976 163.289 67.955 162.595 71.9196L161.475 79.7253C161.446 79.9219 161.263 80.0595 161.067 80.0301C160.871 80.0017 160.734 79.8193 160.763 79.6227L161.885 71.806C162.639 67.5017 165.941 64.7374 169.736 65.2267C174.41 65.8274 178.13 70.9716 177.859 76.4608L177.746 81.096C177.741 81.2915 177.581 81.4466 177.387 81.4466H177.385Z" fill="#263238"/>
<path d="M177.287 93.3613C178.34 91.116 177.538 88.5182 175.494 87.559C173.45 86.5998 170.939 87.6425 169.885 89.8879C168.832 92.1333 169.634 94.731 171.678 95.6902C173.722 96.6494 176.233 95.6067 177.287 93.3613Z" fill="white"/>
<path d="M88.3055 94.2578L29.5247 86.7382C28.1016 86.5558 26.9471 85.255 26.9471 83.8308V11.128C26.9471 9.70494 28.1016 8.69796 29.5247 8.88035L88.3055 16.4C89.7286 16.5824 90.8831 17.8831 90.8831 19.3073V92.0101C90.8831 93.4332 89.7286 94.4402 88.3055 94.2578Z" fill="white"/>
<path d="M85.042 27.5588L32.1305 21.5191C31.5058 21.4481 31.0056 21.9243 31.0121 22.584L31.3311 54.5104C31.3376 55.1701 31.8488 55.7621 32.4735 55.8341L85.385 61.8739C86.0097 61.9449 86.5099 61.4687 86.5034 60.809L86.1844 28.8825C86.1779 28.2229 85.6668 27.6298 85.042 27.5588Z" fill="#26AA9D"/>
<path d="M85.5095 62.2408C85.4548 62.2408 85.4002 62.2375 85.3445 62.2309L32.433 56.1912C31.6216 56.0984 30.9804 55.3622 30.9717 54.5136L30.6528 22.5872C30.6484 22.159 30.8166 21.7593 31.1137 21.4917C31.3998 21.234 31.7755 21.116 32.172 21.1608L85.0835 27.2005C85.895 27.2934 86.5361 28.0306 86.5448 28.8781L86.8638 60.8045C86.8681 61.2327 86.6999 61.6324 86.4029 61.9C86.156 62.1217 85.8437 62.2397 85.5105 62.2397L85.5095 62.2408ZM32.0093 21.8718C31.852 21.8718 31.7078 21.9253 31.5953 22.0269C31.449 22.159 31.3693 22.3556 31.3725 22.5806L31.6915 54.5071C31.6958 54.9822 32.0737 55.4267 32.5149 55.4769L85.4264 61.5166C85.6143 61.5374 85.7901 61.485 85.9212 61.367C86.0676 61.2349 86.1473 61.0383 86.1451 60.8122L85.8262 28.8857C85.8218 28.4106 85.4439 27.9661 85.0027 27.9159L32.0912 21.8762C32.0639 21.8729 32.0377 21.8718 32.0104 21.8718H32.0093Z" fill="#263238"/>
<path d="M82.328 57.9081L51.8716 54.4317V49.0353L82.328 52.5128V57.9081Z" fill="white"/>
<path d="M88.6397 94.639C88.5141 94.639 88.3874 94.6314 88.2596 94.615L60.6167 91.1364C60.4201 91.1113 60.2803 90.9322 60.3043 90.7345C60.3294 90.5379 60.5085 90.3981 60.7062 90.4221L88.3492 93.9007C88.9378 93.9761 89.4872 93.8199 89.8968 93.4595C90.2998 93.1045 90.5226 92.5901 90.5226 92.0102V19.3074C90.5226 18.0612 89.5069 16.9166 88.2596 16.7571L29.4799 9.23753C28.8912 9.16217 28.3418 9.31835 27.9333 9.67877C27.5303 10.0337 27.3075 10.5481 27.3075 11.1281V74.3355C27.3075 74.5343 27.147 74.6948 26.9482 74.6948C26.7494 74.6948 26.5889 74.5332 26.5889 74.3355V11.1281C26.5889 10.3384 26.898 9.6318 27.4582 9.13814C28.0251 8.64011 28.7754 8.42167 29.5716 8.52325L88.3524 16.0429C89.947 16.2471 91.2434 17.7106 91.2434 19.3074V92.0102C91.2434 92.7998 90.9343 93.5064 90.3741 94.0001C89.899 94.4184 89.2939 94.639 88.6408 94.639H88.6397Z" fill="#263238"/>
<path d="M79.0452 40.6527C80.9604 38.8206 80.8895 35.6382 78.8868 33.5448C76.8841 31.4513 73.7081 31.2394 71.7929 33.0715C69.8777 34.9037 69.9486 38.086 71.9512 40.1795C73.9539 42.273 77.13 42.4848 79.0452 40.6527Z" fill="white"/>
<path d="M151.241 181.228C152.61 181.809 154.001 182.42 155.086 183.436C156.197 184.475 156.944 186.038 156.606 187.521C155.974 190.287 152.958 191.785 150.8 193.188C148.052 194.975 145.191 196.621 142.127 197.803C138.479 199.209 133.72 199.516 131.073 196.008C129.311 193.674 133.545 186.469 137.188 183.474C138.791 182.156 140.748 181.264 142.749 180.678C145.571 179.853 148.455 180.048 151.146 181.188C151.179 181.203 151.21 181.216 151.243 181.23L151.241 181.228Z" fill="#263238"/>
<path d="M131.058 188.786C132.16 188.617 133.069 188.103 133.958 187.031C135.112 185.639 135.823 184.057 136.817 182.572C138.508 180.046 140.634 179.262 143.646 179.409C146.057 179.527 148.455 179.939 150.767 180.635C151.879 180.97 153.017 181.399 153.8 182.257C154.012 182.489 154.201 182.823 154.057 183.102C153.983 183.243 153.841 183.331 153.708 183.417C151.739 184.676 150.322 186.606 149.689 188.833C149.16 190.69 147.915 192.272 146.47 193.54C143.611 196.046 139.502 197.761 135.654 197.349C134.124 197.186 132.658 196.688 131.137 196.47C129.646 196.257 128.129 196.314 126.628 196.356C123.369 196.445 120.112 196.619 116.852 196.704C110.624 196.868 104.396 197.014 98.1678 197.156C94.9469 197.229 91.725 197.301 88.5042 197.371C79.7504 197.371 71.7208 192.514 67.6557 184.762L59.59 169.378L68.8309 143.558C68.8309 143.558 83.2476 177.048 83.3207 177.22C84.0612 178.941 86.8583 180.262 88.4103 181.028C90.9998 182.305 93.7696 183.211 96.5459 183.981C102.893 185.742 109.438 186.794 115.967 187.601C120.543 188.166 125.152 188.638 129.76 188.844C130.223 188.864 130.652 188.849 131.055 188.787L131.058 188.786Z" fill="white"/>
<path d="M136.791 197.77C136.394 197.77 136.002 197.75 135.616 197.709C134.763 197.618 133.927 197.424 133.116 197.237C132.452 197.084 131.765 196.925 131.086 196.827C129.703 196.63 128.264 196.67 126.872 196.708L126.636 196.715C125.052 196.758 123.44 196.823 121.88 196.885C120.235 196.951 118.535 197.02 116.859 197.063C110.237 197.237 103.699 197.389 98.1743 197.515C94.9535 197.589 91.7316 197.662 88.5096 197.731C79.5855 197.731 71.475 192.826 67.3346 184.928L59.2688 169.544C59.2219 169.455 59.2153 169.35 59.2492 169.255L68.4901 143.435C68.5403 143.297 68.6692 143.202 68.8177 143.197C68.9608 143.186 69.1006 143.279 69.1596 143.415C69.1596 143.415 83.5763 176.905 83.6495 177.076C84.3091 178.61 86.8594 179.864 88.384 180.614L88.5686 180.705C90.7792 181.795 93.2682 182.698 96.642 183.634C102.098 185.148 108.072 186.261 116.011 187.243C121.422 187.913 125.796 188.306 129.776 188.483C130.237 188.503 130.637 188.486 131.002 188.431C132.054 188.27 132.879 187.768 133.68 186.802C134.376 185.962 134.9 185.065 135.453 184.112C135.788 183.539 136.133 182.947 136.516 182.372C138.184 179.88 140.32 178.886 143.662 179.05C146.109 179.169 148.533 179.586 150.87 180.291C152.031 180.64 153.221 181.091 154.064 182.015C154.453 182.442 154.567 182.899 154.374 183.269C154.259 183.492 154.065 183.616 153.909 183.716C152.021 184.923 150.648 186.774 150.033 188.932C149.539 190.665 148.42 192.307 146.705 193.811C143.854 196.311 140.153 197.769 136.789 197.769L136.791 197.77ZM128.601 195.958C129.463 195.958 130.33 195.993 131.189 196.115C131.898 196.217 132.6 196.378 133.279 196.536C134.068 196.718 134.883 196.906 135.694 196.993C139.154 197.364 143.193 195.938 146.234 193.271C147.843 191.86 148.891 190.334 149.345 188.736C150.008 186.408 151.489 184.413 153.516 183.116C153.612 183.054 153.711 182.991 153.739 182.939C153.78 182.859 153.695 182.676 153.536 182.501C152.81 181.707 151.727 181.301 150.665 180.981C148.385 180.294 146.018 179.887 143.631 179.77C140.533 179.619 138.647 180.488 137.117 182.773C136.746 183.328 136.406 183.91 136.077 184.474C135.532 185.409 134.97 186.375 134.236 187.26C133.315 188.371 132.352 188.952 131.113 189.141C130.701 189.204 130.255 189.222 129.747 189.201C125.748 189.023 121.357 188.627 115.925 187.956C107.949 186.969 101.944 185.85 96.453 184.326C93.0345 183.378 90.5061 182.46 88.2541 181.349L88.0706 181.258C86.4574 180.465 83.7587 179.137 82.9931 177.36C82.9264 177.205 71.0971 149.726 68.8636 144.538L59.9842 169.349L67.9768 184.594C71.9927 192.252 79.8585 197.011 88.5064 197.011C91.7195 196.942 94.9404 196.869 98.1623 196.796C103.685 196.67 110.224 196.518 116.844 196.345C118.514 196.301 120.212 196.233 121.854 196.167C123.414 196.104 125.029 196.04 126.619 195.995L126.854 195.989C127.43 195.972 128.015 195.956 128.602 195.956L128.601 195.958Z" fill="#263238"/>
<path d="M46.2785 125.466C46.2785 125.466 63.2597 127.716 68.8997 134.588C76.0425 143.291 79.1213 156.224 80.1217 161.812C80.4155 163.454 80.3806 165.137 80.018 166.764L79.603 168.631C78.1362 175.22 72.1259 179.787 65.385 179.437H65.7225C64.6325 179.381 63.0434 179.021 62.5825 178.032L60.799 174.777L60.6308 175.95C59.2896 184.611 66.2894 196.476 66.2894 196.476L46.2043 193.766C35.8854 192.729 26.0657 188.664 18.1878 181.918C13.9108 178.255 10.6027 174.829 9.17627 170.668C6.75383 163.601 6.97445 161.587 6.29511 153.015C5.83203 147.177 7.54565 141.346 11.2066 136.775C16.5867 130.059 26.9449 123.013 46.2796 125.466H46.2785Z" fill="#26AA9D"/>
<path d="M61.9501 178.195C61.8158 178.195 61.6869 178.119 61.6246 177.989L56.8682 168.001C56.783 167.822 56.8595 167.607 57.0386 167.522C57.2177 167.438 57.4329 167.513 57.5181 167.692L62.2745 177.68C62.3597 177.859 62.2832 178.075 62.1041 178.16C62.0539 178.184 62.0014 178.195 61.9501 178.195Z" fill="white"/>
<path d="M48.9402 91.4543L50.1874 90.6232C51.1878 89.9559 51.6094 88.69 51.1922 87.5618C49.9395 84.1772 45.372 78.2783 28.7579 82.7584C11.8171 87.327 14.8119 114.509 29.2439 120.318C43.6759 126.128 48.5776 96.2653 48.5776 96.2653L48.9402 91.4543Z" fill="#263238"/>
<path d="M46.8574 92.0769C47.0507 91.0405 48.4313 90.8122 48.9533 91.7285C50.2213 93.9533 50.8253 95.502 51.0273 96.4467C51.2993 97.7169 50.1198 98.9882 50.7554 100.35C51.391 101.712 52.3893 103.254 52.4799 105.705C52.5684 108.1 54.9974 119.074 46.4708 118.728C46.1366 118.715 45.8559 118.978 45.8603 119.314C45.881 120.985 45.9706 125.579 46.3419 128.066C46.544 129.422 45.6997 130.71 44.3804 131.083C40.9673 132.047 34.612 133.404 29.8555 131.857C28.6192 131.455 27.9705 130.1 28.4106 128.877C28.9731 127.316 29.7583 122.929 29.2439 120.318C29.2439 120.318 32.0923 120.038 35.2629 118.583C40.1373 116.346 42.5357 110.902 41.189 105.711C40.8996 104.594 40.2727 103.007 40.9258 101.325C42.61 96.9884 45.1285 101.347 45.1285 101.347L46.8585 92.0758L46.8574 92.0769Z" fill="white"/>
<path d="M34.8708 132.915C33.0982 132.915 31.3354 132.717 29.7441 132.199C29.0583 131.976 28.5056 131.495 28.1867 130.845C27.8645 130.187 27.8241 129.445 28.072 128.755C28.6137 127.253 29.3936 122.937 28.8912 120.388L28.8147 119.999L29.209 119.96C29.2374 119.958 32.0388 119.666 35.1133 118.255C39.7528 116.127 42.1611 110.888 40.8406 105.8C40.8024 105.652 40.7576 105.495 40.7118 105.333C40.4038 104.248 39.9822 102.762 40.5905 101.195C41.1191 99.8346 41.8083 99.1127 42.6395 99.0493C43.5896 98.9805 44.4241 99.7876 44.9341 100.432L46.5047 92.0114C46.6204 91.3899 47.0977 90.9214 47.7203 90.8165C48.345 90.7117 48.9522 91 49.2657 91.5505C50.6975 94.0636 51.2054 95.5587 51.379 96.3713C51.5177 97.0201 51.3386 97.6382 51.1661 98.2357C50.9695 98.9161 50.7827 99.5594 51.0809 100.198C51.1857 100.422 51.2993 100.652 51.4184 100.889C52.0158 102.084 52.7606 103.572 52.8393 105.692C52.8502 105.98 52.8983 106.423 52.955 106.935C53.2543 109.652 53.8113 114.711 51.3168 117.385C50.1831 118.599 48.5481 119.17 46.4555 119.087C46.3922 119.085 46.3299 119.107 46.284 119.152C46.2589 119.176 46.2174 119.228 46.2185 119.308C46.2404 121.113 46.3321 125.575 46.6958 128.013C46.923 129.538 45.9695 131.007 44.4765 131.429C42.1786 132.078 38.5056 132.917 34.8697 132.917L34.8708 132.915ZM29.6611 120.627C30.0587 123.358 29.3029 127.46 28.7481 128.998C28.5668 129.502 28.5963 130.045 28.8322 130.527C29.0648 131.001 29.4667 131.351 29.9659 131.514C34.6404 133.035 40.9411 131.679 44.2821 130.736C45.4278 130.412 46.1595 129.287 45.9859 128.118C45.6156 125.636 45.5228 121.135 45.501 119.316C45.4977 119.057 45.5982 118.814 45.7838 118.634C45.9695 118.454 46.2229 118.358 46.4861 118.367C48.3592 118.445 49.8074 117.946 50.7925 116.892C53.0621 114.46 52.528 109.615 52.2419 107.012C52.1818 106.464 52.1337 106.032 52.1217 105.717C52.0485 103.752 51.3736 102.401 50.7773 101.209C50.656 100.965 50.5381 100.73 50.431 100.501C50.0182 99.6173 50.2617 98.7763 50.4769 98.0336C50.632 97.4984 50.7783 96.9917 50.6779 96.5209C50.5446 95.8962 50.1023 94.4666 48.6431 91.9054C48.4455 91.5581 48.1003 91.4806 47.8415 91.5242C47.5859 91.5668 47.2856 91.7525 47.2135 92.1413L45.3055 102.366L44.8183 101.526C44.5213 101.013 43.5623 99.7025 42.6952 99.7647C42.0333 99.816 41.5506 100.712 41.2622 101.454C40.7413 102.797 41.1093 104.093 41.4053 105.135C41.4534 105.304 41.4992 105.466 41.5385 105.619C42.9464 111.046 40.371 116.634 35.4147 118.908C32.8678 120.077 30.5535 120.499 29.6633 120.626L29.6611 120.627Z" fill="#263238"/>
<path d="M21.9373 88.2521C21.9373 88.2521 13.6007 84.2733 7.53807 89.957C1.4754 95.6406 -4.39831 108.145 4.69623 121.786C10.4116 130.359 12.6101 137.136 13.4544 140.989C13.7372 142.279 15.4279 142.602 16.1597 141.503C19.8196 136.01 26.4971 123.891 23.2632 112.504C18.9054 97.1577 21.9373 88.2521 21.9373 88.2521Z" fill="#263238"/>
<path d="M43.9446 108.84C43.7611 108.84 43.5656 108.819 43.3614 108.767C42.3915 108.527 41.5626 107.704 40.8963 106.323C40.81 106.144 40.8854 105.929 41.0645 105.843C41.2425 105.756 41.4588 105.831 41.5451 106.011C42.1141 107.19 42.7836 107.883 43.535 108.07C44.3356 108.268 44.9592 107.818 44.9647 107.814C45.1252 107.696 45.3502 107.73 45.4671 107.89C45.585 108.05 45.5501 108.276 45.3906 108.393C45.3611 108.415 44.7725 108.838 43.9435 108.838L43.9446 108.84Z" fill="#263238"/>
<path d="M19.8425 87.5017C19.8425 87.5017 27.5882 89.8346 24.4177 97.2635C24.4177 97.2635 27.9967 94.6816 27.9061 90.6504C27.8154 86.6192 24.8261 85.3053 22.8329 85.3501C20.8397 85.3949 19.8436 87.5017 19.8436 87.5017H19.8425Z" fill="white"/>
<path d="M23.5788 98.312L24.0867 97.1216C24.979 95.0312 25.0565 93.169 24.3171 91.5875C23.0458 88.8691 19.7715 87.8556 19.7387 87.8457L19.339 87.7256L19.5181 87.3477C19.5629 87.2538 20.6343 85.0399 22.8252 84.9897C24.0692 84.9613 25.3449 85.3993 26.3114 86.1922C27.1732 86.8988 28.2118 88.2444 28.2664 90.6406C28.3604 94.8138 24.7813 97.4438 24.6295 97.5541L23.5799 98.311L23.5788 98.312ZM20.37 87.3073C21.3661 87.6939 23.8366 88.8615 24.9691 91.2839C25.6299 92.6972 25.7173 94.2907 25.2335 96.036C26.235 94.9776 27.6013 93.0816 27.5467 90.6592C27.5085 88.9783 26.9241 87.6273 25.8549 86.7503C25.0314 86.0753 23.9032 85.6887 22.8416 85.7105C21.5616 85.74 20.7293 86.7558 20.3711 87.3073H20.37Z" fill="#263238"/>
<path d="M5.07191 151.008C11.4644 154.873 24.4657 160.38 45.3906 159.103C46.9295 159.009 48.3515 159.921 48.8954 161.363L50.2006 166.587C52.4952 175.772 56.8115 184.331 62.8338 191.636L65.9596 195.428C66.4412 196.011 65.988 196.887 65.2333 196.833L51.4369 195.819C27.7564 192.687 9.35869 180.81 3.45767 159.172L1.88385 153.401C1.37271 151.528 3.40962 150.003 5.07191 151.007V151.008Z" fill="white"/>
<path d="M65.4746 197.209C65.4451 197.209 65.4156 197.207 65.3862 197.205L62.1271 196.966C61.9294 196.952 61.7798 196.779 61.7951 196.581C61.8093 196.383 61.9797 196.235 62.1806 196.248L65.4397 196.488C65.6974 196.508 65.8165 196.318 65.846 196.261C65.8765 196.203 65.9617 195.997 65.7968 195.797L62.5563 191.867C56.5385 184.567 52.1446 175.855 49.8511 166.676L48.5514 161.473C48.0577 160.185 46.8006 159.382 45.4125 159.463C43.3308 159.59 41.3234 159.65 39.3957 159.65C21.5343 159.65 10.2663 154.569 4.88624 151.318C4.11735 150.852 3.34299 151.065 2.87445 151.419C2.41028 151.77 1.99634 152.451 2.23116 153.31L3.80498 159.081C9.02776 178.233 24.802 190.979 48.2205 194.972C48.416 195.005 48.5481 195.191 48.5143 195.387C48.4804 195.582 48.2947 195.714 48.0992 195.681C36.6532 193.729 27.0017 189.751 19.4133 183.858C11.3344 177.583 5.84954 169.31 3.11036 159.27L1.53654 153.499C1.26131 152.491 1.60753 151.474 2.44086 150.845C3.27856 150.212 4.35762 150.158 5.25758 150.702C11.1466 154.26 24.1882 160.037 45.3677 158.744C47.0737 158.639 48.63 159.642 49.2307 161.238C49.2362 161.251 49.2395 161.264 49.2427 161.277L50.5479 166.501C52.8152 175.577 57.1599 184.19 63.1101 191.408L66.3506 195.339C66.6465 195.698 66.6979 196.178 66.4838 196.59C66.2839 196.977 65.9028 197.207 65.4735 197.207L65.4746 197.209Z" fill="#263238"/>
<path d="M183.73 164.324C183.531 164.324 183.37 164.163 183.37 163.965V162.105C183.37 161.906 183.531 161.746 183.73 161.746C183.929 161.746 184.089 161.907 184.089 162.105V163.965C184.089 164.164 183.929 164.324 183.73 164.324Z" fill="#F8931F"/>
<path d="M183.73 168.658C183.531 168.658 183.37 168.496 183.37 168.299V166.439C183.37 166.24 183.531 166.079 183.73 166.079C183.929 166.079 184.089 166.241 184.089 166.439V168.299C184.089 168.497 183.929 168.658 183.73 168.658Z" fill="#F8931F"/>
<path d="M182.493 165.561H180.633C180.435 165.561 180.274 165.399 180.274 165.201C180.274 165.003 180.435 164.842 180.633 164.842H182.493C182.692 164.842 182.853 165.003 182.853 165.201C182.853 165.399 182.692 165.561 182.493 165.561Z" fill="#F8931F"/>
<path d="M186.827 165.561H184.967C184.768 165.561 184.608 165.399 184.608 165.201C184.608 165.003 184.768 164.842 184.967 164.842H186.827C187.026 164.842 187.187 165.003 187.187 165.201C187.187 165.399 187.026 165.561 186.827 165.561Z" fill="#F8931F"/>
<path d="M106.955 86.4259C106.757 86.4259 106.596 86.2642 106.596 86.0665V84.2066C106.596 84.0078 106.757 83.8472 106.955 83.8472C107.154 83.8472 107.315 84.0089 107.315 84.2066V86.0665C107.315 86.2653 107.154 86.4259 106.955 86.4259Z" fill="#F8931F"/>
<path d="M106.955 90.7597C106.757 90.7597 106.596 90.598 106.596 90.4003V88.5404C106.596 88.3416 106.757 88.181 106.955 88.181C107.154 88.181 107.315 88.3427 107.315 88.5404V90.4003C107.315 90.5991 107.154 90.7597 106.955 90.7597Z" fill="#F8931F"/>
<path d="M105.719 87.6623H103.859C103.66 87.6623 103.5 87.5006 103.5 87.3029C103.5 87.1052 103.66 86.9436 103.859 86.9436H105.719C105.918 86.9436 106.078 87.1052 106.078 87.3029C106.078 87.5006 105.918 87.6623 105.719 87.6623Z" fill="#F8931F"/>
<path d="M110.053 87.6623H108.193C107.994 87.6623 107.833 87.5006 107.833 87.3029C107.833 87.1052 107.994 86.9436 108.193 86.9436H110.053C110.252 86.9436 110.412 87.1052 110.412 87.3029C110.412 87.5006 110.252 87.6623 110.053 87.6623Z" fill="#F8931F"/>
<path d="M152.12 48.6246C151.928 48.6246 151.768 48.4728 151.761 48.2795C151.753 48.0807 151.907 47.9136 152.106 47.906C152.584 47.8863 153.07 47.8732 153.552 47.8645C153.749 47.8557 153.915 48.0196 153.918 48.2183C153.921 48.4171 153.763 48.5809 153.564 48.5842C153.088 48.5929 152.607 48.6061 152.134 48.6257C152.129 48.6257 152.124 48.6257 152.12 48.6257V48.6246Z" fill="#26AA9D"/>
<path d="M144.131 138.253C143.933 138.253 143.773 138.093 143.772 137.896C143.77 137.697 143.931 137.535 144.129 137.534C145.091 137.529 146.061 137.497 147.009 137.441C147.203 137.43 147.377 137.581 147.389 137.779C147.401 137.978 147.249 138.148 147.05 138.159C146.089 138.216 145.107 138.247 144.133 138.253H144.131ZM141.231 138.193C141.226 138.193 141.22 138.193 141.214 138.193C140.247 138.148 139.269 138.076 138.303 137.981C138.105 137.961 137.961 137.785 137.981 137.588C138.001 137.39 138.175 137.244 138.374 137.265C139.328 137.359 140.294 137.43 141.249 137.475C141.447 137.484 141.6 137.653 141.592 137.851C141.583 138.043 141.423 138.194 141.232 138.194L141.231 138.193ZM149.918 137.911C149.738 137.911 149.582 137.775 149.561 137.592C149.538 137.394 149.68 137.216 149.878 137.194C150.832 137.086 151.793 136.95 152.73 136.79C152.925 136.758 153.112 136.889 153.145 137.084C153.178 137.28 153.046 137.466 152.851 137.499C151.901 137.661 150.928 137.799 149.96 137.909C149.946 137.911 149.933 137.911 149.918 137.911ZM135.46 137.623C135.443 137.623 135.424 137.621 135.406 137.618C134.445 137.473 133.479 137.3 132.532 137.107C132.338 137.068 132.212 136.877 132.251 136.682C132.291 136.488 132.48 136.362 132.676 136.402C133.611 136.593 134.566 136.763 135.514 136.906C135.71 136.936 135.846 137.119 135.815 137.316C135.788 137.494 135.635 137.621 135.46 137.621V137.623ZM155.634 136.935C155.47 136.935 155.321 136.822 155.283 136.655C155.238 136.462 155.36 136.268 155.553 136.224C156.489 136.008 157.426 135.764 158.338 135.495C158.529 135.439 158.729 135.549 158.785 135.739C158.84 135.93 158.731 136.13 158.541 136.185C157.615 136.457 156.664 136.705 155.715 136.925C155.687 136.931 155.66 136.933 155.634 136.933V136.935ZM129.779 136.458C129.749 136.458 129.719 136.455 129.688 136.447C128.75 136.204 127.806 135.932 126.882 135.639C126.693 135.579 126.588 135.377 126.647 135.188C126.707 134.999 126.909 134.894 127.1 134.954C128.011 135.243 128.943 135.511 129.869 135.752C130.062 135.802 130.177 135.999 130.127 136.191C130.084 136.352 129.939 136.46 129.779 136.46V136.458ZM161.198 135.307C161.05 135.307 160.911 135.215 160.86 135.067C160.793 134.879 160.891 134.674 161.079 134.608C161.984 134.288 162.887 133.941 163.766 133.574C163.949 133.497 164.16 133.584 164.237 133.767C164.313 133.951 164.227 134.161 164.043 134.238C163.152 134.61 162.236 134.963 161.32 135.286C161.28 135.301 161.24 135.307 161.199 135.307H161.198ZM124.25 134.705C124.207 134.705 124.165 134.698 124.123 134.682C123.214 134.34 122.304 133.968 121.42 133.578C121.239 133.499 121.156 133.286 121.237 133.104C121.316 132.923 121.529 132.84 121.711 132.921C122.582 133.305 123.48 133.672 124.378 134.011C124.563 134.081 124.657 134.288 124.588 134.474C124.533 134.618 124.396 134.706 124.251 134.706L124.25 134.705ZM166.547 133.074C166.413 133.074 166.286 132.999 166.223 132.872C166.136 132.692 166.211 132.477 166.389 132.391C167.253 131.972 168.111 131.523 168.941 131.059C169.114 130.961 169.334 131.024 169.43 131.197C169.527 131.371 169.465 131.589 169.292 131.687C168.451 132.157 167.58 132.613 166.704 133.039C166.654 133.064 166.6 133.075 166.547 133.075V133.074ZM118.944 132.363C118.89 132.363 118.833 132.35 118.78 132.323C117.912 131.88 117.05 131.408 116.218 130.92C116.047 130.819 115.989 130.599 116.089 130.427C116.19 130.256 116.41 130.199 116.582 130.3C117.402 130.78 118.252 131.245 119.108 131.682C119.285 131.773 119.355 131.989 119.265 132.166C119.202 132.291 119.075 132.363 118.944 132.363ZM171.602 130.241C171.483 130.241 171.368 130.182 171.299 130.075C171.192 129.907 171.241 129.685 171.408 129.578C172.213 129.062 173.012 128.516 173.783 127.955C173.944 127.838 174.169 127.873 174.286 128.033C174.403 128.194 174.368 128.419 174.207 128.536C173.424 129.106 172.613 129.66 171.796 130.184C171.736 130.222 171.669 130.241 171.602 130.241ZM113.943 129.429C113.874 129.429 113.804 129.409 113.743 129.368C112.934 128.825 112.133 128.253 111.367 127.667C111.208 127.547 111.179 127.321 111.299 127.163C111.419 127.004 111.645 126.975 111.804 127.095C112.559 127.672 113.347 128.235 114.144 128.771C114.309 128.881 114.353 129.105 114.242 129.27C114.174 129.373 114.059 129.429 113.943 129.429ZM176.288 126.829C176.184 126.829 176.081 126.784 176.01 126.698C175.884 126.545 175.906 126.317 176.06 126.191C176.795 125.585 177.522 124.947 178.22 124.297C178.365 124.162 178.592 124.169 178.729 124.316C178.864 124.461 178.857 124.689 178.71 124.824C178.001 125.485 177.263 126.132 176.517 126.747C176.451 126.802 176.369 126.829 176.289 126.829H176.288ZM109.339 125.908C109.254 125.908 109.17 125.878 109.103 125.819C108.379 125.188 107.67 124.53 106.996 123.86L106.962 123.826C106.821 123.685 106.821 123.458 106.962 123.317C107.103 123.176 107.33 123.176 107.471 123.317L107.503 123.349C108.166 124.008 108.863 124.656 109.576 125.277C109.725 125.407 109.74 125.634 109.611 125.784C109.54 125.866 109.439 125.908 109.34 125.908H109.339ZM180.524 122.884C180.435 122.884 180.346 122.851 180.276 122.784C180.132 122.648 180.127 122.419 180.264 122.275C180.922 121.585 181.567 120.864 182.184 120.134C182.312 119.982 182.539 119.962 182.691 120.091C182.843 120.219 182.863 120.446 182.734 120.598C182.108 121.339 181.452 122.071 180.785 122.771C180.714 122.845 180.619 122.883 180.524 122.883V122.884ZM105.221 121.829C105.123 121.829 105.024 121.788 104.953 121.71C104.324 121.008 103.688 120.261 103.061 119.49C102.935 119.336 102.959 119.109 103.113 118.985C103.267 118.859 103.494 118.883 103.619 119.037C104.239 119.8 104.868 120.538 105.49 121.23C105.622 121.379 105.61 121.606 105.462 121.738C105.394 121.799 105.308 121.83 105.222 121.83L105.221 121.829ZM184.263 118.458C184.188 118.458 184.112 118.435 184.048 118.386C183.888 118.267 183.857 118.042 183.976 117.883C184.546 117.12 185.104 116.327 185.632 115.528C185.742 115.362 185.966 115.316 186.13 115.426C186.296 115.536 186.341 115.759 186.232 115.924C185.696 116.736 185.13 117.54 184.551 118.313C184.48 118.407 184.372 118.457 184.263 118.457V118.458ZM101.557 117.334C101.448 117.334 101.339 117.284 101.268 117.19C100.716 116.451 100.141 115.656 99.5636 114.83C99.45 114.667 99.4893 114.443 99.6521 114.329C99.8148 114.215 100.039 114.254 100.153 114.417C100.727 115.237 101.296 116.025 101.844 116.759C101.963 116.918 101.93 117.143 101.772 117.262C101.708 117.31 101.632 117.334 101.557 117.334ZM187.462 113.623C187.401 113.623 187.338 113.608 187.281 113.574C187.109 113.474 187.051 113.254 187.151 113.083C187.63 112.26 188.094 111.409 188.531 110.553C188.622 110.376 188.838 110.306 189.015 110.396C189.192 110.486 189.262 110.703 189.172 110.88C188.73 111.748 188.259 112.611 187.773 113.444C187.706 113.559 187.586 113.623 187.462 113.623ZM98.2268 112.587C98.1099 112.587 97.9963 112.53 97.9264 112.426C97.4361 111.689 96.9162 110.893 96.3373 109.994C96.2303 109.827 96.2784 109.604 96.4455 109.497C96.6126 109.39 96.8354 109.438 96.9424 109.605C97.5191 110.501 98.0368 111.294 98.525 112.029C98.6353 112.193 98.5905 112.417 98.4245 112.528C98.3633 112.568 98.2945 112.588 98.2257 112.588L98.2268 112.587ZM190.099 108.456C190.05 108.456 190.001 108.446 189.954 108.425C189.773 108.345 189.691 108.133 189.771 107.951C190.157 107.079 190.526 106.182 190.868 105.284C190.939 105.099 191.147 105.005 191.333 105.077C191.518 105.148 191.611 105.355 191.541 105.541C191.195 106.451 190.82 107.36 190.428 108.243C190.369 108.377 190.237 108.457 190.099 108.457V108.456ZM95.0813 107.712C94.9623 107.712 94.8454 107.653 94.7766 107.545L94.2655 106.738C93.9193 106.19 93.5719 105.643 93.2246 105.095C93.1176 104.927 93.1678 104.706 93.3349 104.598C93.5031 104.491 93.7248 104.542 93.8319 104.709C94.1803 105.256 94.5265 105.804 94.8738 106.353L95.3849 107.16C95.4909 107.328 95.4417 107.55 95.2736 107.657C95.2135 107.695 95.1469 107.712 95.0813 107.712ZM192.168 103.031C192.131 103.031 192.094 103.026 192.058 103.014C191.869 102.953 191.765 102.751 191.826 102.56C192.119 101.654 192.393 100.723 192.641 99.7962C192.692 99.604 192.89 99.4915 193.081 99.5417C193.273 99.593 193.387 99.7907 193.336 99.9819C193.084 100.921 192.806 101.863 192.51 102.781C192.461 102.933 192.32 103.03 192.168 103.03V103.031ZM91.9643 102.819C91.8463 102.819 91.7305 102.761 91.6617 102.656C91.0883 101.771 90.5663 100.98 90.0672 100.24C89.9557 100.075 89.9994 99.8508 90.1644 99.7405C90.3293 99.6291 90.5532 99.6728 90.6635 99.8377C91.1648 100.581 91.689 101.375 92.2646 102.263C92.3727 102.431 92.3247 102.653 92.1587 102.761C92.0986 102.801 92.0309 102.819 91.9632 102.819H91.9643ZM88.7161 98.0127C88.6036 98.0127 88.4933 97.9602 88.4223 97.862C87.8446 97.0494 87.2679 96.2674 86.7098 95.5367C86.5897 95.3783 86.6192 95.1534 86.7775 95.0321C86.9359 94.912 87.1609 94.9415 87.2821 95.0998C87.8457 95.8371 88.4267 96.6256 89.0099 97.4447C89.1246 97.6064 89.0875 97.8314 88.9258 97.9461C88.8625 97.9908 88.7893 98.0127 88.7172 98.0127H88.7161ZM193.67 97.4316C193.645 97.4316 193.62 97.4295 193.593 97.424C193.399 97.3825 193.275 97.1903 193.317 96.997C193.518 96.0653 193.699 95.113 193.857 94.1649C193.889 93.9694 194.074 93.8373 194.27 93.869C194.466 93.9017 194.599 94.0863 194.566 94.2829C194.407 95.2418 194.223 96.2062 194.02 97.1488C193.984 97.317 193.835 97.4327 193.669 97.4327L193.67 97.4316ZM85.1775 93.4179C85.0759 93.4179 84.9743 93.3753 84.9034 93.2912C84.2775 92.554 83.6299 91.8332 82.9778 91.1484C82.8413 91.0042 82.8468 90.777 82.991 90.6394C83.1351 90.5029 83.3623 90.5083 83.4999 90.6525C84.1607 91.3471 84.8171 92.0778 85.4516 92.8259C85.5805 92.9777 85.5619 93.2038 85.4101 93.3327C85.3424 93.3906 85.2594 93.4179 85.1775 93.4179ZM194.62 91.7119C194.606 91.7119 194.592 91.7119 194.577 91.7097C194.38 91.6868 194.239 91.5077 194.262 91.31C194.374 90.362 194.465 89.3965 194.535 88.4387C194.549 88.2399 194.723 88.0925 194.919 88.1056C195.117 88.1198 195.267 88.2923 195.252 88.49C195.182 89.4588 195.09 90.4352 194.977 91.3941C194.955 91.5765 194.8 91.7119 194.62 91.7119ZM81.1758 89.2185C81.0884 89.2185 80.9999 89.1868 80.9311 89.1224C80.2223 88.4627 79.4916 87.8271 78.7621 87.2318C78.6081 87.1062 78.5851 86.8801 78.7096 86.7261C78.8352 86.5721 79.0613 86.5481 79.2153 86.6737C79.958 87.2777 80.6996 87.9243 81.4204 88.5949C81.5657 88.7303 81.5744 88.9575 81.439 89.1038C81.368 89.1803 81.2719 89.2185 81.1758 89.2185ZM195.037 85.9278C195.037 85.9278 195.031 85.9278 195.027 85.9278C194.829 85.9223 194.672 85.7574 194.678 85.5586C194.685 85.2943 194.691 85.0289 194.694 84.7635C194.697 84.5167 194.7 84.2687 194.7 84.0208C194.7 83.573 194.693 83.1209 194.681 82.6775C194.676 82.4787 194.832 82.3138 195.031 82.3083C195.034 82.3083 195.037 82.3083 195.04 82.3083C195.235 82.3083 195.394 82.4634 195.4 82.6578C195.412 83.1078 195.418 83.5665 195.418 84.0208C195.418 84.272 195.416 84.5232 195.413 84.7733C195.408 85.042 195.403 85.3096 195.395 85.5772C195.39 85.7727 195.23 85.9267 195.036 85.9267L195.037 85.9278ZM76.6738 85.5641C76.6028 85.5641 76.5307 85.5433 76.4685 85.4996C75.6756 84.9448 74.863 84.4227 74.0526 83.9477C73.8811 83.8472 73.8232 83.6266 73.9237 83.4551C74.0242 83.2836 74.2448 83.2268 74.4163 83.3273C75.2431 83.8122 76.072 84.3452 76.8802 84.9099C77.043 85.0234 77.0823 85.2484 76.9687 85.4112C76.8988 85.5116 76.7874 85.5652 76.6738 85.5652V85.5641ZM71.6727 82.637C71.6214 82.637 71.5679 82.6261 71.5188 82.6021C70.6505 82.1893 69.7625 81.8157 68.8779 81.4914C68.6911 81.4225 68.5961 81.2161 68.6638 81.0304C68.7326 80.8437 68.939 80.7476 69.1258 80.8164C70.0312 81.1484 70.9399 81.5307 71.8289 81.9533C72.008 82.0385 72.0845 82.2537 71.9993 82.4328C71.9381 82.5628 71.8082 82.6381 71.6738 82.6381L71.6727 82.637ZM66.2348 80.6515C66.2053 80.6515 66.1747 80.6482 66.1453 80.6405C65.2213 80.4025 64.2787 80.2102 63.3416 80.0682C63.145 80.0388 63.0096 79.8553 63.0402 79.6587C63.0697 79.4621 63.2554 79.3288 63.4498 79.3572C64.4109 79.5025 65.3785 79.7002 66.3255 79.9448C66.5177 79.994 66.6335 80.1906 66.5843 80.3828C66.5428 80.5444 66.3965 80.6526 66.2359 80.6526L66.2348 80.6515ZM194.869 80.1316C194.685 80.1316 194.528 79.9918 194.511 79.8039C194.423 78.8406 194.304 77.8795 194.156 76.9501C194.124 76.7546 194.258 76.57 194.455 76.5383C194.651 76.5067 194.835 76.641 194.867 76.8376C195.018 77.7834 195.139 78.7598 195.227 79.7395C195.246 79.9372 195.099 80.1119 194.902 80.1305C194.891 80.1305 194.88 80.1316 194.869 80.1316ZM193.953 74.4075C193.79 74.4075 193.641 74.2961 193.603 74.1301C193.383 73.1886 193.125 72.257 192.838 71.3625C192.776 71.1736 192.881 70.9704 193.07 70.9104C193.259 70.8492 193.462 70.9541 193.522 71.143C193.815 72.0561 194.077 73.0052 194.303 73.9652C194.349 74.1585 194.229 74.3518 194.036 74.3977C194.008 74.4042 193.98 74.4075 193.953 74.4075ZM192.178 68.892C192.037 68.892 191.904 68.809 191.846 68.6714C191.473 67.7813 191.059 66.9097 190.617 66.0819C190.523 65.906 190.59 65.6887 190.765 65.5947C190.939 65.5008 191.158 65.5674 191.252 65.7422C191.704 66.5897 192.128 67.482 192.509 68.3918C192.585 68.5753 192.499 68.7861 192.317 68.8625C192.271 68.8811 192.224 68.8909 192.178 68.8909V68.892ZM189.444 63.7861C189.328 63.7861 189.215 63.7304 189.145 63.6266C189.055 63.4934 188.965 63.3602 188.872 63.228C188.42 62.5803 187.935 61.9436 187.429 61.3364C187.302 61.1835 187.323 60.9563 187.475 60.8296C187.628 60.7018 187.855 60.7226 187.982 60.8766C188.501 61.5002 188.999 62.1522 189.462 62.8173C189.557 62.9528 189.649 63.0893 189.741 63.2269C189.852 63.3918 189.808 63.6157 189.643 63.726C189.582 63.7675 189.512 63.7872 189.443 63.7872L189.444 63.7861ZM185.742 59.3344C185.651 59.3344 185.559 59.3005 185.489 59.2317C184.818 58.5721 184.098 57.931 183.352 57.327C183.198 57.2014 183.174 56.9753 183.298 56.8213C183.423 56.6673 183.65 56.6433 183.804 56.7678C184.569 57.386 185.305 58.0424 185.993 58.7184C186.135 58.8571 186.137 59.0854 185.997 59.2274C185.926 59.2994 185.833 59.3355 185.741 59.3355L185.742 59.3344ZM181.244 55.6876C181.175 55.6876 181.105 55.668 181.044 55.6265C180.263 55.1033 179.44 54.6009 178.594 54.1324C178.421 54.0363 178.359 53.8167 178.455 53.6431C178.551 53.4694 178.77 53.4061 178.944 53.5033C179.807 53.9817 180.649 54.495 181.445 55.029C181.61 55.1394 181.655 55.3633 181.543 55.5282C181.475 55.6319 181.36 55.6876 181.244 55.6876ZM176.179 52.8709C176.128 52.8709 176.077 52.86 176.029 52.8381C175.174 52.4461 174.28 52.0758 173.373 51.7351C173.187 51.6652 173.092 51.4576 173.162 51.272C173.232 51.0863 173.439 50.9924 173.625 51.0612C174.548 51.4074 175.458 51.7853 176.328 52.1839C176.508 52.2669 176.588 52.4799 176.505 52.6612C176.445 52.7934 176.314 52.8709 176.177 52.8709H176.179ZM170.75 50.8296C170.716 50.8296 170.681 50.8253 170.647 50.8143C169.742 50.5413 168.806 50.289 167.866 50.0651C167.673 50.0192 167.554 49.8248 167.6 49.6315C167.645 49.4382 167.839 49.3192 168.033 49.365C168.988 49.5922 169.937 49.8478 170.855 50.1263C171.045 50.1842 171.153 50.384 171.096 50.5741C171.049 50.7292 170.906 50.8296 170.752 50.8296H170.75ZM165.108 49.4819C165.088 49.4819 165.066 49.4797 165.044 49.4764C164.113 49.3082 163.154 49.1619 162.194 49.0407C161.998 49.0155 161.858 48.8353 161.882 48.6387C161.907 48.4411 162.087 48.3023 162.284 48.3264C163.256 48.4498 164.227 48.5972 165.171 48.7676C165.366 48.8026 165.496 48.9893 165.461 49.1859C165.429 49.3596 165.279 49.4819 165.107 49.4819H165.108ZM159.354 48.7512C159.345 48.7512 159.335 48.7512 159.326 48.7512C158.377 48.6791 157.408 48.6278 156.446 48.5994C156.247 48.594 156.091 48.4279 156.097 48.2292C156.102 48.0304 156.265 47.8688 156.467 47.8797C157.44 47.9081 158.421 47.9594 159.381 48.0326C159.579 48.0479 159.727 48.2204 159.712 48.4192C159.698 48.6082 159.539 48.7512 159.354 48.7512Z" fill="#F8931F"/>
<path d="M60.4812 79.7854C60.4757 79.7854 60.4703 79.7854 60.4648 79.7854C59.9908 79.7646 59.5124 79.7548 59.0439 79.757H59.0417C58.844 79.757 58.6835 79.5975 58.6824 79.3999C58.6813 79.2011 58.8418 79.0394 59.0395 79.0383C59.5212 79.0362 60.0105 79.0449 60.4965 79.0678C60.6953 79.0766 60.8482 79.2448 60.8394 79.4435C60.8307 79.6369 60.6712 79.7876 60.4801 79.7876L60.4812 79.7854Z" fill="#26AA9D"/>
<path d="M179.852 148.702C179.814 148.702 179.777 148.701 179.739 148.699C179.244 148.668 178.792 148.448 178.465 148.078C178.137 147.707 177.973 147.232 178.004 146.738C178.034 146.244 178.254 145.792 178.625 145.465C178.995 145.137 179.468 144.974 179.965 145.003C180.984 145.066 181.762 145.944 181.7 146.964C181.64 147.944 180.822 148.703 179.852 148.703V148.702ZM179.85 145.721C179.575 145.721 179.311 145.821 179.103 146.005C178.877 146.205 178.743 146.481 178.724 146.782C178.686 147.403 179.161 147.94 179.783 147.978C180.403 148.017 180.942 147.541 180.981 146.919C181.019 146.297 180.543 145.761 179.922 145.724C179.898 145.723 179.875 145.721 179.851 145.721H179.85Z" fill="#F8931F"/>
</svg>
