<svg width="200" height="200" viewBox="0 0 200 200" fill="none" xmlns="http://www.w3.org/2000/svg">
<g clip-path="url(#clip0_2001_58)">
<g opacity="0.3">
<path d="M137.712 0.492676C137.948 0.492676 138.216 0.578553 138.501 0.741269C138.372 0.894945 138.229 1.09382 138.091 1.35597C137.926 1.26105 137.788 1.21586 137.69 1.21586C136.816 1.21586 135.371 5.32442 134.341 12.1359C134.27 12.5833 134.207 13.0399 134.14 13.5099L133.333 13.6636C133.387 13.2749 133.454 12.8139 133.534 12.2941C133.735 11.0195 133.998 9.40587 134.337 7.7968C135.688 1.32433 136.847 0.492676 137.712 0.492676Z" stroke="#263238" stroke-linecap="round" stroke-linejoin="round"/>
<path d="M146.193 11.0149L145.408 11.1279C145.145 10.6759 145.047 10.5087 144.797 10.0884C142.042 5.4826 139.968 2.91079 138.733 1.83506C138.876 1.54127 139.019 1.32431 139.152 1.19324C141.186 2.85655 143.91 7.10524 145.596 9.92564C145.89 10.4183 145.97 10.6307 146.189 11.0149H146.193Z" stroke="#263238" stroke-linecap="round" stroke-linejoin="round"/>
<path d="M130.114 15.7653L132.245 56.1504L166.838 49.0813L153.002 11.3855L130.114 15.7653Z" stroke="#263238" stroke-linecap="round" stroke-linejoin="round"/>
<path d="M148.32 12.276L147.509 12.4296C147.241 11.9189 146.978 11.4398 146.724 10.9697C142.786 3.80571 140.218 1.03954 139.465 1.0305C139.366 1.0305 139.259 1.08474 139.157 1.19774C139.023 1.32882 138.88 1.54125 138.738 1.83956C137.931 3.45768 136.972 7.42613 136.276 13.085C136.209 13.5777 136.156 14.0839 136.098 14.6037L135.291 14.7619C135.34 14.337 135.398 13.8263 135.469 13.2477C135.652 11.8375 135.893 10.0567 136.205 8.27587C136.874 4.47013 137.516 2.43167 138.096 1.36046C138.234 1.0983 138.372 0.899428 138.506 0.745752C138.858 0.329923 139.184 0.225966 139.478 0.230486C141.435 0.257605 145.328 6.81143 147.526 10.8115C147.83 11.3584 148.097 11.8511 148.32 12.2805V12.276Z" stroke="#263238" stroke-linecap="round" stroke-linejoin="round"/>
<path d="M132.901 14.9924L127.447 14.8613L127.042 54.0803L132.245 56.1504" stroke="#263238" stroke-linecap="round" stroke-linejoin="round"/>
<path d="M127.042 54.0803L131.657 49.2892" stroke="#263238" stroke-linecap="round" stroke-linejoin="round"/>
<path d="M151.446 11.5845L151.076 10.0884L147.526 10.807" stroke="#263238" stroke-linecap="round" stroke-linejoin="round"/>
<path d="M146.724 10.9697L136.272 13.0805" stroke="#263238" stroke-linecap="round" stroke-linejoin="round"/>
<path d="M135.469 13.2386L127.447 14.8613" stroke="#263238" stroke-linecap="round" stroke-linejoin="round"/>
<path d="M151.08 10.0884L148.931 12.1359" stroke="#263238" stroke-linecap="round" stroke-linejoin="round"/>
</g>
<g opacity="0.3">
<path d="M15.7269 30.1294C15.7269 30.1294 23.9895 30.6718 28.8186 31.2187C33.6477 31.7611 45.9858 30.6763 45.9858 30.6763C45.9858 30.6763 47.2744 65.2624 47.8095 66.6771C48.3446 68.0918 49.0982 69.7235 49.0982 69.7235C49.0982 69.7235 45.7717 69.5065 33.4337 69.7235C21.0956 69.9405 10.9023 68.3088 10.9023 68.3088C10.9023 68.3088 12.833 65.5878 12.9401 64.5031C13.0471 63.4138 15.7314 30.1339 15.7314 30.1339L15.7269 30.1294Z" stroke="#263238" stroke-linecap="round" stroke-linejoin="round"/>
<path d="M25.0507 30.7938L26.4286 27.1463C26.7942 26.1474 27.5121 25.3248 28.444 24.8321L28.9747 24.5519L27.0707 30.9882L25.0463 30.7938H25.0507Z" stroke="#263238" stroke-linecap="round" stroke-linejoin="round"/>
<path d="M38.2494 31.2188L35.9798 31.2685L33.5808 26.4322C33.5585 26.3554 33.5228 26.2695 33.4693 26.1746C33.0725 25.4288 31.931 24.2853 31.6278 23.9915C31.5787 23.9418 33.9821 25.0401 33.9821 25.0401C34.5484 25.3023 35.0211 25.7317 35.3377 26.274L38.2405 31.2188H38.2494Z" stroke="#263238" stroke-linecap="round" stroke-linejoin="round"/>
<path d="M33.4694 26.1746L32.0737 25.9531C31.173 25.813 30.2544 25.8988 29.3983 26.2107L28.3326 26.7847L28.9791 24.5519C28.9791 24.5519 30.5264 23.7609 31.6322 23.9915C31.9355 24.2898 33.077 25.4288 33.4738 26.1746H33.4694Z" stroke="#263238" stroke-linecap="round" stroke-linejoin="round"/>
</g>
<g opacity="0.3">
<path d="M8.67279 116.956L9.49325 158.44C9.49325 158.44 13.2076 160.338 21.4612 159.683C29.7149 159.027 36.4836 156.731 38.9227 155.773C42.7887 154.259 45.5666 151.466 45.5666 151.466L31.494 112.256L8.66833 116.956H8.67279Z" stroke="#263238" stroke-linecap="round" stroke-linejoin="round"/>
<path d="M12.6725 116.107L11.9725 95.0529C12.1731 94.0088 12.7528 93.0778 13.5956 92.4404L14.0771 92.0743L14.6568 115.718L12.6725 116.107Z" stroke="#263238" stroke-linecap="round" stroke-linejoin="round"/>
<path d="M27.6147 112.979L25.3852 113.399L18.9241 93.1817C18.8884 93.1094 18.8393 93.028 18.7725 92.9422C18.2641 92.2687 16.9576 91.3286 16.6098 91.0845C16.5563 91.0438 19.1024 91.7354 19.1024 91.7354C19.6999 91.9026 20.2395 92.2461 20.6363 92.7297L27.6147 112.974V112.979Z" stroke="#263238" stroke-linecap="round" stroke-linejoin="round"/>
<path d="M18.7725 92.9422L17.1851 92.7523C16.2754 92.7569 15.611 93.01 14.7638 93.6382L14.1663 94.271L14.0861 92.0698C14.0861 92.0698 15.4862 91.0348 16.6143 91.0845C16.9621 91.3286 18.2686 92.2687 18.7769 92.9422H18.7725Z" stroke="#263238" stroke-linecap="round" stroke-linejoin="round"/>
</g>
<g opacity="0.3">
<path d="M186.788 129.562L151.78 125.038L162.513 86.0811L164.827 86.411L168.194 86.8901L169.077 87.0167L179.645 88.5128L180.483 88.6348L185.58 89.358L186.788 129.562Z" stroke="#263238" stroke-linecap="round" stroke-linejoin="round"/>
<path d="M151.78 125.038L147.504 121.386L160.275 84.3635V84.3589L160.288 84.3635" stroke="#263238" stroke-linecap="round" stroke-linejoin="round"/>
<path d="M147.504 121.386L153.39 118.339" stroke="#263238" stroke-linecap="round" stroke-linejoin="round"/>
<path d="M184.041 89.0416L184.166 87.5093L180.577 87.0347" stroke="#263238" stroke-linecap="round" stroke-linejoin="round"/>
<path d="M168.194 86.8901L164.823 86.411L160.284 84.3635L166.446 85.1725L167.333 85.2855C167.525 84.3047 168.283 80.5758 170.588 71.5406C172.8 62.8398 175.003 59.5584 176.22 59.3867C176.568 59.3415 176.889 59.5855 177.188 60.1053C177.219 60.1595 177.25 60.2319 177.277 60.3042C174.722 61.5833 172.582 68.6388 171.489 72.9372C169.037 82.5872 168.332 86.1353 168.198 86.8856L168.194 86.8901Z" stroke="#263238" stroke-linecap="round" stroke-linejoin="round"/>
<path d="M168.386 85.4256L167.338 85.29" stroke="#263238" stroke-linecap="round" stroke-linejoin="round"/>
<path d="M160.288 84.3635H160.275" stroke="#263238" stroke-linecap="round" stroke-linejoin="round"/>
<path d="M184.166 87.5093L181.486 88.7523" stroke="#263238" stroke-linecap="round" stroke-linejoin="round"/>
<path d="M180.483 88.6348L179.64 88.5127C179.636 88.4856 179.631 88.4585 179.636 88.4223C179.64 88.2958 179.645 88.1828 179.645 88.0743C179.649 88.0065 179.649 87.9432 179.654 87.8754C179.654 87.7941 179.654 87.7127 179.662 87.6223C179.667 87.4415 179.671 87.2743 179.676 87.1432L179.685 86.9127C179.917 79.4142 180.14 63.8206 178.949 61.7279C178.771 61.4206 178.588 61.2036 178.392 61.0951C178.258 61.0183 178.12 60.9912 177.981 61.0093C177.843 61.0273 177.692 61.0861 177.522 61.1946C176.26 62.0036 174.307 65.4613 172.35 73.1587C170.642 79.8617 169.781 83.6448 169.376 85.5522C169.211 86.3206 169.117 86.7771 169.077 87.0076L168.194 86.881C168.328 86.1307 169.032 82.5781 171.485 72.9327C172.577 68.6343 174.722 61.5788 177.272 60.2996C177.464 60.2047 177.66 60.1369 177.857 60.1098C177.946 60.0963 178.044 60.0917 178.146 60.1008C178.619 60.1234 179.212 60.381 179.716 61.2759C181.179 63.8432 180.746 81.4933 180.572 87.0302C180.554 87.6991 180.536 88.1873 180.528 88.454C180.528 88.5172 180.51 88.576 180.483 88.6302V88.6348Z" stroke="#263238" stroke-miterlimit="10"/>
<path d="M179.645 88.5128L169.081 87.0167C169.121 86.7862 169.215 86.3297 169.38 85.5613L177.883 86.6822L178.771 86.7952L179.689 86.9172L179.68 87.1478C179.671 87.3331 179.671 87.4867 179.667 87.6269C179.662 87.7173 179.662 87.7986 179.658 87.88C179.658 87.9478 179.654 88.011 179.649 88.0788C179.649 88.1873 179.645 88.3003 179.64 88.4269C179.64 88.4585 179.64 88.4902 179.645 88.5173V88.5128Z" stroke="#263238" stroke-miterlimit="10"/>
<path d="M178.151 60.1053C178.048 60.1008 177.95 60.1053 177.861 60.1144C177.665 60.1415 177.469 60.2048 177.277 60.3042C177.25 60.2319 177.219 60.1641 177.188 60.1053C176.889 59.581 176.568 59.3369 176.22 59.3867C175.003 59.5584 172.8 62.8399 170.588 71.5406C168.288 80.5758 167.525 84.3093 167.333 85.2856L166.446 85.1726C166.62 84.2686 167.351 80.6346 169.723 71.3146C170.901 66.6908 173.286 58.8804 176.095 58.4917C176.604 58.4239 177.339 58.5686 177.955 59.6533C178.026 59.7709 178.088 59.9245 178.146 60.1053H178.151Z" stroke="#263238" stroke-miterlimit="10"/>
<path d="M178.766 86.7952L177.879 86.6822C178.097 80.603 178.392 65.719 177.518 61.1991C177.687 61.0952 177.834 61.0364 177.977 61.0138C178.115 60.9957 178.253 61.0228 178.387 61.0997C179.444 66.7857 178.851 84.4268 178.762 86.7952H178.766Z" stroke="#263238" stroke-miterlimit="10"/>
</g>
<path d="M92.0027 62.3155C92.0027 62.3155 91.6817 66.2342 91.6817 70.5823C91.6817 74.9305 92.6493 75.5858 92.6493 75.5858L77.9435 72.214C77.9435 72.214 79.0181 63.2918 77.9435 60.2454C76.8689 57.199 76.4408 55.6758 76.4408 55.6758L92.0027 62.311V62.3155Z" fill="white" stroke="#263238" stroke-linecap="round" stroke-linejoin="round"/>
<path d="M83.7848 59.7798L91.7174 67.5314L92.4264 60.4939L83.7848 59.7798Z" fill="#263238" stroke="#263238" stroke-linecap="round" stroke-linejoin="round"/>
<path d="M98.5531 41.0947C98.5531 41.0947 101.942 40.5659 101.906 36.3081C101.866 32.0504 98.3569 29.9667 95.1821 28.6424C92.0072 27.3181 86.0589 24.805 80.1686 24.4209C74.2782 24.0367 68.6465 26.7396 65.3647 31.1103C62.0828 35.4855 61.5388 44.8281 61.084 52.3808C60.6292 59.9335 60.9369 64.3268 61.949 65.1585C62.9612 65.9902 70.9429 67.554 76.5657 67.5224C82.1885 67.4908 83.5485 66.745 83.5485 66.745C83.5485 66.745 81.2744 62.1302 80.7482 59.929C80.2221 57.7278 79.9545 56.9685 79.9545 56.9685L78.7417 45.7682L90.4689 34.5861L97.2243 37.3793L97.6702 41.6416L98.5531 41.0992V41.0947Z" fill="#263238" stroke="#263238" stroke-linecap="round" stroke-linejoin="round"/>
<path d="M87.0399 33.8403C87.0399 33.8403 86.2551 35.2279 82.7325 40.7829C79.2098 46.3378 78.4919 46.7988 78.4919 46.7988C78.4919 46.7988 79.3392 55.0657 79.7315 57.5787C80.1239 60.0918 88.4712 64.0602 93.0372 64.6523C97.6033 65.249 98.2543 62.7359 98.5798 61.9404C98.9053 61.1449 101.126 52.0871 101.059 50.3695C100.992 48.652 97.7995 44.1547 97.5364 42.1705C97.2733 40.1862 97.144 37.6732 97.144 37.6732C97.144 37.6732 90.2949 34.1703 87.0309 33.8358L87.0399 33.8403Z" fill="white" stroke="#263238" stroke-linecap="round" stroke-linejoin="round"/>
<path d="M78.3626 156.831C80.5698 162.377 87.7533 172.89 92.5958 181.066L87.3966 199.769H116.692C116.871 198.115 117.134 193.487 115.667 186.269C113.803 177.084 112.336 168.035 112.336 168.035C112.336 168.035 114.333 149.667 114.333 144.808C114.333 144.808 99.6767 150.345 87.6864 148.32C75.6961 146.295 76.4943 146.566 76.4943 146.566C76.4943 146.566 75.2948 149.133 78.3582 156.831H78.3626Z" fill="#263238" stroke="#263238" stroke-linecap="round" stroke-linejoin="round"/>
<path d="M132.143 93.4348L129.276 107.632" stroke="#263238" stroke-width="2" stroke-linecap="round" stroke-linejoin="round"/>
<path d="M133.365 88.4901L131.826 109.652" stroke="#263238" stroke-width="2" stroke-linecap="round" stroke-linejoin="round"/>
<path d="M121.669 93.1998C121.669 93.1998 124.638 88.7342 125.405 87.8619C126.172 86.9895 130.578 85.2403 131.92 84.1736C133.262 83.107 134.698 78.8357 135.656 79.2244C136.615 79.6131 136.04 80.5849 135.75 81.9408C135.465 83.3013 133.547 85.8234 133.356 86.1172C133.164 86.4065 137.761 90.1941 137.667 90.9715C137.574 91.749 136.901 92.332 135.942 92.9151C134.983 93.4982 126.458 96.7977 126.458 96.7977L123.488 100.292L120.518 94.0767L121.669 93.2044V93.1998Z" fill="white" stroke="#263238" stroke-linecap="round" stroke-linejoin="round"/>
<path d="M136.513 83.4912C136.513 83.4912 132.491 82.6188 132.201 83.3962C131.915 84.1737 131.242 86.5014 131.532 86.8901C131.822 87.2788 132.776 87.0845 132.776 87.0845L133.828 84.4629C133.828 84.4629 137.083 85.046 137.275 84.9466C137.467 84.8471 137.275 83.5861 136.508 83.4912H136.513Z" fill="white" stroke="#263238" stroke-linecap="round" stroke-linejoin="round"/>
<path d="M137.28 84.9466C137.28 84.9466 133.431 83.7443 133.231 84.02C133.026 84.2957 132.076 87.7308 132.214 88.0066C132.352 88.2823 133.164 88.7614 133.369 88.4857C133.574 88.21 134.524 86.0811 134.524 86.0811C134.524 86.0811 137.984 86.976 138.185 86.3568C138.39 85.7376 137.284 84.9466 137.284 84.9466H137.28Z" fill="white" stroke="#263238" stroke-linecap="round" stroke-linejoin="round"/>
<path d="M138.18 86.3568C138.18 86.3568 135.197 85.2584 134.519 86.081C133.842 86.9037 133.57 87.4551 133.365 88.4856C133.159 89.5162 133.703 89.7241 134.109 89.8597C134.515 89.9953 135.264 88.4178 135.603 88.2099C135.942 88.002 138.586 88.689 138.586 87.9342C138.586 87.1794 138.519 86.9715 138.18 86.3522V86.3568Z" fill="white" stroke="#263238" stroke-linecap="round" stroke-linejoin="round"/>
<path d="M135.875 89.7964C135.875 89.7964 136.348 89.7286 136.758 89.8642C137.164 89.9998 136.553 90.8269 136.285 91.0348C136.013 91.2428 134.524 91.0348 134.252 90.4834C133.98 89.932 134.93 87.3918 135.135 87.1161C135.34 86.8404 137.645 87.5274 137.645 87.5274C137.645 87.5274 138.595 87.4596 138.595 87.9387C138.595 88.8969 137.917 91.5139 137.645 91.7897C137.373 92.0654 136.49 92.4767 136.49 92.4767" fill="white"/>
<path d="M135.875 89.7964C135.875 89.7964 136.348 89.7286 136.758 89.8642C137.164 89.9998 136.553 90.8269 136.285 91.0348C136.013 91.2428 134.524 91.0348 134.252 90.4834C133.98 89.932 134.93 87.3918 135.135 87.1161C135.34 86.8404 137.645 87.5274 137.645 87.5274C137.645 87.5274 138.595 87.4596 138.595 87.9387C138.595 88.8969 137.917 91.5139 137.645 91.7897C137.373 92.0654 136.49 92.4767 136.49 92.4767" stroke="#263238" stroke-linecap="round" stroke-linejoin="round"/>
<path d="M125.16 93.8507C125.093 94.0586 125.771 91.8574 126.315 91.4461C126.859 91.0348 132.553 90.0043 132.553 90.0043" stroke="#263238" stroke-linecap="round" stroke-linejoin="round"/>
<path d="M121.847 91.9568L126.698 99.1887L123.274 102.949L118.422 94.9942L121.847 91.9568Z" fill="#B0B0B0" stroke="#263238" stroke-linecap="round" stroke-linejoin="round"/>
<path d="M123.274 102.949C123.274 102.949 124.415 104.106 123.559 105.263C122.703 106.42 111.145 116.834 111.145 116.834L110.289 99.1887C110.289 99.1887 116.71 94.5603 117.138 94.4157C117.566 94.271 118.422 94.9942 118.422 94.9942L123.274 102.949Z" fill="#B0B0B0" stroke="#263238" stroke-linecap="round" stroke-linejoin="round"/>
<path d="M76.2313 141.029C76.2313 141.029 74.6305 146.702 75.2993 147.782C75.9682 148.862 86.3577 152.103 95.8197 151.967C105.277 151.832 111.676 148.862 113.406 147.917C115.136 146.973 115.805 146.164 116.073 144.812C116.34 143.461 115.671 140.22 115.671 140.22C115.671 140.22 105.545 143.732 95.6859 144.27C85.827 144.812 76.2357 141.029 76.2357 141.029H76.2313Z" fill="#E0E0E0" stroke="#263238" stroke-linecap="round" stroke-linejoin="round"/>
<path d="M95.3292 76.7339C95.3292 76.7339 89.2828 73.0367 82.7191 70.9259C76.1554 68.8151 72.2984 76.4175 70.8403 83.6041C69.3822 90.7862 75.6337 125.228 75.6337 125.228C75.6337 125.228 75.219 140.862 75.4241 142.34C75.6337 143.818 84.3868 147.624 91.7843 147.728C99.1818 147.832 103.975 146.986 106.998 146.25C110.022 145.508 114.712 144.03 115.649 142.973C116.585 141.915 116.795 140.966 116.795 139.488C116.795 138.01 112.938 105.896 112.938 105.896C112.938 105.896 110.124 92.4812 106.374 86.985C102.624 81.4934 95.3292 76.7385 95.3292 76.7385V76.7339Z" fill="#E0E0E0" stroke="#263238" stroke-linecap="round" stroke-linejoin="round"/>
<g opacity="0.18">
<path d="M74.7419 120.107L81.5018 115.51L90.616 122.308C90.8122 122.452 91.044 122.529 91.2759 122.529C91.5078 122.529 91.7575 122.452 91.9581 122.294L100.907 115.275L110.414 121.49C110.829 121.761 111.373 121.725 111.747 121.395L114.494 118.977C114.387 118.055 114.28 117.146 114.173 116.265L110.918 119.13L101.451 112.938C101.055 112.676 100.537 112.699 100.163 112.992L91.2536 119.98L82.184 113.218C81.805 112.938 81.2922 112.925 80.9042 113.191L74.3272 117.661C74.4699 118.534 74.6081 119.352 74.7374 120.107H74.7419Z" fill="#263238" stroke="#263238" stroke-linecap="round" stroke-linejoin="round"/>
<path d="M116.13 133.038L111.796 136.848L102.33 130.656C101.933 130.394 101.416 130.421 101.041 130.71L92.132 137.698L83.0624 130.936C82.6834 130.656 82.1706 130.643 81.7827 130.909L75.4107 135.239C75.3974 136.197 75.384 137.124 75.3751 137.987L82.3757 133.228L91.4899 140.026C91.6861 140.17 91.918 140.247 92.1499 140.247C92.3817 140.247 92.6314 140.17 92.8321 140.012L101.781 132.993L111.288 139.208C111.703 139.479 112.247 139.443 112.621 139.113L116.429 135.764C116.34 134.95 116.237 134.032 116.126 133.038H116.13Z" fill="#263238" stroke="#263238" stroke-linecap="round" stroke-linejoin="round"/>
<path d="M81.2877 123.704L90.402 130.502C90.5982 130.647 90.83 130.724 91.0619 130.724C91.2938 130.724 91.5435 130.647 91.7441 130.489L100.693 123.469L110.2 129.684C110.615 129.955 111.159 129.919 111.533 129.589L115.35 126.236C115.248 125.341 115.141 124.432 115.034 123.524L110.704 127.329L101.237 121.142C100.84 120.88 100.323 120.907 99.9487 121.196L91.0396 128.184L81.97 121.422C81.591 121.142 81.0782 121.128 80.6902 121.395L75.5668 124.88C75.607 125.106 75.6293 125.228 75.6293 125.228C75.6293 125.228 75.6025 126.163 75.5713 127.596L81.2833 123.714L81.2877 123.704Z" fill="#263238" stroke="#263238" stroke-linecap="round" stroke-linejoin="round"/>
</g>
<path d="M77.3638 100.802C77.3638 100.802 82.5318 99.1344 85.5818 96.757C85.5818 96.757 83 102.231 79.2411 110.086" stroke="#263238" stroke-linecap="round" stroke-linejoin="round"/>
<path d="M71.6741 84.2324C72.2984 76.0966 76.7797 71.5541 83.5529 71.6626C90.3262 71.7666 107.837 81.4888 107.837 81.4888C107.837 81.4888 119.301 89.5161 120.447 95.749C121.593 101.982 120.032 104.201 117.633 104.622C115.234 105.042 105.335 105.783 92.7251 101.666C80.115 97.5434 76.7797 92.4766 76.7797 92.4766" fill="#E0E0E0"/>
<path d="M71.6741 84.2324C72.2984 76.0966 76.7797 71.5541 83.5529 71.6626C90.3262 71.7666 107.837 81.4888 107.837 81.4888C107.837 81.4888 119.301 89.5161 120.447 95.749C121.593 101.982 120.032 104.201 117.633 104.622C115.234 105.042 105.335 105.783 92.7251 101.666C80.115 97.5434 76.7797 92.4766 76.7797 92.4766" stroke="#263238" stroke-linecap="round" stroke-linejoin="round"/>
<path d="M73.0341 72.8513L67.3444 90.7817" stroke="#263238" stroke-width="2" stroke-linecap="round" stroke-linejoin="round"/>
<path d="M90.3663 71.2332C90.3663 71.2332 87.3921 70.3202 85.4079 68.2184C83.4236 66.1167 81.1718 65.2941 79.1876 65.5698C77.2033 65.8455 75.1299 65.8455 75.1299 65.8455C75.1299 65.8455 76.4809 65.389 76.3026 64.7472C76.1242 64.1099 75.2191 63.9246 74.14 63.5585C73.0564 63.1923 71.6162 62.7358 71.4378 63.5585C71.2595 64.3811 70.0867 66.6636 70.1759 67.7619C70.2651 68.8603 71.799 72.788 72.4277 73.4253C73.0564 74.0626 76.3918 74.248 77.9257 74.4288C79.4596 74.6096 82.0726 73.6965 83.602 74.3384C85.1359 74.9757 87.2985 75.7983 87.2985 75.7983L90.3618 71.2287L90.3663 71.2332Z" fill="white" stroke="#263238" stroke-linecap="round" stroke-linejoin="round"/>
<path d="M75.1344 65.8454L73.6049 64.842" stroke="#263238" stroke-linecap="round" stroke-linejoin="round"/>
<path d="M69.7211 90.3252L75.9681 65.7325" stroke="#263238" stroke-width="2" stroke-linecap="round" stroke-linejoin="round"/>
<path d="M91.16 68.4941L85.2206 75.6762L89.9115 79.6899L96.3726 71.8705L91.16 68.4941Z" fill="#E0E0E0" stroke="#263238" stroke-linecap="round" stroke-linejoin="round"/>
<path d="M106.691 97.4349C106.379 97.2225 91.6817 85.1815 90.4332 83.8075C89.1846 82.4334 89.9114 79.6853 89.9114 79.6853L96.3726 71.866C96.3726 71.866 98.5619 71.3371 100.956 72.6072C103.355 73.8728 117.317 84.4402 120.447 89.0867C123.573 93.7331 125.276 99.1841 123.68 101.869C120.915 106.511 110.646 104.829 110.646 104.829" fill="#E0E0E0"/>
<path d="M106.691 97.4349C106.379 97.2225 91.6817 85.1815 90.4332 83.8075C89.1846 82.4334 89.9114 79.6853 89.9114 79.6853L96.3726 71.866C96.3726 71.866 98.5619 71.3371 100.956 72.6072C103.355 73.8728 117.317 84.4402 120.447 89.0867C123.573 93.7331 125.276 99.1841 123.68 101.869C120.915 106.511 110.646 104.829 110.646 104.829" stroke="#263238" stroke-linecap="round" stroke-linejoin="round"/>
<path d="M56.8167 157.052L67.8974 146.48L70.3721 92.5715L64.7671 89.1364L56.8167 157.052Z" fill="#26AA9D" stroke="#263238" stroke-linecap="round" stroke-linejoin="round"/>
<path d="M64.7671 89.1364C64.7671 89.1364 62.1586 88.0788 61.7707 88.0788C61.3827 88.0788 54.8637 84.9058 54.8637 84.9058L34.1382 145.951C34.1382 145.951 43.5244 152.69 47.8273 154.408C52.1303 156.126 56.8212 157.052 56.8212 157.052L64.7716 89.1364H64.7671Z" fill="#26AA9D" stroke="#263238" stroke-linecap="round" stroke-linejoin="round"/>
<path d="M51.6844 150.598L53.1648 152.162" stroke="#263238" stroke-linecap="round" stroke-linejoin="round"/>
<path d="M35.9575 146.349L47.0381 145.689L50.4582 149.3" stroke="#263238" stroke-linecap="round" stroke-linejoin="round"/>
<path d="M52.264 124.898L52.7768 122.832" stroke="#263238" stroke-linecap="round" stroke-linejoin="round"/>
<path d="M47.5598 143.84L51.7468 126.977" stroke="#263238" stroke-linecap="round" stroke-linejoin="round"/>
<path d="M64.7671 89.1364L69.7211 90.3251L74.5457 89.6652C74.5457 89.6652 75.3261 123.225 77.0205 134.724C78.7149 146.222 78.8442 147.804 78.8442 147.804C78.8442 147.804 72.0665 148.202 66.4616 148.202C60.8566 148.202 58.3818 147.411 58.3818 147.411L64.7671 89.1409V89.1364Z" fill="#949494" stroke="#263238" stroke-linecap="round" stroke-linejoin="round"/>
<path d="M62.4529 144.907L68.4503 141.233" stroke="#263238" stroke-linecap="round" stroke-linejoin="round"/>
<path d="M58.3818 147.407L61.1553 145.707" stroke="#263238" stroke-linecap="round" stroke-linejoin="round"/>
<path d="M69.3332 119.515L69.2797 96.6937" stroke="#263238" stroke-linecap="round" stroke-linejoin="round"/>
<path d="M76.4944 146.566L69.3822 140.889L69.3332 121.124" stroke="#263238" stroke-linecap="round" stroke-linejoin="round"/>
<path d="M75.9682 65.7325L60.5891 87.5364" stroke="#263238" stroke-width="2" stroke-linecap="round" stroke-linejoin="round"/>
<path d="M136.566 90.4472L137.957 109.955" stroke="#263238" stroke-width="2" stroke-linecap="round" stroke-linejoin="round"/>
<path d="M136.758 89.8641L147.04 109.53" stroke="#263238" stroke-width="2" stroke-linecap="round" stroke-linejoin="round"/>
<path d="M143.375 109.914L148.704 110.524L152.141 108.391L174.994 159.782L153.14 169.111L143.375 109.914Z" fill="white" stroke="#263238" stroke-linecap="round" stroke-linejoin="round"/>
<path d="M153.14 169.111L140.16 160.343L139.607 110.077L143.375 109.914L153.14 169.111Z" fill="#263238" stroke="#263238" stroke-linecap="round" stroke-linejoin="round"/>
<path d="M152.712 124.672L153.252 126.38" stroke="#263238" stroke-linecap="round" stroke-linejoin="round"/>
<path d="M148.481 111.311L152.137 122.859" stroke="#263238" stroke-linecap="round" stroke-linejoin="round"/>
<path d="M165.037 158.087L163.012 157.757" stroke="#263238" stroke-linecap="round" stroke-linejoin="round"/>
<path d="M173.995 159.556L167.249 158.449" stroke="#263238" stroke-linecap="round" stroke-linejoin="round"/>
<path d="M157.358 163.267L153.14 169.111" stroke="#263238" stroke-linecap="round" stroke-linejoin="round"/>
<path d="M130.618 108.111L137.195 109.065L143.371 108.246L152.498 165.676C152.498 165.676 146.991 167.308 138.399 167.855C129.806 168.397 127.122 168.397 127.122 168.397L130.613 108.106L130.618 108.111Z" fill="#26AA9D" stroke="#263238" stroke-linecap="round" stroke-linejoin="round"/>
<path d="M130.618 108.111L123.367 107.157L113.972 157.102L127.126 168.401L130.618 108.111Z" fill="#26AA9D" stroke="#263238" stroke-linecap="round" stroke-linejoin="round"/>
<path d="M137.199 109.065V117.363" stroke="#263238" stroke-linecap="round" stroke-linejoin="round"/>
<path d="M146.122 163.276L151.027 164.587" stroke="#263238" stroke-linecap="round" stroke-linejoin="round"/>
<path d="M127.126 168.401L138.809 161.323L144.106 162.738" fill="#26AA9D"/>
<path d="M127.126 168.401L138.809 161.323L144.106 162.738" stroke="#263238" stroke-linecap="round" stroke-linejoin="round"/>
<path d="M138.176 154.385L137.868 149.21" stroke="#263238" stroke-linecap="round" stroke-linejoin="round"/>
<path d="M138.408 158.191L138.283 156.121" stroke="#263238" stroke-linecap="round" stroke-linejoin="round"/>
<path d="M115.456 45.5786C115.257 45.5786 115.096 45.417 115.096 45.2193V43.3593C115.096 43.1606 115.257 43 115.456 43C115.654 43 115.815 43.1616 115.815 43.3593V45.2193C115.815 45.4181 115.654 45.5786 115.456 45.5786Z" fill="#F8931F"/>
<path d="M115.456 49.9124C115.257 49.9124 115.096 49.7507 115.096 49.553V47.6931C115.096 47.4943 115.257 47.3337 115.456 47.3337C115.654 47.3337 115.815 47.4954 115.815 47.6931V49.553C115.815 49.7518 115.654 49.9124 115.456 49.9124Z" fill="#F8931F"/>
<path d="M114.219 46.815H112.359C112.161 46.815 112 46.6533 112 46.4556C112 46.2579 112.161 46.0963 112.359 46.0963H114.219C114.418 46.0963 114.579 46.2579 114.579 46.4556C114.579 46.6533 114.418 46.815 114.219 46.815Z" fill="#F8931F"/>
<path d="M118.553 46.815H116.693C116.494 46.815 116.334 46.6533 116.334 46.4556C116.334 46.2579 116.494 46.0963 116.693 46.0963H118.553C118.752 46.0963 118.912 46.2579 118.912 46.4556C118.912 46.6533 118.752 46.815 118.553 46.815Z" fill="#F8931F"/>
<path d="M32.4556 84.5786C32.2569 84.5786 32.0963 84.417 32.0963 84.2193V82.3593C32.0963 82.1606 32.2569 82 32.4556 82C32.6544 82 32.815 82.1616 32.815 82.3593V84.2193C32.815 84.4181 32.6544 84.5786 32.4556 84.5786Z" fill="#F8931F"/>
<path d="M32.4556 88.9124C32.2569 88.9124 32.0963 88.7508 32.0963 88.5531V86.6931C32.0963 86.4943 32.2569 86.3338 32.4556 86.3338C32.6544 86.3338 32.815 86.4954 32.815 86.6931V88.5531C32.815 88.7519 32.6544 88.9124 32.4556 88.9124Z" fill="#F8931F"/>
<path d="M31.2193 85.815H29.3593C29.1605 85.815 29 85.6534 29 85.4557C29 85.258 29.1605 85.0964 29.3593 85.0964H31.2193C31.4181 85.0964 31.5786 85.258 31.5786 85.4557C31.5786 85.6534 31.4181 85.815 31.2193 85.815Z" fill="#F8931F"/>
<path d="M35.553 85.815H33.6931C33.4943 85.815 33.3337 85.6534 33.3337 85.4557C33.3337 85.258 33.4943 85.0964 33.6931 85.0964H35.553C35.7518 85.0964 35.9124 85.258 35.9124 85.4557C35.9124 85.6534 35.7518 85.815 35.553 85.815Z" fill="#F8931F"/>
<path d="M111.438 81.3858C111.245 81.3858 111.086 81.5084 111.078 81.6645C111.071 81.8251 111.225 81.96 111.424 81.9662C111.902 81.9821 112.388 81.9927 112.87 81.9997C113.066 82.0068 113.232 81.8745 113.235 81.7139C113.239 81.5534 113.08 81.4211 112.882 81.4184C112.405 81.4114 111.925 81.4008 111.452 81.3849C111.446 81.3849 111.442 81.3849 111.438 81.3849V81.3858Z" fill="#26AA9D"/>
<path d="M19.7988 56.2196C19.7934 56.2196 19.7879 56.2196 19.7824 56.2196C19.3084 56.2364 18.8301 56.2443 18.3615 56.2426H18.3593C18.1617 56.2426 18.0011 56.3714 18 56.531C17.9989 56.6916 18.1595 56.8221 18.3571 56.823C18.8388 56.8247 19.3281 56.8177 19.8141 56.7992C20.0129 56.7921 20.1658 56.6563 20.1571 56.4957C20.1483 56.3396 19.9889 56.2179 19.7977 56.2179L19.7988 56.2196Z" fill="#26AA9D"/>
<path d="M78.4638 17C78.6698 17 78.8372 17.1694 78.8384 17.3794C78.8395 17.5905 78.6721 17.7622 78.4661 17.7634C77.463 17.7692 76.452 17.8028 75.4638 17.862C75.2611 17.8736 75.0801 17.7135 75.0676 17.5035C75.0551 17.2924 75.2133 17.1114 75.4205 17.0998C76.4224 17.0394 77.446 17.0058 78.4615 17H78.4638ZM81.4866 17.0638C81.4922 17.0638 81.4979 17.0638 81.5048 17.0638C82.5124 17.1114 83.5325 17.188 84.5389 17.2889C84.745 17.3098 84.8953 17.4966 84.8748 17.7065C84.8543 17.9165 84.6721 18.072 84.4649 18.0488C83.471 17.949 82.4634 17.8736 81.4683 17.826C81.2611 17.8168 81.1017 17.6369 81.1108 17.4269C81.1199 17.2227 81.2862 17.0627 81.4854 17.0627L81.4866 17.0638ZM72.4308 17.3631C72.6186 17.3631 72.7814 17.507 72.8031 17.7019C72.827 17.9119 72.679 18.101 72.4729 18.1242C71.4778 18.2391 70.4771 18.3841 69.5002 18.5535C69.2964 18.5883 69.1017 18.4491 69.0676 18.2414C69.0323 18.0337 69.17 17.8353 69.3738 17.8005C70.3643 17.6288 71.3788 17.4815 72.3875 17.3655C72.4023 17.3631 72.416 17.3631 72.4308 17.3631ZM87.5025 17.6694C87.5207 17.6694 87.5401 17.6706 87.5594 17.674C88.5602 17.8284 89.5678 18.0117 90.5549 18.217C90.7575 18.2588 90.8885 18.4618 90.8475 18.6683C90.8065 18.8748 90.6095 19.0082 90.4046 18.9665C89.43 18.7635 88.4349 18.5825 87.4467 18.4305C87.2418 18.3992 87.1006 18.2043 87.1325 17.9954C87.1609 17.8063 87.3203 17.6706 87.5025 17.6706V17.6694ZM66.4729 18.4003C66.6437 18.4003 66.7985 18.5198 66.8383 18.6973C66.885 18.9027 66.7587 19.108 66.5571 19.1556C65.5814 19.3841 64.6046 19.644 63.6539 19.9294C63.4547 19.9886 63.2463 19.8726 63.1883 19.6707C63.1302 19.4677 63.244 19.2554 63.4421 19.1962C64.4076 18.9073 65.3993 18.644 66.3886 18.4108C66.4171 18.4038 66.4456 18.4015 66.4729 18.4015V18.4003ZM93.4251 18.9062C93.4558 18.9062 93.4877 18.9096 93.5196 18.9178C94.4976 19.1765 95.4812 19.4654 96.4444 19.7763C96.6414 19.8401 96.7507 20.0547 96.6892 20.2554C96.6266 20.4561 96.416 20.5675 96.2179 20.5037C95.2672 20.1974 94.2961 19.912 93.3306 19.6568C93.1302 19.6034 93.0095 19.3946 93.0619 19.1904C93.1063 19.0187 93.2577 18.9038 93.4251 18.9038V18.9062ZM60.6721 20.129C60.827 20.129 60.9716 20.2264 61.0251 20.3842C61.0945 20.5838 60.9921 20.8019 60.7962 20.8715C59.8535 21.2114 58.912 21.5803 57.9955 21.9702C57.8042 22.0514 57.5845 21.9597 57.5048 21.7648C57.4251 21.5699 57.515 21.346 57.7063 21.2648C58.6353 20.8692 59.5905 20.4944 60.5457 20.151C60.5867 20.1359 60.6289 20.129 60.671 20.129H60.6721ZM99.1883 20.7682C99.2327 20.7682 99.2771 20.7763 99.3203 20.7926C100.269 21.1569 101.217 21.5513 102.138 21.9655C102.327 22.0502 102.414 22.2765 102.329 22.469C102.246 22.6616 102.024 22.7498 101.835 22.6639C100.927 22.2556 99.9909 21.8658 99.0551 21.5061C98.8615 21.4318 98.7636 21.2114 98.8365 21.0142C98.8934 20.861 99.0357 20.7671 99.1871 20.7671L99.1883 20.7682ZM55.0968 22.5015C55.2357 22.5015 55.3689 22.5804 55.4338 22.7162C55.5249 22.9064 55.4463 23.135 55.2607 23.2266C54.3602 23.6721 53.4664 24.149 52.6012 24.642C52.4201 24.7453 52.1913 24.6792 52.0911 24.4947C51.9898 24.3102 52.0547 24.0782 52.2345 23.9749C53.1112 23.4749 54.0198 22.9911 54.9328 22.5387C54.9852 22.512 55.041 22.5004 55.0968 22.5004V22.5015ZM104.719 23.2568C104.776 23.2568 104.835 23.2707 104.89 23.2986C105.795 23.7696 106.693 24.2708 107.561 24.7894C107.74 24.8961 107.8 25.1305 107.695 25.3126C107.591 25.4948 107.361 25.5551 107.182 25.4484C106.327 24.9379 105.441 24.4437 104.548 23.9796C104.364 23.8833 104.291 23.6536 104.384 23.4656C104.451 23.3334 104.583 23.2568 104.719 23.2568ZM49.8266 25.511C49.9507 25.511 50.0714 25.5737 50.1431 25.6874C50.2547 25.8649 50.2034 26.1015 50.0292 26.2152C49.1901 26.7628 48.3567 27.3429 47.5529 27.9392C47.3856 28.0634 47.1511 28.0263 47.0292 27.8557C46.9074 27.6852 46.9438 27.4462 47.1112 27.322C47.9275 26.7164 48.7735 26.1282 49.6251 25.5713C49.6877 25.5307 49.7571 25.511 49.8266 25.511ZM109.932 26.373C110.004 26.373 110.077 26.3939 110.141 26.438C110.984 27.0146 111.819 27.6225 112.618 28.2444C112.783 28.372 112.814 28.6122 112.689 28.7804C112.564 28.9486 112.328 28.9799 112.163 28.8523C111.375 28.2397 110.554 27.6411 109.723 27.0726C109.551 26.9554 109.506 26.7176 109.621 26.5424C109.692 26.4322 109.812 26.373 109.932 26.373ZM44.9423 29.1354C45.0505 29.1354 45.1575 29.1829 45.2315 29.2746C45.3636 29.437 45.3408 29.6783 45.1803 29.8129C44.4141 30.4568 43.6558 31.1344 42.9283 31.8247C42.7769 31.9685 42.5401 31.9604 42.3977 31.8049C42.2566 31.6506 42.2645 31.4081 42.4171 31.2643C43.156 30.5624 43.9256 29.8756 44.7032 29.2224C44.7727 29.1632 44.8581 29.1354 44.9412 29.1354H44.9423ZM114.732 30.1134C114.82 30.1134 114.908 30.1447 114.978 30.2074C115.733 30.878 116.472 31.5775 117.175 32.2887L117.21 32.3247C117.357 32.4743 117.357 32.7157 117.21 32.8653C117.063 33.015 116.826 33.015 116.679 32.8653L116.646 32.8317C115.955 32.1321 115.228 31.443 114.485 30.784C114.329 30.6459 114.314 30.4046 114.449 30.2445C114.523 30.1575 114.628 30.1134 114.731 30.1134H114.732ZM40.526 33.3259C40.6194 33.3259 40.7116 33.3607 40.7844 33.4315C40.9347 33.5765 40.9404 33.819 40.797 33.9721C40.1116 34.7054 39.4387 35.4711 38.7955 36.2472C38.6623 36.4085 38.4254 36.4294 38.2672 36.2925C38.1089 36.1567 38.0884 35.9154 38.2228 35.7542C38.8752 34.9664 39.5594 34.1891 40.2539 33.4454C40.3279 33.3665 40.427 33.3271 40.526 33.3271V33.3259ZM119.025 34.4466C119.127 34.4466 119.23 34.4896 119.304 34.5731C119.959 35.3179 120.623 36.1115 121.277 36.9306C121.408 37.0942 121.383 37.3355 121.222 37.4677C121.062 37.6012 120.825 37.5756 120.695 37.412C120.048 36.6011 119.392 35.818 118.745 35.0824C118.607 34.9246 118.619 34.6833 118.773 34.5429C118.845 34.478 118.934 34.4455 119.024 34.4455L119.025 34.4466ZM36.6289 38.0269C36.7074 38.0269 36.786 38.0513 36.8531 38.1035C37.0194 38.23 37.0524 38.4689 36.9283 38.6383C36.334 39.4481 35.7522 40.2904 35.2011 41.1397C35.0873 41.316 34.8539 41.3647 34.682 41.2476C34.5089 41.1315 34.4622 40.8937 34.5761 40.7185C35.1351 39.8565 35.7249 39.0026 36.3283 38.1812C36.4023 38.0814 36.515 38.0281 36.6289 38.0281V38.0269ZM122.844 39.2207C122.958 39.2207 123.071 39.2741 123.145 39.3739C123.721 40.1593 124.32 41.0039 124.922 41.881C125.041 42.0539 125 42.2917 124.83 42.4135C124.66 42.5342 124.427 42.4924 124.307 42.3196C123.71 41.4483 123.117 40.6118 122.545 39.8321C122.421 39.6628 122.455 39.4238 122.62 39.2973C122.687 39.2463 122.766 39.2207 122.844 39.2207ZM33.2941 43.163C33.3579 43.163 33.4228 43.1792 33.4831 43.2152C33.6619 43.3219 33.7222 43.5551 33.6186 43.7373C33.1188 44.6109 32.6349 45.5147 32.1795 46.4242C32.085 46.6122 31.8596 46.6864 31.6751 46.5913C31.4907 46.495 31.4178 46.2653 31.5112 46.0773C31.9723 45.155 32.463 44.2385 32.9697 43.3533C33.0391 43.2315 33.1643 43.163 33.2941 43.163ZM126.316 44.264C126.438 44.264 126.556 44.3243 126.629 44.4345C127.14 45.2177 127.682 46.0634 128.285 47.0182C128.397 47.1957 128.347 47.4324 128.173 47.5461C127.999 47.6598 127.766 47.6088 127.655 47.4313C127.054 46.4799 126.514 45.6376 126.005 44.8568C125.89 44.6817 125.937 44.4438 126.11 44.3267C126.173 44.2837 126.245 44.2628 126.317 44.2628L126.316 44.264ZM30.5446 48.6518C30.5958 48.6518 30.6471 48.6622 30.696 48.6842C30.885 48.7701 30.9704 48.9952 30.8873 49.1878C30.4843 50.1147 30.0994 51.0672 29.7431 52.0209C29.6691 52.2181 29.4528 52.3179 29.2592 52.2413C29.0657 52.1659 28.9689 51.9455 29.0417 51.7483C29.4027 50.7818 29.7932 49.8166 30.2019 48.878C30.2634 48.7353 30.4011 48.6506 30.5446 48.6506V48.6518ZM129.595 49.4418C129.719 49.4418 129.841 49.5045 129.912 49.6193L130.445 50.4767C130.806 51.0591 131.168 51.6404 131.53 52.2216C131.642 52.4003 131.589 52.6358 131.415 52.7495C131.24 52.8632 131.009 52.8098 130.897 52.6323C130.534 52.0511 130.173 51.4687 129.811 50.8862L129.278 50.0289C129.168 49.8502 129.219 49.6147 129.394 49.501C129.457 49.4604 129.526 49.4418 129.595 49.4418ZM28.3882 54.4143C28.427 54.4143 28.4657 54.4201 28.5032 54.4329C28.7002 54.4979 28.8083 54.7125 28.7446 54.9144C28.4395 55.8773 28.1537 56.8658 27.8953 57.8508C27.8418 58.0549 27.6357 58.1744 27.4364 58.1211C27.2361 58.0665 27.1177 57.8566 27.1712 57.6535C27.433 56.6558 27.7233 55.6557 28.0319 54.68C28.0831 54.5187 28.23 54.4155 28.3882 54.4155V54.4143ZM132.844 54.6394C132.967 54.6394 133.088 54.7009 133.159 54.8134C133.757 55.7532 134.301 56.5931 134.822 57.3797C134.938 57.5549 134.892 57.7927 134.72 57.9099C134.548 58.0283 134.315 57.9818 134.2 57.8067C133.677 57.0166 133.131 56.1731 132.531 55.2299C132.418 55.0524 132.468 54.8157 132.641 54.7009C132.704 54.6591 132.775 54.6394 132.845 54.6394H132.844ZM136.23 59.7453C136.347 59.7453 136.462 59.801 136.536 59.9054C137.139 60.7686 137.74 61.5993 138.321 62.3754C138.447 62.5436 138.416 62.7826 138.251 62.9114C138.086 63.039 137.851 63.0077 137.725 62.8395C137.137 62.0564 136.532 61.2187 135.924 60.3486C135.804 60.1769 135.843 59.9379 136.011 59.8161C136.077 59.7685 136.154 59.7453 136.229 59.7453H136.23ZM26.8228 60.3625C26.849 60.3625 26.8751 60.3648 26.9025 60.3706C27.1051 60.4147 27.2338 60.6189 27.1905 60.8243C26.981 61.8139 26.792 62.8256 26.6281 63.8326C26.5939 64.0403 26.4015 64.1806 26.1966 64.147C25.9928 64.1122 25.8539 63.9161 25.888 63.7073C26.0543 62.6887 26.2455 61.6642 26.4573 60.663C26.4949 60.4843 26.6509 60.3614 26.8239 60.3614L26.8228 60.3625ZM139.919 64.6261C140.025 64.6261 140.131 64.6714 140.205 64.7607C140.857 65.5438 141.532 66.3096 142.212 67.037C142.354 67.1901 142.348 67.4314 142.198 67.5776C142.048 67.7226 141.811 67.7168 141.668 67.5637C140.979 66.8258 140.295 66.0497 139.633 65.255C139.499 65.0937 139.518 64.8535 139.676 64.7166C139.747 64.6552 139.833 64.6261 139.919 64.6261ZM25.8323 66.4383C25.8471 66.4383 25.8619 66.4383 25.8767 66.4407C26.0827 66.465 26.2296 66.6553 26.2057 66.8653C26.0884 67.8723 25.9939 68.8979 25.9211 69.9154C25.9063 70.1265 25.7253 70.2831 25.5203 70.2692C25.3142 70.2541 25.1583 70.0708 25.1731 69.8608C25.2459 68.8318 25.3427 67.7946 25.46 66.7759C25.4827 66.5822 25.6444 66.4383 25.8323 66.4383ZM144.09 69.087C144.181 69.087 144.274 69.1206 144.345 69.1891C145.084 69.8898 145.846 70.5651 146.607 71.1973C146.767 71.3308 146.791 71.5709 146.661 71.7345C146.53 71.8981 146.295 71.9236 146.134 71.7902C145.36 71.1486 144.587 70.4618 143.835 69.7495C143.684 69.6056 143.675 69.3643 143.816 69.2088C143.89 69.1276 143.99 69.087 144.09 69.087ZM25.3973 72.5826C25.3973 72.5826 25.4042 72.5826 25.4076 72.5826C25.6148 72.5884 25.7776 72.7636 25.7719 72.9747C25.7639 73.2555 25.7583 73.5374 25.7548 73.8193C25.7514 74.0815 25.7491 74.3449 25.7491 74.6082C25.7491 75.0839 25.756 75.5642 25.7685 76.0353C25.7742 76.2464 25.6114 76.4216 25.4042 76.4274C25.4008 76.4274 25.3973 76.4274 25.3939 76.4274C25.1913 76.4274 25.0251 76.2627 25.0194 76.0561C25.0068 75.5782 25 75.0909 25 74.6082C25 74.3414 25.0023 74.0746 25.0057 73.8089C25.0103 73.5235 25.0159 73.2393 25.0239 72.955C25.0296 72.7473 25.1958 72.5838 25.3985 72.5838L25.3973 72.5826ZM148.783 72.9689C148.857 72.9689 148.933 72.991 148.997 73.0374C149.824 73.6268 150.671 74.1813 151.516 74.686C151.695 74.7927 151.755 75.0271 151.65 75.2092C151.545 75.3914 151.315 75.4517 151.137 75.345C150.275 74.8298 149.411 74.2637 148.568 73.6639C148.399 73.5432 148.358 73.3042 148.476 73.1314C148.549 73.0246 148.665 72.9678 148.783 72.9678V72.9689ZM153.997 76.0782C154.05 76.0782 154.106 76.0898 154.157 76.1153C155.062 76.5539 155.988 76.9506 156.91 77.2952C157.105 77.3683 157.204 77.5876 157.133 77.7848C157.062 77.9832 156.846 78.0853 156.652 78.0122C155.708 77.6595 154.761 77.2534 153.834 76.8045C153.647 76.714 153.567 76.4854 153.656 76.2951C153.72 76.1571 153.855 76.077 153.996 76.077L153.997 76.0782ZM159.665 78.1874C159.696 78.1874 159.728 78.1909 159.759 78.199C160.722 78.4519 161.704 78.6561 162.681 78.8069C162.886 78.8382 163.027 79.0331 162.996 79.242C162.965 79.4508 162.771 79.5923 162.569 79.5622C161.567 79.4079 160.558 79.1979 159.571 78.938C159.37 78.8858 159.25 78.677 159.301 78.4728C159.344 78.3011 159.497 78.1862 159.664 78.1862L159.665 78.1874ZM25.5727 78.7396C25.7639 78.7396 25.9279 78.8881 25.9461 79.0877C26.0372 80.1109 26.1613 81.1319 26.3161 82.1192C26.3492 82.3269 26.2091 82.5229 26.0042 82.5566C25.8004 82.5902 25.608 82.4475 25.575 82.2387C25.4178 81.234 25.2915 80.1968 25.1992 79.1561C25.1799 78.9461 25.3324 78.7605 25.5385 78.7408C25.5499 78.7408 25.5613 78.7396 25.5727 78.7396ZM26.5279 84.8201C26.6975 84.8201 26.8524 84.9384 26.8922 85.1148C27.1222 86.1148 27.3909 87.1044 27.6903 88.0546C27.7541 88.2553 27.6448 88.4711 27.4478 88.5349C27.2509 88.5999 27.0391 88.4885 26.9765 88.2878C26.6713 87.3179 26.3981 86.3097 26.1624 85.2899C26.1146 85.0846 26.2399 84.8792 26.4414 84.8305C26.4698 84.8235 26.4994 84.8201 26.5279 84.8201ZM28.378 90.6789C28.5249 90.6789 28.6638 90.7671 28.7241 90.9133C29.1123 91.8588 29.5438 92.7846 30.0049 93.664C30.1028 93.8508 30.0334 94.0817 29.8512 94.1815C29.6691 94.2813 29.4414 94.2105 29.3435 94.0249C28.8721 93.1246 28.4304 92.1767 28.033 91.2103C27.9533 91.0154 28.0433 90.7915 28.2334 90.7103C28.2812 90.6905 28.3302 90.6801 28.378 90.6801V90.6789ZM31.2277 96.1027C31.3484 96.1027 31.4668 96.1619 31.5397 96.2721C31.633 96.4136 31.7275 96.5552 31.8243 96.6956C32.2957 97.3836 32.8011 98.0599 33.3283 98.705C33.4603 98.8674 33.4387 99.1087 33.2805 99.2433C33.1211 99.379 32.8842 99.357 32.7522 99.1934C32.2114 98.531 31.6922 97.8383 31.2095 97.1318C31.1104 96.9879 31.0137 96.8429 30.918 96.6967C30.803 96.5215 30.8486 96.2837 31.0205 96.1665C31.0843 96.1224 31.1571 96.1016 31.2288 96.1016L31.2277 96.1027ZM35.0873 100.832C35.1818 100.832 35.2774 100.868 35.3503 100.941C36.0505 101.641 36.8008 102.322 37.5784 102.964C37.7389 103.097 37.764 103.338 37.6342 103.501C37.5044 103.665 37.2676 103.69 37.107 103.558C36.3101 102.901 35.5427 102.204 34.8254 101.486C34.6774 101.339 34.6752 101.096 34.8209 100.945C34.8949 100.869 34.9917 100.83 35.0884 100.83L35.0873 100.832ZM39.7757 104.705C39.8475 104.705 39.9203 104.726 39.9841 104.77C40.7981 105.326 41.6566 105.86 42.5378 106.357C42.7188 106.46 42.7837 106.693 42.6835 106.877C42.5833 107.062 42.3545 107.129 42.1734 107.026C41.274 106.518 40.3962 105.972 39.5662 105.405C39.3943 105.288 39.3476 105.05 39.4638 104.875C39.5355 104.765 39.655 104.705 39.7757 104.705ZM45.0562 107.697C45.1086 107.697 45.1621 107.709 45.2122 107.732C46.1036 108.149 47.0349 108.542 47.981 108.904C48.1746 108.978 48.2736 109.199 48.2008 109.396C48.1279 109.593 47.9116 109.693 47.718 109.62C46.756 109.252 45.8076 108.851 44.9002 108.427C44.7123 108.339 44.6292 108.113 44.7158 107.92C44.7784 107.78 44.915 107.697 45.0573 107.697H45.0562ZM50.7146 109.866C50.7511 109.866 50.7875 109.87 50.8228 109.882C51.7655 110.172 52.7412 110.44 53.7215 110.678C53.923 110.727 54.0471 110.933 53.9993 111.139C53.9514 111.344 53.7499 111.47 53.5473 111.422C52.5522 111.18 51.5628 110.909 50.6053 110.613C50.4072 110.551 50.2945 110.339 50.3548 110.137C50.4038 109.973 50.5529 109.866 50.7135 109.866H50.7146ZM56.5962 111.297C56.6179 111.297 56.6406 111.3 56.6634 111.303C57.6334 111.482 58.633 111.637 59.6338 111.766C59.8387 111.793 59.9845 111.984 59.9594 112.193C59.9332 112.403 59.7454 112.55 59.5404 112.525C58.5272 112.394 57.515 112.237 56.5313 112.056C56.3275 112.019 56.192 111.821 56.2285 111.612C56.2615 111.427 56.4186 111.297 56.5974 111.297H56.5962ZM62.5951 112.074C62.6042 112.074 62.6144 112.074 62.6235 112.074C63.6129 112.15 64.6228 112.205 65.6258 112.235C65.833 112.241 65.9958 112.417 65.9902 112.628C65.9845 112.839 65.8148 113.011 65.6042 112.999C64.5898 112.969 63.5674 112.915 62.5666 112.837C62.3605 112.821 62.2057 112.637 62.2217 112.426C62.2365 112.226 62.4015 112.074 62.5951 112.074Z" fill="#F8931F"/>
</g>
<defs>
<clipPath id="clip0_2001_58">
<rect width="200" height="200" fill="white"/>
</clipPath>
</defs>
</svg>
