<svg width="36" height="35" viewBox="0 0 36 35" fill="none" xmlns="http://www.w3.org/2000/svg">
<path d="M17.5 13.8344C15.2063 13.8344 13.3344 15.7063 13.3344 18C13.3344 20.2938 15.2063 22.1657 17.5 22.1657C19.7938 22.1657 21.6657 20.2938 21.6657 18C21.6657 15.7063 19.7938 13.8344 17.5 13.8344ZM29.9938 18C29.9938 16.275 30.0094 14.5657 29.9125 12.8438C29.8157 10.8438 29.3594 9.06879 27.8969 7.60629C26.4313 6.14066 24.6594 5.68754 22.6594 5.59066C20.9344 5.49379 19.225 5.50941 17.5031 5.50941C15.7781 5.50941 14.0688 5.49379 12.3469 5.59066C10.3469 5.68754 8.5719 6.14379 7.1094 7.60629C5.64378 9.07191 5.19065 10.8438 5.09378 12.8438C4.9969 14.5688 5.01253 16.2782 5.01253 18C5.01253 19.7219 4.9969 21.4344 5.09378 23.1563C5.19065 25.1563 5.6469 26.9313 7.1094 28.3938C8.57503 29.8594 10.3469 30.3125 12.3469 30.4094C14.0719 30.5063 15.7813 30.4907 17.5031 30.4907C19.2282 30.4907 20.9375 30.5063 22.6594 30.4094C24.6594 30.3125 26.4344 29.8563 27.8969 28.3938C29.3625 26.9282 29.8157 25.1563 29.9125 23.1563C30.0125 21.4344 29.9938 19.725 29.9938 18ZM17.5 24.4094C13.9532 24.4094 11.0907 21.5469 11.0907 18C11.0907 14.4532 13.9532 11.5907 17.5 11.5907C21.0469 11.5907 23.9094 14.4532 23.9094 18C23.9094 21.5469 21.0469 24.4094 17.5 24.4094ZM24.1719 12.825C23.3438 12.825 22.675 12.1563 22.675 11.3282C22.675 10.5 23.3438 9.83129 24.1719 9.83129C25 9.83129 25.6688 10.5 25.6688 11.3282C25.669 11.5248 25.6305 11.7196 25.5553 11.9013C25.4802 12.083 25.3699 12.2481 25.2309 12.3872C25.0919 12.5262 24.9267 12.6365 24.745 12.7116C24.5633 12.7867 24.3685 12.8253 24.1719 12.825Z" fill="#353432"/>
</svg>
