<svg width="195" height="195" viewBox="0 0 195 195" fill="none" xmlns="http://www.w3.org/2000/svg">
<path d="M59.0711 139.575C59.0711 144.512 55.3036 148.139 50.1071 148.139C44.9106 148.139 41.1431 144.531 41.1431 139.575C41.1431 134.638 44.9106 131.105 50.1071 131.105C55.3036 131.105 59.0711 134.666 59.0711 139.575ZM46.6904 139.598C46.6904 141.925 48.3195 143.648 50.1811 143.648C52.0428 143.648 53.5329 141.925 53.5329 139.598C53.5329 137.272 52.0428 135.596 50.1811 135.596C48.2961 135.596 46.6904 137.272 46.6904 139.598Z" fill="#1DA99D"/>
<path d="M74.3586 139.645V147.766H69.1231V141.157C69.1231 140.087 68.5177 139.413 67.6096 139.413C66.5859 139.413 65.9351 140.227 65.9351 141.46V147.766H60.6982V135.034H65.9351V136.853C66.7951 135.554 68.1215 134.806 69.7974 134.806C72.4736 134.804 74.3586 136.713 74.3586 139.645Z" fill="#1DA99D"/>
<path d="M89.2044 142.577H80.9198C81.2693 143.578 82.0137 144.09 83.0374 144.09C83.9221 144.09 84.8289 143.7 85.6214 142.949L88.3496 145.625C86.9998 147.115 85.0459 147.953 82.5788 147.953C78.2267 147.953 75.644 145.393 75.644 141.458C75.644 137.43 78.3436 134.849 82.4398 134.849C86.8777 134.85 89.4837 137.877 89.2044 142.577ZM82.4788 138.342C81.5694 138.342 81.0134 139.087 80.8042 140.161H83.9689C84.0377 139.11 83.3869 138.342 82.4788 138.342Z" fill="#1DA99D"/>
<path d="M123.456 131.454L117.941 147.766H112.403L109.959 138.016L107.447 147.766H101.908L96.439 131.454H102.21L104.84 142.158L107.447 131.454H112.705L115.363 142.158L117.946 131.454H123.456Z" fill="#1DA99D"/>
<path d="M135.043 139.527V147.765H129.901V146.392C129.157 147.417 127.953 147.998 126.317 147.998C123.619 147.998 122.059 146.415 122.059 143.995C122.059 141.482 123.758 140.156 126.995 140.109H129.901C129.878 139.226 129.204 138.713 127.923 138.713C126.969 138.713 125.503 138.992 124.061 139.527L122.891 136.036C125.056 135.247 127.29 134.804 129.175 134.804C132.857 134.805 135.043 136.527 135.043 139.527ZM129.901 143.693V142.524H128.083C127.36 142.524 126.965 142.874 126.965 143.548C126.965 144.246 127.384 144.665 128.128 144.665C128.481 144.661 128.827 144.571 129.136 144.402C129.445 144.232 129.708 143.99 129.901 143.695V143.693Z" fill="#1DA99D"/>
<path d="M139.904 152.518C138.23 152.518 136.88 152.053 135.507 151.03L137.695 147.582C138.253 148.094 138.765 148.326 139.393 148.326C139.998 148.326 140.393 148.117 140.649 147.677L140.836 147.374L135.554 135.04H140.928L143.442 142.301L145.513 135.04H150.725L145.489 148.654C144.419 151.304 142.627 152.518 139.904 152.518Z" fill="#1DA99D"/>
<path d="M66.9572 166.74C66.5351 166.746 66.1219 166.619 65.7763 166.376C65.419 166.122 65.1393 165.773 64.9682 165.369C64.7668 164.9 64.668 164.394 64.6785 163.883V154.474C64.6785 154.307 64.7446 154.148 64.8623 154.03C64.9799 153.912 65.1396 153.846 65.306 153.846C65.4724 153.846 65.632 153.912 65.7497 154.03C65.8673 154.148 65.9334 154.307 65.9334 154.474V163.883C65.9157 164.288 66.0159 164.69 66.2219 165.039C66.294 165.172 66.4001 165.283 66.5293 165.362C66.6585 165.44 66.8061 165.483 66.9572 165.485H67.369C67.4428 165.483 67.5162 165.498 67.5836 165.528C67.6511 165.558 67.7109 165.603 67.7587 165.659C67.8629 165.787 67.9161 165.948 67.9081 166.113C67.9109 166.199 67.8938 166.285 67.8579 166.363C67.8221 166.442 67.7686 166.511 67.7016 166.566C67.5495 166.687 67.359 166.748 67.165 166.74H66.9572Z" fill="#176D7E"/>
<path d="M73.2813 166.822C72.4558 166.836 71.6412 166.631 70.9207 166.228C70.2385 165.843 69.6736 165.281 69.2864 164.6C68.8958 163.872 68.6914 163.058 68.6914 162.231C68.6914 161.404 68.8958 160.591 69.2864 159.862C69.6723 159.179 70.2374 158.614 70.9207 158.228C71.6448 157.837 72.4546 157.633 73.2774 157.633C74.1001 157.633 74.9099 157.837 75.634 158.228C76.3133 158.616 76.8749 159.181 77.2592 159.862C77.6644 160.589 77.8748 161.408 77.8698 162.24C77.8839 163.066 77.6762 163.881 77.2683 164.6C76.8782 165.28 76.3142 165.844 75.634 166.234C74.9158 166.636 74.1037 166.838 73.2813 166.822ZM73.2813 165.667C73.8831 165.676 74.4761 165.522 74.9974 165.221C75.4981 164.93 75.9093 164.507 76.1861 163.999C76.4791 163.457 76.6272 162.849 76.6161 162.233C76.6268 161.614 76.4787 161.004 76.1861 160.458C75.9111 159.946 75.4996 159.521 74.9974 159.228C74.4724 158.936 73.8815 158.783 73.2806 158.783C72.6797 158.783 72.0888 158.936 71.5638 159.228C71.0605 159.522 70.6468 159.947 70.3673 160.458C70.0698 161.002 69.9189 161.614 69.9295 162.233C69.9184 162.85 70.0694 163.459 70.3673 163.999C70.6485 164.507 71.062 164.929 71.5638 165.221C72.0856 165.522 72.6791 165.676 73.2813 165.667Z" fill="#176D7E"/>
<path d="M84.3231 166.822C83.5141 166.837 82.7157 166.635 82.0119 166.236C81.3459 165.85 80.7999 165.288 80.4348 164.611C80.0462 163.879 79.8504 163.061 79.8657 162.233C79.8486 161.396 80.054 160.57 80.4607 159.839C80.8454 159.157 81.4109 158.594 82.095 158.212C82.8238 157.828 83.6354 157.627 84.4595 157.627C85.2835 157.627 86.0951 157.828 86.8239 158.212C87.5035 158.594 88.0638 159.157 88.4426 159.839C88.8432 160.573 89.0502 161.397 89.0441 162.233L88.3023 162.623C88.3161 163.378 88.1401 164.124 87.7904 164.794C87.4669 165.413 86.9781 165.931 86.3783 166.289C85.7551 166.652 85.044 166.836 84.3231 166.822ZM84.488 170.306C83.6959 170.323 82.9107 170.156 82.1938 169.819C81.5525 169.51 80.9927 169.055 80.5595 168.49C80.503 168.435 80.4595 168.367 80.4323 168.293C80.4051 168.219 80.3949 168.14 80.4023 168.061C80.4111 167.984 80.4371 167.909 80.4785 167.844C80.5199 167.778 80.5755 167.722 80.6413 167.68C80.7102 167.632 80.7883 167.598 80.8708 167.581C80.9532 167.564 81.0383 167.565 81.1207 167.582C81.2851 167.608 81.4329 167.697 81.5325 167.83C81.8666 168.236 82.2868 168.563 82.7628 168.787C83.3086 169.038 83.9043 169.162 84.5049 169.15C85.091 169.158 85.668 169.004 86.1717 168.704C86.6724 168.401 87.0808 167.967 87.3526 167.449C87.6552 166.863 87.8058 166.211 87.7904 165.551V163.041L88.2685 162.084L89.048 162.233V165.601C89.0615 166.439 88.8569 167.267 88.4543 168.003C88.0736 168.698 87.5156 169.281 86.8369 169.692C86.1262 170.111 85.3129 170.323 84.488 170.306ZM84.4556 165.667C85.0596 165.679 85.6556 165.527 86.1808 165.229C86.6781 164.941 87.0863 164.521 87.3604 164.016C87.6547 163.468 87.8028 162.854 87.7904 162.233C87.8023 161.609 87.6543 160.992 87.3604 160.442C87.0878 159.933 86.6794 159.511 86.1808 159.22C85.6556 158.922 85.0596 158.771 84.4556 158.783C83.8488 158.772 83.25 158.923 82.7212 159.22C82.2189 159.509 81.8072 159.932 81.5325 160.442C81.2397 160.993 81.0921 161.609 81.1038 162.233C81.0917 162.854 81.2393 163.468 81.5325 164.016C81.8088 164.522 82.2203 164.942 82.7212 165.229C83.25 165.527 83.8488 165.678 84.4556 165.667Z" fill="#176D7E"/>
<path d="M92.415 155.992C92.2982 155.994 92.1822 155.972 92.0742 155.928C91.9663 155.883 91.8687 155.816 91.7875 155.732C91.7019 155.648 91.6347 155.546 91.59 155.435C91.5453 155.323 91.5241 155.203 91.5277 155.083C91.5223 154.961 91.5439 154.84 91.5911 154.727C91.6383 154.615 91.7098 154.515 91.8005 154.433C91.975 154.277 92.2016 154.192 92.4358 154.194C92.6649 154.194 92.8859 154.279 93.0554 154.433C93.1461 154.515 93.2176 154.615 93.2648 154.727C93.312 154.84 93.3337 154.961 93.3283 155.083C93.3291 155.203 93.3062 155.321 93.2608 155.432C93.2154 155.543 93.1484 155.643 93.0638 155.728C92.9792 155.812 92.8786 155.879 92.7679 155.925C92.6572 155.97 92.5385 155.993 92.4189 155.992H92.415ZM92.4306 166.74C92.3433 166.748 92.2554 166.736 92.1731 166.706C92.0908 166.676 92.016 166.629 91.9541 166.567C91.8921 166.505 91.8445 166.43 91.8146 166.348C91.7847 166.266 91.7732 166.178 91.781 166.09V158.348C91.7728 158.26 91.7839 158.172 91.8137 158.09C91.8434 158.007 91.891 157.932 91.953 157.87C92.0151 157.808 92.09 157.76 92.1726 157.731C92.2551 157.701 92.3432 157.69 92.4306 157.698C92.5141 157.694 92.5975 157.708 92.6757 157.738C92.7539 157.767 92.8252 157.813 92.8853 157.871C92.9444 157.933 92.9903 158.007 93.02 158.088C93.0497 158.169 93.0626 158.255 93.058 158.341V166.084C93.0629 166.17 93.05 166.256 93.0203 166.337C92.9906 166.418 92.9446 166.492 92.8853 166.554C92.8263 166.615 92.7555 166.662 92.6772 166.694C92.599 166.726 92.515 166.742 92.4306 166.74Z" fill="#176D7E"/>
<path d="M99.4455 166.822C98.7876 166.821 98.1346 166.709 97.5137 166.492C96.9201 166.301 96.3858 165.96 95.9625 165.502C95.9049 165.444 95.8614 165.374 95.8355 165.297C95.8095 165.219 95.8019 165.137 95.8131 165.056C95.8381 164.887 95.9269 164.733 96.0613 164.626C96.193 164.525 96.3579 164.478 96.5232 164.493C96.6884 164.509 96.8417 164.586 96.9525 164.71C97.2361 165.031 97.5969 165.275 98.0009 165.419C98.4633 165.589 98.9529 165.673 99.4455 165.667C100.26 165.667 100.849 165.527 101.212 165.246C101.378 165.132 101.515 164.981 101.613 164.804C101.71 164.628 101.765 164.431 101.774 164.23C101.774 163.833 101.586 163.506 101.212 163.248C100.838 162.99 100.222 162.791 99.3624 162.652C98.2512 162.478 97.4371 162.171 96.92 161.728C96.4029 161.285 96.1431 160.762 96.1405 160.159C96.1226 159.653 96.2805 159.157 96.5874 158.756C96.8985 158.371 97.3099 158.079 97.7761 157.914C98.2993 157.722 98.8531 157.627 99.4104 157.633C100.066 157.617 100.717 157.747 101.316 158.012C101.825 158.245 102.271 158.596 102.615 159.036C102.666 159.098 102.704 159.169 102.727 159.245C102.749 159.322 102.755 159.403 102.745 159.482C102.733 159.561 102.703 159.636 102.658 159.702C102.614 159.767 102.554 159.822 102.485 159.862C102.348 159.94 102.187 159.966 102.032 159.936C101.863 159.91 101.708 159.825 101.594 159.697C101.336 159.39 101.007 159.15 100.637 158.996C100.237 158.84 99.8108 158.764 99.3819 158.772C98.7756 158.772 98.2915 158.896 97.9294 159.144C97.5657 159.392 97.3851 159.703 97.3851 160.077C97.3794 160.313 97.4515 160.545 97.5904 160.737C97.7794 160.962 98.0245 161.132 98.301 161.232C98.7555 161.407 99.229 161.53 99.7118 161.595C100.538 161.728 101.19 161.923 101.668 162.181C102.086 162.385 102.44 162.7 102.692 163.091C102.895 163.433 103 163.824 102.997 164.222C103.006 164.715 102.846 165.195 102.544 165.584C102.213 165.993 101.78 166.306 101.289 166.493C100.702 166.723 100.076 166.835 99.4455 166.822Z" fill="#176D7E"/>
<path d="M104.614 159.144C104.538 159.146 104.463 159.134 104.392 159.107C104.321 159.08 104.257 159.04 104.202 158.988C104.148 158.938 104.106 158.878 104.077 158.811C104.048 158.744 104.034 158.671 104.035 158.598C104.033 158.523 104.046 158.448 104.075 158.378C104.104 158.309 104.147 158.246 104.202 158.194C104.257 158.142 104.321 158.101 104.392 158.074C104.463 158.047 104.538 158.035 104.614 158.037H108.824C108.9 158.035 108.975 158.047 109.046 158.074C109.116 158.101 109.181 158.142 109.236 158.194C109.291 158.246 109.334 158.309 109.362 158.378C109.391 158.448 109.405 158.523 109.402 158.598C109.403 158.671 109.389 158.744 109.361 158.811C109.332 158.878 109.289 158.938 109.236 158.988C109.181 159.04 109.116 159.08 109.046 159.107C108.975 159.134 108.9 159.146 108.824 159.144H104.614ZM108.724 166.739C108.184 166.749 107.653 166.61 107.187 166.338C106.721 166.066 106.339 165.67 106.083 165.195C105.815 164.69 105.681 164.124 105.693 163.552V155.48C105.688 155.309 105.751 155.143 105.867 155.018C105.926 154.957 105.997 154.91 106.075 154.879C106.153 154.848 106.237 154.834 106.321 154.837C106.407 154.833 106.493 154.847 106.574 154.878C106.655 154.909 106.728 154.957 106.789 155.018C106.851 155.079 106.898 155.152 106.929 155.233C106.961 155.314 106.974 155.4 106.97 155.487V163.56C106.95 164.066 107.127 164.56 107.465 164.938C107.626 165.114 107.822 165.253 108.042 165.345C108.261 165.438 108.498 165.482 108.736 165.474H109.183C109.263 165.472 109.343 165.487 109.417 165.518C109.491 165.55 109.557 165.597 109.611 165.656C109.724 165.784 109.783 165.949 109.776 166.119C109.779 166.205 109.763 166.29 109.729 166.368C109.694 166.447 109.643 166.516 109.578 166.572C109.44 166.69 109.264 166.752 109.083 166.746L108.724 166.739Z" fill="#176D7E"/>
<path d="M112.719 155.992C112.602 155.994 112.486 155.972 112.378 155.928C112.27 155.883 112.173 155.816 112.092 155.732C112.006 155.648 111.939 155.546 111.894 155.435C111.849 155.323 111.828 155.203 111.832 155.083C111.826 154.961 111.848 154.84 111.895 154.727C111.942 154.615 112.014 154.515 112.105 154.433C112.279 154.277 112.506 154.192 112.74 154.194C112.969 154.194 113.19 154.279 113.36 154.433C113.45 154.515 113.522 154.615 113.569 154.727C113.616 154.84 113.638 154.961 113.632 155.083C113.633 155.203 113.61 155.321 113.565 155.432C113.52 155.543 113.453 155.643 113.368 155.728C113.283 155.812 113.183 155.879 113.072 155.925C112.961 155.97 112.843 155.993 112.723 155.992H112.719ZM112.735 166.74C112.648 166.747 112.561 166.735 112.479 166.704C112.398 166.674 112.324 166.626 112.263 166.564C112.201 166.502 112.154 166.428 112.125 166.346C112.095 166.264 112.084 166.177 112.092 166.09V158.348C112.084 158.261 112.095 158.173 112.124 158.091C112.153 158.009 112.2 157.935 112.262 157.873C112.323 157.811 112.397 157.763 112.479 157.733C112.561 157.703 112.648 157.691 112.735 157.698C112.818 157.694 112.902 157.708 112.98 157.738C113.058 157.767 113.129 157.813 113.189 157.871C113.249 157.933 113.294 158.007 113.324 158.088C113.354 158.169 113.367 158.255 113.362 158.341V166.084C113.367 166.17 113.354 166.256 113.324 166.337C113.295 166.418 113.249 166.492 113.189 166.554C113.13 166.615 113.06 166.662 112.981 166.694C112.903 166.726 112.819 166.742 112.735 166.74Z" fill="#176D7E"/>
<path d="M120.625 166.822C119.812 166.836 119.01 166.628 118.306 166.22C117.636 165.824 117.083 165.257 116.704 164.577C116.308 163.862 116.106 163.056 116.118 162.238C116.104 161.416 116.297 160.604 116.68 159.876C117.038 159.202 117.57 158.635 118.22 158.234C118.897 157.825 119.675 157.616 120.465 157.632C121.106 157.623 121.74 157.756 122.323 158.021C122.905 158.298 123.417 158.705 123.817 159.21C123.872 159.264 123.913 159.33 123.936 159.404C123.959 159.477 123.963 159.556 123.947 159.631C123.906 159.791 123.806 159.931 123.666 160.021C123.609 160.064 123.543 160.094 123.473 160.11C123.404 160.125 123.331 160.126 123.261 160.112C123.106 160.081 122.968 159.996 122.871 159.871C122.576 159.522 122.206 159.243 121.789 159.054C121.372 158.866 120.918 158.773 120.46 158.783C119.887 158.771 119.322 158.925 118.835 159.228C118.365 159.526 117.988 159.949 117.745 160.449C117.477 161.005 117.344 161.616 117.355 162.233C117.344 162.847 117.486 163.454 117.768 163.999C118.033 164.506 118.433 164.929 118.925 165.221C119.439 165.523 120.027 165.677 120.624 165.667C121.024 165.671 121.423 165.612 121.805 165.493C122.155 165.382 122.478 165.199 122.754 164.956C122.869 164.854 123.013 164.791 123.166 164.776C123.308 164.766 123.448 164.813 123.556 164.905C123.679 165.01 123.759 165.158 123.779 165.319C123.787 165.391 123.777 165.465 123.749 165.533C123.722 165.601 123.678 165.661 123.622 165.708C122.825 166.451 121.826 166.823 120.625 166.822Z" fill="#176D7E"/>
<path d="M129.576 166.822C128.918 166.821 128.265 166.709 127.644 166.492C127.05 166.301 126.515 165.96 126.092 165.502C126.034 165.444 125.991 165.374 125.966 165.296C125.94 165.219 125.932 165.137 125.943 165.056C125.968 164.887 126.057 164.733 126.192 164.626C126.323 164.525 126.488 164.478 126.653 164.493C126.819 164.509 126.972 164.586 127.083 164.71C127.366 165.031 127.727 165.275 128.131 165.419C128.594 165.589 129.083 165.673 129.576 165.667C130.39 165.667 130.978 165.527 131.341 165.246C131.507 165.132 131.644 164.981 131.742 164.804C131.839 164.628 131.894 164.431 131.903 164.23C131.903 163.833 131.715 163.506 131.341 163.248C130.967 162.99 130.351 162.791 129.493 162.652C128.381 162.478 127.566 162.171 127.049 161.728C126.532 161.285 126.272 160.762 126.27 160.159C126.252 159.654 126.409 159.158 126.715 158.756C127.027 158.371 127.438 158.08 127.904 157.914C128.427 157.722 128.981 157.627 129.538 157.633C130.194 157.617 130.845 157.746 131.445 158.012C131.954 158.245 132.399 158.596 132.744 159.036C132.795 159.098 132.833 159.169 132.856 159.246C132.878 159.322 132.884 159.403 132.874 159.482C132.862 159.561 132.832 159.635 132.787 159.701C132.742 159.767 132.683 159.822 132.614 159.862C132.477 159.94 132.316 159.966 132.161 159.937C131.992 159.91 131.837 159.825 131.723 159.697C131.465 159.39 131.136 159.15 130.766 158.996C130.366 158.84 129.94 158.764 129.511 158.772C128.905 158.772 128.42 158.896 128.058 159.144C127.696 159.392 127.515 159.703 127.513 160.077C127.508 160.313 127.58 160.545 127.719 160.737C127.908 160.962 128.154 161.132 128.43 161.232C128.885 161.407 129.358 161.53 129.841 161.596C130.665 161.728 131.318 161.923 131.797 162.181C132.215 162.385 132.569 162.7 132.821 163.091C133.023 163.434 133.128 163.825 133.126 164.222C133.134 164.715 132.974 165.195 132.672 165.584C132.342 165.993 131.909 166.306 131.418 166.493C130.832 166.723 130.206 166.835 129.576 166.822Z" fill="#176D7E"/>
<path d="M111.562 82.1662C97.8297 82.1662 111.562 98.7016 111.562 98.7016C111.562 98.7016 125.292 82.1662 111.562 82.1662ZM111.562 92.6255C110.644 92.6258 109.746 92.3538 108.983 91.8441C108.22 91.3343 107.625 90.6097 107.273 89.7618C106.922 88.9139 106.83 87.9808 107.009 87.0805C107.188 86.1802 107.63 85.3533 108.278 84.7041C108.927 84.055 109.754 83.6129 110.654 83.4338C111.555 83.2546 112.488 83.3464 113.336 83.6976C114.184 84.0488 114.909 84.6436 115.419 85.4068C115.929 86.1699 116.201 87.0672 116.201 87.985C116.201 88.5946 116.082 89.1983 115.849 89.7616C115.616 90.3249 115.274 90.8368 114.843 91.268C114.412 91.6992 113.901 92.0412 113.338 92.2746C112.775 92.508 112.171 92.6281 111.562 92.6281V92.6255Z" fill="#1DA99D"/>
<path d="M111.563 83.9799C110.77 83.9796 109.995 84.2144 109.336 84.6545C108.677 85.0947 108.163 85.7204 107.86 86.4526C107.557 87.1847 107.477 87.9904 107.632 88.7677C107.786 89.545 108.168 90.259 108.728 90.8194C109.289 91.3798 110.003 91.7614 110.78 91.916C111.557 92.0705 112.363 91.9911 113.095 91.6877C113.827 91.3843 114.453 90.8706 114.893 90.2115C115.333 89.5524 115.568 88.7776 115.568 87.9851C115.568 86.9228 115.146 85.9041 114.395 85.153C113.644 84.4018 112.625 83.9799 111.563 83.9799ZM111.563 91.346C110.898 91.3457 110.248 91.1484 109.696 90.7789C109.143 90.4095 108.713 89.8845 108.458 89.2703C108.204 88.6562 108.138 87.9805 108.268 87.3286C108.398 86.6768 108.718 86.078 109.188 85.6081C109.658 85.1383 110.257 84.8183 110.909 84.6887C111.561 84.5591 112.236 84.6258 112.85 84.8802C113.464 85.1346 113.989 85.5654 114.358 86.118C114.728 86.6707 114.925 87.3204 114.925 87.9851C114.924 88.8766 114.57 89.7314 113.939 90.3617C113.309 90.9919 112.454 91.346 111.563 91.346Z" fill="#1DA99D"/>
<path d="M113.121 101.93C113.121 102.239 113.029 102.54 112.858 102.796C112.687 103.053 112.443 103.252 112.158 103.37C111.874 103.488 111.56 103.519 111.258 103.459C110.955 103.399 110.678 103.251 110.46 103.033C110.242 102.815 110.093 102.537 110.033 102.234C109.973 101.932 110.004 101.618 110.122 101.334C110.24 101.049 110.439 100.805 110.696 100.634C110.952 100.463 111.254 100.371 111.562 100.371C111.975 100.371 112.372 100.535 112.664 100.828C112.957 101.12 113.121 101.517 113.121 101.93Z" fill="#1DA99D"/>
<path d="M99.2782 86.7001C99.9942 85.9396 100.498 85.0041 100.738 83.9876C100.978 82.9711 100.947 81.9092 100.648 80.9086L94.426 60.138C94.2133 59.4294 94.1891 58.6774 94.3559 57.9566C94.5226 57.2357 94.8746 56.5708 95.3769 56.0276L100.988 49.9528C102.387 48.4395 103.425 46.6298 104.027 44.6588L104.416 43.3792C104.487 43.1485 104.492 42.9025 104.431 42.6692C104.369 42.4358 104.243 42.2245 104.067 42.0593C103.891 41.8941 103.672 41.7817 103.435 41.7348C103.198 41.688 102.953 41.7086 102.727 41.7943L101.474 42.2606C99.5433 42.9809 97.7999 44.1269 96.3734 45.6137L90.6494 51.5897C90.1373 52.1237 89.4948 52.515 88.7854 52.725C88.076 52.9351 87.3241 52.9566 86.6039 52.7875L65.5007 47.8313C64.4839 47.5923 63.4221 47.6251 62.4219 47.9263C61.4217 48.2275 60.5184 48.7866 59.8027 49.5475C68.7836 51.9197 77.9399 57.0721 81.675 59.3157C81.7941 59.3874 81.8956 59.4851 81.9718 59.6015C82.048 59.7179 82.0971 59.8499 82.1153 59.9878C82.1335 60.1257 82.1205 60.2659 82.0771 60.3981C82.0337 60.5303 81.9611 60.651 81.8646 60.7512L80.2875 59.8899C79.9173 59.6866 79.4839 59.6308 79.0743 59.7336C78.6647 59.8365 78.3091 60.0905 78.079 60.4446L76.7967 62.4206C76.6231 62.6876 76.5431 63.0048 76.5694 63.3222C76.5966 63.653 76.5085 63.9831 76.3199 64.2563L75.8405 64.9526L76.6005 64.3849C76.8366 64.2081 77.1216 64.1088 77.4164 64.1004L77.914 64.0848L78.7116 64.0458L77.4982 65.3112C76.719 66.1246 76.0458 67.0334 75.495 68.016L72.7252 72.9605L66.8934 70.4921C66.2865 70.2366 65.6111 70.1936 64.9767 70.3703C64.3423 70.5469 63.7862 70.9327 63.3987 71.4652L62.1918 73.1229L70.6427 76.6708L69.8723 78.0479C69.8446 78.0962 69.834 78.1525 69.8421 78.2076C69.8503 78.2627 69.8767 78.3134 69.9172 78.3517C69.9577 78.3899 70.0099 78.4134 70.0654 78.4184C70.1209 78.4234 70.1764 78.4096 70.2231 78.3792L71.5508 77.5256L75.6028 85.7427L77.1968 84.4266C77.7019 84.0097 78.052 83.4351 78.1911 82.7951C78.3301 82.1552 78.2499 81.4871 77.9633 80.8982L75.1832 75.182L79.8977 72.1563C80.8454 71.5473 81.7119 70.8205 82.4765 69.9933L83.6665 68.7045L83.6756 69.5035L83.6912 70.0011C83.7005 70.2958 83.6184 70.5862 83.4561 70.8325L82.9364 71.6263L83.6029 71.1066C83.8643 70.9024 84.1884 70.795 84.5201 70.8026C84.8385 70.8093 85.1501 70.7102 85.4061 70.5207L87.3028 69.1137C87.6424 68.8625 87.8743 68.4921 87.9522 68.0769C88.03 67.6618 87.9479 67.2325 87.7224 66.8753L86.7624 65.354C86.8564 65.2515 86.9723 65.1715 87.1016 65.12C87.2308 65.0685 87.37 65.0469 87.5088 65.0568C87.6476 65.0667 87.7824 65.1078 87.903 65.177C88.0237 65.2462 88.1272 65.3418 88.2057 65.4567C90.6689 69.0527 96.3669 77.879 99.2782 86.7001Z" fill="#1DA99D"/>
<path d="M68.6262 101.601C68.5951 101.708 68.5587 101.816 68.5184 101.92C68.5007 101.964 68.4661 102 68.422 102.02C68.378 102.039 68.3281 102.04 68.2833 102.022C68.261 102.014 68.2407 102.001 68.2235 101.984C68.2063 101.968 68.1925 101.948 68.1829 101.926C68.1734 101.904 68.1683 101.881 68.1679 101.857C68.1675 101.833 68.1718 101.809 68.1806 101.787C68.3196 101.433 68.4003 101.059 68.4197 100.679C68.4207 100.655 68.4264 100.632 68.4364 100.611C68.4464 100.589 68.4606 100.57 68.4781 100.554C68.4956 100.538 68.516 100.525 68.5383 100.517C68.5606 100.509 68.5843 100.505 68.608 100.506C68.6318 100.507 68.655 100.513 68.6766 100.523C68.6981 100.533 68.7174 100.547 68.7335 100.565C68.7495 100.582 68.7619 100.603 68.7701 100.625C68.7782 100.647 68.7819 100.671 68.7808 100.695C68.7666 101.002 68.7147 101.307 68.6262 101.601ZM67.9286 102.942C67.9222 102.964 67.9116 102.985 67.8974 103.003C67.6411 103.334 67.3342 103.622 66.988 103.857C66.9683 103.87 66.9462 103.879 66.9229 103.884C66.8997 103.889 66.8757 103.889 66.8524 103.884C66.8292 103.879 66.807 103.87 66.7872 103.857C66.7675 103.844 66.7505 103.827 66.7373 103.807C66.7241 103.788 66.7149 103.766 66.7102 103.742C66.7055 103.719 66.7055 103.695 66.7101 103.672C66.7146 103.648 66.7238 103.626 66.7369 103.607C66.75 103.587 66.767 103.57 66.7867 103.557C67.1029 103.342 67.3835 103.079 67.6181 102.777C67.6331 102.758 67.6517 102.742 67.6729 102.73C67.6942 102.718 67.7176 102.71 67.7417 102.708C67.7659 102.705 67.7904 102.707 67.8138 102.714C67.8372 102.721 67.859 102.732 67.8779 102.747C67.9048 102.771 67.9239 102.802 67.9329 102.837C67.942 102.872 67.9405 102.908 67.9286 102.942ZM68.6055 99.5644C68.5969 99.5922 68.5819 99.6176 68.5615 99.6384C68.5412 99.6592 68.5162 99.6748 68.4885 99.6839C68.466 99.6916 68.4422 99.6948 68.4185 99.6932C68.3947 99.6916 68.3715 99.6853 68.3502 99.6746C68.329 99.664 68.31 99.6492 68.2945 99.6312C68.279 99.6132 68.2672 99.5922 68.2599 99.5696C68.1398 99.2079 67.9645 98.8669 67.7402 98.5589C67.7262 98.5397 67.7162 98.5179 67.7106 98.4948C67.705 98.4717 67.704 98.4478 67.7077 98.4243C67.7114 98.4008 67.7196 98.3783 67.732 98.3581C67.7444 98.3378 67.7607 98.3202 67.7798 98.3062C67.799 98.2922 67.8208 98.2821 67.8439 98.2765C67.867 98.2709 67.8909 98.27 67.9144 98.2736C67.9379 98.2773 67.9604 98.2856 67.9806 98.298C68.0009 98.3104 68.0185 98.3266 68.0325 98.3458C68.2806 98.6836 68.4748 99.0579 68.608 99.4552C68.6164 99.4891 68.6155 99.5245 68.6055 99.5579V99.5644ZM65.963 104.241C65.9551 104.273 65.9388 104.301 65.916 104.324C65.8931 104.347 65.8645 104.363 65.8331 104.371C65.4704 104.452 65.0958 104.463 64.7288 104.405C64.6743 104.396 64.621 104.387 64.5677 104.375C64.5445 104.37 64.5224 104.361 64.5027 104.347C64.483 104.334 64.4662 104.317 64.4532 104.297C64.4402 104.277 64.4312 104.255 64.4268 104.231C64.4223 104.208 64.4226 104.184 64.4274 104.161C64.4323 104.137 64.4417 104.115 64.4551 104.096C64.4685 104.076 64.4856 104.059 64.5056 104.046C64.5255 104.033 64.5477 104.024 64.5711 104.02C64.5945 104.015 64.6185 104.016 64.6418 104.02L64.786 104.048C65.1081 104.099 65.4368 104.088 65.7551 104.018C65.7784 104.013 65.8023 104.012 65.8258 104.016C65.8492 104.02 65.8715 104.029 65.8916 104.042C65.9116 104.055 65.9289 104.071 65.9425 104.091C65.9561 104.11 65.9657 104.132 65.9708 104.156C65.9747 104.182 65.972 104.209 65.963 104.235V104.241ZM67.2232 97.6443C67.2162 97.6662 67.2057 97.6868 67.192 97.7053C67.1771 97.7246 67.1584 97.7407 67.1371 97.7526C67.1158 97.7645 67.0924 97.772 67.0681 97.7747C67.0439 97.7773 67.0194 97.7751 66.996 97.7681C66.9726 97.7611 66.9509 97.7495 66.9322 97.7339C66.6295 97.4943 66.2993 97.2915 65.9487 97.1298C65.9088 97.1073 65.8789 97.0706 65.8649 97.0269C65.8509 96.9833 65.8539 96.936 65.8733 96.8945C65.8926 96.853 65.9269 96.8203 65.9693 96.803C66.0117 96.7857 66.0591 96.785 66.102 96.8011C66.4779 96.9755 66.832 97.1935 67.1569 97.4507C67.185 97.472 67.2063 97.5011 67.218 97.5343C67.2298 97.5676 67.2316 97.6035 67.2232 97.6378V97.6443ZM57.8473 124.234C57.8342 124.28 57.8033 124.319 57.7614 124.342C57.7195 124.366 57.67 124.371 57.6239 124.358C57.5777 124.345 57.5386 124.314 57.5152 124.272C57.4918 124.231 57.4861 124.181 57.4992 124.135C57.5979 123.771 57.6875 123.383 57.759 122.98C57.7684 122.933 57.7959 122.892 57.8355 122.865C57.875 122.838 57.9236 122.827 57.9707 122.836C57.9941 122.84 58.0165 122.849 58.0364 122.862C58.0563 122.875 58.0735 122.892 58.0869 122.912C58.1003 122.931 58.1097 122.953 58.1145 122.977C58.1193 123 58.1195 123.024 58.1149 123.048C58.0357 123.459 57.9448 123.857 57.8434 124.23L57.8473 124.234ZM57.4797 125.376V125.387C57.3363 125.768 57.1711 126.141 56.9847 126.503C56.961 126.543 56.9228 126.572 56.8782 126.585C56.8335 126.598 56.7857 126.593 56.7445 126.572C56.7033 126.55 56.6718 126.514 56.6566 126.47C56.6413 126.426 56.6435 126.378 56.6625 126.336C56.8427 125.987 57.0023 125.628 57.1406 125.26C57.1578 125.215 57.192 125.179 57.2358 125.159C57.2796 125.139 57.3295 125.138 57.3744 125.155C57.4167 125.171 57.451 125.203 57.4706 125.244C57.4901 125.285 57.4934 125.332 57.4797 125.376ZM58.3059 121.881C58.301 121.904 58.2915 121.926 58.278 121.946C58.2646 121.965 58.2474 121.982 58.2275 121.995C58.2076 122.008 58.1854 122.017 58.162 122.021C58.1387 122.025 58.1148 122.025 58.0916 122.02C58.0684 122.015 58.0464 122.005 58.0268 121.992C58.0073 121.979 57.9906 121.961 57.9777 121.942C57.9647 121.922 57.9559 121.899 57.9516 121.876C57.9473 121.853 57.9476 121.829 57.9525 121.806C57.9798 121.602 58.0045 121.39 58.0279 121.174C58.0461 120.992 58.0643 120.807 58.0812 120.621C58.0889 120.576 58.1133 120.535 58.1495 120.507C58.1857 120.479 58.2312 120.466 58.2767 120.47C58.3223 120.474 58.3647 120.495 58.3953 120.529C58.426 120.563 58.4428 120.607 58.4423 120.653C58.4254 120.84 58.4072 121.029 58.3878 121.213C58.3644 121.43 58.3384 121.646 58.3111 121.854C58.31 121.863 58.3083 121.872 58.3059 121.881ZM63.6726 103.779C63.6674 103.795 63.6604 103.811 63.6518 103.826C63.6255 103.866 63.5845 103.894 63.5376 103.904C63.4907 103.914 63.4417 103.906 63.4011 103.88C63.0504 103.652 62.7348 103.373 62.4644 103.054C62.4365 103.017 62.4238 102.97 62.4289 102.924C62.434 102.878 62.4566 102.836 62.4919 102.806C62.5273 102.776 62.5728 102.76 62.6191 102.763C62.6654 102.765 62.7091 102.785 62.7412 102.819C62.9875 103.112 63.276 103.367 63.5973 103.575C63.6301 103.596 63.6552 103.628 63.6688 103.664C63.6824 103.701 63.6837 103.741 63.6726 103.779ZM56.3715 127.496C56.3652 127.515 56.3565 127.532 56.3455 127.549C56.226 127.715 56.1013 127.879 55.9714 128.035C55.8415 128.191 55.7025 128.344 55.5556 128.49C55.5389 128.507 55.5188 128.521 55.4964 128.531C55.4741 128.54 55.45 128.545 55.4257 128.545C55.4014 128.545 55.3774 128.54 55.3551 128.531C55.3327 128.521 55.3126 128.507 55.2958 128.49C55.2785 128.473 55.2648 128.452 55.2554 128.43C55.2461 128.408 55.2412 128.384 55.2412 128.36C55.2412 128.335 55.2461 128.312 55.2554 128.289C55.2648 128.267 55.2785 128.247 55.2958 128.23C55.4328 128.093 55.5629 127.949 55.6856 127.8C55.809 127.652 55.9285 127.494 56.0415 127.335C56.0666 127.3 56.1032 127.275 56.1448 127.265C56.1863 127.254 56.2303 127.259 56.2688 127.278C56.3074 127.296 56.338 127.328 56.3554 127.367C56.3728 127.407 56.3757 127.451 56.3637 127.492L56.3715 127.496ZM58.5177 119.492C58.5062 119.535 58.4788 119.573 58.441 119.597C58.4031 119.622 58.3575 119.631 58.3131 119.624C58.2686 119.616 58.2286 119.592 58.2009 119.557C58.1731 119.522 58.1596 119.477 58.163 119.432C58.1825 119.042 58.1955 118.636 58.1994 118.239C58.2032 118.194 58.224 118.152 58.2576 118.121C58.2911 118.09 58.335 118.073 58.3806 118.073C58.4262 118.073 58.4701 118.09 58.5037 118.121C58.5372 118.152 58.558 118.194 58.5618 118.239C58.5618 118.64 58.545 119.045 58.5255 119.445C58.5246 119.461 58.522 119.477 58.5177 119.492ZM65.0692 96.627C65.0572 96.6717 65.0286 96.71 64.9892 96.7342C64.9498 96.7584 64.9027 96.7665 64.8574 96.757C64.4801 96.6767 64.0947 96.6409 63.709 96.6504C63.661 96.6515 63.6145 96.6335 63.5797 96.6004C63.5449 96.5673 63.5246 96.5217 63.5232 96.4737C63.5224 96.45 63.5262 96.4263 63.5346 96.404C63.543 96.3818 63.5557 96.3614 63.572 96.3441C63.5884 96.3268 63.608 96.313 63.6297 96.3033C63.6514 96.2937 63.6748 96.2885 63.6986 96.288C64.1131 96.2775 64.5274 96.3164 64.9328 96.4036C64.9561 96.4084 64.9782 96.4177 64.9978 96.4311C65.0175 96.4445 65.0342 96.4617 65.0472 96.4817C65.0601 96.5016 65.069 96.5239 65.0732 96.5473C65.0774 96.5707 65.0769 96.5947 65.0718 96.6179C65.0715 96.6224 65.0706 96.6267 65.0692 96.6309V96.627ZM58.5463 117.094C58.5347 117.136 58.5083 117.172 58.4719 117.196C58.4356 117.22 58.3918 117.23 58.3486 117.225C58.3053 117.219 58.2656 117.198 58.2368 117.165C58.2079 117.132 58.1919 117.09 58.1916 117.047C58.1812 116.651 58.163 116.249 58.137 115.856C58.1341 115.831 58.1362 115.806 58.1432 115.782C58.1502 115.758 58.1621 115.736 58.1779 115.717C58.1938 115.698 58.2134 115.683 58.2355 115.672C58.2576 115.66 58.2818 115.654 58.3065 115.652C58.3313 115.651 58.3561 115.654 58.3794 115.663C58.4027 115.671 58.424 115.684 58.4421 115.701C58.4602 115.718 58.4746 115.739 58.4844 115.761C58.4943 115.784 58.4994 115.809 58.4995 115.833C58.5242 116.231 58.5424 116.636 58.5527 117.038C58.554 117.057 58.5518 117.076 58.5463 117.094ZM54.68 129.176C54.6676 129.215 54.6424 129.249 54.6086 129.273C54.27 129.506 53.9113 129.708 53.5368 129.877C53.4956 129.886 53.4524 129.881 53.4146 129.862C53.3769 129.843 53.347 129.811 53.3301 129.772C53.3132 129.734 53.3103 129.69 53.322 129.65C53.3336 129.609 53.359 129.574 53.3939 129.55C53.7487 129.39 54.0883 129.199 54.4085 128.978C54.4281 128.965 54.4502 128.955 54.4735 128.95C54.4968 128.945 54.5208 128.945 54.5443 128.949C54.5677 128.953 54.59 128.962 54.61 128.975C54.6299 128.988 54.6471 129.005 54.6605 129.025C54.675 129.048 54.6842 129.073 54.6875 129.1C54.6909 129.127 54.6883 129.154 54.68 129.179V129.176ZM58.393 114.701C58.3808 114.741 58.3551 114.775 58.3204 114.798C58.2857 114.822 58.2441 114.832 58.2024 114.829C58.1608 114.825 58.1217 114.807 58.0918 114.778C58.0619 114.748 58.043 114.71 58.0383 114.668C58.024 114.521 58.0071 114.375 57.9902 114.228C57.9629 113.989 57.9318 113.746 57.8954 113.483C57.8888 113.436 57.9014 113.388 57.9304 113.349C57.9594 113.311 58.0024 113.286 58.05 113.279C58.0975 113.273 58.1457 113.285 58.184 113.314C58.2222 113.343 58.2474 113.386 58.2539 113.434C58.2903 113.694 58.3215 113.944 58.3501 114.186C58.367 114.334 58.3839 114.482 58.3982 114.63C58.4011 114.654 58.3993 114.678 58.393 114.701ZM62.1215 101.982C62.1107 102.017 62.0898 102.047 62.0615 102.07C62.0331 102.093 61.9986 102.107 61.9625 102.109C61.9263 102.112 61.89 102.104 61.8584 102.087C61.8268 102.069 61.8012 102.042 61.785 102.009C61.677 101.789 61.5849 101.562 61.5096 101.329C61.4589 101.171 61.4134 101.008 61.3797 100.841C61.3727 100.796 61.3832 100.75 61.4089 100.712C61.4346 100.674 61.4737 100.647 61.5184 100.637C61.5631 100.626 61.61 100.633 61.6498 100.656C61.6896 100.679 61.7193 100.716 61.733 100.76C61.7694 100.915 61.8123 101.07 61.8629 101.218C61.9344 101.435 62.0212 101.646 62.1228 101.851C62.1384 101.893 62.138 101.94 62.1215 101.982ZM68.1871 80.6945C68.1814 80.7135 68.1726 80.7315 68.1611 80.7477C67.9312 81.0699 67.7038 81.3973 67.4856 81.7312C67.4591 81.7711 67.4177 81.7989 67.3707 81.8084C67.3237 81.8179 67.2748 81.8084 67.2349 81.7818C67.1949 81.7553 67.1671 81.714 67.1576 81.667C67.1481 81.6199 67.1577 81.5711 67.1842 81.5311C67.4051 81.1972 67.6337 80.8633 67.8662 80.5373C67.8908 80.5015 67.9273 80.4758 67.9692 80.4648C68.0112 80.4538 68.0557 80.4582 68.0946 80.4773C68.1335 80.4963 68.1643 80.5288 68.1813 80.5686C68.1982 80.6085 68.2003 80.6532 68.1871 80.6945ZM58.0708 112.324C58.0593 112.364 58.0347 112.399 58.001 112.422C57.9672 112.446 57.9264 112.457 57.8853 112.455C57.8442 112.452 57.8053 112.435 57.775 112.407C57.7447 112.379 57.7248 112.342 57.7187 112.301C57.6615 111.939 57.6005 111.576 57.5407 111.214L57.5251 111.119C57.521 111.095 57.5216 111.071 57.5269 111.048C57.5321 111.025 57.5419 111.003 57.5556 110.983C57.5694 110.964 57.5869 110.947 57.6071 110.935C57.6273 110.922 57.6497 110.914 57.6732 110.91C57.7207 110.902 57.7693 110.914 57.8084 110.942C57.8476 110.97 57.8741 111.012 57.8824 111.059L57.898 111.154C57.9577 111.518 58.0188 111.88 58.076 112.244C58.0808 112.271 58.079 112.298 58.0708 112.324ZM66.8633 82.6977C66.8593 82.7134 66.8527 82.7283 66.8438 82.7419C66.636 83.0784 66.4307 83.4239 66.2332 83.7669C66.2095 83.8086 66.1701 83.8391 66.1238 83.8518C66.0775 83.8645 66.0281 83.8582 65.9864 83.8345C65.9447 83.8107 65.9142 83.7713 65.9015 83.725C65.8888 83.6788 65.8951 83.6293 65.9188 83.5876C66.1189 83.2395 66.3255 82.8913 66.5359 82.5483C66.5586 82.5102 66.5944 82.4818 66.6367 82.4684C66.6789 82.455 66.7246 82.4577 66.7651 82.4758C66.8055 82.4939 66.8378 82.5263 66.856 82.5667C66.8741 82.6072 66.8767 82.6529 66.8633 82.6951V82.6977ZM62.6944 96.6972C62.6855 96.7274 62.6688 96.7546 62.646 96.7763C62.6232 96.798 62.5951 96.8132 62.5645 96.8206C62.2643 96.9019 61.9715 97.0079 61.6889 97.1376C61.6889 97.1753 61.6785 97.2129 61.6746 97.2506C61.6676 97.2948 61.6445 97.3349 61.6098 97.3632C61.5751 97.3915 61.5312 97.406 61.4864 97.4039C61.4417 97.4018 61.3993 97.3833 61.3674 97.3519C61.3355 97.3205 61.3162 97.2784 61.3134 97.2337C61.2814 97.2164 61.2556 97.1896 61.2394 97.1571C61.218 97.1145 61.2144 97.0652 61.2292 97.02C61.2441 96.9747 61.2762 96.9371 61.3186 96.9154L61.3563 96.896L61.3641 96.844C61.4018 96.5686 61.4446 96.288 61.494 96.0125C61.5023 95.9654 61.5286 95.9234 61.5675 95.8955C61.6063 95.8676 61.6546 95.856 61.7019 95.8631C61.7253 95.8669 61.7478 95.8753 61.7681 95.8878C61.7883 95.9003 61.8059 95.9167 61.8197 95.936C61.8336 95.9553 61.8436 95.9772 61.849 96.0004C61.8544 96.0235 61.8551 96.0475 61.8513 96.071C61.8162 96.2854 61.7824 96.5023 61.7512 96.7206C61.987 96.6235 62.2287 96.5414 62.4748 96.475C62.5059 96.4665 62.5388 96.4664 62.5699 96.4748C62.601 96.4833 62.6294 96.4999 62.6519 96.523C62.6744 96.546 62.6904 96.5747 62.6981 96.606C62.7058 96.6374 62.705 96.6702 62.6957 96.7011L62.6944 96.6972ZM61.5563 99.6722C61.5435 99.7124 61.5171 99.747 61.4816 99.7698C61.4461 99.7927 61.4038 99.8026 61.3619 99.7976C61.3199 99.7927 61.281 99.7734 61.2518 99.7429C61.2226 99.7124 61.2049 99.6727 61.2017 99.6306C61.1777 99.2244 61.1777 98.817 61.2017 98.4107C61.2044 98.3629 61.2261 98.318 61.2619 98.2861C61.2977 98.2542 61.3448 98.2378 61.3927 98.2406C61.4405 98.2433 61.4854 98.265 61.5173 98.3008C61.5492 98.3366 61.5656 98.3836 61.5628 98.4315C61.5401 98.8235 61.5401 99.2165 61.5628 99.6085C61.564 99.63 61.5618 99.6514 61.5563 99.6722ZM65.6694 84.7789C65.6662 84.7906 65.6619 84.8019 65.6564 84.8127C65.4706 85.1622 65.2875 85.5194 65.1134 85.8754C65.0924 85.9185 65.0551 85.9514 65.0098 85.967C64.9645 85.9826 64.9148 85.9796 64.8717 85.9585C64.8287 85.9375 64.7957 85.9003 64.7801 85.8549C64.7645 85.8096 64.7676 85.76 64.7886 85.7169C64.964 85.357 65.1485 84.9959 65.3355 84.6425C65.3552 84.6007 65.3903 84.568 65.4334 84.5512C65.4765 84.5344 65.5244 84.5348 65.5672 84.5523C65.61 84.5698 65.6445 84.603 65.6635 84.6452C65.6825 84.6874 65.6846 84.7353 65.6694 84.7789ZM64.6145 86.9329C64.612 86.9409 64.609 86.9487 64.6054 86.9563C64.443 87.3161 64.2845 87.6851 64.1325 88.0515C64.1235 88.0734 64.1102 88.0933 64.0935 88.1101C64.0767 88.1269 64.0568 88.1402 64.0349 88.1493C64.0131 88.1584 63.9896 88.1631 63.9659 88.1632C63.9422 88.1632 63.9187 88.1586 63.8967 88.1495C63.8748 88.1405 63.8549 88.1272 63.8381 88.1105C63.8213 88.0937 63.808 88.0739 63.7989 88.052C63.7898 88.0301 63.785 88.0066 63.785 87.9829C63.785 87.9592 63.7896 87.9357 63.7987 87.9137C63.9507 87.5435 64.1117 87.1706 64.2754 86.8069C64.2946 86.7647 64.3291 86.7313 64.372 86.7137C64.4149 86.6961 64.4629 86.6955 64.5062 86.7121C64.5495 86.7287 64.5848 86.7612 64.6049 86.803C64.6251 86.8447 64.6285 86.8926 64.6145 86.9368V86.9329ZM57.681 109.956C57.6721 109.99 57.6535 110.02 57.6277 110.043C57.6018 110.066 57.5698 110.081 57.5355 110.086C57.5121 110.09 57.4881 110.089 57.465 110.083C57.4419 110.078 57.4202 110.068 57.401 110.054C57.3818 110.04 57.3656 110.022 57.3532 110.002C57.3408 109.981 57.3326 109.959 57.329 109.935C57.2588 109.494 57.1991 109.104 57.1549 108.745C57.1517 108.722 57.1532 108.698 57.1593 108.675C57.1654 108.652 57.176 108.63 57.1904 108.612C57.2048 108.593 57.2228 108.577 57.2434 108.565C57.2639 108.553 57.2866 108.545 57.3101 108.542C57.3337 108.539 57.3576 108.54 57.3806 108.546C57.4035 108.553 57.4251 108.563 57.4439 108.578C57.4628 108.592 57.4787 108.61 57.4906 108.631C57.5025 108.651 57.5103 108.674 57.5134 108.697C57.5615 109.053 57.6174 109.44 57.6862 109.879C57.6907 109.905 57.6889 109.931 57.681 109.956ZM62.0578 94.9122C62.0463 94.9587 62.0167 94.9987 61.9757 95.0234C61.9346 95.0482 61.8854 95.0556 61.8389 95.044C61.7924 95.0325 61.7524 95.003 61.7276 94.9619C61.7029 94.9208 61.6955 94.8716 61.707 94.8251C61.7837 94.4354 61.8694 94.0379 61.9604 93.6468C61.9658 93.6237 61.9756 93.6019 61.9894 93.5826C62.0033 93.5633 62.0207 93.5469 62.0409 93.5343C62.061 93.5218 62.0834 93.5133 62.1069 93.5095C62.1303 93.5056 62.1542 93.5063 62.1773 93.5117C62.2004 93.5171 62.2223 93.527 62.2416 93.5408C62.2609 93.5546 62.2773 93.5721 62.2898 93.5922C62.3024 93.6124 62.3108 93.6348 62.3147 93.6582C62.3186 93.6816 62.3178 93.7055 62.3124 93.7287C62.2228 94.1184 62.1384 94.5081 62.0617 94.8979L62.0578 94.9122ZM63.6986 89.1505V89.1622C63.5596 89.5338 63.4245 89.9118 63.2985 90.2873C63.283 90.3327 63.25 90.3702 63.2069 90.3914C63.1638 90.4126 63.114 90.4158 63.0685 90.4003C63.0231 90.3848 62.9856 90.3518 62.9644 90.3087C62.9432 90.2656 62.94 90.2158 62.9555 90.1703C63.0854 89.7923 63.2153 89.4104 63.3595 89.0349C63.3749 88.9894 63.4076 88.9519 63.4507 88.9306C63.4937 88.9093 63.5434 88.9059 63.5888 88.9212C63.6343 88.9366 63.6719 88.9693 63.6932 89.0123C63.7145 89.0553 63.7178 89.105 63.7025 89.1505H63.6986ZM62.6008 92.5763C62.5878 92.6225 62.5569 92.6616 62.515 92.685C62.4731 92.7084 62.4236 92.7141 62.3774 92.7011C62.3312 92.688 62.2922 92.6571 62.2688 92.6152C62.2454 92.5732 62.2396 92.5238 62.2527 92.4776C62.3566 92.0879 62.467 91.6981 62.5827 91.3188C62.5964 91.2728 62.6279 91.2341 62.6702 91.2114C62.7125 91.1886 62.7621 91.1835 62.8081 91.1973C62.8541 91.2111 62.8927 91.2426 62.9155 91.2849C62.9383 91.3271 62.9433 91.3767 62.9295 91.4227C62.8152 91.802 62.7048 92.1866 62.6021 92.5698L62.6008 92.5763ZM60.5612 97.7638C60.5503 97.8005 60.528 97.8328 60.4976 97.856C60.1874 98.0917 59.8972 98.3524 59.6297 98.6355C59.6142 98.6555 59.5947 98.6719 59.5725 98.6839C59.5502 98.6958 59.5257 98.703 59.5005 98.7048C59.4753 98.7067 59.45 98.7033 59.4262 98.6947C59.4024 98.6862 59.3807 98.6728 59.3624 98.6553C59.3441 98.6379 59.3297 98.6168 59.3201 98.5934C59.3105 98.5701 59.3059 98.5449 59.3066 98.5197C59.3073 98.4944 59.3133 98.4696 59.3242 98.4468C59.3351 98.424 59.3507 98.4038 59.3699 98.3874C59.6498 98.0882 59.954 97.8128 60.2793 97.5637C60.3098 97.5411 60.3467 97.5285 60.3847 97.5279C60.4227 97.5273 60.46 97.5386 60.4912 97.5603C60.5225 97.5819 60.5462 97.6128 60.559 97.6486C60.5717 97.6844 60.573 97.7233 60.5625 97.7599L60.5612 97.7638ZM57.3705 107.579C57.3602 107.614 57.3397 107.644 57.3117 107.668C57.2837 107.691 57.2495 107.705 57.2133 107.709C57.1897 107.711 57.1659 107.708 57.1432 107.701C57.1206 107.694 57.0996 107.683 57.0813 107.667C57.0631 107.652 57.0481 107.634 57.0371 107.613C57.0261 107.592 57.0193 107.569 57.0172 107.545L57.0068 107.432C56.973 107.059 56.9483 106.691 56.9353 106.338C56.9341 106.314 56.9376 106.291 56.9457 106.268C56.9538 106.246 56.9662 106.226 56.9823 106.208C56.9984 106.191 57.0178 106.177 57.0394 106.167C57.061 106.157 57.0844 106.152 57.1081 106.151C57.1319 106.15 57.1556 106.153 57.178 106.161C57.2004 106.169 57.221 106.182 57.2385 106.198C57.256 106.214 57.2702 106.233 57.2801 106.255C57.2901 106.277 57.2957 106.3 57.2965 106.324C57.3095 106.671 57.3342 107.033 57.3666 107.399L57.377 107.511C57.3797 107.534 57.3779 107.557 57.3718 107.579H57.3705ZM57.2809 105.182C57.2683 105.224 57.2409 105.259 57.204 105.282C57.167 105.306 57.123 105.315 57.0799 105.308C57.0368 105.301 56.9977 105.279 56.9697 105.245C56.9417 105.212 56.9267 105.17 56.9275 105.126C56.9392 104.71 56.9665 104.302 57.0094 103.914C57.012 103.89 57.0193 103.867 57.0308 103.847C57.0423 103.826 57.0577 103.807 57.0763 103.793C57.0949 103.778 57.1162 103.767 57.1391 103.76C57.1619 103.753 57.1858 103.751 57.2094 103.754C57.2331 103.757 57.2559 103.764 57.2768 103.775C57.2976 103.787 57.3159 103.802 57.3308 103.821C57.3456 103.84 57.3566 103.861 57.3632 103.884C57.3698 103.907 57.3719 103.931 57.3692 103.954C57.3277 104.332 57.3004 104.734 57.2887 105.136C57.2892 105.152 57.287 105.167 57.2822 105.182H57.2809ZM58.9191 99.4994C58.9141 99.5177 58.9057 99.5349 58.8944 99.5501C58.6727 99.8724 58.4752 100.211 58.3033 100.562C58.2823 100.605 58.245 100.638 58.1997 100.654C58.1544 100.669 58.1047 100.666 58.0617 100.645C58.0186 100.624 57.9857 100.587 57.9701 100.542C57.9545 100.496 57.9575 100.447 57.9785 100.404C58.1575 100.036 58.3642 99.6816 58.5969 99.3448C58.6211 99.3089 58.6575 99.2828 58.6993 99.2714C58.7412 99.2601 58.7857 99.2641 58.8248 99.2829C58.8639 99.3016 58.895 99.3338 58.9123 99.3736C58.9296 99.4134 58.932 99.458 58.9191 99.4994ZM57.5511 102.802C57.5394 102.848 57.5097 102.888 57.4685 102.913C57.4273 102.938 57.3781 102.945 57.3316 102.933C57.285 102.921 57.2451 102.892 57.2205 102.85C57.1959 102.809 57.1886 102.76 57.2003 102.713C57.2614 102.422 57.3303 102.137 57.416 101.861C57.4485 101.752 57.4836 101.643 57.5186 101.536C57.5262 101.514 57.5382 101.493 57.5538 101.475C57.5694 101.457 57.5885 101.443 57.6097 101.432C57.631 101.422 57.6542 101.415 57.6779 101.414C57.7016 101.412 57.7254 101.415 57.7479 101.423C57.7705 101.43 57.7913 101.442 57.8092 101.458C57.8271 101.474 57.8417 101.493 57.8523 101.514C57.8628 101.535 57.8691 101.558 57.8707 101.582C57.8723 101.606 57.8692 101.63 57.8616 101.652C57.8278 101.755 57.7941 101.86 57.7629 101.966C57.6836 102.226 57.6148 102.508 57.555 102.789L57.5511 102.802Z" fill="#196E7E"/>
<path d="M69.2786 79.2469C69.2719 79.2685 69.2613 79.2888 69.2474 79.3067C69.124 79.4626 69.0006 79.6223 68.8798 79.7808C68.8663 79.8021 68.8485 79.8203 68.8276 79.8343C68.8067 79.8483 68.7831 79.8578 68.7583 79.8623C68.7335 79.8667 68.7081 79.8659 68.6836 79.86C68.6592 79.8541 68.6362 79.8432 68.6161 79.828C68.5961 79.8127 68.5795 79.7935 68.5673 79.7714C68.5551 79.7494 68.5475 79.7251 68.5452 79.7001C68.5429 79.675 68.5458 79.6497 68.5537 79.6258C68.5617 79.6019 68.5745 79.58 68.5914 79.5613C68.7135 79.4015 68.8395 79.2404 68.9629 79.0819C68.9894 79.0495 69.0263 79.0273 69.0673 79.0189C69.1082 79.0105 69.1509 79.0165 69.1879 79.0359C69.225 79.0553 69.2543 79.0868 69.2708 79.1253C69.2873 79.1637 69.2901 79.2067 69.2786 79.2469Z" fill="#196E7E"/>
<path d="M76.1282 45.3049L77.8171 44.6112C79.7658 43.1666 78.6213 42.2143 77.5729 40.8515C78.2848 39.3731 80.592 39.5134 80.883 37.5673C79.5229 36.5579 75.3526 39.4991 75.2968 36.9918C75.2643 35.3367 78.5628 32.9645 79.8931 32.4669C81.2234 31.9693 84.9273 31.9057 86.2199 32.55C87.2267 33.0528 87.7685 34.0012 87.584 35.0535C87.3826 36.2006 86.3173 36.6995 85.7652 37.7817C87.1358 38.3013 87.8321 36.5826 88.3193 35.7381C89.1313 34.3286 89.773 34.9015 91.1124 34.3857C92.331 33.9154 93.1014 32.9671 94.4564 32.6293C95.5113 32.3695 96.6974 32.1382 97.7757 31.968C99.0073 31.7719 99.827 32.4084 100.955 32.4123C102.671 32.4123 102.068 29.905 103.75 31.1834C104.348 31.638 103.78 31.8212 104.731 32.1837C105.135 32.337 105.999 32.4435 106.466 32.5383C108.595 32.9723 107.528 32.0005 107.349 30.6026C107.122 28.8254 108.373 29.944 109.495 30.4441C110.318 30.8118 110.323 30.4675 110.683 31.3341C111.001 32.0992 110.324 32.3863 111.176 32.9112C112.803 33.9076 112.764 31.59 112.764 30.8274C112.764 29.5283 113.024 28.7903 111.769 27.9056C112.158 27.5796 112.533 27.0547 112.614 26.5441C111.445 25.9712 111.779 25.0657 111.168 24.2161C110.143 22.787 109.616 24.0537 108.547 24.446C107.443 24.8514 106.431 23.981 105.365 24.663C104.258 25.371 104.169 26.4181 102.74 25.0709C103.361 24.6136 103.798 23.79 104.186 23.1222C103.776 22.7566 103.402 22.3534 103.068 21.9179C104.143 20.3083 106.017 21.3593 107.332 22.0128C108.805 22.7455 110.169 21.6581 111.537 22.2336C112.814 22.7689 112.407 25.1424 114.51 25.0086C115.71 24.9319 115.578 24.3317 115.679 23.5522C115.705 23.3444 115.537 22.726 115.527 22.5129C115.526 22.4909 115.526 22.4687 115.527 22.4467C116.75 22.9572 117.951 23.525 119.139 24.1356C118.945 24.8761 118.91 25.9037 118.879 26.4844C118.854 26.9105 119.058 27.3418 118.978 27.7744C118.887 28.2655 118.185 28.4838 118.497 29.0645C118.979 29.9609 122.88 28.8046 123.683 28.7332C124.702 28.6383 125.311 28.6202 125.502 27.9966C128.887 30.3938 131.967 33.1946 134.675 36.337C134.718 36.8385 134.762 37.3555 134.783 37.909C134.827 39.0977 134.711 40.0655 135.518 41.1178C135.985 41.7258 137.94 42.973 136.22 43.82C134.631 44.5995 134.921 42.391 134.815 41.7414C134.666 40.8424 133.546 39.2055 132.746 40.5137C131.554 42.4624 136.034 44.997 133.729 46.4716C134.041 47.1133 134.718 48.2903 134.055 48.923C133.237 49.7025 132.427 48.3228 131.667 49.5167C130.591 51.2056 131.499 53.7948 133.59 54.3235C135.82 54.8822 136.127 51.4745 138.365 52.5918C139.247 53.0322 139.569 53.5895 139.913 54.6535C140.195 55.52 139.866 56.8425 140.741 57.305C141.165 56.8529 141.023 56.2346 141.268 55.7227C141.798 56.3021 142.546 57.9442 142.543 58.738C142.543 59.9397 141.68 61.105 143.742 60.9231C143.651 60.623 143.795 60.1865 143.774 59.9813C145.492 61.1323 146.222 62.6406 145.968 64.627C145.399 69.0622 143.11 63.7176 141.749 65.3207C140.96 64.3398 141.051 63.2421 140.504 62.1833C140.244 61.6818 139.403 61.2986 139.241 60.8569C139.019 60.2515 139.51 59.7435 139.338 59.1771C138.656 56.9491 133.914 56.6607 132.008 56.5372C131.488 56.5035 131.078 56.2618 130.553 56.497C129.655 56.8984 130.151 57.4856 129.584 58.0416C128.774 58.8341 127.286 58.4587 126.428 58.951C124.372 60.1462 124.456 63.8735 122.904 65.687C122.042 66.6939 120.071 67.0953 119.916 68.3139C119.848 68.8336 120.305 69.6273 120.256 70.2626C120.212 70.8433 119.944 71.4643 119.964 72.11C120.03 74.2029 120.433 76.7492 120.734 78.8655C120.907 80.0672 121.681 80.8869 122.836 81.3533C123.788 81.743 125.247 82.303 126.271 82.4472C127.639 82.642 128.243 82.0328 129.019 83.2267C129.634 84.1815 129.668 85.795 131.286 85.5534C131.578 86.9253 129.706 87.7308 128.915 88.5154C127.9 89.5223 127.688 90.8409 127.745 92.3076C127.814 94.0679 127.875 94.4122 126.645 95.8828C125.684 97.03 124.617 97.9523 123.535 99.0007C122.496 100.005 121.16 100.399 120.373 101.668C119.648 102.837 119.53 104.091 118.562 105.22C117.707 106.215 116.782 107.462 115.793 108.338C114.78 109.23 113.373 109.684 112.309 110.58C111.298 111.435 110.473 112.862 110.635 114.217C110.802 115.636 111.913 115.627 113.273 115.543C115.956 115.375 118.296 113.619 120.694 112.582C123.143 111.52 125.494 110.633 127.579 109.235C128.022 108.939 128.499 108.673 128.977 108.409C122.213 114.148 114.069 118.023 105.35 119.652C96.6299 121.28 87.6362 120.606 79.257 117.695C70.8777 114.784 63.4027 109.738 57.5705 103.054C51.7383 96.3709 47.7506 88.2814 46.0013 79.5852C43.316 66.2353 45.9922 52.6398 53.5363 41.301C57.2298 35.7149 61.9945 30.9167 67.5547 27.1842C73.1148 23.4517 79.3601 20.859 85.9289 19.5561C86.242 19.4937 86.5564 19.4483 86.8708 19.3911C86.4316 19.7636 85.9433 20.0739 85.4196 20.3135C84.1634 20.8332 82.859 20.511 81.6119 20.954C80.4751 21.358 79.1825 22.2531 78.3575 23.0066C77.465 23.8212 76.822 25.106 75.8307 25.8517C74.5706 26.7988 73.2883 27.0066 72.4815 28.5396C73.8651 30.1986 75.1552 26.6377 76.7141 27.4457C76.4127 28.8969 74.6953 30.8235 73.7352 31.9823C72.414 33.5764 71.7982 33.7777 71.8411 35.9317C71.8761 37.6374 71.6254 38.5962 73.0727 39.8291C74.3978 40.9567 74.5628 42.0038 74.2419 43.7888C74.9525 44.493 74.4069 44.5358 76.4504 45.3062M125.646 24.9332C101.013 8.54854 67.7618 15.2339 51.3758 39.8668C34.9898 64.4996 41.6778 97.751 66.3159 114.136C90.9539 130.52 124.196 123.836 140.578 99.2034C156.96 74.5705 150.278 41.3192 125.646 24.9332Z" stroke="#176D7E" stroke-width="0.5" stroke-miterlimit="10"/>
</svg>
