<svg width="41" height="25" viewBox="0 0 41 25" fill="none" xmlns="http://www.w3.org/2000/svg">
<g clip-path="url(#clip0_2020_2743)">
<path opacity="0.07" d="M37.3421 0H3.65789C1.86842 0 0.5 1.35417 0.5 3.125V21.875C0.5 23.6458 1.97368 25 3.65789 25H37.3421C39.1316 25 40.5 23.6458 40.5 21.875V3.125C40.5 1.35417 39.0263 0 37.3421 0Z" fill="#263238"/>
<path d="M37.3421 1.0415C38.5 1.0415 39.4474 1.979 39.4474 3.12484V21.8748C39.4474 23.0207 38.5 23.9582 37.3421 23.9582H3.65791C2.50001 23.9582 1.55264 23.0207 1.55264 21.8748V3.12484C1.55264 1.979 2.50001 1.0415 3.65791 1.0415H37.3421Z" fill="white"/>
<path d="M28.1159 9.67036H26.4194C26.5747 10.0069 26.7048 10.3582 26.8052 10.7217C26.9697 11.3148 27.0571 11.9367 27.0571 12.5753C27.0571 14.466 26.2976 16.182 25.0669 17.4341C23.8352 18.6881 22.1295 19.4764 20.2378 19.5117H12.0994V21.7102C12.0994 21.8226 12.0566 21.9351 11.9702 22.0206C11.7982 22.1926 11.5203 22.1926 11.3483 22.0206L7.12898 17.8069C6.95701 17.6349 6.95701 17.357 7.12898 17.1859L11.3464 12.9741C11.4264 12.8932 11.537 12.8439 11.6588 12.8439C11.9014 12.8439 12.0985 13.041 12.0985 13.2827V15.4792H13.7949C13.6397 15.1427 13.5095 14.7914 13.4092 14.4279C13.2446 13.8348 13.1572 13.213 13.1572 12.5743C13.1572 10.6817 13.9176 8.96575 15.1493 7.71269C16.3828 6.4587 18.0905 5.67135 19.9831 5.63789H28.114V3.43945C28.114 3.32698 28.1568 3.2145 28.2432 3.12898C28.4152 2.95701 28.6931 2.95701 28.8651 3.12898L33.0844 7.34272C33.2564 7.51469 33.2564 7.79263 33.0844 7.96367L28.867 12.1756C28.787 12.2564 28.6764 12.3057 28.5546 12.3057C28.312 12.3057 28.115 12.1086 28.115 11.8669V9.67036H28.1159ZM25.6916 8.79192H28.5556C28.7982 8.79192 28.9953 8.98899 28.9953 9.23068V10.8063L32.153 7.6532L28.9953 4.50009V6.07572C28.9953 6.31833 28.7982 6.51447 28.5556 6.51447C28.5426 6.51447 28.5295 6.51447 28.5165 6.51261H19.9979C18.3461 6.54143 16.8541 7.23117 15.7758 8.32713C14.7003 9.42031 14.0375 10.9197 14.0375 12.5753C14.0375 13.1395 14.1138 13.6833 14.2551 14.1955C14.4029 14.7282 14.6213 15.2311 14.9002 15.6949C15.0247 15.9022 14.9569 16.1708 14.7487 16.2954C14.678 16.3372 14.5999 16.3577 14.5237 16.3577L11.6597 16.3586C11.4171 16.3586 11.22 16.1616 11.22 15.9199V14.3442L8.06227 17.4973L11.22 20.6504V19.0748C11.22 18.8322 11.4171 18.6361 11.6597 18.6361C11.6727 18.6361 11.6857 18.6361 11.6987 18.6379H20.2238C21.8738 18.6063 23.3639 17.9175 24.4413 16.8215C25.5149 15.7293 26.1768 14.2308 26.1768 12.5762C26.1768 12.012 26.1006 11.4682 25.9593 10.956C25.8115 10.4233 25.593 9.92042 25.3142 9.45656C25.1896 9.24927 25.2575 8.98062 25.4657 8.85606C25.5363 8.81423 25.6144 8.79378 25.6906 8.79378V8.79192H25.6916Z" fill="#167FFC"/>
<path d="M18.111 14.7175C18.388 14.9881 18.3945 15.4315 18.1249 15.7094C17.8554 15.9873 17.4119 15.9929 17.134 15.7233C17.0978 15.688 17.0615 15.6518 17.0271 15.6164C16.1673 14.7268 15.7378 13.59 15.7378 12.4531C15.7378 11.3162 16.1682 10.1794 17.0271 9.28979C17.0624 9.25353 17.0978 9.21728 17.134 9.18288C18.0608 8.28492 19.2711 7.83594 20.4777 7.83594C21.6843 7.83594 22.8955 8.28492 23.8213 9.18288C23.8576 9.21821 23.8938 9.25446 23.9282 9.28979C24.7881 10.1794 25.2176 11.3162 25.2176 12.4531C25.2176 13.59 24.7872 14.7268 23.9282 15.6164C23.8929 15.6527 23.8576 15.6889 23.8213 15.7233C23.5443 15.9938 23.1009 15.9873 22.8304 15.7094C22.5608 15.4315 22.5664 14.9881 22.8444 14.7175C22.8713 14.6915 22.8983 14.6646 22.9243 14.6376C23.5174 14.0241 23.813 13.2386 23.813 12.4522C23.813 11.6658 23.5164 10.8803 22.9243 10.2668C22.8983 10.2398 22.8713 10.2128 22.8444 10.1868C22.3721 9.72947 21.7912 9.43759 21.1795 9.3121V12.4522C21.1795 12.8407 20.8653 13.1559 20.4767 13.1559C20.0882 13.1559 19.774 12.8407 19.774 12.4522V9.3121C19.1623 9.43759 18.5813 9.72947 18.1091 10.1868C18.0822 10.2128 18.0552 10.2398 18.0292 10.2668C17.4361 10.8803 17.1405 11.6658 17.1405 12.4522C17.1405 13.2386 17.437 14.0241 18.0292 14.6376C18.0552 14.6646 18.0822 14.6906 18.1091 14.7175H18.111Z" fill="#1E6AC6"/>
</g>
<defs>
<clipPath id="clip0_2020_2743">
<rect width="40" height="25" fill="white" transform="translate(0.5)"/>
</clipPath>
</defs>
</svg>
