<svg width="200" height="406" viewBox="0 0 200 406" fill="none" xmlns="http://www.w3.org/2000/svg">
<g clip-path="url(#clip0_1230_8045)">
<path d="M0.711914 147.269C0.711914 146.798 1.09506 146.404 1.57672 146.404H2.00365V177.209H1.57672C1.106 177.209 0.711914 176.826 0.711914 176.344V147.258V147.269Z" fill="#1C1C61"/>
<path d="M0.711914 108.156C0.711914 107.685 1.09506 107.291 1.57672 107.291H2.00365V138.096H1.57672C1.106 138.096 0.711914 137.713 0.711914 137.231V108.145V108.156Z" fill="#1C1C61"/>
<path d="M0 78.9385C0 78.4678 0.383143 78.0737 0.864808 78.0737H2.01424V93.2571H0.864808C0.39409 93.2571 0 92.874 0 92.3923V78.9276V78.9385Z" fill="#1C1C61"/>
<path d="M198.556 128.648H198.983C199.453 128.648 199.847 129.032 199.847 129.513V176.355C199.847 176.826 199.464 177.22 198.983 177.22H198.556V128.659V128.648Z" fill="#1C1C61"/>
<path d="M2.00391 78.2158V93.3335" stroke="black" stroke-width="0.156306"/>
<path d="M2.00391 107.444V138.03" stroke="black" stroke-width="0.156306"/>
<path d="M162.595 0H37.9646C18.1041 0 2.00391 16.1001 2.00391 35.9607V370.039C2.00391 389.9 18.1041 406 37.9646 406H162.595C182.456 406 198.556 389.9 198.556 370.039V35.9607C198.556 16.1001 182.456 0 162.595 0Z" fill="#1C1C61"/>
<path d="M160.592 4.87158H39.9676C21.6911 4.87158 6.875 19.6876 6.875 37.9642V368.036C6.875 386.313 21.6911 401.129 39.9676 401.129H160.592C178.868 401.129 193.684 386.313 193.684 368.036V37.9642C193.684 19.6876 178.868 4.87158 160.592 4.87158Z" fill="#FBF5E2" stroke="black" stroke-width="6.28832"/>
<rect x="74.2812" y="19.3335" width="51.386" height="14.7544" rx="7.37719" fill="black"/>
<path d="M43.2627 403.778L46.1308 403.854V406H43.2627V403.778Z" fill="black"/>
<path d="M196.41 42.6934H198.556V45.5615H196.41V42.6934Z" fill="black"/>
<path d="M196.411 361.73H198.556V364.599H196.334L196.411 361.73Z" fill="black"/>
<path d="M121.621 2.14551C121.544 3.10884 120.745 3.86418 119.76 3.86418H80.7887C79.8035 3.86418 79.0044 3.10884 78.9277 2.14551H121.61H121.621Z" fill="black" stroke="#272727" stroke-width="0.312613"/>
<path d="M154.724 0H157.592V2.22223L154.724 2.07992V0Z" fill="black"/>
<path d="M2.00313 43.2622H4.14873L4.07211 46.0537L1.99219 46.1303V43.2622H2.00313Z" fill="black"/>
<path d="M2.00391 361.73H4.08382L4.16045 364.599H2.01485V361.73H2.00391Z" fill="black"/>
</g>
<defs>
<clipPath id="clip0_1230_8045">
<rect width="199.847" height="406" fill="white"/>
</clipPath>
</defs>
</svg>
