<svg width="546" height="348" viewBox="0 0 546 348" fill="none" xmlns="http://www.w3.org/2000/svg">
<g opacity="0.6" clip-path="url(#clip0_82_1561)">
<path fill-rule="evenodd" clip-rule="evenodd" d="M282.709 70.1898L244.791 0L68.9136 21.5042L119.979 95.056L282.709 70.1898Z" fill="url(#paint0_radial_82_1561)"/>
<path fill-rule="evenodd" clip-rule="evenodd" d="M68.9136 21.5042L67.3613 24.771L119.979 95.056L123.875 94.4534L68.9136 21.5042Z" fill="url(#paint1_radial_82_1561)"/>
<path fill-rule="evenodd" clip-rule="evenodd" d="M119.979 95.056L134.899 219.958C134.899 219.958 191.698 249.55 271.052 278V127.598L119.947 95.056H119.979Z" fill="url(#paint2_radial_82_1561)"/>
<path fill-rule="evenodd" clip-rule="evenodd" d="M271.052 127.598L428.619 88.903L410.182 220.846C410.182 220.846 374.766 251.358 271.052 278.032V127.629V127.598Z" fill="url(#paint3_radial_82_1561)"/>
<path fill-rule="evenodd" clip-rule="evenodd" d="M119.979 95.056L282.709 70.1898L428.65 88.9029L271.052 127.598L119.979 95.056Z" fill="url(#paint4_radial_82_1561)"/>
<path fill-rule="evenodd" clip-rule="evenodd" d="M135.438 94.4217L271.052 123.633L406.697 88.903L284.673 71.9661L135.438 94.4217Z" fill="url(#paint5_radial_82_1561)"/>
<path fill-rule="evenodd" clip-rule="evenodd" d="M271.052 127.598L201.36 79.8318C201.36 79.8318 87.3819 69.27 36 50.1447L119.979 95.056L271.083 127.598H271.052Z" fill="#D2715E"/>
<path fill-rule="evenodd" clip-rule="evenodd" d="M36 50.1446L37.3305 46.8461C37.3305 46.8461 96.4419 70.1581 203.166 74.1227L201.36 79.8318C201.36 79.8318 97.9308 71.5854 36 50.1446Z" fill="url(#paint6_radial_82_1561)"/>
<path fill-rule="evenodd" clip-rule="evenodd" d="M203.166 74.0911L271.052 123.633V127.598L201.36 79.8318L203.166 74.0911Z" fill="url(#paint7_radial_82_1561)"/>
<path fill-rule="evenodd" clip-rule="evenodd" d="M282.709 70.1898C282.709 70.1898 293.797 48.083 312.233 8.50012H480.888L428.619 88.8711L282.678 70.1898H282.709Z" fill="url(#paint8_radial_82_1561)"/>
<path fill-rule="evenodd" clip-rule="evenodd" d="M480.92 8.53186L483.454 13.2577L427.795 95.056L428.651 88.9029L480.92 8.53186Z" fill="url(#paint9_radial_82_1561)"/>
<path fill-rule="evenodd" clip-rule="evenodd" d="M428.65 88.9029L271.083 127.598L322.908 150.402C322.908 150.402 399.031 148.658 427.066 137.874C455.101 127.09 510.031 95.5318 510.031 95.5318L428.65 88.8712V88.9029Z" fill="url(#paint10_radial_82_1561)"/>
<path fill-rule="evenodd" clip-rule="evenodd" d="M510 95.5317L508.099 100.733C508.099 100.733 465.365 127.598 425.578 141.68C384.934 156.048 322.909 156.524 322.909 156.524V150.434C322.909 150.434 392.791 149.482 427.066 137.906C449.653 130.262 510.031 95.5635 510.031 95.5635L510 95.5317Z" fill="url(#paint11_radial_82_1561)"/>
<path fill-rule="evenodd" clip-rule="evenodd" d="M271.052 125.6V129.85L322.909 156.492V150.402L271.052 125.6Z" fill="#EE946E"/>
<path opacity="0.5" fill-rule="evenodd" clip-rule="evenodd" d="M201.392 240.796V204.765L254.769 221.639L252.52 257.891L201.392 240.796Z" fill="#FFFFCE"/>
<g style="mix-blend-mode:multiply" opacity="0.5">
<path d="M248.972 254.371L205.256 239.749V208.381L250.936 222.781L248.972 254.371ZM206.935 238.576L247.483 252.119L249.226 223.986L206.935 210.633V238.576Z" fill="#C1748D"/>
</g>
<g style="mix-blend-mode:multiply" opacity="0.5">
<path fill-rule="evenodd" clip-rule="evenodd" d="M212.764 216.057L240.768 224.874V229.695L212.764 220.846V216.057Z" fill="#C1748D"/>
</g>
<g style="mix-blend-mode:multiply" opacity="0.5">
<path fill-rule="evenodd" clip-rule="evenodd" d="M212.764 225.159L240.768 234.008V236.419L212.764 227.57V225.159Z" fill="#C1748D"/>
</g>
<path d="M187.295 228.521L192.332 230.107V215.359L188.499 214.153L187.295 228.521Z" fill="#5A4153"/>
<path d="M185.141 214.724L195.848 218.118L190.494 205.051L185.141 214.724Z" fill="#5A4153"/>
<path d="M171.868 223.637L176.905 225.223V210.506L173.071 209.301L171.868 223.637Z" fill="#5A4153"/>
<path d="M169.713 209.872L180.421 213.234L175.067 200.198L169.713 209.872Z" fill="#5A4153"/>
<path opacity="0.36" d="M36 50.1447C36 50.1447 114.435 77.6751 201.36 79.8318L268.771 126.044L271.052 127.598V129.85V186.528L122.735 118.336L119.947 95.056L36 50.1447Z" fill="#791B40"/>
<g style="mix-blend-mode:soft-light" opacity="0.58">
<path d="M284.673 71.9661V119.637L406.698 88.903L284.673 71.9661Z" fill="#FFDD98"/>
</g>
<path style="mix-blend-mode:multiply" opacity="0.5" fill-rule="evenodd" clip-rule="evenodd" d="M134.899 219.958C134.899 219.958 160.495 211.109 185.14 218.118C210.23 225.255 254.769 272.037 254.769 272.037C254.769 272.037 165.944 237.878 134.899 219.958Z" fill="url(#paint12_linear_82_1561)"/>
<g style="mix-blend-mode:multiply" opacity="0.5">
<path fill-rule="evenodd" clip-rule="evenodd" d="M280.746 177.711C281.189 180.026 282.361 181.295 285.086 180.724C286.828 180.375 287.873 178.853 287.557 177.013C287.24 175.142 285.339 173.587 283.407 173.841C281.443 174.095 280.429 176.632 280.746 177.711Z" fill="#E3D9D2"/>
<path fill-rule="evenodd" clip-rule="evenodd" d="M346.509 204.004C346.731 201.403 349.455 199.976 351.736 199.722C353.668 199.5 355.442 200.039 357.09 201.118C358.705 202.164 360.004 203.972 359.18 205.939C358.895 206.573 358.103 208 357.565 208.444C356.709 209.142 355.031 208.666 354.049 208.508C352.306 208.222 351.641 207.62 350.437 206.478C349.328 205.463 346.414 206.288 346.509 203.972V204.004Z" fill="#E3D9D2"/>
<path fill-rule="evenodd" clip-rule="evenodd" d="M282.488 167.688C280.967 168.322 278.813 170.67 280.999 171.621C282.203 172.16 285.909 171.462 286.891 170.701C290.977 167.561 284.515 164.865 281.822 168.164L282.456 167.688H282.488Z" fill="#E3D9D2"/>
<path fill-rule="evenodd" clip-rule="evenodd" d="M284.452 187.797C285.941 185.164 288.665 188.177 286.891 189.668C285.687 190.683 284.325 189.668 284.135 188.368L284.452 187.797Z" fill="#E3D9D2"/>
<path fill-rule="evenodd" clip-rule="evenodd" d="M288.507 177.838C289.489 176.093 291.326 178.091 290.122 179.075C289.331 179.741 288.412 179.075 288.285 178.218L288.475 177.838H288.507Z" fill="#E3D9D2"/>
<path fill-rule="evenodd" clip-rule="evenodd" d="M245.646 158.649C242.225 163.248 248.497 168.64 250.968 163.089C252.299 160.108 249.733 156.492 246.818 158.649H245.646Z" fill="#E3D9D2"/>
<path fill-rule="evenodd" clip-rule="evenodd" d="M255.973 171.97C255.53 171.082 255.086 171.304 254.611 171.875C253.788 172.826 254.326 173.017 254.896 173.746C256.163 175.332 257.304 175.3 259.046 174.19C260.44 173.302 262.784 170.828 260.25 169.591C259.173 169.052 256.892 169.845 256.258 170.638L255.973 171.97Z" fill="#E3D9D2"/>
<path fill-rule="evenodd" clip-rule="evenodd" d="M250.366 173.746C250.113 171.462 253.471 174.412 252.014 175.649C250.778 176.696 249.986 174.507 250.366 173.619V173.778V173.746Z" fill="#E3D9D2"/>
<path fill-rule="evenodd" clip-rule="evenodd" d="M257.177 165.912C258.127 167.403 260.06 165.309 259.363 164.326C258.539 163.153 257.335 165.056 257.019 165.626L257.177 165.912Z" fill="#E3D9D2"/>
<path fill-rule="evenodd" clip-rule="evenodd" d="M221.127 192.84C221.698 190.968 224.01 192.713 224.264 193.886C224.644 195.567 223.218 197.756 221.413 197.914C218.688 198.168 217.96 193.918 220.367 192.967L221.096 192.808L221.127 192.84Z" fill="#E3D9D2"/>
<path fill-rule="evenodd" clip-rule="evenodd" d="M246.66 196.233C245.044 198.612 250.556 199.12 250.493 196.424C250.461 194.299 247.262 194.299 246.66 196.107V196.265V196.233Z" fill="#E3D9D2"/>
<path fill-rule="evenodd" clip-rule="evenodd" d="M223.788 149.8C222.68 148.341 224.169 146.152 225.879 146.406C228.128 146.723 228.16 149.831 227.4 151.354C225.752 154.716 221.127 152.432 223.028 149.197L223.757 149.8H223.788Z" fill="#E3D9D2"/>
<path fill-rule="evenodd" clip-rule="evenodd" d="M256.575 142.536C254.611 147.199 262.214 145.55 262.626 141.807C263.132 137.271 257.114 138.477 256.575 142.536Z" fill="#E3D9D2"/>
<path fill-rule="evenodd" clip-rule="evenodd" d="M358.769 197.724C356.615 200.674 362.253 202.101 362.729 198.39C361.588 196.931 359.529 196.614 358.167 198.01L358.769 197.692V197.724Z" fill="#E3D9D2"/>
<path fill-rule="evenodd" clip-rule="evenodd" d="M329.276 233.406C334.028 227.316 343.183 224.937 349.709 229.409C351.419 230.583 353.859 232.708 351.831 234.611C350.057 236.26 341.567 234.611 339.192 234.611C335.77 234.611 332.222 234.738 329.276 233.374V233.406Z" fill="#E3D9D2"/>
<path fill-rule="evenodd" clip-rule="evenodd" d="M312.709 230.329C313.089 233.057 317.873 232.105 317.176 229.853C316.7 228.363 314.103 227.982 313.628 229.409L312.709 230.329Z" fill="#E3D9D2"/>
<path fill-rule="evenodd" clip-rule="evenodd" d="M138.384 146.533C137.497 150.751 142.85 149.895 142.85 146.533C142.85 143.71 139.176 142.727 138.384 145.676V146.565V146.533Z" fill="#E3D9D2"/>
<path fill-rule="evenodd" clip-rule="evenodd" d="M250.968 213.519C251.411 212.821 251.982 212.377 252.71 212.187C255.466 215.835 249.321 218.309 250.968 213.963V213.519Z" fill="#E3D9D2"/>
<path fill-rule="evenodd" clip-rule="evenodd" d="M98.6913 36.1574C94.4147 47.0681 112.376 39.456 114.974 34.413C117.666 29.1797 110.824 28.3233 106.959 29.0211C102.398 29.8457 98.8497 33.1443 98.6913 36.1257V36.1574Z" fill="#E3D9D2"/>
<path fill-rule="evenodd" clip-rule="evenodd" d="M115.512 38.79C115.956 36.3795 120.486 34.2545 119.915 37.9336C119.599 39.9952 116.684 41.3591 115.892 39.1389L115.512 38.7583V38.79Z" fill="#E3D9D2"/>
<path fill-rule="evenodd" clip-rule="evenodd" d="M347.333 39.5195C342.835 45.7995 361.683 45.8946 362.538 39.6146C363.425 33.1761 349.012 35.3646 346.921 39.1389L347.301 39.5195H347.333Z" fill="#E3D9D2"/>
<path fill-rule="evenodd" clip-rule="evenodd" d="M360.543 32.1294C360.923 28.2282 366.308 29.9409 365.168 32.288C364.218 34.2227 361.493 32.8271 360.543 31.7488V32.1294Z" fill="#E3D9D2"/>
<path fill-rule="evenodd" clip-rule="evenodd" d="M374.925 36.7917C376.699 36.76 378.378 36.3477 379.93 35.5865C379.486 32.0659 375.146 32.8905 374.101 35.5865C374.259 36.1574 374.608 36.0305 374.925 36.3794V36.76V36.7917Z" fill="#E3D9D2"/>
<path fill-rule="evenodd" clip-rule="evenodd" d="M325.57 44.2136C325.538 42.7546 325.95 41.9934 327.439 41.9299C329.276 43.4206 328.801 46.3703 326.362 45.7677L325.57 44.2136Z" fill="#E3D9D2"/>
<path fill-rule="evenodd" clip-rule="evenodd" d="M321.103 199.056C314.356 204.734 328.865 203.053 322.339 199.881L321.103 199.056Z" fill="#E3D9D2"/>
<path fill-rule="evenodd" clip-rule="evenodd" d="M292.435 214.344C290.787 216.057 291.421 219.577 294.367 218.309C296.616 217.325 296.109 213.392 293.353 214.661L292.435 214.344Z" fill="#E3D9D2"/>
<path fill-rule="evenodd" clip-rule="evenodd" d="M305.93 223.573C306.468 221.702 308.844 221.67 308.717 223.573C308.622 225.159 307.038 225.001 306.532 223.891L305.93 223.573Z" fill="#E3D9D2"/>
<path fill-rule="evenodd" clip-rule="evenodd" d="M174.307 144.313C175.321 143.71 176.113 142.949 176.715 141.966C175.099 140.57 175.036 141.648 174.307 142.98V144.313Z" fill="#E3D9D2"/>
</g>
<path style="mix-blend-mode:multiply" opacity="0.69" fill-rule="evenodd" clip-rule="evenodd" d="M420.414 140.221C420.414 140.221 356.329 121.413 324.049 119.637C291.769 117.861 271.052 125.599 271.052 125.599L322.877 150.402C322.877 150.402 390.637 148.785 420.382 140.221H420.414Z" fill="url(#paint13_linear_82_1561)"/>
</g>
<path d="M79.3594 332.438H74.6406V340H70.6875V323.547C70.6875 321.964 70.2865 320.786 69.4844 320.016C68.6927 319.234 67.5729 318.844 66.125 318.844C64.6979 318.844 63.5781 319.234 62.7656 320.016C61.9635 320.797 61.5625 321.974 61.5625 323.547V329.75H57.6406V323.547C57.6406 321.859 58 320.427 58.7188 319.25C59.4479 318.062 60.4531 317.172 61.7344 316.578C63.0156 315.984 64.4792 315.688 66.125 315.688C67.7396 315.688 69.1875 315.99 70.4688 316.594C71.7604 317.188 72.776 318.078 73.5156 319.266C74.2656 320.443 74.6406 321.87 74.6406 323.547V329.266H79.3594V332.438ZM88.7812 325.875C87.2812 325.875 86.1458 326.562 85.375 327.938V340H81.5781V323.094H85.1562L85.2812 325.031C86.5208 323.531 88.151 322.781 90.1719 322.781C93.7552 322.781 95.5521 324.849 95.5625 328.984V340H91.7656V329.031C91.7656 327.896 91.5208 327.089 91.0312 326.609C90.5417 326.12 89.7917 325.875 88.7812 325.875ZM106.062 336.953V340H98.5938V323.094H102.391V336.953H106.062ZM124.078 343.047H112.891V346.5H109.109V343.047H106.922V340H109.109V323.094H112.594L112.75 324.797C113.896 323.453 115.417 322.781 117.312 322.781C118.688 322.781 119.87 323.083 120.859 323.688C121.849 324.292 122.604 325.172 123.125 326.328C123.656 327.484 123.922 328.865 123.922 330.469V330.781C123.922 332.167 123.651 333.417 123.109 334.531C122.578 335.646 121.812 336.526 120.812 337.172C119.823 337.807 118.667 338.125 117.344 338.125C115.5 338.125 114.016 337.516 112.891 336.297V340H124.078V343.047ZM112.891 333.094C113.589 334.417 114.719 335.078 116.281 335.078C117.094 335.078 117.786 334.88 118.359 334.484C118.943 334.089 119.38 333.562 119.672 332.906C119.974 332.25 120.125 331.536 120.125 330.766V330.453C120.125 328.984 119.797 327.854 119.141 327.062C118.484 326.271 117.521 325.875 116.25 325.875C114.688 325.875 113.568 326.526 112.891 327.828V333.094ZM152.547 340H148.875V346.5H145.078V329.031C145.078 327.896 144.833 327.089 144.344 326.609C143.854 326.12 143.104 325.875 142.094 325.875C140.594 325.875 139.458 326.562 138.688 327.938V340H134.891V323.094H138.469L138.594 325.031C139.833 323.531 141.464 322.781 143.484 322.781C147.068 322.781 148.865 324.849 148.875 328.984V336.953H152.547V340ZM158.125 326.141V334.047C158.125 335.182 158.37 335.995 158.859 336.484C159.359 336.964 160.01 337.203 160.812 337.203C162.615 337.203 163.854 336.552 164.531 335.25V329.656H168.328V340H164.75L164.656 338.344C163.552 339.656 161.969 340.312 159.906 340.312C158.177 340.312 156.818 339.807 155.828 338.797C154.839 337.786 154.339 336.214 154.328 334.078V316H158.125V323.094H169.297V326.141H158.125ZM186.984 336.953V340H179.359V336.953C179.359 337.036 179.635 336.677 180.188 335.875C180.74 335.062 181.234 334.073 181.672 332.906C182.109 331.729 182.328 330.438 182.328 329.031C182.328 327.896 182.083 327.089 181.594 326.609C181.104 326.12 180.354 325.875 179.344 325.875C177.844 325.875 176.708 326.562 175.938 327.938V340H172.141V323.094H175.719L175.844 325.031C177.083 323.531 178.714 322.781 180.734 322.781C184.318 322.781 186.115 324.849 186.125 328.984C186.125 330.401 185.906 331.698 185.469 332.875C185.031 334.052 184.536 335.047 183.984 335.859C183.432 336.672 183.156 337.036 183.156 336.953H186.984ZM195.828 341.734C195.828 340.911 196.031 340.115 196.438 339.344C196.854 338.562 197.37 337.828 197.984 337.141C198.599 336.453 199.448 335.589 200.531 334.547L201.859 333.25C202.016 333.094 202.094 332.927 202.094 332.75C202.094 332.573 202.021 332.411 201.875 332.266C201.604 332.026 201.224 331.714 200.734 331.328C199.964 330.714 199.365 330.203 198.938 329.797C198.51 329.38 198.151 328.927 197.859 328.438C197.578 327.938 197.438 327.396 197.438 326.812C197.438 326.167 197.604 325.526 197.938 324.891C198.281 324.245 198.719 323.646 199.25 323.094H203.031C202.479 323.677 202.036 324.229 201.703 324.75C201.38 325.271 201.219 325.766 201.219 326.234C201.219 326.578 201.297 326.885 201.453 327.156C201.609 327.417 201.812 327.661 202.062 327.891C202.323 328.109 202.698 328.401 203.188 328.766C203.833 329.224 204.38 329.656 204.828 330.062C205.536 330.698 205.891 331.464 205.891 332.359C205.891 332.849 205.781 333.339 205.562 333.828C205.354 334.318 205.052 334.771 204.656 335.188L203.844 336.047C202.781 337.161 201.984 338.016 201.453 338.609C200.922 339.203 200.5 339.745 200.188 340.234C199.885 340.724 199.734 341.151 199.734 341.516C199.734 342.172 199.964 342.656 200.422 342.969C200.88 343.292 201.417 343.453 202.031 343.453H208.391V346.5H201.469C200.521 346.5 199.62 346.354 198.766 346.062C197.922 345.781 197.219 345.286 196.656 344.578C196.104 343.87 195.828 342.922 195.828 341.734ZM218.438 325.875C216.938 325.875 215.802 326.562 215.031 327.938V340H211.234V323.094H214.812L214.938 325.031C216.177 323.531 217.807 322.781 219.828 322.781C223.411 322.781 225.208 324.849 225.219 328.984V340H221.422V329.031C221.422 327.896 221.177 327.089 220.688 326.609C220.198 326.12 219.448 325.875 218.438 325.875ZM235.719 336.953V340H228.25V323.094H232.047V336.953H235.719ZM252 323.094V340H248.422L248.328 338.344C247.224 339.656 245.641 340.312 243.578 340.312C241.849 340.312 240.49 339.807 239.5 338.797C238.51 337.786 238.01 336.214 238 334.078V319.047H234.312V316H241.797V334.047C241.797 335.182 242.042 335.995 242.531 336.484C243.031 336.964 243.682 337.203 244.484 337.203C246.286 337.203 247.526 336.552 248.203 335.25V323.094H252ZM259.719 326.141V334.047C259.719 335.182 259.964 335.995 260.453 336.484C260.953 336.964 261.604 337.203 262.406 337.203C264.208 337.203 265.448 336.552 266.125 335.25V329.656H269.922V340H266.344L266.25 338.344C265.146 339.656 263.562 340.312 261.5 340.312C259.771 340.312 258.411 339.807 257.422 338.797C256.432 337.786 255.932 336.214 255.922 334.078V316H259.719V323.094H270.891V326.141H259.719ZM289.766 343.047H278.578V346.5H274.797V343.047H272.609V340H274.797V323.094H278.281L278.438 324.797C279.583 323.453 281.104 322.781 283 322.781C284.375 322.781 285.557 323.083 286.547 323.688C287.536 324.292 288.292 325.172 288.812 326.328C289.344 327.484 289.609 328.865 289.609 330.469V330.781C289.609 332.167 289.339 333.417 288.797 334.531C288.266 335.646 287.5 336.526 286.5 337.172C285.51 337.807 284.354 338.125 283.031 338.125C281.188 338.125 279.703 337.516 278.578 336.297V340H289.766V343.047ZM278.578 333.094C279.276 334.417 280.406 335.078 281.969 335.078C282.781 335.078 283.474 334.88 284.047 334.484C284.63 334.089 285.068 333.562 285.359 332.906C285.661 332.25 285.812 331.536 285.812 330.766V330.453C285.812 328.984 285.484 327.854 284.828 327.062C284.172 326.271 283.208 325.875 281.938 325.875C280.375 325.875 279.255 326.526 278.578 327.828V333.094ZM317.281 337.219C318.812 337.219 319.896 336.594 320.531 335.344V323.094H324.312V346.5H320.531V338.234C319.438 339.62 317.844 340.312 315.75 340.312C313.51 340.312 311.969 339.453 311.125 337.734C309.896 339.453 308.161 340.312 305.922 340.312C302.224 340.312 300.37 338.25 300.359 334.125V323.094H304.156V334.062C304.156 335.25 304.411 336.073 304.922 336.531C305.432 336.99 306.193 337.219 307.203 337.219C308.047 337.219 308.745 336.995 309.297 336.547C309.849 336.089 310.234 335.469 310.453 334.688V323.094H314.25V334.031C314.25 335.167 314.505 335.984 315.016 336.484C315.536 336.974 316.292 337.219 317.281 337.219ZM345.156 337.219C346.688 337.219 347.771 336.594 348.406 335.344V323.094H352.188V340H348.625L348.516 338.234C347.318 339.62 345.688 340.312 343.625 340.312C341.385 340.312 339.844 339.453 339 337.734C337.771 339.453 336.036 340.312 333.797 340.312C330.099 340.312 328.245 338.25 328.234 334.125V323.094H332.031V334.062C332.031 335.25 332.286 336.073 332.797 336.531C333.307 336.99 334.068 337.219 335.078 337.219C335.922 337.219 336.62 336.995 337.172 336.547C337.724 336.089 338.109 335.469 338.328 334.688V323.094H342.125V334.031C342.125 335.167 342.38 335.984 342.891 336.484C343.411 336.974 344.167 337.219 345.156 337.219ZM374.5 322.781C378.198 322.781 380.052 324.844 380.062 328.969V340H376.266V329.031C376.266 327.906 376.005 327.099 375.484 326.609C374.964 326.12 374.208 325.875 373.219 325.875C371.698 325.875 370.62 326.49 369.984 327.719V340H366.203V338.359C365.62 339.005 364.943 339.495 364.172 339.828C363.401 340.151 362.568 340.312 361.672 340.312C357.974 340.312 356.12 338.25 356.109 334.125V323.094H359.906V334.062C359.906 335.188 360.167 335.995 360.688 336.484C361.208 336.974 361.964 337.219 362.953 337.219C364.484 337.219 365.568 336.594 366.203 335.344V323.094H369.984V324.719C370.568 324.073 371.245 323.589 372.016 323.266C372.786 322.943 373.615 322.781 374.5 322.781ZM401.422 343.453V346.5H393.953V343.453H393.969V338.344C392.99 339.656 391.448 340.312 389.344 340.312C387.604 340.312 386.24 339.807 385.25 338.797C384.26 337.776 383.766 336.203 383.766 334.078V323.094H387.562V334.047C387.562 335.182 387.807 335.995 388.297 336.484C388.797 336.964 389.448 337.203 390.25 337.203C392.052 337.203 393.292 336.552 393.969 335.25V316H397.766V343.453H401.422ZM406.531 326.141V334.047C406.531 335.182 406.776 335.995 407.266 336.484C407.766 336.964 408.417 337.203 409.219 337.203C411.021 337.203 412.26 336.552 412.938 335.25V329.656H416.734V340H413.156L413.062 338.344C411.958 339.656 410.375 340.312 408.312 340.312C406.583 340.312 405.224 339.807 404.234 338.797C403.245 337.786 402.745 336.214 402.734 334.078V316H406.531V323.094H417.703V326.141H406.531ZM427.75 325.875C426.25 325.875 425.115 326.562 424.344 327.938V346.5H420.547V323.094H424.125L424.25 325.031C425.49 323.531 427.12 322.781 429.141 322.781C432.724 322.781 434.521 324.849 434.531 328.984V340H430.734V329.031C430.734 327.896 430.49 327.089 430 326.609C429.51 326.12 428.76 325.875 427.75 325.875ZM452.75 323.094V340H449.172L449.078 338.344C447.974 339.656 446.391 340.312 444.328 340.312C442.599 340.312 441.24 339.807 440.25 338.797C439.26 337.786 438.76 336.214 438.75 334.078V319.047H435.062V316H442.547V334.047C442.547 335.182 442.792 335.995 443.281 336.484C443.781 336.964 444.432 337.203 445.234 337.203C447.036 337.203 448.276 336.552 448.953 335.25V323.094H452.75ZM460.469 326.141V334.047C460.469 335.182 460.714 335.995 461.203 336.484C461.703 336.964 462.354 337.203 463.156 337.203C464.958 337.203 466.198 336.552 466.875 335.25V329.656H470.672V340H467.094L467 338.344C465.896 339.656 464.312 340.312 462.25 340.312C460.521 340.312 459.161 339.807 458.172 338.797C457.182 337.786 456.682 336.214 456.672 334.078V316H460.469V323.094H471.641V326.141H460.469ZM481.688 325.875C480.188 325.875 479.052 326.562 478.281 327.938V346.5H474.484V323.094H478.062L478.188 325.031C479.427 323.531 481.057 322.781 483.078 322.781C486.661 322.781 488.458 324.849 488.469 328.984V340H484.672V329.031C484.672 327.896 484.427 327.089 483.938 326.609C483.448 326.12 482.698 325.875 481.688 325.875Z" fill="#26AA9D"/>
<defs>
<radialGradient id="paint0_radial_82_1561" cx="0" cy="0" r="1" gradientUnits="userSpaceOnUse" gradientTransform="translate(176.429 5.3919) scale(76.5661 76.6601)">
<stop offset="0.02" stop-color="#FFA874"/>
<stop offset="1" stop-color="#F49372"/>
</radialGradient>
<radialGradient id="paint1_radial_82_1561" cx="0" cy="0" r="1" gradientUnits="userSpaceOnUse" gradientTransform="translate(95.7766 25.6908) scale(41.1816 41.2322)">
<stop stop-color="#FFCF84"/>
<stop offset="0.98" stop-color="#FFB88B"/>
</radialGradient>
<radialGradient id="paint2_radial_82_1561" cx="0" cy="0" r="1" gradientUnits="userSpaceOnUse" gradientTransform="translate(195.943 105.459) scale(103.588 103.715)">
<stop offset="0.02" stop-color="#FFA874"/>
<stop offset="1" stop-color="#F49372"/>
</radialGradient>
<radialGradient id="paint3_radial_82_1561" cx="0" cy="0" r="1" gradientUnits="userSpaceOnUse" gradientTransform="translate(333.616 220.148) scale(107.231 107.362)">
<stop offset="0.02" stop-color="#BD4D4D"/>
<stop offset="1" stop-color="#9F3E54"/>
</radialGradient>
<radialGradient id="paint4_radial_82_1561" cx="0" cy="0" r="1" gradientUnits="userSpaceOnUse" gradientTransform="translate(275.201 73.4567) scale(89.6491 89.7593)">
<stop stop-color="#FFCF84"/>
<stop offset="0.98" stop-color="#FFB88B"/>
</radialGradient>
<radialGradient id="paint5_radial_82_1561" cx="0" cy="0" r="1" gradientUnits="userSpaceOnUse" gradientTransform="translate(271.844 74.884) scale(78.9736 79.0706)">
<stop offset="0.02" stop-color="#BD4D4D"/>
<stop offset="1" stop-color="#9F3E54"/>
</radialGradient>
<radialGradient id="paint6_radial_82_1561" cx="0" cy="0" r="1" gradientUnits="userSpaceOnUse" gradientTransform="translate(120.074 48.7174) scale(48.8794 48.9394)">
<stop stop-color="#FFCF84"/>
<stop offset="0.98" stop-color="#FFB88B"/>
</radialGradient>
<radialGradient id="paint7_radial_82_1561" cx="0" cy="0" r="1" gradientUnits="userSpaceOnUse" gradientTransform="translate(236.428 77.1359) scale(33.7055 33.7469)">
<stop offset="0.02" stop-color="#BD4D4D"/>
<stop offset="1" stop-color="#9F3E54"/>
</radialGradient>
<radialGradient id="paint8_radial_82_1561" cx="0" cy="0" r="1" gradientUnits="userSpaceOnUse" gradientTransform="translate(382.369 13.0991) scale(68.4565 68.5406)">
<stop stop-color="#FFCF84"/>
<stop offset="0.98" stop-color="#FFB88B"/>
</radialGradient>
<radialGradient id="paint9_radial_82_1561" cx="0" cy="0" r="1" gradientUnits="userSpaceOnUse" gradientTransform="translate(455.799 13.448) scale(47.4222 47.4804)">
<stop offset="0.02" stop-color="#BD4D4D"/>
<stop offset="1" stop-color="#9F3E54"/>
</radialGradient>
<radialGradient id="paint10_radial_82_1561" cx="0" cy="0" r="1" gradientUnits="userSpaceOnUse" gradientTransform="translate(391.238 92.3918) scale(72.828 72.9175)">
<stop stop-color="#FFCF84"/>
<stop offset="0.98" stop-color="#FFB88B"/>
</radialGradient>
<radialGradient id="paint11_radial_82_1561" cx="0" cy="0" r="1" gradientUnits="userSpaceOnUse" gradientTransform="translate(416.993 99.0206) scale(60.2201 60.2941)">
<stop offset="0.02" stop-color="#BD4D4D"/>
<stop offset="1" stop-color="#9F3E54"/>
</radialGradient>
<linearGradient id="paint12_linear_82_1561" x1="134.899" y1="243.714" x2="254.769" y2="243.714" gradientUnits="userSpaceOnUse">
<stop stop-color="#D3B8D6"/>
<stop offset="1" stop-color="white"/>
</linearGradient>
<linearGradient id="paint13_linear_82_1561" x1="271.052" y1="134.893" x2="420.414" y2="134.893" gradientUnits="userSpaceOnUse">
<stop stop-color="white"/>
<stop offset="1" stop-color="#D3B8D6"/>
</linearGradient>
<clipPath id="clip0_82_1561">
<rect width="474" height="278" fill="white" transform="translate(36)"/>
</clipPath>
</defs>
</svg>
