<svg width="25" height="24" viewBox="0 0 25 24" fill="none" xmlns="http://www.w3.org/2000/svg">
<path d="M21.3098 14.8525L16.9188 12.9706C16.6895 12.8719 16.4392 12.8322 16.1907 12.855C15.9421 12.8779 15.7032 12.9626 15.4958 13.1014L13.148 14.6664C11.7131 13.9685 10.5518 12.8123 9.84753 11.3805L9.84771 11.3803L11.4072 8.99734C11.543 8.79047 11.6253 8.55318 11.6469 8.30669C11.6685 8.0602 11.6287 7.8122 11.531 7.58487L9.6474 3.19006C9.51918 2.89174 9.29778 2.64298 9.01635 2.48103C8.73492 2.31907 8.4086 2.25263 8.08624 2.29166C6.81956 2.45452 5.65548 3.07296 4.81148 4.03144C3.96749 4.98992 3.50129 6.22289 3.5 7.5C3.5 14.944 9.55603 21 17 21C18.2771 20.9987 19.5101 20.5325 20.4686 19.6885C21.4271 18.8445 22.0455 17.6804 22.2083 16.4137C22.2473 16.0913 22.1808 15.765 22.0188 15.4836C21.8568 15.2022 21.6081 14.9808 21.3098 14.8525Z" fill="#353432"/>
</svg>
