<svg width="688" height="608" viewBox="0 0 688 608" fill="none" xmlns="http://www.w3.org/2000/svg">
<path d="M604.656 313.658C604.627 313.586 604.656 313.499 604.729 313.47C604.801 313.441 604.874 313.47 604.917 313.542C609.112 323.176 612.044 333.302 614.512 343.5C616.878 353.742 618.605 364.113 619.81 374.557L620.564 382.412C620.68 383.728 620.826 385.03 620.913 386.347L621.13 390.281C621.247 392.914 621.406 395.532 621.479 398.165L621.406 406.049L621.319 409.998C621.261 411.314 621.159 412.63 621.072 413.932C620.869 416.55 620.709 419.183 620.477 421.801C619.969 427.038 619.185 432.231 618.373 437.41C618.373 437.482 618.3 437.525 618.242 437.525C618.169 437.525 618.097 437.467 618.097 437.381C618.097 434.748 618.227 432.13 618.286 429.511C618.358 426.893 618.59 424.289 618.547 421.671C618.547 419.053 618.605 416.449 618.634 413.845L618.706 409.94L618.634 406.034L618.605 398.223L618.387 390.411L618.3 386.506C618.256 385.204 618.155 383.902 618.082 382.6L617.603 374.789C616.689 364.403 615.252 354.045 613.162 343.804C611.072 333.577 608.503 323.393 604.671 313.658H604.656Z" fill="#263238"/>
<path d="M603.539 354.537C603.539 354.537 603.553 354.393 603.626 354.364C603.698 354.335 603.771 354.364 603.8 354.45C606.064 360.945 607.864 367.585 609.388 374.311C610.839 381.038 611.986 387.851 612.683 394.722C613.38 401.564 614.149 408.406 614.236 415.292C614.338 422.163 614.236 429.048 613.496 435.92C613.496 435.977 613.438 436.035 613.365 436.05C613.292 436.05 613.22 436.006 613.205 435.92C612.407 429.063 611.928 422.235 611.449 415.408C610.956 408.58 610.898 401.738 610.448 394.91C610.027 388.097 609.17 381.327 607.995 374.586C606.848 367.845 605.411 361.133 603.51 354.552L603.539 354.537Z" fill="#263238"/>
<path d="M580.794 368.93C580.794 368.93 580.924 368.844 580.982 368.887C586.672 372.474 591.752 377.002 596.194 382.094C598.371 384.683 600.403 387.388 602.145 390.339L603.364 392.639L604.322 395.026C604.671 395.821 604.903 396.632 605.15 397.442C605.396 398.252 605.672 399.062 605.89 399.886C607.603 406.454 608.735 413.151 609.04 419.877C609.315 426.604 609.185 433.33 608.285 440.013C608.285 440.071 608.227 440.129 608.154 440.129C608.082 440.129 608.009 440.071 608.009 439.999L606.282 420.065C605.585 413.469 605.164 406.844 603.742 400.407C603.567 399.611 603.335 398.816 603.132 398.02C602.929 397.225 602.726 396.429 602.435 395.677L601.622 393.377L600.577 391.207C599.039 388.328 597.152 385.58 595.134 382.962C591.07 377.74 586.295 372.981 580.852 369.104C580.852 369.104 580.779 368.974 580.808 368.916L580.794 368.93Z" fill="#263238"/>
<path d="M591.796 394.534C594.902 396.53 596.963 399.669 598.705 402.823C600.36 406.049 601.681 409.462 602.58 412.977C602.856 413.845 603.074 414.728 603.263 415.61L603.887 418.257C604.206 420.037 604.453 421.83 604.554 423.638C604.584 425.447 604.627 427.255 604.511 429.049C604.366 430.857 604.148 432.65 603.8 434.43C603.8 434.488 603.742 434.531 603.684 434.545C603.611 434.56 603.538 434.516 603.524 434.43C603.089 432.65 602.798 430.886 602.566 429.135C602.29 427.385 602.014 425.635 601.797 423.899C601.535 422.163 601.303 420.427 601.173 418.677C600.926 416.955 600.795 415.176 600.418 413.469C599.808 410.012 598.807 406.642 597.457 403.416C596.107 400.219 594.351 397.022 591.651 394.78H591.636C591.636 394.78 591.564 394.635 591.607 394.577C591.651 394.52 591.738 394.491 591.796 394.534Z" fill="#263238"/>
<path d="M623.699 414.496C624.454 405.643 625.906 396.892 627.299 388.126C628.693 379.374 630.217 370.637 631.828 361.929C633.497 353.221 635.239 344.542 637.111 335.877C637.126 335.805 637.198 335.761 637.271 335.776C637.343 335.776 637.401 335.862 637.387 335.935C635.863 344.657 634.498 353.409 633.192 362.16C631.857 370.912 630.609 379.664 629.491 388.444C628.402 397.225 627.56 406.02 626.457 414.786L623.206 441.127C623.206 441.127 623.148 441.243 623.075 441.243C623.003 441.243 622.93 441.185 622.93 441.113C622.829 438.899 622.829 436.672 622.771 434.444C622.756 432.216 622.858 430.003 622.901 427.79C622.988 423.349 623.366 418.923 623.699 414.496Z" fill="#263238"/>
<path d="M629.026 414.366C629.505 410.866 630.144 407.379 630.812 403.908L632.06 398.743C632.466 397.022 632.858 395.301 633.366 393.594C635.137 386.737 637.401 379.996 640.159 373.472L641.219 371.042L642.409 368.655C643.164 367.05 644.078 365.516 644.935 363.983C646.792 360.974 648.723 357.951 651.35 355.521C651.408 355.477 651.481 355.477 651.539 355.521C651.597 355.579 651.597 355.666 651.539 355.709C649.115 358.226 647.344 361.322 645.675 364.388C644.905 365.965 644.093 367.513 643.425 369.133L642.38 371.534L641.451 373.993C638.998 380.546 637.024 387.272 635.529 394.129C634.716 397.528 634.179 401 633.526 404.428L632.699 409.621C632.394 411.343 632.031 413.064 631.784 414.8C631.233 418.257 630.594 421.715 629.984 425.172C629.447 428.643 628.809 432.101 628.083 435.572C628.083 435.63 628.01 435.688 627.952 435.688C627.88 435.688 627.807 435.63 627.807 435.543C627.793 432.014 627.88 428.47 628.054 424.94C628.257 421.411 628.678 417.896 629.041 414.381L629.026 414.366Z" fill="#263238"/>
<path d="M636.371 414.829C638.011 410.186 639.912 405.643 641.988 401.188C644.122 396.762 646.415 392.408 649.057 388.271C649.1 388.213 649.187 388.184 649.245 388.227C649.318 388.271 649.333 388.357 649.289 388.415C646.981 392.711 645.022 397.196 643.251 401.738C641.451 406.266 639.825 410.851 638.461 415.523C637.068 420.181 636.081 424.94 634.832 429.613C633.526 434.285 632.466 439.015 631.029 443.76C631.015 443.818 630.957 443.861 630.899 443.861C630.826 443.861 630.754 443.803 630.754 443.716C630.681 438.769 631.175 433.837 632.133 428.991C633.003 424.116 634.716 419.458 636.356 414.829H636.371Z" fill="#263238"/>
<path d="M636.676 430.292C637.518 427.385 638.955 424.68 640.58 422.12C642.177 419.559 644.035 417.129 646.27 415.075C647.417 414.091 648.592 413.137 649.884 412.355C651.161 411.56 652.511 410.88 653.992 410.504C654.05 410.489 654.122 410.518 654.151 410.576C654.181 410.648 654.151 410.721 654.079 410.764H654.064C651.408 411.95 649.158 413.903 647.257 416.044C645.326 418.185 643.788 420.644 642.511 423.204C641.161 425.75 640.464 428.557 639.288 431.175C638.766 432.52 638.258 433.865 637.663 435.211C637.155 436.585 636.589 437.945 635.877 439.304C635.877 439.304 635.805 439.391 635.761 439.391C635.689 439.391 635.616 439.333 635.616 439.261C635.558 437.742 635.645 436.238 635.79 434.733C636.008 433.243 636.327 431.768 636.676 430.307V430.292Z" fill="#263238"/>
<path d="M636.124 348.549C636.124 348.549 650.668 345.207 654.035 329.584C657.388 313.976 646.575 320.659 656.271 296.126C665.966 271.593 663.731 266.009 660.378 258.95C657.025 251.891 655.153 254.118 652.177 263.405C649.187 272.707 638.374 287.201 634.266 314.338C630.159 341.475 636.139 348.549 636.139 348.549H636.124Z" fill="#F8931F"/>
<path d="M607.399 322.149C607.399 322.149 617.095 318.808 617.473 300.581C617.85 282.369 610.39 286.087 609.272 263.405C608.154 240.724 606.659 224.739 602.552 224.363C598.444 223.987 587.63 235.516 583.9 260.801C580.17 286.087 588.748 302.809 596.209 310.244C603.669 317.679 607.399 322.135 607.399 322.135V322.149Z" fill="#F8931F"/>
<path d="M641.35 370.493C641.35 370.493 643.585 357.112 648.07 350.791C652.54 344.469 662.251 338.9 668.594 326.619C674.937 314.352 682.02 308.407 681.657 325.881C681.28 343.355 673.456 352.281 663.746 358.226C654.05 364.171 641.364 370.493 641.364 370.493H641.35Z" fill="#F8931F"/>
<path d="M645.457 393.536C645.457 393.536 654.413 376.438 667.462 363.795C680.525 351.152 690.961 344.831 687.231 351.152C683.5 357.474 679.03 357.098 672.687 368.25C666.344 379.403 668.216 387.576 659.261 393.898C650.305 400.219 645.457 393.521 645.457 393.521V393.536Z" fill="#F8931F"/>
<path d="M646.575 415.48C646.952 414.366 647.315 406.179 660.001 399.496C672.687 392.798 684.618 395.402 683.137 398.758C681.642 402.099 673.804 407.683 665.981 411.025C658.143 414.366 646.575 415.48 646.575 415.48Z" fill="#F8931F"/>
<path d="M608.14 371.23C608.14 371.23 613.743 364.171 610.752 349.301C607.762 334.43 601.057 338.148 593.596 330.337C586.135 322.525 587.63 321.412 580.17 313.239C572.709 305.066 565.989 300.596 563.013 303.937C560.023 307.279 564.508 317.694 568.979 323.639C573.45 329.584 580.547 332.564 583.9 340C587.253 347.435 585.773 359.325 594.351 364.909C602.929 370.493 608.154 371.23 608.154 371.23H608.14Z" fill="#F8931F"/>
<path d="M589.488 375.324C589.488 375.324 576.062 360.077 566.352 348.925C556.656 337.772 552.926 329.223 552.548 336.658C552.171 344.093 549.195 350.038 557.019 359.716C564.857 369.379 589.474 375.324 589.474 375.324H589.488Z" fill="#F8931F"/>
<path d="M596.586 399.857C596.586 399.857 596.963 393.912 575.699 380.155C554.435 366.399 545.479 363.795 547.715 369.379C549.95 374.962 559.283 380.532 569.356 390.571C579.43 400.61 596.586 399.872 596.586 399.872V399.857Z" fill="#F8931F"/>
<path d="M635.239 346.972C635.239 346.972 640.232 320.298 645.457 301.334C650.682 282.369 654.035 270.84 654.035 270.84" stroke="#263238" stroke-linecap="round" stroke-linejoin="round"/>
<path d="M608.256 322.439C608.256 322.439 599.184 293.537 596.209 276.062C593.219 258.588 596.586 245.569 598.081 237.773" stroke="#263238" stroke-linecap="round" stroke-linejoin="round"/>
<path d="M642.525 369.928C642.525 369.928 648.07 360.077 656.271 350.415C664.471 340.752 670.814 335.544 674.545 326.243" stroke="#263238" stroke-linecap="round" stroke-linejoin="round"/>
<path d="M608.14 371.23C608.14 371.23 605.15 353.38 598.066 344.093C590.983 334.792 576.802 320.298 571.2 311.011" stroke="#263238" stroke-linecap="round" stroke-linejoin="round"/>
<path d="M647.446 415.075C647.446 415.075 660.001 406.931 668.957 402.476" stroke="#263238" stroke-linecap="round" stroke-linejoin="round"/>
<path d="M575.569 490.006C576.41 467.44 601.564 452.41 601.564 452.41H640.116C640.116 452.41 665.27 467.454 666.112 490.006C666.953 512.572 637.605 595.285 637.605 595.285H604.09C604.09 595.285 574.741 512.557 575.583 490.006H575.569Z" fill="#263238" stroke="#263238" stroke-linecap="round" stroke-linejoin="round"/>
<path d="M596.6 430.22H645.791L640.116 452.41H602.276L596.6 430.22Z" fill="#263238" stroke="#263238" stroke-linecap="round" stroke-linejoin="round"/>
<path d="M6.19781 595.285H680.685" stroke="#263238" stroke-linecap="round" stroke-linejoin="round"/>
<path d="M413.213 496.765C413.213 496.765 381.786 455.004 342.548 426.05C303.327 397.096 269.689 385.229 260.446 388.011C251.22 390.774 243.101 399.661 243.101 399.661L133.504 509.318C133.504 509.318 97.3649 537.784 93.3595 540.259C89.3541 542.733 70.7225 554.348 59.2862 557.924C47.8499 561.5 29.1277 560.94 29.019 564.408C28.9102 567.876 31.4476 570.568 37.0479 572.898C42.6483 575.228 56.4588 579.563 69.5263 579.942C82.5938 580.321 90.804 582.308 94.7007 583.302C98.5973 584.277 109.762 589.389 112.517 585.126C115.253 580.863 119.041 556.226 120.002 553.643C120.962 551.06 155.688 526.044 180.011 514.177C204.333 502.31 234.111 482.784 242.666 473.482C251.22 464.18 263.853 449.784 263.853 449.784C263.853 449.784 302.838 486.559 316.268 503.881C329.698 521.221 351.283 542.697 390.395 560.796C429.507 578.894 443.898 564.119 446.507 549.435C449.117 534.75 413.213 496.765 413.213 496.765Z" fill="white" stroke="#263238" stroke-linecap="round" stroke-linejoin="round"/>
<path d="M342.548 426.05C303.327 397.096 269.689 385.229 260.445 388.01C251.22 390.774 243.101 399.661 243.101 399.661L134.791 508.017C137.147 514.574 142.494 523.027 154.673 528.572C163.21 523.208 172.127 518.006 179.974 514.177C204.297 502.31 234.075 482.784 242.629 473.482C251.184 464.18 263.816 449.784 263.816 449.784C263.816 449.784 302.801 486.559 316.231 503.881C329.661 521.221 366.054 569.737 407.758 580.683C484.532 600.822 481.904 561.807 484.532 547.123C487.142 532.438 413.195 496.764 413.195 496.764C413.195 496.764 381.768 455.004 342.529 426.05H342.548Z" fill="#263238" stroke="#263238" stroke-linecap="round" stroke-linejoin="round"/>
<path d="M29.019 564.408C28.9102 567.876 31.4476 570.568 37.0479 572.898C42.6483 575.228 56.4588 579.563 69.5263 579.942C82.5938 580.321 90.804 582.308 94.7007 583.302C98.5973 584.277 109.762 589.389 112.517 585.126C114.873 581.459 118.008 562.747 119.44 555.937C107.496 556.334 93.9213 551.132 93.9213 551.132C93.9213 551.132 94.8819 548.116 93.3776 540.259C89.3903 542.751 70.7406 554.347 59.3043 557.924C47.868 561.5 29.1458 560.94 29.0371 564.408H29.019Z" fill="white" stroke="#263238" stroke-linecap="round" stroke-linejoin="round"/>
<path d="M548.002 336.244C537.617 327.014 514.273 304.851 497.98 277.143C481.668 249.436 486.127 240.585 473.893 218.784C461.659 197 443.879 186.289 419.792 191.076C400.218 194.977 390.196 206.682 387.115 210.926C386.426 211.884 385.719 212.805 384.958 213.708C381.442 217.826 370.296 233.017 361.977 268.636C351.972 311.48 352.335 332.541 367.541 342.511C382.729 352.482 393.476 348.056 397.935 352.861C402.375 357.666 403.861 363.572 400.164 363.572C396.467 363.572 394.6 361.35 394.6 361.35C394.6 361.35 403.118 374.283 411.274 370.58C419.43 366.877 428.691 353.584 422.765 335.864C416.838 318.127 400.907 300.046 398.297 296.723C395.706 293.4 390.522 254.981 390.522 254.981C390.522 254.981 390.884 242.048 405.348 246.491C419.792 250.917 439.439 259.045 445.746 271.977C452.053 284.91 475.397 314.081 495.769 322.95C516.158 331.818 524.314 339.946 531.709 361.73C539.103 383.513 539.121 390.539 539.121 390.539C539.121 390.539 554.309 383.513 557.282 367.636C560.254 351.759 558.387 345.474 548.02 336.244H548.002ZM369.009 336.984C361.958 329.235 366.417 315.201 366.417 315.201C364.188 335.142 387.169 346.232 387.169 346.232C387.169 346.232 376.059 344.751 369.009 337.002V336.984Z" fill="#263238" stroke="#263238" stroke-linecap="round" stroke-linejoin="round"/>
<path d="M414.845 500.179C414.845 500.179 365.62 491.49 353.422 495.844C341.225 500.179 309.435 552.271 303.762 558.358C298.107 564.427 292 567.046 286.78 567.046C281.56 567.046 262.82 563.578 251.927 565.745C241.035 567.913 227.532 574.867 228.837 581.369C230.142 587.872 236.25 590.924 256.277 593.959C276.304 596.993 297.654 589.624 303.327 586.571C308.982 583.537 315.525 579.184 317.264 578.317C319.004 577.45 334.682 573.982 343.399 568.328C352.117 562.693 361.687 553.571 361.687 553.571C361.687 553.571 398.714 570.496 412.652 577.883C426.589 585.271 448.374 590.039 460.572 590.039C472.769 590.039 499.339 586.571 505.864 583.537C512.388 580.502 524.586 568.78 524.586 555.323C524.586 541.867 526.036 523.082 521.614 522.269C517.191 521.456 513.258 523.208 508.909 522.775C504.559 522.341 480.599 508.885 474.491 506.284C468.401 503.683 414.826 500.215 414.826 500.215L414.845 500.179Z" fill="#263238" stroke="#263238" stroke-linecap="round" stroke-linejoin="round"/>
<path d="M338.615 511.305C343.87 505.38 350.431 498.228 353.422 495.825C358.859 491.49 399.258 496.132 399.258 496.132" stroke="white" stroke-linecap="round" stroke-linejoin="round"/>
<path d="M330.912 520.137C330.912 520.137 332.779 517.952 335.479 514.881" stroke="white" stroke-linecap="round" stroke-linejoin="round"/>
<path d="M302.457 559.658C297.183 564.77 291.619 567.028 286.798 567.028C281.578 567.028 262.838 563.56 251.945 565.727C241.053 567.895 227.55 574.849 228.855 581.351C230.16 587.854 236.268 590.906 256.295 593.941C276.322 596.975 297.672 589.606 303.345 586.553C308.873 583.591 315.198 579.4 317.138 578.389C307.586 573.891 303.889 565.113 302.475 559.64L302.457 559.658Z" fill="white" stroke="#263238" stroke-linecap="round" stroke-linejoin="round"/>
<path d="M288.085 576.131C285.982 572.717 288.32 568.996 290.513 566.576C289.227 566.865 287.976 567.009 286.78 567.009C281.56 567.009 262.82 563.541 251.927 565.709C241.035 567.876 227.532 574.83 228.837 581.333C230.142 587.835 236.25 590.888 256.277 593.922C276.304 596.957 297.654 589.587 303.327 586.535C304.197 586.065 305.085 585.578 305.973 585.072C300.463 584.313 291.13 581.044 288.085 576.131Z" fill="white" stroke="#263238" stroke-linecap="round" stroke-linejoin="round"/>
<path d="M422.366 320.746C422.366 320.746 388.275 321.107 384.559 334.04C380.862 346.973 384.197 410.498 383.816 431.541C383.436 452.584 383.454 466.257 386.046 471.423C388.637 476.589 403.843 486.198 404.949 486.559C406.055 486.92 404.587 498.372 404.587 498.372C404.587 498.372 430.903 501.696 445.728 502.057C460.554 502.418 473.893 507.963 487.613 518.674C501.333 529.385 510.214 536.412 510.214 536.412L518.732 527.182C518.732 527.182 522.067 558.574 525.782 572.988C529.48 587.384 542.094 588.124 545.791 588.124C549.489 588.124 561.722 587.763 561.722 587.763C561.722 587.763 549.869 565.98 544.668 551.205C539.484 536.43 536.149 523.876 536.149 523.876C536.149 523.876 538.741 519.812 538.741 510.944C538.741 502.075 536.892 496.909 537.255 488.04C537.617 479.172 553.567 440.392 546.897 397.186C540.227 353.981 542.457 341.789 526.145 333.281C509.833 324.774 474.256 319.608 464.251 318.886C454.247 318.145 422.366 320.728 422.366 320.728V320.746Z" fill="#F8931F" stroke="#263238" stroke-linecap="round" stroke-linejoin="round"/>
<path d="M398.279 296.741C397.717 296.019 397.011 293.58 396.267 290.239C388.492 277.288 381.46 263.903 379.611 257.564C376.82 247.936 378.977 229.621 380.427 219.994C375.407 227.941 367.958 243.005 361.958 268.672C351.954 311.516 352.316 332.577 367.523 342.547C382.711 352.518 393.458 348.093 397.917 352.897C402.357 357.702 403.843 363.608 400.146 363.608C396.449 363.608 394.582 361.387 394.582 361.387C394.582 361.387 403.1 374.319 411.256 370.616C419.412 366.914 428.673 353.62 422.747 335.9C416.82 318.163 400.889 300.083 398.279 296.759V296.741ZM369.009 337.002C361.959 329.253 366.417 315.219 366.417 315.219C364.188 335.16 387.169 346.25 387.169 346.25C387.169 346.25 376.059 344.769 369.009 337.02V337.002Z" fill="#263238" stroke="#263238" stroke-linecap="round" stroke-linejoin="round"/>
<path d="M469.489 491.472C475.887 492.393 480.074 492.989 480.074 492.989" stroke="#263238" stroke-linecap="round" stroke-linejoin="round"/>
<path d="M409.353 434.666C409.353 434.666 401.904 479.244 405.058 481.05C407.178 482.26 440.291 487.228 461.804 490.352" stroke="#263238" stroke-linecap="round" stroke-linejoin="round"/>
<path d="M408.212 483.29L404.569 498.39" stroke="#263238" stroke-linecap="round" stroke-linejoin="round"/>
<path d="M488.193 511.449C488.193 511.449 510.558 519.108 521.632 522.251C532.706 525.412 534.282 524.274 534.282 524.274" stroke="#263238" stroke-linecap="round" stroke-linejoin="round"/>
<path d="M450.694 354.053L467.405 363.518L467.858 349.556" stroke="#263238" stroke-linecap="round" stroke-linejoin="round"/>
<path d="M427.876 352.265L424.705 354.74" stroke="#263238" stroke-linecap="round" stroke-linejoin="round"/>
<path d="M406.852 382.429L406.635 373.868" stroke="#263238" stroke-linecap="round" stroke-linejoin="round"/>
<path d="M398.95 236.16C398.95 236.16 379.612 252.976 379.612 257.546C379.612 262.115 385.937 282.074 388.402 290.13C390.867 298.186 396.848 307.308 402.466 313.268C408.084 319.229 418.995 326.237 421.46 326.237C423.925 326.237 427.079 324.485 427.079 324.485C427.079 324.485 428.492 353.222 433.404 363.391C438.334 373.561 440.78 373.199 441.85 370.743C442.901 368.286 455.914 325.876 455.914 325.876L462.239 295.73L448.882 261.393C448.882 261.393 430.25 244.92 417.582 240.711C404.913 236.503 398.95 236.16 398.95 236.16Z" fill="white" stroke="#263238" stroke-linecap="round" stroke-linejoin="round"/>
<path d="M427.079 324.485C427.079 324.485 438.678 315.381 445.021 306.964C445.021 306.964 437.989 323.437 435.887 327.646C433.785 331.854 432.715 334.997 432.715 334.997L427.097 324.485H427.079Z" fill="#263238" stroke="#263238" stroke-linecap="round" stroke-linejoin="round"/>
<path d="M500.191 365.432C500.191 365.432 496.113 379.467 497.599 389.076C499.085 398.686 496.856 429.699 496.856 431.18C496.856 432.661 488.7 436.346 489.081 438.929C489.443 441.512 490.929 446.316 490.929 446.316L479.076 441.512L463.145 462.572C463.145 462.572 475.741 474.764 497.236 486.577C518.732 498.39 533.557 494.705 533.557 494.705C533.557 494.705 542.075 442.631 543.199 419.367C544.305 396.103 549.506 365.451 541.35 343.649C534.989 326.616 506.878 324.449 500.589 353.62" fill="#F8931F"/>
<path d="M500.191 365.432C500.191 365.432 496.113 379.467 497.599 389.076C499.085 398.686 496.856 429.699 496.856 431.18C496.856 432.661 488.7 436.346 489.081 438.929C489.443 441.512 490.929 446.316 490.929 446.316L479.076 441.512L463.145 462.572C463.145 462.572 475.741 474.764 497.236 486.577C518.732 498.39 533.557 494.705 533.557 494.705C533.557 494.705 542.075 442.631 543.199 419.367C544.305 396.103 549.506 365.451 541.35 343.649C534.989 326.616 506.878 324.449 500.589 353.62" stroke="#263238" stroke-linecap="round" stroke-linejoin="round"/>
<path d="M519.928 423.81L523.535 422.311" stroke="#263238" stroke-linecap="round" stroke-linejoin="round"/>
<path d="M501.296 431.541L515.415 425.689" stroke="#263238" stroke-linecap="round" stroke-linejoin="round"/>
<path d="M493.521 447.057C493.521 447.057 524.658 439.308 524.278 441.891C523.915 444.474 513.53 445.576 513.53 445.576" stroke="#263238" stroke-linecap="round" stroke-linejoin="round"/>
<path d="M496.856 448.538C496.856 448.538 519.838 451.121 523.915 460.73" stroke="#263238" stroke-linecap="round" stroke-linejoin="round"/>
<path d="M520 470.249C521.795 471.278 523.281 471.983 524.278 472.164" stroke="#263238" stroke-linecap="round" stroke-linejoin="round"/>
<path d="M495.007 451.861C495.007 451.861 507.223 461.904 516.231 467.883" stroke="#263238" stroke-linecap="round" stroke-linejoin="round"/>
<path d="M351.501 383.784C351.501 383.784 343.146 401.575 346.299 404.502C349.471 407.428 368.447 425.671 370.241 426.574C372.054 427.477 377.237 443.227 379.956 449.314C382.674 455.402 384.251 469.581 389.453 471.604C394.654 473.627 405.71 463.042 405.946 457.641C406.163 452.241 405.946 450.218 400.98 443.227C396.014 436.255 384.722 413.731 384.722 413.731L353.767 380.19L351.501 383.784Z" fill="white" stroke="#263238" stroke-linecap="round" stroke-linejoin="round"/>
<path d="M337.056 361.712L372.072 418.446L398.95 422.058L372.742 370.49L337.056 361.712Z" fill="#263238" stroke="#263238" stroke-linecap="round" stroke-linejoin="round"/>
<path d="M479.076 441.512C479.076 441.512 439.058 413.443 428.673 406.416C418.288 399.39 413.848 395.344 413.848 395.344C413.848 395.344 412.742 388.318 410.15 385.374C407.558 382.411 404.967 381.689 400.146 382.05C395.325 382.411 391.247 383.152 388.293 382.05C385.32 380.948 379.774 371.7 379.031 375.764C378.288 379.828 378.669 382.791 382.366 385.735C386.063 388.697 391.265 389.799 392.751 390.539C394.237 391.28 390.395 391.876 390.395 391.876C390.395 391.876 382.892 395.019 371.872 393.899C362.629 392.96 355.017 389.401 353.839 389.058C351.247 388.318 351.609 392.02 354.582 394.224C357.554 396.446 359.403 397.548 359.403 397.548C359.403 397.548 350.141 396.066 351.247 399.029C352.352 401.991 356.43 404.574 359.022 406.416C361.614 408.259 364.206 411.582 366.435 412.702C368.664 413.804 369.027 418.988 372.742 421.191C376.439 423.413 375.352 423.16 384.831 424.027C399.965 425.4 414.627 423.774 414.627 423.774L463.181 462.554L479.112 441.494L479.076 441.512Z" fill="white" stroke="#263238" stroke-linecap="round" stroke-linejoin="round"/>
<path d="M359.366 397.566C359.366 397.566 368.628 401.991 370.114 401.991H390.123" stroke="#263238" stroke-linecap="round" stroke-linejoin="round"/>
<path d="M357.409 405.622C357.409 405.622 362.411 406.326 363.716 407.193C365.021 408.06 373.503 409.74 376.113 410.173C378.723 410.607 387.858 410.39 387.858 410.39" stroke="#263238" stroke-linecap="round" stroke-linejoin="round"/>
<path d="M366.399 412.702C366.399 412.702 376.748 417.741 378.705 418.175C380.662 418.608 391.319 417.741 391.319 417.741" stroke="#263238" stroke-linecap="round" stroke-linejoin="round"/>
<path d="M487.957 296.741C467.205 274.958 451.274 250.935 451.274 250.935C451.274 250.935 447.196 308.915 456.095 333.661C464.994 358.406 497.599 348.057 509.09 341.789C520.581 335.503 524.659 330.717 531.691 331.818C531.691 331.818 508.709 318.525 487.957 296.723V296.741Z" fill="#263238" stroke="#263238" stroke-linecap="round" stroke-linejoin="round"/>
<path d="M404.496 233.234C391.555 217.917 398.968 236.178 398.968 236.178C398.968 236.178 423.743 259.767 448.9 261.411C448.9 261.411 417.436 248.551 404.496 233.234Z" fill="#263238" stroke="#263238" stroke-linecap="round" stroke-linejoin="round"/>
<path d="M174.856 332C174.608 332 174.356 331.905 174.167 331.713C173.786 331.332 173.786 330.715 174.167 330.334L176.438 328.065C176.82 327.684 177.438 327.684 177.819 328.065C178.201 328.446 178.201 329.063 177.819 329.444L175.548 331.713C175.359 331.902 175.108 332 174.859 332H174.856Z" fill="#26AA9D"/>
<path d="M183.435 323.429C183.186 323.429 182.935 323.334 182.746 323.142C182.364 322.761 182.364 322.144 182.746 321.763L185.017 319.494C185.398 319.113 186.016 319.113 186.398 319.494C186.779 319.875 186.779 320.492 186.398 320.873L184.127 323.142C183.938 323.331 183.686 323.429 183.438 323.429H183.435Z" fill="#26AA9D"/>
<path d="M185.706 332C185.457 332 185.206 331.905 185.017 331.713L182.746 329.444C182.364 329.063 182.364 328.446 182.746 328.065C183.127 327.684 183.745 327.684 184.127 328.065L186.398 330.334C186.779 330.715 186.779 331.332 186.398 331.713C186.209 331.902 185.957 332 185.709 332H185.706Z" fill="#26AA9D"/>
<path d="M177.124 323.429C176.876 323.429 176.625 323.334 176.435 323.142L174.164 320.873C173.783 320.492 173.783 319.875 174.164 319.494C174.546 319.113 175.164 319.113 175.545 319.494L177.816 321.763C178.198 322.144 178.198 322.761 177.816 323.142C177.627 323.331 177.376 323.429 177.127 323.429H177.124Z" fill="#26AA9D"/>
<path d="M284.951 93.1886C284.682 93.1886 284.413 93.0763 284.221 92.8606C283.863 92.4559 283.901 91.8414 284.304 91.4839L286.708 89.3569C287.113 88.9994 287.731 89.0378 288.086 89.4396C288.443 89.8443 288.405 90.4588 288.003 90.8163L285.599 92.9434C285.412 93.1088 285.182 93.1886 284.951 93.1886Z" fill="#26AA9D"/>
<path d="M294.035 85.1588C293.766 85.1588 293.497 85.0465 293.305 84.8308C292.947 84.4261 292.986 83.8116 293.388 83.4541L295.792 81.3271C296.197 80.9696 296.815 81.008 297.17 81.4098C297.528 81.8145 297.489 82.429 297.087 82.7865L294.683 84.9136C294.497 85.079 294.266 85.1588 294.035 85.1588Z" fill="#26AA9D"/>
<path d="M295.78 93.8473C295.511 93.8473 295.242 93.735 295.05 93.5193L292.921 91.1175C292.563 90.7128 292.602 90.0983 293.004 89.7408C293.409 89.3834 294.024 89.4218 294.382 89.8235L296.511 92.2254C296.869 92.6301 296.83 93.2446 296.428 93.6021C296.242 93.7675 296.011 93.8473 295.78 93.8473Z" fill="#26AA9D"/>
<path d="M287.74 84.7748C287.471 84.7748 287.202 84.6625 287.01 84.4468L284.88 82.045C284.523 81.6432 284.561 81.0258 284.963 80.6683C285.368 80.3109 285.986 80.3493 286.341 80.751L288.47 83.1529C288.828 83.5576 288.79 84.1721 288.387 84.5296C288.201 84.695 287.971 84.7748 287.74 84.7748Z" fill="#26AA9D"/>
<path d="M261.844 122.709C261.741 122.709 261.64 122.706 261.537 122.7C260.2 122.617 258.976 122.023 258.092 121.022C257.205 120.021 256.761 118.736 256.844 117.402C256.927 116.067 257.521 114.847 258.523 113.961C259.526 113.075 260.803 112.635 262.149 112.715C264.905 112.883 267.01 115.257 266.842 118.013C266.679 120.662 264.467 122.712 261.844 122.712V122.709ZM261.838 114.655C261.093 114.655 260.38 114.924 259.819 115.42C259.206 115.96 258.843 116.707 258.793 117.52C258.689 119.2 259.975 120.65 261.658 120.754C263.335 120.857 264.792 119.572 264.896 117.892C264.999 116.211 263.713 114.761 262.033 114.661C261.968 114.658 261.906 114.655 261.841 114.655H261.838Z" fill="#26AA9D"/>
<path d="M492.443 580.931C492.174 580.931 491.905 580.819 491.712 580.603C491.355 580.199 491.393 579.584 491.795 579.227L494.199 577.099C494.604 576.742 495.222 576.78 495.577 577.182C495.935 577.587 495.897 578.201 495.495 578.559L493.09 580.686C492.904 580.851 492.673 580.931 492.443 580.931Z" fill="#F8931F"/>
<path d="M501.53 572.898C501.261 572.898 500.992 572.786 500.8 572.57C500.442 572.165 500.48 571.551 500.882 571.193L503.287 569.066C503.692 568.709 504.307 568.747 504.664 569.149C505.022 569.554 504.984 570.168 504.582 570.526L502.178 572.653C501.991 572.818 501.761 572.898 501.53 572.898Z" fill="#F8931F"/>
<path d="M503.275 581.59C503.005 581.59 502.736 581.478 502.544 581.262L500.415 578.86C500.057 578.455 500.096 577.841 500.498 577.483C500.9 577.126 501.521 577.164 501.876 577.566L504.005 579.968C504.363 580.373 504.324 580.987 503.922 581.345C503.736 581.51 503.505 581.59 503.275 581.59Z" fill="#F8931F"/>
<path d="M495.235 572.514C494.965 572.514 494.696 572.402 494.504 572.186L492.375 569.784C492.017 569.38 492.056 568.765 492.458 568.408C492.86 568.05 493.478 568.089 493.836 568.49L495.965 570.892C496.323 571.297 496.284 571.911 495.882 572.269C495.696 572.434 495.465 572.514 495.235 572.514Z" fill="#F8931F"/>
<path d="M432.959 63.2663C429.953 63.2663 426.919 63.3637 423.944 63.5506C423.233 63.5974 422.694 64.2089 422.741 64.9177C422.788 65.6266 423.354 66.1758 424.112 66.1174C427.477 65.9032 430.917 65.8136 434.326 65.8447H434.338C435.044 65.8447 435.618 65.2761 435.626 64.5711C435.634 63.8622 435.06 63.2819 434.349 63.2741C433.889 63.2702 433.424 63.2663 432.963 63.2663H432.959ZM444.63 63.7337C443.966 63.7337 443.4 64.2439 443.346 64.9177C443.291 65.6266 443.818 66.2459 444.529 66.3004C447.879 66.5653 451.295 66.9509 454.688 67.4494C455.399 67.5507 456.047 67.0677 456.152 66.3628C456.254 65.6617 455.77 65.0073 455.063 64.9022C451.615 64.3997 448.14 64.0063 444.736 63.7337C444.7 63.7337 444.665 63.7298 444.63 63.7298V63.7337ZM413.772 64.5867C413.714 64.5867 413.651 64.5906 413.593 64.5984C410.161 65.0774 406.713 65.6967 403.343 66.4329C402.648 66.5848 402.207 67.2703 402.359 67.9636C402.512 68.6568 403.199 69.1008 403.894 68.9451C407.197 68.2206 410.579 67.6169 413.944 67.1456C414.651 67.0482 415.143 66.3978 415.041 65.6928C414.952 65.0502 414.401 64.5867 413.765 64.5867H413.772ZM465.024 66.7016C464.426 66.7016 463.891 67.1184 463.762 67.7221C463.614 68.4193 464.063 69.1009 464.758 69.245C468.046 69.9344 471.392 70.7406 474.711 71.6403C475.402 71.8273 476.105 71.4222 476.292 70.7367C476.48 70.0512 476.073 69.3463 475.386 69.1593C472.021 68.2479 468.624 67.4299 465.289 66.7289C465.199 66.7094 465.11 66.7016 465.02 66.7016H465.024ZM393.641 68.9996C393.516 68.9996 393.391 69.0191 393.266 69.0541C389.97 70.0473 386.659 71.1807 383.422 72.4349C382.759 72.692 382.427 73.4359 382.684 74.098C382.942 74.7601 383.692 75.0912 384.352 74.8342C387.53 73.6073 390.779 72.4933 394.011 71.5196C394.695 71.3132 395.077 70.5965 394.874 69.9188C394.707 69.3618 394.195 69.0035 393.641 69.0035V68.9996ZM484.929 72.0805C484.386 72.0805 483.883 72.4232 483.703 72.9646C483.48 73.6384 483.847 74.3668 484.523 74.5888C487.709 75.6365 490.958 76.7972 494.175 78.0397C494.839 78.2967 495.585 77.9657 495.842 77.3035C496.1 76.6414 495.768 75.8974 495.104 75.6404C491.844 74.3862 488.556 73.21 485.331 72.1467C485.198 72.1038 485.062 72.0805 484.925 72.0805H484.929ZM374.446 76.47C374.239 76.47 374.032 76.5167 373.837 76.6219C370.795 78.25 367.878 80.2909 365.172 82.6902C364.641 83.1614 364.591 83.9755 365.067 84.5052C365.539 85.0349 366.356 85.0816 366.887 84.6104C369.44 82.3435 372.189 80.4194 375.055 78.8848C375.684 78.5499 375.918 77.7709 375.582 77.1438C375.348 76.7115 374.907 76.4661 374.446 76.4661V76.47ZM504.178 79.4846C503.683 79.4846 503.21 79.7729 502.999 80.252C502.71 80.9024 503.007 81.6619 503.659 81.9462C506.74 83.2978 509.871 84.7545 512.964 86.2735C513.604 86.5851 514.377 86.3241 514.69 85.6892C515.006 85.0505 514.74 84.2793 514.104 83.9677C510.98 82.4331 507.814 80.9608 504.702 79.5937C504.534 79.5197 504.358 79.4846 504.182 79.4846H504.178ZM522.698 88.5714C522.241 88.5714 521.8 88.813 521.565 89.2453C521.226 89.8685 521.456 90.6513 522.085 90.9902C525.048 92.5988 528.055 94.3008 531.022 96.0497C531.635 96.408 532.424 96.2094 532.791 95.5979C533.154 94.9864 532.951 94.1996 532.338 93.8374C529.347 92.0691 526.313 90.3514 523.319 88.7312C523.123 88.626 522.913 88.5754 522.706 88.5754L522.698 88.5714ZM359.074 89.9386C358.683 89.9386 358.297 90.1138 358.043 90.4527C355.993 93.1635 354.115 96.1509 352.448 99.3331C352.12 99.964 352.366 100.739 352.994 101.066C353.627 101.393 354.404 101.152 354.732 100.521C356.329 97.4635 358.136 94.5969 360.097 91.999C360.526 91.4303 360.413 90.6241 359.843 90.1995C359.612 90.0242 359.339 89.9425 359.07 89.9425L359.074 89.9386ZM540.467 99.0604C540.042 99.0604 539.628 99.2707 539.382 99.6524C538.999 100.252 539.171 101.047 539.772 101.429C542.623 103.251 545.504 105.164 548.339 107.107C548.925 107.508 549.729 107.364 550.131 106.776C550.533 106.192 550.389 105.39 549.799 104.988C546.941 103.025 544.036 101.101 541.162 99.263C540.948 99.1266 540.706 99.0604 540.467 99.0604ZM349.503 108.077C348.972 108.077 348.473 108.408 348.289 108.934C347.149 112.163 346.192 115.544 345.447 118.987C345.298 119.68 345.739 120.366 346.435 120.517C347.126 120.662 347.817 120.225 347.969 119.532C348.691 116.194 349.617 112.915 350.722 109.791C350.96 109.121 350.605 108.389 349.933 108.151C349.792 108.1 349.648 108.077 349.503 108.077ZM557.48 110.737C557.085 110.737 556.695 110.916 556.441 111.259C556.019 111.832 556.14 112.638 556.714 113.059C559.451 115.068 562.208 117.16 564.906 119.271C565.464 119.707 566.276 119.61 566.718 119.053C567.155 118.496 567.057 117.686 566.499 117.246C563.781 115.119 561.001 113.012 558.245 110.987C558.014 110.819 557.745 110.737 557.48 110.737ZM573.734 123.454C573.363 123.454 572.996 123.61 572.742 123.918C572.286 124.463 572.36 125.273 572.906 125.729C575.542 127.922 578.166 130.173 580.712 132.424C581.243 132.895 582.059 132.849 582.531 132.315C583.004 131.785 582.957 130.971 582.422 130.5C579.857 128.233 577.213 125.962 574.558 123.754C574.316 123.552 574.023 123.454 573.734 123.454ZM345.138 128.136C344.482 128.136 343.92 128.634 343.857 129.3C343.596 132.089 343.463 134.925 343.463 137.725C343.463 138.391 343.471 139.061 343.487 139.731C343.502 140.432 344.076 140.989 344.775 140.989H344.806C345.517 140.973 346.083 140.385 346.067 139.673C346.052 139.022 346.044 138.376 346.044 137.725C346.044 135.003 346.173 132.253 346.427 129.542C346.493 128.833 345.974 128.206 345.263 128.14C345.22 128.136 345.181 128.132 345.142 128.132L345.138 128.136ZM589.185 137.141C588.845 137.141 588.501 137.277 588.251 137.542C587.759 138.056 587.783 138.87 588.298 139.361C591.691 142.57 594.155 145.055 595.623 146.574C596.119 147.088 596.935 147.1 597.447 146.609C597.958 146.115 597.974 145.301 597.482 144.79C595.994 143.252 593.503 140.74 590.075 137.495C589.825 137.258 589.505 137.141 589.188 137.141H589.185ZM345.607 148.666C345.548 148.666 345.486 148.67 345.423 148.678C344.716 148.779 344.228 149.429 344.326 150.13C344.818 153.605 345.525 157.044 346.423 160.358C346.61 161.044 347.321 161.449 348.004 161.266C348.691 161.079 349.097 160.374 348.914 159.688C348.043 156.475 347.36 153.137 346.884 149.772C346.794 149.129 346.239 148.666 345.607 148.666ZM351.003 168.468C350.839 168.468 350.667 168.499 350.507 168.569C349.851 168.841 349.543 169.597 349.816 170.251C351.179 173.5 352.768 176.643 354.536 179.595C354.903 180.203 355.696 180.401 356.305 180.039C356.918 179.673 357.117 178.886 356.75 178.275C355.044 175.428 353.51 172.394 352.198 169.258C351.991 168.764 351.51 168.468 351.007 168.468H351.003ZM361.58 186.041C361.291 186.041 360.998 186.139 360.76 186.337C360.21 186.789 360.136 187.599 360.589 188.148C362.822 190.844 365.286 193.375 367.902 195.669C368.437 196.141 369.253 196.086 369.721 195.553C370.194 195.019 370.139 194.209 369.604 193.738C367.09 191.529 364.723 189.099 362.576 186.509C362.322 186.201 361.951 186.041 361.58 186.041ZM376.999 199.568C376.574 199.568 376.156 199.779 375.91 200.168C375.527 200.768 375.707 201.562 376.312 201.944C379.229 203.783 382.345 205.43 385.582 206.848C386.234 207.132 386.995 206.836 387.28 206.186C387.565 205.535 387.268 204.776 386.616 204.491C383.497 203.128 380.494 201.539 377.687 199.771C377.472 199.634 377.234 199.572 376.999 199.572V199.568Z" fill="#26AA9D"/>
<path d="M171.125 262.674C171.178 262.588 171.244 262.508 171.327 262.441C171.739 262.094 172.355 262.146 172.703 262.558C172.721 262.579 174.571 264.766 177.882 268.379C178.245 268.775 178.216 269.392 177.822 269.757C177.425 270.12 176.806 270.093 176.443 269.697C173.102 266.053 171.231 263.838 171.213 263.817C170.934 263.486 170.912 263.025 171.127 262.675L171.125 262.674ZM181.675 274.225C181.719 274.155 181.77 274.089 181.833 274.031C182.222 273.659 182.842 273.672 183.213 274.06C184.994 275.921 186.825 277.795 188.659 279.636C189.038 280.018 189.037 280.634 188.657 281.015C188.275 281.394 187.657 281.393 187.277 281.013C185.434 279.163 183.592 277.279 181.803 275.41C181.491 275.083 181.449 274.593 181.675 274.225ZM192.704 285.294C192.739 285.236 192.781 285.178 192.834 285.127C193.208 284.74 193.828 284.729 194.215 285.105C196.071 286.898 197.974 288.701 199.873 290.464C200.268 290.832 200.288 291.447 199.923 291.844C199.555 292.239 198.937 292.261 198.542 291.894C196.637 290.124 194.723 288.31 192.858 286.509C192.523 286.185 192.471 285.678 192.705 285.298L192.704 285.294ZM204.148 295.928C204.178 295.88 204.214 295.832 204.252 295.787C204.612 295.383 205.229 295.35 205.63 295.707C207.58 297.446 209.55 299.173 211.496 300.837C211.904 301.188 211.951 301.8 211.601 302.212C211.249 302.62 210.633 302.668 210.224 302.317C208.269 300.644 206.287 298.909 204.329 297.162C203.971 296.842 203.904 296.319 204.147 295.923L204.148 295.928ZM216.015 306.085C216.038 306.047 216.061 306.01 216.092 305.977C216.435 305.56 217.048 305.499 217.467 305.84C219.484 307.491 221.529 309.129 223.547 310.705C223.972 311.036 224.052 311.65 223.715 312.074C223.384 312.499 222.77 312.572 222.345 312.242C220.316 310.656 218.258 309.01 216.23 307.348C215.848 307.033 215.764 306.493 216.016 306.083L216.015 306.085ZM228.327 315.698C228.343 315.673 228.358 315.648 228.375 315.627C228.697 315.194 229.307 315.104 229.741 315.426C231.851 316.993 233.975 318.526 236.054 319.98C236.495 320.289 236.61 320.887 236.292 321.341C235.983 321.782 235.375 321.89 234.931 321.579C232.838 320.113 230.699 318.571 228.576 316.992C228.166 316.688 228.064 316.126 228.326 315.701L228.327 315.698ZM241.115 324.657C241.115 324.657 241.126 324.639 241.132 324.629C241.429 324.181 242.034 324.056 242.484 324.35C244.642 325.773 246.82 327.156 248.953 328.466L249.046 328.523C249.504 328.805 249.648 329.406 249.366 329.864C249.084 330.322 248.482 330.466 248.024 330.184L247.931 330.127C245.78 328.806 243.586 327.409 241.411 325.976C240.969 325.684 240.84 325.098 241.116 324.651L241.115 324.657ZM254.431 332.816C254.705 332.37 255.283 332.22 255.742 332.477C258.023 333.767 260.321 335.012 262.578 336.177C263.058 336.423 263.244 337.013 262.997 337.492C262.753 337.963 262.161 338.158 261.681 337.911C259.402 336.737 257.08 335.48 254.779 334.178C254.312 333.911 254.146 333.317 254.41 332.849C254.417 332.839 254.423 332.828 254.429 332.818L254.431 332.816ZM268.318 339.96C268.574 339.545 269.104 339.378 269.558 339.587C271.939 340.686 274.335 341.721 276.681 342.666C277.183 342.867 277.422 343.437 277.22 343.934C277.027 344.429 276.449 344.674 275.952 344.472C273.577 343.516 271.149 342.465 268.741 341.354C268.251 341.129 268.04 340.548 268.264 340.059C268.28 340.023 268.3 339.99 268.321 339.955L268.318 339.96ZM282.803 345.778C283.037 345.398 283.51 345.217 283.949 345.366C286.435 346.209 288.929 346.972 291.356 347.63C291.875 347.773 292.184 348.309 292.041 348.828C291.896 349.346 291.362 349.656 290.842 349.513C288.374 348.844 285.842 348.069 283.317 347.211C282.807 347.036 282.533 346.483 282.708 345.973C282.731 345.901 282.763 345.837 282.801 345.777L282.803 345.778ZM297.871 349.843C298.079 349.506 298.48 349.316 298.891 349.398C301.461 349.902 304.03 350.301 306.527 350.586C307.062 350.647 307.448 351.131 307.386 351.665C307.327 352.201 306.84 352.585 306.306 352.524C303.756 352.234 301.134 351.827 298.514 351.313C297.984 351.21 297.641 350.697 297.744 350.167C297.768 350.05 297.811 349.941 297.87 349.846L297.871 349.843ZM313.369 351.581C313.545 351.294 313.864 351.108 314.223 351.117C316.823 351.178 319.412 351.111 321.925 350.917C322.464 350.877 322.931 351.278 322.973 351.814C323.015 352.349 322.611 352.819 322.075 352.861C319.5 353.058 316.843 353.125 314.179 353.067C313.638 353.054 313.212 352.608 313.225 352.068C313.227 351.889 313.282 351.722 313.369 351.581ZM328.902 350.372C329.042 350.146 329.274 349.976 329.556 349.924C332.081 349.453 334.596 348.841 337.023 348.099C337.54 347.941 338.084 348.23 338.242 348.747C338.399 349.263 338.11 349.807 337.593 349.964C335.093 350.728 332.508 351.359 329.91 351.841C329.382 351.939 328.871 351.591 328.773 351.062C328.727 350.816 328.779 350.574 328.901 350.375L328.902 350.372ZM343.795 345.825C343.895 345.662 344.045 345.525 344.236 345.441C346.565 344.43 348.875 343.265 351.102 341.987C351.569 341.719 352.166 341.882 352.435 342.348C352.703 342.814 352.54 343.412 352.073 343.68C349.782 344.995 347.408 346.19 345.011 347.231C344.517 347.448 343.943 347.22 343.726 346.726C343.593 346.423 343.63 346.088 343.791 345.826L343.795 345.825ZM357.308 338.09C357.373 337.984 357.459 337.888 357.566 337.811C359.608 336.337 361.631 334.718 363.582 333.003C363.985 332.648 364.603 332.687 364.959 333.09C365.317 333.494 365.275 334.109 364.872 334.465C362.874 336.224 360.799 337.88 358.71 339.392C358.272 339.709 357.663 339.609 357.346 339.171C357.109 338.841 357.104 338.415 357.305 338.088L357.308 338.09Z" fill="#26AA9D"/>
</svg>
