<svg width="592" height="592" viewBox="0 0 592 592" fill="none" xmlns="http://www.w3.org/2000/svg">
<path d="M578.117 394.601L239.866 347.576C231.375 346.493 225.009 339.269 225.009 330.709L220.369 94.8549C220.369 94.8549 228.081 89.2971 232.449 87.1684C234.672 86.0847 237.232 85.6091 239.899 85.9488L577.143 128.943C585.635 130.026 592 137.25 592 145.81V377.465C592 381.609 590.107 385.265 587.175 387.675C584.476 389.894 578.117 394.604 578.117 394.604V394.601Z" fill="#C2E1DE"/>
<path d="M567.794 397.733L230.549 354.739C222.058 353.655 215.692 346.431 215.692 337.871V106.22C215.692 98.2582 222.682 92.1052 230.582 93.1145L567.826 136.108C576.317 137.192 582.683 144.416 582.683 152.976V384.631C582.683 392.592 575.693 398.745 567.794 397.736V397.733Z" fill="white"/>
<path d="M560.626 388.186L238.608 347.133C232.433 346.347 227.802 341.094 227.802 334.869V111.415C227.802 106.1 232.472 101.988 237.747 102.661L559.765 143.714C565.94 144.5 570.57 149.754 570.57 155.978V379.429C570.57 384.744 565.901 388.856 560.626 388.183V388.186Z" fill="#D8D8D8"/>
<path d="M569.464 398.907C568.862 398.907 568.26 398.868 567.658 398.794L230.414 355.8C221.411 354.652 214.625 346.946 214.625 337.875V106.22C214.625 102.118 216.392 98.2131 219.469 95.5021C222.547 92.7911 226.647 91.536 230.718 92.0536L567.962 135.047C576.965 136.196 583.751 143.902 583.751 152.973V384.628C583.751 388.73 581.984 392.634 578.907 395.345C576.286 397.655 572.92 398.907 569.464 398.907ZM567.927 396.672C571.389 397.112 574.875 396.044 577.493 393.741C580.111 391.437 581.612 388.115 581.612 384.628V152.973C581.612 144.972 575.625 138.179 567.69 137.166L230.446 94.1725C226.987 93.7325 223.498 94.8001 220.88 97.1067C218.262 99.41 216.761 102.732 216.761 106.22V337.875C216.761 345.875 222.748 352.669 230.686 353.681L567.93 396.675L567.927 396.672Z" fill="#26AA9D"/>
<path d="M371.045 534.161L24.203 489.447C21.4879 489.101 19.9572 486.826 19.9928 484.555C20.0154 482.99 20.1449 471.952 20.1449 471.952L203.538 367.143C212.726 361.895 224.615 359.87 235.11 361.213L577.57 405.374C579.632 405.64 581.399 406.976 582.218 408.888L582.768 410.175C582.768 410.175 582.473 419.379 582.593 421.53C582.687 423.212 581.93 424.946 580.166 425.953L401.378 528.144C392.19 533.392 381.54 535.501 371.045 534.158V534.161Z" fill="#C2E1DE"/>
<path d="M66.8616 482.598L25.4427 477.25C20.8539 476.662 19.65 470.58 23.666 468.286L201.496 366.754C210.684 361.507 221.334 359.398 231.828 360.74L577.432 405.371C582.02 405.96 583.224 412.042 579.208 414.335L401.378 515.867C392.19 521.114 381.54 523.224 371.046 521.881L66.8616 482.598Z" fill="white"/>
<path d="M438.709 465.52L139.027 426.538C134.884 426.007 133.794 420.514 137.421 418.444L207.884 378.617C216.185 373.878 225.799 371.972 235.281 373.185L534.964 412.168C539.106 412.698 540.197 418.191 536.569 420.262L466.106 460.088C457.805 464.828 448.191 466.733 438.709 465.52Z" fill="#D8D8D8"/>
<path d="M377.152 523.337C375.068 523.337 372.984 523.204 370.91 522.939L201.665 501.238C201.079 501.164 200.665 500.627 200.743 500.041C200.817 499.455 201.358 499.048 201.937 499.116L371.182 520.816C381.382 522.123 391.916 520.034 400.847 514.935L578.678 413.403C580.406 412.417 580.752 410.699 580.496 409.418C580.244 408.137 579.267 406.681 577.293 406.429L231.69 361.798C221.493 360.491 210.953 362.581 202.024 367.679L177.109 381.907C176.598 382.198 175.944 382.02 175.65 381.509C175.355 380.998 175.537 380.344 176.048 380.05L200.963 365.822C210.296 360.494 221.308 358.314 231.961 359.676L577.564 404.306C580.118 404.633 582.092 406.477 582.59 409C583.092 411.524 581.969 413.979 579.736 415.257L401.905 516.789C394.388 521.082 385.783 523.33 377.149 523.33L377.152 523.337Z" fill="#C2E1DE"/>
<path d="M533.822 377.21L267.487 343.536C262.901 342.957 259.186 338.564 259.186 333.725V8.84215C259.186 4.00253 262.901 0.550742 267.487 1.12981L533.822 34.8034C538.407 35.3824 542.122 39.7756 542.122 44.6153V369.501C542.122 374.34 538.407 377.792 533.822 377.213V377.21Z" fill="#C2E1DE"/>
<path d="M534.825 378.342C534.449 378.342 534.071 378.316 533.689 378.27L267.354 344.597C262.26 343.953 258.118 339.078 258.118 333.727V8.84151C258.118 6.11436 259.16 3.69455 261.05 2.02851C262.833 0.456276 265.17 -0.236023 267.623 0.0713056L533.957 33.7481C539.051 34.3919 543.193 39.2671 543.193 44.6178V369.503C543.193 372.231 542.151 374.65 540.261 376.316C538.756 377.643 536.857 378.345 534.825 378.345V378.342ZM533.957 376.148C535.795 376.381 537.53 375.87 538.847 374.709C540.271 373.453 541.054 371.603 541.054 369.497V44.6146C541.054 40.3023 537.75 36.3782 533.689 35.8638L267.351 2.19026C265.513 1.9541 263.778 2.46847 262.461 3.62985C261.037 4.88505 260.254 6.73549 260.254 8.84151V333.727C260.254 338.039 263.558 341.964 267.619 342.478L533.954 376.151L533.957 376.148Z" fill="#263238"/>
<path d="M492.312 197.474L309.682 174.382C307.773 174.139 306.223 172.312 306.223 170.296V152.775C306.223 150.76 307.77 149.32 309.682 149.563L492.312 172.654C494.221 172.897 495.771 174.725 495.771 176.74V194.261C495.771 196.277 494.221 197.716 492.312 197.474Z" fill="white"/>
<path d="M493.694 247.29L309.685 224.024C308.155 223.83 306.915 222.364 306.915 220.75V201.773C306.915 200.159 308.155 199.007 309.685 199.201L493.694 222.468C495.224 222.662 496.464 224.127 496.464 225.742V244.718C496.464 246.333 495.224 247.484 493.694 247.29Z" fill="white"/>
<path d="M464.99 295.499L337.008 279.317C334.908 279.052 333.206 277.039 333.206 274.823V258.027C333.206 255.811 334.908 254.229 337.008 254.494L464.99 270.676C467.09 270.941 468.792 272.954 468.792 275.17V291.966C468.792 294.182 467.09 295.764 464.99 295.499Z" fill="#D8D8D8"/>
<path d="M429.771 129.191C445.852 115.524 446.384 89.7312 430.959 71.5809C415.534 53.4307 389.993 49.7963 373.911 63.4634C357.83 77.1304 357.298 102.923 372.723 121.074C388.148 139.224 413.69 142.858 429.771 129.191Z" fill="#26AA9D"/>
<path d="M410.917 102.118C416.53 97.3485 416.715 88.3469 411.33 82.0122C405.944 75.6776 397.028 74.4085 391.414 79.1778C385.801 83.947 385.616 92.9485 391.001 99.2832C396.387 105.618 405.303 106.887 410.917 102.118Z" fill="white"/>
<path d="M372.307 120.567C377.126 115.782 382.977 111.095 389.21 108.293C390.714 107.617 392.501 107.64 394.151 108.364C400.494 111.15 405.429 110.833 410.911 109.442C412.241 109.105 413.717 109.345 414.988 110.137C421.842 114.411 427.771 119.894 432.282 126.843C414.474 144.739 385.948 138.389 372.311 120.567H372.307Z" fill="white"/>
<path d="M401.85 138.906C378.654 136.095 359.781 114.705 359.781 91.2284C359.781 67.7517 378.654 50.9392 401.85 53.7537C425.047 56.5649 443.919 77.9551 443.919 101.432C443.919 124.908 425.047 141.721 401.85 138.906ZM401.85 57.2249C380.544 54.6401 363.208 70.0842 363.208 91.6457C363.208 113.207 380.544 132.854 401.85 135.439C423.157 138.023 440.492 122.579 440.492 101.018C440.492 79.4561 423.157 59.8097 401.85 57.2249Z" fill="#D8D8D8"/>
<path d="M63.2366 295.955C53.3665 299.617 44.9882 307.323 39.2862 317.471C24.7367 343.361 -13.2325 419.242 4.72786 477.835C26.7269 549.608 212.709 547.686 261.179 517.141C273.493 509.38 323.879 457.027 259.209 413.513C199.933 373.625 175.432 402.905 148.1 387.189C120.768 371.474 101.025 308.406 90.9409 299.445C84.4266 293.658 74.2976 291.849 63.2366 295.955Z" fill="#26AA9D"/>
<path d="M120.448 468.661C120.176 468.661 119.901 468.557 119.694 468.347C95.1186 443.796 37.9657 440.888 37.3929 440.862C36.804 440.836 36.3477 440.335 36.3768 439.746C36.4027 439.157 36.9172 438.714 37.4933 438.727C39.8718 438.837 96.0506 441.703 121.208 466.833C121.626 467.25 121.626 467.926 121.208 468.344C121.001 468.551 120.726 468.658 120.451 468.658L120.448 468.661Z" fill="#C2E1DE"/>
<path d="M178.022 470.01C177.876 470.01 177.73 469.98 177.588 469.916C158.424 461.395 144.897 469.036 144.761 469.117C144.253 469.414 143.599 469.243 143.301 468.732C143.004 468.224 143.175 467.57 143.683 467.273C144.269 466.93 158.239 458.972 178.455 467.965C178.996 468.204 179.238 468.835 178.996 469.375C178.818 469.773 178.429 470.01 178.018 470.01H178.022Z" fill="#C2E1DE"/>
<path d="M265.299 515.427C265.471 515.99 286.004 539.185 286.004 539.185L272.315 544.571L255.782 524.452L265.299 515.427Z" fill="white"/>
<path d="M272.315 545.642C272.001 545.642 271.697 545.503 271.49 545.25L254.957 525.132C254.601 524.698 254.64 524.064 255.047 523.679L264.565 514.653C264.833 514.398 265.215 514.304 265.574 514.395C265.862 514.472 266.102 514.663 266.241 514.919C267.07 516.096 278.956 529.609 286.807 538.476C287.036 538.738 287.127 539.094 287.046 539.434C286.965 539.773 286.722 540.052 286.399 540.178L272.71 545.564C272.584 545.613 272.451 545.639 272.318 545.639L272.315 545.642ZM257.238 524.543L272.645 543.293L284.192 538.748C271.319 524.197 266.804 518.959 265.196 516.996L257.238 524.54V524.543Z" fill="#263238"/>
<path d="M272.082 535.128C272.61 533.967 273.523 532.64 275.092 531.796C277.458 530.525 280.386 530.958 282.451 532.676C287.613 536.972 301.615 549.123 309.54 560.756C312.34 564.868 310.709 570.102 304.052 569.743C293.14 569.151 275.911 564.011 261.86 550.905C260.248 549.401 259.491 547.182 259.899 545.014C260.232 543.245 260.772 541.032 261.64 538.949C262.468 536.959 264.639 535.885 266.733 536.383L268.62 536.833C270.037 537.169 271.487 536.451 272.086 535.125L272.082 535.128Z" fill="white"/>
<path d="M304.709 570.83C304.476 570.83 304.239 570.823 303.994 570.81C292.518 570.189 275.231 564.842 261.128 551.688C259.225 549.912 258.371 547.347 258.843 544.82C259.283 542.475 259.892 540.359 260.646 538.544C261.675 536.069 264.335 534.723 266.972 535.351L268.859 535.801C269.768 536.014 270.717 535.552 271.105 534.691C271.875 532.993 273.079 531.666 274.584 530.858C277.254 529.421 280.69 529.826 283.13 531.86C288.693 536.49 302.492 548.521 310.42 560.161C312.097 562.622 312.381 565.495 311.165 567.653C310.479 568.869 308.744 570.833 304.705 570.833L304.709 570.83ZM265.685 537.334C264.361 537.334 263.144 538.107 262.62 539.362C261.921 541.045 261.358 543.012 260.944 545.215C260.604 547.017 261.219 548.854 262.584 550.129C276.27 562.891 293.007 568.077 304.107 568.678C306.631 568.821 308.472 568.077 309.304 566.602C310.119 565.155 309.87 563.146 308.654 561.358C300.877 549.941 287.26 538.072 281.765 533.497C279.985 532.016 277.506 531.712 275.597 532.737C274.493 533.332 273.636 534.283 273.053 535.571C272.244 537.36 270.267 538.334 268.367 537.878L266.481 537.428C266.212 537.363 265.947 537.334 265.685 537.334Z" fill="#263238"/>
<path d="M301.783 565.434C295.453 565.434 283.509 562.736 264.642 548.44C264.173 548.084 264.079 547.414 264.435 546.942C264.791 546.473 265.461 546.382 265.934 546.735C294.521 568.397 306.265 562.619 306.379 562.558C306.9 562.283 307.547 562.48 307.822 563.004C308.097 563.525 307.899 564.172 307.375 564.447C307.188 564.547 305.401 565.43 301.78 565.43L301.783 565.434Z" fill="#263238"/>
<path d="M289.927 553.169C289.668 553.169 289.406 553.075 289.202 552.884C288.768 552.483 288.742 551.807 289.143 551.373L294.684 545.393C295.085 544.959 295.761 544.933 296.195 545.334C296.629 545.736 296.654 546.412 296.253 546.846L290.713 552.826C290.503 553.053 290.215 553.169 289.93 553.169H289.927Z" fill="#263238"/>
<path d="M285.024 549.142C284.752 549.142 284.48 549.038 284.27 548.831C283.852 548.417 283.849 547.737 284.263 547.32L290.363 541.171C290.778 540.754 291.454 540.75 291.875 541.165C292.292 541.579 292.295 542.258 291.881 542.676L285.781 548.824C285.574 549.035 285.299 549.142 285.024 549.142Z" fill="#263238"/>
<path d="M222.48 527.833L216.172 555.509L205.807 547.618L210.6 521.017L222.48 527.833Z" fill="white"/>
<path d="M216.173 556.576C215.943 556.576 215.713 556.502 215.525 556.359L205.16 548.469C204.84 548.227 204.684 547.825 204.756 547.431L209.548 520.829C209.61 520.486 209.833 520.195 210.15 520.049C210.467 519.904 210.833 519.917 211.134 520.091L223.014 526.908C223.421 527.14 223.629 527.613 223.525 528.072L217.221 555.748C217.14 556.101 216.884 556.392 216.545 556.515C216.425 556.557 216.302 556.579 216.179 556.579L216.173 556.576ZM206.972 547.165L215.496 553.655L221.256 528.367L211.377 522.699L206.969 547.165H206.972Z" fill="#263238"/>
<path d="M219.744 550.491C219.11 559.103 217.589 576.42 211.075 588.7C209.327 591.994 202.502 591.748 200.027 587.258C194.862 577.892 188.26 561.979 192.144 542.766C192.448 541.265 193.451 539.997 194.839 539.353C196.47 538.599 199.049 537.651 202.719 536.982C204.548 536.649 206.282 537.93 206.505 539.777L207.324 546.548L208.188 545.425C209.486 543.733 211.771 543.148 213.722 544.005C214.774 544.468 215.935 544.976 216.984 545.438C218.948 546.302 219.906 548.353 219.748 550.495L219.744 550.491Z" fill="white"/>
<path d="M206.548 592C203.432 592 200.509 590.347 199.089 587.772C190.766 572.687 188.076 557.475 191.092 542.552C191.465 540.724 192.694 539.165 194.387 538.379C195.963 537.648 198.652 536.632 202.522 535.927C203.684 535.717 204.891 535.995 205.839 536.697C206.791 537.399 207.419 538.473 207.561 539.644L208.082 543.966C209.723 542.517 212.079 542.112 214.146 543.021L217.408 544.454C219.674 545.448 221.007 547.848 220.806 550.565C219.997 561.558 218.208 577.523 212.014 589.195C211.095 590.929 209.075 591.974 206.616 591.993C206.593 591.993 206.567 591.993 206.545 591.993L206.548 592ZM203.299 537.994C203.17 537.994 203.04 538.007 202.907 538.03C199.257 538.696 196.749 539.644 195.286 540.32C194.209 540.818 193.426 541.811 193.189 542.976C190.277 557.388 192.892 572.111 200.963 586.74C202.247 589.069 204.784 589.884 206.603 589.861C208.241 589.848 209.593 589.211 210.13 588.195C216.829 575.569 218.172 557.291 218.677 550.41C218.813 548.579 217.997 547.046 216.551 546.412L213.289 544.978C211.784 544.319 210.033 544.768 209.03 546.072L208.166 547.195C207.901 547.537 207.457 547.689 207.037 547.573C206.619 547.46 206.312 547.101 206.257 546.67L205.438 539.899C205.367 539.301 205.056 538.774 204.571 538.415C204.195 538.136 203.752 537.994 203.296 537.994H203.299Z" fill="#263238"/>
<path d="M205.393 586.61C205.04 586.61 204.694 586.436 204.49 586.115C192.403 567.138 195.141 545.286 195.264 544.364C195.342 543.778 195.869 543.364 196.465 543.445C197.05 543.523 197.461 544.06 197.384 544.645C197.354 544.862 194.636 566.666 206.296 584.97C206.613 585.468 206.467 586.128 205.969 586.445C205.791 586.558 205.594 586.613 205.396 586.613L205.393 586.61Z" fill="#263238"/>
<path d="M217.622 563.364C217.525 563.364 217.425 563.351 217.324 563.321L209.263 560.999C208.697 560.834 208.37 560.245 208.532 559.676C208.697 559.109 209.289 558.783 209.855 558.944L217.917 561.267C218.483 561.432 218.81 562.021 218.648 562.59C218.512 563.059 218.085 563.364 217.622 563.364Z" fill="#263238"/>
<path d="M216.072 570.37C215.945 570.37 215.819 570.348 215.696 570.302L208.082 567.439C207.528 567.232 207.25 566.614 207.457 566.064C207.664 565.511 208.282 565.233 208.832 565.44L216.447 568.303C217 568.51 217.279 569.128 217.072 569.678C216.91 570.105 216.502 570.37 216.072 570.37Z" fill="#263238"/>
<path d="M152.188 401.388C152.188 401.388 190.778 396.8 225.547 416.463C234.31 421.419 239.686 430.743 239.631 440.807C239.521 460.79 237.404 497.317 225.159 529.023C224.463 530.828 222.395 531.679 220.625 530.896L204.975 523.97C203.923 523.504 203.179 522.54 203.001 521.405C201.849 514.08 197.962 486.224 201.859 466.014C206.38 442.56 130.784 417.702 130.784 417.702L152.188 401.385V401.388Z" fill="#263238"/>
<path d="M269.516 520.305L255.568 529.47C254.636 530.081 253.397 529.926 252.646 529.104C244.064 519.7 195.616 466.878 183.468 459.962C170.125 452.366 145.197 440.93 122.554 441.066C99.9147 441.201 95.1382 425.479 95.1382 425.479L127.425 404.626C127.425 404.626 183.293 410.951 206.9 430.144C228.217 447.477 263.561 506.045 270.221 517.254C270.839 518.296 270.529 519.638 269.516 520.305Z" fill="#263238"/>
<path d="M239.378 468.735C239.044 468.735 238.718 468.58 238.51 468.289C229.097 455.193 214.447 437.653 206.227 430.969C197.334 423.739 182.801 417.505 163.038 412.442C162.465 412.297 162.122 411.714 162.268 411.142C162.413 410.569 162.993 410.223 163.569 410.372C183.636 415.512 198.441 421.882 207.577 429.31C215.935 436.107 230.75 453.831 240.245 467.04C240.588 467.519 240.481 468.185 240.002 468.531C239.815 468.667 239.595 468.732 239.381 468.732L239.378 468.735Z" fill="#26AA9D"/>
<path d="M126.913 353.804L131.049 362.312C135.971 372.438 143.541 381.04 152.954 387.209L156.77 389.71C159.216 391.314 162.125 392.058 165.041 391.832L165.488 391.796C169.944 391.45 174.371 392.751 177.931 395.452L167.921 398.667C161.818 400.628 155.174 400.168 149.456 397.27C143.977 394.494 137.282 389.936 131.696 382.667C119.998 367.43 117.292 358.048 117.292 358.048L126.917 353.807L126.913 353.804Z" fill="white"/>
<path d="M160.323 400.935C156.401 400.935 152.53 400.023 148.971 398.221C141.719 394.542 135.619 389.528 130.849 383.314C119.16 368.093 116.377 358.734 116.263 358.342C116.115 357.828 116.37 357.284 116.859 357.071L126.483 352.83C127.011 352.597 127.625 352.823 127.875 353.341L132.01 361.849C136.845 371.797 144.291 380.257 153.54 386.319L157.355 388.82C159.592 390.285 162.291 390.974 164.957 390.77L165.4 390.735C170.122 390.36 174.798 391.741 178.571 394.604C178.889 394.843 179.047 395.241 178.979 395.636C178.911 396.027 178.633 396.351 178.254 396.474L168.245 399.689C165.637 400.527 162.967 400.945 160.323 400.945V400.935ZM118.616 358.627C119.587 361.277 123.134 369.762 132.541 382.013C137.117 387.972 142.971 392.783 149.935 396.315C155.391 399.081 161.66 399.554 167.591 397.648L175.491 395.112C172.5 393.381 169.044 392.592 165.569 392.86L165.122 392.896C161.983 393.142 158.812 392.323 156.181 390.602L152.365 388.101C142.793 381.829 135.091 373.071 130.085 362.778L126.399 355.198L118.616 358.63V358.627Z" fill="#263238"/>
<path d="M114.173 435.385C114.173 435.385 101.484 445.071 94.5068 442.282C87.5297 439.497 99.5389 427.566 103.076 427.103C106.613 426.641 114.173 435.382 114.173 435.382V435.385Z" fill="#263238"/>
<path d="M116.383 292.529C122.092 291.736 128.6 296.734 127.952 305.252C127.425 312.211 120.163 314.313 116.801 318.031C105.931 330.049 116.364 343.092 107.866 355.081C99.7724 366.501 87.4849 358.64 71.039 371.755C58.0946 382.078 105.151 366.391 88.6758 377.284C75.5339 385.973 50.8748 385.245 36.9434 369.277C23.6948 354.092 20.6464 331.294 34.2218 320.295C46.4252 310.406 55.0397 321.942 68.0521 312.664C80.88 303.518 77.3526 294.651 85.3652 290.83C96.3227 285.606 100.196 294.777 116.38 292.532L116.383 292.529Z" fill="#263238"/>
<path d="M48.855 377.598C49.5831 373.318 50.6413 368.287 51.7222 364.971C55.0456 354.765 57.3109 348.123 68.702 342.054C70.4074 341.145 72.197 340.407 74.0319 339.796L80.9151 337.499C80.9151 337.499 109.325 329.376 120.706 340.356C121.629 341.245 122.794 342.248 123.541 343.426L130.955 354.6L130.887 354.629C124.298 357.32 121.541 365.194 125.065 371.376C129.117 378.484 134.702 386.785 140.259 390.237C142.013 391.327 156.158 397.137 156.158 397.137C156.158 397.137 159.63 407.716 137.864 416.787C116.098 425.858 100.238 429.145 95.6717 440.344C92.9696 446.976 81.9636 415.185 74.8765 385.397C73.5141 379.665 68.1486 375.805 62.2816 376.352L48.8582 377.598H48.855Z" fill="white"/>
<path d="M94.7431 442.298C94.6945 442.298 94.646 442.298 94.6039 442.292C93.5748 442.211 91.1639 442.026 84.7597 423.661C80.9993 412.879 77.0189 399.02 73.8378 385.643C72.6049 380.46 67.6698 376.921 62.3788 377.413L48.9554 378.658C48.6286 378.694 48.2985 378.564 48.072 378.322C47.8454 378.079 47.7451 377.743 47.8034 377.416C48.6642 372.356 49.7483 367.582 50.7061 364.638C53.9552 354.658 56.3046 347.447 68.2005 341.106C69.8736 340.213 71.6696 339.453 73.6922 338.777L80.5754 336.48C81.8051 336.127 109.759 328.305 121.444 339.582C121.599 339.731 121.761 339.883 121.926 340.038C122.781 340.844 123.748 341.756 124.441 342.846L131.845 354.004C132.023 354.273 132.068 354.603 131.974 354.91C131.881 355.217 131.654 355.463 131.356 355.586L131.288 355.615C128.418 356.789 126.192 359.141 125.182 362.072C124.179 364.981 124.473 368.18 125.991 370.846C131.343 380.237 136.473 386.626 140.822 389.331C142.055 390.097 150.909 393.827 156.562 396.15C156.85 396.27 157.074 396.509 157.171 396.804C157.326 397.273 160.695 408.43 138.275 417.773C133.369 419.818 128.674 421.603 124.531 423.176C110.305 428.585 100.028 432.493 96.6621 440.748C96.1249 442.065 95.2802 442.301 94.7431 442.301V442.298ZM63.3626 375.232C69.2523 375.232 74.5304 379.321 75.9186 385.148C82.7533 413.878 91.5846 438.206 94.6233 440.079C94.6427 440.04 94.6622 439.995 94.688 439.94C98.4031 430.823 109.047 426.78 123.777 421.176C127.907 419.607 132.583 417.828 137.456 415.797C155.397 408.32 155.491 399.912 155.226 397.904C152.391 396.736 141.34 392.161 139.696 391.139C134.981 388.208 129.745 381.735 124.137 371.897C122.311 368.698 121.959 364.861 123.163 361.37C124.24 358.245 126.473 355.667 129.376 354.146L122.648 344.008C122.088 343.128 121.224 342.313 120.46 341.591C120.289 341.429 120.121 341.271 119.962 341.116C109.15 330.686 81.488 338.437 81.2064 338.518L74.3685 340.802C72.4625 341.439 70.77 342.154 69.2037 342.989C58.0683 348.922 55.9454 355.437 52.7384 365.294C51.897 367.879 50.9489 371.959 50.1495 376.4L62.1814 375.284C62.5762 375.249 62.971 375.229 63.3626 375.229V375.232Z" fill="#263238"/>
<path d="M133.677 404.342L123.137 401.339C121.571 400.893 119.885 401.297 118.687 402.401L114.108 406.635C113.234 407.444 112.086 407.881 110.895 407.871C105.701 407.816 81.7535 402.265 79.1355 398.295C77.8411 396.332 75.8735 389.46 74.3914 383.77C73.1487 379.002 68.6344 375.838 63.7252 376.297L53.1528 377.287C53.1528 377.287 57.6834 402.624 66.8027 410.301C73.8833 416.263 89.8891 418.55 112.768 415.887C112.768 415.887 117.538 415.079 121.292 410.055C123.69 406.846 130.039 408.078 133.703 406.962C135.004 406.564 134.987 404.72 133.68 404.348L133.677 404.342Z" fill="white"/>
<path d="M95.2287 418.055C81.6241 418.055 71.5534 415.696 66.1167 411.119C56.8064 403.283 52.2921 378.526 52.1044 377.474C52.0526 377.18 52.1238 376.879 52.305 376.639C52.4862 376.4 52.7581 376.251 53.0558 376.222L63.6281 375.232C69.0842 374.724 74.0452 378.199 75.427 383.498C78.1421 393.902 79.4753 396.865 80.0287 397.706C82.2422 401.064 105.206 406.742 110.908 406.803C111.807 406.813 112.71 406.476 113.383 405.852L117.962 401.617C119.422 400.268 121.519 399.767 123.428 400.314L133.968 403.316C135.013 403.613 135.722 404.545 135.732 405.632C135.741 406.719 135.049 407.664 134.01 407.981C132.612 408.408 130.968 408.514 129.227 408.624C126.366 408.809 123.409 409 122.143 410.692C118.179 415.997 113.153 416.903 112.943 416.938C106.532 417.686 100.601 418.055 95.2255 418.055H95.2287ZM54.4279 378.238C55.4343 383.216 59.8516 403.05 67.492 409.482C74.5209 415.399 90.9797 417.346 112.645 414.823C112.645 414.823 117.008 413.998 120.438 409.41C122.292 406.926 125.907 406.693 129.095 406.489C130.706 406.386 132.23 406.289 133.392 405.933C133.531 405.891 133.602 405.794 133.602 405.648C133.602 405.503 133.528 405.406 133.389 405.367L122.849 402.365C121.648 402.022 120.334 402.335 119.419 403.183L114.839 407.418C113.781 408.398 112.403 408.935 110.953 408.935H110.891C105.778 408.88 81.1775 403.316 78.2521 398.88C77.1389 397.192 75.4949 392.197 73.3656 384.035C72.2491 379.752 68.2428 376.953 63.832 377.354L54.4344 378.234L54.4279 378.238Z" fill="#263238"/>
<path d="M82.0939 337.681C82.0939 337.681 88.0289 318.552 88.2328 316.229C88.2328 316.229 86.3429 315.233 86.4497 312.321C86.6503 306.783 92.1484 309.526 92.1484 309.526L92.6889 309.655C95.8408 310.416 99.1449 310.251 102.209 309.183L108.64 306.941C108.64 306.941 109.986 309.303 108.42 313.861C107.672 316.035 107.818 318.558 108.212 321.198C108.316 321.894 107.837 322.544 107.141 322.651L105.423 322.913C104.527 324.993 103.724 326.229 102.239 327.565C101.831 327.93 101.297 328.131 100.753 328.102C100.012 328.063 98.8698 327.904 97.5883 327.367L96.6207 335.484L100.886 335.381C100.886 335.381 102.423 340.466 94.3458 344.148C89.8864 346.179 83.5728 345.768 78.8092 344.989C76.366 344.591 75.7576 341.359 77.8999 340.117L82.0971 337.677L82.0939 337.681Z" fill="white"/>
<path d="M86.0186 346.693C83.4006 346.693 80.815 346.402 78.6306 346.046C77.0643 345.791 75.8637 344.616 75.5757 343.06C75.2909 341.507 75.9867 339.99 77.3556 339.198L81.1903 336.969C83.3747 329.916 86.4814 319.532 87.0671 316.695C86.339 316.041 85.284 314.673 85.3714 312.285C85.4426 310.364 86.0866 309.024 87.2936 308.309C89.258 307.145 91.8598 308.219 92.4973 308.517L92.9277 308.62C95.8887 309.332 98.9695 309.18 101.843 308.177L108.273 305.935C108.759 305.767 109.299 305.967 109.555 306.414C109.62 306.527 111.121 309.251 109.416 314.21C108.691 316.323 108.927 318.849 109.257 321.043C109.448 322.317 108.568 323.514 107.293 323.708L106.15 323.883C105.244 325.866 104.367 327.082 102.94 328.363C102.319 328.92 101.5 329.211 100.685 329.172C100.128 329.143 99.3611 329.053 98.4809 328.81L97.8174 334.387L100.85 334.313C101.338 334.335 101.759 334.614 101.898 335.073C101.973 335.319 103.607 341.1 94.7787 345.121C92.2125 346.292 89.0897 346.693 86.0154 346.693H86.0186ZM89.3842 309.917C89.0152 309.917 88.669 309.982 88.3874 310.147C87.8503 310.467 87.5558 311.215 87.5137 312.363C87.436 314.518 88.6916 315.265 88.7434 315.294C89.1026 315.501 89.3291 315.909 89.2935 316.323C89.0864 318.691 83.7242 336.027 83.1126 337.997C83.0317 338.253 82.8602 338.47 82.6304 338.606L78.4332 341.045C77.5497 341.556 77.6339 342.423 77.6824 342.675C77.7795 343.203 78.1711 343.811 78.9801 343.94C83.4297 344.665 89.6333 345.127 93.8985 343.18C99.1799 340.773 99.9144 337.858 99.9339 336.477L96.6395 336.558C96.3288 336.542 96.0311 336.438 95.824 336.208C95.6169 335.979 95.5166 335.671 95.5522 335.364L96.5198 327.247C96.5586 326.914 96.7528 326.62 97.044 326.452C97.332 326.283 97.6848 326.261 97.9954 326.39C99.1378 326.869 100.154 327.011 100.801 327.044C101.066 327.063 101.316 326.959 101.516 326.782C102.827 325.604 103.565 324.523 104.435 322.498C104.581 322.162 104.892 321.919 105.254 321.864L106.972 321.602C107.086 321.583 107.167 321.476 107.15 321.363C106.785 318.914 106.526 316.067 107.403 313.521C108.264 311.017 108.16 309.27 107.963 308.316L102.555 310.202C99.2931 311.341 95.7949 311.512 92.4326 310.703L91.8921 310.574C91.8145 310.555 91.7368 310.529 91.6656 310.49C91.2805 310.299 90.2741 309.924 89.3809 309.924L89.3842 309.917Z" fill="#263238"/>
<path d="M97.5779 328.439C97.4258 328.439 97.2705 328.406 97.1249 328.338L95.9437 327.785C95.4097 327.536 95.18 326.898 95.4292 326.364C95.6783 325.83 96.3159 325.597 96.8498 325.85L98.031 326.403C98.5649 326.652 98.7947 327.29 98.5455 327.824C98.3643 328.212 97.9792 328.439 97.5779 328.439Z" fill="#263238"/>
<path d="M184.523 394.358L135.846 409.155L152.097 353.936C152.699 351.859 154.343 350.209 156.453 349.569L195.956 337.56C198.464 336.797 200.807 339.023 200.092 341.491L184.517 394.361L184.523 394.358Z" fill="#263238"/>
<path d="M172.918 372.587C172.342 374.577 170.429 376.629 168.646 377.173C166.863 377.716 165.883 376.542 166.455 374.552C167.031 372.561 168.944 370.51 170.727 369.966C172.51 369.422 173.491 370.597 172.918 372.587Z" fill="white"/>
<path d="M182.821 398.082L106.462 421.293C104.886 421.772 103.216 420.882 102.737 419.304L102.511 418.896L184.582 393.947L184.808 394.355C185.287 395.934 184.397 397.603 182.821 398.082Z" fill="#263238"/>
<path d="M233.676 123.52L291.958 140.453L333.312 94.4568L233.676 123.52Z" fill="white"/>
<path d="M262.72 150.853L254.581 129.593L308.76 107.462L264.827 132.569L277.01 136.108L262.72 150.853Z" fill="#D8D8D8"/>
<path d="M264.105 144.746C264.066 144.746 264.024 144.746 263.985 144.74C263.442 144.675 263.053 144.18 263.121 143.636L264.276 134.112C264.341 133.569 264.846 133.174 265.379 133.249C265.923 133.313 266.311 133.808 266.243 134.352L265.088 143.876C265.027 144.38 264.6 144.749 264.105 144.749V144.746Z" fill="white"/>
<path d="M18.9792 289.93C18.7074 289.93 18.4323 289.826 18.2252 289.616C17.8077 289.198 17.8077 288.522 18.2252 288.105L20.7105 285.619C21.128 285.202 21.8043 285.202 22.2218 285.619C22.6392 286.037 22.6392 286.713 22.2218 287.131L19.7365 289.616C19.5294 289.823 19.2543 289.93 18.9825 289.93H18.9792Z" fill="#F8931F"/>
<path d="M28.3674 280.541C28.0956 280.541 27.8205 280.438 27.6134 280.228C27.1959 279.81 27.1959 279.134 27.6134 278.716L30.0987 276.231C30.5162 275.813 31.1925 275.813 31.61 276.231C32.0274 276.648 32.0274 277.325 31.61 277.742L29.1246 280.228C28.9175 280.435 28.6425 280.541 28.3706 280.541H28.3674Z" fill="#F8931F"/>
<path d="M30.8527 289.93C30.5809 289.93 30.3058 289.826 30.0987 289.616L27.6134 287.131C27.1959 286.713 27.1959 286.037 27.6134 285.619C28.0308 285.202 28.7072 285.202 29.1246 285.619L31.61 288.105C32.0274 288.522 32.0274 289.198 31.61 289.616C31.4029 289.823 31.1278 289.93 30.856 289.93H30.8527Z" fill="#F8931F"/>
<path d="M21.4616 280.541C21.1898 280.541 20.9147 280.438 20.7076 280.228L18.2223 277.742C17.8048 277.325 17.8048 276.648 18.2223 276.231C18.6397 275.813 19.3161 275.813 19.7335 276.231L22.2189 278.716C22.6363 279.134 22.6363 279.81 22.2189 280.228C22.0118 280.435 21.7367 280.541 21.4648 280.541H21.4616Z" fill="#F8931F"/>
<path d="M139.463 28.3372C139.168 28.3372 138.874 28.2143 138.664 27.978C138.272 27.5347 138.314 26.8616 138.754 26.47L141.385 24.14C141.828 23.7484 142.505 23.7905 142.893 24.2306C143.285 24.674 143.243 25.3471 142.803 25.7387L140.172 28.0686C139.968 28.2499 139.715 28.3372 139.463 28.3372Z" fill="#F8931F"/>
<path d="M149.405 19.5415C149.11 19.5415 148.816 19.4185 148.605 19.1823C148.214 18.7389 148.256 18.0658 148.696 17.6742L151.327 15.3442C151.77 14.9527 152.447 14.9947 152.835 15.4349C153.227 15.8782 153.185 16.5513 152.744 16.9429L150.113 19.2729C149.91 19.4541 149.657 19.5415 149.405 19.5415Z" fill="#F8931F"/>
<path d="M151.314 29.0589C151.019 29.0589 150.725 28.9359 150.515 28.6996L148.185 26.0687C147.793 25.6253 147.835 24.9522 148.275 24.5607C148.719 24.1691 149.392 24.2112 149.783 24.6513L152.113 27.2822C152.505 27.7256 152.463 28.3987 152.023 28.7903C151.819 28.9715 151.566 29.0589 151.314 29.0589Z" fill="#F8931F"/>
<path d="M142.515 19.121C142.221 19.121 141.926 18.998 141.716 18.7618L139.386 16.1308C138.994 15.6907 139.036 15.0144 139.476 14.6228C139.92 14.2312 140.596 14.2733 140.984 14.7134L143.314 17.3444C143.706 17.7877 143.664 18.4608 143.224 18.8524C143.02 19.0336 142.767 19.121 142.515 19.121Z" fill="#F8931F"/>
<path d="M114.175 60.6734C114.062 60.6734 113.952 60.6702 113.839 60.6637C112.376 60.5731 111.036 59.9229 110.069 58.8262C109.098 57.7295 108.613 56.3223 108.703 54.86C108.794 53.3978 109.444 52.0617 110.541 51.0912C111.638 50.1207 113.036 49.6387 114.509 49.726C117.525 49.9104 119.829 52.5114 119.644 55.5297C119.466 58.4315 117.046 60.6766 114.175 60.6766V60.6734ZM114.169 51.8514C113.353 51.8514 112.573 52.1458 111.959 52.6893C111.289 53.2813 110.891 54.0998 110.836 54.9894C110.722 56.8302 112.13 58.4186 113.971 58.5318C115.806 58.645 117.402 57.2378 117.515 55.3971C117.628 53.5563 116.221 51.9679 114.382 51.8579C114.311 51.8547 114.243 51.8514 114.172 51.8514H114.169Z" fill="#F8931F"/>
<path d="M366.534 562.608C366.24 562.608 365.945 562.485 365.735 562.249C365.343 561.805 365.385 561.132 365.825 560.741L368.456 558.411C368.9 558.019 369.576 558.061 369.964 558.501C370.356 558.945 370.314 559.618 369.874 560.009L367.243 562.339C367.039 562.521 366.787 562.608 366.534 562.608Z" fill="#F8931F"/>
<path d="M376.479 553.808C376.184 553.808 375.89 553.685 375.679 553.449C375.288 553.006 375.33 552.333 375.77 551.941L378.401 549.611C378.844 549.22 379.517 549.262 379.909 549.702C380.301 550.145 380.259 550.818 379.818 551.21L377.187 553.54C376.984 553.721 376.731 553.808 376.479 553.808Z" fill="#F8931F"/>
<path d="M378.388 563.329C378.093 563.329 377.799 563.207 377.589 562.97L375.259 560.339C374.867 559.896 374.909 559.223 375.349 558.831C375.789 558.44 376.469 558.482 376.857 558.922L379.187 561.553C379.579 561.996 379.537 562.669 379.097 563.061C378.893 563.242 378.64 563.329 378.388 563.329Z" fill="#F8931F"/>
<path d="M369.589 553.388C369.295 553.388 369 553.265 368.79 553.029L366.46 550.398C366.068 549.954 366.11 549.281 366.55 548.89C366.99 548.498 367.667 548.54 368.058 548.98L370.388 551.611C370.78 552.055 370.738 552.728 370.298 553.119C370.094 553.3 369.841 553.388 369.589 553.388Z" fill="#F8931F"/>
<path d="M106.821 229.876C104.329 229.876 101.814 229.795 99.3486 229.639C98.7596 229.601 98.313 229.093 98.3519 228.504C98.3907 227.915 98.8599 227.459 99.4877 227.507C102.277 227.685 105.128 227.76 107.953 227.734H107.963C108.549 227.734 109.025 228.206 109.031 228.792C109.037 229.381 108.562 229.863 107.973 229.869C107.591 229.872 107.206 229.876 106.824 229.876H106.821ZM116.493 229.487C115.943 229.487 115.474 229.064 115.429 228.504C115.383 227.915 115.82 227.401 116.409 227.355C119.186 227.135 122.017 226.815 124.83 226.401C125.419 226.317 125.956 226.718 126.043 227.304C126.127 227.886 125.726 228.429 125.14 228.517C122.283 228.934 119.403 229.261 116.581 229.487C116.552 229.487 116.523 229.491 116.493 229.491V229.487ZM90.9185 228.779C90.87 228.779 90.8182 228.776 90.7697 228.769C87.9251 228.371 85.0677 227.857 82.2749 227.245C81.6989 227.119 81.3332 226.55 81.4594 225.974C81.5856 225.398 82.1552 225.029 82.7312 225.159C85.4689 225.761 88.2714 226.262 91.0609 226.653C91.6467 226.734 92.0544 227.275 91.9703 227.86C91.8958 228.394 91.4395 228.779 90.9121 228.779H90.9185ZM133.396 227.022C132.901 227.022 132.457 226.676 132.35 226.175C132.227 225.596 132.6 225.029 133.176 224.91C135.9 224.337 138.674 223.667 141.424 222.92C141.997 222.765 142.58 223.101 142.735 223.671C142.89 224.24 142.554 224.826 141.984 224.981C139.195 225.738 136.379 226.417 133.616 227C133.541 227.016 133.467 227.022 133.392 227.022H133.396ZM74.2332 225.114C74.1296 225.114 74.0261 225.097 73.9225 225.068C71.1912 224.243 68.447 223.302 65.7643 222.26C65.2142 222.047 64.9391 221.429 65.1527 220.879C65.3662 220.329 65.9876 220.054 66.5345 220.267C69.1687 221.287 71.8611 222.212 74.5406 223.02C75.1069 223.192 75.4241 223.787 75.2558 224.35C75.1166 224.813 74.6927 225.11 74.2332 225.11V225.114ZM149.893 222.555C149.443 222.555 149.026 222.27 148.877 221.82C148.693 221.261 148.997 220.656 149.557 220.471C152.197 219.601 154.89 218.637 157.556 217.605C158.107 217.392 158.725 217.667 158.938 218.216C159.152 218.766 158.877 219.384 158.327 219.598C155.624 220.64 152.9 221.616 150.227 222.5C150.117 222.535 150.003 222.555 149.89 222.555H149.893ZM58.3245 218.909C58.153 218.909 57.9815 218.87 57.8197 218.783C55.2987 217.43 52.8814 215.735 50.6387 213.742C50.1986 213.351 50.1566 212.675 50.5514 212.235C50.9429 211.795 51.6193 211.756 52.0594 212.148C54.1758 214.03 56.454 215.628 58.8293 216.903C59.3503 217.181 59.5445 217.828 59.2662 218.349C59.072 218.708 58.7063 218.912 58.3245 218.912V218.909ZM165.847 216.405C165.436 216.405 165.045 216.165 164.87 215.768C164.631 215.227 164.876 214.596 165.417 214.36C167.97 213.238 170.566 212.028 173.129 210.766C173.659 210.507 174.3 210.724 174.559 211.251C174.821 211.782 174.601 212.423 174.073 212.681C171.485 213.956 168.86 215.179 166.281 216.314C166.142 216.376 165.996 216.405 165.851 216.405H165.847ZM181.196 208.857C180.818 208.857 180.452 208.657 180.258 208.298C179.976 207.78 180.167 207.13 180.688 206.849C183.144 205.512 185.636 204.099 188.096 202.646C188.604 202.349 189.257 202.514 189.561 203.021C189.862 203.529 189.694 204.183 189.186 204.484C186.707 205.952 184.193 207.379 181.711 208.725C181.549 208.812 181.374 208.854 181.203 208.854L181.196 208.857ZM45.5839 207.722C45.2603 207.722 44.94 207.576 44.7296 207.295C43.0307 205.043 41.4741 202.562 40.0923 199.919C39.8204 199.395 40.0243 198.751 40.5453 198.479C41.0696 198.208 41.7136 198.408 41.9854 198.932C43.309 201.472 44.8073 203.853 46.4318 206.011C46.7878 206.483 46.6939 207.153 46.2215 207.505C46.0305 207.651 45.804 207.719 45.5807 207.719L45.5839 207.722ZM195.924 200.146C195.571 200.146 195.228 199.971 195.024 199.654C194.707 199.156 194.849 198.496 195.348 198.179C197.71 196.665 200.098 195.076 202.448 193.462C202.933 193.129 203.6 193.248 203.933 193.737C204.266 194.222 204.147 194.889 203.658 195.222C201.289 196.852 198.881 198.45 196.5 199.977C196.322 200.091 196.121 200.146 195.924 200.146ZM37.6523 192.656C37.2121 192.656 36.7979 192.381 36.6458 191.945C35.7009 189.263 34.908 186.455 34.2899 183.595C34.167 183.019 34.5326 182.45 35.1087 182.324C35.6815 182.204 36.2543 182.566 36.3805 183.142C36.9791 185.915 37.7461 188.638 38.6619 191.233C38.8593 191.789 38.5648 192.398 38.0082 192.595C37.8917 192.637 37.772 192.656 37.6523 192.656ZM210.023 190.447C209.697 190.447 209.373 190.298 209.163 190.013C208.813 189.538 208.913 188.868 209.389 188.519C211.658 186.849 213.942 185.112 216.178 183.359C216.641 182.997 217.314 183.077 217.68 183.54C218.042 184.003 217.962 184.676 217.499 185.041C215.246 186.807 212.942 188.558 210.658 190.24C210.467 190.379 210.243 190.447 210.023 190.447ZM223.495 179.884C223.188 179.884 222.884 179.755 222.673 179.499C222.295 179.047 222.356 178.374 222.809 177.995C224.994 176.174 227.168 174.304 229.278 172.434C229.718 172.043 230.395 172.082 230.786 172.525C231.178 172.965 231.139 173.641 230.696 174.032C228.569 175.915 226.379 177.801 224.178 179.635C223.977 179.804 223.735 179.884 223.495 179.884ZM34.0343 175.996C33.4906 175.996 33.0246 175.582 32.9728 175.029C32.756 172.712 32.646 170.357 32.646 168.031C32.646 167.478 32.6525 166.922 32.6654 166.365C32.6784 165.783 33.1541 165.32 33.7333 165.32H33.7592C34.3482 165.333 34.8174 165.822 34.8045 166.414C34.7915 166.954 34.7851 167.491 34.7851 168.031C34.7851 170.293 34.8919 172.576 35.1022 174.828C35.1572 175.417 34.7268 175.938 34.1378 175.993C34.1022 175.996 34.0699 175.999 34.0375 175.999L34.0343 175.996ZM236.301 168.516C236.019 168.516 235.734 168.403 235.527 168.183C235.119 167.756 235.139 167.08 235.566 166.673C238.378 164.007 240.42 161.943 241.637 160.681C242.048 160.254 242.724 160.244 243.148 160.652C243.572 161.063 243.585 161.739 243.177 162.163C241.944 163.441 239.88 165.527 237.038 168.222C236.831 168.419 236.566 168.516 236.304 168.516H236.301ZM34.4226 158.944C34.3741 158.944 34.3223 158.941 34.2705 158.934C33.6848 158.85 33.2803 158.31 33.3612 157.728C33.7689 154.842 34.3547 151.985 35.099 149.232C35.2543 148.663 35.8433 148.327 36.4096 148.479C36.9791 148.634 37.3157 149.219 37.1636 149.789C36.4419 152.458 35.8756 155.23 35.4808 158.025C35.4064 158.559 34.9469 158.944 34.4226 158.944ZM38.8949 142.497C38.759 142.497 38.6166 142.471 38.4839 142.413C37.9403 142.186 37.6846 141.559 37.9111 141.015C39.0405 138.317 40.3576 135.707 41.8236 133.255C42.1278 132.75 42.7847 132.585 43.2895 132.886C43.7976 133.19 43.9627 133.843 43.6585 134.351C42.2443 136.716 40.9725 139.236 39.8852 141.84C39.7136 142.251 39.3156 142.497 38.8981 142.497H38.8949ZM47.6615 127.901C47.422 127.901 47.1793 127.82 46.9819 127.655C46.5256 127.279 46.4642 126.607 46.8396 126.15C48.6906 123.912 50.7326 121.809 52.9008 119.904C53.3441 119.512 54.0205 119.557 54.4088 120.001C54.8004 120.444 54.7551 121.117 54.3117 121.508C52.2277 123.342 50.2666 125.361 48.4867 127.512C48.2764 127.768 47.969 127.901 47.6615 127.901ZM60.4409 116.665C60.0882 116.665 59.7419 116.491 59.538 116.167C59.2209 115.669 59.3697 115.009 59.8713 114.692C62.2887 113.165 64.8711 111.796 67.5539 110.619C68.0943 110.383 68.7253 110.629 68.9616 111.169C69.1978 111.709 68.9519 112.34 68.4114 112.576C65.8258 113.708 63.3372 115.028 61.0105 116.497C60.8325 116.61 60.6351 116.662 60.4409 116.662V116.665Z" fill="#F8931F"/>
<path d="M179.247 329.738C179.137 329.738 179.024 329.722 178.914 329.683C178.354 329.499 178.05 328.894 178.235 328.334C178.244 328.305 179.225 325.326 180.697 320.166C180.859 319.6 181.451 319.273 182.018 319.431C182.584 319.593 182.914 320.185 182.752 320.751C181.267 325.956 180.273 328.971 180.264 329.001C180.115 329.45 179.697 329.735 179.247 329.735V329.738ZM183.979 313.275C183.888 313.275 183.797 313.265 183.707 313.239C183.137 313.091 182.794 312.505 182.943 311.936C183.658 309.209 184.357 306.426 185.024 303.661C185.163 303.088 185.739 302.735 186.312 302.871C186.885 303.01 187.237 303.586 187.101 304.159C186.432 306.938 185.729 309.736 185.011 312.476C184.885 312.955 184.451 313.275 183.979 313.275ZM187.985 296.644C187.911 296.644 187.833 296.637 187.755 296.618C187.179 296.492 186.813 295.919 186.943 295.343C187.551 292.584 188.143 289.776 188.7 286.994C188.817 286.414 189.38 286.042 189.959 286.156C190.538 286.272 190.914 286.835 190.797 287.414C190.237 290.206 189.642 293.03 189.03 295.803C188.92 296.301 188.477 296.64 187.988 296.64L187.985 296.644ZM191.347 279.873C191.286 279.873 191.221 279.867 191.156 279.857C190.574 279.754 190.189 279.197 190.292 278.618C190.797 275.804 191.279 272.976 191.716 270.207C191.81 269.625 192.354 269.23 192.939 269.321C193.522 269.414 193.92 269.961 193.826 270.543C193.386 273.326 192.904 276.169 192.396 278.997C192.302 279.514 191.852 279.876 191.344 279.876L191.347 279.873ZM194.023 262.983C193.975 262.983 193.926 262.983 193.878 262.973C193.292 262.892 192.884 262.355 192.962 261.77C193.347 258.943 193.703 256.096 194.017 253.31C194.082 252.725 194.609 252.298 195.198 252.369C195.784 252.434 196.205 252.964 196.14 253.55C195.823 256.351 195.467 259.214 195.078 262.058C195.004 262.595 194.548 262.983 194.02 262.983H194.023ZM195.936 245.989C195.904 245.989 195.871 245.989 195.842 245.986C195.253 245.934 194.82 245.417 194.871 244.828C195.124 241.962 195.337 239.102 195.502 236.33C195.538 235.741 196.03 235.291 196.635 235.327C197.224 235.362 197.674 235.867 197.638 236.459C197.47 239.251 197.256 242.13 197.001 245.016C196.952 245.572 196.486 245.989 195.939 245.989H195.936ZM196.965 228.928C196.965 228.928 196.942 228.928 196.93 228.928C196.341 228.908 195.878 228.417 195.894 227.828C195.985 225 196.027 222.176 196.027 219.436V219.316C196.027 218.728 196.506 218.249 197.095 218.249C197.684 218.249 198.162 218.728 198.162 219.316V219.436C198.162 222.199 198.117 225.046 198.027 227.896C198.007 228.475 197.535 228.931 196.959 228.931L196.965 228.928ZM196.946 211.834C196.373 211.834 195.9 211.381 195.878 210.805C195.774 207.939 195.619 205.082 195.412 202.31C195.366 201.721 195.81 201.21 196.399 201.165C196.978 201.123 197.499 201.563 197.544 202.151C197.755 204.95 197.913 207.835 198.017 210.727C198.036 211.316 197.577 211.811 196.988 211.834C196.975 211.834 196.962 211.834 196.949 211.834H196.946ZM195.651 194.788C195.117 194.788 194.658 194.39 194.593 193.847C194.253 190.997 193.846 188.169 193.383 185.439C193.282 184.857 193.677 184.307 194.257 184.21C194.829 184.106 195.389 184.504 195.486 185.083C195.955 187.846 196.366 190.712 196.709 193.595C196.781 194.18 196.36 194.711 195.774 194.782C195.732 194.788 195.69 194.788 195.645 194.788H195.651ZM192.778 177.947C192.289 177.947 191.849 177.61 191.736 177.115C191.098 174.314 190.38 171.551 189.603 168.911C189.438 168.345 189.762 167.75 190.328 167.585C190.894 167.423 191.49 167.743 191.655 168.31C192.444 170.995 193.172 173.799 193.82 176.646C193.949 177.222 193.59 177.795 193.014 177.924C192.933 177.944 192.855 177.95 192.778 177.95V177.947ZM187.933 161.568C187.5 161.568 187.092 161.302 186.933 160.872C185.93 158.187 184.83 155.563 183.665 153.073C183.416 152.539 183.645 151.901 184.179 151.652C184.713 151.4 185.351 151.633 185.6 152.167C186.791 154.709 187.914 157.388 188.936 160.125C189.143 160.678 188.862 161.293 188.309 161.5C188.186 161.545 188.059 161.568 187.936 161.568H187.933ZM180.671 146.124C180.302 146.124 179.946 145.933 179.749 145.593C178.315 143.134 176.769 140.76 175.147 138.528C174.801 138.049 174.908 137.383 175.384 137.036C175.859 136.69 176.529 136.797 176.875 137.273C178.536 139.56 180.121 141.999 181.594 144.516C181.891 145.027 181.72 145.68 181.209 145.978C181.04 146.078 180.853 146.124 180.671 146.124ZM170.639 132.336C170.348 132.336 170.057 132.216 169.847 131.983C167.96 129.9 165.947 127.907 163.863 126.07C163.42 125.678 163.378 125.005 163.769 124.562C164.161 124.119 164.834 124.077 165.277 124.468C167.423 126.361 169.494 128.409 171.432 130.553C171.827 130.99 171.795 131.666 171.358 132.061C171.154 132.245 170.898 132.336 170.643 132.336H170.639ZM157.86 121.062C157.65 121.062 157.436 121 157.248 120.871C154.97 119.279 152.559 117.794 150.09 116.452C149.572 116.17 149.381 115.52 149.663 115.003C149.945 114.485 150.595 114.294 151.113 114.576C153.653 115.957 156.129 117.484 158.475 119.121C158.96 119.457 159.077 120.124 158.74 120.609C158.533 120.906 158.2 121.065 157.863 121.065L157.86 121.062ZM142.896 112.903C142.76 112.903 142.621 112.877 142.489 112.822C139.942 111.764 137.272 110.807 134.554 109.972C133.991 109.801 133.673 109.202 133.845 108.639C134.016 108.073 134.615 107.759 135.178 107.931C137.964 108.785 140.699 109.768 143.307 110.849C143.854 111.075 144.11 111.7 143.883 112.246C143.712 112.657 143.317 112.906 142.896 112.906V112.903Z" fill="#F8931F"/>
<path d="M485.554 551.258C485.554 551.258 451.252 484.202 467.921 419.006C468.477 416.826 476.959 419.252 477.632 417.078C478.493 414.299 471.59 406.927 472.655 404.17C476.616 393.922 482.027 383.854 489.227 374.24C489.227 374.24 502.816 394.022 509.867 424.904C510.398 427.233 501.732 433.716 502.178 436.168C502.602 438.485 512.149 436.76 512.482 439.18C516.812 470.463 513.084 510.086 485.551 551.258H485.554Z" fill="#C2E1DE"/>
<path d="M455.698 472.1C454.271 470.149 446.142 477.192 444.692 475.338C443.262 473.51 447.119 460.298 445.676 458.567C417.334 424.616 387.164 409.049 387.164 409.049C384.491 426.689 384.792 443.58 387.264 459.57C387.659 462.123 399.212 466.387 399.714 468.894C400.264 471.644 390.834 475.079 391.507 477.774C401.435 517.558 423.111 548.68 444.592 573.004C461.355 567.103 476.558 559.692 490.273 551.002C483.678 517.811 471.157 493.221 455.705 472.103L455.698 472.1Z" fill="#26AA9D"/>
<path d="M464.17 550.666C463.827 550.666 463.491 550.501 463.284 550.194C455.689 538.916 448.288 527.28 441.285 515.611C440.981 515.107 441.146 514.45 441.65 514.146C442.155 513.842 442.812 514.007 443.116 514.511C450.103 526.148 457.485 537.752 465.057 549C465.387 549.489 465.258 550.155 464.769 550.482C464.585 550.605 464.378 550.663 464.174 550.663L464.17 550.666Z" fill="#D8D8D8"/>
<path d="M432.421 499.368C432.049 499.368 431.686 499.174 431.492 498.828C420.172 478.871 409.603 458.166 400.073 437.294L395.717 427.751C395.471 427.213 395.707 426.579 396.244 426.337C396.782 426.091 397.416 426.327 397.659 426.864L402.014 436.407C411.519 457.225 422.062 477.874 433.35 497.776C433.641 498.291 433.46 498.941 432.948 499.232C432.78 499.326 432.602 499.371 432.421 499.371V499.368Z" fill="#D8D8D8"/>
<path d="M483.613 555.004C483.613 555.004 470.037 483.341 540.216 458.467C540.216 458.467 546.096 521.023 483.613 555.004Z" fill="#26AA9D"/>
<path d="M496.211 536.348C496.094 536.348 495.974 536.328 495.858 536.29C495.301 536.096 495.007 535.484 495.204 534.928C503.256 511.943 528.297 476.348 528.549 475.992C528.889 475.51 529.559 475.396 530.038 475.736C530.52 476.076 530.633 476.742 530.293 477.224C530.044 477.58 505.171 512.929 497.22 535.636C497.065 536.076 496.654 536.351 496.211 536.351V536.348Z" fill="#D8D8D8"/>
</svg>
