<svg width="41" height="25" viewBox="0 0 41 25" fill="none" xmlns="http://www.w3.org/2000/svg">
<g clip-path="url(#clip0_2020_2728)">
<path opacity="0.07" d="M37.3421 0H3.65789C1.86842 0 0.5 1.35417 0.5 3.125V21.875C0.5 23.6458 1.97368 25 3.65789 25H37.3421C39.1316 25 40.5 23.6458 40.5 21.875V3.125C40.5 1.35417 39.0263 0 37.3421 0Z" fill="#263238"/>
<path d="M37.3421 1.0415C38.5 1.0415 39.4473 1.979 39.4473 3.12484V21.8748C39.4473 23.0207 38.5 23.9582 37.3421 23.9582H3.65788C2.49998 23.9582 1.55261 23.0207 1.55261 21.8748V3.12484C1.55261 1.979 2.49998 1.0415 3.65788 1.0415H37.3421Z" fill="white"/>
<path d="M30.2895 10.521H29.9737C29.5527 11.5627 29.2369 12.0835 28.9211 13.646H30.9211C30.6053 12.0835 30.6053 11.3543 30.2895 10.521ZM33.3421 16.6668H31.5527C31.4474 16.6668 31.4474 16.6668 31.3421 16.5627L31.1316 15.6252L31.0263 15.4168H28.5C28.3948 15.4168 28.2895 15.4168 28.2895 15.6252L27.9737 16.5627C27.9737 16.6668 27.8684 16.6668 27.8684 16.6668H25.6579L25.8684 16.146L28.9211 9.06266C28.9211 8.54183 29.2369 8.3335 29.7632 8.3335H31.3421C31.4474 8.3335 31.5527 8.3335 31.5527 8.54183L33.0263 15.3127C33.1316 15.7293 33.2369 16.0418 33.2369 16.4585C33.3421 16.5627 33.3421 16.5627 33.3421 16.6668ZM19.2369 16.3543L19.6579 14.4793C19.7632 14.4793 19.8684 14.5835 19.8684 14.5835C20.6053 14.896 21.3421 15.1043 22.079 15.0002C22.2895 15.0002 22.6053 14.896 22.8158 14.7918C23.3421 14.5835 23.3421 14.0627 22.9211 13.646C22.7106 13.4377 22.3948 13.3335 22.079 13.1252C21.6579 12.9168 21.2369 12.7085 20.9211 12.396C19.6579 11.3543 20.079 9.896 20.8158 9.16683C21.4474 8.75016 21.7632 8.3335 22.6053 8.3335C23.8684 8.3335 25.2369 8.3335 25.8684 8.54183H25.9737C25.8684 9.16683 25.7632 9.68766 25.5527 10.3127C25.0263 10.1043 24.5 9.896 23.9737 9.896C23.6579 9.896 23.3421 9.896 23.0263 10.0002C22.8158 10.0002 22.7106 10.1043 22.6053 10.2085C22.3948 10.4168 22.3948 10.7293 22.6053 10.9377L23.1316 11.3543C23.5527 11.5627 23.9737 11.771 24.2895 11.9793C24.8158 12.2918 25.3421 12.8127 25.4474 13.4377C25.6579 14.3752 25.3421 15.2085 24.5 15.8335C23.9737 16.2502 23.7632 16.4585 23.0263 16.4585C21.5527 16.4585 20.3948 16.5627 19.4474 16.2502C19.3421 16.4585 19.3421 16.4585 19.2369 16.3543ZM15.5527 16.6668C15.6579 15.9377 15.6579 15.9377 15.7632 15.6252C16.2895 13.3335 16.8158 10.9377 17.2369 8.646C17.3421 8.43766 17.3421 8.3335 17.5527 8.3335H19.4474C19.2369 9.5835 19.0263 10.521 18.7106 11.6668C18.3948 13.2293 18.079 14.7918 17.6579 16.3543C17.6579 16.5627 17.5527 16.5627 17.3421 16.5627L15.5527 16.6668ZM5.76318 8.54183C5.76318 8.43766 5.97371 8.3335 6.07897 8.3335H9.65792C10.1842 8.3335 10.6053 8.646 10.7106 9.16683L11.6579 13.7502C11.6579 13.8543 11.6579 13.8543 11.7632 13.9585C11.7632 13.8543 11.8684 13.8543 11.8684 13.8543L14.079 8.54183C13.9737 8.43766 14.079 8.3335 14.1842 8.3335H16.3948C16.3948 8.43766 16.3948 8.43766 16.2895 8.54183L13.0263 16.146C12.9211 16.3543 12.9211 16.4585 12.8158 16.5627C12.7106 16.6668 12.5 16.5627 12.2895 16.5627H10.7106C10.6053 16.5627 10.5 16.5627 10.5 16.3543L8.81582 9.896C8.60529 9.68766 8.2895 9.37516 7.86845 9.271C7.23687 8.9585 6.07897 8.75016 5.86845 8.75016L5.76318 8.54183Z" fill="#142688"/>
</g>
<defs>
<clipPath id="clip0_2020_2728">
<rect width="40" height="25" fill="white" transform="translate(0.5)"/>
</clipPath>
</defs>
</svg>
